<svg xmlns="http://www.w3.org/2000/svg" width="1587" height="1123" viewBox="0 0 1587 1123" font-family="Arial, Helvetica, sans-serif" font-size="12">
  <rect width="1587" height="1123" fill="white"/>
  <rect x="20" y="20" width="1547" height="1083" fill="none" stroke="black" stroke-width="2"/>
  <rect x="30" y="30" width="1527" height="1063" fill="none" stroke="black" stroke-width="1"/>
  <rect x="20" y="20.0" width="16" height="270.75" fill="none" stroke="#888" stroke-width="0.4"/>
  <text x="28.0" y="159.375" text-anchor="middle" font-size="9" fill="#444" font-family="Arial, Helvetica, sans-serif">A</text>
  <rect x="1551" y="20.0" width="16" height="270.75" fill="none" stroke="#888" stroke-width="0.4"/>
  <text x="1559.0" y="159.375" text-anchor="middle" font-size="9" fill="#444" font-family="Arial, Helvetica, sans-serif">A</text>
  <rect x="20" y="290.75" width="16" height="270.75" fill="none" stroke="#888" stroke-width="0.4"/>
  <text x="28.0" y="430.125" text-anchor="middle" font-size="9" fill="#444" font-family="Arial, Helvetica, sans-serif">B</text>
  <rect x="1551" y="290.75" width="16" height="270.75" fill="none" stroke="#888" stroke-width="0.4"/>
  <text x="1559.0" y="430.125" text-anchor="middle" font-size="9" fill="#444" font-family="Arial, Helvetica, sans-serif">B</text>
  <rect x="20" y="561.5" width="16" height="270.75" fill="none" stroke="#888" stroke-width="0.4"/>
  <text x="28.0" y="700.875" text-anchor="middle" font-size="9" fill="#444" font-family="Arial, Helvetica, sans-serif">C</text>
  <rect x="1551" y="561.5" width="16" height="270.75" fill="none" stroke="#888" stroke-width="0.4"/>
  <text x="1559.0" y="700.875" text-anchor="middle" font-size="9" fill="#444" font-family="Arial, Helvetica, sans-serif">C</text>
  <rect x="20" y="832.25" width="16" height="270.75" fill="none" stroke="#888" stroke-width="0.4"/>
  <text x="28.0" y="971.625" text-anchor="middle" font-size="9" fill="#444" font-family="Arial, Helvetica, sans-serif">D</text>
  <rect x="1551" y="832.25" width="16" height="270.75" fill="none" stroke="#888" stroke-width="0.4"/>
  <text x="1559.0" y="971.625" text-anchor="middle" font-size="9" fill="#444" font-family="Arial, Helvetica, sans-serif">D</text>
  <rect x="20.0" y="20" width="193.375" height="16" fill="none" stroke="#888" stroke-width="0.4"/>
  <text x="116.6875" y="32" text-anchor="middle" font-size="9" fill="#444" font-family="Arial, Helvetica, sans-serif">1</text>
  <rect x="20.0" y="1087" width="193.375" height="16" fill="none" stroke="#888" stroke-width="0.4"/>
  <text x="116.6875" y="1099" text-anchor="middle" font-size="9" fill="#444" font-family="Arial, Helvetica, sans-serif">1</text>
  <rect x="213.375" y="20" width="193.375" height="16" fill="none" stroke="#888" stroke-width="0.4"/>
  <text x="310.0625" y="32" text-anchor="middle" font-size="9" fill="#444" font-family="Arial, Helvetica, sans-serif">2</text>
  <rect x="213.375" y="1087" width="193.375" height="16" fill="none" stroke="#888" stroke-width="0.4"/>
  <text x="310.0625" y="1099" text-anchor="middle" font-size="9" fill="#444" font-family="Arial, Helvetica, sans-serif">2</text>
  <rect x="406.75" y="20" width="193.375" height="16" fill="none" stroke="#888" stroke-width="0.4"/>
  <text x="503.4375" y="32" text-anchor="middle" font-size="9" fill="#444" font-family="Arial, Helvetica, sans-serif">3</text>
  <rect x="406.75" y="1087" width="193.375" height="16" fill="none" stroke="#888" stroke-width="0.4"/>
  <text x="503.4375" y="1099" text-anchor="middle" font-size="9" fill="#444" font-family="Arial, Helvetica, sans-serif">3</text>
  <rect x="600.125" y="20" width="193.375" height="16" fill="none" stroke="#888" stroke-width="0.4"/>
  <text x="696.8125" y="32" text-anchor="middle" font-size="9" fill="#444" font-family="Arial, Helvetica, sans-serif">4</text>
  <rect x="600.125" y="1087" width="193.375" height="16" fill="none" stroke="#888" stroke-width="0.4"/>
  <text x="696.8125" y="1099" text-anchor="middle" font-size="9" fill="#444" font-family="Arial, Helvetica, sans-serif">4</text>
  <rect x="793.5" y="20" width="193.375" height="16" fill="none" stroke="#888" stroke-width="0.4"/>
  <text x="890.1875" y="32" text-anchor="middle" font-size="9" fill="#444" font-family="Arial, Helvetica, sans-serif">5</text>
  <rect x="793.5" y="1087" width="193.375" height="16" fill="none" stroke="#888" stroke-width="0.4"/>
  <text x="890.1875" y="1099" text-anchor="middle" font-size="9" fill="#444" font-family="Arial, Helvetica, sans-serif">5</text>
  <rect x="986.875" y="20" width="193.375" height="16" fill="none" stroke="#888" stroke-width="0.4"/>
  <text x="1083.5625" y="32" text-anchor="middle" font-size="9" fill="#444" font-family="Arial, Helvetica, sans-serif">6</text>
  <rect x="986.875" y="1087" width="193.375" height="16" fill="none" stroke="#888" stroke-width="0.4"/>
  <text x="1083.5625" y="1099" text-anchor="middle" font-size="9" fill="#444" font-family="Arial, Helvetica, sans-serif">6</text>
  <rect x="1180.25" y="20" width="193.375" height="16" fill="none" stroke="#888" stroke-width="0.4"/>
  <text x="1276.9375" y="32" text-anchor="middle" font-size="9" fill="#444" font-family="Arial, Helvetica, sans-serif">7</text>
  <rect x="1180.25" y="1087" width="193.375" height="16" fill="none" stroke="#888" stroke-width="0.4"/>
  <text x="1276.9375" y="1099" text-anchor="middle" font-size="9" fill="#444" font-family="Arial, Helvetica, sans-serif">7</text>
  <rect x="1373.625" y="20" width="193.375" height="16" fill="none" stroke="#888" stroke-width="0.4"/>
  <text x="1470.3125" y="32" text-anchor="middle" font-size="9" fill="#444" font-family="Arial, Helvetica, sans-serif">8</text>
  <rect x="1373.625" y="1087" width="193.375" height="16" fill="none" stroke="#888" stroke-width="0.4"/>
  <text x="1470.3125" y="1099" text-anchor="middle" font-size="9" fill="#444" font-family="Arial, Helvetica, sans-serif">8</text>
  <rect x="1475" y="32" width="80" height="20" fill="white" stroke="black" stroke-width="0.8"/>
  <text x="1515.0" y="45" text-anchor="middle" font-size="9" fill="#000" font-family="Arial, Helvetica, sans-serif">REV: &#x2014;</text>
  <line x1="30" y1="506" x2="1557" y2="506" stroke="#888" stroke-width="0.6"/>
  <line x1="793" y1="30" x2="793" y2="983" stroke="#888" stroke-width="0.6"/>
  <rect x="42" y="42" width="739" height="452" fill="#fafafa" stroke="#ccc" stroke-width="0.5"/>
  <rect x="805" y="42" width="739" height="452" fill="#fafafa" stroke="#ccc" stroke-width="0.5"/>
  <rect x="42" y="518" width="739" height="452" fill="#fafafa" stroke="#ccc" stroke-width="0.5"/>
  <rect x="805" y="518" width="739" height="452" fill="#fafafa" stroke="#ccc" stroke-width="0.5"/>
  <text x="46" y="54" font-size="9" font-weight="bold" fill="#444" font-family="Arial, Helvetica, sans-serif">FRONT VIEW</text>
  <text x="809" y="54" font-size="9" font-weight="bold" fill="#444" font-family="Arial, Helvetica, sans-serif">TOP VIEW</text>
  <text x="46" y="530" font-size="9" font-weight="bold" fill="#444" font-family="Arial, Helvetica, sans-serif">RIGHT SIDE VIEW</text>
  <text x="809" y="530" font-size="9" font-weight="bold" fill="#444" font-family="Arial, Helvetica, sans-serif">SECTION A-A</text>
  <clipPath id="clip_front"><rect x="42" y="42" width="739" height="452"/></clipPath>
  <g clip-path="url(#clip_front)" transform="translate(42,68)">
    <g transform="scale(3.5999999999999996, -3.5999999999999996)   translate(76.05555555555557,-30.555555555555557)" stroke-width="0.2777777777777778"  fill="none">
       <!-- hidden lines -->
       <g  stroke="rgb(160,160,160)" fill="none" stroke-dasharray="0.2777777777777778,0.2777777777777778" >
			<path d="M12.5,-25.0 L-12.5,-25.0 " />
			<path d="M-12.5,-25.0 L-12.5,25.0 " />
			<path d="M-12.5,-24.0 L-12.5,-10.0 " />
			<path d="M-12.5,-10.0 L-12.5,-24.0 " />
			<path d="M-12.5,-7.0 L-12.5,7.0 " />
			<path d="M-12.5,7.0 L-12.5,-7.0 " />
			<path d="M-12.5,10.0 L-12.5,24.0 " />
			<path d="M-12.5,24.0 L-12.5,10.0 " />
			<path d="M12.5,-25.0 L12.5,25.0 " />
			<path d="M12.5,25.0 L-12.5,25.0 " />
			<path d="M-12.5,-10.0 L-20.5,-10.0 " />
			<path d="M-20.5,-10.0 L-20.5,-24.0 " />
			<path d="M-12.5,-24.0 L-20.5,-24.0 " />
			<path d="M-12.5,7.0 L-20.5,7.0 " />
			<path d="M-20.5,7.0 L-20.5,-7.0 " />
			<path d="M-12.5,-7.0 L-20.5,-7.0 " />
			<path d="M-16.5,2.5 L-16.64017611809298,2.4960670375445417 L-16.779911190258268,2.4842805247331063 L-16.918765558261843,2.4646775462955897 L-17.056302334890788,2.437319780454559 L-17.192088778562123,2.402293304862749 L-17.325697654887918,2.359708325770919 L-17.456708580912725,2.309698831278217 L-17.584709347793897,2.252422169756048 L-17.7092972177631,2.1880585547718843 L-17.830080191288342,2.1168104980707105 L-17.946678240449515,2.03890217239815 L-18.058724504646833,1.9545787061700746 L-18.16586644488001,1.864105412207914 L-18.26776695296637,1.7677669529663689 L-18.364105412207913,1.6658664448800098 L-18.454578706170075,1.5587245046468339 L-18.53890217239815,1.4466782404495144 L-18.61681049807071,1.3300801912883413 L-18.688058554771885,1.2092972177630994 L-18.75242216975605,1.0847093477938954 L-18.80969883127822,0.9567085809127246 L-18.859708325770917,0.8256976548879179 L-18.90229330486275,0.6920887785621235 L-18.93731978045456,0.5563023348907861 L-18.96467754629559,0.41876555826184114 L-18.984280524733105,0.27991119025826977 L-18.99606703754454,0.1401761180929796 L-19.0,1.5308084989341916e-16 L-18.99606703754454,-0.1401761180929793 L-18.984280524733105,-0.2799111902582695 L-18.96467754629559,-0.4187655582618408 L-18.93731978045456,-0.5563023348907858 L-18.90229330486275,-0.6920887785621233 L-18.859708325770917,-0.8256976548879175 L-18.80969883127822,-0.9567085809127243 L-18.75242216975605,-1.0847093477938952 L-18.688058554771885,-1.2092972177630992 L-18.61681049807071,-1.330080191288341 L-18.53890217239815,-1.4466782404495144 L-18.454578706170075,-1.5587245046468337 L-18.364105412207913,-1.6658664448800098 L-18.26776695296637,-1.7677669529663687 L-18.16586644488001,-1.864105412207914 L-18.058724504646833,-1.9545787061700741 L-17.946678240449515,-2.03890217239815 L-17.830080191288342,-2.11681049807071 L-17.7092972177631,-2.1880585547718843 L-17.584709347793897,-2.2524221697560476 L-17.456708580912725,-2.309698831278217 L-17.325697654887918,-2.359708325770919 L-17.192088778562123,-2.4022933048627486 L-17.056302334890788,-2.437319780454559 L-16.918765558261843,-2.4646775462955897 L-16.77991119025827,-2.4842805247331063 L-16.64017611809298,-2.4960670375445417 L-16.5,-2.5 L-16.359823881907023,-2.4960670375445417 L-16.220088809741732,-2.4842805247331063 L-16.08123444173816,-2.4646775462955897 L-15.943697665109214,-2.437319780454559 L-15.807911221437877,-2.402293304862749 L-15.674302345112082,-2.359708325770919 L-15.543291419087275,-2.309698831278217 L-15.415290652206105,-2.252422169756048 L-15.2907027822369,-2.1880585547718843 L-15.16991980871166,-2.1168104980707105 L-15.053321759550485,-2.0389021723981506 L-14.941275495353167,-1.9545787061700748 L-14.83413355511999,-1.8641054122079144 L-14.732233047033631,-1.7677669529663693 L-14.635894587792086,-1.66586644488001 L-14.545421293829925,-1.5587245046468343 L-14.46109782760185,-1.4466782404495153 L-14.38318950192929,-1.3300801912883435 L-14.311941445228118,-1.2092972177631027 L-14.247577830243955,-1.0847093477938998 L-14.190301168721785,-0.95670858091273 L-14.140291674229083,-0.8256976548879245 L-14.097706695137253,-0.6920887785621312 L-14.062680219545443,-0.5563023348907951 L-14.035322453704412,-0.4187655582618513 L-14.015719475266895,-0.27991119025828115 L-14.003932962455458,-0.14017611809299213 L-14.0,-1.3781918845182135e-14 L-14.003932962455458,0.1401761180929646 L-14.015719475266891,0.27991119025825373 L-14.035322453704408,0.4187655582618241 L-14.062680219545436,0.5563023348907682 L-14.097706695137246,0.6920887785621049 L-14.140291674229074,0.8256976548878983 L-14.190301168721774,0.9567085809127045 L-14.247577830243943,1.084709347793875 L-14.311941445228104,1.2092972177630787 L-14.383189501929277,1.3300801912883204 L-14.461097827601835,1.4466782404494931 L-14.545421293829909,1.5587245046468126 L-14.635894587792068,1.6658664448799887 L-14.73223304703361,1.767766952966348 L-14.834133555119967,1.8641054122078937 L-14.94127549535314,1.9545787061700548 L-15.053321759550458,2.0389021723981315 L-15.16991980871163,2.1168104980706923 L-15.29070278223687,2.1880585547718674 L-15.415290652206073,2.252422169756032 L-15.543291419087241,2.3096988312782027 L-15.674302345112046,2.359708325770906 L-15.807911221437838,2.402293304862738 L-15.943697665109175,2.43731978045455 L-16.08123444173812,2.464677546295583 L-16.22008880974169,2.484280524733102 L-16.359823881906976,2.496067037544539 L-16.499999999999954,2.5 " />
			<path d="M-12.5,24.0 L-20.5,24.0 " />
			<path d="M-20.5,24.0 L-20.5,10.0 " />
			<path d="M-12.5,10.0 L-20.5,10.0 " />

       </g>

       <!-- solid lines -->
       <g  stroke="rgb(0,0,0)" fill="none">
			<path d="M12.5,-25.0 L-12.5,-25.0 " />
			<path d="M12.5,-25.0 L12.5,25.0 " />
			<path d="M-12.5,-25.0 L-12.5,25.0 " />
			<path d="M12.5,25.0 L-12.5,25.0 " />
			<path d="M-12.5,-24.0 L-20.5,-24.0 " />
			<path d="M-20.5,-24.0 L-20.5,-10.0 " />
			<path d="M-12.5,-10.0 L-20.5,-10.0 " />
			<path d="M-12.5,-7.0 L-20.5,-7.0 " />
			<path d="M-20.5,-7.0 L-20.5,7.0 " />
			<path d="M-12.5,7.0 L-20.5,7.0 " />
			<path d="M-16.5,2.5 L-16.35982388190702,2.4960670375445417 L-16.220088809741732,2.4842805247331063 L-16.081234441738157,2.4646775462955897 L-15.943697665109214,2.437319780454559 L-15.807911221437877,2.402293304862749 L-15.674302345112082,2.359708325770919 L-15.543291419087275,2.309698831278217 L-15.415290652206105,2.252422169756048 L-15.2907027822369,2.1880585547718843 L-15.169919808711658,2.1168104980707105 L-15.053321759550485,2.03890217239815 L-14.941275495353166,1.9545787061700746 L-14.83413355511999,1.864105412207914 L-14.732233047033631,1.7677669529663689 L-14.635894587792086,1.6658664448800098 L-14.545421293829925,1.5587245046468339 L-14.46109782760185,1.4466782404495144 L-14.38318950192929,1.3300801912883413 L-14.311941445228115,1.2092972177630994 L-14.247577830243952,1.0847093477938954 L-14.190301168721783,0.9567085809127246 L-14.140291674229081,0.8256976548879179 L-14.097706695137251,0.6920887785621235 L-14.062680219545442,0.5563023348907861 L-14.03532245370441,0.41876555826184114 L-14.015719475266893,0.27991119025826977 L-14.003932962455458,0.1401761180929796 L-14.0,1.5308084989341916e-16 L-14.003932962455458,-0.1401761180929793 L-14.015719475266893,-0.2799111902582695 L-14.03532245370441,-0.4187655582618408 L-14.062680219545442,-0.5563023348907858 L-14.097706695137251,-0.6920887785621233 L-14.140291674229081,-0.8256976548879175 L-14.190301168721783,-0.9567085809127243 L-14.247577830243952,-1.0847093477938952 L-14.311941445228115,-1.2092972177630992 L-14.383189501929289,-1.330080191288341 L-14.461097827601849,-1.4466782404495144 L-14.545421293829925,-1.5587245046468337 L-14.635894587792086,-1.6658664448800098 L-14.732233047033631,-1.7677669529663687 L-14.83413355511999,-1.864105412207914 L-14.941275495353166,-1.9545787061700741 L-15.053321759550485,-2.03890217239815 L-15.169919808711658,-2.11681049807071 L-15.2907027822369,-2.1880585547718843 L-15.415290652206105,-2.2524221697560476 L-15.543291419087275,-2.309698831278217 L-15.674302345112082,-2.359708325770919 L-15.807911221437877,-2.4022933048627486 L-15.943697665109214,-2.437319780454559 L-16.081234441738157,-2.4646775462955897 L-16.22008880974173,-2.4842805247331063 L-16.35982388190702,-2.4960670375445417 L-16.5,-2.5 L-16.640176118092977,-2.4960670375445417 L-16.779911190258268,-2.4842805247331063 L-16.91876555826184,-2.4646775462955897 L-17.056302334890784,-2.437319780454559 L-17.192088778562123,-2.402293304862749 L-17.325697654887918,-2.359708325770919 L-17.456708580912725,-2.309698831278217 L-17.584709347793893,-2.252422169756048 L-17.709297217763098,-2.1880585547718843 L-17.830080191288342,-2.1168104980707105 L-17.946678240449515,-2.0389021723981506 L-18.058724504646833,-1.9545787061700748 L-18.16586644488001,-1.8641054122079144 L-18.26776695296637,-1.7677669529663693 L-18.364105412207913,-1.66586644488001 L-18.454578706170075,-1.5587245046468343 L-18.53890217239815,-1.4466782404495153 L-18.61681049807071,-1.3300801912883435 L-18.68805855477188,-1.2092972177631027 L-18.752422169756045,-1.0847093477938998 L-18.809698831278215,-0.95670858091273 L-18.859708325770917,-0.8256976548879245 L-18.902293304862745,-0.6920887785621312 L-18.93731978045456,-0.5563023348907951 L-18.964677546295587,-0.4187655582618513 L-18.984280524733105,-0.27991119025828115 L-18.99606703754454,-0.14017611809299213 L-19.0,-1.3781918845182135e-14 L-18.99606703754454,0.1401761180929646 L-18.98428052473311,0.27991119025825373 L-18.964677546295594,0.4187655582618241 L-18.937319780454562,0.5563023348907682 L-18.902293304862756,0.6920887785621049 L-18.859708325770924,0.8256976548878983 L-18.809698831278226,0.9567085809127045 L-18.75242216975606,1.084709347793875 L-18.688058554771896,1.2092972177630787 L-18.616810498070723,1.3300801912883204 L-18.538902172398167,1.4466782404494931 L-18.454578706170093,1.5587245046468126 L-18.364105412207934,1.6658664448799887 L-18.26776695296639,1.767766952966348 L-18.16586644488003,1.8641054122078937 L-18.058724504646857,1.9545787061700548 L-17.94667824044954,2.0389021723981315 L-17.83008019128837,2.1168104980706923 L-17.70929721776313,2.1880585547718674 L-17.58470934779393,2.252422169756032 L-17.45670858091276,2.3096988312782027 L-17.325697654887954,2.359708325770906 L-17.192088778562162,2.402293304862738 L-17.056302334890827,2.43731978045455 L-16.91876555826188,2.464677546295583 L-16.77991119025831,2.484280524733102 L-16.640176118093024,2.496067037544539 L-16.500000000000046,2.5 " />
			<path d="M-12.5,10.0 L-20.5,10.0 " />
			<path d="M-20.5,10.0 L-20.5,24.0 " />
			<path d="M-12.5,24.0 L-20.5,24.0 " />

       </g>
    </g>
  </g>
  <clipPath id="clip_top"><rect x="805" y="42" width="739" height="452"/></clipPath>
  <g clip-path="url(#clip_top)" transform="translate(805,68)">
    <g transform="scale(7.199999999999999, -7.199999999999999)   translate(52.777777777777786,-15.277777777777779)" stroke-width="0.1388888888888889"  fill="none">
       <!-- hidden lines -->
       <g  stroke="rgb(160,160,160)" fill="none" stroke-dasharray="0.1388888888888889,0.1388888888888889" >
			<path d="M-25.0,-12.5 L-25.0,12.5 " />
			<path d="M-25.0,-12.5 L25.0,-12.5 " />
			<path d="M-24.0,-9.0 L-10.0,-9.0 " />
			<path d="M-24.0,9.0 L-24.0,-9.0 " />
			<path d="M-10.0,9.0 L-24.0,9.0 " />
			<path d="M-10.0,-9.0 L-10.0,9.0 " />
			<path d="M-7.0,-9.0 L7.0,-9.0 " />
			<path d="M-7.0,9.0 L-7.0,-9.0 " />
			<path d="M7.0,9.0 L-7.0,9.0 " />
			<path d="M7.0,-9.0 L7.0,9.0 " />
			<path d="M10.0,-9.0 L24.0,-9.0 " />
			<path d="M10.0,9.0 L10.0,-9.0 " />
			<path d="M24.0,9.0 L10.0,9.0 " />
			<path d="M24.0,-9.0 L24.0,9.0 " />
			<path d="M-25.0,12.5 L25.0,12.5 " />
			<path d="M25.0,-12.5 L25.0,12.5 " />
			<path d="M2.5,-9.0 L2.437319780454543,-9.0 L2.2524221697559836,-9.0 L1.9545787061699362,-9.0 L1.5587245046466027,-9.0 L1.0847093477935623,-9.0 L0.5563023348903537,-9.0 L-5.172108486254294e-13,-9.0 L-0.5563023348913622,-9.0 L-1.0847093477944942,-9.0 L-1.5587245046474119,-9.0 L-1.954578706170582,-9.0 L-2.252422169756433,-9.0 L-2.4373197804547733,-9.0 L-2.4999999999999987,-9.0 " />
			<path d="M-2.5,-9.0 L-2.437319780454345,-9.0 L-2.2524221697556635,-9.0 L-1.9545787061695687,-9.0 L-1.558724504646258,-9.0 L-1.0847093477932974,-9.0 L-0.5563023348902106,-9.0 L5.169046869256426e-13,-9.0 L0.5563023348912185,-9.0 L1.084709347794229,-9.0 L1.5587245046470661,-9.0 L1.9545787061702138,-9.0 L2.2524221697561133,-9.0 L2.437319780454576,-9.0 L2.4999999999999973,-9.0 " />
			<path d="M2.5,9.0 L2.437319780454559,9.0 L2.252422169756048,9.0 L1.9545787061700746,9.0 L1.5587245046468339,9.0 L1.0847093477938954,9.0 L0.5563023348907861,9.0 L1.5308084989341916e-16,9.0 L-0.5563023348907858,9.0 L-1.0847093477938952,9.0 L-1.5587245046468337,9.0 L-1.9545787061700741,9.0 L-2.2524221697560476,9.0 L-2.437319780454559,9.0 L-2.4999999999999987,9.0 " />
			<path d="M-2.5,9.0 L-2.437319780454559,9.0 L-2.252422169756048,9.0 L-1.9545787061700748,9.0 L-1.5587245046468343,9.0 L-1.0847093477938956,9.0 L-0.5563023348907865,9.0 L-4.592425496802574e-16,9.0 L0.5563023348907856,9.0 L1.084709347793895,9.0 L1.5587245046468334,9.0 L1.9545787061700741,9.0 L2.2524221697560476,9.0 L2.4373197804545588,9.0 L2.4999999999999973,9.0 " />
			<path d="M2.5,0.0 L2.5,-9.0 " />
			<path d="M2.5,0.0 L2.5,9.0 " />
			<path d="M-2.5,-9.0 L-2.5,0.0 " />
			<path d="M-2.5,9.0 L-2.5,0.0 " />

       </g>

       <!-- solid lines -->
       <g  stroke="rgb(0,0,0)" fill="none">
			<path d="M-25.0,-12.5 L-25.0,12.5 " />
			<path d="M-25.0,-12.5 L25.0,-12.5 " />
			<path d="M25.0,-12.5 L25.0,12.5 " />
			<path d="M-25.0,12.5 L25.0,12.5 " />
			<path d="M-24.0,-9.0 L-10.0,-9.0 " />
			<path d="M-10.0,-9.0 L-10.0,9.0 " />
			<path d="M-10.0,9.0 L-24.0,9.0 " />
			<path d="M-24.0,9.0 L-24.0,-9.0 " />
			<path d="M-7.0,-9.0 L7.0,-9.0 " />
			<path d="M7.0,-9.0 L7.0,9.0 " />
			<path d="M7.0,9.0 L-7.0,9.0 " />
			<path d="M-7.0,9.0 L-7.0,-9.0 " />
			<path d="M10.0,-9.0 L24.0,-9.0 " />
			<path d="M24.0,-9.0 L24.0,9.0 " />
			<path d="M24.0,9.0 L10.0,9.0 " />
			<path d="M10.0,9.0 L10.0,-9.0 " />

       </g>
    </g>
  </g>
  <clipPath id="clip_right"><rect x="42" y="518" width="739" height="452"/></clipPath>
  <g clip-path="url(#clip_right)" transform="translate(42,544)">
    <g transform="scale(7.199999999999999, -7.199999999999999)   translate(40.277777777777786,-15.277777777777779)" stroke-width="0.1388888888888889"  fill="none">
       <!-- hidden lines -->
       <g  stroke="rgb(160,160,160)" fill="none" stroke-dasharray="0.1388888888888889,0.1388888888888889" >
			<path d="M-12.5,12.5 L12.5,12.5 " />
			<path d="M-12.5,12.5 L-12.5,-12.5 " />
			<path d="M-12.5,-12.5 L12.5,-12.5 " />
			<path d="M12.5,12.5 L12.5,-12.5 " />
			<path d="M12.5,-9.0 L12.5,9.0 " />
			<path d="M12.5,9.0 L12.5,-9.0 " />
			<path d="M12.5,-9.0 L12.5,9.0 " />
			<path d="M12.5,9.0 L12.5,-9.0 " />
			<path d="M12.5,-9.0 L12.5,9.0 " />
			<path d="M12.5,9.0 L12.5,-9.0 " />
			<path d="M12.5,9.0 L20.5,9.0 " />
			<path d="M12.5,9.0 L20.5,9.0 " />
			<path d="M20.5,9.0 L20.5,-9.0 " />
			<path d="M12.5,-9.0 L20.5,-9.0 " />
			<path d="M12.5,-9.0 L20.5,-9.0 " />
			<path d="M20.5,-9.0 L20.5,9.0 " />
			<path d="M12.5,9.0 L20.5,9.0 " />
			<path d="M12.5,9.0 L20.5,9.0 " />
			<path d="M16.5,9.0 L16.220088809741657,9.0 L15.94369766510907,9.0 L15.674302345111872,9.0 L15.415290652205838,9.0 L15.169919808711345,9.0 L14.94127549535282,9.0 L14.732233047033265,9.0 L14.545421293829557,9.0 L14.383189501928936,9.0 L14.247577830243632,9.0 L14.140291674228813,9.0 L14.062680219545243,9.0 L14.015719475266787,9.0 L14.0,9.0 " />
			<path d="M14.0,9.0 L14.06268021954567,9.0 L14.247577830244401,9.0 L14.54542129383057,9.0 L14.941275495353976,9.0 L15.415290652207037,9.0 L15.943697665110223,9.0 L16.500000000001034,9.0 L17.056302334891793,9.0 L17.584709347794828,9.0 L18.058724504647643,9.0 L18.454578706170718,9.0 L18.752422169756496,9.0 L18.93731978045479,9.0 L18.999999999999996,9.0 " />
			<path d="M19.0,9.0 L18.984280524733,9.0 L18.937319780454363,9.0 L18.85970832577065,9.0 L18.752422169755725,9.0 L18.616810498070354,9.0 L18.454578706169706,9.0 L18.267766952966,9.0 L18.058724504646484,9.0 L17.830080191288026,9.0 L17.584709347793623,9.0 L17.3256976548877,9.0 L17.056302334890635,9.0 L16.77991119025819,9.0 L16.50000000000002,9.0 " />
			<path d="M20.5,9.0 L20.5,-9.0 " />
			<path d="M12.5,-9.0 L20.5,-9.0 " />
			<path d="M12.5,-9.0 L20.5,-9.0 " />
			<path d="M16.5,-9.0 L16.779911190258268,-9.0 L17.056302334890788,-9.0 L17.325697654887918,-9.0 L17.584709347793897,-9.0 L17.830080191288342,-9.0 L18.058724504646833,-9.0 L18.26776695296637,-9.0 L18.454578706170075,-9.0 L18.61681049807071,-9.0 L18.75242216975605,-9.0 L18.859708325770917,-9.0 L18.93731978045456,-9.0 L18.984280524733105,-9.0 L19.0,-9.0 " />
			<path d="M19.0,-9.0 L18.93731978045456,-9.0 L18.75242216975605,-9.0 L18.454578706170075,-9.0 L18.058724504646833,-9.0 L17.584709347793897,-9.0 L17.056302334890788,-9.0 L16.5,-9.0 L15.943697665109214,-9.0 L15.415290652206105,-9.0 L14.941275495353167,-9.0 L14.545421293829925,-9.0 L14.247577830243952,-9.0 L14.062680219545442,-9.0 L14.000000000000002,-9.0 " />
			<path d="M14.0,-9.0 L14.015719475266893,-9.0 L14.062680219545442,-9.0 L14.140291674229081,-9.0 L14.247577830243952,-9.0 L14.383189501929289,-9.0 L14.545421293829925,-9.0 L14.732233047033631,-9.0 L14.941275495353166,-9.0 L15.169919808711658,-9.0 L15.415290652206105,-9.0 L15.674302345112082,-9.0 L15.943697665109214,-9.0 L16.22008880974173,-9.0 L16.49999999999998,-9.0 " />
			<path d="M20.5,-9.0 L20.5,9.0 " />
			<path d="M12.5,9.0 L20.5,9.0 " />
			<path d="M12.5,-9.0 L20.5,-9.0 " />
			<path d="M20.5,-9.0 L20.5,9.0 " />
			<path d="M14.0,9.0 L14.0,0.0 " />
			<path d="M19.0,9.0 L19.0,0.0 " />
			<path d="M19.0,-9.0 L19.0,0.0 " />
			<path d="M14.0,-9.0 L14.0,0.0 " />

       </g>

       <!-- solid lines -->
       <g  stroke="rgb(0,0,0)" fill="none">
			<path d="M-12.5,12.5 L12.5,12.5 " />
			<path d="M12.5,12.5 L12.5,-12.5 " />
			<path d="M-12.5,-12.5 L12.5,-12.5 " />
			<path d="M-12.5,12.5 L-12.5,-12.5 " />
			<path d="M12.5,9.0 L20.5,9.0 " />
			<path d="M20.5,9.0 L20.5,-9.0 " />
			<path d="M12.5,-9.0 L20.5,-9.0 " />

       </g>
    </g>
  </g>
  <clipPath id="clip_section"><rect x="805" y="518" width="739" height="452"/></clipPath>
  <g clip-path="url(#clip_section)" transform="translate(805,544)">
    <g transform="scale(3.5999999999999996, -3.5999999999999996)   translate(76.05555555555557,-30.555555555555557)" stroke-width="0.2777777777777778"  fill="none">
       <!-- hidden lines -->
       <g  stroke="rgb(160,160,160)" fill="none" stroke-dasharray="0.2777777777777778,0.2777777777777778" >
			<path d="M12.5,-25.0 L-12.5,-25.0 " />
			<path d="M-12.5,-25.0 L-12.5,25.0 " />
			<path d="M-12.5,24.0 L-12.5,10.0 " />
			<path d="M-12.5,7.0 L-12.5,-7.0 " />
			<path d="M-12.5,-10.0 L-12.5,-24.0 " />
			<path d="M12.5,-25.0 L12.5,25.0 " />
			<path d="M12.5,25.0 L-12.5,25.0 " />
			<path d="M-12.5,-24.0 L-20.5,-24.0 " />
			<path d="M-20.5,-10.0 L-20.5,-24.0 " />
			<path d="M-12.5,-10.0 L-20.5,-10.0 " />
			<path d="M-12.5,-7.0 L-20.5,-7.0 " />
			<path d="M-20.5,7.0 L-20.5,-7.0 " />
			<path d="M-12.5,7.0 L-20.5,7.0 " />
			<path d="M-12.5,10.0 L-20.5,10.0 " />
			<path d="M-20.5,24.0 L-20.5,10.0 " />
			<path d="M-12.5,24.0 L-20.5,24.0 " />
			<path d="M-16.5,2.5 L-16.64017611809298,2.4960670375445417 L-16.779911190258268,2.4842805247331063 L-16.918765558261843,2.4646775462955897 L-17.056302334890788,2.437319780454559 L-17.192088778562123,2.402293304862749 L-17.325697654887918,2.359708325770919 L-17.456708580912725,2.309698831278217 L-17.584709347793897,2.252422169756048 L-17.7092972177631,2.1880585547718843 L-17.830080191288342,2.1168104980707105 L-17.946678240449515,2.03890217239815 L-18.058724504646833,1.9545787061700746 L-18.16586644488001,1.864105412207914 L-18.26776695296637,1.7677669529663689 L-18.364105412207913,1.6658664448800098 L-18.454578706170075,1.5587245046468339 L-18.53890217239815,1.4466782404495144 L-18.61681049807071,1.3300801912883413 L-18.688058554771885,1.2092972177630994 L-18.75242216975605,1.0847093477938954 L-18.80969883127822,0.9567085809127246 L-18.859708325770917,0.8256976548879179 L-18.90229330486275,0.6920887785621235 L-18.93731978045456,0.5563023348907861 L-18.96467754629559,0.41876555826184114 L-18.984280524733105,0.27991119025826977 L-18.99606703754454,0.1401761180929796 L-19.0,1.5308084989341916e-16 L-18.99606703754454,-0.1401761180929793 L-18.984280524733105,-0.2799111902582695 L-18.96467754629559,-0.4187655582618408 L-18.93731978045456,-0.5563023348907858 L-18.90229330486275,-0.6920887785621233 L-18.859708325770917,-0.8256976548879175 L-18.80969883127822,-0.9567085809127243 L-18.75242216975605,-1.0847093477938952 L-18.688058554771885,-1.2092972177630992 L-18.61681049807071,-1.330080191288341 L-18.53890217239815,-1.4466782404495144 L-18.454578706170075,-1.5587245046468337 L-18.364105412207913,-1.6658664448800098 L-18.26776695296637,-1.7677669529663687 L-18.16586644488001,-1.864105412207914 L-18.058724504646833,-1.9545787061700741 L-17.946678240449515,-2.03890217239815 L-17.830080191288342,-2.11681049807071 L-17.7092972177631,-2.1880585547718843 L-17.584709347793897,-2.2524221697560476 L-17.456708580912725,-2.309698831278217 L-17.325697654887918,-2.359708325770919 L-17.192088778562123,-2.4022933048627486 L-17.056302334890788,-2.437319780454559 L-16.918765558261843,-2.4646775462955897 L-16.77991119025827,-2.4842805247331063 L-16.64017611809298,-2.4960670375445417 L-16.5,-2.5 L-16.359823881907023,-2.4960670375445417 L-16.220088809741732,-2.4842805247331063 L-16.08123444173816,-2.4646775462955897 L-15.943697665109214,-2.437319780454559 L-15.807911221437877,-2.402293304862749 L-15.674302345112082,-2.359708325770919 L-15.543291419087275,-2.309698831278217 L-15.415290652206105,-2.252422169756048 L-15.2907027822369,-2.1880585547718843 L-15.16991980871166,-2.1168104980707105 L-15.053321759550485,-2.0389021723981506 L-14.941275495353167,-1.9545787061700748 L-14.83413355511999,-1.8641054122079144 L-14.732233047033631,-1.7677669529663693 L-14.635894587792086,-1.66586644488001 L-14.545421293829925,-1.5587245046468343 L-14.46109782760185,-1.4466782404495153 L-14.38318950192929,-1.3300801912883435 L-14.311941445228118,-1.2092972177631027 L-14.247577830243955,-1.0847093477938998 L-14.190301168721785,-0.95670858091273 L-14.140291674229083,-0.8256976548879245 L-14.097706695137253,-0.6920887785621312 L-14.062680219545443,-0.5563023348907951 L-14.035322453704412,-0.4187655582618513 L-14.015719475266895,-0.27991119025828115 L-14.003932962455458,-0.14017611809299213 L-14.0,-1.3781918845182135e-14 L-14.003932962455458,0.1401761180929646 L-14.015719475266891,0.27991119025825373 L-14.035322453704408,0.4187655582618241 L-14.062680219545436,0.5563023348907682 L-14.097706695137246,0.6920887785621049 L-14.140291674229074,0.8256976548878983 L-14.190301168721774,0.9567085809127045 L-14.247577830243943,1.084709347793875 L-14.311941445228104,1.2092972177630787 L-14.383189501929277,1.3300801912883204 L-14.461097827601835,1.4466782404494931 L-14.545421293829909,1.5587245046468126 L-14.635894587792068,1.6658664448799887 L-14.73223304703361,1.767766952966348 L-14.834133555119967,1.8641054122078937 L-14.94127549535314,1.9545787061700548 L-15.053321759550458,2.0389021723981315 L-15.16991980871163,2.1168104980706923 L-15.29070278223687,2.1880585547718674 L-15.415290652206073,2.252422169756032 L-15.543291419087241,2.3096988312782027 L-15.674302345112046,2.359708325770906 L-15.807911221437838,2.402293304862738 L-15.943697665109175,2.43731978045455 L-16.08123444173812,2.464677546295583 L-16.22008880974169,2.484280524733102 L-16.359823881906976,2.496067037544539 L-16.499999999999954,2.5 " />

       </g>

       <!-- solid lines -->
       <g  stroke="rgb(0,0,0)" fill="none">
			<path d="M-12.5,-25.0 L12.5,-25.0 " />
			<path d="M-12.5,-25.0 L-12.5,-24.0 " />
			<path d="M-20.5,-24.0 L-12.5,-24.0 " />
			<path d="M-20.5,-24.0 L-20.5,-10.0 " />
			<path d="M-12.5,-10.0 L-20.5,-10.0 " />
			<path d="M-12.5,-10.0 L-12.5,-7.0 " />
			<path d="M-20.5,-7.0 L-12.5,-7.0 " />
			<path d="M-20.5,-7.0 L-20.5,7.0 " />
			<path d="M-12.5,7.0 L-20.5,7.0 " />
			<path d="M-12.5,7.0 L-12.5,10.0 " />
			<path d="M-20.5,10.0 L-12.5,10.0 " />
			<path d="M-20.5,10.0 L-20.5,24.0 " />
			<path d="M-12.5,24.0 L-20.5,24.0 " />
			<path d="M-12.5,24.0 L-12.5,25.0 " />
			<path d="M-12.5,25.0 L12.5,25.0 " />
			<path d="M12.5,-25.0 L12.5,25.0 " />
			<path d="M-16.5,2.5 L-16.64017611809298,2.4960670375445417 L-16.779911190258268,2.4842805247331063 L-16.918765558261843,2.4646775462955897 L-17.056302334890788,2.437319780454559 L-17.192088778562123,2.402293304862749 L-17.325697654887918,2.359708325770919 L-17.456708580912725,2.309698831278217 L-17.584709347793897,2.252422169756048 L-17.7092972177631,2.1880585547718843 L-17.830080191288342,2.1168104980707105 L-17.946678240449515,2.03890217239815 L-18.058724504646833,1.9545787061700746 L-18.16586644488001,1.864105412207914 L-18.26776695296637,1.7677669529663689 L-18.364105412207913,1.6658664448800098 L-18.454578706170075,1.5587245046468339 L-18.53890217239815,1.4466782404495144 L-18.61681049807071,1.3300801912883413 L-18.688058554771885,1.2092972177630994 L-18.75242216975605,1.0847093477938954 L-18.80969883127822,0.9567085809127246 L-18.859708325770917,0.8256976548879179 L-18.90229330486275,0.6920887785621235 L-18.93731978045456,0.5563023348907861 L-18.96467754629559,0.41876555826184114 L-18.984280524733105,0.27991119025826977 L-18.99606703754454,0.1401761180929796 L-19.0,1.5308084989341916e-16 L-18.99606703754454,-0.1401761180929793 L-18.984280524733105,-0.2799111902582695 L-18.96467754629559,-0.4187655582618408 L-18.93731978045456,-0.5563023348907858 L-18.90229330486275,-0.6920887785621233 L-18.859708325770917,-0.8256976548879175 L-18.80969883127822,-0.9567085809127243 L-18.75242216975605,-1.0847093477938952 L-18.688058554771885,-1.2092972177630992 L-18.61681049807071,-1.330080191288341 L-18.53890217239815,-1.4466782404495144 L-18.454578706170075,-1.5587245046468337 L-18.364105412207913,-1.6658664448800098 L-18.26776695296637,-1.7677669529663687 L-18.16586644488001,-1.864105412207914 L-18.058724504646833,-1.9545787061700741 L-17.946678240449515,-2.03890217239815 L-17.830080191288342,-2.11681049807071 L-17.7092972177631,-2.1880585547718843 L-17.584709347793897,-2.2524221697560476 L-17.456708580912725,-2.309698831278217 L-17.325697654887918,-2.359708325770919 L-17.192088778562123,-2.4022933048627486 L-17.056302334890788,-2.437319780454559 L-16.918765558261843,-2.4646775462955897 L-16.77991119025827,-2.4842805247331063 L-16.64017611809298,-2.4960670375445417 L-16.5,-2.5 L-16.359823881907023,-2.4960670375445417 L-16.220088809741732,-2.4842805247331063 L-16.08123444173816,-2.4646775462955897 L-15.943697665109214,-2.437319780454559 L-15.807911221437877,-2.402293304862749 L-15.674302345112082,-2.359708325770919 L-15.543291419087275,-2.309698831278217 L-15.415290652206105,-2.252422169756048 L-15.2907027822369,-2.1880585547718843 L-15.16991980871166,-2.1168104980707105 L-15.053321759550485,-2.0389021723981506 L-14.941275495353167,-1.9545787061700748 L-14.83413355511999,-1.8641054122079144 L-14.732233047033631,-1.7677669529663693 L-14.635894587792086,-1.66586644488001 L-14.545421293829925,-1.5587245046468343 L-14.46109782760185,-1.4466782404495153 L-14.38318950192929,-1.3300801912883435 L-14.311941445228118,-1.2092972177631027 L-14.247577830243955,-1.0847093477938998 L-14.190301168721785,-0.95670858091273 L-14.140291674229083,-0.8256976548879245 L-14.097706695137253,-0.6920887785621312 L-14.062680219545443,-0.5563023348907951 L-14.035322453704412,-0.4187655582618513 L-14.015719475266895,-0.27991119025828115 L-14.003932962455458,-0.14017611809299213 L-14.0,-1.3781918845182135e-14 L-14.003932962455458,0.1401761180929646 L-14.015719475266891,0.27991119025825373 L-14.035322453704408,0.4187655582618241 L-14.062680219545436,0.5563023348907682 L-14.097706695137246,0.6920887785621049 L-14.140291674229074,0.8256976548878983 L-14.190301168721774,0.9567085809127045 L-14.247577830243943,1.084709347793875 L-14.311941445228104,1.2092972177630787 L-14.383189501929277,1.3300801912883204 L-14.461097827601835,1.4466782404494931 L-14.545421293829909,1.5587245046468126 L-14.635894587792068,1.6658664448799887 L-14.73223304703361,1.767766952966348 L-14.834133555119967,1.8641054122078937 L-14.94127549535314,1.9545787061700548 L-15.053321759550458,2.0389021723981315 L-15.16991980871163,2.1168104980706923 L-15.29070278223687,2.1880585547718674 L-15.415290652206073,2.252422169756032 L-15.543291419087241,2.3096988312782027 L-15.674302345112046,2.359708325770906 L-15.807911221437838,2.402293304862738 L-15.943697665109175,2.43731978045455 L-16.08123444173812,2.464677546295583 L-16.22008880974169,2.484280524733102 L-16.359823881906976,2.496067037544539 L-16.499999999999954,2.5 " />

       </g>
    </g>
  </g>
  <text x="1174.5" y="964" text-anchor="middle" font-size="9" font-weight="bold" fill="#333" font-family="Arial, Helvetica, sans-serif">SECTION A-A  &#x2014;  CUT AT Y MIDPLANE</text>
  <rect x="1282" y="332" width="258" height="158" fill="#f4f4f4" stroke="#aaa" stroke-width="0.5"/>
  <text x="1285" y="341" font-size="7" fill="#777" font-family="Arial, Helvetica, sans-serif">ISO</text>
  <clipPath id="clip_iso"><rect x="1282" y="332" width="258" height="158"/></clipPath>
  <g clip-path="url(#clip_iso)" transform="translate(1282,358)">
    <g transform="scale(3.5272652296077758, -3.5272652296077758)   translate(88.16740321611569,-31.185633299322877)" stroke-width="0.28350575726657157"  fill="none">
       <!-- hidden lines -->
       <g  stroke="rgb(160,160,160)" fill="none" stroke-dasharray="0.28350575726657157,0.28350575726657157" >
			<path d="M-8.838834764831844,-25.51551815399144 L-8.838834764831844,-5.103103630798287 " />
			<path d="M-8.838834764831844,-5.103103630798288 L-26.516504294495537,5.10310363079829 " />
			<path d="M-26.516504294495533,-11.6350762782201 L-26.516504294495533,5.103103630798287 " />
			<path d="M-26.516504294495533,5.103103630798288 L5.65685424949239,23.67840084690406 " />
			<path d="M-25.809397513308987,2.6536138880151103 L-25.809397513308987,-12.04332456868396 " />
			<path d="M-15.90990257669732,8.369089954509192 L-25.809397513308987,2.6536138880151086 " />
			<path d="M-15.90990257669732,-3.8783587594066997 L-15.90990257669732,8.369089954509192 " />
			<path d="M-13.788582233137678,9.593834825900782 L-13.788582233137678,-5.103103630798289 " />
			<path d="M-3.8890872965260117,15.309310892394866 L-13.788582233137678,9.593834825900782 " />
			<path d="M-3.8890872965260117,3.061862178478972 L-3.8890872965260117,15.309310892394866 " />
			<path d="M-1.7677669529663689,16.534055763786455 L-1.7677669529663689,1.837117307087384 " />
			<path d="M8.131727983645298,22.249531830280535 L-1.7677669529663689,16.53405576378645 " />
			<path d="M-8.838834764831844,-5.103103630798288 L26.51650429449554,15.309310892394869 " />
			<path d="M-15.90990257669732,8.369089954509192 L-19.445436482630058,10.410331406828508 " />
			<path d="M-25.809397513308987,2.6536138880151103 L-31.46625176280137,5.919600211726015 " />
			<path d="M-3.8890872965260117,15.309310892394866 L-7.42462120245875,17.35055234471418 " />
			<path d="M-13.788582233137678,9.593834825900782 L-19.445436482630058,12.859821149611687 " />
			<path d="M-9.899494936611665,15.105186747162934 L-9.965759395089401,15.142061373435768 L-10.034329782193591,15.177502849411487 L-10.105113169222069,15.211463143709429 L-10.178013628346951,15.24389623229199 L-10.252932362619003,15.274758160837827 L-10.329767839860292,15.30400710431011 L-10.40841593026374,15.331603423639095 L-10.48877004751304,15.35750971944222 L-10.570721293231715,15.381690882708895 L-10.654158604565561,15.404114142381315 L-10.738968904698442,15.424749109766815 L-10.825037256097485,15.443567819721554 L-10.912247016279963,15.46054476854975 L-11.000479995890789,15.475656948567066 L-11.179536084537714,15.500207635148346 L-11.361235201579994,15.517086837167676 L-11.54459270375949,15.526203084766856 L-11.728614960885317,15.527506976210287 L-11.912304740401936,15.520991445597268 L-12.094666611478788,15.506691801152714 L-12.274712339336196,15.484685533888825 L-12.363561113040669,15.47082806830955 L-12.451466240575265,15.45509189767459 L-12.53830859020162,15.437498348127434 L-12.62397047049076,15.418071262988718 L-12.70833578982213,15.396836970443031 L-12.79129021371455,15.373824247858142 L-12.87272131977584,15.349064282785024 L-12.952518750061088,15.322590630691527 L-13.03057436063315,15.294439169486978 L-13.106782368122648,15.264648050899318 L-13.18103949308885,15.233257648770719 L-13.253245099987149,15.200310504341703 L-13.323301333553463,15.165851268597939 L-13.391113251420702,15.129926641757853 L-13.45658895278758,15.092585309983056 L-13.519639702965433,15.05387787939735 L-13.580180053634184,15.013856807503759 L-13.63812795864455,14.972576332092492 L-13.693404885209521,14.93009239773623 L-13.745935920334396,14.886462579972303 L-13.795649872341198,14.841746007274562 L-13.842479367349814,14.79600328092064 L-13.886360940585169,14.749296392863235 L-13.927235122386643,14.7016886417167 L-13.965046518803177,14.653244546972816 L-13.99974388666488,14.60402976156199 L-14.031280203029338,14.554110982878372 L-14.059612728908556,14.503555862389495 L-14.084703067190164,14.452432913952922 L-14.106517214674355,14.400811420964152 L-14.125025608156076,14.348761342461625 L-14.140203164489986,14.296353218316087 L-14.152029314583924,14.243658073632771 L-14.16048803127476,14.190747322495989 L-14.165567851048909,14.137692671186567 L-14.167261889578034,14.084566021003289 " />
			<path d="M-14.167261889578034,14.084566021003276 L-14.164250530090966,14.013742933549667 L-14.155223706258527,13.943090465117104 L-14.140203164489986,13.872778823690465 L-14.11922509058611,13.80297739617252 L-14.092340022564393,13.733854340316043 L-14.059612728908556,13.665576179617057 L-14.021122052535587,13.598307402145146 L-13.976960720856251,13.53221006427729 L-13.927235122386643,13.467443400289854 L-13.872065050448922,13.404163438749274 L-13.811583414578715,13.342522626625572 L-13.745935920334396,13.28266946203425 L-13.675280718279646,13.224748136491328 L-13.599788022984876,13.168898187543347 L-13.519639702965431,13.115254162609201 L-13.435028842544403,13.063945294843618 L-13.34615927669558,13.015095191803171 L-13.253245099987147,12.96882153766485 L-13.156510150809119,12.925235809714563 L-13.05618747212704,12.884443009788605 L-12.952518750061088,12.846541411315025 L-12.845753731643029,12.811622322564332 L-12.73614962315374,12.779769866679878 L-12.62397047049076,12.751060779017834 L-12.509486523058584,12.725564222284998 L-12.39297358271419,12.703341619919772 L-12.274712339336194,12.684446508117727 L-12.154987694618356,12.668924406858206 L-12.034088075716438,12.656812710242724 L-11.912304740401936,12.648140596409284 L-11.789931075396579,12.642928957239697 L-11.667261889578034,12.641190348029212 L-11.54459270375949,12.642928957239697 L-11.422219038754132,12.648140596409284 L-11.30043570343963,12.656812710242724 L-11.179536084537714,12.668924406858206 L-11.059811439819875,12.684446508117727 L-10.941550196441879,12.703341619919772 L-10.825037256097485,12.725564222284998 L-10.71055330866531,12.751060779017834 L-10.598374156002329,12.779769866679878 L-10.48877004751304,12.81162232256433 L-10.38200502909498,12.846541411315025 L-10.27833630702903,12.884443009788605 L-10.178013628346951,12.925235809714563 L-10.081278679168921,12.968821537664848 L-9.988364502460488,13.015095191803171 L-9.899494936611665,13.063945294843618 L-9.814884076190637,13.115254162609201 L-9.734735756171192,13.168898187543347 L-9.659243060876422,13.224748136491328 L-9.588587858821672,13.28266946203425 L-9.522940364577355,13.342522626625572 L-9.462458728707148,13.404163438749274 L-9.407288656769426,13.467443400289854 L-9.357563058299817,13.53221006427729 L-9.313401726620482,13.598307402145148 L-9.274911050247512,13.665576179617057 L-9.242183756591675,13.733854340316043 L-9.215298688569959,13.802977396172519 L-9.194320614666083,13.872778823690464 L-9.179300072897542,13.943090465117104 L-9.170273249065103,14.013742933549667 L-9.167261889578034,14.084566021003269 " />
			<path d="M-9.167261889578034,14.084566021003276 L-9.170273249065103,14.155389108456886 L-9.179300072897542,14.226041576889449 L-9.194320614666083,14.296353218316089 L-9.215298688569959,14.366154645834033 L-9.242183756591675,14.43527770169051 L-9.274911050247512,14.503555862389495 L-9.313401726620482,14.570824639861405 L-9.357563058299817,14.636921977729262 L-9.407288656769426,14.701688641716698 L-9.462458728707146,14.764968603257278 L-9.522940364577353,14.82660941538098 L-9.58858785882167,14.886462579972301 L-9.65924306087642,14.944383905515224 L-9.734735756171192,15.000233854463204 L-9.814884076190637,15.053877879397351 L-9.899494936611656,15.105186747162929 " />
			<path d="M-1.7677669529663689,16.534055763786455 L-7.42462120245875,19.80004208749736 " />
			<path d="M-9.167261889578034,-0.6123724356957947 L-9.167261889578034,6.736096792653741 " />
			<path d="M-14.167261889578034,-0.6123724356957947 L-14.167261889578034,6.736096792653741 " />
			<path d="M-14.167261889578034,14.084566021003276 L-14.167261889578034,6.736096792653741 " />
			<path d="M-9.167261889578034,14.084566021003276 L-9.167261889578034,6.736096792653741 " />

       </g>

       <!-- solid lines -->
       <g  stroke="rgb(0,0,0)" fill="none">
			<path d="M-8.838834764831844,-25.51551815399144 L-26.516504294495537,-15.309310892394862 " />
			<path d="M-26.516504294495533,-15.309310892394866 L-26.516504294495533,-11.6350762782201 " />
			<path d="M-8.838834764831844,-25.51551815399144 L26.51650429449554,-5.103103630798284 " />
			<path d="M-26.516504294495533,-15.309310892394866 L8.838834764831851,5.103103630798291 " />
			<path d="M26.516504294495533,-5.103103630798288 L8.83883476483184,5.10310363079829 " />
			<path d="M8.838834764831844,5.103103630798288 L8.838834764831844,25.51551815399144 " />
			<path d="M5.65685424949239,23.67840084690406 L8.838834764831851,25.515518153991444 " />
			<path d="M-25.809397513308987,-12.04332456868396 L-15.90990257669732,-6.327848502189877 " />
			<path d="M-15.90990257669732,-6.327848502189878 L-15.90990257669732,-3.8783587594066997 " />
			<path d="M-13.788582233137678,-5.103103630798288 L-3.889087296526011,0.6123724356957956 " />
			<path d="M-3.8890872965260117,0.6123724356957938 L-3.8890872965260117,3.061862178478972 " />
			<path d="M-1.7677669529663689,1.8371173070873832 L8.131727983645298,7.552593373581467 " />
			<path d="M8.131727983645298,7.552593373581466 L8.131727983645298,22.24953183028054 " />
			<path d="M26.516504294495533,15.309310892394866 L8.83883476483184,25.515518153991444 " />
			<path d="M26.516504294495533,-5.103103630798288 L26.516504294495533,15.309310892394866 " />
			<path d="M-25.809397513308987,-12.04332456868396 L-31.46625176280137,-8.777338244973055 " />
			<path d="M-31.46625176280137,-8.777338244973055 L-21.566756826189703,-3.0618621784789717 " />
			<path d="M-15.90990257669732,-6.327848502189878 L-21.566756826189703,-3.061862178478972 " />
			<path d="M-21.566756826189703,-3.0618621784789735 L-21.566756826189703,11.635076278220097 " />
			<path d="M-19.445436482630058,10.410331406828508 L-21.566756826189703,11.635076278220097 " />
			<path d="M-21.566756826189703,11.635076278220097 L-31.46625176280137,5.919600211726014 " />
			<path d="M-31.46625176280137,5.9196002117260145 L-31.46625176280137,-8.777338244973055 " />
			<path d="M-13.788582233137678,-5.103103630798288 L-19.445436482630058,-1.8371173070873827 " />
			<path d="M-19.445436482630058,-1.837117307087384 L-9.54594154601839,3.8783587594066997 " />
			<path d="M-3.8890872965260117,0.6123724356957938 L-9.545941546018394,3.8783587594066993 " />
			<path d="M-9.899494936611665,0.40824829046386313 L-9.814884076190594,0.35693942269825274 L-9.73473575617111,0.3032953977640762 L-9.659243060876307,0.24744544881606378 L-9.588587858821528,0.18952412327310786 L-9.522940364577188,0.12967095868174972 L-9.462458728706963,0.06803014655801021 L-9.407288656769232,0.004750185017391995 L-9.357563058299618,-0.06001647897008455 L-9.313401726620286,-0.12611381683798145 L-9.274911050247324,-0.19338259430993276 L-9.242183756591501,-0.2616607550089607 L-9.215298688569806,-0.33078381086547803 L-9.194320614665958,-0.4005852383834628 L-9.179300072897453,-0.4708968798101425 L-9.170273249065055,-0.5415493482427449 L-9.167261889578034,-0.6123724356963789 " />
			<path d="M-9.167261889578034,-0.6123724356963921 L-9.170273249065154,-0.6831955231500005 L-9.179300072897643,-0.7538479915825621 L-9.194320614666234,-0.8241596330091971 L-9.21529868857016,-0.8939610605271366 L-9.242183756591926,-0.963084116383607 L-9.274911050247812,-1.031362277082585 L-9.313401726620832,-1.0986310545544868 L-9.357563058300213,-1.164728392422333 L-9.407288656769868,-1.2294950564097573 L-9.462458728707634,-1.292775017950324 L-9.522940364577886,-1.3544158300740117 L-9.588587858822246,-1.4142689946653175 L-9.659243060877039,-1.4721903202082227 L-9.734735756171847,-1.5280402691561852 L-9.814884076191332,-1.5816842940903117 L-9.899494936612397,-1.6329931618558746 L-9.988364502461256,-1.6818432648963004 L-10.08127867916972,-1.7281169190346009 L-10.178013628347781,-1.7717026469848636 L-10.278336307029889,-1.8124954469107972 L-10.382005029095868,-1.8503970453843535 L-10.488770047513952,-1.885316134135021 L-10.598374156003263,-1.9171685900194488 L-10.710553308666265,-1.945877677681466 L-10.825037256098458,-1.971374234414275 L-10.941550196442869,-1.9935968367794725 L-11.059811439820878,-2.01249194858149 L-11.179536084538729,-2.0280140498409804 L-11.300435703440654,-2.0401257464564346 L-11.422219038755163,-2.048797860289846 L-11.544592703760522,-2.0540094994594025 L-11.667261889579068,-2.0557481086698592 L-11.789931075397613,-2.054009499459344 L-11.912304740402966,-2.0487978602897288 L-12.034088075717461,-2.040125746456259 L-12.15498769461937,-2.0280140498407473 L-12.274712339337198,-2.0124919485811996 L-12.39297358271518,-1.9935968367791257 L-12.509486523059559,-1.9713742344138725 L-12.623970470491715,-1.9458776776810087 L-12.736149623154676,-1.9171685900189381 L-12.84575373164394,-1.8853161341344578 L-12.952518750061977,-1.8503970453837393 L-13.056187472127899,-1.8124954469101338 L-13.156510150809948,-1.7717026469841524 L-13.253245099987947,-1.728116919033843 L-13.346159276696348,-1.681843264895498 L-13.435028842545135,-1.63299316185503 L-13.519639702966126,-1.581684294089427 L-13.599788022985534,-1.5280402691552615 L-13.675280718280263,-1.4721903202072626 L-13.745935920334972,-1.414268994664324 L-13.811583414579246,-1.3544158300729872 L-13.87206505044941,-1.2927750179492703 L-13.927235122387085,-1.2294950564086777 L-13.976960720856647,-1.1647283924212293 L-14.021122052535935,-1.0986310545533615 L-14.059612728908856,-1.031362277081442 L-14.092340022564645,-0.9630841163824482 L-14.119225090586312,-0.8939610605259654 L-14.140203164490138,-0.8241596330080161 L-14.155223706258628,-0.7538479915813734 L-14.164250530091016,-0.6831955231488072 L-14.167261889578034,-0.6123724356952038 " />
			<path d="M-14.167261889578034,-0.6123724356951975 L-14.16556785104887,-0.5592457855119168 L-14.160488031274685,-0.5061911342025041 L-14.152029314583816,-0.4532803830657337 L-14.140203164489844,-0.4005852383824292 L-14.1250256081559,-0.34817711423690423 L-14.10651721467415,-0.29612703573439275 L-14.08470306718993,-0.2445055427456353 L-14.059612728908293,-0.19338259430907578 L-14.031280203029048,-0.14282747382021327 L-13.999743886664568,-0.09290869513661004 L-13.965046518802842,-0.04369390972580012 L-13.927235122386282,0.004750185018066566 L-13.886360940584789,0.05235793616458595 L-13.842479367349414,0.0990648242219756 L-13.795649872340782,0.14480755057588068 L-13.745935920333967,0.18952412327360424 L-13.693404885209075,0.23315394103751363 L-13.638127958644091,0.2756378753937606 L-13.580180053633713,0.31691835080500974 L-13.519639702964954,0.3569394226985845 L-13.456588952787095,0.3956468532842723 L-13.39111325142021,0.43298818505905223 L-13.323301333552967,0.46891281189912126 L-13.253245099986648,0.5033720476428696 L-13.181039493088345,0.53631919207187 L-13.106782368122143,0.567709594200452 L-13.030574360632649,0.5975007127880951 L-12.95251875006059,0.6256521739926295 L-12.872721319775346,0.6521258260861096 L-12.79129021371406,0.6768857911592137 L-12.708335789821641,0.6998985137440896 L-12.62397047049028,0.7211328062897624 L-12.53830859020115,0.7405598914284637 L-12.451466240574801,0.7581534409756068 L-12.363561113040214,0.7738896116105538 L-12.274712339335753,0.7877470771898192 L-12.094666611478372,0.8097533444536846 L-11.912304740401549,0.82405298889822 L-11.728614960884958,0.8305685195112213 L-11.544592703759166,0.8292646280677747 L-11.361235201579705,0.8201483804685841 L-11.179536084537459,0.8032691784492454 L-11.00047999589057,0.7787184918679597 L-10.912247016279764,0.763606311850644 L-10.825037256097302,0.7466293630224465 L-10.738968904698273,0.7278106530677053 L-10.65415860456541,0.707175685682206 L-10.570721293231584,0.684752426009787 L-10.488770047512926,0.6605712627431151 L-10.408415930263644,0.6346649669399929 L-10.32976783986021,0.6070686476110092 L-10.252932362618933,0.577819704138729 L-10.178013628346898,0.5469577755928958 L-10.105113169222031,0.514524687010341 L-10.034329782193568,0.4805643927124059 L-9.96575939508939,0.4451229167366917 L-9.899494936611681,0.40824829046387223 " />
			<path d="M-9.545941546018394,3.878358759406698 L-9.545941546018394,18.575297216105767 " />
			<path d="M-7.42462120245875,17.35055234471418 L-9.545941546018394,18.57529721610577 " />
			<path d="M-9.545941546018394,18.575297216105767 L-19.44543648263006,12.859821149611683 " />
			<path d="M-19.445436482630058,12.859821149611687 L-19.445436482630058,-1.837117307087384 " />
			<path d="M-1.7677669529663689,1.8371173070873832 L-7.42462120245875,5.103103630798289 " />
			<path d="M-7.42462120245875,5.103103630798287 L2.474873734152917,10.818579697292371 " />
			<path d="M8.131727983645298,7.552593373581466 L2.474873734152917,10.818579697292371 " />
			<path d="M2.474873734152917,10.818579697292371 L2.474873734152917,25.515518153991444 " />
			<path d="M8.131727983645298,22.249531830280535 L2.474873734152917,25.51551815399144 " />
			<path d="M2.474873734152917,25.51551815399144 L-7.42462120245875,19.800042087497356 " />
			<path d="M-7.42462120245875,19.80004208749736 L-7.42462120245875,5.103103630798289 " />

       </g>
    </g>
  </g>
  <line x1="34" y1="268.0" x2="789" y2="268.0" stroke="#0000ff" stroke-width="0.4" stroke-dasharray="12,3,2,3" fill="none"/>
  <line x1="411.5" y1="34" x2="411.5" y2="502" stroke="#0000ff" stroke-width="0.4" stroke-dasharray="12,3,2,3" fill="none"/>
  <line x1="797" y1="268.0" x2="1552" y2="268.0" stroke="#0000ff" stroke-width="0.4" stroke-dasharray="12,3,2,3" fill="none"/>
  <line x1="1174.5" y1="34" x2="1174.5" y2="502" stroke="#0000ff" stroke-width="0.4" stroke-dasharray="12,3,2,3" fill="none"/>
  <line x1="34" y1="744.0" x2="789" y2="744.0" stroke="#0000ff" stroke-width="0.4" stroke-dasharray="12,3,2,3" fill="none"/>
  <line x1="411.5" y1="510" x2="411.5" y2="978" stroke="#0000ff" stroke-width="0.4" stroke-dasharray="12,3,2,3" fill="none"/>
  <line x1="0" y1="54" x2="18" y2="54" stroke="#1a1a8c" stroke-width="0.7"/>
  <line x1="0" y1="482" x2="18" y2="482" stroke="#1a1a8c" stroke-width="0.7"/>
  <line x1="4" y1="54" x2="4" y2="482" stroke="#1a1a8c" stroke-width="0.8"/>
  <polygon points="4,54 1,61 7,61" fill="#1a1a8c"/>
  <polygon points="4,482 1,475 7,475" fill="#1a1a8c"/>
  <text x="-4" y="268.0" text-anchor="middle" font-size="10" fill="#1a1a8c" font-family="Arial, Helvetica, sans-serif" transform="rotate(-90,-4,268.0)">25.0 mm</text>
  <polygon points="411.5,492 402.5,506.4 420.5,506.4" fill="#1a1a8c" stroke="#1a1a8c" stroke-width="0.5"/>
  <rect x="402.5" y="506.4" width="18" height="18" fill="white" stroke="#1a1a8c" stroke-width="1"/>
  <text x="411.5" y="520.4" text-anchor="middle" font-size="11" font-weight="bold" fill="#1a1a8c" font-family="Arial, Helvetica, sans-serif">A</text>
  <line x1="46" y1="268.0" x2="777" y2="268.0" stroke="#555" stroke-width="1" stroke-dasharray="8,4"/>
  <polygon points="46,268.0 56,264.0 56,272.0" fill="#555"/>
  <polygon points="777,268.0 767,264.0 767,272.0" fill="#555"/>
  <text x="60" y="262.0" font-size="10" font-weight="bold" fill="#555" font-family="Arial, Helvetica, sans-serif">A</text>
  <text x="757" y="262.0" font-size="10" font-weight="bold" fill="#555" font-family="Arial, Helvetica, sans-serif">A</text>
  <line x1="54" y1="508" x2="54" y2="526" stroke="#1a1a8c" stroke-width="0.7"/>
  <line x1="769" y1="508" x2="769" y2="526" stroke="#1a1a8c" stroke-width="0.7"/>
  <line x1="54" y1="522" x2="769" y2="522" stroke="#1a1a8c" stroke-width="0.8"/>
  <polygon points="54,522 61,519 61,525" fill="#1a1a8c"/>
  <polygon points="769,522 762,519 762,525" fill="#1a1a8c"/>
  <text x="411.5" y="518" text-anchor="middle" font-size="10" fill="#1a1a8c" font-family="Arial, Helvetica, sans-serif">50.0 mm</text>
  <line x1="817" y1="6" x2="817" y2="24" stroke="#1a1a8c" stroke-width="0.7"/>
  <line x1="1532" y1="6" x2="1532" y2="24" stroke="#1a1a8c" stroke-width="0.7"/>
  <line x1="817" y1="20" x2="1532" y2="20" stroke="#1a1a8c" stroke-width="0.8"/>
  <polygon points="817,20 824,17 824,23" fill="#1a1a8c"/>
  <polygon points="1532,20 1525,17 1525,23" fill="#1a1a8c"/>
  <text x="1174.5" y="16" text-anchor="middle" font-size="10" fill="#1a1a8c" font-family="Arial, Helvetica, sans-serif">50.0 mm</text>
  <line x1="1570" y1="54" x2="1588" y2="54" stroke="#1a1a8c" stroke-width="0.7"/>
  <line x1="1570" y1="482" x2="1588" y2="482" stroke="#1a1a8c" stroke-width="0.7"/>
  <line x1="1574" y1="54" x2="1574" y2="482" stroke="#1a1a8c" stroke-width="0.8"/>
  <polygon points="1574,54 1571,61 1577,61" fill="#1a1a8c"/>
  <polygon points="1574,482 1571,475 1577,475" fill="#1a1a8c"/>
  <text x="1566" y="268.0" text-anchor="middle" font-size="10" fill="#1a1a8c" font-family="Arial, Helvetica, sans-serif" transform="rotate(-90,1566,268.0)">25.0 mm</text>
  <text x="627" y="76" font-size="8" font-weight="bold" fill="#333" font-family="Arial, Helvetica, sans-serif">GD&amp;T CALLOUTS</text>
  <rect x="627" y="80" width="98" height="22" fill="#fffff8" stroke="#000000" stroke-width="1"/>
  <line x1="655" y1="80" x2="655" y2="102" stroke="#000000" stroke-width="1"/>
  <text x="641.0" y="97" text-anchor="middle" font-size="13" font-weight="bold" fill="#1a1a8c" font-family="Arial, Helvetica, sans-serif">▭</text>
  <text x="661" y="97" font-size="10" fill="#000" font-family="Arial, Helvetica, sans-serif">0.05</text>
  <line x1="627" y1="91.0" x2="603.0" y2="192.7" stroke="#999" stroke-width="0.5" stroke-dasharray="4,3"/>
  <rect x="627" y="108" width="123" height="22" fill="#fffff8" stroke="#000000" stroke-width="1"/>
  <line x1="655" y1="108" x2="655" y2="130" stroke="#000000" stroke-width="1"/>
  <line x1="725" y1="108" x2="725" y2="130" stroke="#000000" stroke-width="1"/>
  <text x="641.0" y="125" text-anchor="middle" font-size="13" font-weight="bold" fill="#1a1a8c" font-family="Arial, Helvetica, sans-serif">⊥</text>
  <text x="661" y="125" font-size="10" fill="#000" font-family="Arial, Helvetica, sans-serif">0.05</text>
  <text x="737.5" y="125" text-anchor="middle" font-size="10" font-weight="bold" fill="#000" font-family="Arial, Helvetica, sans-serif">A</text>
  <line x1="627" y1="119.0" x2="411.5" y2="72.0" stroke="#999" stroke-width="0.5" stroke-dasharray="4,3"/>
  <rect x="627" y="136" width="100" height="22" fill="#fffff8" stroke="#000000" stroke-width="0.8"/>
  <text x="633" y="151" font-size="11" fill="#1a1a8c" font-family="Arial, Helvetica, sans-serif">∇∇ Ra 3.2</text>
  <rect x="30" y="983" width="1527" height="110" fill="white" stroke="black" stroke-width="1.5"/>
  <rect x="30" y="983" width="1527" height="22" fill="#1a1a8c"/>
  <text x="793.5" y="998" text-anchor="middle" font-size="13" fill="white" font-weight="bold" font-family="Arial, Helvetica, sans-serif">ARIA-OS ENGINEERING DRAWING</text>
  <text x="34" y="1014.0" font-size="7" fill="#666" font-family="Arial, Helvetica, sans-serif">PART ID</text>
  <text x="34" y="1045.0" font-size="10" fill="#000" font-weight="bold" font-family="Arial, Helvetica, sans-serif">gopro_mount</text>
  <line x1="30" y1="1049.0" x2="335.40000000000003" y2="1049.0" stroke="#aaa" stroke-width="0.5"/>
  <text x="34" y="1058.0" font-size="7" fill="#666" font-family="Arial, Helvetica, sans-serif">MATERIAL</text>
  <text x="34" y="1089.0" font-size="10" fill="#000" font-weight="bold" font-family="Arial, Helvetica, sans-serif">—</text>
  <line x1="335.40000000000003" y1="1005" x2="335.40000000000003" y2="1093" stroke="black" stroke-width="0.8"/>
  <text x="339.40000000000003" y="1014.0" font-size="7" fill="#666" font-family="Arial, Helvetica, sans-serif">SCALE</text>
  <text x="339.40000000000003" y="1045.0" font-size="10" fill="#000" font-weight="bold" font-family="Arial, Helvetica, sans-serif">1:1</text>
  <line x1="335.40000000000003" y1="1049.0" x2="640.8000000000001" y2="1049.0" stroke="#aaa" stroke-width="0.5"/>
  <text x="339.40000000000003" y="1058.0" font-size="7" fill="#666" font-family="Arial, Helvetica, sans-serif">DATE</text>
  <text x="339.40000000000003" y="1089.0" font-size="10" fill="#000" font-weight="bold" font-family="Arial, Helvetica, sans-serif">2026-04-01</text>
  <line x1="640.8000000000001" y1="1005" x2="640.8000000000001" y2="1093" stroke="black" stroke-width="0.8"/>
  <text x="644.8000000000001" y="1014.0" font-size="7" fill="#666" font-family="Arial, Helvetica, sans-serif">DRAWN BY</text>
  <text x="644.8000000000001" y="1045.0" font-size="10" fill="#000" font-weight="bold" font-family="Arial, Helvetica, sans-serif">ARIA-OS v2.0</text>
  <line x1="640.8000000000001" y1="1049.0" x2="946.2" y2="1049.0" stroke="#aaa" stroke-width="0.5"/>
  <text x="644.8000000000001" y="1058.0" font-size="7" fill="#666" font-family="Arial, Helvetica, sans-serif">DWG NO.</text>
  <text x="644.8000000000001" y="1089.0" font-size="10" fill="#000" font-weight="bold" font-family="Arial, Helvetica, sans-serif">ARIA-20260401-001</text>
  <line x1="946.2" y1="1005" x2="946.2" y2="1093" stroke="black" stroke-width="0.8"/>
  <text x="950.2" y="1014.0" font-size="7" fill="#666" font-family="Arial, Helvetica, sans-serif">TOLERANCE</text>
  <text x="950.2" y="1045.0" font-size="10" fill="#000" font-weight="bold" font-family="Arial, Helvetica, sans-serif">±0.1 GENERAL / ±0.05 MACH.</text>
  <line x1="946.2" y1="1049.0" x2="1251.6000000000001" y2="1049.0" stroke="#aaa" stroke-width="0.5"/>
  <text x="950.2" y="1058.0" font-size="7" fill="#666" font-family="Arial, Helvetica, sans-serif">UNITS</text>
  <text x="950.2" y="1089.0" font-size="10" fill="#000" font-weight="bold" font-family="Arial, Helvetica, sans-serif">MILLIMETRES</text>
  <line x1="1251.6000000000001" y1="1005" x2="1251.6000000000001" y2="1093" stroke="black" stroke-width="0.8"/>
  <text x="1255.6000000000001" y="1014.0" font-size="7" fill="#666" font-family="Arial, Helvetica, sans-serif">APPROVED</text>
  <text x="1255.6000000000001" y="1045.0" font-size="10" fill="#000" font-weight="bold" font-family="Arial, Helvetica, sans-serif"></text>
  <line x1="1251.6000000000001" y1="1049.0" x2="1404.3000000000002" y2="1049.0" stroke="#aaa" stroke-width="0.5"/>
  <text x="1255.6000000000001" y="1058.0" font-size="7" fill="#666" font-family="Arial, Helvetica, sans-serif"></text>
  <text x="1255.6000000000001" y="1089.0" font-size="10" fill="#000" font-weight="bold" font-family="Arial, Helvetica, sans-serif"></text>
  <line x1="1404.3000000000002" y1="1005" x2="1404.3000000000002" y2="1093" stroke="black" stroke-width="0.8"/>
  <text x="1408.3000000000002" y="1014.0" font-size="7" fill="#666" font-family="Arial, Helvetica, sans-serif">REV</text>
  <text x="1408.3000000000002" y="1045.0" font-size="10" fill="#000" font-weight="bold" font-family="Arial, Helvetica, sans-serif">—</text>
  <line x1="1404.3000000000002" y1="1049.0" x2="1557.0000000000002" y2="1049.0" stroke="#aaa" stroke-width="0.5"/>
  <text x="1408.3000000000002" y="1058.0" font-size="7" fill="#666" font-family="Arial, Helvetica, sans-serif"></text>
  <text x="1408.3000000000002" y="1089.0" font-size="10" fill="#000" font-weight="bold" font-family="Arial, Helvetica, sans-serif"></text>
</svg>