<svg xmlns="http://www.w3.org/2000/svg" width="1587" height="1123" viewBox="0 0 1587 1123" font-family="Arial, Helvetica, sans-serif" font-size="12">
  <rect width="1587" height="1123" fill="white"/>
  <rect x="20" y="20" width="1547" height="1083" fill="none" stroke="black" stroke-width="2"/>
  <rect x="30" y="30" width="1527" height="1063" fill="none" stroke="black" stroke-width="1"/>
  <rect x="20" y="20.0" width="16" height="270.75" fill="none" stroke="#888" stroke-width="0.4"/>
  <text x="28.0" y="159.375" text-anchor="middle" font-size="9" fill="#444" font-family="Arial, Helvetica, sans-serif">A</text>
  <rect x="1551" y="20.0" width="16" height="270.75" fill="none" stroke="#888" stroke-width="0.4"/>
  <text x="1559.0" y="159.375" text-anchor="middle" font-size="9" fill="#444" font-family="Arial, Helvetica, sans-serif">A</text>
  <rect x="20" y="290.75" width="16" height="270.75" fill="none" stroke="#888" stroke-width="0.4"/>
  <text x="28.0" y="430.125" text-anchor="middle" font-size="9" fill="#444" font-family="Arial, Helvetica, sans-serif">B</text>
  <rect x="1551" y="290.75" width="16" height="270.75" fill="none" stroke="#888" stroke-width="0.4"/>
  <text x="1559.0" y="430.125" text-anchor="middle" font-size="9" fill="#444" font-family="Arial, Helvetica, sans-serif">B</text>
  <rect x="20" y="561.5" width="16" height="270.75" fill="none" stroke="#888" stroke-width="0.4"/>
  <text x="28.0" y="700.875" text-anchor="middle" font-size="9" fill="#444" font-family="Arial, Helvetica, sans-serif">C</text>
  <rect x="1551" y="561.5" width="16" height="270.75" fill="none" stroke="#888" stroke-width="0.4"/>
  <text x="1559.0" y="700.875" text-anchor="middle" font-size="9" fill="#444" font-family="Arial, Helvetica, sans-serif">C</text>
  <rect x="20" y="832.25" width="16" height="270.75" fill="none" stroke="#888" stroke-width="0.4"/>
  <text x="28.0" y="971.625" text-anchor="middle" font-size="9" fill="#444" font-family="Arial, Helvetica, sans-serif">D</text>
  <rect x="1551" y="832.25" width="16" height="270.75" fill="none" stroke="#888" stroke-width="0.4"/>
  <text x="1559.0" y="971.625" text-anchor="middle" font-size="9" fill="#444" font-family="Arial, Helvetica, sans-serif">D</text>
  <rect x="20.0" y="20" width="193.375" height="16" fill="none" stroke="#888" stroke-width="0.4"/>
  <text x="116.6875" y="32" text-anchor="middle" font-size="9" fill="#444" font-family="Arial, Helvetica, sans-serif">1</text>
  <rect x="20.0" y="1087" width="193.375" height="16" fill="none" stroke="#888" stroke-width="0.4"/>
  <text x="116.6875" y="1099" text-anchor="middle" font-size="9" fill="#444" font-family="Arial, Helvetica, sans-serif">1</text>
  <rect x="213.375" y="20" width="193.375" height="16" fill="none" stroke="#888" stroke-width="0.4"/>
  <text x="310.0625" y="32" text-anchor="middle" font-size="9" fill="#444" font-family="Arial, Helvetica, sans-serif">2</text>
  <rect x="213.375" y="1087" width="193.375" height="16" fill="none" stroke="#888" stroke-width="0.4"/>
  <text x="310.0625" y="1099" text-anchor="middle" font-size="9" fill="#444" font-family="Arial, Helvetica, sans-serif">2</text>
  <rect x="406.75" y="20" width="193.375" height="16" fill="none" stroke="#888" stroke-width="0.4"/>
  <text x="503.4375" y="32" text-anchor="middle" font-size="9" fill="#444" font-family="Arial, Helvetica, sans-serif">3</text>
  <rect x="406.75" y="1087" width="193.375" height="16" fill="none" stroke="#888" stroke-width="0.4"/>
  <text x="503.4375" y="1099" text-anchor="middle" font-size="9" fill="#444" font-family="Arial, Helvetica, sans-serif">3</text>
  <rect x="600.125" y="20" width="193.375" height="16" fill="none" stroke="#888" stroke-width="0.4"/>
  <text x="696.8125" y="32" text-anchor="middle" font-size="9" fill="#444" font-family="Arial, Helvetica, sans-serif">4</text>
  <rect x="600.125" y="1087" width="193.375" height="16" fill="none" stroke="#888" stroke-width="0.4"/>
  <text x="696.8125" y="1099" text-anchor="middle" font-size="9" fill="#444" font-family="Arial, Helvetica, sans-serif">4</text>
  <rect x="793.5" y="20" width="193.375" height="16" fill="none" stroke="#888" stroke-width="0.4"/>
  <text x="890.1875" y="32" text-anchor="middle" font-size="9" fill="#444" font-family="Arial, Helvetica, sans-serif">5</text>
  <rect x="793.5" y="1087" width="193.375" height="16" fill="none" stroke="#888" stroke-width="0.4"/>
  <text x="890.1875" y="1099" text-anchor="middle" font-size="9" fill="#444" font-family="Arial, Helvetica, sans-serif">5</text>
  <rect x="986.875" y="20" width="193.375" height="16" fill="none" stroke="#888" stroke-width="0.4"/>
  <text x="1083.5625" y="32" text-anchor="middle" font-size="9" fill="#444" font-family="Arial, Helvetica, sans-serif">6</text>
  <rect x="986.875" y="1087" width="193.375" height="16" fill="none" stroke="#888" stroke-width="0.4"/>
  <text x="1083.5625" y="1099" text-anchor="middle" font-size="9" fill="#444" font-family="Arial, Helvetica, sans-serif">6</text>
  <rect x="1180.25" y="20" width="193.375" height="16" fill="none" stroke="#888" stroke-width="0.4"/>
  <text x="1276.9375" y="32" text-anchor="middle" font-size="9" fill="#444" font-family="Arial, Helvetica, sans-serif">7</text>
  <rect x="1180.25" y="1087" width="193.375" height="16" fill="none" stroke="#888" stroke-width="0.4"/>
  <text x="1276.9375" y="1099" text-anchor="middle" font-size="9" fill="#444" font-family="Arial, Helvetica, sans-serif">7</text>
  <rect x="1373.625" y="20" width="193.375" height="16" fill="none" stroke="#888" stroke-width="0.4"/>
  <text x="1470.3125" y="32" text-anchor="middle" font-size="9" fill="#444" font-family="Arial, Helvetica, sans-serif">8</text>
  <rect x="1373.625" y="1087" width="193.375" height="16" fill="none" stroke="#888" stroke-width="0.4"/>
  <text x="1470.3125" y="1099" text-anchor="middle" font-size="9" fill="#444" font-family="Arial, Helvetica, sans-serif">8</text>
  <rect x="1475" y="32" width="80" height="20" fill="white" stroke="black" stroke-width="0.8"/>
  <text x="1515.0" y="45" text-anchor="middle" font-size="9" fill="#000" font-family="Arial, Helvetica, sans-serif">REV: &#x2014;</text>
  <line x1="30" y1="506" x2="1557" y2="506" stroke="#888" stroke-width="0.6"/>
  <line x1="793" y1="30" x2="793" y2="983" stroke="#888" stroke-width="0.6"/>
  <rect x="42" y="42" width="739" height="452" fill="#fafafa" stroke="#ccc" stroke-width="0.5"/>
  <rect x="805" y="42" width="739" height="452" fill="#fafafa" stroke="#ccc" stroke-width="0.5"/>
  <rect x="42" y="518" width="739" height="452" fill="#fafafa" stroke="#ccc" stroke-width="0.5"/>
  <rect x="805" y="518" width="739" height="452" fill="#fafafa" stroke="#ccc" stroke-width="0.5"/>
  <text x="46" y="54" font-size="9" font-weight="bold" fill="#444" font-family="Arial, Helvetica, sans-serif">FRONT VIEW</text>
  <text x="809" y="54" font-size="9" font-weight="bold" fill="#444" font-family="Arial, Helvetica, sans-serif">TOP VIEW</text>
  <text x="46" y="530" font-size="9" font-weight="bold" fill="#444" font-family="Arial, Helvetica, sans-serif">RIGHT SIDE VIEW</text>
  <text x="809" y="530" font-size="9" font-weight="bold" fill="#444" font-family="Arial, Helvetica, sans-serif">SECTION A-A</text>
  <clipPath id="clip_front"><rect x="42" y="42" width="739" height="452"/></clipPath>
  <g clip-path="url(#clip_front)" transform="translate(42,68)">
    <g transform="scale(3.0, -3.0)   translate(87.41666666666667,-36.666666666666664)" stroke-width="0.3333333333333333"  fill="none">
       <!-- hidden lines -->
       <g  stroke="rgb(160,160,160)" fill="none" stroke-dasharray="0.3333333333333333,0.3333333333333333" >
			<path d="M-20.75,-30.0 L0.75,-30.0 " />
			<path d="M0.75,-30.0 L0.75,30.0 " />
			<path d="M-20.75,-30.0 L-20.75,-28.5 " />
			<path d="M-0.75,-28.5 L-20.75,-28.5 " />
			<path d="M-0.75,-28.5 L-0.75,-26.0 " />
			<path d="M-0.75,-26.0 L-20.75,-26.0 " />
			<path d="M-20.75,-26.0 L-20.75,-24.5 " />
			<path d="M-0.75,-24.5 L-20.75,-24.5 " />
			<path d="M-0.75,-24.5 L-0.75,-22.0 " />
			<path d="M-0.75,-22.0 L-20.75,-22.0 " />
			<path d="M-20.75,-22.0 L-20.75,-20.5 " />
			<path d="M-0.75,-20.5 L-20.75,-20.5 " />
			<path d="M-0.75,-20.5 L-0.75,-18.0 " />
			<path d="M-0.75,-18.0 L-20.75,-18.0 " />
			<path d="M-20.75,-18.0 L-20.75,-16.5 " />
			<path d="M-0.75,-16.5 L-20.75,-16.5 " />
			<path d="M-0.75,-16.5 L-0.75,-14.0 " />
			<path d="M-0.75,-14.0 L-20.75,-14.0 " />
			<path d="M-20.75,-14.0 L-20.75,-12.5 " />
			<path d="M-0.75,-12.5 L-20.75,-12.5 " />
			<path d="M-0.75,-12.5 L-0.75,-10.0 " />
			<path d="M-0.75,-10.0 L-20.75,-10.0 " />
			<path d="M-20.75,-10.0 L-20.75,-8.5 " />
			<path d="M-0.75,-8.5 L-20.75,-8.5 " />
			<path d="M-0.75,-8.5 L-0.75,-6.0 " />
			<path d="M-0.75,-6.0 L-20.75,-6.0 " />
			<path d="M-20.75,-6.0 L-20.75,-4.5 " />
			<path d="M-0.75,-4.5 L-20.75,-4.5 " />
			<path d="M-0.75,-4.5 L-0.75,-2.0 " />
			<path d="M-0.75,-2.0 L-20.75,-2.0 " />
			<path d="M-20.75,-2.0 L-20.75,-0.5 " />
			<path d="M-0.75,-0.5 L-20.75,-0.5 " />
			<path d="M-0.75,-0.5 L-0.75,30.0 " />
			<path d="M0.75,30.0 L-0.75,30.0 " />

       </g>

       <!-- solid lines -->
       <g  stroke="rgb(0,0,0)" fill="none">
			<path d="M0.75,-30.0 L-20.75,-30.0 " />
			<path d="M0.75,-30.0 L0.75,30.0 " />
			<path d="M-20.75,-30.0 L-20.75,-28.5 " />
			<path d="M-0.75,-28.5 L-20.75,-28.5 " />
			<path d="M-0.75,-28.5 L-0.75,-26.0 " />
			<path d="M-0.75,-26.0 L-20.75,-26.0 " />
			<path d="M-20.75,-26.0 L-20.75,-24.5 " />
			<path d="M-0.75,-24.5 L-20.75,-24.5 " />
			<path d="M-0.75,-24.5 L-0.75,-22.0 " />
			<path d="M-0.75,-22.0 L-20.75,-22.0 " />
			<path d="M-20.75,-22.0 L-20.75,-20.5 " />
			<path d="M-0.75,-20.5 L-20.75,-20.5 " />
			<path d="M-0.75,-20.5 L-0.75,-18.0 " />
			<path d="M-0.75,-18.0 L-20.75,-18.0 " />
			<path d="M-20.75,-18.0 L-20.75,-16.5 " />
			<path d="M-0.75,-16.5 L-20.75,-16.5 " />
			<path d="M-0.75,-16.5 L-0.75,-14.0 " />
			<path d="M-0.75,-14.0 L-20.75,-14.0 " />
			<path d="M-20.75,-14.0 L-20.75,-12.5 " />
			<path d="M-0.75,-12.5 L-20.75,-12.5 " />
			<path d="M-0.75,-12.5 L-0.75,-10.0 " />
			<path d="M-0.75,-10.0 L-20.75,-10.0 " />
			<path d="M-20.75,-10.0 L-20.75,-8.5 " />
			<path d="M-0.75,-8.5 L-20.75,-8.5 " />
			<path d="M-0.75,-8.5 L-0.75,-6.0 " />
			<path d="M-0.75,-6.0 L-20.75,-6.0 " />
			<path d="M-20.75,-6.0 L-20.75,-4.5 " />
			<path d="M-0.75,-4.5 L-20.75,-4.5 " />
			<path d="M-0.75,-4.5 L-0.75,-2.0 " />
			<path d="M-0.75,-2.0 L-20.75,-2.0 " />
			<path d="M-20.75,-2.0 L-20.75,-0.5 " />
			<path d="M-0.75,-0.5 L-20.75,-0.5 " />
			<path d="M-0.75,-0.5 L-0.75,30.0 " />
			<path d="M0.75,30.0 L-0.75,30.0 " />

       </g>
    </g>
  </g>
  <clipPath id="clip_top"><rect x="805" y="42" width="739" height="452"/></clipPath>
  <g clip-path="url(#clip_top)" transform="translate(805,68)">
    <g transform="scale(4.5, -4.5)   translate(74.44444444444444,-24.444444444444443)" stroke-width="0.2222222222222222"  fill="none">
       <!-- hidden lines -->
       <g  stroke="rgb(160,160,160)" fill="none" stroke-dasharray="0.2222222222222222,0.2222222222222222" >
			<path d="M-30.0,-20.0 L-30.0,20.0 " />
			<path d="M-30.0,-20.0 L30.0,-20.0 " />
			<path d="M30.0,-20.0 L30.0,20.0 " />
			<path d="M-30.0,20.0 L30.0,20.0 " />
			<path d="M-28.5,-20.0 L-28.5,20.0 " />
			<path d="M-26.0,-20.0 L-26.0,20.0 " />
			<path d="M-24.5,-20.0 L-24.5,20.0 " />
			<path d="M-22.0,-20.0 L-22.0,20.0 " />
			<path d="M-20.5,-20.0 L-20.5,20.0 " />
			<path d="M-18.0,-20.0 L-18.0,20.0 " />
			<path d="M-16.5,-20.0 L-16.5,20.0 " />
			<path d="M-14.0,-20.0 L-14.0,20.0 " />
			<path d="M-12.5,-20.0 L-12.5,20.0 " />
			<path d="M-10.0,-20.0 L-10.0,20.0 " />
			<path d="M-8.5,-20.0 L-8.5,20.0 " />
			<path d="M-6.0,-20.0 L-6.0,20.0 " />
			<path d="M-4.5,-20.0 L-4.5,20.0 " />
			<path d="M-2.0,-20.0 L-2.0,20.0 " />
			<path d="M-0.5,-20.0 L-0.5,20.0 " />

       </g>

       <!-- solid lines -->
       <g  stroke="rgb(0,0,0)" fill="none">
			<path d="M-30.0,-20.0 L-30.0,20.0 " />
			<path d="M-30.0,-20.0 L-28.5,-20.0 " />
			<path d="M-28.5,-20.0 L-26.0,-20.0 " />
			<path d="M-26.0,-20.0 L-24.5,-20.0 " />
			<path d="M-24.5,-20.0 L-22.0,-20.0 " />
			<path d="M-22.0,-20.0 L-20.5,-20.0 " />
			<path d="M-20.5,-20.0 L-18.0,-20.0 " />
			<path d="M-18.0,-20.0 L-16.5,-20.0 " />
			<path d="M-16.5,-20.0 L-14.0,-20.0 " />
			<path d="M-14.0,-20.0 L-12.5,-20.0 " />
			<path d="M-12.5,-20.0 L-10.0,-20.0 " />
			<path d="M-10.0,-20.0 L-8.5,-20.0 " />
			<path d="M-8.5,-20.0 L-6.0,-20.0 " />
			<path d="M-6.0,-20.0 L-4.5,-20.0 " />
			<path d="M-4.5,-20.0 L-2.0,-20.0 " />
			<path d="M-2.0,-20.0 L-0.5,-20.0 " />
			<path d="M-0.5,-20.0 L30.0,-20.0 " />
			<path d="M-30.0,20.0 L-28.5,20.0 " />
			<path d="M-28.5,20.0 L-26.0,20.0 " />
			<path d="M-26.0,20.0 L-24.5,20.0 " />
			<path d="M-24.5,20.0 L-22.0,20.0 " />
			<path d="M-22.0,20.0 L-20.5,20.0 " />
			<path d="M-20.5,20.0 L-18.0,20.0 " />
			<path d="M-18.0,20.0 L-16.5,20.0 " />
			<path d="M-16.5,20.0 L-14.0,20.0 " />
			<path d="M-14.0,20.0 L-12.5,20.0 " />
			<path d="M-12.5,20.0 L-10.0,20.0 " />
			<path d="M-10.0,20.0 L-8.5,20.0 " />
			<path d="M-8.5,20.0 L-6.0,20.0 " />
			<path d="M-6.0,20.0 L-4.5,20.0 " />
			<path d="M-4.5,20.0 L-2.0,20.0 " />
			<path d="M-2.0,20.0 L-0.5,20.0 " />
			<path d="M-0.5,20.0 L30.0,20.0 " />
			<path d="M-28.5,-20.0 L-28.5,20.0 " />
			<path d="M-26.0,-20.0 L-26.0,20.0 " />
			<path d="M-24.5,-20.0 L-24.5,20.0 " />
			<path d="M-22.0,-20.0 L-22.0,20.0 " />
			<path d="M-20.5,-20.0 L-20.5,20.0 " />
			<path d="M-18.0,-20.0 L-18.0,20.0 " />
			<path d="M-16.5,-20.0 L-16.5,20.0 " />
			<path d="M-14.0,-20.0 L-14.0,20.0 " />
			<path d="M-12.5,-20.0 L-12.5,20.0 " />
			<path d="M-10.0,-20.0 L-10.0,20.0 " />
			<path d="M-8.5,-20.0 L-8.5,20.0 " />
			<path d="M-6.0,-20.0 L-6.0,20.0 " />
			<path d="M-4.5,-20.0 L-4.5,20.0 " />
			<path d="M30.0,-20.0 L30.0,20.0 " />
			<path d="M-2.0,-20.0 L-2.0,20.0 " />
			<path d="M-0.5,-20.0 L-0.5,20.0 " />

       </g>
    </g>
  </g>
  <clipPath id="clip_right"><rect x="42" y="518" width="739" height="452"/></clipPath>
  <g clip-path="url(#clip_right)" transform="translate(42,544)">
    <g transform="scale(4.5, -4.5)   translate(45.19444444444444,-24.444444444444443)" stroke-width="0.2222222222222222"  fill="none">
       <!-- hidden lines -->
       <g  stroke="rgb(160,160,160)" fill="none" stroke-dasharray="0.2222222222222222,0.2222222222222222" >
			<path d="M-0.75,20.0 L20.75,20.0 " />
			<path d="M-0.75,20.0 L-0.75,-20.0 " />
			<path d="M20.75,-20.0 L-0.75,-20.0 " />
			<path d="M20.75,20.0 L20.75,-20.0 " />
			<path d="M0.75,20.0 L20.75,20.0 " />
			<path d="M0.75,20.0 L20.75,20.0 " />
			<path d="M0.75,20.0 L20.75,20.0 " />
			<path d="M0.75,20.0 L20.75,20.0 " />
			<path d="M0.75,20.0 L20.75,20.0 " />
			<path d="M0.75,20.0 L20.75,20.0 " />
			<path d="M0.75,20.0 L20.75,20.0 " />
			<path d="M0.75,20.0 L20.75,20.0 " />
			<path d="M0.75,20.0 L20.75,20.0 " />
			<path d="M0.75,20.0 L20.75,20.0 " />
			<path d="M0.75,20.0 L20.75,20.0 " />
			<path d="M0.75,20.0 L20.75,20.0 " />
			<path d="M0.75,20.0 L20.75,20.0 " />
			<path d="M0.75,20.0 L20.75,20.0 " />
			<path d="M0.75,-20.0 L20.75,-20.0 " />
			<path d="M0.75,-20.0 L20.75,-20.0 " />
			<path d="M0.75,-20.0 L20.75,-20.0 " />
			<path d="M0.75,-20.0 L20.75,-20.0 " />
			<path d="M0.75,-20.0 L20.75,-20.0 " />
			<path d="M0.75,-20.0 L20.75,-20.0 " />
			<path d="M0.75,-20.0 L20.75,-20.0 " />
			<path d="M0.75,-20.0 L20.75,-20.0 " />
			<path d="M0.75,-20.0 L20.75,-20.0 " />
			<path d="M0.75,-20.0 L20.75,-20.0 " />
			<path d="M0.75,-20.0 L20.75,-20.0 " />
			<path d="M0.75,-20.0 L20.75,-20.0 " />
			<path d="M0.75,-20.0 L20.75,-20.0 " />
			<path d="M0.75,-20.0 L20.75,-20.0 " />
			<path d="M20.75,20.0 L20.75,-20.0 " />
			<path d="M0.75,20.0 L0.75,-20.0 " />
			<path d="M0.75,20.0 L0.75,-20.0 " />
			<path d="M20.75,20.0 L20.75,-20.0 " />
			<path d="M20.75,20.0 L20.75,-20.0 " />
			<path d="M0.75,20.0 L0.75,-20.0 " />
			<path d="M0.75,20.0 L0.75,-20.0 " />
			<path d="M20.75,20.0 L20.75,-20.0 " />
			<path d="M20.75,20.0 L20.75,-20.0 " />
			<path d="M0.75,20.0 L0.75,-20.0 " />
			<path d="M0.75,20.0 L0.75,-20.0 " />
			<path d="M20.75,20.0 L20.75,-20.0 " />
			<path d="M20.75,20.0 L20.75,-20.0 " />
			<path d="M0.75,20.0 L0.75,-20.0 " />
			<path d="M0.75,20.0 L0.75,-20.0 " />
			<path d="M20.75,20.0 L20.75,-20.0 " />
			<path d="M20.75,20.0 L20.75,-20.0 " />
			<path d="M0.75,20.0 L0.75,-20.0 " />
			<path d="M0.75,20.0 L0.75,-20.0 " />
			<path d="M20.75,20.0 L20.75,-20.0 " />
			<path d="M20.75,20.0 L20.75,-20.0 " />
			<path d="M0.75,20.0 L0.75,-20.0 " />
			<path d="M0.75,20.0 L0.75,-20.0 " />
			<path d="M20.75,20.0 L20.75,-20.0 " />
			<path d="M20.75,20.0 L20.75,-20.0 " />
			<path d="M0.75,20.0 L0.75,-20.0 " />
			<path d="M0.75,20.0 L0.75,-20.0 " />
			<path d="M0.75,20.0 L0.75,-20.0 " />
			<path d="M20.75,20.0 L20.75,-20.0 " />

       </g>

       <!-- solid lines -->
       <g  stroke="rgb(0,0,0)" fill="none">
			<path d="M0.75,20.0 L20.75,20.0 " />
			<path d="M-0.75,20.0 L0.75,20.0 " />
			<path d="M-0.75,20.0 L-0.75,-20.0 " />
			<path d="M0.75,-20.0 L20.75,-20.0 " />
			<path d="M-0.75,-20.0 L0.75,-20.0 " />
			<path d="M0.75,20.0 L0.75,-20.0 " />
			<path d="M20.75,20.0 L20.75,-20.0 " />

       </g>
    </g>
  </g>
  <clipPath id="clip_section"><rect x="805" y="518" width="739" height="452"/></clipPath>
  <g clip-path="url(#clip_section)" transform="translate(805,544)">
    <g transform="scale(3.0, -3.0)   translate(87.41666666666667,-36.666666666666664)" stroke-width="0.3333333333333333"  fill="none">
       <!-- hidden lines -->
       <g  stroke="rgb(160,160,160)" fill="none" stroke-dasharray="0.3333333333333333,0.3333333333333333" >
			<path d="M-20.75,-30.0 L0.75,-30.0 " />
			<path d="M-20.75,-30.0 L-20.75,-28.5 " />
			<path d="M0.75,-30.0 L0.75,30.0 " />
			<path d="M-0.75,-28.5 L-20.75,-28.5 " />
			<path d="M-0.75,-28.5 L-0.75,-26.0 " />
			<path d="M-0.75,-26.0 L-20.75,-26.0 " />
			<path d="M-20.75,-26.0 L-20.75,-24.5 " />
			<path d="M-0.75,-24.5 L-20.75,-24.5 " />
			<path d="M-0.75,-24.5 L-0.75,-22.0 " />
			<path d="M-0.75,-22.0 L-20.75,-22.0 " />
			<path d="M-20.75,-22.0 L-20.75,-20.5 " />
			<path d="M-0.75,-20.5 L-20.75,-20.5 " />
			<path d="M-0.75,-20.5 L-0.75,-18.0 " />
			<path d="M-0.75,-18.0 L-20.75,-18.0 " />
			<path d="M-20.75,-18.0 L-20.75,-16.5 " />
			<path d="M-0.75,-16.5 L-20.75,-16.5 " />
			<path d="M-0.75,-16.5 L-0.75,-14.0 " />
			<path d="M-0.75,-14.0 L-20.75,-14.0 " />
			<path d="M-20.75,-14.0 L-20.75,-12.5 " />
			<path d="M-0.75,-12.5 L-20.75,-12.5 " />
			<path d="M-0.75,-12.5 L-0.75,-10.0 " />
			<path d="M-0.75,-10.0 L-20.75,-10.0 " />
			<path d="M-20.75,-10.0 L-20.75,-8.5 " />
			<path d="M-0.75,-8.5 L-20.75,-8.5 " />
			<path d="M-0.75,-8.5 L-0.75,-6.0 " />
			<path d="M-0.75,-6.0 L-20.75,-6.0 " />
			<path d="M-20.75,-6.0 L-20.75,-4.5 " />
			<path d="M-0.75,-4.5 L-20.75,-4.5 " />
			<path d="M-0.75,-4.5 L-0.75,-2.0 " />
			<path d="M-0.75,-2.0 L-20.75,-2.0 " />
			<path d="M-20.75,-2.0 L-20.75,-0.5 " />
			<path d="M-0.75,-0.5 L-20.75,-0.5 " />
			<path d="M-0.75,-0.5 L-0.75,30.0 " />
			<path d="M0.75,30.0 L-0.75,30.0 " />

       </g>

       <!-- solid lines -->
       <g  stroke="rgb(0,0,0)" fill="none">
			<path d="M-20.75,-30.0 L0.75,-30.0 " />
			<path d="M-20.75,-30.0 L-20.75,-28.5 " />
			<path d="M-20.75,-28.5 L-0.75,-28.5 " />
			<path d="M-0.75,-28.5 L-0.75,-26.0 " />
			<path d="M-20.75,-26.0 L-0.75,-26.0 " />
			<path d="M-20.75,-26.0 L-20.75,-24.5 " />
			<path d="M-20.75,-24.5 L-0.75,-24.5 " />
			<path d="M-0.75,-24.5 L-0.75,-22.0 " />
			<path d="M-20.75,-22.0 L-0.75,-22.0 " />
			<path d="M-20.75,-22.0 L-20.75,-20.5 " />
			<path d="M-20.75,-20.5 L-0.75,-20.5 " />
			<path d="M-0.75,-20.5 L-0.75,-18.0 " />
			<path d="M-20.75,-18.0 L-0.75,-18.0 " />
			<path d="M-20.75,-18.0 L-20.75,-16.5 " />
			<path d="M-20.75,-16.5 L-0.75,-16.5 " />
			<path d="M-0.75,-16.5 L-0.75,-14.0 " />
			<path d="M-20.75,-14.0 L-0.75,-14.0 " />
			<path d="M-20.75,-14.0 L-20.75,-12.5 " />
			<path d="M-20.75,-12.5 L-0.75,-12.5 " />
			<path d="M-0.75,-12.5 L-0.75,-10.0 " />
			<path d="M-20.75,-10.0 L-0.75,-10.0 " />
			<path d="M-20.75,-10.0 L-20.75,-8.5 " />
			<path d="M-20.75,-8.5 L-0.75,-8.5 " />
			<path d="M-0.75,-8.5 L-0.75,-6.0 " />
			<path d="M-20.75,-6.0 L-0.75,-6.0 " />
			<path d="M-20.75,-6.0 L-20.75,-4.5 " />
			<path d="M-20.75,-4.5 L-0.75,-4.5 " />
			<path d="M-0.75,-4.5 L-0.75,-2.0 " />
			<path d="M-20.75,-2.0 L-0.75,-2.0 " />
			<path d="M-20.75,-2.0 L-20.75,-0.5 " />
			<path d="M-20.75,-0.5 L-0.75,-0.5 " />
			<path d="M-0.75,-0.5 L-0.75,30.0 " />
			<path d="M-0.75,30.0 L0.75,30.0 " />
			<path d="M0.75,-30.0 L0.75,30.0 " />

       </g>
    </g>
  </g>
  <text x="1174.5" y="964" text-anchor="middle" font-size="9" font-weight="bold" fill="#333" font-family="Arial, Helvetica, sans-serif">SECTION A-A  &#x2014;  CUT AT Y MIDPLANE</text>
  <rect x="1282" y="332" width="258" height="158" fill="#f4f4f4" stroke="#aaa" stroke-width="0.5"/>
  <text x="1285" y="341" font-size="7" fill="#777" font-family="Arial, Helvetica, sans-serif">ISO</text>
  <clipPath id="clip_iso"><rect x="1282" y="332" width="258" height="158"/></clipPath>
  <g clip-path="url(#clip_iso)" transform="translate(1282,358)">
    <g transform="scale(3.1159586833990955, -3.1159586833990955)   translate(100.0713725903691,-35.302136894833495)" stroke-width="0.320928517225759"  fill="none">
       <!-- hidden lines -->
       <g  stroke="rgb(160,160,160)" fill="none" stroke-dasharray="0.320928517225759,0.320928517225759" >
			<path d="M-20.682873349706515,-28.88356655031831 L-20.682873349706515,3.776296686790733 " />
			<path d="M-35.88566914521729,12.553634931763789 L-20.68287334970652,3.7762966867907313 " />
			<path d="M-20.682873349706515,3.776296686790732 L21.743533521486345,28.271194114622524 " />
			<path d="M-20.68287334970652,5.0010415581823215 L-33.0572420204711,12.145386641299927 " />
			<path d="M-20.682873349706515,5.0010415581823215 L-18.915106396740146,6.021662284341979 " />
			<path d="M-18.91510639674015,6.021662284341979 L-33.0572420204711,14.186628093619241 " />
			<path d="M-17.854446224960327,6.634034720037774 L-30.22881489572491,13.77837980315538 " />
			<path d="M-17.854446224960327,6.634034720037774 L-16.086679271993958,7.654655446197433 " />
			<path d="M-16.086679271993958,7.654655446197432 L-30.22881489572491,15.819621255474694 " />
			<path d="M-15.026019100214137,8.267027881893226 L-27.400387770978718,15.41137296501083 " />
			<path d="M-15.026019100214135,8.267027881893227 L-13.258252147247767,9.287648608052884 " />
			<path d="M-13.258252147247768,9.287648608052882 L-27.40038777097872,17.452614417330146 " />
			<path d="M-12.197591975467946,9.900021043748678 L-24.571960646232526,17.044366126866283 " />
			<path d="M-12.197591975467944,9.90002104374868 L-10.429825022501575,10.920641769908338 " />
			<path d="M-10.429825022501577,10.920641769908334 L-24.57196064623253,19.0856075791856 " />
			<path d="M-9.369164850721756,11.53301420560413 L-21.74353352148634,18.677359288721735 " />
			<path d="M-9.369164850721754,11.533014205604132 L-7.601397897755385,12.553634931763789 " />
			<path d="M-7.601397897755386,12.553634931763787 L-21.743533521486338,20.71860074104105 " />
			<path d="M-6.540737725975565,13.166007367459581 L-18.915106396740153,20.310352450577188 " />
			<path d="M-6.540737725975564,13.166007367459585 L-4.772970773009195,14.186628093619241 " />
			<path d="M-4.772970773009196,14.18662809361924 L-18.91510639674015,22.351593902896504 " />
			<path d="M-3.712310601229375,14.799000529315034 L-16.086679271993958,21.94334561243264 " />
			<path d="M-3.7123106012293725,14.799000529315038 L-1.9445436482630036,15.819621255474694 " />
			<path d="M-1.9445436482630059,15.819621255474692 L-16.086679271993958,23.984587064751956 " />
			<path d="M-20.68287334970652,-25.6175802266074 L-20.68287334970652,5.001041558182322 " />
			<path d="M-18.91510639674015,-26.63820095276706 L-18.91510639674015,6.021662284341982 " />
			<path d="M-17.854446224960327,-23.98458706475195 L-17.854446224960327,6.634034720037775 " />
			<path d="M-16.086679271993958,-25.00520779091161 L-16.086679271993958,7.6546554461974345 " />
			<path d="M-15.026019100214137,-22.351593902896504 L-15.026019100214137,8.267027881893227 " />
			<path d="M-13.258252147247768,-23.37221462905616 L-13.258252147247768,9.287648608052884 " />
			<path d="M-12.197591975467946,-20.71860074104105 L-12.197591975467946,9.90002104374868 " />
			<path d="M-10.429825022501577,-21.739221467200707 L-10.429825022501577,10.920641769908336 " />
			<path d="M-9.369164850721756,-19.085607579185595 L-9.369164850721756,11.533014205604132 " />
			<path d="M-7.601397897755386,-20.106228305345255 L-7.601397897755386,12.553634931763789 " />
			<path d="M-6.540737725975565,-17.452614417330146 L-6.540737725975565,13.166007367459585 " />
			<path d="M-4.772970773009196,-18.473235143489802 L-4.772970773009196,14.186628093619241 " />
			<path d="M-3.712310601229375,-15.819621255474692 L-3.712310601229375,14.799000529315038 " />
			<path d="M-1.9445436482630059,-16.84024198163435 L-1.9445436482630059,15.819621255474694 " />

       </g>

       <!-- solid lines -->
       <g  stroke="rgb(0,0,0)" fill="none">
			<path d="M-20.682873349706515,-28.88356655031831 L-35.88566914521729,-20.106228305345255 " />
			<path d="M-35.88566914521729,-20.106228305345255 L-35.88566914521729,12.553634931763789 " />
			<path d="M-20.682873349706515,-28.88356655031831 L21.743533521486345,-4.388669122486519 " />
			<path d="M-35.88566914521729,-20.106228305345255 L-34.82500897343747,-19.493855869649458 " />
			<path d="M-20.68287334970652,-27.65882167892672 L-34.82500897343747,-19.493855869649458 " />
			<path d="M-20.682873349706515,-27.65882167892672 L-18.915106396740146,-26.63820095276706 " />
			<path d="M-18.91510639674015,-26.63820095276706 L-33.0572420204711,-18.4732351434898 " />
			<path d="M-33.0572420204711,-18.473235143489802 L-31.996581848691278,-17.860862707794006 " />
			<path d="M-17.854446224960327,-26.025828517071268 L-31.996581848691278,-17.860862707794006 " />
			<path d="M-17.854446224960327,-26.025828517071268 L-16.086679271993958,-25.00520779091161 " />
			<path d="M-16.086679271993958,-25.00520779091161 L-30.22881489572491,-16.840241981634346 " />
			<path d="M-30.22881489572491,-16.84024198163435 L-29.168154723945086,-16.227869545938553 " />
			<path d="M-15.026019100214137,-24.392835355215816 L-29.16815472394509,-16.227869545938553 " />
			<path d="M-15.026019100214135,-24.392835355215812 L-13.258252147247767,-23.372214629056156 " />
			<path d="M-13.258252147247768,-23.37221462905616 L-27.40038777097872,-15.207248819778897 " />
			<path d="M-27.400387770978718,-15.207248819778899 L-26.339727599198895,-14.594876384083104 " />
			<path d="M-12.197591975467946,-22.759842193360363 L-26.3397275991989,-14.5948763840831 " />
			<path d="M-12.197591975467944,-22.759842193360363 L-10.429825022501575,-21.739221467200704 " />
			<path d="M-10.429825022501577,-21.739221467200707 L-24.57196064623253,-13.574255657923445 " />
			<path d="M-24.571960646232526,-13.574255657923446 L-23.511300474452703,-12.961883222227652 " />
			<path d="M-9.369164850721756,-21.12684903150491 L-23.51130047445271,-12.961883222227648 " />
			<path d="M-9.369164850721754,-21.126849031504907 L-7.601397897755385,-20.10622830534525 " />
			<path d="M-7.601397897755386,-20.106228305345255 L-21.743533521486338,-11.941262496067992 " />
			<path d="M-21.743533521486338,-11.941262496067994 L-20.682873349706515,-11.3288900603722 " />
			<path d="M-6.540737725975565,-19.493855869649458 L-20.68287334970652,-11.328890060372196 " />
			<path d="M-6.540737725975564,-19.493855869649458 L-4.772970773009195,-18.4732351434898 " />
			<path d="M-4.772970773009196,-18.473235143489802 L-18.91510639674015,-10.30826933421254 " />
			<path d="M-18.91510639674015,-10.308269334212541 L-17.854446224960327,-9.695896898516747 " />
			<path d="M-3.712310601229375,-17.860862707794006 L-17.854446224960327,-9.695896898516743 " />
			<path d="M-3.7123106012293725,-17.860862707794006 L-1.9445436482630036,-16.840241981634346 " />
			<path d="M-1.9445436482630059,-16.84024198163435 L-16.086679271993958,-8.675276172357087 " />
			<path d="M-16.086679271993958,-8.675276172357089 L-15.026019100214137,-8.062903736661294 " />
			<path d="M-0.8838834764831844,-16.227869545938553 L-15.026019100214137,-8.06290373666129 " />
			<path d="M-0.8838834764831809,-16.22786954593855 L20.682873349706522,-3.7762966867907224 " />
			<path d="M21.743533521486338,-4.388669122486527 L20.682873349706515,-3.776296686790732 " />
			<path d="M21.743533521486338,-4.388669122486527 L21.743533521486338,28.271194114622517 " />
			<path d="M-35.88566914521729,12.553634931763789 L-34.82500897343747,13.166007367459583 " />
			<path d="M-33.0572420204711,12.145386641299927 L-34.82500897343747,13.166007367459585 " />
			<path d="M-33.0572420204711,14.186628093619241 L-31.996581848691278,14.799000529315036 " />
			<path d="M-30.22881489572491,13.77837980315538 L-31.996581848691278,14.799000529315038 " />
			<path d="M-30.22881489572491,15.819621255474694 L-29.168154723945086,16.43199369117049 " />
			<path d="M-27.400387770978718,15.41137296501083 L-29.16815472394509,16.43199369117049 " />
			<path d="M-27.400387770978718,17.452614417330146 L-26.339727599198895,18.064986853025943 " />
			<path d="M-24.571960646232526,17.044366126866283 L-26.3397275991989,18.064986853025943 " />
			<path d="M-24.571960646232526,19.0856075791856 L-23.511300474452703,19.697980014881395 " />
			<path d="M-21.74353352148634,18.677359288721735 L-23.51130047445271,19.697980014881395 " />
			<path d="M-21.743533521486338,20.71860074104105 L-20.682873349706515,21.330973176736848 " />
			<path d="M-18.915106396740153,20.310352450577188 L-20.68287334970652,21.330973176736844 " />
			<path d="M-18.91510639674015,22.351593902896504 L-17.854446224960327,22.9639663385923 " />
			<path d="M-16.086679271993958,21.94334561243264 L-17.854446224960327,22.963966338592297 " />
			<path d="M-16.086679271993958,23.984587064751956 L-15.026019100214137,24.596959500447753 " />
			<path d="M-0.8838834764831844,16.43199369117049 L-15.026019100214137,24.596959500447753 " />
			<path d="M-0.8838834764831809,16.43199369117049 L20.682873349706522,28.883566550318317 " />
			<path d="M21.743533521486338,28.271194114622514 L20.682873349706515,28.883566550318307 " />
			<path d="M-34.82500897343747,-19.493855869649458 L-34.82500897343747,13.166007367459585 " />
			<path d="M-20.68287334970652,-27.65882167892672 L-20.68287334970652,-25.6175802266074 " />
			<path d="M-33.0572420204711,-18.473235143489802 L-33.0572420204711,14.186628093619241 " />
			<path d="M-31.996581848691278,-17.860862707794006 L-31.996581848691278,14.799000529315038 " />
			<path d="M-17.854446224960327,-26.025828517071268 L-17.854446224960327,-23.98458706475195 " />
			<path d="M-30.22881489572491,-16.84024198163435 L-30.22881489572491,15.819621255474694 " />
			<path d="M-29.168154723945086,-16.227869545938553 L-29.168154723945086,16.43199369117049 " />
			<path d="M-15.026019100214137,-24.392835355215816 L-15.026019100214137,-22.351593902896504 " />
			<path d="M-27.400387770978718,-15.207248819778899 L-27.400387770978718,17.452614417330146 " />
			<path d="M-26.339727599198895,-14.594876384083102 L-26.339727599198895,18.064986853025943 " />
			<path d="M-12.197591975467946,-22.759842193360363 L-12.197591975467946,-20.71860074104105 " />
			<path d="M-24.571960646232526,-13.574255657923446 L-24.571960646232526,19.0856075791856 " />
			<path d="M-23.511300474452707,-12.96188322222765 L-23.511300474452707,19.697980014881395 " />
			<path d="M-9.369164850721756,-21.12684903150491 L-9.369164850721756,-19.085607579185595 " />
			<path d="M-21.743533521486338,-11.941262496067994 L-21.743533521486338,20.71860074104105 " />
			<path d="M-20.68287334970652,-11.328890060372197 L-20.68287334970652,21.330973176736848 " />
			<path d="M-6.540737725975565,-19.493855869649458 L-6.540737725975565,-17.452614417330146 " />
			<path d="M-18.91510639674015,-10.308269334212541 L-18.91510639674015,22.351593902896504 " />
			<path d="M-17.854446224960327,-9.695896898516745 L-17.854446224960327,22.9639663385923 " />
			<path d="M-3.712310601229375,-17.860862707794006 L-3.712310601229375,-15.819621255474692 " />
			<path d="M-0.8838834764831844,-16.227869545938553 L-0.8838834764831844,16.43199369117049 " />
			<path d="M20.682873349706515,-3.776296686790732 L20.682873349706515,28.88356655031831 " />
			<path d="M-16.086679271993958,-8.675276172357089 L-16.086679271993958,23.984587064751956 " />
			<path d="M-15.026019100214135,-8.062903736661292 L-15.026019100214135,24.596959500447753 " />

       </g>
    </g>
  </g>
  <line x1="34" y1="268.0" x2="789" y2="268.0" stroke="#0000ff" stroke-width="0.4" stroke-dasharray="12,3,2,3" fill="none"/>
  <line x1="411.5" y1="34" x2="411.5" y2="502" stroke="#0000ff" stroke-width="0.4" stroke-dasharray="12,3,2,3" fill="none"/>
  <line x1="797" y1="268.0" x2="1552" y2="268.0" stroke="#0000ff" stroke-width="0.4" stroke-dasharray="12,3,2,3" fill="none"/>
  <line x1="1174.5" y1="34" x2="1174.5" y2="502" stroke="#0000ff" stroke-width="0.4" stroke-dasharray="12,3,2,3" fill="none"/>
  <line x1="34" y1="744.0" x2="789" y2="744.0" stroke="#0000ff" stroke-width="0.4" stroke-dasharray="12,3,2,3" fill="none"/>
  <line x1="411.5" y1="510" x2="411.5" y2="978" stroke="#0000ff" stroke-width="0.4" stroke-dasharray="12,3,2,3" fill="none"/>
  <line x1="0" y1="54" x2="18" y2="54" stroke="#1a1a8c" stroke-width="0.7"/>
  <line x1="0" y1="482" x2="18" y2="482" stroke="#1a1a8c" stroke-width="0.7"/>
  <line x1="4" y1="54" x2="4" y2="482" stroke="#1a1a8c" stroke-width="0.8"/>
  <polygon points="4,54 1,61 7,61" fill="#1a1a8c"/>
  <polygon points="4,482 1,475 7,475" fill="#1a1a8c"/>
  <text x="-4" y="268.0" text-anchor="middle" font-size="10" fill="#1a1a8c" font-family="Arial, Helvetica, sans-serif" transform="rotate(-90,-4,268.0)">1.5 mm</text>
  <polygon points="411.5,492 402.5,506.4 420.5,506.4" fill="#1a1a8c" stroke="#1a1a8c" stroke-width="0.5"/>
  <rect x="402.5" y="506.4" width="18" height="18" fill="white" stroke="#1a1a8c" stroke-width="1"/>
  <text x="411.5" y="520.4" text-anchor="middle" font-size="11" font-weight="bold" fill="#1a1a8c" font-family="Arial, Helvetica, sans-serif">A</text>
  <line x1="46" y1="268.0" x2="777" y2="268.0" stroke="#555" stroke-width="1" stroke-dasharray="8,4"/>
  <polygon points="46,268.0 56,264.0 56,272.0" fill="#555"/>
  <polygon points="777,268.0 767,264.0 767,272.0" fill="#555"/>
  <text x="60" y="262.0" font-size="10" font-weight="bold" fill="#555" font-family="Arial, Helvetica, sans-serif">A</text>
  <text x="757" y="262.0" font-size="10" font-weight="bold" fill="#555" font-family="Arial, Helvetica, sans-serif">A</text>
  <line x1="54" y1="508" x2="54" y2="526" stroke="#1a1a8c" stroke-width="0.7"/>
  <line x1="769" y1="508" x2="769" y2="526" stroke="#1a1a8c" stroke-width="0.7"/>
  <line x1="54" y1="522" x2="769" y2="522" stroke="#1a1a8c" stroke-width="0.8"/>
  <polygon points="54,522 61,519 61,525" fill="#1a1a8c"/>
  <polygon points="769,522 762,519 762,525" fill="#1a1a8c"/>
  <text x="411.5" y="518" text-anchor="middle" font-size="10" fill="#1a1a8c" font-family="Arial, Helvetica, sans-serif">60.0 mm</text>
  <line x1="817" y1="6" x2="817" y2="24" stroke="#1a1a8c" stroke-width="0.7"/>
  <line x1="1532" y1="6" x2="1532" y2="24" stroke="#1a1a8c" stroke-width="0.7"/>
  <line x1="817" y1="20" x2="1532" y2="20" stroke="#1a1a8c" stroke-width="0.8"/>
  <polygon points="817,20 824,17 824,23" fill="#1a1a8c"/>
  <polygon points="1532,20 1525,17 1525,23" fill="#1a1a8c"/>
  <text x="1174.5" y="16" text-anchor="middle" font-size="10" fill="#1a1a8c" font-family="Arial, Helvetica, sans-serif">60.0 mm</text>
  <line x1="1570" y1="54" x2="1588" y2="54" stroke="#1a1a8c" stroke-width="0.7"/>
  <line x1="1570" y1="482" x2="1588" y2="482" stroke="#1a1a8c" stroke-width="0.7"/>
  <line x1="1574" y1="54" x2="1574" y2="482" stroke="#1a1a8c" stroke-width="0.8"/>
  <polygon points="1574,54 1571,61 1577,61" fill="#1a1a8c"/>
  <polygon points="1574,482 1571,475 1577,475" fill="#1a1a8c"/>
  <text x="1566" y="268.0" text-anchor="middle" font-size="10" fill="#1a1a8c" font-family="Arial, Helvetica, sans-serif" transform="rotate(-90,1566,268.0)">40.0 mm</text>
  <text x="627" y="76" font-size="8" font-weight="bold" fill="#333" font-family="Arial, Helvetica, sans-serif">GD&amp;T CALLOUTS</text>
  <rect x="627" y="80" width="98" height="22" fill="#fffff8" stroke="#000000" stroke-width="1"/>
  <line x1="655" y1="80" x2="655" y2="102" stroke="#000000" stroke-width="1"/>
  <text x="641.0" y="97" text-anchor="middle" font-size="13" font-weight="bold" fill="#1a1a8c" font-family="Arial, Helvetica, sans-serif">▭</text>
  <text x="661" y="97" font-size="10" fill="#000" font-family="Arial, Helvetica, sans-serif">0.05</text>
  <line x1="627" y1="91.0" x2="603.0" y2="192.7" stroke="#999" stroke-width="0.5" stroke-dasharray="4,3"/>
  <rect x="627" y="108" width="123" height="22" fill="#fffff8" stroke="#000000" stroke-width="1"/>
  <line x1="655" y1="108" x2="655" y2="130" stroke="#000000" stroke-width="1"/>
  <line x1="725" y1="108" x2="725" y2="130" stroke="#000000" stroke-width="1"/>
  <text x="641.0" y="125" text-anchor="middle" font-size="13" font-weight="bold" fill="#1a1a8c" font-family="Arial, Helvetica, sans-serif">⊥</text>
  <text x="661" y="125" font-size="10" fill="#000" font-family="Arial, Helvetica, sans-serif">0.05</text>
  <text x="737.5" y="125" text-anchor="middle" font-size="10" font-weight="bold" fill="#000" font-family="Arial, Helvetica, sans-serif">A</text>
  <line x1="627" y1="119.0" x2="411.5" y2="72.0" stroke="#999" stroke-width="0.5" stroke-dasharray="4,3"/>
  <rect x="627" y="136" width="100" height="22" fill="#fffff8" stroke="#000000" stroke-width="0.8"/>
  <text x="633" y="151" font-size="11" fill="#1a1a8c" font-family="Arial, Helvetica, sans-serif">∇∇ Ra 3.2</text>
  <rect x="30" y="983" width="1527" height="110" fill="white" stroke="black" stroke-width="1.5"/>
  <rect x="30" y="983" width="1527" height="22" fill="#1a1a8c"/>
  <text x="793.5" y="998" text-anchor="middle" font-size="13" fill="white" font-weight="bold" font-family="Arial, Helvetica, sans-serif">ARIA-OS ENGINEERING DRAWING</text>
  <text x="34" y="1014.0" font-size="7" fill="#666" font-family="Arial, Helvetica, sans-serif">PART ID</text>
  <text x="34" y="1045.0" font-size="10" fill="#000" font-weight="bold" font-family="Arial, Helvetica, sans-serif">heat_sink</text>
  <line x1="30" y1="1049.0" x2="335.40000000000003" y2="1049.0" stroke="#aaa" stroke-width="0.5"/>
  <text x="34" y="1058.0" font-size="7" fill="#666" font-family="Arial, Helvetica, sans-serif">MATERIAL</text>
  <text x="34" y="1089.0" font-size="10" fill="#000" font-weight="bold" font-family="Arial, Helvetica, sans-serif">—</text>
  <line x1="335.40000000000003" y1="1005" x2="335.40000000000003" y2="1093" stroke="black" stroke-width="0.8"/>
  <text x="339.40000000000003" y="1014.0" font-size="7" fill="#666" font-family="Arial, Helvetica, sans-serif">SCALE</text>
  <text x="339.40000000000003" y="1045.0" font-size="10" fill="#000" font-weight="bold" font-family="Arial, Helvetica, sans-serif">1:1</text>
  <line x1="335.40000000000003" y1="1049.0" x2="640.8000000000001" y2="1049.0" stroke="#aaa" stroke-width="0.5"/>
  <text x="339.40000000000003" y="1058.0" font-size="7" fill="#666" font-family="Arial, Helvetica, sans-serif">DATE</text>
  <text x="339.40000000000003" y="1089.0" font-size="10" fill="#000" font-weight="bold" font-family="Arial, Helvetica, sans-serif">2026-04-01</text>
  <line x1="640.8000000000001" y1="1005" x2="640.8000000000001" y2="1093" stroke="black" stroke-width="0.8"/>
  <text x="644.8000000000001" y="1014.0" font-size="7" fill="#666" font-family="Arial, Helvetica, sans-serif">DRAWN BY</text>
  <text x="644.8000000000001" y="1045.0" font-size="10" fill="#000" font-weight="bold" font-family="Arial, Helvetica, sans-serif">ARIA-OS v2.0</text>
  <line x1="640.8000000000001" y1="1049.0" x2="946.2" y2="1049.0" stroke="#aaa" stroke-width="0.5"/>
  <text x="644.8000000000001" y="1058.0" font-size="7" fill="#666" font-family="Arial, Helvetica, sans-serif">DWG NO.</text>
  <text x="644.8000000000001" y="1089.0" font-size="10" fill="#000" font-weight="bold" font-family="Arial, Helvetica, sans-serif">ARIA-20260401-001</text>
  <line x1="946.2" y1="1005" x2="946.2" y2="1093" stroke="black" stroke-width="0.8"/>
  <text x="950.2" y="1014.0" font-size="7" fill="#666" font-family="Arial, Helvetica, sans-serif">TOLERANCE</text>
  <text x="950.2" y="1045.0" font-size="10" fill="#000" font-weight="bold" font-family="Arial, Helvetica, sans-serif">±0.1 GENERAL / ±0.05 MACH.</text>
  <line x1="946.2" y1="1049.0" x2="1251.6000000000001" y2="1049.0" stroke="#aaa" stroke-width="0.5"/>
  <text x="950.2" y="1058.0" font-size="7" fill="#666" font-family="Arial, Helvetica, sans-serif">UNITS</text>
  <text x="950.2" y="1089.0" font-size="10" fill="#000" font-weight="bold" font-family="Arial, Helvetica, sans-serif">MILLIMETRES</text>
  <line x1="1251.6000000000001" y1="1005" x2="1251.6000000000001" y2="1093" stroke="black" stroke-width="0.8"/>
  <text x="1255.6000000000001" y="1014.0" font-size="7" fill="#666" font-family="Arial, Helvetica, sans-serif">APPROVED</text>
  <text x="1255.6000000000001" y="1045.0" font-size="10" fill="#000" font-weight="bold" font-family="Arial, Helvetica, sans-serif"></text>
  <line x1="1251.6000000000001" y1="1049.0" x2="1404.3000000000002" y2="1049.0" stroke="#aaa" stroke-width="0.5"/>
  <text x="1255.6000000000001" y="1058.0" font-size="7" fill="#666" font-family="Arial, Helvetica, sans-serif"></text>
  <text x="1255.6000000000001" y="1089.0" font-size="10" fill="#000" font-weight="bold" font-family="Arial, Helvetica, sans-serif"></text>
  <line x1="1404.3000000000002" y1="1005" x2="1404.3000000000002" y2="1093" stroke="black" stroke-width="0.8"/>
  <text x="1408.3000000000002" y="1014.0" font-size="7" fill="#666" font-family="Arial, Helvetica, sans-serif">REV</text>
  <text x="1408.3000000000002" y="1045.0" font-size="10" fill="#000" font-weight="bold" font-family="Arial, Helvetica, sans-serif">—</text>
  <line x1="1404.3000000000002" y1="1049.0" x2="1557.0000000000002" y2="1049.0" stroke="#aaa" stroke-width="0.5"/>
  <text x="1408.3000000000002" y="1058.0" font-size="7" fill="#666" font-family="Arial, Helvetica, sans-serif"></text>
  <text x="1408.3000000000002" y="1089.0" font-size="10" fill="#000" font-weight="bold" font-family="Arial, Helvetica, sans-serif"></text>
</svg>