<svg xmlns="http://www.w3.org/2000/svg" width="1587" height="1123" viewBox="0 0 1587 1123" font-family="Arial, Helvetica, sans-serif" font-size="12">
  <rect width="1587" height="1123" fill="white"/>
  <rect x="20" y="20" width="1547" height="1083" fill="none" stroke="black" stroke-width="2"/>
  <rect x="30" y="30" width="1527" height="1063" fill="none" stroke="black" stroke-width="1"/>
  <rect x="20" y="20.0" width="16" height="270.75" fill="none" stroke="#888" stroke-width="0.4"/>
  <text x="28.0" y="159.375" text-anchor="middle" font-size="9" fill="#444" font-family="Arial, Helvetica, sans-serif">A</text>
  <rect x="1551" y="20.0" width="16" height="270.75" fill="none" stroke="#888" stroke-width="0.4"/>
  <text x="1559.0" y="159.375" text-anchor="middle" font-size="9" fill="#444" font-family="Arial, Helvetica, sans-serif">A</text>
  <rect x="20" y="290.75" width="16" height="270.75" fill="none" stroke="#888" stroke-width="0.4"/>
  <text x="28.0" y="430.125" text-anchor="middle" font-size="9" fill="#444" font-family="Arial, Helvetica, sans-serif">B</text>
  <rect x="1551" y="290.75" width="16" height="270.75" fill="none" stroke="#888" stroke-width="0.4"/>
  <text x="1559.0" y="430.125" text-anchor="middle" font-size="9" fill="#444" font-family="Arial, Helvetica, sans-serif">B</text>
  <rect x="20" y="561.5" width="16" height="270.75" fill="none" stroke="#888" stroke-width="0.4"/>
  <text x="28.0" y="700.875" text-anchor="middle" font-size="9" fill="#444" font-family="Arial, Helvetica, sans-serif">C</text>
  <rect x="1551" y="561.5" width="16" height="270.75" fill="none" stroke="#888" stroke-width="0.4"/>
  <text x="1559.0" y="700.875" text-anchor="middle" font-size="9" fill="#444" font-family="Arial, Helvetica, sans-serif">C</text>
  <rect x="20" y="832.25" width="16" height="270.75" fill="none" stroke="#888" stroke-width="0.4"/>
  <text x="28.0" y="971.625" text-anchor="middle" font-size="9" fill="#444" font-family="Arial, Helvetica, sans-serif">D</text>
  <rect x="1551" y="832.25" width="16" height="270.75" fill="none" stroke="#888" stroke-width="0.4"/>
  <text x="1559.0" y="971.625" text-anchor="middle" font-size="9" fill="#444" font-family="Arial, Helvetica, sans-serif">D</text>
  <rect x="20.0" y="20" width="193.375" height="16" fill="none" stroke="#888" stroke-width="0.4"/>
  <text x="116.6875" y="32" text-anchor="middle" font-size="9" fill="#444" font-family="Arial, Helvetica, sans-serif">1</text>
  <rect x="20.0" y="1087" width="193.375" height="16" fill="none" stroke="#888" stroke-width="0.4"/>
  <text x="116.6875" y="1099" text-anchor="middle" font-size="9" fill="#444" font-family="Arial, Helvetica, sans-serif">1</text>
  <rect x="213.375" y="20" width="193.375" height="16" fill="none" stroke="#888" stroke-width="0.4"/>
  <text x="310.0625" y="32" text-anchor="middle" font-size="9" fill="#444" font-family="Arial, Helvetica, sans-serif">2</text>
  <rect x="213.375" y="1087" width="193.375" height="16" fill="none" stroke="#888" stroke-width="0.4"/>
  <text x="310.0625" y="1099" text-anchor="middle" font-size="9" fill="#444" font-family="Arial, Helvetica, sans-serif">2</text>
  <rect x="406.75" y="20" width="193.375" height="16" fill="none" stroke="#888" stroke-width="0.4"/>
  <text x="503.4375" y="32" text-anchor="middle" font-size="9" fill="#444" font-family="Arial, Helvetica, sans-serif">3</text>
  <rect x="406.75" y="1087" width="193.375" height="16" fill="none" stroke="#888" stroke-width="0.4"/>
  <text x="503.4375" y="1099" text-anchor="middle" font-size="9" fill="#444" font-family="Arial, Helvetica, sans-serif">3</text>
  <rect x="600.125" y="20" width="193.375" height="16" fill="none" stroke="#888" stroke-width="0.4"/>
  <text x="696.8125" y="32" text-anchor="middle" font-size="9" fill="#444" font-family="Arial, Helvetica, sans-serif">4</text>
  <rect x="600.125" y="1087" width="193.375" height="16" fill="none" stroke="#888" stroke-width="0.4"/>
  <text x="696.8125" y="1099" text-anchor="middle" font-size="9" fill="#444" font-family="Arial, Helvetica, sans-serif">4</text>
  <rect x="793.5" y="20" width="193.375" height="16" fill="none" stroke="#888" stroke-width="0.4"/>
  <text x="890.1875" y="32" text-anchor="middle" font-size="9" fill="#444" font-family="Arial, Helvetica, sans-serif">5</text>
  <rect x="793.5" y="1087" width="193.375" height="16" fill="none" stroke="#888" stroke-width="0.4"/>
  <text x="890.1875" y="1099" text-anchor="middle" font-size="9" fill="#444" font-family="Arial, Helvetica, sans-serif">5</text>
  <rect x="986.875" y="20" width="193.375" height="16" fill="none" stroke="#888" stroke-width="0.4"/>
  <text x="1083.5625" y="32" text-anchor="middle" font-size="9" fill="#444" font-family="Arial, Helvetica, sans-serif">6</text>
  <rect x="986.875" y="1087" width="193.375" height="16" fill="none" stroke="#888" stroke-width="0.4"/>
  <text x="1083.5625" y="1099" text-anchor="middle" font-size="9" fill="#444" font-family="Arial, Helvetica, sans-serif">6</text>
  <rect x="1180.25" y="20" width="193.375" height="16" fill="none" stroke="#888" stroke-width="0.4"/>
  <text x="1276.9375" y="32" text-anchor="middle" font-size="9" fill="#444" font-family="Arial, Helvetica, sans-serif">7</text>
  <rect x="1180.25" y="1087" width="193.375" height="16" fill="none" stroke="#888" stroke-width="0.4"/>
  <text x="1276.9375" y="1099" text-anchor="middle" font-size="9" fill="#444" font-family="Arial, Helvetica, sans-serif">7</text>
  <rect x="1373.625" y="20" width="193.375" height="16" fill="none" stroke="#888" stroke-width="0.4"/>
  <text x="1470.3125" y="32" text-anchor="middle" font-size="9" fill="#444" font-family="Arial, Helvetica, sans-serif">8</text>
  <rect x="1373.625" y="1087" width="193.375" height="16" fill="none" stroke="#888" stroke-width="0.4"/>
  <text x="1470.3125" y="1099" text-anchor="middle" font-size="9" fill="#444" font-family="Arial, Helvetica, sans-serif">8</text>
  <rect x="1475" y="32" width="80" height="20" fill="white" stroke="black" stroke-width="0.8"/>
  <text x="1515.0" y="45" text-anchor="middle" font-size="9" fill="#000" font-family="Arial, Helvetica, sans-serif">REV: &#x2014;</text>
  <line x1="30" y1="506" x2="1557" y2="506" stroke="#888" stroke-width="0.6"/>
  <line x1="793" y1="30" x2="793" y2="983" stroke="#888" stroke-width="0.6"/>
  <rect x="42" y="42" width="739" height="452" fill="#fafafa" stroke="#ccc" stroke-width="0.5"/>
  <rect x="805" y="42" width="739" height="452" fill="#fafafa" stroke="#ccc" stroke-width="0.5"/>
  <rect x="42" y="518" width="739" height="452" fill="#fafafa" stroke="#ccc" stroke-width="0.5"/>
  <rect x="805" y="518" width="739" height="452" fill="#fafafa" stroke="#ccc" stroke-width="0.5"/>
  <text x="46" y="54" font-size="9" font-weight="bold" fill="#444" font-family="Arial, Helvetica, sans-serif">FRONT VIEW</text>
  <text x="809" y="54" font-size="9" font-weight="bold" fill="#444" font-family="Arial, Helvetica, sans-serif">TOP VIEW</text>
  <text x="46" y="530" font-size="9" font-weight="bold" fill="#444" font-family="Arial, Helvetica, sans-serif">RIGHT SIDE VIEW</text>
  <text x="809" y="530" font-size="9" font-weight="bold" fill="#444" font-family="Arial, Helvetica, sans-serif">SECTION A-A</text>
  <clipPath id="clip_front"><rect x="42" y="42" width="739" height="452"/></clipPath>
  <g clip-path="url(#clip_front)" transform="translate(42,68)">
    <g transform="scale(3.0, -3.0)   translate(68.91666666666667,-36.666666666666664)" stroke-width="0.3333333333333333"  fill="none">
       <!-- hidden lines -->
       <g  stroke="rgb(160,160,160)" fill="none" stroke-dasharray="0.3333333333333333,0.3333333333333333" >
			<path d="M0.75,-30.0 L-0.75,-30.0 " />
			<path d="M-0.75,-30.0 L-0.75,-20.0 " />
			<path d="M0.75,-30.0 L0.75,30.0 " />
			<path d="M-0.75,-20.0 L-2.25,-20.0 " />
			<path d="M-2.25,-20.0 L-2.25,-18.5 " />
			<path d="M-0.75,-18.5 L-2.25,-18.5 " />
			<path d="M-0.75,-18.5 L-0.75,-14.5 " />
			<path d="M-0.75,-14.5 L-2.25,-14.5 " />
			<path d="M-2.25,-14.5 L-2.25,-13.0 " />
			<path d="M-0.75,-13.0 L-2.25,-13.0 " />
			<path d="M-0.75,-13.0 L-0.75,-9.0 " />
			<path d="M-0.75,-9.0 L-2.25,-9.0 " />
			<path d="M-2.25,-9.0 L-2.25,-7.5 " />
			<path d="M-0.75,-7.5 L-2.25,-7.5 " />
			<path d="M-0.75,-7.5 L-0.75,-3.5 " />
			<path d="M-0.75,-3.5 L-2.25,-3.5 " />
			<path d="M-2.25,-3.5 L-2.25,-2.0 " />
			<path d="M-0.75,-2.0 L-2.25,-2.0 " />
			<path d="M-0.75,-2.0 L-0.75,2.0 " />
			<path d="M-0.75,2.0 L-2.25,2.0 " />
			<path d="M-2.25,2.0 L-2.25,3.5 " />
			<path d="M-0.75,3.5 L-2.25,3.5 " />
			<path d="M-0.75,3.5 L-0.75,7.5 " />
			<path d="M-0.75,7.5 L-2.25,7.5 " />
			<path d="M-2.25,7.5 L-2.25,9.0 " />
			<path d="M-0.75,9.0 L-2.25,9.0 " />
			<path d="M-0.75,9.0 L-0.75,13.0 " />
			<path d="M-0.75,13.0 L-2.25,13.0 " />
			<path d="M-2.25,13.0 L-2.25,14.5 " />
			<path d="M-0.75,14.5 L-2.25,14.5 " />
			<path d="M-0.75,14.5 L-0.75,18.5 " />
			<path d="M-0.75,18.5 L-2.25,18.5 " />
			<path d="M-2.25,18.5 L-2.25,20.0 " />
			<path d="M-0.75,20.0 L-2.25,20.0 " />
			<path d="M-0.75,20.0 L-0.75,30.0 " />
			<path d="M0.75,30.0 L-0.75,30.0 " />

       </g>

       <!-- solid lines -->
       <g  stroke="rgb(0,0,0)" fill="none">
			<path d="M0.75,-30.0 L-0.75,-30.0 " />
			<path d="M0.75,-30.0 L0.75,30.0 " />
			<path d="M-0.75,-30.0 L-0.75,-20.0 " />
			<path d="M-0.75,-20.0 L-2.25,-20.0 " />
			<path d="M-2.25,-20.0 L-2.25,-18.5 " />
			<path d="M-0.75,-18.5 L-2.25,-18.5 " />
			<path d="M-0.75,-18.5 L-0.75,-14.5 " />
			<path d="M-0.75,-14.5 L-2.25,-14.5 " />
			<path d="M-2.25,-14.5 L-2.25,-13.0 " />
			<path d="M-0.75,-13.0 L-2.25,-13.0 " />
			<path d="M-0.75,-13.0 L-0.75,-9.0 " />
			<path d="M-0.75,-9.0 L-2.25,-9.0 " />
			<path d="M-2.25,-9.0 L-2.25,-7.5 " />
			<path d="M-0.75,-7.5 L-2.25,-7.5 " />
			<path d="M-0.75,-7.5 L-0.75,-3.5 " />
			<path d="M-0.75,-3.5 L-2.25,-3.5 " />
			<path d="M-2.25,-3.5 L-2.25,-2.0 " />
			<path d="M-0.75,-2.0 L-2.25,-2.0 " />
			<path d="M-0.75,-2.0 L-0.75,2.0 " />
			<path d="M-0.75,2.0 L-2.25,2.0 " />
			<path d="M-2.25,2.0 L-2.25,3.5 " />
			<path d="M-0.75,3.5 L-2.25,3.5 " />
			<path d="M-0.75,3.5 L-0.75,7.5 " />
			<path d="M-0.75,7.5 L-2.25,7.5 " />
			<path d="M-2.25,7.5 L-2.25,9.0 " />
			<path d="M-0.75,9.0 L-2.25,9.0 " />
			<path d="M-0.75,9.0 L-0.75,13.0 " />
			<path d="M-0.75,13.0 L-2.25,13.0 " />
			<path d="M-2.25,13.0 L-2.25,14.5 " />
			<path d="M-0.75,14.5 L-2.25,14.5 " />
			<path d="M-0.75,14.5 L-0.75,18.5 " />
			<path d="M-0.75,18.5 L-2.25,18.5 " />
			<path d="M-2.25,18.5 L-2.25,20.0 " />
			<path d="M-0.75,20.0 L-2.25,20.0 " />
			<path d="M-0.75,20.0 L-0.75,30.0 " />
			<path d="M0.75,30.0 L-0.75,30.0 " />

       </g>
    </g>
  </g>
  <clipPath id="clip_top"><rect x="805" y="42" width="739" height="452"/></clipPath>
  <g clip-path="url(#clip_top)" transform="translate(805,68)">
    <g transform="scale(4.5, -4.5)   translate(74.44444444444444,-24.444444444444443)" stroke-width="0.2222222222222222"  fill="none">
       <!-- hidden lines -->
       <g  stroke="rgb(160,160,160)" fill="none" stroke-dasharray="0.2222222222222222,0.2222222222222222" >
			<path d="M-30.0,-20.0 L-30.0,20.0 " />
			<path d="M-30.0,-20.0 L30.0,-20.0 " />
			<path d="M-20.0,-20.0 L-20.0,20.0 " />
			<path d="M-30.0,20.0 L30.0,20.0 " />
			<path d="M30.0,-20.0 L30.0,20.0 " />
			<path d="M-18.5,-20.0 L-18.5,20.0 " />
			<path d="M-14.5,-20.0 L-14.5,20.0 " />
			<path d="M-13.0,-20.0 L-13.0,20.0 " />
			<path d="M-9.0,-20.0 L-9.0,20.0 " />
			<path d="M-7.5,-20.0 L-7.5,20.0 " />
			<path d="M-3.5,-20.0 L-3.5,20.0 " />
			<path d="M-2.0,-20.0 L-2.0,20.0 " />
			<path d="M2.0,-20.0 L2.0,20.0 " />
			<path d="M3.5,-20.0 L3.5,20.0 " />
			<path d="M7.5,-20.0 L7.5,20.0 " />
			<path d="M9.0,-20.0 L9.0,20.0 " />
			<path d="M13.0,-20.0 L13.0,20.0 " />
			<path d="M14.5,-20.0 L14.5,20.0 " />
			<path d="M18.5,-20.0 L18.5,20.0 " />
			<path d="M20.0,-20.0 L20.0,20.0 " />

       </g>

       <!-- solid lines -->
       <g  stroke="rgb(0,0,0)" fill="none">
			<path d="M-30.0,-20.0 L-30.0,20.0 " />
			<path d="M-30.0,-20.0 L-20.0,-20.0 " />
			<path d="M-20.0,-20.0 L-18.5,-20.0 " />
			<path d="M-18.5,-20.0 L-14.5,-20.0 " />
			<path d="M-14.5,-20.0 L-13.0,-20.0 " />
			<path d="M-13.0,-20.0 L-9.0,-20.0 " />
			<path d="M-9.0,-20.0 L-7.5,-20.0 " />
			<path d="M-7.5,-20.0 L-3.5,-20.0 " />
			<path d="M-3.5,-20.0 L-2.0,-20.0 " />
			<path d="M-2.0,-20.0 L2.0,-20.0 " />
			<path d="M2.0,-20.0 L3.5,-20.0 " />
			<path d="M3.5,-20.0 L7.5,-20.0 " />
			<path d="M7.5,-20.0 L9.0,-20.0 " />
			<path d="M9.0,-20.0 L13.0,-20.0 " />
			<path d="M13.0,-20.0 L14.5,-20.0 " />
			<path d="M14.5,-20.0 L18.5,-20.0 " />
			<path d="M18.5,-20.0 L20.0,-20.0 " />
			<path d="M20.0,-20.0 L30.0,-20.0 " />
			<path d="M-30.0,20.0 L-20.0,20.0 " />
			<path d="M-20.0,20.0 L-18.5,20.0 " />
			<path d="M-18.5,20.0 L-14.5,20.0 " />
			<path d="M-14.5,20.0 L-13.0,20.0 " />
			<path d="M-13.0,20.0 L-9.0,20.0 " />
			<path d="M-9.0,20.0 L-7.5,20.0 " />
			<path d="M-7.5,20.0 L-3.5,20.0 " />
			<path d="M-3.5,20.0 L-2.0,20.0 " />
			<path d="M-2.0,20.0 L2.0,20.0 " />
			<path d="M2.0,20.0 L3.5,20.0 " />
			<path d="M3.5,20.0 L7.5,20.0 " />
			<path d="M7.5,20.0 L9.0,20.0 " />
			<path d="M9.0,20.0 L13.0,20.0 " />
			<path d="M13.0,20.0 L14.5,20.0 " />
			<path d="M14.5,20.0 L18.5,20.0 " />
			<path d="M18.5,20.0 L20.0,20.0 " />
			<path d="M20.0,20.0 L30.0,20.0 " />
			<path d="M-20.0,-20.0 L-20.0,20.0 " />
			<path d="M-18.5,-20.0 L-18.5,20.0 " />
			<path d="M-14.5,-20.0 L-14.5,20.0 " />
			<path d="M-13.0,-20.0 L-13.0,20.0 " />
			<path d="M-9.0,-20.0 L-9.0,20.0 " />
			<path d="M-7.5,-20.0 L-7.5,20.0 " />
			<path d="M-3.5,-20.0 L-3.5,20.0 " />
			<path d="M-2.0,-20.0 L-2.0,20.0 " />
			<path d="M2.0,-20.0 L2.0,20.0 " />
			<path d="M3.5,-20.0 L3.5,20.0 " />
			<path d="M7.5,-20.0 L7.5,20.0 " />
			<path d="M9.0,-20.0 L9.0,20.0 " />
			<path d="M13.0,-20.0 L13.0,20.0 " />
			<path d="M14.5,-20.0 L14.5,20.0 " />
			<path d="M30.0,-20.0 L30.0,20.0 " />
			<path d="M18.5,-20.0 L18.5,20.0 " />
			<path d="M20.0,-20.0 L20.0,20.0 " />

       </g>
    </g>
  </g>
  <clipPath id="clip_right"><rect x="42" y="518" width="739" height="452"/></clipPath>
  <g clip-path="url(#clip_right)" transform="translate(42,544)">
    <g transform="scale(4.5, -4.5)   translate(45.19444444444444,-24.444444444444443)" stroke-width="0.2222222222222222"  fill="none">
       <!-- hidden lines -->
       <g  stroke="rgb(160,160,160)" fill="none" stroke-dasharray="0.2222222222222222,0.2222222222222222" >
			<path d="M-0.75,20.0 L0.75,20.0 " />
			<path d="M-0.75,20.0 L-0.75,-20.0 " />
			<path d="M-0.75,-20.0 L0.75,-20.0 " />
			<path d="M0.75,20.0 L0.75,-20.0 " />
			<path d="M0.75,20.0 L2.25,20.0 " />
			<path d="M0.75,20.0 L2.25,20.0 " />
			<path d="M0.75,20.0 L2.25,20.0 " />
			<path d="M0.75,20.0 L2.25,20.0 " />
			<path d="M0.75,20.0 L2.25,20.0 " />
			<path d="M0.75,20.0 L2.25,20.0 " />
			<path d="M0.75,20.0 L2.25,20.0 " />
			<path d="M0.75,20.0 L2.25,20.0 " />
			<path d="M0.75,20.0 L2.25,20.0 " />
			<path d="M0.75,20.0 L2.25,20.0 " />
			<path d="M0.75,20.0 L2.25,20.0 " />
			<path d="M0.75,20.0 L2.25,20.0 " />
			<path d="M0.75,20.0 L2.25,20.0 " />
			<path d="M0.75,20.0 L2.25,20.0 " />
			<path d="M0.75,20.0 L2.25,20.0 " />
			<path d="M0.75,20.0 L0.75,-20.0 " />
			<path d="M0.75,-20.0 L2.25,-20.0 " />
			<path d="M0.75,-20.0 L2.25,-20.0 " />
			<path d="M0.75,-20.0 L2.25,-20.0 " />
			<path d="M0.75,-20.0 L2.25,-20.0 " />
			<path d="M0.75,-20.0 L2.25,-20.0 " />
			<path d="M0.75,-20.0 L2.25,-20.0 " />
			<path d="M0.75,-20.0 L2.25,-20.0 " />
			<path d="M0.75,-20.0 L2.25,-20.0 " />
			<path d="M0.75,-20.0 L2.25,-20.0 " />
			<path d="M0.75,-20.0 L2.25,-20.0 " />
			<path d="M0.75,-20.0 L2.25,-20.0 " />
			<path d="M0.75,-20.0 L2.25,-20.0 " />
			<path d="M0.75,-20.0 L2.25,-20.0 " />
			<path d="M0.75,-20.0 L2.25,-20.0 " />
			<path d="M0.75,-20.0 L2.25,-20.0 " />
			<path d="M2.25,20.0 L2.25,-20.0 " />
			<path d="M2.25,20.0 L2.25,-20.0 " />
			<path d="M0.75,20.0 L0.75,-20.0 " />
			<path d="M0.75,20.0 L0.75,-20.0 " />
			<path d="M2.25,20.0 L2.25,-20.0 " />
			<path d="M2.25,20.0 L2.25,-20.0 " />
			<path d="M0.75,20.0 L0.75,-20.0 " />
			<path d="M0.75,20.0 L0.75,-20.0 " />
			<path d="M2.25,20.0 L2.25,-20.0 " />
			<path d="M2.25,20.0 L2.25,-20.0 " />
			<path d="M0.75,20.0 L0.75,-20.0 " />
			<path d="M0.75,20.0 L0.75,-20.0 " />
			<path d="M2.25,20.0 L2.25,-20.0 " />
			<path d="M2.25,20.0 L2.25,-20.0 " />
			<path d="M0.75,20.0 L0.75,-20.0 " />
			<path d="M0.75,20.0 L0.75,-20.0 " />
			<path d="M2.25,20.0 L2.25,-20.0 " />
			<path d="M2.25,20.0 L2.25,-20.0 " />
			<path d="M0.75,20.0 L0.75,-20.0 " />
			<path d="M0.75,20.0 L0.75,-20.0 " />
			<path d="M2.25,20.0 L2.25,-20.0 " />
			<path d="M2.25,20.0 L2.25,-20.0 " />
			<path d="M0.75,20.0 L0.75,-20.0 " />
			<path d="M0.75,20.0 L0.75,-20.0 " />
			<path d="M2.25,20.0 L2.25,-20.0 " />
			<path d="M2.25,20.0 L2.25,-20.0 " />
			<path d="M0.75,20.0 L0.75,-20.0 " />
			<path d="M0.75,20.0 L0.75,-20.0 " />
			<path d="M0.75,20.0 L0.75,-20.0 " />
			<path d="M2.25,20.0 L2.25,-20.0 " />

       </g>

       <!-- solid lines -->
       <g  stroke="rgb(0,0,0)" fill="none">
			<path d="M0.75,20.0 L2.25,20.0 " />
			<path d="M-0.75,20.0 L0.75,20.0 " />
			<path d="M0.75,-20.0 L2.25,-20.0 " />
			<path d="M-0.75,-20.0 L0.75,-20.0 " />
			<path d="M-0.75,20.0 L-0.75,-20.0 " />
			<path d="M0.75,20.0 L0.75,-20.0 " />
			<path d="M2.25,20.0 L2.25,-20.0 " />

       </g>
    </g>
  </g>
  <clipPath id="clip_section"><rect x="805" y="518" width="739" height="452"/></clipPath>
  <g clip-path="url(#clip_section)" transform="translate(805,544)">
    <g transform="scale(3.0, -3.0)   translate(68.91666666666667,-36.666666666666664)" stroke-width="0.3333333333333333"  fill="none">
       <!-- hidden lines -->
       <g  stroke="rgb(160,160,160)" fill="none" stroke-dasharray="0.3333333333333333,0.3333333333333333" >
			<path d="M0.75,-30.0 L-0.75,-30.0 " />
			<path d="M-0.75,-30.0 L-0.75,-20.0 " />
			<path d="M0.75,-30.0 L0.75,30.0 " />
			<path d="M-0.75,-20.0 L-2.25,-20.0 " />
			<path d="M-2.25,-20.0 L-2.25,-18.5 " />
			<path d="M-0.75,-18.5 L-2.25,-18.5 " />
			<path d="M-0.75,-18.5 L-0.75,-14.5 " />
			<path d="M-0.75,-14.5 L-2.25,-14.5 " />
			<path d="M-2.25,-14.5 L-2.25,-13.0 " />
			<path d="M-0.75,-13.0 L-2.25,-13.0 " />
			<path d="M-0.75,-13.0 L-0.75,-9.0 " />
			<path d="M-0.75,-9.0 L-2.25,-9.0 " />
			<path d="M-2.25,-9.0 L-2.25,-7.5 " />
			<path d="M-0.75,-7.5 L-2.25,-7.5 " />
			<path d="M-0.75,-7.5 L-0.75,-3.5 " />
			<path d="M-0.75,-3.5 L-2.25,-3.5 " />
			<path d="M-2.25,-3.5 L-2.25,-2.0 " />
			<path d="M-0.75,-2.0 L-2.25,-2.0 " />
			<path d="M-0.75,-2.0 L-0.75,2.0 " />
			<path d="M-0.75,2.0 L-2.25,2.0 " />
			<path d="M-2.25,2.0 L-2.25,3.5 " />
			<path d="M-0.75,3.5 L-2.25,3.5 " />
			<path d="M-0.75,3.5 L-0.75,7.5 " />
			<path d="M-0.75,7.5 L-2.25,7.5 " />
			<path d="M-2.25,7.5 L-2.25,9.0 " />
			<path d="M-0.75,9.0 L-2.25,9.0 " />
			<path d="M-0.75,9.0 L-0.75,13.0 " />
			<path d="M-0.75,13.0 L-2.25,13.0 " />
			<path d="M-2.25,13.0 L-2.25,14.5 " />
			<path d="M-0.75,14.5 L-2.25,14.5 " />
			<path d="M-0.75,14.5 L-0.75,18.5 " />
			<path d="M-0.75,18.5 L-2.25,18.5 " />
			<path d="M-2.25,18.5 L-2.25,20.0 " />
			<path d="M-0.75,20.0 L-2.25,20.0 " />
			<path d="M-0.75,20.0 L-0.75,30.0 " />
			<path d="M0.75,30.0 L-0.75,30.0 " />

       </g>

       <!-- solid lines -->
       <g  stroke="rgb(0,0,0)" fill="none">
			<path d="M-0.75,-30.0 L0.75,-30.0 " />
			<path d="M-0.75,-30.0 L-0.75,-20.0 " />
			<path d="M-2.25,-20.0 L-0.75,-20.0 " />
			<path d="M-2.25,-20.0 L-2.25,-18.5 " />
			<path d="M-2.25,-18.5 L-0.75,-18.5 " />
			<path d="M-0.75,-18.5 L-0.75,-14.5 " />
			<path d="M-2.25,-14.5 L-0.75,-14.5 " />
			<path d="M-2.25,-14.5 L-2.25,-13.0 " />
			<path d="M-2.25,-13.0 L-0.75,-13.0 " />
			<path d="M-0.75,-13.0 L-0.75,-9.0 " />
			<path d="M-2.25,-9.0 L-0.75,-9.0 " />
			<path d="M-2.25,-9.0 L-2.25,-7.5 " />
			<path d="M-2.25,-7.5 L-0.75,-7.5 " />
			<path d="M-0.75,-7.5 L-0.75,-3.5 " />
			<path d="M-2.25,-3.5 L-0.75,-3.5 " />
			<path d="M-2.25,-3.5 L-2.25,-2.0 " />
			<path d="M-2.25,-2.0 L-0.75,-2.0 " />
			<path d="M-0.75,-2.0 L-0.75,2.0 " />
			<path d="M-2.25,2.0 L-0.75,2.0 " />
			<path d="M-2.25,2.0 L-2.25,3.5 " />
			<path d="M-2.25,3.5 L-0.75,3.5 " />
			<path d="M-0.75,3.5 L-0.75,7.5 " />
			<path d="M-2.25,7.5 L-0.75,7.5 " />
			<path d="M-2.25,7.5 L-2.25,9.0 " />
			<path d="M-2.25,9.0 L-0.75,9.0 " />
			<path d="M-0.75,9.0 L-0.75,13.0 " />
			<path d="M-2.25,13.0 L-0.75,13.0 " />
			<path d="M-2.25,13.0 L-2.25,14.5 " />
			<path d="M-2.25,14.5 L-0.75,14.5 " />
			<path d="M-0.75,14.5 L-0.75,18.5 " />
			<path d="M-2.25,18.5 L-0.75,18.5 " />
			<path d="M-2.25,18.5 L-2.25,20.0 " />
			<path d="M-2.25,20.0 L-0.75,20.0 " />
			<path d="M-0.75,20.0 L-0.75,30.0 " />
			<path d="M-0.75,30.0 L0.75,30.0 " />
			<path d="M0.75,-30.0 L0.75,30.0 " />

       </g>
    </g>
  </g>
  <text x="1174.5" y="964" text-anchor="middle" font-size="9" font-weight="bold" fill="#333" font-family="Arial, Helvetica, sans-serif">SECTION A-A  &#x2014;  CUT AT Y MIDPLANE</text>
  <rect x="1282" y="332" width="258" height="158" fill="#f4f4f4" stroke="#aaa" stroke-width="0.5"/>
  <text x="1285" y="341" font-size="7" fill="#777" font-family="Arial, Helvetica, sans-serif">ISO</text>
  <clipPath id="clip_iso"><rect x="1282" y="332" width="258" height="158"/></clipPath>
  <g clip-path="url(#clip_iso)" transform="translate(1282,358)">
    <g transform="scale(3.1159586833990955, -3.1159586833990955)   translate(85.92923696663814,-35.302136894833495)" stroke-width="0.320928517225759"  fill="none">
       <!-- hidden lines -->
       <g  stroke="rgb(160,160,160)" fill="none" stroke-dasharray="0.320928517225759,0.320928517225759" >
			<path d="M-20.682873349706515,-28.88356655031831 L-20.682873349706515,3.776296686790733 " />
			<path d="M-20.682873349706515,3.776296686790732 L-21.743533521486338,4.388669122486527 " />
			<path d="M-15.733125881400682,7.858779591429364 L-14.672465709620862,8.471152027125157 " />
			<path d="M-14.672465709620862,-24.188711209983882 L-14.672465709620862,8.47115202712516 " />
			<path d="M-20.682873349706515,3.776296686790732 L21.743533521486345,28.271194114622524 " />
			<path d="M-14.672465709620862,8.471152027125157 L-15.733125881400683,9.083524462820952 " />
			<path d="M-11.84403858487467,10.10414518898061 L-10.78337841309485,10.716517624676406 " />
			<path d="M-10.783378413094852,10.716517624676404 L-11.844038584874673,11.3288900603722 " />
			<path d="M-7.954951288348658,12.349510786531859 L-6.894291116568837,12.961883222227652 " />
			<path d="M-6.894291116568839,12.96188322222765 L-7.95495128834866,13.574255657923445 " />
			<path d="M-4.065863991822646,14.594876384083104 L-3.0052038200428264,15.2072488197789 " />
			<path d="M-3.0052038200428273,15.207248819778897 L-4.065863991822649,15.819621255474692 " />
			<path d="M-0.17677669529663476,16.840241981634353 L0.883883476483188,17.45261441733015 " />
			<path d="M0.8838834764831844,17.452614417330146 L-0.17677669529663698,18.064986853025943 " />
			<path d="M3.7123106012293725,19.0856075791856 L4.772970773009199,19.697980014881395 " />
			<path d="M4.772970773009196,19.69798001488139 L3.7123106012293747,20.310352450577184 " />
			<path d="M7.60139789775539,21.330973176736848 L8.66205806953521,21.94334561243264 " />
			<path d="M8.662058069535208,21.94334561243264 L7.601397897755387,22.555718048128433 " />
			<path d="M11.490485194281401,23.576338774288093 L12.551145366061224,24.18871120998389 " />
			<path d="M12.551145366061219,24.188711209983886 L11.490485194281398,24.801083645679682 " />
			<path d="M-10.783378413094852,-21.943345612432637 L-10.783378413094852,10.716517624676406 " />
			<path d="M-6.894291116568839,-19.69798001488139 L-6.894291116568839,12.961883222227652 " />
			<path d="M-3.0052038200428273,-17.452614417330143 L-3.0052038200428273,15.2072488197789 " />
			<path d="M0.8838834764831844,-15.207248819778899 L0.8838834764831844,17.452614417330146 " />
			<path d="M4.772970773009196,-12.961883222227652 L4.772970773009196,19.69798001488139 " />
			<path d="M8.662058069535208,-10.716517624676404 L8.662058069535208,21.943345612432637 " />
			<path d="M12.551145366061219,-8.471152027125159 L12.551145366061219,24.188711209983886 " />

       </g>

       <!-- solid lines -->
       <g  stroke="rgb(0,0,0)" fill="none">
			<path d="M-20.682873349706515,-28.88356655031831 L-21.743533521486338,-28.271194114622517 " />
			<path d="M-21.743533521486338,-28.271194114622514 L-21.743533521486338,4.3886691224865295 " />
			<path d="M-20.682873349706515,-28.88356655031831 L21.743533521486345,-4.388669122486519 " />
			<path d="M-21.743533521486338,-28.271194114622514 L-14.672465709620862,-24.188711209983882 " />
			<path d="M-14.672465709620862,-24.188711209983882 L-15.733125881400683,-23.57633877428809 " />
			<path d="M-15.733125881400683,-23.57633877428809 L-14.672465709620862,-22.963966338592293 " />
			<path d="M-13.611805537841041,-23.57633877428809 L-14.672465709620862,-22.963966338592293 " />
			<path d="M-13.61180553784104,-23.57633877428809 L-10.78337841309485,-21.943345612432633 " />
			<path d="M-10.783378413094852,-21.943345612432637 L-11.844038584874673,-21.33097317673684 " />
			<path d="M-11.844038584874673,-21.330973176736844 L-10.783378413094852,-20.71860074104105 " />
			<path d="M-9.72271824131503,-21.330973176736844 L-10.783378413094852,-20.71860074104105 " />
			<path d="M-9.722718241315027,-21.33097317673684 L-6.894291116568837,-19.697980014881388 " />
			<path d="M-6.894291116568839,-19.69798001488139 L-7.95495128834866,-19.0856075791856 " />
			<path d="M-7.954951288348661,-19.0856075791856 L-6.894291116568839,-18.473235143489802 " />
			<path d="M-5.833630944789017,-19.085607579185595 L-6.894291116568839,-18.473235143489802 " />
			<path d="M-5.833630944789016,-19.08560757918559 L-3.0052038200428264,-17.45261441733014 " />
			<path d="M-3.0052038200428273,-17.452614417330143 L-4.065863991822649,-16.84024198163435 " />
			<path d="M-4.065863991822648,-16.84024198163435 L-3.005203820042827,-16.227869545938553 " />
			<path d="M-1.9445436482630059,-16.84024198163435 L-3.0052038200428273,-16.227869545938553 " />
			<path d="M-1.9445436482630036,-16.840241981634346 L0.883883476483188,-15.207248819778892 " />
			<path d="M0.8838834764831844,-15.207248819778899 L-0.17677669529663698,-14.594876384083104 " />
			<path d="M-0.17677669529663698,-14.594876384083104 L0.8838834764831844,-13.98250394838731 " />
			<path d="M1.9445436482630056,-14.594876384083104 L0.8838834764831842,-13.98250394838731 " />
			<path d="M1.9445436482630107,-14.594876384083097 L4.772970773009199,-12.961883222227645 " />
			<path d="M4.772970773009196,-12.961883222227652 L3.7123106012293747,-12.349510786531857 " />
			<path d="M3.7123106012293743,-12.349510786531857 L4.772970773009195,-11.737138350836062 " />
			<path d="M5.833630944789018,-12.349510786531857 L4.772970773009197,-11.737138350836062 " />
			<path d="M5.8336309447890216,-12.34951078653185 L8.66205806953521,-10.7165176246764 " />
			<path d="M8.662058069535208,-10.716517624676404 L7.601397897755387,-10.10414518898061 " />
			<path d="M7.601397897755387,-10.10414518898061 L8.662058069535208,-9.491772753284815 " />
			<path d="M9.722718241315029,-10.104145188980612 L8.662058069535208,-9.491772753284817 " />
			<path d="M9.722718241315036,-10.104145188980603 L12.551145366061224,-8.47115202712515 " />
			<path d="M12.551145366061219,-8.471152027125159 L11.490485194281398,-7.858779591429364 " />
			<path d="M11.490485194281398,-7.858779591429363 L12.551145366061219,-7.246407155733569 " />
			<path d="M13.61180553784104,-7.858779591429363 L12.551145366061219,-7.246407155733569 " />
			<path d="M13.611805537841047,-7.858779591429357 L20.682873349706522,-3.7762966867907224 " />
			<path d="M21.743533521486338,-4.388669122486527 L20.682873349706515,-3.776296686790732 " />
			<path d="M-21.743533521486338,4.388669122486527 L-15.733125881400682,7.858779591429364 " />
			<path d="M-15.733125881400683,9.083524462820952 L-14.672465709620862,9.695896898516747 " />
			<path d="M-13.611805537841041,9.083524462820952 L-14.672465709620862,9.695896898516747 " />
			<path d="M-13.61180553784104,9.083524462820954 L-11.84403858487467,10.10414518898061 " />
			<path d="M-11.844038584874673,11.3288900603722 L-10.783378413094852,11.941262496067994 " />
			<path d="M-9.72271824131503,11.328890060372197 L-10.783378413094852,11.941262496067992 " />
			<path d="M-9.722718241315027,11.328890060372201 L-7.954951288348658,12.349510786531859 " />
			<path d="M-7.954951288348661,13.574255657923445 L-6.894291116568839,14.18662809361924 " />
			<path d="M-5.833630944789017,13.574255657923445 L-6.894291116568839,14.18662809361924 " />
			<path d="M-5.833630944789016,13.574255657923448 L-4.065863991822646,14.594876384083104 " />
			<path d="M-4.065863991822648,15.819621255474692 L-3.005203820042827,16.431993691170486 " />
			<path d="M-1.9445436482630059,15.819621255474692 L-3.0052038200428273,16.431993691170486 " />
			<path d="M-1.9445436482630036,15.819621255474694 L-0.17677669529663476,16.840241981634353 " />
			<path d="M-0.17677669529663698,18.06498685302594 L0.8838834764831844,18.677359288721732 " />
			<path d="M1.9445436482630056,18.06498685302594 L0.8838834764831842,18.677359288721732 " />
			<path d="M1.9445436482630107,18.064986853025943 L3.7123106012293725,19.0856075791856 " />
			<path d="M3.7123106012293743,20.310352450577184 L4.772970773009195,20.92272488627298 " />
			<path d="M5.833630944789018,20.310352450577188 L4.772970773009197,20.92272488627298 " />
			<path d="M5.8336309447890216,20.31035245057719 L7.60139789775539,21.330973176736848 " />
			<path d="M7.601397897755387,22.555718048128433 L8.662058069535208,23.16809048382423 " />
			<path d="M9.722718241315029,22.555718048128433 L8.662058069535208,23.16809048382423 " />
			<path d="M9.722718241315036,22.555718048128437 L11.490485194281401,23.576338774288093 " />
			<path d="M11.490485194281398,24.80108364567968 L12.551145366061219,25.41345608137547 " />
			<path d="M13.61180553784104,24.80108364567968 L12.551145366061219,25.41345608137547 " />
			<path d="M13.611805537841047,24.801083645679682 L20.682873349706522,28.883566550318317 " />
			<path d="M21.743533521486338,28.271194114622514 L20.682873349706515,28.883566550318307 " />
			<path d="M21.743533521486338,-4.388669122486527 L21.743533521486338,28.271194114622517 " />
			<path d="M-15.733125881400683,-23.57633877428809 L-15.733125881400683,9.083524462820954 " />
			<path d="M-14.672465709620862,-22.963966338592297 L-14.672465709620862,9.695896898516747 " />
			<path d="M-13.611805537841041,-23.57633877428809 L-13.611805537841041,9.083524462820954 " />
			<path d="M-11.844038584874673,-21.330973176736844 L-11.844038584874673,11.3288900603722 " />
			<path d="M-10.783378413094852,-20.71860074104105 L-10.783378413094852,11.941262496067992 " />
			<path d="M-9.72271824131503,-21.330973176736844 L-9.72271824131503,11.3288900603722 " />
			<path d="M-7.954951288348661,-19.0856075791856 L-7.954951288348661,13.574255657923445 " />
			<path d="M-6.894291116568839,-18.473235143489802 L-6.894291116568839,14.186628093619241 " />
			<path d="M-5.833630944789017,-19.085607579185595 L-5.833630944789017,13.574255657923448 " />
			<path d="M-4.065863991822648,-16.84024198163435 L-4.065863991822648,15.819621255474694 " />
			<path d="M-3.0052038200428273,-16.227869545938557 L-3.0052038200428273,16.431993691170486 " />
			<path d="M-1.9445436482630059,-16.84024198163435 L-1.9445436482630059,15.819621255474694 " />
			<path d="M-0.17677669529663698,-14.594876384083104 L-0.17677669529663698,18.06498685302594 " />
			<path d="M0.8838834764831842,-13.98250394838731 L0.8838834764831842,18.677359288721732 " />
			<path d="M1.9445436482630056,-14.594876384083104 L1.9445436482630056,18.06498685302594 " />
			<path d="M3.7123106012293743,-12.349510786531857 L3.7123106012293743,20.310352450577184 " />
			<path d="M4.772970773009196,-11.737138350836062 L4.772970773009196,20.92272488627298 " />
			<path d="M5.833630944789018,-12.349510786531857 L5.833630944789018,20.310352450577184 " />
			<path d="M7.601397897755387,-10.10414518898061 L7.601397897755387,22.555718048128433 " />
			<path d="M8.662058069535208,-9.491772753284817 L8.662058069535208,23.168090483824226 " />
			<path d="M9.722718241315029,-10.104145188980612 L9.722718241315029,22.555718048128433 " />
			<path d="M13.61180553784104,-7.858779591429363 L13.61180553784104,24.80108364567968 " />
			<path d="M20.682873349706515,-3.776296686790732 L20.682873349706515,28.88356655031831 " />
			<path d="M11.490485194281398,-7.858779591429363 L11.490485194281398,24.80108364567968 " />
			<path d="M12.551145366061219,-7.246407155733569 L12.551145366061219,25.413456081375475 " />

       </g>
    </g>
  </g>
  <line x1="34" y1="268.0" x2="789" y2="268.0" stroke="#0000ff" stroke-width="0.4" stroke-dasharray="12,3,2,3" fill="none"/>
  <line x1="411.5" y1="34" x2="411.5" y2="502" stroke="#0000ff" stroke-width="0.4" stroke-dasharray="12,3,2,3" fill="none"/>
  <line x1="797" y1="268.0" x2="1552" y2="268.0" stroke="#0000ff" stroke-width="0.4" stroke-dasharray="12,3,2,3" fill="none"/>
  <line x1="1174.5" y1="34" x2="1174.5" y2="502" stroke="#0000ff" stroke-width="0.4" stroke-dasharray="12,3,2,3" fill="none"/>
  <line x1="34" y1="744.0" x2="789" y2="744.0" stroke="#0000ff" stroke-width="0.4" stroke-dasharray="12,3,2,3" fill="none"/>
  <line x1="411.5" y1="510" x2="411.5" y2="978" stroke="#0000ff" stroke-width="0.4" stroke-dasharray="12,3,2,3" fill="none"/>
  <line x1="0" y1="54" x2="18" y2="54" stroke="#1a1a8c" stroke-width="0.7"/>
  <line x1="0" y1="482" x2="18" y2="482" stroke="#1a1a8c" stroke-width="0.7"/>
  <line x1="4" y1="54" x2="4" y2="482" stroke="#1a1a8c" stroke-width="0.8"/>
  <polygon points="4,54 1,61 7,61" fill="#1a1a8c"/>
  <polygon points="4,482 1,475 7,475" fill="#1a1a8c"/>
  <text x="-4" y="268.0" text-anchor="middle" font-size="10" fill="#1a1a8c" font-family="Arial, Helvetica, sans-serif" transform="rotate(-90,-4,268.0)">1.5 mm</text>
  <polygon points="411.5,492 402.5,506.4 420.5,506.4" fill="#1a1a8c" stroke="#1a1a8c" stroke-width="0.5"/>
  <rect x="402.5" y="506.4" width="18" height="18" fill="white" stroke="#1a1a8c" stroke-width="1"/>
  <text x="411.5" y="520.4" text-anchor="middle" font-size="11" font-weight="bold" fill="#1a1a8c" font-family="Arial, Helvetica, sans-serif">A</text>
  <line x1="46" y1="268.0" x2="777" y2="268.0" stroke="#555" stroke-width="1" stroke-dasharray="8,4"/>
  <polygon points="46,268.0 56,264.0 56,272.0" fill="#555"/>
  <polygon points="777,268.0 767,264.0 767,272.0" fill="#555"/>
  <text x="60" y="262.0" font-size="10" font-weight="bold" fill="#555" font-family="Arial, Helvetica, sans-serif">A</text>
  <text x="757" y="262.0" font-size="10" font-weight="bold" fill="#555" font-family="Arial, Helvetica, sans-serif">A</text>
  <line x1="54" y1="508" x2="54" y2="526" stroke="#1a1a8c" stroke-width="0.7"/>
  <line x1="769" y1="508" x2="769" y2="526" stroke="#1a1a8c" stroke-width="0.7"/>
  <line x1="54" y1="522" x2="769" y2="522" stroke="#1a1a8c" stroke-width="0.8"/>
  <polygon points="54,522 61,519 61,525" fill="#1a1a8c"/>
  <polygon points="769,522 762,519 762,525" fill="#1a1a8c"/>
  <text x="411.5" y="518" text-anchor="middle" font-size="10" fill="#1a1a8c" font-family="Arial, Helvetica, sans-serif">60.0 mm</text>
  <line x1="817" y1="6" x2="817" y2="24" stroke="#1a1a8c" stroke-width="0.7"/>
  <line x1="1532" y1="6" x2="1532" y2="24" stroke="#1a1a8c" stroke-width="0.7"/>
  <line x1="817" y1="20" x2="1532" y2="20" stroke="#1a1a8c" stroke-width="0.8"/>
  <polygon points="817,20 824,17 824,23" fill="#1a1a8c"/>
  <polygon points="1532,20 1525,17 1525,23" fill="#1a1a8c"/>
  <text x="1174.5" y="16" text-anchor="middle" font-size="10" fill="#1a1a8c" font-family="Arial, Helvetica, sans-serif">60.0 mm</text>
  <line x1="1570" y1="54" x2="1588" y2="54" stroke="#1a1a8c" stroke-width="0.7"/>
  <line x1="1570" y1="482" x2="1588" y2="482" stroke="#1a1a8c" stroke-width="0.7"/>
  <line x1="1574" y1="54" x2="1574" y2="482" stroke="#1a1a8c" stroke-width="0.8"/>
  <polygon points="1574,54 1571,61 1577,61" fill="#1a1a8c"/>
  <polygon points="1574,482 1571,475 1577,475" fill="#1a1a8c"/>
  <text x="1566" y="268.0" text-anchor="middle" font-size="10" fill="#1a1a8c" font-family="Arial, Helvetica, sans-serif" transform="rotate(-90,1566,268.0)">40.0 mm</text>
  <text x="627" y="76" font-size="8" font-weight="bold" fill="#333" font-family="Arial, Helvetica, sans-serif">GD&amp;T CALLOUTS</text>
  <rect x="627" y="80" width="98" height="22" fill="#fffff8" stroke="#000000" stroke-width="1"/>
  <line x1="655" y1="80" x2="655" y2="102" stroke="#000000" stroke-width="1"/>
  <text x="641.0" y="97" text-anchor="middle" font-size="13" font-weight="bold" fill="#1a1a8c" font-family="Arial, Helvetica, sans-serif">▭</text>
  <text x="661" y="97" font-size="10" fill="#000" font-family="Arial, Helvetica, sans-serif">0.02</text>
  <line x1="627" y1="91.0" x2="603.0" y2="192.7" stroke="#999" stroke-width="0.5" stroke-dasharray="4,3"/>
  <rect x="627" y="108" width="123" height="22" fill="#fffff8" stroke="#000000" stroke-width="1"/>
  <line x1="655" y1="108" x2="655" y2="130" stroke="#000000" stroke-width="1"/>
  <line x1="725" y1="108" x2="725" y2="130" stroke="#000000" stroke-width="1"/>
  <text x="641.0" y="125" text-anchor="middle" font-size="13" font-weight="bold" fill="#1a1a8c" font-family="Arial, Helvetica, sans-serif">⊥</text>
  <text x="661" y="125" font-size="10" fill="#000" font-family="Arial, Helvetica, sans-serif">0.05</text>
  <text x="737.5" y="125" text-anchor="middle" font-size="10" font-weight="bold" fill="#000" font-family="Arial, Helvetica, sans-serif">A</text>
  <line x1="627" y1="119.0" x2="411.5" y2="72.0" stroke="#999" stroke-width="0.5" stroke-dasharray="4,3"/>
  <rect x="627" y="136" width="100" height="22" fill="#fffff8" stroke="#000000" stroke-width="0.8"/>
  <text x="633" y="151" font-size="11" fill="#1a1a8c" font-family="Arial, Helvetica, sans-serif">∇∇ Ra 3.2</text>
  <rect x="30" y="983" width="1527" height="110" fill="white" stroke="black" stroke-width="1.5"/>
  <rect x="30" y="983" width="1527" height="22" fill="#1a1a8c"/>
  <text x="793.5" y="998" text-anchor="middle" font-size="13" fill="white" font-weight="bold" font-family="Arial, Helvetica, sans-serif">ARIA-OS ENGINEERING DRAWING</text>
  <text x="34" y="1014.0" font-size="7" fill="#666" font-family="Arial, Helvetica, sans-serif">PART ID</text>
  <text x="34" y="1045.0" font-size="10" fill="#000" font-weight="bold" font-family="Arial, Helvetica, sans-serif">heat_sink</text>
  <line x1="30" y1="1049.0" x2="335.40000000000003" y2="1049.0" stroke="#aaa" stroke-width="0.5"/>
  <text x="34" y="1058.0" font-size="7" fill="#666" font-family="Arial, Helvetica, sans-serif">MATERIAL</text>
  <text x="34" y="1089.0" font-size="10" fill="#000" font-weight="bold" font-family="Arial, Helvetica, sans-serif">—</text>
  <line x1="335.40000000000003" y1="1005" x2="335.40000000000003" y2="1093" stroke="black" stroke-width="0.8"/>
  <text x="339.40000000000003" y="1014.0" font-size="7" fill="#666" font-family="Arial, Helvetica, sans-serif">SCALE</text>
  <text x="339.40000000000003" y="1045.0" font-size="10" fill="#000" font-weight="bold" font-family="Arial, Helvetica, sans-serif">1:1</text>
  <line x1="335.40000000000003" y1="1049.0" x2="640.8000000000001" y2="1049.0" stroke="#aaa" stroke-width="0.5"/>
  <text x="339.40000000000003" y="1058.0" font-size="7" fill="#666" font-family="Arial, Helvetica, sans-serif">DATE</text>
  <text x="339.40000000000003" y="1089.0" font-size="10" fill="#000" font-weight="bold" font-family="Arial, Helvetica, sans-serif">2026-04-01</text>
  <line x1="640.8000000000001" y1="1005" x2="640.8000000000001" y2="1093" stroke="black" stroke-width="0.8"/>
  <text x="644.8000000000001" y="1014.0" font-size="7" fill="#666" font-family="Arial, Helvetica, sans-serif">DRAWN BY</text>
  <text x="644.8000000000001" y="1045.0" font-size="10" fill="#000" font-weight="bold" font-family="Arial, Helvetica, sans-serif">ARIA-OS v2.0</text>
  <line x1="640.8000000000001" y1="1049.0" x2="946.2" y2="1049.0" stroke="#aaa" stroke-width="0.5"/>
  <text x="644.8000000000001" y="1058.0" font-size="7" fill="#666" font-family="Arial, Helvetica, sans-serif">DWG NO.</text>
  <text x="644.8000000000001" y="1089.0" font-size="10" fill="#000" font-weight="bold" font-family="Arial, Helvetica, sans-serif">ARIA-20260401-001</text>
  <line x1="946.2" y1="1005" x2="946.2" y2="1093" stroke="black" stroke-width="0.8"/>
  <text x="950.2" y="1014.0" font-size="7" fill="#666" font-family="Arial, Helvetica, sans-serif">TOLERANCE</text>
  <text x="950.2" y="1045.0" font-size="10" fill="#000" font-weight="bold" font-family="Arial, Helvetica, sans-serif">±0.1 GENERAL / ±0.05 MACH.</text>
  <line x1="946.2" y1="1049.0" x2="1251.6000000000001" y2="1049.0" stroke="#aaa" stroke-width="0.5"/>
  <text x="950.2" y="1058.0" font-size="7" fill="#666" font-family="Arial, Helvetica, sans-serif">UNITS</text>
  <text x="950.2" y="1089.0" font-size="10" fill="#000" font-weight="bold" font-family="Arial, Helvetica, sans-serif">MILLIMETRES</text>
  <line x1="1251.6000000000001" y1="1005" x2="1251.6000000000001" y2="1093" stroke="black" stroke-width="0.8"/>
  <text x="1255.6000000000001" y="1014.0" font-size="7" fill="#666" font-family="Arial, Helvetica, sans-serif">APPROVED</text>
  <text x="1255.6000000000001" y="1045.0" font-size="10" fill="#000" font-weight="bold" font-family="Arial, Helvetica, sans-serif"></text>
  <line x1="1251.6000000000001" y1="1049.0" x2="1404.3000000000002" y2="1049.0" stroke="#aaa" stroke-width="0.5"/>
  <text x="1255.6000000000001" y="1058.0" font-size="7" fill="#666" font-family="Arial, Helvetica, sans-serif"></text>
  <text x="1255.6000000000001" y="1089.0" font-size="10" fill="#000" font-weight="bold" font-family="Arial, Helvetica, sans-serif"></text>
  <line x1="1404.3000000000002" y1="1005" x2="1404.3000000000002" y2="1093" stroke="black" stroke-width="0.8"/>
  <text x="1408.3000000000002" y="1014.0" font-size="7" fill="#666" font-family="Arial, Helvetica, sans-serif">REV</text>
  <text x="1408.3000000000002" y="1045.0" font-size="10" fill="#000" font-weight="bold" font-family="Arial, Helvetica, sans-serif">—</text>
  <line x1="1404.3000000000002" y1="1049.0" x2="1557.0000000000002" y2="1049.0" stroke="#aaa" stroke-width="0.5"/>
  <text x="1408.3000000000002" y="1058.0" font-size="7" fill="#666" font-family="Arial, Helvetica, sans-serif"></text>
  <text x="1408.3000000000002" y="1089.0" font-size="10" fill="#000" font-weight="bold" font-family="Arial, Helvetica, sans-serif"></text>
</svg>