<svg xmlns="http://www.w3.org/2000/svg" width="1587" height="1123" viewBox="0 0 1587 1123" font-family="Arial, Helvetica, sans-serif" font-size="12">
  <rect width="1587" height="1123" fill="white"/>
  <rect x="20" y="20" width="1547" height="1083" fill="none" stroke="black" stroke-width="2"/>
  <rect x="30" y="30" width="1527" height="1063" fill="none" stroke="black" stroke-width="1"/>
  <rect x="20" y="20.0" width="16" height="270.75" fill="none" stroke="#888" stroke-width="0.4"/>
  <text x="28.0" y="159.375" text-anchor="middle" font-size="9" fill="#444" font-family="Arial, Helvetica, sans-serif">A</text>
  <rect x="1551" y="20.0" width="16" height="270.75" fill="none" stroke="#888" stroke-width="0.4"/>
  <text x="1559.0" y="159.375" text-anchor="middle" font-size="9" fill="#444" font-family="Arial, Helvetica, sans-serif">A</text>
  <rect x="20" y="290.75" width="16" height="270.75" fill="none" stroke="#888" stroke-width="0.4"/>
  <text x="28.0" y="430.125" text-anchor="middle" font-size="9" fill="#444" font-family="Arial, Helvetica, sans-serif">B</text>
  <rect x="1551" y="290.75" width="16" height="270.75" fill="none" stroke="#888" stroke-width="0.4"/>
  <text x="1559.0" y="430.125" text-anchor="middle" font-size="9" fill="#444" font-family="Arial, Helvetica, sans-serif">B</text>
  <rect x="20" y="561.5" width="16" height="270.75" fill="none" stroke="#888" stroke-width="0.4"/>
  <text x="28.0" y="700.875" text-anchor="middle" font-size="9" fill="#444" font-family="Arial, Helvetica, sans-serif">C</text>
  <rect x="1551" y="561.5" width="16" height="270.75" fill="none" stroke="#888" stroke-width="0.4"/>
  <text x="1559.0" y="700.875" text-anchor="middle" font-size="9" fill="#444" font-family="Arial, Helvetica, sans-serif">C</text>
  <rect x="20" y="832.25" width="16" height="270.75" fill="none" stroke="#888" stroke-width="0.4"/>
  <text x="28.0" y="971.625" text-anchor="middle" font-size="9" fill="#444" font-family="Arial, Helvetica, sans-serif">D</text>
  <rect x="1551" y="832.25" width="16" height="270.75" fill="none" stroke="#888" stroke-width="0.4"/>
  <text x="1559.0" y="971.625" text-anchor="middle" font-size="9" fill="#444" font-family="Arial, Helvetica, sans-serif">D</text>
  <rect x="20.0" y="20" width="193.375" height="16" fill="none" stroke="#888" stroke-width="0.4"/>
  <text x="116.6875" y="32" text-anchor="middle" font-size="9" fill="#444" font-family="Arial, Helvetica, sans-serif">1</text>
  <rect x="20.0" y="1087" width="193.375" height="16" fill="none" stroke="#888" stroke-width="0.4"/>
  <text x="116.6875" y="1099" text-anchor="middle" font-size="9" fill="#444" font-family="Arial, Helvetica, sans-serif">1</text>
  <rect x="213.375" y="20" width="193.375" height="16" fill="none" stroke="#888" stroke-width="0.4"/>
  <text x="310.0625" y="32" text-anchor="middle" font-size="9" fill="#444" font-family="Arial, Helvetica, sans-serif">2</text>
  <rect x="213.375" y="1087" width="193.375" height="16" fill="none" stroke="#888" stroke-width="0.4"/>
  <text x="310.0625" y="1099" text-anchor="middle" font-size="9" fill="#444" font-family="Arial, Helvetica, sans-serif">2</text>
  <rect x="406.75" y="20" width="193.375" height="16" fill="none" stroke="#888" stroke-width="0.4"/>
  <text x="503.4375" y="32" text-anchor="middle" font-size="9" fill="#444" font-family="Arial, Helvetica, sans-serif">3</text>
  <rect x="406.75" y="1087" width="193.375" height="16" fill="none" stroke="#888" stroke-width="0.4"/>
  <text x="503.4375" y="1099" text-anchor="middle" font-size="9" fill="#444" font-family="Arial, Helvetica, sans-serif">3</text>
  <rect x="600.125" y="20" width="193.375" height="16" fill="none" stroke="#888" stroke-width="0.4"/>
  <text x="696.8125" y="32" text-anchor="middle" font-size="9" fill="#444" font-family="Arial, Helvetica, sans-serif">4</text>
  <rect x="600.125" y="1087" width="193.375" height="16" fill="none" stroke="#888" stroke-width="0.4"/>
  <text x="696.8125" y="1099" text-anchor="middle" font-size="9" fill="#444" font-family="Arial, Helvetica, sans-serif">4</text>
  <rect x="793.5" y="20" width="193.375" height="16" fill="none" stroke="#888" stroke-width="0.4"/>
  <text x="890.1875" y="32" text-anchor="middle" font-size="9" fill="#444" font-family="Arial, Helvetica, sans-serif">5</text>
  <rect x="793.5" y="1087" width="193.375" height="16" fill="none" stroke="#888" stroke-width="0.4"/>
  <text x="890.1875" y="1099" text-anchor="middle" font-size="9" fill="#444" font-family="Arial, Helvetica, sans-serif">5</text>
  <rect x="986.875" y="20" width="193.375" height="16" fill="none" stroke="#888" stroke-width="0.4"/>
  <text x="1083.5625" y="32" text-anchor="middle" font-size="9" fill="#444" font-family="Arial, Helvetica, sans-serif">6</text>
  <rect x="986.875" y="1087" width="193.375" height="16" fill="none" stroke="#888" stroke-width="0.4"/>
  <text x="1083.5625" y="1099" text-anchor="middle" font-size="9" fill="#444" font-family="Arial, Helvetica, sans-serif">6</text>
  <rect x="1180.25" y="20" width="193.375" height="16" fill="none" stroke="#888" stroke-width="0.4"/>
  <text x="1276.9375" y="32" text-anchor="middle" font-size="9" fill="#444" font-family="Arial, Helvetica, sans-serif">7</text>
  <rect x="1180.25" y="1087" width="193.375" height="16" fill="none" stroke="#888" stroke-width="0.4"/>
  <text x="1276.9375" y="1099" text-anchor="middle" font-size="9" fill="#444" font-family="Arial, Helvetica, sans-serif">7</text>
  <rect x="1373.625" y="20" width="193.375" height="16" fill="none" stroke="#888" stroke-width="0.4"/>
  <text x="1470.3125" y="32" text-anchor="middle" font-size="9" fill="#444" font-family="Arial, Helvetica, sans-serif">8</text>
  <rect x="1373.625" y="1087" width="193.375" height="16" fill="none" stroke="#888" stroke-width="0.4"/>
  <text x="1470.3125" y="1099" text-anchor="middle" font-size="9" fill="#444" font-family="Arial, Helvetica, sans-serif">8</text>
  <rect x="1475" y="32" width="80" height="20" fill="white" stroke="black" stroke-width="0.8"/>
  <text x="1515.0" y="45" text-anchor="middle" font-size="9" fill="#000" font-family="Arial, Helvetica, sans-serif">REV: &#x2014;</text>
  <line x1="30" y1="506" x2="1557" y2="506" stroke="#888" stroke-width="0.6"/>
  <line x1="793" y1="30" x2="793" y2="983" stroke="#888" stroke-width="0.6"/>
  <rect x="42" y="42" width="739" height="452" fill="#fafafa" stroke="#ccc" stroke-width="0.5"/>
  <rect x="805" y="42" width="739" height="452" fill="#fafafa" stroke="#ccc" stroke-width="0.5"/>
  <rect x="42" y="518" width="739" height="452" fill="#fafafa" stroke="#ccc" stroke-width="0.5"/>
  <rect x="805" y="518" width="739" height="452" fill="#fafafa" stroke="#ccc" stroke-width="0.5"/>
  <text x="46" y="54" font-size="9" font-weight="bold" fill="#444" font-family="Arial, Helvetica, sans-serif">FRONT VIEW</text>
  <text x="809" y="54" font-size="9" font-weight="bold" fill="#444" font-family="Arial, Helvetica, sans-serif">TOP VIEW</text>
  <text x="46" y="530" font-size="9" font-weight="bold" fill="#444" font-family="Arial, Helvetica, sans-serif">RIGHT SIDE VIEW</text>
  <text x="809" y="530" font-size="9" font-weight="bold" fill="#444" font-family="Arial, Helvetica, sans-serif">SECTION A-A</text>
  <clipPath id="clip_front"><rect x="42" y="42" width="739" height="452"/></clipPath>
  <g clip-path="url(#clip_front)" transform="translate(42,68)">
    <g transform="scale(3.5999999999999996, -3.5999999999999996)   translate(87.05555555555557,-30.555555555555557)" stroke-width="0.2777777777777778"  fill="none">
       <!-- hidden lines -->
       <g  stroke="rgb(160,160,160)" fill="none" stroke-dasharray="0.2777777777777778,0.2777777777777778" >
			<path d="M1.5,-25.0 L-1.5,-25.0 " />
			<path d="M-1.5,-25.0 L-31.5,-25.0 " />
			<path d="M1.5,-25.0 L1.5,25.0 " />
			<path d="M-1.5,-25.0 L-1.5,25.0 " />
			<path d="M1.5,25.0 L-1.5,25.0 " />
			<path d="M-1.5,-25.0 L-1.5,25.0 " />
			<path d="M-1.5,-15.5 L-1.5,-15.550144175636365 L-1.5,-15.698062264195213 L-1.5,-15.936337035064051 L-1.5,-16.253020396282718 L-1.5,-16.63223252176515 L-1.5,-17.054958132087716 L-1.5,-17.500000000000412 L-1.5,-17.94504186791309 L-1.5,-18.367767478235596 L-1.5,-18.74697960371793 L-1.5,-19.063662964936466 L-1.5,-19.301937735805147 L-1.5,-19.44985582436382 L-1.5,-19.5 " />
			<path d="M-1.5,-19.5 L-1.5,-19.449855824363475 L-1.5,-19.30193773580453 L-1.5,-19.063662964935656 L-1.5,-18.746979603717005 L-1.5,-18.367767478234637 L-1.5,-17.945041867912167 L-1.5,-17.499999999999588 L-1.5,-17.054958132087027 L-1.5,-16.632232521764617 L-1.5,-16.25302039628235 L-1.5,-15.93633703506383 L-1.5,-15.698062264195109 L-1.5,-15.550144175636339 L-1.5,-15.500000000000002 " />
			<path d="M-1.5,19.5 L-1.5,19.449855824363635 L-1.5,19.30193773580479 L-1.5,19.06366296493595 L-1.5,18.746979603717282 L-1.5,18.36776747823485 L-1.5,17.945041867912284 L-1.5,17.499999999999588 L-1.5,17.05495813208691 L-1.5,16.632232521764404 L-1.5,16.25302039628207 L-1.5,15.936337035063534 L-1.5,15.698062264194853 L-1.5,15.55014417563618 L-1.5,15.500000000000002 " />
			<path d="M-1.5,15.5 L-1.5,15.550144175636524 L-1.5,15.69806226419547 L-1.5,15.936337035064344 L-1.5,16.253020396282995 L-1.5,16.632232521765363 L-1.5,17.054958132087833 L-1.5,17.500000000000412 L-1.5,17.945041867912973 L-1.5,18.367767478235383 L-1.5,18.74697960371765 L-1.5,19.06366296493617 L-1.5,19.30193773580489 L-1.5,19.44985582436366 L-1.5,19.499999999999996 " />
			<path d="M-31.5,-25.0 L-31.5,25.0 " />
			<path d="M-1.5,25.0 L-31.5,25.0 " />
			<path d="M1.0,-15.5 L-1.5,-15.5 " />
			<path d="M1.0,-15.5 L1.0,-15.550144175636353 L1.0,-15.698062264195162 L1.0,-15.936337035063941 L1.0,-16.253020396282533 L1.0,-16.632232521764884 L1.0,-17.05495813208737 L1.0,-17.5 L1.0,-17.94504186791263 L1.0,-18.367767478235116 L1.0,-18.746979603717467 L1.0,-19.06366296493606 L1.0,-19.301937735804838 L1.0,-19.44985582436365 L1.0,-19.5 " />
			<path d="M1.0,-19.5 L1.0,-19.44985582436365 L1.0,-19.301937735804838 L1.0,-19.06366296493606 L1.0,-18.746979603717467 L1.0,-18.367767478235116 L1.0,-17.94504186791263 L1.0,-17.5 L1.0,-17.05495813208737 L1.0,-16.632232521764884 L1.0,-16.253020396282533 L1.0,-15.936337035063941 L1.0,-15.698062264195162 L1.0,-15.550144175636353 L1.0,-15.500000000000002 " />
			<path d="M1.0,19.5 L-1.5,19.5 " />
			<path d="M1.0,19.5 L1.0,19.44985582436365 L1.0,19.301937735804838 L1.0,19.06366296493606 L1.0,18.746979603717467 L1.0,18.367767478235116 L1.0,17.94504186791263 L1.0,17.5 L1.0,17.05495813208737 L1.0,16.632232521764884 L1.0,16.253020396282533 L1.0,15.936337035063941 L1.0,15.698062264195162 L1.0,15.550144175636353 L1.0,15.500000000000002 " />
			<path d="M1.0,15.5 L1.0,15.550144175636353 L1.0,15.698062264195162 L1.0,15.93633703506394 L1.0,16.253020396282533 L1.0,16.632232521764884 L1.0,17.05495813208737 L1.0,17.5 L1.0,17.94504186791263 L1.0,18.367767478235116 L1.0,18.746979603717467 L1.0,19.06366296493606 L1.0,19.301937735804838 L1.0,19.449855824363645 L1.0,19.499999999999996 " />
			<path d="M-1.5,-19.5 L1.0,-19.5 " />
			<path d="M-1.5,15.5 L1.0,15.5 " />

       </g>

       <!-- solid lines -->
       <g  stroke="rgb(0,0,0)" fill="none">
			<path d="M1.5,-25.0 L-31.5,-25.0 " />
			<path d="M1.5,-25.0 L1.5,25.0 " />
			<path d="M-31.5,-25.0 L-31.5,25.0 " />
			<path d="M1.5,25.0 L-31.5,25.0 " />

       </g>
    </g>
  </g>
  <clipPath id="clip_top"><rect x="805" y="42" width="739" height="452"/></clipPath>
  <g clip-path="url(#clip_top)" transform="translate(805,68)">
    <g transform="scale(6.0, -6.0)   translate(58.333333333333336,-18.333333333333332)" stroke-width="0.16666666666666666"  fill="none">
       <!-- hidden lines -->
       <g  stroke="rgb(160,160,160)" fill="none" stroke-dasharray="0.16666666666666666,0.16666666666666666" >
			<path d="M-25.0,-15.0 L-25.0,15.0 " />
			<path d="M-25.0,-15.0 L25.0,-15.0 " />
			<path d="M25.0,-15.0 L25.0,15.0 " />
			<path d="M-25.0,15.0 L25.0,15.0 " />
			<path d="M-25.0,-12.0 L25.0,-12.0 " />
			<path d="M-15.5,0.0 L-15.503946543143456,0.12558103905862675 L-15.515770597371045,0.2506664671286085 L-15.535425498542622,0.37476262917144926 L-15.562833677742738,0.4973797743297096 L-15.597886967409693,0.6180339887498948 L-15.640447028223496,0.7362491053693558 L-15.69034589506796,0.8515585831301452 L-15.747386639912273,0.9635073482034304 L-15.81134414899597,1.071653589957993 L-15.881966011250105,1.175570504584946 L-15.958973514448422,1.2748479794973793 L-16.04206274515718,1.369094211857377 L-16.130905788142623,1.4579372548428229 L-16.22515202050262,1.541026485551578 L-16.324429495415053,1.6180339887498945 L-16.428346410042007,1.68865585100403 L-16.536492651796568,1.7526133600877272 L-16.648441416869854,1.8096541049320392 L-16.763750894630643,1.859552971776503 L-16.881966011250107,1.9021130325903073 L-17.00262022567029,1.9371663222572624 L-17.12523737082855,1.9645745014573774 L-17.249333532871393,1.9842294026289558 L-17.374418960941373,1.9960534568565431 L-17.5,2.0 L-17.625581039058627,1.9960534568565431 L-17.75066646712861,1.9842294026289555 L-17.87476262917145,1.964574501457377 L-17.997379774329712,1.9371663222572617 L-18.118033988749897,1.9021130325903064 L-18.236249105369357,1.859552971776502 L-18.351558583130146,1.8096541049320383 L-18.463507348203432,1.752613360087726 L-18.571653589957997,1.6886558510040288 L-18.675570504584947,1.6180339887498933 L-18.77484797949738,1.5410264855515767 L-18.86909421185738,1.457937254842821 L-18.957937254842825,1.3690942118573752 L-19.04102648555158,1.274847979497377 L-19.118033988749897,1.1755705045849436 L-19.188655851004032,1.0716535899579902 L-19.25261336008773,0.9635073482034273 L-19.30965410493204,0.8515585831301418 L-19.359552971776505,0.7362491053693522 L-19.402113032590307,0.6180339887498908 L-19.437166322257262,0.4973797743297053 L-19.464574501457378,0.37476262917144476 L-19.484229402628955,0.2506664671286038 L-19.496053456856544,0.12558103905862186 L-19.5,-5.084141158371281e-15 L-19.496053456856544,-0.125581039058632 L-19.484229402628955,-0.2506664671286139 L-19.464574501457378,-0.37476262917145475 L-19.437166322257262,-0.4973797743297152 L-19.402113032590304,-0.6180339887499005 L-19.359552971776502,-0.7362491053693616 L-19.309654104932036,-0.851558583130151 L-19.252613360087725,-0.9635073482034362 L-19.188655851004025,-1.0716535899579989 L-19.11803398874989,-1.1755705045849518 L-19.041026485551573,-1.2748479794973848 L-18.957937254842818,-1.3690942118573826 L-18.869094211857373,-1.457937254842828 L-18.774847979497373,-1.5410264855515832 L-18.67557050458494,-1.618033988749899 L-18.57165358995799,-1.6886558510040335 L-18.463507348203425,-1.7526133600877298 L-18.351558583130142,-1.809654104932041 L-18.236249105369353,-1.8595529717765042 L-18.118033988749893,-1.9021130325903082 L-17.99737977432971,-1.9371663222572628 L-17.874762629171446,-1.9645745014573777 L-17.750666467128607,-1.9842294026289558 L-17.625581039058627,-1.9960534568565431 L-17.5,-2.0 L-17.374418960941373,-1.9960534568565431 L-17.249333532871393,-1.984229402628956 L-17.125237370828554,-1.9645745014573779 L-17.002620225670295,-1.937166322257263 L-16.88196601125011,-1.9021130325903084 L-16.763750894630647,-1.8595529717765045 L-16.648441416869858,-1.8096541049320414 L-16.536492651796575,-1.75261336008773 L-16.428346410042014,-1.688655851004034 L-16.32442949541506,-1.6180339887498993 L-16.225152020502627,-1.5410264855515838 L-16.13090578814263,-1.457937254842829 L-16.042062745157182,-1.3690942118573843 L-15.958973514448427,-1.2748479794973875 L-15.881966011250112,-1.1755705045849552 L-15.811344148995977,-1.0716535899580033 L-15.747386639912278,-0.9635073482034415 L-15.690345895067967,-0.8515585831301573 L-15.640447028223502,-0.7362491053693689 L-15.597886967409698,-0.6180339887499088 L-15.562833677742741,-0.49737977432972447 L-15.535425498542626,-0.3747626291714651 L-15.515770597371047,-0.25066646712862517 L-15.503946543143458,-0.12558103905864426 L-15.5,-1.8253427113661445e-14 " />
			<path d="M19.5,0.0 L19.496053456856544,0.12558103905862675 L19.484229402628955,0.2506664671286085 L19.464574501457378,0.37476262917144926 L19.437166322257262,0.4973797743297096 L19.402113032590307,0.6180339887498948 L19.359552971776502,0.7362491053693558 L19.30965410493204,0.8515585831301452 L19.25261336008773,0.9635073482034304 L19.18865585100403,1.071653589957993 L19.118033988749893,1.175570504584946 L19.04102648555158,1.2748479794973793 L18.95793725484282,1.369094211857377 L18.869094211857377,1.4579372548428229 L18.77484797949738,1.541026485551578 L18.675570504584947,1.6180339887498945 L18.571653589957993,1.68865585100403 L18.463507348203432,1.7526133600877272 L18.351558583130146,1.8096541049320392 L18.236249105369357,1.859552971776503 L18.118033988749893,1.9021130325903073 L17.99737977432971,1.9371663222572624 L17.87476262917145,1.9645745014573774 L17.750666467128607,1.9842294026289558 L17.625581039058627,1.9960534568565431 L17.5,2.0 L17.374418960941373,1.9960534568565431 L17.24933353287139,1.9842294026289555 L17.12523737082855,1.964574501457377 L17.002620225670288,1.9371663222572617 L16.881966011250103,1.9021130325903064 L16.763750894630643,1.859552971776502 L16.648441416869854,1.8096541049320383 L16.536492651796568,1.752613360087726 L16.428346410042003,1.6886558510040288 L16.324429495415053,1.6180339887498933 L16.22515202050262,1.5410264855515767 L16.13090578814262,1.457937254842821 L16.042062745157175,1.3690942118573752 L15.95897351444842,1.274847979497377 L15.881966011250103,1.1755705045849436 L15.811344148995968,1.0716535899579902 L15.747386639912271,0.9635073482034273 L15.69034589506796,0.8515585831301418 L15.640447028223496,0.7362491053693522 L15.597886967409691,0.6180339887498908 L15.562833677742736,0.4973797743297053 L15.535425498542622,0.37476262917144476 L15.515770597371043,0.2506664671286038 L15.503946543143456,0.12558103905862186 L15.5,-5.084141158371281e-15 L15.503946543143456,-0.125581039058632 L15.515770597371045,-0.2506664671286139 L15.535425498542624,-0.37476262917145475 L15.56283367774274,-0.4973797743297152 L15.597886967409694,-0.6180339887499005 L15.6404470282235,-0.7362491053693616 L15.690345895067964,-0.851558583130151 L15.747386639912277,-0.9635073482034362 L15.811344148995973,-1.0716535899579989 L15.881966011250109,-1.1755705045849518 L15.958973514448425,-1.2748479794973848 L16.042062745157182,-1.3690942118573826 L16.130905788142627,-1.457937254842828 L16.225152020502627,-1.5410264855515832 L16.32442949541506,-1.618033988749899 L16.42834641004201,-1.6886558510040335 L16.536492651796575,-1.7526133600877298 L16.648441416869858,-1.809654104932041 L16.763750894630647,-1.8595529717765042 L16.881966011250107,-1.9021130325903082 L17.00262022567029,-1.9371663222572628 L17.125237370828554,-1.9645745014573777 L17.249333532871393,-1.9842294026289558 L17.374418960941373,-1.9960534568565431 L17.5,-2.0 L17.625581039058627,-1.9960534568565431 L17.750666467128607,-1.984229402628956 L17.874762629171446,-1.9645745014573779 L17.997379774329705,-1.937166322257263 L18.11803398874989,-1.9021130325903084 L18.236249105369353,-1.8595529717765045 L18.351558583130142,-1.8096541049320414 L18.463507348203425,-1.75261336008773 L18.571653589957986,-1.688655851004034 L18.67557050458494,-1.6180339887498993 L18.774847979497373,-1.5410264855515838 L18.86909421185737,-1.457937254842829 L18.957937254842818,-1.3690942118573843 L19.041026485551573,-1.2748479794973875 L19.11803398874989,-1.1755705045849552 L19.188655851004025,-1.0716535899580033 L19.25261336008772,-0.9635073482034415 L19.309654104932033,-0.8515585831301573 L19.3595529717765,-0.7362491053693689 L19.402113032590304,-0.6180339887499088 L19.43716632225726,-0.49737977432972447 L19.464574501457374,-0.3747626291714651 L19.484229402628955,-0.25066646712862517 L19.496053456856544,-0.12558103905864426 L19.5,-1.8253427113661445e-14 " />

       </g>

       <!-- solid lines -->
       <g  stroke="rgb(0,0,0)" fill="none">
			<path d="M-25.0,-12.0 L-25.0,15.0 " />
			<path d="M-25.0,-15.0 L-25.0,-12.0 " />
			<path d="M-25.0,-15.0 L25.0,-15.0 " />
			<path d="M-25.0,15.0 L25.0,15.0 " />
			<path d="M25.0,-12.0 L25.0,15.0 " />
			<path d="M-15.5,0.0 L-15.503946543143456,-0.12558103905862675 L-15.515770597371045,-0.2506664671286085 L-15.535425498542622,-0.37476262917144926 L-15.562833677742738,-0.4973797743297096 L-15.597886967409693,-0.6180339887498948 L-15.640447028223496,-0.7362491053693558 L-15.69034589506796,-0.8515585831301452 L-15.747386639912273,-0.9635073482034304 L-15.81134414899597,-1.071653589957993 L-15.881966011250105,-1.175570504584946 L-15.958973514448422,-1.2748479794973793 L-16.04206274515718,-1.369094211857377 L-16.130905788142623,-1.4579372548428229 L-16.22515202050262,-1.541026485551578 L-16.324429495415053,-1.6180339887498945 L-16.428346410042007,-1.68865585100403 L-16.536492651796568,-1.7526133600877272 L-16.648441416869854,-1.8096541049320392 L-16.763750894630643,-1.859552971776503 L-16.881966011250107,-1.9021130325903073 L-17.00262022567029,-1.9371663222572624 L-17.12523737082855,-1.9645745014573774 L-17.249333532871393,-1.9842294026289558 L-17.374418960941373,-1.9960534568565431 L-17.5,-2.0 L-17.625581039058627,-1.9960534568565431 L-17.75066646712861,-1.9842294026289555 L-17.87476262917145,-1.964574501457377 L-17.997379774329712,-1.9371663222572617 L-18.118033988749897,-1.9021130325903064 L-18.236249105369357,-1.859552971776502 L-18.351558583130146,-1.8096541049320383 L-18.463507348203432,-1.752613360087726 L-18.571653589957997,-1.6886558510040288 L-18.675570504584947,-1.6180339887498933 L-18.77484797949738,-1.5410264855515767 L-18.86909421185738,-1.457937254842821 L-18.957937254842825,-1.3690942118573752 L-19.04102648555158,-1.274847979497377 L-19.118033988749897,-1.1755705045849436 L-19.188655851004032,-1.0716535899579902 L-19.25261336008773,-0.9635073482034273 L-19.30965410493204,-0.8515585831301418 L-19.359552971776505,-0.7362491053693522 L-19.402113032590307,-0.6180339887498908 L-19.437166322257262,-0.4973797743297053 L-19.464574501457378,-0.37476262917144476 L-19.484229402628955,-0.2506664671286038 L-19.496053456856544,-0.12558103905862186 L-19.5,5.084141158371281e-15 L-19.496053456856544,0.125581039058632 L-19.484229402628955,0.2506664671286139 L-19.464574501457378,0.37476262917145475 L-19.437166322257262,0.4973797743297152 L-19.402113032590304,0.6180339887499005 L-19.359552971776502,0.7362491053693616 L-19.309654104932036,0.851558583130151 L-19.252613360087725,0.9635073482034362 L-19.188655851004025,1.0716535899579989 L-19.11803398874989,1.1755705045849518 L-19.041026485551573,1.2748479794973848 L-18.957937254842818,1.3690942118573826 L-18.869094211857373,1.457937254842828 L-18.774847979497373,1.5410264855515832 L-18.67557050458494,1.618033988749899 L-18.57165358995799,1.6886558510040335 L-18.463507348203425,1.7526133600877298 L-18.351558583130142,1.809654104932041 L-18.236249105369353,1.8595529717765042 L-18.118033988749893,1.9021130325903082 L-17.99737977432971,1.9371663222572628 L-17.874762629171446,1.9645745014573777 L-17.750666467128607,1.9842294026289558 L-17.625581039058627,1.9960534568565431 L-17.5,2.0 L-17.374418960941373,1.9960534568565431 L-17.249333532871393,1.984229402628956 L-17.125237370828554,1.9645745014573779 L-17.002620225670295,1.937166322257263 L-16.88196601125011,1.9021130325903084 L-16.763750894630647,1.8595529717765045 L-16.648441416869858,1.8096541049320414 L-16.536492651796575,1.75261336008773 L-16.428346410042014,1.688655851004034 L-16.32442949541506,1.6180339887498993 L-16.225152020502627,1.5410264855515838 L-16.13090578814263,1.457937254842829 L-16.042062745157182,1.3690942118573843 L-15.958973514448427,1.2748479794973875 L-15.881966011250112,1.1755705045849552 L-15.811344148995977,1.0716535899580033 L-15.747386639912278,0.9635073482034415 L-15.690345895067967,0.8515585831301573 L-15.640447028223502,0.7362491053693689 L-15.597886967409698,0.6180339887499088 L-15.562833677742741,0.49737977432972447 L-15.535425498542626,0.3747626291714651 L-15.515770597371047,0.25066646712862517 L-15.503946543143458,0.12558103905864426 L-15.5,1.8253427113661445e-14 " />
			<path d="M19.5,0.0 L19.496053456856544,-0.12558103905862675 L19.484229402628955,-0.2506664671286085 L19.464574501457378,-0.37476262917144926 L19.437166322257262,-0.4973797743297096 L19.402113032590307,-0.6180339887498948 L19.359552971776502,-0.7362491053693558 L19.30965410493204,-0.8515585831301452 L19.25261336008773,-0.9635073482034304 L19.18865585100403,-1.071653589957993 L19.118033988749893,-1.175570504584946 L19.04102648555158,-1.2748479794973793 L18.95793725484282,-1.369094211857377 L18.869094211857377,-1.4579372548428229 L18.77484797949738,-1.541026485551578 L18.675570504584947,-1.6180339887498945 L18.571653589957993,-1.68865585100403 L18.463507348203432,-1.7526133600877272 L18.351558583130146,-1.8096541049320392 L18.236249105369357,-1.859552971776503 L18.118033988749893,-1.9021130325903073 L17.99737977432971,-1.9371663222572624 L17.87476262917145,-1.9645745014573774 L17.750666467128607,-1.9842294026289558 L17.625581039058627,-1.9960534568565431 L17.5,-2.0 L17.374418960941373,-1.9960534568565431 L17.24933353287139,-1.9842294026289555 L17.12523737082855,-1.964574501457377 L17.002620225670288,-1.9371663222572617 L16.881966011250103,-1.9021130325903064 L16.763750894630643,-1.859552971776502 L16.648441416869854,-1.8096541049320383 L16.536492651796568,-1.752613360087726 L16.428346410042003,-1.6886558510040288 L16.324429495415053,-1.6180339887498933 L16.22515202050262,-1.5410264855515767 L16.13090578814262,-1.457937254842821 L16.042062745157175,-1.3690942118573752 L15.95897351444842,-1.274847979497377 L15.881966011250103,-1.1755705045849436 L15.811344148995968,-1.0716535899579902 L15.747386639912271,-0.9635073482034273 L15.69034589506796,-0.8515585831301418 L15.640447028223496,-0.7362491053693522 L15.597886967409691,-0.6180339887498908 L15.562833677742736,-0.4973797743297053 L15.535425498542622,-0.37476262917144476 L15.515770597371043,-0.2506664671286038 L15.503946543143456,-0.12558103905862186 L15.5,5.084141158371281e-15 L15.503946543143456,0.125581039058632 L15.515770597371045,0.2506664671286139 L15.535425498542624,0.37476262917145475 L15.56283367774274,0.4973797743297152 L15.597886967409694,0.6180339887499005 L15.6404470282235,0.7362491053693616 L15.690345895067964,0.851558583130151 L15.747386639912277,0.9635073482034362 L15.811344148995973,1.0716535899579989 L15.881966011250109,1.1755705045849518 L15.958973514448425,1.2748479794973848 L16.042062745157182,1.3690942118573826 L16.130905788142627,1.457937254842828 L16.225152020502627,1.5410264855515832 L16.32442949541506,1.618033988749899 L16.42834641004201,1.6886558510040335 L16.536492651796575,1.7526133600877298 L16.648441416869858,1.809654104932041 L16.763750894630647,1.8595529717765042 L16.881966011250107,1.9021130325903082 L17.00262022567029,1.9371663222572628 L17.125237370828554,1.9645745014573777 L17.249333532871393,1.9842294026289558 L17.374418960941373,1.9960534568565431 L17.5,2.0 L17.625581039058627,1.9960534568565431 L17.750666467128607,1.984229402628956 L17.874762629171446,1.9645745014573779 L17.997379774329705,1.937166322257263 L18.11803398874989,1.9021130325903084 L18.236249105369353,1.8595529717765045 L18.351558583130142,1.8096541049320414 L18.463507348203425,1.75261336008773 L18.571653589957986,1.688655851004034 L18.67557050458494,1.6180339887498993 L18.774847979497373,1.5410264855515838 L18.86909421185737,1.457937254842829 L18.957937254842818,1.3690942118573843 L19.041026485551573,1.2748479794973875 L19.11803398874989,1.1755705045849552 L19.188655851004025,1.0716535899580033 L19.25261336008772,0.9635073482034415 L19.309654104932033,0.8515585831301573 L19.3595529717765,0.7362491053693689 L19.402113032590304,0.6180339887499088 L19.43716632225726,0.49737977432972447 L19.464574501457374,0.3747626291714651 L19.484229402628955,0.25066646712862517 L19.496053456856544,0.12558103905864426 L19.5,1.8253427113661445e-14 " />
			<path d="M-25.0,-12.0 L25.0,-12.0 " />
			<path d="M25.0,-15.0 L25.0,-12.0 " />

       </g>
    </g>
  </g>
  <clipPath id="clip_right"><rect x="42" y="518" width="739" height="452"/></clipPath>
  <g clip-path="url(#clip_right)" transform="translate(42,544)">
    <g transform="scale(6.0, -6.0)   translate(34.833333333333336,-18.333333333333332)" stroke-width="0.16666666666666666"  fill="none">
       <!-- hidden lines -->
       <g  stroke="rgb(160,160,160)" fill="none" stroke-dasharray="0.16666666666666666,0.16666666666666666" >
			<path d="M-1.5,15.0 L31.5,15.0 " />
			<path d="M-1.5,15.0 L-1.5,-15.0 " />
			<path d="M-1.5,-15.0 L1.5,-15.0 " />
			<path d="M1.5,12.0 L1.5,-15.0 " />
			<path d="M1.5,12.0 L31.5,12.0 " />
			<path d="M31.5,15.0 L31.5,12.0 " />
			<path d="M1.5,0.0 L1.5,0.22392895220667447 L1.5,0.4450418679127441 L1.5,0.6605581239105016 L1.5,0.8677674782353293 L1.5,1.0640641530309234 L1.5,1.2469796037177443 L1.5,1.4142135623733876 L1.5,1.5636629649363543 L1.5,1.6934483984568514 L1.5,1.8019377358050948 L1.5,1.8877666606169499 L1.5,1.9498558243638051 L1.5,1.9874244197865711 L1.5,1.9999999999999998 " />
			<path d="M1.5,2.0 L1.5,1.949855824363463 L1.5,1.8019377358044792 L1.5,1.5636629649355436 L1.5,1.24697960371682 L1.5,0.8677674782343706 L1.5,0.445041867911822 L1.5,-8.275373578006872e-13 L1.5,-0.4450418679134356 L1.5,-0.8677674782358618 L1.5,-1.246979603718114 L1.5,-1.5636629649365754 L1.5,-1.8019377358051973 L1.5,-1.9498558243638313 L1.5,-1.999999999999998 " />
			<path d="M1.5,-2.0 L1.5,-1.987424419786399 L1.5,-1.9498558243634891 L1.5,-1.88776666061652 L1.5,-1.801937735804581 L1.5,-1.693448398456284 L1.5,-1.563662964935763 L1.5,-1.4142135623728003 L1.5,-1.246979603717187 L1.5,-1.0640641530304193 L1.5,-0.867767478234899 L1.5,-0.6605581239101619 L1.5,-0.44504186791250805 L1.5,-0.22392895220655087 L1.5,-1.8235413179468196e-14 " />
			<path d="M1.5,0.0 L1.5,0.22392895220667447 L1.5,0.4450418679127441 L1.5,0.6605581239105016 L1.5,0.8677674782353293 L1.5,1.0640641530309234 L1.5,1.2469796037177443 L1.5,1.4142135623733876 L1.5,1.5636629649363543 L1.5,1.6934483984568514 L1.5,1.8019377358050948 L1.5,1.8877666606169499 L1.5,1.9498558243638051 L1.5,1.9874244197865711 L1.5,1.9999999999999998 " />
			<path d="M1.5,2.0 L1.5,1.949855824363463 L1.5,1.8019377358044792 L1.5,1.5636629649355436 L1.5,1.24697960371682 L1.5,0.8677674782343706 L1.5,0.445041867911822 L1.5,-8.275373578006872e-13 L1.5,-0.4450418679134356 L1.5,-0.8677674782358618 L1.5,-1.246979603718114 L1.5,-1.5636629649365754 L1.5,-1.8019377358051973 L1.5,-1.9498558243638313 L1.5,-1.999999999999998 " />
			<path d="M1.5,-2.0 L1.5,-1.987424419786399 L1.5,-1.9498558243634891 L1.5,-1.88776666061652 L1.5,-1.801937735804581 L1.5,-1.693448398456284 L1.5,-1.563662964935763 L1.5,-1.4142135623728003 L1.5,-1.246979603717187 L1.5,-1.0640641530304193 L1.5,-0.867767478234899 L1.5,-0.6605581239101619 L1.5,-0.44504186791250805 L1.5,-0.22392895220655087 L1.5,-1.8235413179468196e-14 " />
			<path d="M-1.0,0.0 L-1.0,-0.2239289522066157 L-1.0,-0.4450418679126288 L-1.0,-0.6605581239103342 L-1.0,-0.8677674782351162 L-1.0,-1.0640641530306731 L-1.0,-1.246979603717467 L-1.0,-1.4142135623730951 L-1.0,-1.5636629649360596 L-1.0,-1.6934483984565682 L-1.0,-1.8019377358048383 L-1.0,-1.8877666606167351 L-1.0,-1.9498558243636472 L-1.0,-1.9874244197864852 L-1.0,-1.9999999999999998 " />
			<path d="M-1.0,-2.0 L-1.0,-1.9498558243636472 L-1.0,-1.8019377358048383 L-1.0,-1.5636629649360598 L-1.0,-1.2469796037174672 L-1.0,-0.8677674782351165 L-1.0,-0.445041867912629 L-1.0,-2.4492935982947064e-16 L-1.0,0.44504186791262856 L-1.0,0.867767478235116 L-1.0,1.2469796037174667 L-1.0,1.5636629649360594 L-1.0,1.801937735804838 L-1.0,1.9498558243636472 L-1.0,1.999999999999998 " />
			<path d="M-1.0,2.0 L-1.0,1.9874244197864852 L-1.0,1.9498558243636472 L-1.0,1.8877666606167351 L-1.0,1.8019377358048385 L-1.0,1.6934483984565685 L-1.0,1.5636629649360598 L-1.0,1.4142135623730954 L-1.0,1.2469796037174674 L-1.0,1.0640641530306736 L-1.0,0.8677674782351167 L-1.0,0.6605581239103346 L-1.0,0.4450418679126293 L-1.0,0.22392895220661618 L-1.0,1.8207657603852567e-14 " />
			<path d="M-1.0,0.0 L-1.0,-0.2239289522066157 L-1.0,-0.4450418679126288 L-1.0,-0.6605581239103342 L-1.0,-0.8677674782351162 L-1.0,-1.0640641530306731 L-1.0,-1.246979603717467 L-1.0,-1.4142135623730951 L-1.0,-1.5636629649360596 L-1.0,-1.6934483984565682 L-1.0,-1.8019377358048383 L-1.0,-1.8877666606167351 L-1.0,-1.9498558243636472 L-1.0,-1.9874244197864852 L-1.0,-1.9999999999999998 " />
			<path d="M-1.0,-2.0 L-1.0,-1.9498558243636472 L-1.0,-1.8019377358048383 L-1.0,-1.5636629649360598 L-1.0,-1.2469796037174672 L-1.0,-0.8677674782351165 L-1.0,-0.445041867912629 L-1.0,-2.4492935982947064e-16 L-1.0,0.44504186791262856 L-1.0,0.867767478235116 L-1.0,1.2469796037174667 L-1.0,1.5636629649360594 L-1.0,1.801937735804838 L-1.0,1.9498558243636472 L-1.0,1.999999999999998 " />
			<path d="M-1.0,2.0 L-1.0,1.9874244197864852 L-1.0,1.9498558243636472 L-1.0,1.8877666606167351 L-1.0,1.8019377358048385 L-1.0,1.6934483984565685 L-1.0,1.5636629649360598 L-1.0,1.4142135623730954 L-1.0,1.2469796037174674 L-1.0,1.0640641530306736 L-1.0,0.8677674782351167 L-1.0,0.6605581239103346 L-1.0,0.4450418679126293 L-1.0,0.22392895220661618 L-1.0,1.8207657603852567e-14 " />
			<path d="M1.5,2.0 L-1.0,2.0 " />
			<path d="M1.5,-2.0 L-1.0,-2.0 " />
			<path d="M1.5,2.0 L-1.0,2.0 " />
			<path d="M1.5,-2.0 L-1.0,-2.0 " />

       </g>

       <!-- solid lines -->
       <g  stroke="rgb(0,0,0)" fill="none">
			<path d="M-1.5,15.0 L31.5,15.0 " />
			<path d="M-1.5,15.0 L-1.5,-15.0 " />
			<path d="M-1.5,-15.0 L1.5,-15.0 " />
			<path d="M1.5,12.0 L1.5,-15.0 " />
			<path d="M1.5,12.0 L31.5,12.0 " />
			<path d="M31.5,15.0 L31.5,12.0 " />

       </g>
    </g>
  </g>
  <clipPath id="clip_section"><rect x="805" y="518" width="739" height="452"/></clipPath>
  <g clip-path="url(#clip_section)" transform="translate(805,544)">
    <g transform="scale(3.5999999999999996, -3.5999999999999996)   translate(57.055555655555565,-30.555555555555557)" stroke-width="0.2777777777777778"  fill="none">
       <!-- hidden lines -->
       <g  stroke="rgb(160,160,160)" fill="none" stroke-dasharray="0.2777777777777778,0.2777777777777778" >
			<path d="M1.5,-25.0 L-1.5,-25.0 " />
			<path d="M-1.5,-25.0 L-1.5,25.0 " />
			<path d="M1.5,-25.0 L1.5,25.0 " />
			<path d="M1.5,25.0 L-1.5,25.0 " />
			<path d="M1.0,-15.5 L1.0,-15.550144175636353 L1.0,-15.698062264195162 L1.0,-15.936337035063941 L1.0,-16.253020396282533 L1.0,-16.632232521764884 L1.0,-17.05495813208737 L1.0,-17.5 L1.0,-17.94504186791263 L1.0,-18.367767478235116 L1.0,-18.746979603717467 L1.0,-19.06366296493606 L1.0,-19.301937735804838 L1.0,-19.44985582436365 L1.0,-19.5 " />
			<path d="M1.0,19.5 L1.0,19.44985582436365 L1.0,19.301937735804838 L1.0,19.06366296493606 L1.0,18.746979603717467 L1.0,18.367767478235116 L1.0,17.94504186791263 L1.0,17.5 L1.0,17.05495813208737 L1.0,16.632232521764884 L1.0,16.253020396282533 L1.0,15.936337035063941 L1.0,15.698062264195162 L1.0,15.550144175636353 L1.0,15.500000000000002 " />

       </g>

       <!-- solid lines -->
       <g  stroke="rgb(0,0,0)" fill="none">
			<path d="M-1.5,-25.0 L1.5,-25.0 " />
			<path d="M1.0,-15.5 L-1.5,-15.5 " />
			<path d="M-1.5,-15.5 L-1.5,15.5 " />
			<path d="M-1.5,15.5 L1.0,15.5 " />
			<path d="M1.0,15.5 L1.0,19.5 " />
			<path d="M1.0,19.5 L-1.5,19.5 " />
			<path d="M-1.5,19.5 L-1.5,25.0 " />
			<path d="M-1.5,25.0 L1.5,25.0 " />
			<path d="M1.5,-25.0 L1.5,25.0 " />
			<path d="M-1.5,-25.0 L-1.5,-19.5 " />
			<path d="M-1.5,-19.5 L1.0,-19.5 " />
			<path d="M1.0,-19.5 L1.0,-15.5 " />
			<path d="M-1.5,15.5 L-1.5,15.550144175636353 L-1.5,15.698062264195162 L-1.5,15.93633703506394 L-1.5,16.253020396282533 L-1.5,16.632232521764884 L-1.5,17.05495813208737 L-1.5,17.5 L-1.5,17.94504186791263 L-1.5,18.367767478235116 L-1.5,18.746979603717467 L-1.5,19.06366296493606 L-1.5,19.301937735804838 L-1.5,19.449855824363645 L-1.5,19.499999999999996 " />
			<path d="M-1.5,-19.5 L-1.5,-19.44985582436365 L-1.5,-19.301937735804838 L-1.5,-19.06366296493606 L-1.5,-18.746979603717467 L-1.5,-18.367767478235116 L-1.5,-17.94504186791263 L-1.5,-17.5 L-1.5,-17.05495813208737 L-1.5,-16.632232521764884 L-1.5,-16.253020396282533 L-1.5,-15.936337035063941 L-1.5,-15.698062264195162 L-1.5,-15.550144175636353 L-1.5,-15.500000000000002 " />

       </g>
    </g>
  </g>
  <text x="1174.5" y="964" text-anchor="middle" font-size="9" font-weight="bold" fill="#333" font-family="Arial, Helvetica, sans-serif">SECTION A-A  &#x2014;  CUT AT Y MIDPLANE</text>
  <rect x="1282" y="332" width="258" height="158" fill="#f4f4f4" stroke="#aaa" stroke-width="0.5"/>
  <text x="1285" y="341" font-size="7" fill="#777" font-family="Arial, Helvetica, sans-serif">ISO</text>
  <clipPath id="clip_iso"><rect x="1282" y="332" width="258" height="158"/></clipPath>
  <g clip-path="url(#clip_iso)" transform="translate(1282,358)">
    <g transform="scale(3.9018420681501946, -3.9018420681501946)   translate(91.20937405083609,-28.19181250258788)" stroke-width="0.2562892045689807"  fill="none">
       <!-- hidden lines -->
       <g  stroke="rgb(160,160,160)" fill="none" stroke-dasharray="0.2562892045689807,0.2562892045689807" >
			<path d="M-16.617009357883866,-23.06602841120826 L-16.617009357883866,1.4288690166235227 " />
			<path d="M-16.617009357883866,1.428869016623521 L-18.738329701443508,2.6536138880151103 " />
			<path d="M-18.73832970144351,-19.391793797033497 L-18.73832970144351,2.6536138880151086 " />
			<path d="M-18.73832970144351,-19.391793797033497 L-39.951533137039945,-7.144345083117601 " />
			<path d="M-16.617009357883866,1.428869016623521 L18.73832970144352,21.84128353981668 " />
			<path d="M-18.73832970144351,2.6536138880151103 L-2.474873734152915,12.043324568683962 " />
			<path d="M-18.73832970144351,-19.391793797033497 L16.617009357883873,1.0206207261596596 " />
			<path d="M-12.020815280171307,-5.715476066494083 L-12.024647153084143,-5.8378188286649655 L-12.03612200657133,-5.963923270523 L-12.055177657407611,-6.093106021171736 L-12.081710841370072,-6.224667028092677 L-12.115577772835916,-6.357893350790525 L-12.156594923969209,-6.492063024279506 L-12.204540019274127,-6.6264489714741694 L-12.259153240125126,-6.760322943283117 L-12.320138632746579,-6.892959465053924 L-12.387165712011935,-7.023639767983138 L-12.459871252371258,-7.151655684186701 L-12.537861256201936,-7.276313484323072 L-12.620713088915956,-7.396937636972633 L-12.707977769253342,-7.512874469400986 L-12.799182402350501,-7.623495709868128 L-12.893832742398475,-7.728201892287454 L-12.991415871003788,-7.826425604784416 L-13.09140297673767,-7.917634564550632 L-13.193252220811006,-8.001334502330545 L-13.296411673345675,-8.077071840909346 L-13.400322304330388,-8.144436153087193 L-13.504421013052745,-8.203062385819774 L-13.55636456527748,-8.228997542368848 L-13.6081436795908,-8.25263283847238 L-13.659688183340982,-8.273936242848572 L-13.710928221827777,-8.292878884467175 L-13.761794352971634,-8.309435091676388 L-13.81221764142377,-8.323582426993887 L-13.86212975198946,-8.335301717514781 L-13.91146304223801,-8.34457708089533 L-13.960150654173862,-8.351395946877183 L-14.008126604844604,-8.355749074322981 L-14.055325875763112,-8.357630563740232 L-14.1016845010226,-8.357037865276483 L-14.14713965398519,-8.353971782174963 L-14.19162973242651,-8.348436469685996 L-14.235094442020923,-8.340439429435687 L-14.277474878054262,-8.329991499259474 L-14.318713605253311,-8.317106838514373 L-14.358754735623855,-8.301802908889774 L-14.397544004191815,-8.284100450742823 L-14.435028842544808,-8.264023454990452 " />
			<path d="M-14.435028842544817,-8.264023454990447 L-14.482891973077386,-8.233607888956385 L-14.528230709546532,-8.199092934579824 L-14.570935826964895,-8.160561741409005 L-14.610904444964087,-8.118107134463216 L-14.648040275642511,-8.07183139060917 L-14.68225385553135,-8.02184599216709 L-14.713462761119894,-7.968271358340026 L-14.741591807421003,-7.911236555113451 L-14.766573229098325,-7.850878984323996 L-14.788346843718926,-7.787344052646393 L-14.80686019673804,-7.720784821296055 L-14.822068687866665,-7.651361637291207 L-14.833935678517568,-7.579241747162866 L-14.842432580070843,-7.504598894043311 L-14.84753892274641,-7.4276128991036465 L-14.849242404917497,-7.3484692283488595 L-14.847538922746352,-7.267358545813965 L-14.842432580070728,-7.184476254237647 L-14.833935678517395,-7.100022024319944 L-14.822068687866437,-7.014199313698043 L-14.806860196737755,-6.927214876799017 L-14.788346843718585,-6.83927826675029 L-14.766573229097931,-6.7506013305478065 L-14.741591807420555,-6.661397698698062 L-14.713462761119395,-6.571882270563497 L-14.6822538555308,-6.482270696651114 L-14.648040275641911,-6.392778859091515 L-14.610904444963436,-6.303622351559939 L-14.570935826964197,-6.215015959892218 L-14.52823070954579,-6.127173144646883 L-14.482891973076601,-6.0403055268599815 L-14.43502884254399,-5.954622378231466 L-14.384756624421724,-5.870330116971343 L-14.332196428886586,-5.787631810520114 L-14.277474878053352,-5.706726686341541 L-14.220723800931019,-5.627809651966218 L-14.162079915835182,-5.551070825442273 L-14.101684501021634,-5.476695077324329 L-14.039683054334676,-5.404861585304148 L-13.97622494269006,-5.335743402555877 L-13.911463042237013,-5.269507040835796 L-13.8455533700662,-5.206312069340909 L-13.778654708350887,-5.146310730292771 L-13.710928221826773,-5.089647572172646 L-13.642537069532036,-5.036459101491554 L-13.573646011742913,-4.9868734539341215 L-13.50442101305176,-4.941010085668507 L-13.435028842543819,-4.898979485566019 L-13.365636672035878,-4.86088290902375 L-13.296411673344728,-4.826812134031455 L-13.227520615555612,-4.796849240070339 L-13.159129463260886,-4.771066410376394 L-13.091402976736784,-4.749525758044662 L-13.024504315021487,-4.732279176393348 L-12.958594642850692,-4.719368213948272 L-12.893832742397667,-4.7108239743488305 L-12.830374630753074,-4.706667041416606 L-12.76837318406614,-4.706907429567137 L-12.707977769252622,-4.711544559684313 L-12.649333884156814,-4.720567260515518 L-12.592582807034514,-4.733953795584153 L-12.537861256201314,-4.7516719155547165 L-12.485301060666215,-4.773678935924275 L-12.435028842543995,-4.799921839853168 " />
			<path d="M-12.43502884254399,-4.7999218398531704 L-12.387165712011445,-4.8303374058872155 L-12.341826975542322,-4.864852360263757 L-12.299121858123977,-4.903383553434549 L-12.259153240124801,-4.945838160380308 L-12.222017409446389,-4.992113904234321 L-12.18780382955756,-5.042099302676364 L-12.156594923969022,-5.095673936503388 L-12.128465877667914,-5.1527087397299205 L-12.103484455990591,-5.213066310519329 L-12.081710841369986,-5.276601242196882 L-12.063197488350864,-5.343160473547169 L-12.047988997222227,-5.412583657551965 L-12.03612200657131,-5.484703547680249 L-12.027625105018014,-5.559346400799748 L-12.022518762342424,-5.6363323957393545 L-12.020815280171309,-5.715476066494076 " />
			<path d="M-10.253048327204938,-6.736096792653742 L-10.254751809376057,-6.656953121898971 L-10.259858152051653,-6.579967126959325 L-10.268355053604957,-6.505324273839791 L-10.280222044255886,-6.433204383711473 L-10.29543053538454,-6.363781199706647 L-10.313943888403681,-6.297221968356334 L-10.33571750302431,-6.233687036678758 L-10.360698924701657,-6.173329465889331 L-10.388827971002794,-6.116294662662785 L-10.420036876591363,-6.06272002883575 L-10.454250456480226,-6.012734630393701 L-10.491386287158676,-5.966458886539687 L-10.531354905157892,-5.9240042795939285 L-10.574060022576276,-5.885473086423145 L-10.619398759045444,-5.850958132046617 L-10.667261889578025,-5.820542566012595 " />
			<path d="M-10.667261889578034,-5.820542566012589 L-10.71753410770028,-5.794299662083729 L-10.770094303235398,-5.772292641714206 L-10.824815854068616,-5.754574521743679 L-10.881566931190932,-5.741187986675081 L-10.940210816286754,-5.732165285843914 L-11.000606231100289,-5.727528155726774 L-11.062607677787234,-5.72728776757628 L-11.126065789431838,-5.731444700508542 L-11.190827689884873,-5.739988940108019 L-11.256737362055677,-5.752899902553132 L-11.323636023770984,-5.770146484204483 L-11.391362510295092,-5.791687136536252 L-11.459753662589822,-5.817469966230233 L-11.528644720378944,-5.8474328601913825 L-11.597869719070093,-5.881503635183712 L-11.667261889578034,-5.919600211726015 L-11.736654060085975,-5.961630811828536 L-11.805879058777126,-6.007494180094182 L-11.874770116566246,-6.057079827651644 L-11.943161268860978,-6.110268298332767 L-12.010887755385085,-6.166931456452921 L-12.077786417100391,-6.226932795501086 L-12.143696089271195,-6.290127766996001 L-12.20845798972423,-6.356364128716106 L-12.271916101368836,-6.4254823114644 L-12.333917548055782,-6.497315803484603 L-12.394312962869314,-6.571691551602568 L-12.452956847965137,-6.648430378126532 L-12.509707925087454,-6.727347412501873 L-12.56442947592067,-6.808252536680462 L-12.616989671455789,-6.890950843131704 L-12.667261889578034,-6.975243104391841 L-12.715125020110625,-7.060926253020367 L-12.760463756579792,-7.147793870807277 L-12.803168873998176,-7.23563668605262 L-12.843137491997393,-7.324243077720347 L-12.880273322675842,-7.413399585251926 L-12.914486902564706,-7.502891422811527 L-12.945695808153275,-7.592502996723911 L-12.97382485445441,-7.682018424858474 L-12.99880627613176,-7.771222056708215 L-13.020579890752387,-7.859898992910692 L-13.039093243771529,-7.947835602959412 L-13.054301734900182,-8.03482003985843 L-13.066168725551112,-8.120642750480318 L-13.074665627104416,-8.205096980398011 L-13.079771969780012,-8.287979271974315 L-13.081475451951128,-8.369089954509192 L-13.079771969780012,-8.448233625263962 L-13.074665627104416,-8.525219620203607 L-13.066168725551112,-8.599862473323144 L-13.054301734900182,-8.671982363451463 L-13.039093243771529,-8.741405547456287 L-13.020579890752387,-8.8079647788066 L-12.99880627613176,-8.871499710484176 L-12.97382485445441,-8.931857281273604 L-12.945695808153275,-8.98889208450015 L-12.914486902564706,-9.042466718327184 L-12.880273322675842,-9.092452116769234 L-12.843137491997393,-9.138727860623248 L-12.803168873998178,-9.181182467569005 L-12.760463756579792,-9.219713660739789 L-12.715125020110625,-9.254228615116318 L-12.66726188957804,-9.284644181150341 " />
			<path d="M-12.667261889578034,-9.284644181150345 L-12.629777051225025,-9.30472117690269 L-12.590987782657058,-9.322423635049612 L-12.550946652286507,-9.337727564674182 L-12.509707925087454,-9.350612225419255 L-12.46732748905411,-9.361060155595439 L-12.423862779459693,-9.369057195845723 L-12.379372701018372,-9.374592508334665 L-12.333917548055782,-9.377658591436159 L-12.287558922796293,-9.378251289899882 L-12.240359651877785,-9.376369800482609 L-12.192383701207044,-9.37201667303679 L-12.143696089271195,-9.365197807054916 L-12.09436279902265,-9.355922443674345 L-12.044450688456962,-9.344203153153432 L-11.99402740000483,-9.330055817835914 L-11.943161268860978,-9.313499610626682 L-11.89192123037419,-9.294556969008065 L-11.840376726624015,-9.273253564631856 L-11.788597612310701,-9.24961826852831 L-11.736654060085975,-9.223683111979222 L-11.632555351363635,-9.165056879246618 L-11.528644720378944,-9.097692567068753 L-11.425485267844296,-9.021955228489938 L-11.323636023770984,-8.938255290710014 L-11.223648918037126,-8.847046330943792 L-11.126065789431838,-8.748822618446829 L-11.03141544938389,-8.644116436027504 L-10.940210816286756,-8.533495195560368 L-10.852946135949395,-8.417558363132024 L-10.770094303235398,-8.296934210482473 L-10.692104299404743,-8.172276410346116 L-10.619398759045444,-8.044260494142568 L-10.552371679780109,-7.913580191213374 L-10.491386287158676,-7.780943669442589 L-10.436773066307696,-7.647069697633663 L-10.388827971002794,-7.512683750439024 L-10.347810819869514,-7.378514076950068 L-10.313943888403681,-7.245287754252242 L-10.28741070444123,-7.113726747331327 L-10.268355053604957,-6.984543996682616 L-10.256880200117774,-6.858439554824603 L-10.253048327204938,-6.736096792653756 " />
			<path d="M14.495689014324226,7.552593373581466 L14.493985532153108,7.631737044336237 L14.488879189477512,7.708723039275883 L14.480382287924208,7.783365892395417 L14.468515297273278,7.8554857825237345 L14.453306806144624,7.924908966528561 L14.434793453125483,7.9914681978788735 L14.413019838504855,8.05500312955645 L14.388038416827508,8.115360700345876 L14.35990937052637,8.172395503572423 L14.328700464937802,8.225970137399457 L14.294486885048938,8.275955535841506 L14.257351054370488,8.32223127969552 L14.217382436371272,8.36468588664128 L14.174677318952888,8.403217079812062 L14.12933858248372,8.437732034188592 L14.081475451951139,8.468147600222613 " />
			<path d="M14.08147545195113,8.468147600222618 L14.047029953968494,8.486709559759401 L14.011476365856634,8.50326248021732 L13.974855489641703,8.517787365125715 L13.93720935219155,8.530267545429071 L13.898581156984825,8.540688698616773 L13.859015234529778,8.549038865159911 L13.818556991489663,8.555308462236276 L13.777252858573117,8.55949029472781 L13.735150237249337,8.561579563477869 L13.692297445349169,8.561573870798824 L13.648743661614583,8.559473223223716 L13.604538869260145,8.555280031498736 L13.514379868884951,8.54063766029408 L13.422234198745421,8.517713953441145 L13.32852473051858,8.486614111611287 L13.233681512408783,8.447480857107674 L13.13813979558557,8.400493778889123 L13.042338036744276,8.345868508406731 L12.94671588595595,8.283855730035595 L12.851712169040658,8.214740030642874 L12.757762873723431,8.138838593571705 L12.665299148814693,8.056499743034557 " />
			<path d="M11.729884802121203,6.4363145684325875 L11.70480912829199,6.3150692084645055 L11.686051203263226,6.195756013516556 L11.673697110246446,6.078922531517605 L11.667803544211953,5.965104930584841 L11.66839755170625,5.854825538459856 L11.675476406730985,5.748590445460497 L11.689007623252994,5.646887181948937 L11.708929104288078,5.550182480974433 L11.735149426874296,5.458920136358393 L11.767548261627018,5.373518966051336 L11.786019247247467,5.333139897040886 L11.805976924950315,5.294370890108247 L11.827398390895732,5.257256437360091 L11.850259061370505,5.221839132102809 L11.874532701000819,5.18815961996156 L11.9001914528605,5.156256552234518 L11.927205870440213,5.12616654153585 L11.955544951440855,5.097924119778333 L11.985176173352448,5.071561698543819 L12.016065530777627,5.04710953188704 L12.04817757445694,5.024595681615439 L12.081475451951125,5.004045985084866 " />
			<path d="M12.08147545195113,5.004045985084863 L12.11896029030414,4.983968989332517 L12.157749558872107,4.966266531185596 L12.197790689242657,4.9509626015610255 L12.23902941644171,4.938077940815954 L12.281409852475054,4.927630010639768 L12.324874562069471,4.919632970389484 L12.369364640510792,4.914097657900543 L12.414819793473383,4.911031574799049 L12.461178418732871,4.910438876335324 L12.508377689651379,4.912320365752598 L12.55635364032212,4.916673493198418 L12.60504125225797,4.923492359180293 L12.654374542506515,4.932767722560863 L12.704286653072202,4.944487013081777 L12.754709941524334,4.958634348399294 L12.805576072668186,4.975190555608525 L12.856816111154973,4.994133197227143 L12.908360614905149,5.0154366016033505 L12.960139729218463,5.039071897706897 L13.01208328144319,5.065007054255985 L13.11618199016553,5.123633286988589 L13.22009262115022,5.1909975991664545 L13.323252073684868,5.2667349377452695 L13.42510131775818,5.3504348755251945 L13.525088423492038,5.441643835291416 L13.622671552097326,5.539867547788379 L13.717321892145275,5.6445737302077035 L13.808526525242408,5.7551949706748395 L13.89579120557977,5.871131803103185 L13.978643038293766,5.991755955752735 L14.056633042124421,6.116413755889092 L14.12933858248372,6.2444296720926395 L14.196365661749056,6.375109975021834 L14.257351054370488,6.507746496792619 L14.311964275221468,6.641620468601545 L14.35990937052637,6.776006415796184 L14.40092652165965,6.91017608928514 L14.434793453125483,7.0434024119829655 L14.461326637087934,7.1749634189038805 L14.480382287924208,7.304146169552592 L14.49185714141139,7.430250611410605 L14.495689014324226,7.552593373581452 " />
			<path d="M-14.435028842544405,-8.264023454990687 L-12.667261889578036,-9.284644181150345 " />
			<path d="M-12.435028842544403,-4.7999218398529315 L-10.667261889578034,-5.820542566012589 " />
			<path d="M10.313708498984761,6.024666711244521 L12.08147545195113,5.004045985084863 " />
			<path d="M12.313708498984763,9.488768326382276 L14.081475451951132,8.468147600222618 " />

       </g>

       <!-- solid lines -->
       <g  stroke="rgb(0,0,0)" fill="none">
			<path d="M-16.617009357883866,-23.06602841120826 L-39.95153313703994,-9.593834825900776 " />
			<path d="M-39.95153313703994,-9.593834825900782 L-39.95153313703994,-7.144345083117603 " />
			<path d="M-16.617009357883866,-23.06602841120826 L18.73832970144352,-2.653613888015105 " />
			<path d="M-39.95153313703994,-9.593834825900782 L-4.596194077712553,10.818579697292375 " />
			<path d="M18.73832970144351,-2.6536138880151103 L-4.5961940777125605,10.818579697292375 " />
			<path d="M18.73832970144351,-2.6536138880151103 L18.73832970144351,21.841283539816672 " />
			<path d="M-2.474873734152915,12.043324568683962 L16.617009357883873,23.066028411208265 " />
			<path d="M18.73832970144351,21.841283539816676 L16.61700935788387,23.066028411208265 " />
			<path d="M16.617009357883866,1.0206207261596574 L16.617009357883866,23.066028411208265 " />
			<path d="M12.727922061357857,8.573214099741126 L12.724090188445022,8.450871337570241 L12.712615334957833,8.324766895712207 L12.693559684121553,8.19558414506347 L12.667026500159093,8.064023138142531 L12.633159568693248,7.930796815444682 L12.592142417559955,7.796627141955701 L12.544197322255037,7.662241194761038 L12.489584101404038,7.528367222952091 L12.428598708782586,7.395730701181284 L12.361571629517229,7.26505039825207 L12.288866089157906,7.137034482048507 L12.210876085327229,7.012376681912135 L12.128024252613208,6.8917525292625745 L12.040759572275823,6.775815696834222 L11.949554939178663,6.66519445636708 L11.85490459913069,6.560488273947754 L11.757321470525376,6.462264561450792 L11.657334364791494,6.371055601684576 L11.555485120718158,6.287355663904662 L11.452325668183489,6.211618325325862 L11.348415037198777,6.144254013148014 L11.244316328476419,6.085627780415434 L11.192372776251684,6.0596926238663595 L11.140593661938365,6.036057327762827 L11.089049158188182,6.014753923386635 L11.037809119701388,5.995811281768034 L10.98694298855753,5.97925507455882 L10.936519700105395,5.965107739241321 L10.886607589539704,5.9533884487204265 L10.837274299291154,5.944113085339877 L10.788586687355302,5.937294219358025 L10.74061073668456,5.932941091912227 L10.693411465766053,5.931059602494976 L10.647052840506564,5.931652300958724 L10.601597687543974,5.934718384060244 L10.557107609102655,5.9402536965492105 L10.513642899508241,5.948250736799522 L10.471262463474902,5.958698666975734 L10.430023736275853,5.971583327720834 L10.38998260590531,5.986887257345433 L10.35119333733735,6.004589715492385 L10.313708498984356,6.0246667112447545 " />
			<path d="M10.313708498984347,6.02466671124476 L10.265845368451778,6.055082277278822 L10.220506631982632,6.089597231655385 L10.177801514564269,6.128128424826202 L10.137832896565078,6.170583031771992 L10.100697065886653,6.216858775626037 L10.066483485997814,6.266844174068118 L10.03527458040927,6.320418807895182 L10.007145534108162,6.377453611121757 L9.982164112430839,6.437811181911211 L9.960390497810238,6.501346113588815 L9.941877144791125,6.5679053449391525 L9.9266686536625,6.637328528944001 L9.914801663011596,6.709448419072341 L9.90630476145832,6.784091272191897 L9.901198418782755,6.861077267131561 L9.899494936611667,6.940220937886348 L9.901198418782812,7.021331620421242 L9.906304761458436,7.104213911997561 L9.914801663011769,7.188668141915263 L9.926668653662727,7.2744908525371645 L9.941877144791409,7.361475289436191 L9.960390497810579,7.449411899484918 L9.982164112431233,7.538088835687401 L10.00714553410861,7.627292467537146 L10.03527458040977,7.71680789567171 L10.066483485998365,7.806419469584093 L10.100697065887253,7.895911307143693 L10.137832896565728,7.9850678146752685 L10.177801514564967,8.07367420634299 L10.220506631983374,8.161517021588324 L10.265845368452563,8.248384639375226 L10.313708498985175,8.334067788003741 L10.36398071710744,8.418360049263866 L10.416540912642578,8.501058355715093 L10.471262463475812,8.581963479893666 L10.528013540598145,8.66088051426899 L10.586657425693982,8.737619340792936 L10.64705284050753,8.81199508891088 L10.709054287194489,8.883828580931059 L10.772512398839105,8.95294676367933 L10.837274299292151,9.019183125399412 L10.903183971462964,9.082378096894299 L10.970082633178277,9.142379435942438 L11.037809119702391,9.199042594062561 L11.106200271997128,9.252231064743654 L11.175091329786252,9.301816712301086 L11.244316328477405,9.3476800805667 L11.313708498985346,9.38971068066919 L11.383100669493286,9.427807257211459 L11.452325668184436,9.461878032203753 L11.521216725973552,9.491840926164869 L11.589607878268279,9.517623755858814 L11.65733436479238,9.539164408190546 L11.724233026507678,9.55641098984186 L11.790142698678473,9.569321952286936 L11.854904599131498,9.577866191886377 L11.91836271077609,9.582023124818601 L11.980364157463024,9.581782736668071 L12.040759572276542,9.577145606550895 L12.09940345737235,9.56812290571969 L12.15615453449465,9.554736370651055 L12.21087608532785,9.537018250680491 L12.26343628086295,9.515011230310932 L12.31370849898517,9.48876832638204 " />
			<path d="M12.313708498985175,9.488768326382036 L12.36157162951772,9.458352760347992 L12.406910365986842,9.423837805971452 L12.449615483405188,9.38530661280066 L12.489584101404363,9.3428520058549 L12.526719932082775,9.296576262000887 L12.560933511971605,9.246590863558843 L12.592142417560142,9.19301622973182 L12.62027146386125,9.135981426505287 L12.645252885538573,9.075623855715879 L12.667026500159178,9.012088924038325 L12.6855398531783,8.945529692688039 L12.700748344306938,8.876106508683243 L12.712615334957855,8.803986618554958 L12.72111223651115,8.729343765435459 L12.72621857918674,8.652357770495852 L12.727922061357855,8.573214099741133 " />
			<path d="M-39.95153313703994,-7.144345083117603 L-4.596194077712553,13.268069440075553 " />
			<path d="M16.617009357883866,1.0206207261596578 L-4.596194077712564,13.268069440075553 " />
			<path d="M-4.5961940777125605,10.818579697292371 L-4.5961940777125605,13.26806944007555 " />
			<path d="M12.66529914881469,8.056499743034554 L12.583893240069779,7.977395095846758 L12.50432837719439,7.893697665678845 L12.426898948851658,7.8057171316238785 L12.351891442632631,7.713779020187735 L12.279583385056966,7.618223500846472 L12.210242314729452,7.519404127424951 L12.144124792451631,7.417686529953591 L12.08147545195113,7.313447061843368 L12.02252609474095,7.207071407384481 L11.967494832457742,7.098953154720924 L11.916585279852402,6.9894923395809325 L11.869985801418885,6.879093965151469 L11.827868814448733,6.768166503573201 L11.790390151089976,6.657120384600405 L11.757688481770785,6.546366477017736 L11.729884802121205,6.4363145684325955 " />

       </g>
    </g>
  </g>
  <line x1="34" y1="268.0" x2="789" y2="268.0" stroke="#0000ff" stroke-width="0.4" stroke-dasharray="12,3,2,3" fill="none"/>
  <line x1="411.5" y1="34" x2="411.5" y2="502" stroke="#0000ff" stroke-width="0.4" stroke-dasharray="12,3,2,3" fill="none"/>
  <line x1="797" y1="268.0" x2="1552" y2="268.0" stroke="#0000ff" stroke-width="0.4" stroke-dasharray="12,3,2,3" fill="none"/>
  <line x1="1174.5" y1="34" x2="1174.5" y2="502" stroke="#0000ff" stroke-width="0.4" stroke-dasharray="12,3,2,3" fill="none"/>
  <line x1="34" y1="744.0" x2="789" y2="744.0" stroke="#0000ff" stroke-width="0.4" stroke-dasharray="12,3,2,3" fill="none"/>
  <line x1="411.5" y1="510" x2="411.5" y2="978" stroke="#0000ff" stroke-width="0.4" stroke-dasharray="12,3,2,3" fill="none"/>
  <line x1="0" y1="54" x2="18" y2="54" stroke="#1a1a8c" stroke-width="0.7"/>
  <line x1="0" y1="482" x2="18" y2="482" stroke="#1a1a8c" stroke-width="0.7"/>
  <line x1="4" y1="54" x2="4" y2="482" stroke="#1a1a8c" stroke-width="0.8"/>
  <polygon points="4,54 1,61 7,61" fill="#1a1a8c"/>
  <polygon points="4,482 1,475 7,475" fill="#1a1a8c"/>
  <text x="-4" y="268.0" text-anchor="middle" font-size="10" fill="#1a1a8c" font-family="Arial, Helvetica, sans-serif" transform="rotate(-90,-4,268.0)">30.0 mm</text>
  <polygon points="411.5,492 402.5,506.4 420.5,506.4" fill="#1a1a8c" stroke="#1a1a8c" stroke-width="0.5"/>
  <rect x="402.5" y="506.4" width="18" height="18" fill="white" stroke="#1a1a8c" stroke-width="1"/>
  <text x="411.5" y="520.4" text-anchor="middle" font-size="11" font-weight="bold" fill="#1a1a8c" font-family="Arial, Helvetica, sans-serif">A</text>
  <line x1="46" y1="268.0" x2="777" y2="268.0" stroke="#555" stroke-width="1" stroke-dasharray="8,4"/>
  <polygon points="46,268.0 56,264.0 56,272.0" fill="#555"/>
  <polygon points="777,268.0 767,264.0 767,272.0" fill="#555"/>
  <text x="60" y="262.0" font-size="10" font-weight="bold" fill="#555" font-family="Arial, Helvetica, sans-serif">A</text>
  <text x="757" y="262.0" font-size="10" font-weight="bold" fill="#555" font-family="Arial, Helvetica, sans-serif">A</text>
  <line x1="54" y1="508" x2="54" y2="526" stroke="#1a1a8c" stroke-width="0.7"/>
  <line x1="769" y1="508" x2="769" y2="526" stroke="#1a1a8c" stroke-width="0.7"/>
  <line x1="54" y1="522" x2="769" y2="522" stroke="#1a1a8c" stroke-width="0.8"/>
  <polygon points="54,522 61,519 61,525" fill="#1a1a8c"/>
  <polygon points="769,522 762,519 762,525" fill="#1a1a8c"/>
  <text x="411.5" y="518" text-anchor="middle" font-size="10" fill="#1a1a8c" font-family="Arial, Helvetica, sans-serif">50.0 mm</text>
  <line x1="817" y1="6" x2="817" y2="24" stroke="#1a1a8c" stroke-width="0.7"/>
  <line x1="1532" y1="6" x2="1532" y2="24" stroke="#1a1a8c" stroke-width="0.7"/>
  <line x1="817" y1="20" x2="1532" y2="20" stroke="#1a1a8c" stroke-width="0.8"/>
  <polygon points="817,20 824,17 824,23" fill="#1a1a8c"/>
  <polygon points="1532,20 1525,17 1525,23" fill="#1a1a8c"/>
  <text x="1174.5" y="16" text-anchor="middle" font-size="10" fill="#1a1a8c" font-family="Arial, Helvetica, sans-serif">50.0 mm</text>
  <line x1="1570" y1="54" x2="1588" y2="54" stroke="#1a1a8c" stroke-width="0.7"/>
  <line x1="1570" y1="482" x2="1588" y2="482" stroke="#1a1a8c" stroke-width="0.7"/>
  <line x1="1574" y1="54" x2="1574" y2="482" stroke="#1a1a8c" stroke-width="0.8"/>
  <polygon points="1574,54 1571,61 1577,61" fill="#1a1a8c"/>
  <polygon points="1574,482 1571,475 1577,475" fill="#1a1a8c"/>
  <text x="1566" y="268.0" text-anchor="middle" font-size="10" fill="#1a1a8c" font-family="Arial, Helvetica, sans-serif" transform="rotate(-90,1566,268.0)">30.0 mm</text>
  <text x="627" y="76" font-size="8" font-weight="bold" fill="#333" font-family="Arial, Helvetica, sans-serif">GD&amp;T CALLOUTS</text>
  <rect x="627" y="80" width="98" height="22" fill="#fffff8" stroke="#000000" stroke-width="1"/>
  <line x1="655" y1="80" x2="655" y2="102" stroke="#000000" stroke-width="1"/>
  <text x="641.0" y="97" text-anchor="middle" font-size="13" font-weight="bold" fill="#1a1a8c" font-family="Arial, Helvetica, sans-serif">▭</text>
  <text x="661" y="97" font-size="10" fill="#000" font-family="Arial, Helvetica, sans-serif">0.05</text>
  <line x1="627" y1="91.0" x2="603.0" y2="192.7" stroke="#999" stroke-width="0.5" stroke-dasharray="4,3"/>
  <rect x="627" y="108" width="123" height="22" fill="#fffff8" stroke="#000000" stroke-width="1"/>
  <line x1="655" y1="108" x2="655" y2="130" stroke="#000000" stroke-width="1"/>
  <line x1="725" y1="108" x2="725" y2="130" stroke="#000000" stroke-width="1"/>
  <text x="641.0" y="125" text-anchor="middle" font-size="13" font-weight="bold" fill="#1a1a8c" font-family="Arial, Helvetica, sans-serif">⊥</text>
  <text x="661" y="125" font-size="10" fill="#000" font-family="Arial, Helvetica, sans-serif">0.05</text>
  <text x="737.5" y="125" text-anchor="middle" font-size="10" font-weight="bold" fill="#000" font-family="Arial, Helvetica, sans-serif">A</text>
  <line x1="627" y1="119.0" x2="411.5" y2="72.0" stroke="#999" stroke-width="0.5" stroke-dasharray="4,3"/>
  <rect x="627" y="136" width="123" height="22" fill="#fffff8" stroke="#000000" stroke-width="1"/>
  <line x1="655" y1="136" x2="655" y2="158" stroke="#000000" stroke-width="1"/>
  <line x1="725" y1="136" x2="725" y2="158" stroke="#000000" stroke-width="1"/>
  <text x="641.0" y="153" text-anchor="middle" font-size="13" font-weight="bold" fill="#1a1a8c" font-family="Arial, Helvetica, sans-serif">⊕</text>
  <text x="661" y="153" font-size="10" fill="#000" font-family="Arial, Helvetica, sans-serif">Ø0.15</text>
  <text x="737.5" y="153" text-anchor="middle" font-size="10" font-weight="bold" fill="#000" font-family="Arial, Helvetica, sans-serif">A</text>
  <line x1="627" y1="147.0" x2="603.0" y2="82.0" stroke="#999" stroke-width="0.5" stroke-dasharray="4,3"/>
  <rect x="627" y="164" width="100" height="22" fill="#fffff8" stroke="#000000" stroke-width="0.8"/>
  <text x="633" y="179" font-size="11" fill="#1a1a8c" font-family="Arial, Helvetica, sans-serif">∇∇ Ra 3.2</text>
  <rect x="30" y="983" width="1527" height="110" fill="white" stroke="black" stroke-width="1.5"/>
  <rect x="30" y="983" width="1527" height="22" fill="#1a1a8c"/>
  <text x="793.5" y="998" text-anchor="middle" font-size="13" fill="white" font-weight="bold" font-family="Arial, Helvetica, sans-serif">ARIA-OS ENGINEERING DRAWING</text>
  <text x="34" y="1014.0" font-size="7" fill="#666" font-family="Arial, Helvetica, sans-serif">PART ID</text>
  <text x="34" y="1045.0" font-size="10" fill="#000" font-weight="bold" font-family="Arial, Helvetica, sans-serif">l_bracket</text>
  <line x1="30" y1="1049.0" x2="335.40000000000003" y2="1049.0" stroke="#aaa" stroke-width="0.5"/>
  <text x="34" y="1058.0" font-size="7" fill="#666" font-family="Arial, Helvetica, sans-serif">MATERIAL</text>
  <text x="34" y="1089.0" font-size="10" fill="#000" font-weight="bold" font-family="Arial, Helvetica, sans-serif">—</text>
  <line x1="335.40000000000003" y1="1005" x2="335.40000000000003" y2="1093" stroke="black" stroke-width="0.8"/>
  <text x="339.40000000000003" y="1014.0" font-size="7" fill="#666" font-family="Arial, Helvetica, sans-serif">SCALE</text>
  <text x="339.40000000000003" y="1045.0" font-size="10" fill="#000" font-weight="bold" font-family="Arial, Helvetica, sans-serif">1:1</text>
  <line x1="335.40000000000003" y1="1049.0" x2="640.8000000000001" y2="1049.0" stroke="#aaa" stroke-width="0.5"/>
  <text x="339.40000000000003" y="1058.0" font-size="7" fill="#666" font-family="Arial, Helvetica, sans-serif">DATE</text>
  <text x="339.40000000000003" y="1089.0" font-size="10" fill="#000" font-weight="bold" font-family="Arial, Helvetica, sans-serif">2026-04-01</text>
  <line x1="640.8000000000001" y1="1005" x2="640.8000000000001" y2="1093" stroke="black" stroke-width="0.8"/>
  <text x="644.8000000000001" y="1014.0" font-size="7" fill="#666" font-family="Arial, Helvetica, sans-serif">DRAWN BY</text>
  <text x="644.8000000000001" y="1045.0" font-size="10" fill="#000" font-weight="bold" font-family="Arial, Helvetica, sans-serif">ARIA-OS v2.0</text>
  <line x1="640.8000000000001" y1="1049.0" x2="946.2" y2="1049.0" stroke="#aaa" stroke-width="0.5"/>
  <text x="644.8000000000001" y="1058.0" font-size="7" fill="#666" font-family="Arial, Helvetica, sans-serif">DWG NO.</text>
  <text x="644.8000000000001" y="1089.0" font-size="10" fill="#000" font-weight="bold" font-family="Arial, Helvetica, sans-serif">ARIA-20260401-001</text>
  <line x1="946.2" y1="1005" x2="946.2" y2="1093" stroke="black" stroke-width="0.8"/>
  <text x="950.2" y="1014.0" font-size="7" fill="#666" font-family="Arial, Helvetica, sans-serif">TOLERANCE</text>
  <text x="950.2" y="1045.0" font-size="10" fill="#000" font-weight="bold" font-family="Arial, Helvetica, sans-serif">±0.1 GENERAL / ±0.05 MACH.</text>
  <line x1="946.2" y1="1049.0" x2="1251.6000000000001" y2="1049.0" stroke="#aaa" stroke-width="0.5"/>
  <text x="950.2" y="1058.0" font-size="7" fill="#666" font-family="Arial, Helvetica, sans-serif">UNITS</text>
  <text x="950.2" y="1089.0" font-size="10" fill="#000" font-weight="bold" font-family="Arial, Helvetica, sans-serif">MILLIMETRES</text>
  <line x1="1251.6000000000001" y1="1005" x2="1251.6000000000001" y2="1093" stroke="black" stroke-width="0.8"/>
  <text x="1255.6000000000001" y="1014.0" font-size="7" fill="#666" font-family="Arial, Helvetica, sans-serif">APPROVED</text>
  <text x="1255.6000000000001" y="1045.0" font-size="10" fill="#000" font-weight="bold" font-family="Arial, Helvetica, sans-serif"></text>
  <line x1="1251.6000000000001" y1="1049.0" x2="1404.3000000000002" y2="1049.0" stroke="#aaa" stroke-width="0.5"/>
  <text x="1255.6000000000001" y="1058.0" font-size="7" fill="#666" font-family="Arial, Helvetica, sans-serif"></text>
  <text x="1255.6000000000001" y="1089.0" font-size="10" fill="#000" font-weight="bold" font-family="Arial, Helvetica, sans-serif"></text>
  <line x1="1404.3000000000002" y1="1005" x2="1404.3000000000002" y2="1093" stroke="black" stroke-width="0.8"/>
  <text x="1408.3000000000002" y="1014.0" font-size="7" fill="#666" font-family="Arial, Helvetica, sans-serif">REV</text>
  <text x="1408.3000000000002" y="1045.0" font-size="10" fill="#000" font-weight="bold" font-family="Arial, Helvetica, sans-serif">—</text>
  <line x1="1404.3000000000002" y1="1049.0" x2="1557.0000000000002" y2="1049.0" stroke="#aaa" stroke-width="0.5"/>
  <text x="1408.3000000000002" y="1058.0" font-size="7" fill="#666" font-family="Arial, Helvetica, sans-serif"></text>
  <text x="1408.3000000000002" y="1089.0" font-size="10" fill="#000" font-weight="bold" font-family="Arial, Helvetica, sans-serif"></text>
</svg>