<svg xmlns="http://www.w3.org/2000/svg" width="1587" height="1123" viewBox="0 0 1587 1123" font-family="Arial, Helvetica, sans-serif" font-size="12">
  <rect width="1587" height="1123" fill="white"/>
  <rect x="20" y="20" width="1547" height="1083" fill="none" stroke="black" stroke-width="2"/>
  <rect x="30" y="30" width="1527" height="1063" fill="none" stroke="black" stroke-width="1"/>
  <rect x="20" y="20.0" width="16" height="270.75" fill="none" stroke="#888" stroke-width="0.4"/>
  <text x="28.0" y="159.375" text-anchor="middle" font-size="9" fill="#444" font-family="Arial, Helvetica, sans-serif">A</text>
  <rect x="1551" y="20.0" width="16" height="270.75" fill="none" stroke="#888" stroke-width="0.4"/>
  <text x="1559.0" y="159.375" text-anchor="middle" font-size="9" fill="#444" font-family="Arial, Helvetica, sans-serif">A</text>
  <rect x="20" y="290.75" width="16" height="270.75" fill="none" stroke="#888" stroke-width="0.4"/>
  <text x="28.0" y="430.125" text-anchor="middle" font-size="9" fill="#444" font-family="Arial, Helvetica, sans-serif">B</text>
  <rect x="1551" y="290.75" width="16" height="270.75" fill="none" stroke="#888" stroke-width="0.4"/>
  <text x="1559.0" y="430.125" text-anchor="middle" font-size="9" fill="#444" font-family="Arial, Helvetica, sans-serif">B</text>
  <rect x="20" y="561.5" width="16" height="270.75" fill="none" stroke="#888" stroke-width="0.4"/>
  <text x="28.0" y="700.875" text-anchor="middle" font-size="9" fill="#444" font-family="Arial, Helvetica, sans-serif">C</text>
  <rect x="1551" y="561.5" width="16" height="270.75" fill="none" stroke="#888" stroke-width="0.4"/>
  <text x="1559.0" y="700.875" text-anchor="middle" font-size="9" fill="#444" font-family="Arial, Helvetica, sans-serif">C</text>
  <rect x="20" y="832.25" width="16" height="270.75" fill="none" stroke="#888" stroke-width="0.4"/>
  <text x="28.0" y="971.625" text-anchor="middle" font-size="9" fill="#444" font-family="Arial, Helvetica, sans-serif">D</text>
  <rect x="1551" y="832.25" width="16" height="270.75" fill="none" stroke="#888" stroke-width="0.4"/>
  <text x="1559.0" y="971.625" text-anchor="middle" font-size="9" fill="#444" font-family="Arial, Helvetica, sans-serif">D</text>
  <rect x="20.0" y="20" width="193.375" height="16" fill="none" stroke="#888" stroke-width="0.4"/>
  <text x="116.6875" y="32" text-anchor="middle" font-size="9" fill="#444" font-family="Arial, Helvetica, sans-serif">1</text>
  <rect x="20.0" y="1087" width="193.375" height="16" fill="none" stroke="#888" stroke-width="0.4"/>
  <text x="116.6875" y="1099" text-anchor="middle" font-size="9" fill="#444" font-family="Arial, Helvetica, sans-serif">1</text>
  <rect x="213.375" y="20" width="193.375" height="16" fill="none" stroke="#888" stroke-width="0.4"/>
  <text x="310.0625" y="32" text-anchor="middle" font-size="9" fill="#444" font-family="Arial, Helvetica, sans-serif">2</text>
  <rect x="213.375" y="1087" width="193.375" height="16" fill="none" stroke="#888" stroke-width="0.4"/>
  <text x="310.0625" y="1099" text-anchor="middle" font-size="9" fill="#444" font-family="Arial, Helvetica, sans-serif">2</text>
  <rect x="406.75" y="20" width="193.375" height="16" fill="none" stroke="#888" stroke-width="0.4"/>
  <text x="503.4375" y="32" text-anchor="middle" font-size="9" fill="#444" font-family="Arial, Helvetica, sans-serif">3</text>
  <rect x="406.75" y="1087" width="193.375" height="16" fill="none" stroke="#888" stroke-width="0.4"/>
  <text x="503.4375" y="1099" text-anchor="middle" font-size="9" fill="#444" font-family="Arial, Helvetica, sans-serif">3</text>
  <rect x="600.125" y="20" width="193.375" height="16" fill="none" stroke="#888" stroke-width="0.4"/>
  <text x="696.8125" y="32" text-anchor="middle" font-size="9" fill="#444" font-family="Arial, Helvetica, sans-serif">4</text>
  <rect x="600.125" y="1087" width="193.375" height="16" fill="none" stroke="#888" stroke-width="0.4"/>
  <text x="696.8125" y="1099" text-anchor="middle" font-size="9" fill="#444" font-family="Arial, Helvetica, sans-serif">4</text>
  <rect x="793.5" y="20" width="193.375" height="16" fill="none" stroke="#888" stroke-width="0.4"/>
  <text x="890.1875" y="32" text-anchor="middle" font-size="9" fill="#444" font-family="Arial, Helvetica, sans-serif">5</text>
  <rect x="793.5" y="1087" width="193.375" height="16" fill="none" stroke="#888" stroke-width="0.4"/>
  <text x="890.1875" y="1099" text-anchor="middle" font-size="9" fill="#444" font-family="Arial, Helvetica, sans-serif">5</text>
  <rect x="986.875" y="20" width="193.375" height="16" fill="none" stroke="#888" stroke-width="0.4"/>
  <text x="1083.5625" y="32" text-anchor="middle" font-size="9" fill="#444" font-family="Arial, Helvetica, sans-serif">6</text>
  <rect x="986.875" y="1087" width="193.375" height="16" fill="none" stroke="#888" stroke-width="0.4"/>
  <text x="1083.5625" y="1099" text-anchor="middle" font-size="9" fill="#444" font-family="Arial, Helvetica, sans-serif">6</text>
  <rect x="1180.25" y="20" width="193.375" height="16" fill="none" stroke="#888" stroke-width="0.4"/>
  <text x="1276.9375" y="32" text-anchor="middle" font-size="9" fill="#444" font-family="Arial, Helvetica, sans-serif">7</text>
  <rect x="1180.25" y="1087" width="193.375" height="16" fill="none" stroke="#888" stroke-width="0.4"/>
  <text x="1276.9375" y="1099" text-anchor="middle" font-size="9" fill="#444" font-family="Arial, Helvetica, sans-serif">7</text>
  <rect x="1373.625" y="20" width="193.375" height="16" fill="none" stroke="#888" stroke-width="0.4"/>
  <text x="1470.3125" y="32" text-anchor="middle" font-size="9" fill="#444" font-family="Arial, Helvetica, sans-serif">8</text>
  <rect x="1373.625" y="1087" width="193.375" height="16" fill="none" stroke="#888" stroke-width="0.4"/>
  <text x="1470.3125" y="1099" text-anchor="middle" font-size="9" fill="#444" font-family="Arial, Helvetica, sans-serif">8</text>
  <rect x="1475" y="32" width="80" height="20" fill="white" stroke="black" stroke-width="0.8"/>
  <text x="1515.0" y="45" text-anchor="middle" font-size="9" fill="#000" font-family="Arial, Helvetica, sans-serif">REV: &#x2014;</text>
  <line x1="30" y1="506" x2="1557" y2="506" stroke="#888" stroke-width="0.6"/>
  <line x1="793" y1="30" x2="793" y2="983" stroke="#888" stroke-width="0.6"/>
  <rect x="42" y="42" width="739" height="452" fill="#fafafa" stroke="#ccc" stroke-width="0.5"/>
  <rect x="805" y="42" width="739" height="452" fill="#fafafa" stroke="#ccc" stroke-width="0.5"/>
  <rect x="42" y="518" width="739" height="452" fill="#fafafa" stroke="#ccc" stroke-width="0.5"/>
  <rect x="805" y="518" width="739" height="452" fill="#fafafa" stroke="#ccc" stroke-width="0.5"/>
  <text x="46" y="54" font-size="9" font-weight="bold" fill="#444" font-family="Arial, Helvetica, sans-serif">FRONT VIEW</text>
  <text x="809" y="54" font-size="9" font-weight="bold" fill="#444" font-family="Arial, Helvetica, sans-serif">TOP VIEW</text>
  <text x="46" y="530" font-size="9" font-weight="bold" fill="#444" font-family="Arial, Helvetica, sans-serif">RIGHT SIDE VIEW</text>
  <text x="809" y="530" font-size="9" font-weight="bold" fill="#444" font-family="Arial, Helvetica, sans-serif">SECTION A-A</text>
  <clipPath id="clip_front"><rect x="42" y="42" width="739" height="452"/></clipPath>
  <g clip-path="url(#clip_front)" transform="translate(42,68)">
    <g transform="scale(3.5999999999999996, -3.5999999999999996)   translate(80.05555555555557,-30.555555555555557)" stroke-width="0.2777777777777778"  fill="none">
       <!-- hidden lines -->
       <g  stroke="rgb(160,160,160)" fill="none" stroke-dasharray="0.2777777777777778,0.2777777777777778" >
			<path d="M12.5,-25.0 L-12.5,-25.0 " />
			<path d="M-12.5,-25.0 L-12.5,25.0 " />
			<path d="M-12.5,-15.0 L-12.5,-7.0 " />
			<path d="M-12.5,-7.0 L-12.5,-15.0 " />
			<path d="M-12.5,-7.0 L-12.5,-4.472135954999999 " />
			<path d="M-12.5,-4.472135954998772 L-12.5,-3.960438310827474 L-12.5,-3.391633903896856 L-12.5,-2.7739244976920956 L-12.5,-2.1162170317349855 L-12.5,-1.4279951897180023 L-12.5,-0.7191826513890143 L-12.5,7.456257833382551e-13 L-12.5,0.7191826513904949 L-12.5,1.4279951897194505 L-12.5,2.1162170317363813 L-12.5,2.773924497693418 L-12.5,3.391633903898087 L-12.5,3.960438310828595 L-12.5,4.472135954999756 " />
			<path d="M-12.5,4.472135954999999 L-12.5,7.0 " />
			<path d="M-12.5,15.0 L-12.5,7.0 " />
			<path d="M-12.5,7.0 L-12.5,15.0 " />
			<path d="M-12.5,7.0 L-12.5,4.472135954999999 " />
			<path d="M-12.5,4.472135954998772 L-12.5,3.960438310827474 L-12.5,3.391633903896856 L-12.5,2.7739244976920956 L-12.5,2.1162170317349855 L-12.5,1.4279951897180023 L-12.5,0.7191826513890143 L-12.5,-7.456257833382551e-13 L-12.5,-0.7191826513904949 L-12.5,-1.4279951897194505 L-12.5,-2.1162170317363813 L-12.5,-2.773924497693418 L-12.5,-3.391633903898087 L-12.5,-3.960438310828595 L-12.5,-4.472135954999756 " />
			<path d="M-12.5,-4.472135954999999 L-12.5,-7.0 " />
			<path d="M12.5,-25.0 L12.5,25.0 " />
			<path d="M12.5,25.0 L-12.5,25.0 " />
			<path d="M12.5,6.0 L12.5,5.849567473090942 L12.5,5.405813207414514 L12.5,4.690988894808178 L12.5,3.740938811152401 L12.5,2.6033024347053484 L12.5,1.335125603737886 L12.5,-4.87573934346694e-16 L12.5,-1.3351256037378867 L12.5,-2.6033024347053493 L12.5,-3.7409388111524016 L12.5,-4.6909888948081795 L12.5,-5.405813207414515 L12.5,-5.849567473090942 L12.5,-5.999999999999997 " />
			<path d="M12.5,-6.0 L12.5,-5.849567473090942 L12.5,-5.405813207414514 L12.5,-4.690988894808179 L12.5,-3.7409388111524007 L12.5,-2.603302434705348 L12.5,-1.335125603737886 L12.5,5.379130147800821e-16 L12.5,1.335125603737887 L12.5,2.6033024347053493 L12.5,3.7409388111524016 L12.5,4.6909888948081795 L12.5,5.405813207414515 L12.5,5.849567473090941 L12.5,5.999999999999994 " />
			<path d="M-11.5,-7.0 L-12.5,-7.0 " />
			<path d="M-12.5,-7.0 L-24.5,-7.0 " />
			<path d="M-11.5,-7.0 L-12.5,-7.0 " />
			<path d="M-11.5,-7.0 L-11.5,-4.472135955 " />
			<path d="M-12.5,-4.472135955 L-11.5,-4.472135955 " />
			<path d="M12.5,6.0 L-11.5,6.0 " />
			<path d="M-11.5,6.0 L-11.5,5.991851297411639 L-11.5,5.967427323431181 L-11.5,5.926794419291957 L-11.5,5.870062953477676 L-11.5,5.797387021935781 L-11.5,5.70896402951676 L-11.5,5.605034153776344 L-11.5,5.485879692597019 L-11.5,5.35182429740086 L-11.5,5.203232094036474 L-11.5,5.040506693727915 L-11.5,4.864090096772078 L-11.5,4.67446149196238 L-11.5,4.472135954999771 " />
			<path d="M-12.5,4.472135955 L-11.5,4.472135955 " />
			<path d="M-11.5,-4.472135954999766 L-11.5,-4.674461491962492 L-11.5,-4.864090096772287 L-11.5,-5.040506693728204 L-11.5,-5.203232094036828 L-11.5,-5.351824297401262 L-11.5,-5.485879692597451 L-11.5,-5.6050341537767885 L-11.5,-5.7089640295171975 L-11.5,-5.797387021936193 L-11.5,-5.870062953478044 L-11.5,-5.926794419292261 L-11.5,-5.967427323431403 L-11.5,-5.99185129741176 L-11.5,-5.999999999999999 " />
			<path d="M-11.5,-6.0 L-11.5,-5.991851297411519 L-11.5,-5.967427323430959 L-11.5,-5.926794419291653 L-11.5,-5.8700629534773086 L-11.5,-5.797387021935369 L-11.5,-5.708964029516322 L-11.5,-5.605034153775899 L-11.5,-5.485879692596587 L-11.5,-5.351824297400457 L-11.5,-5.203232094036117 L-11.5,-5.040506693727623 L-11.5,-4.864090096771867 L-11.5,-4.674461491962264 L-11.5,-4.472135954999784 " />
			<path d="M-12.5,-4.472135955 L-11.5,-4.472135955 " />
			<path d="M-12.5,4.472135955 L-11.5,4.472135955 " />
			<path d="M-11.5,4.472135954999766 L-11.5,4.674461491962381 L-11.5,4.864090096772081 L-11.5,5.0405066937279175 L-11.5,5.203232094036478 L-11.5,5.351824297400864 L-11.5,5.485879692597024 L-11.5,5.605034153776349 L-11.5,5.708964029516764 L-11.5,5.797387021935785 L-11.5,5.87006295347768 L-11.5,5.9267944192919595 L-11.5,5.967427323431183 L-11.5,5.99185129741164 L-11.5,5.999999999999998 " />
			<path d="M-11.5,4.472135955 L-11.5,7.0 " />
			<path d="M-11.5,7.0 L-12.5,7.0 " />
			<path d="M-12.5,7.0 L-24.5,7.0 " />
			<path d="M-11.5,7.0 L-12.5,7.0 " />
			<path d="M-12.5,15.0 L-24.5,15.0 " />
			<path d="M-24.5,15.0 L-24.5,7.0 " />
			<path d="M-11.5,7.0 L-11.5,4.472135955 " />
			<path d="M-11.5,-4.472135955 L-11.5,-7.0 " />
			<path d="M-24.5,-7.0 L-24.5,-15.0 " />
			<path d="M-12.5,-15.0 L-24.5,-15.0 " />
			<path d="M-11.5,-6.0 L12.5,-6.0 " />

       </g>

       <!-- solid lines -->
       <g  stroke="rgb(0,0,0)" fill="none">
			<path d="M12.5,-25.0 L-12.5,-25.0 " />
			<path d="M12.5,-25.0 L12.5,25.0 " />
			<path d="M-12.5,-25.0 L-12.5,25.0 " />
			<path d="M12.5,25.0 L-12.5,25.0 " />
			<path d="M-12.5,-15.0 L-24.5,-15.0 " />
			<path d="M-24.5,-15.0 L-24.5,-7.0 " />
			<path d="M-12.5,-7.0 L-24.5,-7.0 " />
			<path d="M-12.5,7.0 L-24.5,7.0 " />
			<path d="M-24.5,7.0 L-24.5,15.0 " />
			<path d="M-12.5,15.0 L-24.5,15.0 " />

       </g>
    </g>
  </g>
  <clipPath id="clip_top"><rect x="805" y="42" width="739" height="452"/></clipPath>
  <g clip-path="url(#clip_top)" transform="translate(805,68)">
    <g transform="scale(7.199999999999999, -7.199999999999999)   translate(52.777777777777786,-15.277777777777779)" stroke-width="0.1388888888888889"  fill="none">
       <!-- hidden lines -->
       <g  stroke="rgb(160,160,160)" fill="none" stroke-dasharray="0.1388888888888889,0.1388888888888889" >
			<path d="M-25.0,-12.5 L-25.0,12.5 " />
			<path d="M-25.0,-12.5 L25.0,-12.5 " />
			<path d="M-15.0,-3.0 L-7.0,-3.0 " />
			<path d="M-15.0,3.0 L-15.0,-3.0 " />
			<path d="M-7.0,3.0 L-15.0,3.0 " />
			<path d="M15.0,3.0 L7.0,3.0 " />
			<path d="M15.0,-3.0 L15.0,3.0 " />
			<path d="M7.0,-3.0 L15.0,-3.0 " />
			<path d="M-25.0,12.5 L25.0,12.5 " />
			<path d="M25.0,-12.5 L25.0,12.5 " />
			<path d="M6.0,1.4695761589767999e-15 L5.996043227815972,0.21786603719308847 L5.984178129945927,0.43544472562757214 L5.964420355552935,0.6524490955360408 L5.9367959636410434,0.8685929346336058 L5.901341388685423,1.0835911656101704 L5.858103392578068,1.2971602221257532 L5.807139002952409,1.5090184228129577 L5.748515437968194,1.7188863427933052 L5.682310017655844,1.926487182217429 L5.608610061937199,2.1315471313430585 L5.527512775457175,2.3337957316692735 L5.439125119378223,2.5329662326507307 L5.343563670306669,2.7287959435213764 L5.240954466537032,2.921026579763617 L5.131432841817078,3.1094046037659866 L5.015143246852886,3.2936815592199995 L4.8922390587893405,3.473614398815157 L4.762882378917317,3.6489658047998903 L4.627243818874395,3.819504501985657 L4.485502275621061,3.985005562781348 L4.337844695489202,4.1452507038557025 L4.184465827614095,4.3000285740364435 L4.025567967075081,4.449135033066426 L3.8613606880837237,4.592373420849136 L3.6920605675713283,4.729554816828418 L3.5178908995404288,4.860498289160344 L3.3390814005569474,4.985031133348583 L3.1558679067714897,5.102989100028506 L2.968492062869372,5.214216611599632 L2.7772010033596315,5.318566967420666 L2.5822470266233744,5.415902537296508 L2.383887262151374,5.506094943002021 L2.182383331409793,5.589025227603172 L1.9780010027813437,5.6645840123521864 L1.7710098410369655,5.732671640949812 L1.561682851800369,5.793198310984414 L1.350296121474347,5.846084192374528 L1.1371284531037744,5.891259532658684 L0.9224609986555662,5.928664748993603 L0.706576888200581,5.958250506739439 L0.48976085648655926,5.97997778452843 L0.2722988673946138,5.993817925731112 L0.054477736774585096,5.99975267625224 L-0.16341524584328304,5.997774208606555 L-0.3810926961614182,5.987885132242637 L-0.5982675141529842,5.970098490101249 L-0.8146532627250139,5.94443774141268 L-1.0299645455071849,5.91093673075581 L-1.243917383267956,5.869639643419671 L-1.4562295884616128,5.820600947126415 L-1.6666211374122086,5.7638853201925215 L-1.874814539643529,5.6995675662230045 L-2.0805352038679588,5.627732515451148 L-2.2835118001515364,5.548474912853863 L-2.4834766177775345,5.4618992931902595 L-2.6801659183365647,5.368119843128235 L-2.87332028357751,5.2672602506409385 L-3.0626849575605015,5.159453541871719 L-3.2480101826606544,5.044841905682744 L-3.42905152897941,4.923576506118694 L-3.6055702167290105,4.7958172830328625 L-3.7773334311649065,4.6617327411386364 L-3.9441146296507257,4.521499727764573 L-4.105693840450805,4.375303199606209 L-4.261857952856206,4.223335978782212 L-4.412400998261562,4.065798498516665 L-4.557124421822017,3.902898538782855 L-4.695837344331999,3.734850952257264 L-4.828356813980391,3.561877380945213 L-4.954508047650076,3.384205963851881 L-5.074124661443599,3.202071036084285 L-5.1870488901308915,3.0157128197810694 L-5.2931317952296295,2.825377107277745 L-5.392233461443783,2.631314936925264 L-5.484223181201259,2.4337822619895033 L-5.568979627047277,2.233039613068335 L-5.646391011666053,2.02935175447156 L-5.716355235319796,1.8229873350168846 L-5.778780020510492,1.614218533702532 L-5.833583033686931,1.4033207007238142 L-5.8806919938364,1.1905719943071313 L-5.920044767817854,0.976253013840396 L-5.951589452310806,0.7606464297837484 L-5.975284442271873,0.5440366108486845 L-5.991098485808659,0.3267092489373209 L-5.99901072539864,0.10895098233647071 L-5.99901072539864,-0.10895098233648995 L-5.991098485808658,-0.32670924893734005 L-5.97528444227187,-0.5440366108487035 L-5.951589452310803,-0.7606464297837673 L-5.92004476781785,-0.976253013840415 L-5.880691993836397,-1.1905719943071502 L-5.833583033686927,-1.4033207007238329 L-5.778780020510488,-1.6142185337025508 L-5.71635523531979,-1.8229873350169026 L-5.646391011666047,-2.0293517544715787 L-5.568979627047269,-2.2330396130683536 L-5.4842231812012505,-2.4337822619895215 L-5.392233461443773,-2.6313149369252824 L-5.293131795229621,-2.8253771072777614 L-5.187048890130881,-3.015712819781086 L-5.074124661443588,-3.2020710360843014 L-4.954508047650064,-3.3842059638518966 L-4.828356813980379,-3.561877380945228 L-4.695837344331987,-3.734850952257279 L-4.557124421822005,-3.9028985387828694 L-4.412400998261548,-4.0657984985166795 L-4.261857952856193,-4.2233359787822256 L-4.10569384045079,-4.375303199606221 L-3.9441146296507106,-4.521499727764587 L-3.7773334311648914,-4.661732741138649 L-3.605570216728997,-4.795817283032874 L-3.429051528979398,-4.923576506118702 L-3.2480101826606447,-5.044841905682751 L-3.0626849575604944,-5.159453541871724 L-2.8733202835775047,-5.267260250640943 L-2.680165918336561,-5.3681198431282375 L-2.4834766177775327,-5.46189929319026 L-2.2835118001515364,-5.548474912853863 L-2.08053520386796,-5.6277325154511475 L-1.874814539643532,-5.699567566223003 L-1.6666211374122126,-5.763885320192519 L-1.4562295884616183,-5.8206009471264135 L-1.2439173832679629,-5.869639643419669 L-1.0299645455071929,-5.910936730755808 L-0.8146532627250237,-5.9444377414126786 L-0.5982675141529951,-5.970098490101247 L-0.38109269616143054,-5.987885132242636 L-0.16341524584329667,-5.997774208606554 L0.054477736774570136,-5.99975267625224 L0.2722988673945974,-5.993817925731113 L0.4897608564865416,-5.979977784528431 L0.7065768882005621,-5.958250506739441 L0.9224609986555462,-5.928664748993606 L1.1371284531037533,-5.8912595326586885 L1.3502961214743243,-5.8460841923745335 L1.5616828518003454,-5.793198310984421 L1.7710098410369406,-5.732671640949821 L1.9780010027813182,-5.664584012352196 L2.182383331409767,-5.589025227603182 L2.383887262151347,-5.506094943002032 L2.582247026623347,-5.41590253729652 L2.777201003359602,-5.31856696742068 L2.9684920628693425,-5.214216611599649 L3.1558679067714595,-5.102989100028524 L3.3390814005569163,-4.9850311333486035 L3.5178908995403977,-4.8604982891603665 L3.692060567571296,-4.7295548168284425 L3.861360688083691,-4.592373420849163 L4.025567967075049,-4.449135033066456 L4.184465827614062,-4.300028574036475 L4.337844695489168,-4.145250703855737 L4.485502275621028,-3.985005562781385 L4.627243818874363,-3.8195045019856977 L4.762882378917285,-3.648965804799934 L4.8922390587893085,-3.473614398815203 L5.015143246852854,-3.2936815592200492 L5.1314328418170465,-3.1094046037660386 L5.240954466537002,-2.921026579763672 L5.34356367030664,-2.7287959435214333 L5.439125119378196,-2.53296623265079 L5.527512775457149,-2.3337957316693356 L5.608610061937172,-2.1315471313431233 L5.68231001765582,-1.926487182217497 L5.748515437968172,-1.7188863427933756 L5.807139002952389,-1.509018422813031 L5.858103392578051,-1.297160222125829 L5.901341388685408,-1.0835911656102484 L5.936795963641031,-0.8685929346336864 L5.964420355552926,-0.6524490955361237 L5.984178129945921,-0.4354447256276572 L5.996043227815969,-0.21786603719317563 L6.0,-9.059419880941279e-14 " />
			<path d="M-7.0,4.0 L-7.0,-4.0 " />
			<path d="M-7.0,-4.0 L-4.472135955,-4.0 " />
			<path d="M4.472135955,-4.0 L7.0,-4.0 " />
			<path d="M7.0,-4.0 L7.0,4.0 " />
			<path d="M7.0,4.0 L4.472135955,4.0 " />
			<path d="M-4.472135955,4.0 L-7.0,4.0 " />

       </g>

       <!-- solid lines -->
       <g  stroke="rgb(0,0,0)" fill="none">
			<path d="M-25.0,-12.5 L-25.0,12.5 " />
			<path d="M-25.0,-12.5 L25.0,-12.5 " />
			<path d="M25.0,-12.5 L25.0,12.5 " />
			<path d="M-25.0,12.5 L25.0,12.5 " />
			<path d="M-7.0,3.0 L-7.0,4.0 " />
			<path d="M-7.0,4.0 L-4.472135954999999,4.0 " />
			<path d="M-4.472135954998772,4.000000000000902 L-4.326141938882277,4.157462678683226 L-4.174607006428988,4.309600485181195 L-4.017725243361173,4.456218561612346 L-3.8556975836140115,4.597129119756489 L-3.688731551979705,4.732151681574609 L-3.517040998310024,4.861113310364861 L-3.3408458236177303,4.9838488322596595 L-3.160371698427671,5.100201047780116 L-2.9758497737383003,5.210020933176919 L-2.7875163849638205,5.313167831299726 L-2.5956127492361136,5.409509631750639 L-2.400384656454197,5.49892294009102 L-2.2020821544768756,5.581293235884894 L-2.0009592288617997,5.656515019376576 L-1.79727347756114,5.724491946614589 L-1.5912857809904937,5.785136952848867 L-1.3832599678936304,5.83837236404316 L-1.1734624774310194,5.884129996359823 L-0.9621620179249346,5.922351243489583 L-0.7496292226982302,5.95298715171441 L-0.5361363034475648,5.97599848260737 L-0.32195670159505996,5.9913557632891425 L-0.10736473806491942,5.9990393241768505 L0.10736473806641378,5.999039324176824 L0.32195670159655254,5.991355763289063 L0.5361363034490538,5.975998482607236 L0.7496292226997143,5.952987151714224 L0.9621620179264112,5.922351243489343 L1.1734624774324853,5.884129996359531 L1.3832599678950852,5.838372364042814 L1.5912857809919352,5.78513695284847 L1.7972734775625663,5.72449194661414 L2.00095922886321,5.656515019376077 L2.2020821544782665,5.581293235884347 L2.400384656455568,5.498922940090421 L2.5956127492374623,5.4095096317499936 L2.787516384965145,5.3131678312990305 L2.9758497737396006,5.210020933176177 L3.1603716984289427,5.100201047779328 L3.3408458236189738,4.9838488322588255 L3.5170409983112374,4.861113310363984 L3.6887315519808856,4.732151681573688 L3.8556975836151595,4.597129119755526 L4.017725243362286,4.456218561611341 L4.174607006430064,4.309600485180153 L4.326141938883314,4.157462678682145 L4.4721359549997715,3.9999999999997846 " />
			<path d="M4.472135954999999,4.0 L7.0,4.0 " />
			<path d="M7.0,4.0 L7.0,3.0 " />
			<path d="M7.0,-3.0 L7.0,-4.0 " />
			<path d="M7.0,-4.0 L4.472135954999999,-4.0 " />
			<path d="M4.472135954998772,-4.000000000000902 L4.326141938882277,-4.157462678683226 L4.174607006428988,-4.309600485181195 L4.017725243361173,-4.456218561612346 L3.8556975836140115,-4.597129119756489 L3.688731551979705,-4.732151681574609 L3.517040998310024,-4.861113310364861 L3.3408458236177303,-4.9838488322596595 L3.160371698427671,-5.100201047780116 L2.9758497737383003,-5.210020933176919 L2.7875163849638205,-5.313167831299726 L2.5956127492361136,-5.409509631750639 L2.400384656454197,-5.49892294009102 L2.2020821544768756,-5.581293235884894 L2.0009592288617997,-5.656515019376576 L1.79727347756114,-5.724491946614589 L1.5912857809904937,-5.785136952848867 L1.3832599678936304,-5.83837236404316 L1.1734624774310194,-5.884129996359823 L0.9621620179249346,-5.922351243489583 L0.7496292226982302,-5.95298715171441 L0.5361363034475648,-5.97599848260737 L0.32195670159505996,-5.9913557632891425 L0.10736473806491942,-5.9990393241768505 L-0.10736473806641378,-5.999039324176824 L-0.32195670159655254,-5.991355763289063 L-0.5361363034490538,-5.975998482607236 L-0.7496292226997143,-5.952987151714224 L-0.9621620179264112,-5.922351243489343 L-1.1734624774324853,-5.884129996359531 L-1.3832599678950852,-5.838372364042814 L-1.5912857809919352,-5.78513695284847 L-1.7972734775625663,-5.72449194661414 L-2.00095922886321,-5.656515019376077 L-2.2020821544782665,-5.581293235884347 L-2.400384656455568,-5.498922940090421 L-2.5956127492374623,-5.4095096317499936 L-2.787516384965145,-5.3131678312990305 L-2.9758497737396006,-5.210020933176177 L-3.1603716984289427,-5.100201047779328 L-3.3408458236189738,-4.9838488322588255 L-3.5170409983112374,-4.861113310363984 L-3.6887315519808856,-4.732151681573688 L-3.8556975836151595,-4.597129119755526 L-4.017725243362286,-4.456218561611341 L-4.174607006430064,-4.309600485180153 L-4.326141938883314,-4.157462678682145 L-4.4721359549997715,-3.9999999999997846 " />
			<path d="M-4.472135954999999,-4.0 L-7.0,-4.0 " />
			<path d="M-7.0,-4.0 L-7.0,-3.0 " />
			<path d="M-15.0,-3.0 L-7.0,-3.0 " />
			<path d="M-7.0,-3.0 L-7.0,3.0 " />
			<path d="M6.0,0.0 L5.9960066746490925,-0.21886972738030697 L5.98403201414549,-0.43744811541698264 L5.964091958060978,-0.6554442125706579 L5.93621304877271,-0.8725678423942785 L5.900432396132425,-1.0885299897894258 L5.85679762806921,-1.3030431857167568 L5.805366827191561,-1.5158218898484714 L5.746208453473131,-1.7265828706534547 L5.679401253125084,-1.9350455824091641 L5.605034153776344,-2.1409325386384084 L5.523206146101279,-2.3439696814739435 L5.434026152052375,-2.543886746459216 L5.33761287987331,-2.740417622299664 L5.234094666085403,-2.9333007050857116 L5.123609304657786,-3.1222792465159412 L5.006303863588692,-3.3071016956569297 L4.882334489141992,-3.4875220337848196 L4.751866197999592,-3.663300101862922 L4.61507265760633,-3.8342019202194413 L4.472135954999766,-3.9999999999997904 " />
			<path d="M-4.472135954999766,-3.9999999999997904 L-4.61507265760633,-3.834201920219441 L-4.751866197999594,-3.6633001018629203 L-4.882334489141995,-3.487522033784816 L-5.006303863588695,-3.3071016956569252 L-5.12360930465779,-3.122279246515936 L-5.234094666085407,-2.933300705085705 L-5.337612879873315,-2.740417622299656 L-5.434026152052379,-2.543886746459207 L-5.523206146101283,-2.343969681473933 L-5.605034153776349,-2.1409325386383964 L-5.679401253125089,-1.9350455824091508 L-5.746208453473136,-1.72658287065344 L-5.805366827191565,-1.5158218898484548 L-5.856797628069214,-1.303043185716739 L-5.9004323961324285,-1.0885299897894067 L-5.936213048772713,-0.8725678423942579 L-5.964091958060981,-0.6554442125706359 L-5.984032014145492,-0.4374481154169593 L-5.996006674649093,-0.21886972738028238 L-6.0,2.5910564511515346e-14 L-5.996006674649092,0.2188697273803341 L-5.9840320141454875,0.437448115417011 L-5.964091958060974,0.6554442125706874 L-5.936213048772705,0.8725678423943092 L-5.900432396132419,1.0885299897894576 L-5.856797628069202,1.3030431857167897 L-5.805366827191552,1.515821889848505 L-5.746208453473121,1.7265828706534898 L-5.679401253125072,1.9350455824091999 L-5.60503415377633,2.1409325386384452 L-5.523206146101263,2.3439696814739808 L-5.434026152052358,2.5438867464592536 L-5.337612879873291,2.7404176222997023 L-5.234094666085381,2.9333007050857502 L-5.123609304657763,3.12227924651598 L-5.006303863588666,3.3071016956569683 L-4.882334489141964,3.4875220337848583 L-4.751866197999562,3.663300101862961 L-4.615072657606297,3.8342019202194804 L-4.472135954999732,3.9999999999998295 " />
			<path d="M4.472135954999766,3.9999999999997913 L4.61507265760633,3.834201920219441 L4.751866197999593,3.663300101862921 L4.882334489141995,3.487522033784817 L5.006303863588694,3.3071016956569257 L5.12360930465779,3.1222792465159364 L5.234094666085406,2.9333007050857054 L5.337612879873314,2.740417622299657 L5.434026152052379,2.5438867464592074 L5.523206146101283,2.3439696814739337 L5.605034153776349,2.1409325386383973 L5.679401253125088,1.9350455824091517 L5.746208453473136,1.726582870653441 L5.805366827191564,1.5158218898484557 L5.856797628069214,1.3030431857167397 L5.9004323961324285,1.0885299897894074 L5.9362130487727125,0.8725678423942586 L5.964091958060981,0.6554442125706367 L5.984032014145492,0.43744811541696005 L5.996006674649093,0.2188697273802831 L6.0,-2.5175776432026935e-14 " />
			<path d="M7.0,3.0 L7.0,-3.0 " />
			<path d="M7.0,-3.0 L15.0,-3.0 " />
			<path d="M15.0,-3.0 L15.0,3.0 " />
			<path d="M15.0,3.0 L7.0,3.0 " />
			<path d="M-7.0,3.0 L-15.0,3.0 " />
			<path d="M-15.0,3.0 L-15.0,-3.0 " />

       </g>
    </g>
  </g>
  <clipPath id="clip_right"><rect x="42" y="518" width="739" height="452"/></clipPath>
  <g clip-path="url(#clip_right)" transform="translate(42,544)">
    <g transform="scale(7.199999999999999, -7.199999999999999)   translate(40.27777787777778,-15.277777777777779)" stroke-width="0.1388888888888889"  fill="none">
       <!-- hidden lines -->
       <g  stroke="rgb(160,160,160)" fill="none" stroke-dasharray="0.1388888888888889,0.1388888888888889" >
			<path d="M-12.5,12.5 L12.5,12.5 " />
			<path d="M-12.5,12.5 L-12.5,-12.5 " />
			<path d="M-12.5,-12.5 L12.5,-12.5 " />
			<path d="M12.5,12.5 L12.5,-12.5 " />
			<path d="M12.5,-3.0 L12.5,3.0 " />
			<path d="M12.5,-3.0 L12.5,-4.0 " />
			<path d="M12.5,-4.000000000000902 L12.5,-4.261291787634566 L12.5,-4.507208491531239 L12.5,-4.736862824430819 L12.5,-4.949426175016633 L12.5,-5.1441315976117465 L12.5,-5.320276579380702 L12.5,-5.477225575052367 L12.5,-5.614412300018425 L12.5,-5.7313417735338135 L12.5,-5.827592104647101 L12.5,-5.902816014416988 L12.5,-5.956742088922678 L12.5,-5.98917575854715 L12.5,-6.0 " />
			<path d="M12.5,-6.0 L12.5,-5.989175758546893 L12.5,-5.95674208892219 L12.5,-5.902816014416295 L12.5,-5.827592104646234 L12.5,-5.731341773532799 L12.5,-5.614412300017291 L12.5,-5.477225575051143 L12.5,-5.320276579379415 L12.5,-5.144131597610424 L12.5,-4.949426175015301 L12.5,-4.7368628244295055 L12.5,-4.507208491529967 L12.5,-4.261291787633361 L12.5,-3.999999999999802 " />
			<path d="M12.5,-4.0 L12.5,-3.0 " />
			<path d="M12.5,3.0 L12.5,-3.0 " />
			<path d="M12.5,3.0 L12.5,4.0 " />
			<path d="M12.5,4.000000000000902 L12.5,4.261291787634629 L12.5,4.5072084915313555 L12.5,4.7368628244309825 L12.5,4.949426175016833 L12.5,5.144131597611974 L12.5,5.320276579380948 L12.5,5.477225575052621 L12.5,5.614412300018674 L12.5,5.731341773534048 L12.5,5.827592104647311 L12.5,5.902816014417162 L12.5,5.956742088922805 L12.5,5.98917575854722 L12.5,6.0 " />
			<path d="M12.5,6.0 L12.5,5.989175758546824 L12.5,5.956742088922063 L12.5,5.902816014416123 L12.5,5.8275921046460235 L12.5,5.731341773532563 L12.5,5.614412300017042 L12.5,5.477225575050891 L12.5,5.320276579379172 L12.5,5.1441315976101984 L12.5,4.9494261750151045 L12.5,4.736862824429347 L12.5,4.507208491529855 L12.5,4.261291787633304 L12.5,3.999999999999802 " />
			<path d="M12.5,4.0 L12.5,3.0 " />
			<path d="M-12.5,-1.4695761589767999e-15 L-12.5,-0.6717868566198486 L-12.5,-1.3351256037378878 L-12.5,-1.981674371731004 L-12.5,-2.60330243470535 L-12.5,-3.1921924590920203 L-12.5,-3.740938811152402 L-12.5,-4.2426406871192865 L-12.5,-4.6909888948081795 L-12.5,-5.080345195369706 L-12.5,-5.405813207414516 L-12.5,-5.663299981850205 L-12.5,-5.849567473090942 L-12.5,-5.962273259359455 L-12.5,-5.999999999999999 " />
			<path d="M-12.5,-6.0 L-12.5,-5.849567473090942 L-12.5,-5.405813207414514 L-12.5,-4.690988894808179 L-12.5,-3.7409388111524007 L-12.5,-2.603302434705348 L-12.5,-1.335125603737886 L-12.5,2.9069886963838806e-16 L-12.5,1.3351256037378865 L-12.5,2.6033024347053493 L-12.5,3.740938811152401 L-12.5,4.6909888948081795 L-12.5,5.405813207414515 L-12.5,5.849567473090942 L-12.5,5.999999999999994 " />
			<path d="M-12.5,6.0 L-12.5,5.962273259359455 L-12.5,5.849567473090942 L-12.5,5.663299981850205 L-12.5,5.405813207414515 L-12.5,5.080345195369705 L-12.5,4.690988894808179 L-12.5,4.242640687119285 L-12.5,3.740938811152401 L-12.5,3.19219245909202 L-12.5,2.603302434705349 L-12.5,1.9816743717310026 L-12.5,1.3351256037378865 L-12.5,0.6717868566198472 L-12.5,5.3179682879545e-14 " />
			<path d="M12.5,3.0 L24.5,3.0 " />
			<path d="M12.5,3.0 L24.5,3.0 " />
			<path d="M11.5,-4.0 L11.5,4.0 " />
			<path d="M11.5,-4.0 L12.5,-4.0 " />
			<path d="M12.5,-3.0 L24.5,-3.0 " />
			<path d="M24.5,3.0 L24.5,-3.0 " />
			<path d="M11.5,4.0 L12.5,4.0 " />
			<path d="M12.5,4.0 L11.5,4.0 " />
			<path d="M11.5,0.0 L11.5,0.3125988319019397 L11.5,0.6243485721670001 L11.5,0.9344024354900416 L11.5,1.241918242964867 L11.5,1.5460607096393657 L11.5,1.846003713345064 L11.5,2.140932538638409 L11.5,2.430046089758718 L11.5,2.712559066591876 L11.5,2.9877040977293614 L11.5,3.2547338248287048 L11.5,3.5129229326137787 L11.5,3.761570119000952 L11.5,3.9999999999997864 " />
			<path d="M12.5,4.0 L11.5,4.0 " />
			<path d="M11.5,3.9999999999997904 L11.5,3.5129229326137774 L11.5,2.9877040977293583 L11.5,2.4300460897587146 L11.5,1.8460037133450593 L11.5,1.2419182429648616 L11.5,0.6243485721669939 L11.5,-7.258817697812715e-15 L11.5,-0.6243485721670082 L11.5,-1.241918242964876 L11.5,-1.8460037133450733 L11.5,-2.4300460897587275 L11.5,-2.9877040977293707 L11.5,-3.5129229326137885 L11.5,-3.999999999999769 " />
			<path d="M12.5,-4.0 L11.5,-4.0 " />
			<path d="M12.5,-4.0 L11.5,-4.0 " />
			<path d="M11.5,-3.9999999999997913 L11.5,-3.761570119000951 L11.5,-3.512922932613775 L11.5,-3.2547338248287 L11.5,-2.9877040977293543 L11.5,-2.7125590665918677 L11.5,-2.430046089758708 L11.5,-2.1409325386383973 L11.5,-1.84600371334505 L11.5,-1.54606070963935 L11.5,-1.2419182429648494 L11.5,-0.9344024354900222 L11.5,-0.6243485721669787 L11.5,-0.3125988319019164 L11.5,-5.467848396278896e-14 " />
			<path d="M11.5,4.0 L12.5,4.0 " />
			<path d="M11.5,4.0 L11.5,-4.0 " />
			<path d="M12.5,3.0 L24.5,3.0 " />
			<path d="M24.5,-3.0 L24.5,3.0 " />
			<path d="M12.5,-3.0 L24.5,-3.0 " />
			<path d="M11.5,-4.0 L12.5,-4.0 " />
			<path d="M12.5,-3.0 L24.5,-3.0 " />
			<path d="M24.5,-3.0 L24.5,3.0 " />
			<path d="M12.5,6.0 L-12.5,6.0 " />
			<path d="M12.5,-6.0 L-12.5,-6.0 " />

       </g>

       <!-- solid lines -->
       <g  stroke="rgb(0,0,0)" fill="none">
			<path d="M-12.5,12.5 L12.5,12.5 " />
			<path d="M12.5,12.5 L12.5,-12.5 " />
			<path d="M-12.5,-12.5 L12.5,-12.5 " />
			<path d="M-12.5,12.5 L-12.5,-12.5 " />
			<path d="M12.5,3.0 L24.5,3.0 " />
			<path d="M24.5,3.0 L24.5,-3.0 " />
			<path d="M12.5,-3.0 L24.5,-3.0 " />

       </g>
    </g>
  </g>
  <clipPath id="clip_section"><rect x="805" y="518" width="739" height="452"/></clipPath>
  <g clip-path="url(#clip_section)" transform="translate(805,544)">
    <g transform="scale(3.5999999999999996, -3.5999999999999996)   translate(80.05555555555557,-30.555555555555557)" stroke-width="0.2777777777777778"  fill="none">
       <!-- hidden lines -->
       <g  stroke="rgb(160,160,160)" fill="none" stroke-dasharray="0.2777777777777778,0.2777777777777778" >
			<path d="M12.5,-25.0 L-12.5,-25.0 " />
			<path d="M-12.5,-25.0 L-12.5,25.0 " />
			<path d="M-12.5,15.0 L-12.5,7.0 " />
			<path d="M-12.5,-7.0 L-12.5,-15.0 " />
			<path d="M12.5,-25.0 L12.5,25.0 " />
			<path d="M12.5,25.0 L-12.5,25.0 " />
			<path d="M-12.5,-15.0 L-24.5,-15.0 " />
			<path d="M-24.5,-7.0 L-24.5,-15.0 " />
			<path d="M-12.5,-7.0 L-24.5,-7.0 " />
			<path d="M-11.5,-7.0 L-12.5,-7.0 " />
			<path d="M-11.5,-4.472135955 L-11.5,-7.0 " />
			<path d="M-12.5,15.0 L-24.5,15.0 " />
			<path d="M-24.5,15.0 L-24.5,7.0 " />
			<path d="M-12.5,7.0 L-24.5,7.0 " />
			<path d="M-11.5,7.0 L-12.5,7.0 " />
			<path d="M-11.5,7.0 L-11.5,4.472135955 " />

       </g>

       <!-- solid lines -->
       <g  stroke="rgb(0,0,0)" fill="none">
			<path d="M-12.5,-25.0 L12.5,-25.0 " />
			<path d="M-12.5,-25.0 L-12.5,-15.0 " />
			<path d="M-24.5,-15.0 L-12.5,-15.0 " />
			<path d="M-24.5,-15.0 L-24.5,-7.0 " />
			<path d="M-24.5,-7.0 L-11.5,-7.0 " />
			<path d="M-11.5,-7.0 L-11.5,-6.0 " />
			<path d="M-11.5,-6.0 L12.5,-6.0 " />
			<path d="M12.5,-25.0 L12.5,-6.0 " />
			<path d="M-12.5,15.0 L-12.5,25.0 " />
			<path d="M-12.5,4.472135954999999 L-12.5,7.0 " />
			<path d="M-12.5,-4.472135954998772 L-12.5,-3.960438310827474 L-12.5,-3.391633903896856 L-12.5,-2.7739244976920956 L-12.5,-2.1162170317349855 L-12.5,-1.4279951897180023 L-12.5,-0.7191826513890143 L-12.5,7.456257833382551e-13 L-12.5,0.7191826513904949 L-12.5,1.4279951897194505 L-12.5,2.1162170317363813 L-12.5,2.773924497693418 L-12.5,3.391633903898087 L-12.5,3.960438310828595 L-12.5,4.472135954999756 " />
			<path d="M-12.5,-7.0 L-12.5,-4.472135954999999 " />
			<path d="M12.5,6.0 L12.5,25.0 " />
			<path d="M12.5,6.0 L12.5,5.849567473090942 L12.5,5.405813207414514 L12.5,4.690988894808178 L12.5,3.740938811152401 L12.5,2.6033024347053484 L12.5,1.335125603737886 L12.5,-4.87573934346694e-16 L12.5,-1.3351256037378867 L12.5,-2.6033024347053493 L12.5,-3.7409388111524016 L12.5,-4.6909888948081795 L12.5,-5.405813207414515 L12.5,-5.849567473090942 L12.5,-5.999999999999997 " />
			<path d="M-11.5,-6.0 L-11.5,-5.991851297411639 L-11.5,-5.967427323431181 L-11.5,-5.926794419291957 L-11.5,-5.870062953477677 L-11.5,-5.797387021935783 L-11.5,-5.708964029516761 L-11.5,-5.605034153776346 L-11.5,-5.485879692597022 L-11.5,-5.351824297400864 L-11.5,-5.203232094036478 L-11.5,-5.04050669372792 L-11.5,-4.8640900967720855 L-11.5,-4.674461491962387 L-11.5,-4.472135954999784 " />
			<path d="M12.5,6.0 L-11.5,6.0 " />
			<path d="M-11.5,4.472135954999766 L-11.5,4.674461491962381 L-11.5,4.864090096772081 L-11.5,5.0405066937279175 L-11.5,5.203232094036478 L-11.5,5.351824297400864 L-11.5,5.485879692597024 L-11.5,5.605034153776349 L-11.5,5.708964029516764 L-11.5,5.797387021935785 L-11.5,5.87006295347768 L-11.5,5.9267944192919595 L-11.5,5.967427323431183 L-11.5,5.99185129741164 L-11.5,5.999999999999998 " />
			<path d="M-12.5,4.472135955 L-11.5,4.472135955 " />
			<path d="M-12.5,-4.472135955 L-11.5,-4.472135955 " />
			<path d="M-12.5,25.0 L12.5,25.0 " />
			<path d="M-11.5,6.0 L-11.5,7.0 " />
			<path d="M-11.5,7.0 L-24.5,7.0 " />
			<path d="M-24.5,7.0 L-24.5,15.0 " />
			<path d="M-12.5,15.0 L-24.5,15.0 " />

       </g>
    </g>
  </g>
  <text x="1174.5" y="964" text-anchor="middle" font-size="9" font-weight="bold" fill="#333" font-family="Arial, Helvetica, sans-serif">SECTION A-A  &#x2014;  CUT AT Y MIDPLANE</text>
  <rect x="1282" y="332" width="258" height="158" fill="#f4f4f4" stroke="#aaa" stroke-width="0.5"/>
  <text x="1285" y="341" font-size="7" fill="#777" font-family="Arial, Helvetica, sans-serif">ISO</text>
  <clipPath id="clip_iso"><rect x="1282" y="332" width="258" height="158"/></clipPath>
  <g clip-path="url(#clip_iso)" transform="translate(1282,358)">
    <g transform="scale(3.5272652296077758, -3.5272652296077758)   translate(84.63186931018295,-31.185633299322877)" stroke-width="0.28350575726657157"  fill="none">
       <!-- hidden lines -->
       <g  stroke="rgb(160,160,160)" fill="none" stroke-dasharray="0.28350575726657157,0.28350575726657157" >
			<path d="M-8.838834764831844,-25.51551815399144 L-8.838834764831844,-5.103103630798287 " />
			<path d="M-8.838834764831844,-5.103103630798288 L-26.516504294495537,5.10310363079829 " />
			<path d="M-26.516504294495533,0.6123724356957965 L-26.516504294495533,5.103103630798287 " />
			<path d="M-26.516504294495533,5.103103630798288 L-20.50609665440988,8.573214099741124 " />
			<path d="M-12.37436867076458,13.26806944007555 L-4.9497474683058265,17.554676489946118 " />
			<path d="M-19.445436482630058,1.4288690166235205 L-19.445436482630058,-3.470110468942836 " />
			<path d="M-13.788582233137678,4.694855340334425 L-19.445436482630058,1.4288690166235196 " />
			<path d="M-10.07037251352334,9.080118605233412 L-9.932684439667847,9.20492503246828 L-9.793750720128177,9.325060419208471 L-9.65372956877239,9.44038795860616 L-9.512780437805748,9.550776318856784 L-9.371063836190974,9.656099792756057 L-9.228741146865081,9.756238440851858 L-9.085974442960964,9.851078228027946 L-8.942926303243013,9.940511153363992 L-8.799759626966916,10.024435373124035 L-8.656637448374514,10.102755316733298 L-8.513722751034916,10.175381795611312 L-8.371178282243333,10.242232104737404 L-8.229166367688968,10.303230116832879 L-8.08784872660302,10.358306369052652 L-7.94738628759732,10.40739814208761 L-7.80793900540327,10.450449531587626 L-7.669665678719842,10.487411511823879 L-7.532723769378021,10.518241991517996 L-7.397269223027631,10.54290586177444 L-7.263456291550762,10.561375036061529 L-7.131437357403991,10.573628482195625 L-7.001362760089474,10.579652246291978 L-6.87338062495249,10.579439468655035 L-6.747636694500397,10.572990391590071 L-6.624274162435111,10.560312359127256 L-6.503433510588087,10.541419808658478 L-6.3852523489435,10.516334254496437 L-6.269865258931818,10.485084263374752 L-6.157403640172191,10.447705421916947 L-6.047995560838212,10.404240296111393 L-5.941765611817433,10.354738382838347 L-5.8388347648307315,10.299256053504276 " />
			<path d="M-5.838834764830718,10.29925605350427 L-5.756501914029213,10.249037342642211 L-5.676557104663345,10.194831812859661 " />
			<path d="M-5.676557104663168,10.194831812859919 L-3.889087296526011,11.226827987756236 " />
			<path d="M-3.8890872965260117,11.226827987756234 L-3.8890872965260117,10.410331406828508 " />
			<path d="M1.7677669529663689,13.676317730539413 L-3.8890872965260126,10.410331406828508 " />
			<path d="M-8.838834764831844,-5.103103630798288 L26.51650429449554,15.309310892394869 " />
			<path d="M13.08147545195113,-2.653613888015111 L13.080197647897446,-2.534124653445134 L13.076365005437777,-2.416182875750798 L13.069979833212628,-2.299859598648871 L13.061045977410991,-2.1852248909318632 L13.049568819453544,-2.0723478042612373 L13.035555272751079,-1.9612963315732577 L13.019013778540131,-1.8521373661225908 L12.999954300798287,-1.744936661188305 L12.978388320242257,-1.639758790466562 L12.954328827412326,-1.5366671091738286 L12.927790314847332,-1.4357237158840714 L12.898788768354903,-1.3369894151228916 L12.86734165738221,-1.2405236807411528 L12.833467924493021,-1.1463846200901608 L12.797187973957406,-1.0546289390199641 L12.758523659460973,-0.965311907721877 L12.717498270941025,-0.8784873274357743 L12.674136520557564,-0.794207498042236 L12.628464527807626,-0.7125231865590678 L12.580509803791855,-0.633483596561133 L12.530301234642858,-0.5571363385419641 L12.477869064125265,-0.4835274012349853 L12.423244875418039,-0.4127011239116136 L12.36646157208992,-0.3447001696729446 L12.30755335827957,-0.2795654997510919 L12.24655571809227,-0.21733634883567365 L12.183505394225621,-0.1580502014403038 L12.118440365837117,-0.10174276932332216 L12.051399825666916,-0.04844796997636358 L11.982424156429616,0.0018020938062628389 L11.911554906489192,0.04897715326511065 L11.83883476483187,0.0930487919083296 " />
			<path d="M11.838834764831843,0.0930487919083447 L11.764307535351719,0.13399046262879555 L11.688018110465105,0.17177750369492628 L11.61001244406891,0.20638715360614857 L11.530337523859751,0.23779856480349348 L11.449041343030324,0.26599281622740456 L11.3661728713601,0.2909529247150733 L11.281782025717762,0.31266385523046836 L11.195919639993148,0.33111252992086904 L11.108637434476819,0.34628783599448276 L11.019987984705683,0.3581806324143715 L10.930024689793466,0.3667837554046738 L10.838801740265081,0.37209202276578957 L10.746374085414278,0.3741022369959506 L10.652797400204243,0.37281318721727175 L10.558128051731094,0.3682256499051393 L10.462423065270432,0.3603423884204888 L10.365740089927463,0.3491681513452667 L10.268137363911325,0.33470966962205484 L10.169673679454567,0.3169756524996048 L10.070408347398914,0.295976782286715 L9.970401161468622,0.27172570791760364 L9.869712362252992,0.24423703733266233 L9.768402600919671,0.213527328679187 L9.666532902680672,0.17961508033735818 L9.564164630033057,0.14252071977751513 L9.461359445796475,0.1022665912554146 L9.35817927596978,0.05887694235287988 L9.254686272429115,0.012377909371962481 L9.150942775489964,-0.03720249840857637 L9.047011276355663,-0.08983441560502481 L8.94295437947504,-0.14548613871849359 L8.83883476483184,-0.20412414523193245 L8.734715150188642,-0.26571311380283635 L8.630658253308019,-0.3302159455394955 L8.526726754173719,-0.39759378634798903 L8.422983257234566,-0.4678060503364341 L8.319490253693903,-0.5408104442624078 L8.216310083867207,-0.616562993008821 L8.113504899630627,-0.6950180660728789 L8.011136626983014,-0.7761284050521899 L7.909266928744012,-0.8598451521114674 L7.807957167410691,-0.9461178794126512 L7.707268368195059,-1.0348946194907596 L7.60726118226477,-1.1261218965571476 L7.507995850209117,-1.2197447587113164 L7.409532165752359,-1.3157068110418901 L7.311929439736219,-1.4139502495967964 L7.215246464393251,-1.5144158962022076 L7.11954147793259,-1.6170432341092624 L7.024872129459439,-1.7217704444470892 L6.931295444249406,-1.8285344434601818 L6.838867789398602,-1.9372709205076974 L6.747644839870217,-2.047914376801783 L6.657681544958002,-2.1603981648615918 L6.569032095186866,-2.2746545286592355 L6.481749889670535,-2.3906146444334846 L6.3958875039459215,-2.5082086621466244 L6.311496658303584,-2.627365747559506 L6.228628186633361,-2.748014124899449 L6.147332005803934,-2.8700811200952763 L6.0676570855947745,-2.9934932045534612 L5.989651419198579,-3.1181760394490023 L5.913361994311966,-3.2440545205043496 L5.838834764831843,-3.371052823229413 L5.766114623174493,-3.4990944485954043 L5.695245373234071,-3.6281022691149882 L5.626269703996771,-3.757998575300997 L5.55922916382657,-3.8887051224757205 L5.494164135438064,-4.020143177902574 L5.431113811571414,-4.152233568211749 L5.370116171384116,-4.284896727091305 L5.311207957573767,-4.418052743214927 L5.254424654245648,-4.551621408377528 L5.19980046553842,-4.685522265809667 L5.147368295020828,-4.819674658641703 L5.09715972587183,-4.953997778488472 L5.049205001856059,-5.088410714125246 L5.003533009106121,-5.22283250022562 L4.960171258722664,-5.357182166132002 L4.919145870202714,-5.491378784629308 L4.880481555706282,-5.625341520692491 L4.844201605170667,-5.758989680178532 L4.810327872281478,-5.892242758433585 L4.778880761308786,-6.025020488785963 L4.7498792148163576,-6.157242890895781 L4.723340702251363,-6.288830318932122 L4.699281209421431,-6.419703509548709 L4.677715228865401,-6.549783629629179 L4.658655751123557,-6.678992323773201 L4.642114256912609,-6.8072517614948485 L4.628100710210145,-6.934484684104766 L4.616623552252697,-7.060614451247921 L4.60768969645106,-7.18556508706888 L4.601304524225911,-7.309261325976832 L4.597471881766243,-7.431628657982758 L4.596194077712559,-7.552593373581466 L4.597471881766243,-7.6720826081514435 L4.601304524225911,-7.790024385845774 L4.60768969645106,-7.906347662947702 L4.616623552252697,-8.020982370664711 L4.628100710210145,-8.133859457335339 L4.64211425691261,-8.24491093002332 L4.658655751123558,-8.354069895473986 L4.677715228865402,-8.461270600408273 L4.699281209421431,-8.566448471130016 L4.723340702251363,-8.669540152422748 L4.7498792148163576,-8.770483545712505 L4.778880761308786,-8.869217846473685 L4.810327872281478,-8.965683580855424 L4.844201605170667,-9.059822641506416 L4.880481555706282,-9.151578322576611 L4.919145870202715,-9.240895353874699 L4.960171258722664,-9.327719934160802 L5.003533009106123,-9.411999763554338 L5.049205001856061,-9.493684075037507 L5.097159725871831,-9.572723665035442 L5.147368295020829,-9.649070923054609 L5.19980046553842,-9.722679860361588 L5.254424654245649,-9.793506137684961 L5.311207957573767,-9.86150709192363 L5.370116171384116,-9.926641761845483 L5.431113811571415,-9.9888709127609 L5.494164135438065,-10.04815706015627 L5.559229163826572,-10.104464492273253 L5.626269703996773,-10.157759291620213 L5.695245373234074,-10.20800935540284 L5.766114623174495,-10.255184414861686 L5.838834764831831,-10.299256053504912 " />
			<path d="M5.838834764831844,-10.29925605350492 L5.894563209161789,-10.330257122090888 L5.951289279890872,-10.359487040761959 L6.008993756161029,-10.386935905357467 L6.067657085594775,-10.412594415202724 L6.127259390920264,-10.436453876260408 L6.1877804767064255,-10.458506204076432 L6.311496658303587,-10.49716018631165 L6.4386379664036175,-10.528503976840206 L6.569032095186868,-10.55249509759106 L6.702502330510832,-10.56910103505788 L6.838867789398605,-10.578299284362366 L6.977943665177069,-10.580077379753536 L7.119541477932591,-10.574432911501715 L7.263469329944816,-10.561373529164253 L7.40953216575236,-10.540916931218632 L7.557532036498001,-10.513090841076924 L7.707268368195062,-10.47793296951418 L7.858538233551456,-10.435490963561628 L8.011136626983015,-10.385822341933935 L8.164856742443375,-10.328994417078082 L8.319490253693905,-10.265084203949458 L8.474827596633842,-10.194178315638817 L8.630658253308022,-10.116372845991556 L8.786771037207306,-10.031773239378357 L8.942954379475044,-9.940494147793743 L9.098996615631707,-9.842659275476151 L9.254686272429117,-9.738401211260147 L9.409812354445515,-9.627861248887925 L9.564164630033057,-9.511189195523702 L9.717533916230218,-9.388543168730415 L9.869712362252995,-9.260089382183928 L10.020493731180698,-9.12600192041514 L10.16967367945457,-8.986462502885264 L10.317050033810498,-8.841660237713993 L10.462423065270434,-8.691791365394373 L10.605595759821265,-8.537058992841626 L10.746374085414278,-8.3776728181364 L10.884567254923379,-8.213848846335464 L11.019987984705683,-8.045809096734992 L11.15245274841407,-7.873781301983185 L11.281782025717764,-7.6979985994499565 L11.407800545593807,-7.518699215271983 L11.530337523859751,-7.336126141501305 L11.649226894625663,-7.150526806794998 L11.764307535351717,-6.962152741092234 L11.875423485206436,-6.77125923473317 L11.982424156429616,-6.578104992481591 L12.085164538413498,-6.382951782920248 L12.183505394225623,-6.186064083694009 L12.277313449307002,-5.98770872308159 L12.36646157208992,-5.7881545183816545 L12.450828946290537,-5.587671911603336 L12.53030123464286,-5.386532602954877 L12.60477073385211,-5.185009182627135 L12.674136520557568,-4.98337476137096 L12.738304588107003,-4.7819026003690706 L12.797187973957406,-4.580865740904091 L12.850706877529289,-4.380536634324592 L12.898788768354903,-4.181186772810614 L12.941368484373758,-3.9830863214391012 L12.978388320242257,-3.786503752047868 L13.00979810553776,-3.591705479394272 L13.035555272751079,-3.3989555001017338 L13.055624914975287,-3.208515034883386 L13.069979833212628,-3.0206421745276972 L13.078600573235441,-2.8355915301258827 L13.08147545195113,-2.6536138880151547 " />
			<path d="M-13.081475451951128,-0.6123724356957956 L-13.081475451951128,-1.428869016623521 " />
			<path d="M-13.081475451951128,-1.428869016623521 L-13.788582233137676,-1.0206207261596578 " />
			<path d="M-13.081475451951128,-1.428869016623521 L-11.294005643813971,-0.3968728417272047 " />
			<path d="M-11.6672618895809,-0.18137324775695873 L-11.294005643813975,-0.39687284172720183 " />
			<path d="M-3.889087296526011,7.144345083117604 L-3.891962002957717,6.962372941713411 L-3.9005822265955423,6.77732797472091 L-3.914936285746803,6.589460945754555 L-3.93500472851387,6.3990264427449794 L-3.9607603591543974,6.2062825329342575 L-3.992168274935623,6.011490413156185 L-4.029185913432791,5.814914055875492 L-4.071763110207599,5.616819851465708 " />
			<path d="M-4.4574933694705265,4.366685941110894 L-4.513365076093255,4.225937198462226 L-4.571638853556701,4.085499749794853 L-4.632276016481537,3.9454668253095697 L-4.695236310541526,3.8059313866614732 L-4.760477939186589,3.6669860652468524 L-4.8279575913896675,3.528723100709322 L-4.89763047039902,3.391234279705979 L-4.969450323476758,3.25461087497437 " />
			<path d="M-5.676557104663168,3.6628591654381104 L-4.969450323476622,3.2546108749742473 " />
			<path d="M-11.294005643813808,-0.39687284172693893 L-11.380774463482322,-0.33136809832026426 L-11.464375196191813,-0.2609623745712186 " />
			<path d="M-5.676557104663168,10.19483181285992 L-4.969450323476622,9.786583522396057 " />
			<path d="M-4.969450323476785,9.786583522395789 L-4.905778682978889,9.739234026989823 L-4.843784534153364,9.689261457737844 L-4.783500113919855,9.636691800345435 L-4.724956770140187,9.581552391002438 L-4.6681849453174795,9.52387190216814 L-4.613214160766077,9.463680327661622 L-4.5600730012604815,9.40100896706498 L-4.508789100171285,9.335890409447572 L-4.459389125095829,9.26835851641971 L-4.411898763991077,9.198448404524658 L-4.366342711815894,9.126196426978039 L-4.322744657689675,9.051640154764192 L-4.281127272574024,8.974818357099274 L-4.241512197483863,8.895770981271305 L-4.203920032234121,8.814539131867589 L-4.168370324727841,8.73116504940036 L-4.134881560791285,8.645692088341745 L-4.103471154561312,8.558164694579458 L-4.0741554394300366,8.468628382304967 L-4.046949659551482,8.377129710346146 L-4.021867961914619,8.283716257956709 L-3.9989233889869524,8.188436600075022 L-3.978127871932432,8.091340282065183 L-3.9594922244072697,7.992477793953443 L-3.9430261369368305,7.891900544173433 L-3.9287381718765744,7.789660832833803 L-3.916635758959636,7.685811824522208 L-3.9067251914333623,7.580407520659747 L-3.8990116227868343,7.473502731420258 L-3.893499064071052,7.365153047229057 L-3.8901903818131913,7.255414809855964 L-3.889087296526011,7.144345083117626 " />
			<path d="M-4.96945032347662,3.254610874974246 L-3.181980515339464,4.286607049870562 " />
			<path d="M-3.181980515339464,4.286607049870562 L-3.8890872965260117,4.694855340334425 " />
			<path d="M-3.181980515339464,4.286607049870562 L-3.181980515339464,10.818579697292371 " />
			<path d="M-3.8890872965260117,10.410331406828508 L-12.374368670764582,15.309310892394866 " />
			<path d="M-3.181980515339464,10.818579697292371 L-3.8890872965260117,11.226827987756234 " />
			<path d="M-3.181980515339464,10.818579697292371 L-4.96945032347662,9.786583522396056 " />
			<path d="M-19.445436482630058,1.4288690166235205 L-27.93071785686863,6.3278485021898785 " />
			<path d="M-11.838834764831844,-0.09304879190834114 L5.838834764831844,-10.29925605350492 " />
			<path d="M-5.838834764831844,10.299256053504923 L11.838834764831844,0.0930487919083447 " />

       </g>

       <!-- solid lines -->
       <g  stroke="rgb(0,0,0)" fill="none">
			<path d="M-8.838834764831844,-25.51551815399144 L-26.516504294495537,-15.309310892394862 " />
			<path d="M-26.516504294495533,-15.309310892394866 L-26.516504294495533,0.6123724356957965 " />
			<path d="M-8.838834764831844,-25.51551815399144 L26.51650429449554,-5.103103630798284 " />
			<path d="M-26.516504294495533,-15.309310892394866 L8.838834764831851,5.103103630798291 " />
			<path d="M26.516504294495533,-5.103103630798288 L8.83883476483184,5.10310363079829 " />
			<path d="M8.838834764831844,5.103103630798288 L8.838834764831844,25.51551815399144 " />
			<path d="M-20.50609665440988,8.573214099741124 L-12.37436867076458,13.26806944007555 " />
			<path d="M-4.9497474683058265,17.554676489946118 L8.838834764831851,25.515518153991444 " />
			<path d="M-19.445436482630058,-3.4701104689428357 L-13.788582233137676,-0.20412414523193023 " />
			<path d="M-13.788582233137678,4.694855340334425 L-13.788582233137678,5.511351921262151 " />
			<path d="M-13.788582233137678,5.511351921262152 L-12.001112425000521,6.543348096158468 " />
			<path d="M-12.001112424999654,6.543348096159705 L-11.902668533812516,6.722988259123882 L-11.800649874623716,6.900738400575027 L-11.695175479034157,7.07639112821778 L-11.58636841067026,7.249741496941692 L-11.474355621597859,7.420587247943602 L-11.359267804199222,7.58872904471574 L-11.24123923868602,7.753970705624193 L-11.120407636426133,7.916119432806377 L-10.996913979267113,8.074986037120471 L-10.87090235504378,8.23038515888431 L-10.742519789461863,8.3821354841462 L-10.611916074553829,8.530059956235359 L-10.479243593907094,8.673985982345068 L-10.344657144868474,8.813745634907603 L-10.208313757932357,8.9491758475259 L-10.07037251352336,9.080118605233396 " />
			<path d="M1.7677669529663689,8.777338244973055 L1.7677669529663689,13.676317730539413 " />
			<path d="M-3.8890872965260117,5.511351921262151 L1.7677669529663698,8.777338244973057 " />
			<path d="M-3.8890872965260117,5.5113519212621505 L-3.8890872965260117,4.694855340334425 " />
			<path d="M-3.889087296526009,4.694855340334428 L-5.676557104663166,3.6628591654381113 " />
			<path d="M-5.676557104664035,3.662859165436872 L-5.74945084635325,3.529041398401271 L-5.824339753802329,3.3962401819637327 L-5.901175462745817,3.264541280939152 L-5.979908351647618,3.134029748252276 L-6.06048757374726,3.004789870009383 L-6.142861089897412,2.876905111065176 L-6.226975702171473,2.750458061120057 L-6.312777088219502,2.6255303813825903 L-6.40020983635033,2.5022027518315784 L-6.489217481317182,2.3805548191118557 L-6.579742540783675,2.2606651450974207 L-6.671726552446701,2.1426111561551044 L-6.7651101117921675,2.0264690931415856 L-6.859832910459231,1.9123139621660163 L-6.955833775188247,1.8002194861500689 L-7.0530507073272934,1.6902580572166772 L-7.151420922871726,1.5825006899382297 L-7.250880893010938,1.4770169754743998 L-7.351366385156124,1.3738750366292427 L-7.452812504422551,1.273141483856561 L-7.555153735539544,1.1748813722419875 L-7.658323985161137,1.0791581594895252 L-7.7622566245500435,0.9860336649397112 L-7.866884532607389,0.895568029645859 L-7.972140139220434,0.8078196775341393 L-8.077955468900251,0.7228452776726355 L-8.184262184681213,0.6406997076736971 L-8.290991632253924,0.5614360182532296 L-8.398074884303107,0.4851053989698366 L-8.505442785021783,0.41175714516590034 L-8.613025994773032,0.3414386261319988 L-8.720755034870455,0.27419525451517224 L-8.828560332448456,0.21007045699082383 L-8.936372265393322,0.14910564621719136 L-9.044121207306139,0.09134019409049277 L-9.151737572468447,0.036811406318022044 L-9.259151860781635,-0.014445501674374306 L-9.36629470265105,-0.062397427484896184 L-9.473096903785803,-0.10701340311376839 L-9.579489489885384,-0.14826461496278842 L-9.685403751184195,-0.18612442244353744 L-9.79077128682524,-0.22056837518223915 L-9.89552404903431,-0.25157422881012437 L-9.99959438706617,-0.27912195932916006 L-10.102915090894308,-0.30319377604380815 L-10.205419434616086,-0.3237741330504962 L-10.307041219545217,-0.34084973927738016 L-10.407714816963779,-0.3544095670678846 L-10.507375210506115,-0.364444859302524 L-10.605958038147287,-0.370949135054361 L-10.703399633768932,-0.3739181937744762 L-10.7996370682757,-0.3733501180047485 L-10.89460819023572,-0.3692452746161603 L-10.988251666018819,-0.3616063145718815 L-11.080507019406618,-0.3504381712152309 L-11.171314670648878,-0.3357480570836655 L-11.260615974940917,-0.3175454592508222 L-11.348353260297209,-0.2958421331996348 L-11.434469864796728,-0.27065209523049116 L-11.51891017317598,-0.24199161340931585 L-11.601619652746098,-0.20987919706142844 L-11.68254488861077,-0.17433558481797817 L-11.761633618162323,-0.1353837312226558 L-11.838834764833562,-0.09304879190735171 " />
			<path d="M-11.83883476483359,-0.09304879190733573 L-11.921167615634776,-0.04283008104544184 L-12.001112425000354,0.011375448736924199 " />
			<path d="M-12.001112425000517,0.011375448736659521 L-13.788582233137674,-1.0206207261596565 " />
			<path d="M-13.788582233137678,-1.0206207261596578 L-13.788582233137678,-0.2041241452319318 " />
			<path d="M26.516504294495533,15.309310892394866 L8.83883476483184,25.515518153991444 " />
			<path d="M26.516504294495533,-5.103103630798288 L26.516504294495533,15.309310892394866 " />
			<path d="M-19.445436482630058,-3.4701104689428357 L-27.93071785686863,1.4288690166235218 " />
			<path d="M-27.93071785686863,1.428869016623521 L-22.27386360737625,4.694855340334426 " />
			<path d="M-13.788582233137678,-0.20412414523193156 L-22.27386360737625,4.694855340334426 " />
			<path d="M-13.081475451951128,5.103103630798288 L-13.081475451951128,-0.6123724356957956 " />
			<path d="M-13.081475451951128,5.103103630798288 L-13.788582233137676,5.511351921262151 " />
			<path d="M-13.788582233137678,4.694855340334425 L-22.27386360737625,9.593834825900782 " />
			<path d="M-22.27386360737625,4.694855340334425 L-22.27386360737625,9.593834825900782 " />
			<path d="M-12.001112425000521,0.011375448736661298 L-11.6672618895809,-0.18137324775695873 " />
			<path d="M-4.071763110207609,5.61681985146566 L-4.108688325855203,5.461858350715482 L-4.14891215543059,5.3062679606110095 L-4.192401618178982,5.150176254497643 L-4.23912105575253,4.9937112167651865 L-4.289032161447696,4.837001137909542 L-4.3420940116141065,4.680174509343346 L-4.398263099209109,4.5233599180419235 L-4.457493369470509,4.366685941110942 " />
			<path d="M-11.464375196191815,-0.2609623745712186 L-11.520887359815084,-0.208874921947249 L-11.575784764430129,-0.15445109568720827 L-11.62904125426533,-0.09771682592714726 L-11.680631455360016,-0.038699143609846054 L-11.730530787653853,0.022573832394031434 L-11.778715476697965,0.08607290868311512 L-11.825162564982225,0.15176783123448612 L-11.869849922873328,0.21962729981814277 L-11.912756259158408,0.2896189829099427 L-11.953861131189207,0.3617095330959037 L-11.993144954621929,0.43586460296051577 L-12.030589012748175,0.5120488614515111 L-12.066175465412481,0.5902260107132751 L-12.09988735751223,0.6703588033809016 L-12.131708627075877,0.7524090603266362 L-12.161624112915657,0.8363376888502434 L-12.189619561851092,0.9221047013046677 L-12.215681635499905,1.0096692341480704 L-12.23979791663307,1.0989895674131898 L-12.261956915090959,1.1900231445847531 L-12.282148073257842,1.282726592875448 L-12.30036177109201,1.3770557438908146 L-12.316589330709252,1.4729656546731928 L-12.330823020517403,1.570410629114721 L-12.343056058900054,1.6693442397291642 L-12.35328261744764,1.7697193497722088 L-12.361497823734375,1.8714881356996784 L-12.367697763639711,1.974602109952981 L-12.371879483213212,2.0790121440609166 L-12.374040990081962,2.1846684920468555 L-12.374181254399826,2.2915208141301187 L-12.372300209338116,2.3995182007102747 L-12.36247873858067,2.6187418256554675 L-12.344595293269817,2.841921621808763 L-12.318683951489891,3.068632305351366 L-12.28479408901133,3.2984418641257247 L-12.242990285201902,3.5309123808631826 L-12.193352199966446,3.765600867664211 L-12.135974421949681,4.002060110141066 L-12.070966288291302,4.239839519614293 L-11.998451676276849,4.47848599173917 L-11.918568767281371,4.717544769925915 L-11.831469783455704,4.9565603119083566 L-11.73732069765713,5.195077157809761 L-11.636300917177142,5.432640798051664 L-11.528602941869028,5.668798539451841 L-11.414431997326705,5.903100367861024 L-11.294005643813815,6.135099805694516 " />
			<path d="M-12.001112425000521,6.54334809615847 L-11.294005643813975,6.1350998056946064 " />
			<path d="M-3.8890872965260117,5.511351921262151 L-12.374368670764582,10.410331406828508 " />
			<path d="M-12.374368670764582,15.309310892394866 L-12.374368670764582,10.410331406828508 " />
			<path d="M-12.374368670764582,10.410331406828508 L-6.717514421272201,13.676317730539413 " />
			<path d="M1.7677669529663689,8.777338244973055 L-6.717514421272202,13.676317730539413 " />
			<path d="M-6.717514421272202,13.676317730539413 L-6.717514421272202,18.57529721610577 " />
			<path d="M1.7677669529663689,13.676317730539413 L-6.717514421272202,18.57529721610577 " />
			<path d="M-6.717514421272202,18.575297216105767 L-12.374368670764584,15.309310892394862 " />
			<path d="M-11.294005643813973,6.135099805694605 L-13.081475451951128,5.103103630798288 " />
			<path d="M-22.27386360737625,9.593834825900782 L-27.930717856868633,6.327848502189877 " />
			<path d="M-27.93071785686863,6.327848502189877 L-27.93071785686863,1.42886901662352 " />

       </g>
    </g>
  </g>
  <line x1="34" y1="268.0" x2="789" y2="268.0" stroke="#0000ff" stroke-width="0.4" stroke-dasharray="12,3,2,3" fill="none"/>
  <line x1="411.5" y1="34" x2="411.5" y2="502" stroke="#0000ff" stroke-width="0.4" stroke-dasharray="12,3,2,3" fill="none"/>
  <line x1="797" y1="268.0" x2="1552" y2="268.0" stroke="#0000ff" stroke-width="0.4" stroke-dasharray="12,3,2,3" fill="none"/>
  <line x1="1174.5" y1="34" x2="1174.5" y2="502" stroke="#0000ff" stroke-width="0.4" stroke-dasharray="12,3,2,3" fill="none"/>
  <line x1="34" y1="744.0" x2="789" y2="744.0" stroke="#0000ff" stroke-width="0.4" stroke-dasharray="12,3,2,3" fill="none"/>
  <line x1="411.5" y1="510" x2="411.5" y2="978" stroke="#0000ff" stroke-width="0.4" stroke-dasharray="12,3,2,3" fill="none"/>
  <line x1="0" y1="54" x2="18" y2="54" stroke="#1a1a8c" stroke-width="0.7"/>
  <line x1="0" y1="482" x2="18" y2="482" stroke="#1a1a8c" stroke-width="0.7"/>
  <line x1="4" y1="54" x2="4" y2="482" stroke="#1a1a8c" stroke-width="0.8"/>
  <polygon points="4,54 1,61 7,61" fill="#1a1a8c"/>
  <polygon points="4,482 1,475 7,475" fill="#1a1a8c"/>
  <text x="-4" y="268.0" text-anchor="middle" font-size="10" fill="#1a1a8c" font-family="Arial, Helvetica, sans-serif" transform="rotate(-90,-4,268.0)">25.0 mm</text>
  <polygon points="411.5,492 402.5,506.4 420.5,506.4" fill="#1a1a8c" stroke="#1a1a8c" stroke-width="0.5"/>
  <rect x="402.5" y="506.4" width="18" height="18" fill="white" stroke="#1a1a8c" stroke-width="1"/>
  <text x="411.5" y="520.4" text-anchor="middle" font-size="11" font-weight="bold" fill="#1a1a8c" font-family="Arial, Helvetica, sans-serif">A</text>
  <line x1="46" y1="268.0" x2="777" y2="268.0" stroke="#555" stroke-width="1" stroke-dasharray="8,4"/>
  <polygon points="46,268.0 56,264.0 56,272.0" fill="#555"/>
  <polygon points="777,268.0 767,264.0 767,272.0" fill="#555"/>
  <text x="60" y="262.0" font-size="10" font-weight="bold" fill="#555" font-family="Arial, Helvetica, sans-serif">A</text>
  <text x="757" y="262.0" font-size="10" font-weight="bold" fill="#555" font-family="Arial, Helvetica, sans-serif">A</text>
  <line x1="54" y1="508" x2="54" y2="526" stroke="#1a1a8c" stroke-width="0.7"/>
  <line x1="769" y1="508" x2="769" y2="526" stroke="#1a1a8c" stroke-width="0.7"/>
  <line x1="54" y1="522" x2="769" y2="522" stroke="#1a1a8c" stroke-width="0.8"/>
  <polygon points="54,522 61,519 61,525" fill="#1a1a8c"/>
  <polygon points="769,522 762,519 762,525" fill="#1a1a8c"/>
  <text x="411.5" y="518" text-anchor="middle" font-size="10" fill="#1a1a8c" font-family="Arial, Helvetica, sans-serif">50.0 mm</text>
  <line x1="817" y1="6" x2="817" y2="24" stroke="#1a1a8c" stroke-width="0.7"/>
  <line x1="1532" y1="6" x2="1532" y2="24" stroke="#1a1a8c" stroke-width="0.7"/>
  <line x1="817" y1="20" x2="1532" y2="20" stroke="#1a1a8c" stroke-width="0.8"/>
  <polygon points="817,20 824,17 824,23" fill="#1a1a8c"/>
  <polygon points="1532,20 1525,17 1525,23" fill="#1a1a8c"/>
  <text x="1174.5" y="16" text-anchor="middle" font-size="10" fill="#1a1a8c" font-family="Arial, Helvetica, sans-serif">50.0 mm</text>
  <line x1="1570" y1="54" x2="1588" y2="54" stroke="#1a1a8c" stroke-width="0.7"/>
  <line x1="1570" y1="482" x2="1588" y2="482" stroke="#1a1a8c" stroke-width="0.7"/>
  <line x1="1574" y1="54" x2="1574" y2="482" stroke="#1a1a8c" stroke-width="0.8"/>
  <polygon points="1574,54 1571,61 1577,61" fill="#1a1a8c"/>
  <polygon points="1574,482 1571,475 1577,475" fill="#1a1a8c"/>
  <text x="1566" y="268.0" text-anchor="middle" font-size="10" fill="#1a1a8c" font-family="Arial, Helvetica, sans-serif" transform="rotate(-90,1566,268.0)">25.0 mm</text>
  <text x="627" y="76" font-size="8" font-weight="bold" fill="#333" font-family="Arial, Helvetica, sans-serif">GD&amp;T CALLOUTS</text>
  <rect x="627" y="80" width="98" height="22" fill="#fffff8" stroke="#000000" stroke-width="1"/>
  <line x1="655" y1="80" x2="655" y2="102" stroke="#000000" stroke-width="1"/>
  <text x="641.0" y="97" text-anchor="middle" font-size="13" font-weight="bold" fill="#1a1a8c" font-family="Arial, Helvetica, sans-serif">▭</text>
  <text x="661" y="97" font-size="10" fill="#000" font-family="Arial, Helvetica, sans-serif">0.05</text>
  <line x1="627" y1="91.0" x2="603.0" y2="192.7" stroke="#999" stroke-width="0.5" stroke-dasharray="4,3"/>
  <rect x="627" y="108" width="123" height="22" fill="#fffff8" stroke="#000000" stroke-width="1"/>
  <line x1="655" y1="108" x2="655" y2="130" stroke="#000000" stroke-width="1"/>
  <line x1="725" y1="108" x2="725" y2="130" stroke="#000000" stroke-width="1"/>
  <text x="641.0" y="125" text-anchor="middle" font-size="13" font-weight="bold" fill="#1a1a8c" font-family="Arial, Helvetica, sans-serif">⊥</text>
  <text x="661" y="125" font-size="10" fill="#000" font-family="Arial, Helvetica, sans-serif">0.05</text>
  <text x="737.5" y="125" text-anchor="middle" font-size="10" font-weight="bold" fill="#000" font-family="Arial, Helvetica, sans-serif">A</text>
  <line x1="627" y1="119.0" x2="411.5" y2="72.0" stroke="#999" stroke-width="0.5" stroke-dasharray="4,3"/>
  <rect x="627" y="136" width="123" height="22" fill="#fffff8" stroke="#000000" stroke-width="1"/>
  <line x1="655" y1="136" x2="655" y2="158" stroke="#000000" stroke-width="1"/>
  <line x1="725" y1="136" x2="725" y2="158" stroke="#000000" stroke-width="1"/>
  <text x="641.0" y="153" text-anchor="middle" font-size="13" font-weight="bold" fill="#1a1a8c" font-family="Arial, Helvetica, sans-serif">⌒</text>
  <text x="661" y="153" font-size="10" fill="#000" font-family="Arial, Helvetica, sans-serif">0.05</text>
  <text x="737.5" y="153" text-anchor="middle" font-size="10" font-weight="bold" fill="#000" font-family="Arial, Helvetica, sans-serif">A</text>
  <line x1="627" y1="147.0" x2="603.0" y2="82.0" stroke="#999" stroke-width="0.5" stroke-dasharray="4,3"/>
  <rect x="627" y="164" width="100" height="22" fill="#fffff8" stroke="#000000" stroke-width="0.8"/>
  <text x="633" y="179" font-size="11" fill="#1a1a8c" font-family="Arial, Helvetica, sans-serif">∇∇ Ra 3.2</text>
  <rect x="30" y="983" width="1527" height="110" fill="white" stroke="black" stroke-width="1.5"/>
  <rect x="30" y="983" width="1527" height="22" fill="#1a1a8c"/>
  <text x="793.5" y="998" text-anchor="middle" font-size="13" fill="white" font-weight="bold" font-family="Arial, Helvetica, sans-serif">ARIA-OS ENGINEERING DRAWING</text>
  <text x="34" y="1014.0" font-size="7" fill="#666" font-family="Arial, Helvetica, sans-serif">PART ID</text>
  <text x="34" y="1045.0" font-size="10" fill="#000" font-weight="bold" font-family="Arial, Helvetica, sans-serif">mount adapter</text>
  <line x1="30" y1="1049.0" x2="335.40000000000003" y2="1049.0" stroke="#aaa" stroke-width="0.5"/>
  <text x="34" y="1058.0" font-size="7" fill="#666" font-family="Arial, Helvetica, sans-serif">MATERIAL</text>
  <text x="34" y="1089.0" font-size="10" fill="#000" font-weight="bold" font-family="Arial, Helvetica, sans-serif">steel_mild</text>
  <line x1="335.40000000000003" y1="1005" x2="335.40000000000003" y2="1093" stroke="black" stroke-width="0.8"/>
  <text x="339.40000000000003" y="1014.0" font-size="7" fill="#666" font-family="Arial, Helvetica, sans-serif">SCALE</text>
  <text x="339.40000000000003" y="1045.0" font-size="10" fill="#000" font-weight="bold" font-family="Arial, Helvetica, sans-serif">1:1</text>
  <line x1="335.40000000000003" y1="1049.0" x2="640.8000000000001" y2="1049.0" stroke="#aaa" stroke-width="0.5"/>
  <text x="339.40000000000003" y="1058.0" font-size="7" fill="#666" font-family="Arial, Helvetica, sans-serif">DATE</text>
  <text x="339.40000000000003" y="1089.0" font-size="10" fill="#000" font-weight="bold" font-family="Arial, Helvetica, sans-serif">2026-04-01</text>
  <line x1="640.8000000000001" y1="1005" x2="640.8000000000001" y2="1093" stroke="black" stroke-width="0.8"/>
  <text x="644.8000000000001" y="1014.0" font-size="7" fill="#666" font-family="Arial, Helvetica, sans-serif">DRAWN BY</text>
  <text x="644.8000000000001" y="1045.0" font-size="10" fill="#000" font-weight="bold" font-family="Arial, Helvetica, sans-serif">ARIA-OS v2.0</text>
  <line x1="640.8000000000001" y1="1049.0" x2="946.2" y2="1049.0" stroke="#aaa" stroke-width="0.5"/>
  <text x="644.8000000000001" y="1058.0" font-size="7" fill="#666" font-family="Arial, Helvetica, sans-serif">DWG NO.</text>
  <text x="644.8000000000001" y="1089.0" font-size="10" fill="#000" font-weight="bold" font-family="Arial, Helvetica, sans-serif">ARIA-20260401-001</text>
  <line x1="946.2" y1="1005" x2="946.2" y2="1093" stroke="black" stroke-width="0.8"/>
  <text x="950.2" y="1014.0" font-size="7" fill="#666" font-family="Arial, Helvetica, sans-serif">TOLERANCE</text>
  <text x="950.2" y="1045.0" font-size="10" fill="#000" font-weight="bold" font-family="Arial, Helvetica, sans-serif">±0.1 GENERAL / ±0.05 MACH.</text>
  <line x1="946.2" y1="1049.0" x2="1251.6000000000001" y2="1049.0" stroke="#aaa" stroke-width="0.5"/>
  <text x="950.2" y="1058.0" font-size="7" fill="#666" font-family="Arial, Helvetica, sans-serif">UNITS</text>
  <text x="950.2" y="1089.0" font-size="10" fill="#000" font-weight="bold" font-family="Arial, Helvetica, sans-serif">MILLIMETRES</text>
  <line x1="1251.6000000000001" y1="1005" x2="1251.6000000000001" y2="1093" stroke="black" stroke-width="0.8"/>
  <text x="1255.6000000000001" y="1014.0" font-size="7" fill="#666" font-family="Arial, Helvetica, sans-serif">APPROVED</text>
  <text x="1255.6000000000001" y="1045.0" font-size="10" fill="#000" font-weight="bold" font-family="Arial, Helvetica, sans-serif"></text>
  <line x1="1251.6000000000001" y1="1049.0" x2="1404.3000000000002" y2="1049.0" stroke="#aaa" stroke-width="0.5"/>
  <text x="1255.6000000000001" y="1058.0" font-size="7" fill="#666" font-family="Arial, Helvetica, sans-serif"></text>
  <text x="1255.6000000000001" y="1089.0" font-size="10" fill="#000" font-weight="bold" font-family="Arial, Helvetica, sans-serif"></text>
  <line x1="1404.3000000000002" y1="1005" x2="1404.3000000000002" y2="1093" stroke="black" stroke-width="0.8"/>
  <text x="1408.3000000000002" y="1014.0" font-size="7" fill="#666" font-family="Arial, Helvetica, sans-serif">REV</text>
  <text x="1408.3000000000002" y="1045.0" font-size="10" fill="#000" font-weight="bold" font-family="Arial, Helvetica, sans-serif">—</text>
  <line x1="1404.3000000000002" y1="1049.0" x2="1557.0000000000002" y2="1049.0" stroke="#aaa" stroke-width="0.5"/>
  <text x="1408.3000000000002" y="1058.0" font-size="7" fill="#666" font-family="Arial, Helvetica, sans-serif"></text>
  <text x="1408.3000000000002" y="1089.0" font-size="10" fill="#000" font-weight="bold" font-family="Arial, Helvetica, sans-serif"></text>
</svg>