<svg xmlns="http://www.w3.org/2000/svg" width="1587" height="1123" viewBox="0 0 1587 1123" font-family="Arial, Helvetica, sans-serif" font-size="12">
  <rect width="1587" height="1123" fill="white"/>
  <rect x="20" y="20" width="1547" height="1083" fill="none" stroke="black" stroke-width="2"/>
  <rect x="30" y="30" width="1527" height="1063" fill="none" stroke="black" stroke-width="1"/>
  <rect x="20" y="20.0" width="16" height="270.75" fill="none" stroke="#888" stroke-width="0.4"/>
  <text x="28.0" y="159.375" text-anchor="middle" font-size="9" fill="#444" font-family="Arial, Helvetica, sans-serif">A</text>
  <rect x="1551" y="20.0" width="16" height="270.75" fill="none" stroke="#888" stroke-width="0.4"/>
  <text x="1559.0" y="159.375" text-anchor="middle" font-size="9" fill="#444" font-family="Arial, Helvetica, sans-serif">A</text>
  <rect x="20" y="290.75" width="16" height="270.75" fill="none" stroke="#888" stroke-width="0.4"/>
  <text x="28.0" y="430.125" text-anchor="middle" font-size="9" fill="#444" font-family="Arial, Helvetica, sans-serif">B</text>
  <rect x="1551" y="290.75" width="16" height="270.75" fill="none" stroke="#888" stroke-width="0.4"/>
  <text x="1559.0" y="430.125" text-anchor="middle" font-size="9" fill="#444" font-family="Arial, Helvetica, sans-serif">B</text>
  <rect x="20" y="561.5" width="16" height="270.75" fill="none" stroke="#888" stroke-width="0.4"/>
  <text x="28.0" y="700.875" text-anchor="middle" font-size="9" fill="#444" font-family="Arial, Helvetica, sans-serif">C</text>
  <rect x="1551" y="561.5" width="16" height="270.75" fill="none" stroke="#888" stroke-width="0.4"/>
  <text x="1559.0" y="700.875" text-anchor="middle" font-size="9" fill="#444" font-family="Arial, Helvetica, sans-serif">C</text>
  <rect x="20" y="832.25" width="16" height="270.75" fill="none" stroke="#888" stroke-width="0.4"/>
  <text x="28.0" y="971.625" text-anchor="middle" font-size="9" fill="#444" font-family="Arial, Helvetica, sans-serif">D</text>
  <rect x="1551" y="832.25" width="16" height="270.75" fill="none" stroke="#888" stroke-width="0.4"/>
  <text x="1559.0" y="971.625" text-anchor="middle" font-size="9" fill="#444" font-family="Arial, Helvetica, sans-serif">D</text>
  <rect x="20.0" y="20" width="193.375" height="16" fill="none" stroke="#888" stroke-width="0.4"/>
  <text x="116.6875" y="32" text-anchor="middle" font-size="9" fill="#444" font-family="Arial, Helvetica, sans-serif">1</text>
  <rect x="20.0" y="1087" width="193.375" height="16" fill="none" stroke="#888" stroke-width="0.4"/>
  <text x="116.6875" y="1099" text-anchor="middle" font-size="9" fill="#444" font-family="Arial, Helvetica, sans-serif">1</text>
  <rect x="213.375" y="20" width="193.375" height="16" fill="none" stroke="#888" stroke-width="0.4"/>
  <text x="310.0625" y="32" text-anchor="middle" font-size="9" fill="#444" font-family="Arial, Helvetica, sans-serif">2</text>
  <rect x="213.375" y="1087" width="193.375" height="16" fill="none" stroke="#888" stroke-width="0.4"/>
  <text x="310.0625" y="1099" text-anchor="middle" font-size="9" fill="#444" font-family="Arial, Helvetica, sans-serif">2</text>
  <rect x="406.75" y="20" width="193.375" height="16" fill="none" stroke="#888" stroke-width="0.4"/>
  <text x="503.4375" y="32" text-anchor="middle" font-size="9" fill="#444" font-family="Arial, Helvetica, sans-serif">3</text>
  <rect x="406.75" y="1087" width="193.375" height="16" fill="none" stroke="#888" stroke-width="0.4"/>
  <text x="503.4375" y="1099" text-anchor="middle" font-size="9" fill="#444" font-family="Arial, Helvetica, sans-serif">3</text>
  <rect x="600.125" y="20" width="193.375" height="16" fill="none" stroke="#888" stroke-width="0.4"/>
  <text x="696.8125" y="32" text-anchor="middle" font-size="9" fill="#444" font-family="Arial, Helvetica, sans-serif">4</text>
  <rect x="600.125" y="1087" width="193.375" height="16" fill="none" stroke="#888" stroke-width="0.4"/>
  <text x="696.8125" y="1099" text-anchor="middle" font-size="9" fill="#444" font-family="Arial, Helvetica, sans-serif">4</text>
  <rect x="793.5" y="20" width="193.375" height="16" fill="none" stroke="#888" stroke-width="0.4"/>
  <text x="890.1875" y="32" text-anchor="middle" font-size="9" fill="#444" font-family="Arial, Helvetica, sans-serif">5</text>
  <rect x="793.5" y="1087" width="193.375" height="16" fill="none" stroke="#888" stroke-width="0.4"/>
  <text x="890.1875" y="1099" text-anchor="middle" font-size="9" fill="#444" font-family="Arial, Helvetica, sans-serif">5</text>
  <rect x="986.875" y="20" width="193.375" height="16" fill="none" stroke="#888" stroke-width="0.4"/>
  <text x="1083.5625" y="32" text-anchor="middle" font-size="9" fill="#444" font-family="Arial, Helvetica, sans-serif">6</text>
  <rect x="986.875" y="1087" width="193.375" height="16" fill="none" stroke="#888" stroke-width="0.4"/>
  <text x="1083.5625" y="1099" text-anchor="middle" font-size="9" fill="#444" font-family="Arial, Helvetica, sans-serif">6</text>
  <rect x="1180.25" y="20" width="193.375" height="16" fill="none" stroke="#888" stroke-width="0.4"/>
  <text x="1276.9375" y="32" text-anchor="middle" font-size="9" fill="#444" font-family="Arial, Helvetica, sans-serif">7</text>
  <rect x="1180.25" y="1087" width="193.375" height="16" fill="none" stroke="#888" stroke-width="0.4"/>
  <text x="1276.9375" y="1099" text-anchor="middle" font-size="9" fill="#444" font-family="Arial, Helvetica, sans-serif">7</text>
  <rect x="1373.625" y="20" width="193.375" height="16" fill="none" stroke="#888" stroke-width="0.4"/>
  <text x="1470.3125" y="32" text-anchor="middle" font-size="9" fill="#444" font-family="Arial, Helvetica, sans-serif">8</text>
  <rect x="1373.625" y="1087" width="193.375" height="16" fill="none" stroke="#888" stroke-width="0.4"/>
  <text x="1470.3125" y="1099" text-anchor="middle" font-size="9" fill="#444" font-family="Arial, Helvetica, sans-serif">8</text>
  <rect x="1475" y="32" width="80" height="20" fill="white" stroke="black" stroke-width="0.8"/>
  <text x="1515.0" y="45" text-anchor="middle" font-size="9" fill="#000" font-family="Arial, Helvetica, sans-serif">REV: &#x2014;</text>
  <line x1="30" y1="506" x2="1557" y2="506" stroke="#888" stroke-width="0.6"/>
  <line x1="793" y1="30" x2="793" y2="983" stroke="#888" stroke-width="0.6"/>
  <rect x="42" y="42" width="739" height="452" fill="#fafafa" stroke="#ccc" stroke-width="0.5"/>
  <rect x="805" y="42" width="739" height="452" fill="#fafafa" stroke="#ccc" stroke-width="0.5"/>
  <rect x="42" y="518" width="739" height="452" fill="#fafafa" stroke="#ccc" stroke-width="0.5"/>
  <rect x="805" y="518" width="739" height="452" fill="#fafafa" stroke="#ccc" stroke-width="0.5"/>
  <text x="46" y="54" font-size="9" font-weight="bold" fill="#444" font-family="Arial, Helvetica, sans-serif">FRONT VIEW</text>
  <text x="809" y="54" font-size="9" font-weight="bold" fill="#444" font-family="Arial, Helvetica, sans-serif">TOP VIEW</text>
  <text x="46" y="530" font-size="9" font-weight="bold" fill="#444" font-family="Arial, Helvetica, sans-serif">RIGHT SIDE VIEW</text>
  <text x="809" y="530" font-size="9" font-weight="bold" fill="#444" font-family="Arial, Helvetica, sans-serif">SECTION A-A</text>
  <clipPath id="clip_front"><rect x="42" y="42" width="739" height="452"/></clipPath>
  <g clip-path="url(#clip_front)" transform="translate(42,68)">
    <g transform="scale(3.0, -3.0)   translate(179.17128962959669,-36.666666666666664)" stroke-width="0.3333333333333333"  fill="none">
       <!-- hidden lines -->
       <g  stroke="rgb(160,160,160)" fill="none" stroke-dasharray="0.3333333333333333,0.3333333333333333" >
			<path d="M40.0,-30.0 L-40.0,-30.0 " />
			<path d="M-112.50462296293,-30.0 L-40.0,-30.0 " />
			<path d="M40.0,-30.0 L40.0,30.0 " />
			<path d="M-40.0,-30.0 L-40.0,30.0 " />
			<path d="M40.0,30.0 L-40.0,30.0 " />
			<path d="M-40.0,30.0 L-112.50462296293,30.0 " />
			<path d="M-112.50462296293,30.0 L-112.50462296293,-30.0 " />
			<path d="M-40.0,-30.0 L-40.0,30.0 " />

       </g>

       <!-- solid lines -->
       <g  stroke="rgb(0,0,0)" fill="none">
			<path d="M40.0,-30.0 L-112.50462296293,-30.0 " />
			<path d="M40.0,-30.0 L40.0,30.0 " />
			<path d="M-112.50462296293,30.0 L-112.50462296293,-30.0 " />
			<path d="M40.0,30.0 L-112.50462296293,30.0 " />

       </g>
    </g>
  </g>
  <clipPath id="clip_top"><rect x="805" y="42" width="739" height="452"/></clipPath>
  <g clip-path="url(#clip_top)" transform="translate(805,68)">
    <g transform="scale(2.25, -2.25)   translate(118.88888888888889,-58.888888888888886)" stroke-width="0.4444444444444444"  fill="none">
       <!-- hidden lines -->
       <g  stroke="rgb(160,160,160)" fill="none" stroke-dasharray="0.4444444444444444,0.4444444444444444" >
			<path d="M-30.0,-30.0 L-30.0,30.0 " />
			<path d="M-30.0,50.0 L-30.0,30.0 " />
			<path d="M-30.0,-30.0 L30.0,-30.0 " />
			<path d="M-30.0,30.0 L30.0,30.0 " />
			<path d="M-30.0,30.0 L30.0,30.0 " />
			<path d="M30.0,-30.0 L30.0,30.0 " />
			<path d="M30.0,50.0 L30.0,30.0 " />
			<path d="M-30.0,50.0 L30.0,50.0 " />

       </g>

       <!-- solid lines -->
       <g  stroke="rgb(0,0,0)" fill="none">
			<path d="M-30.0,50.0 L-30.0,-30.0 " />
			<path d="M30.0,-30.0 L-30.0,-30.0 " />
			<path d="M30.0,50.0 L30.0,-30.0 " />
			<path d="M30.0,50.0 L-30.0,50.0 " />

       </g>
    </g>
  </g>
  <clipPath id="clip_right"><rect x="42" y="518" width="739" height="452"/></clipPath>
  <g clip-path="url(#clip_right)" transform="translate(42,544)">
    <g transform="scale(2.25, -2.25)   translate(128.88888888888889,-38.888888888888886)" stroke-width="0.4444444444444444"  fill="none">
       <!-- hidden lines -->
       <g  stroke="rgb(160,160,160)" fill="none" stroke-dasharray="0.4444444444444444,0.4444444444444444" >
			<path d="M-40.0,30.0 L112.50462296293,30.0 " />
			<path d="M-40.0,30.0 L-40.0,-30.0 " />
			<path d="M-40.0,-30.0 L40.0,-30.0 " />
			<path d="M40.0,-50.0 L40.0,-30.0 " />
			<path d="M112.50462296293,-50.0 L40.0,-50.0 " />
			<path d="M112.50462296293,-50.0 L112.50462296293,30.0 " />

       </g>

       <!-- solid lines -->
       <g  stroke="rgb(0,0,0)" fill="none">
			<path d="M-40.0,30.0 L112.50462296293,30.0 " />
			<path d="M-40.0,-30.0 L40.0,-30.0 " />
			<path d="M-40.0,30.0 L-40.0,-30.0 " />
			<path d="M40.0,-50.0 L40.0,-30.0 " />
			<path d="M40.0,-50.0 L112.50462296293,-50.0 " />
			<path d="M112.50462296293,-50.0 L112.50462296293,30.0 " />

       </g>
    </g>
  </g>
  <clipPath id="clip_section"><rect x="805" y="518" width="739" height="452"/></clipPath>
  <g clip-path="url(#clip_section)" transform="translate(805,544)">
    <g transform="scale(3.0, -3.0)   translate(179.17128962959669,-36.666666666666664)" stroke-width="0.3333333333333333"  fill="none">
       <!-- hidden lines -->
       <g  stroke="rgb(160,160,160)" fill="none" stroke-dasharray="0.3333333333333333,0.3333333333333333" >
			<path d="M-112.50462296293,-30.0 L-40.0,-30.0 " />
			<path d="M40.0,-30.0 L-40.0,-30.0 " />
			<path d="M-112.50462296293,30.0 L-112.50462296293,-30.0 " />
			<path d="M-40.0,-30.0 L-40.0,30.0 " />
			<path d="M-40.0,30.0 L-112.50462296293,30.0 " />
			<path d="M-40.0,-30.0 L-40.0,30.0 " />
			<path d="M40.0,-30.0 L40.0,30.0 " />
			<path d="M40.0,30.0 L-40.0,30.0 " />

       </g>

       <!-- solid lines -->
       <g  stroke="rgb(0,0,0)" fill="none">
			<path d="M-112.50462296293,-30.0 L40.0,-30.0 " />
			<path d="M-112.50462296293,30.0 L-112.50462296293,-30.0 " />
			<path d="M-112.50462296293,30.0 L40.0,30.0 " />
			<path d="M40.0,-30.0 L40.0,30.0 " />

       </g>
    </g>
  </g>
  <text x="1174.5" y="964" text-anchor="middle" font-size="9" font-weight="bold" fill="#333" font-family="Arial, Helvetica, sans-serif">SECTION A-A  &#x2014;  CUT AT Y MIDPLANE</text>
  <rect x="1282" y="332" width="258" height="158" fill="#f4f4f4" stroke="#aaa" stroke-width="0.5"/>
  <text x="1285" y="341" font-size="7" fill="#777" font-family="Arial, Helvetica, sans-serif">ISO</text>
  <clipPath id="clip_iso"><rect x="1282" y="332" width="258" height="158"/></clipPath>
  <g clip-path="url(#clip_iso)" transform="translate(1282,358)">
    <g transform="scale(1.1836313605827362, -1.1836313605827362)   translate(269.7375135969667,-115.89925058914451)" stroke-width="0.8448576417472335"  fill="none">
       <!-- hidden lines -->
       <g  stroke="rgb(160,160,160)" fill="none" stroke-dasharray="0.8448576417472335,0.8448576417472335" >
			<path d="M7.0710678118654755,-53.0722777603022 L7.0710678118654755,-4.082482904638631 " />
			<path d="M7.0710678118654755,-4.0824829046386295 L-49.497474683058336,28.57738033247042 " />
			<path d="M-49.49747468305833,44.90731195102494 L-49.49747468305833,28.577380332470415 " />
			<path d="M-100.76598524752,74.50720032636806 L-49.49747468305832,44.90731195102494 " />
			<path d="M7.0710678118654755,-4.0824829046386295 L49.497474683058336,20.412414523193164 " />
			<path d="M-49.49747468305833,28.577380332470412 L-7.071067811865468,53.0722777603022 " />
			<path d="M-49.49747468305833,44.90731195102494 L-7.071067811865468,69.40220937885672 " />

       </g>

       <!-- solid lines -->
       <g  stroke="rgb(0,0,0)" fill="none">
			<path d="M7.0710678118654755,-53.0722777603022 L-100.76598524752002,9.187473852149985 " />
			<path d="M-100.76598524752,74.50720032636806 L-100.76598524752,9.187473852149978 " />
			<path d="M7.0710678118654755,-53.0722777603022 L49.497474683058336,-28.57738033247041 " />
			<path d="M-58.339578376327154,33.68237127998175 L-100.76598524752,9.18747385214996 " />
			<path d="M49.49747468305833,-28.577380332470412 L-58.33957837632717,33.68237127998177 " />
			<path d="M49.49747468305833,20.412414523193153 L-7.071067811865483,53.0722777603022 " />
			<path d="M49.49747468305833,-28.577380332470412 L49.49747468305833,20.412414523193156 " />
			<path d="M-7.0710678118654755,69.40220937885672 L-7.0710678118654755,53.0722777603022 " />
			<path d="M-7.0710678118654755,69.40220937885672 L-58.33957837632716,99.00209775419985 " />
			<path d="M-58.339578376327154,99.00209775419984 L-58.339578376327154,33.68237127998175 " />
			<path d="M-58.339578376327154,99.00209775419984 L-100.76598524752,74.50720032636805 " />

       </g>
    </g>
  </g>
  <line x1="34" y1="268.0" x2="789" y2="268.0" stroke="#0000ff" stroke-width="0.4" stroke-dasharray="12,3,2,3" fill="none"/>
  <line x1="411.5" y1="34" x2="411.5" y2="502" stroke="#0000ff" stroke-width="0.4" stroke-dasharray="12,3,2,3" fill="none"/>
  <line x1="797" y1="268.0" x2="1552" y2="268.0" stroke="#0000ff" stroke-width="0.4" stroke-dasharray="12,3,2,3" fill="none"/>
  <line x1="1174.5" y1="34" x2="1174.5" y2="502" stroke="#0000ff" stroke-width="0.4" stroke-dasharray="12,3,2,3" fill="none"/>
  <line x1="34" y1="744.0" x2="789" y2="744.0" stroke="#0000ff" stroke-width="0.4" stroke-dasharray="12,3,2,3" fill="none"/>
  <line x1="411.5" y1="510" x2="411.5" y2="978" stroke="#0000ff" stroke-width="0.4" stroke-dasharray="12,3,2,3" fill="none"/>
  <line x1="0" y1="54" x2="18" y2="54" stroke="#1a1a8c" stroke-width="0.7"/>
  <line x1="0" y1="482" x2="18" y2="482" stroke="#1a1a8c" stroke-width="0.7"/>
  <line x1="4" y1="54" x2="4" y2="482" stroke="#1a1a8c" stroke-width="0.8"/>
  <polygon points="4,54 1,61 7,61" fill="#1a1a8c"/>
  <polygon points="4,482 1,475 7,475" fill="#1a1a8c"/>
  <text x="-4" y="268.0" text-anchor="middle" font-size="10" fill="#1a1a8c" font-family="Arial, Helvetica, sans-serif" transform="rotate(-90,-4,268.0)">80.0 mm</text>
  <polygon points="411.5,492 402.5,506.4 420.5,506.4" fill="#1a1a8c" stroke="#1a1a8c" stroke-width="0.5"/>
  <rect x="402.5" y="506.4" width="18" height="18" fill="white" stroke="#1a1a8c" stroke-width="1"/>
  <text x="411.5" y="520.4" text-anchor="middle" font-size="11" font-weight="bold" fill="#1a1a8c" font-family="Arial, Helvetica, sans-serif">A</text>
  <line x1="46" y1="268.0" x2="777" y2="268.0" stroke="#555" stroke-width="1" stroke-dasharray="8,4"/>
  <polygon points="46,268.0 56,264.0 56,272.0" fill="#555"/>
  <polygon points="777,268.0 767,264.0 767,272.0" fill="#555"/>
  <text x="60" y="262.0" font-size="10" font-weight="bold" fill="#555" font-family="Arial, Helvetica, sans-serif">A</text>
  <text x="757" y="262.0" font-size="10" font-weight="bold" fill="#555" font-family="Arial, Helvetica, sans-serif">A</text>
  <line x1="54" y1="508" x2="54" y2="526" stroke="#1a1a8c" stroke-width="0.7"/>
  <line x1="769" y1="508" x2="769" y2="526" stroke="#1a1a8c" stroke-width="0.7"/>
  <line x1="54" y1="522" x2="769" y2="522" stroke="#1a1a8c" stroke-width="0.8"/>
  <polygon points="54,522 61,519 61,525" fill="#1a1a8c"/>
  <polygon points="769,522 762,519 762,525" fill="#1a1a8c"/>
  <text x="411.5" y="518" text-anchor="middle" font-size="10" fill="#1a1a8c" font-family="Arial, Helvetica, sans-serif">60.0 mm</text>
  <line x1="817" y1="6" x2="817" y2="24" stroke="#1a1a8c" stroke-width="0.7"/>
  <line x1="1532" y1="6" x2="1532" y2="24" stroke="#1a1a8c" stroke-width="0.7"/>
  <line x1="817" y1="20" x2="1532" y2="20" stroke="#1a1a8c" stroke-width="0.8"/>
  <polygon points="817,20 824,17 824,23" fill="#1a1a8c"/>
  <polygon points="1532,20 1525,17 1525,23" fill="#1a1a8c"/>
  <text x="1174.5" y="16" text-anchor="middle" font-size="10" fill="#1a1a8c" font-family="Arial, Helvetica, sans-serif">60.0 mm</text>
  <line x1="1570" y1="54" x2="1588" y2="54" stroke="#1a1a8c" stroke-width="0.7"/>
  <line x1="1570" y1="482" x2="1588" y2="482" stroke="#1a1a8c" stroke-width="0.7"/>
  <line x1="1574" y1="54" x2="1574" y2="482" stroke="#1a1a8c" stroke-width="0.8"/>
  <polygon points="1574,54 1571,61 1577,61" fill="#1a1a8c"/>
  <polygon points="1574,482 1571,475 1577,475" fill="#1a1a8c"/>
  <text x="1566" y="268.0" text-anchor="middle" font-size="10" fill="#1a1a8c" font-family="Arial, Helvetica, sans-serif" transform="rotate(-90,1566,268.0)">80.0 mm</text>
  <text x="627" y="76" font-size="8" font-weight="bold" fill="#333" font-family="Arial, Helvetica, sans-serif">GD&amp;T CALLOUTS</text>
  <rect x="627" y="80" width="98" height="22" fill="#fffff8" stroke="#000000" stroke-width="1"/>
  <line x1="655" y1="80" x2="655" y2="102" stroke="#000000" stroke-width="1"/>
  <text x="641.0" y="97" text-anchor="middle" font-size="13" font-weight="bold" fill="#1a1a8c" font-family="Arial, Helvetica, sans-serif">▭</text>
  <text x="661" y="97" font-size="10" fill="#000" font-family="Arial, Helvetica, sans-serif">0.05</text>
  <line x1="627" y1="91.0" x2="603.0" y2="192.7" stroke="#999" stroke-width="0.5" stroke-dasharray="4,3"/>
  <rect x="627" y="108" width="123" height="22" fill="#fffff8" stroke="#000000" stroke-width="1"/>
  <line x1="655" y1="108" x2="655" y2="130" stroke="#000000" stroke-width="1"/>
  <line x1="725" y1="108" x2="725" y2="130" stroke="#000000" stroke-width="1"/>
  <text x="641.0" y="125" text-anchor="middle" font-size="13" font-weight="bold" fill="#1a1a8c" font-family="Arial, Helvetica, sans-serif">⊥</text>
  <text x="661" y="125" font-size="10" fill="#000" font-family="Arial, Helvetica, sans-serif">0.05</text>
  <text x="737.5" y="125" text-anchor="middle" font-size="10" font-weight="bold" fill="#000" font-family="Arial, Helvetica, sans-serif">A</text>
  <line x1="627" y1="119.0" x2="411.5" y2="72.0" stroke="#999" stroke-width="0.5" stroke-dasharray="4,3"/>
  <rect x="627" y="136" width="100" height="22" fill="#fffff8" stroke="#000000" stroke-width="0.8"/>
  <text x="633" y="151" font-size="11" fill="#1a1a8c" font-family="Arial, Helvetica, sans-serif">∇∇ Ra 3.2</text>
  <rect x="30" y="983" width="1527" height="110" fill="white" stroke="black" stroke-width="1.5"/>
  <rect x="30" y="983" width="1527" height="22" fill="#1a1a8c"/>
  <text x="793.5" y="998" text-anchor="middle" font-size="13" fill="white" font-weight="bold" font-family="Arial, Helvetica, sans-serif">ARIA-OS ENGINEERING DRAWING</text>
  <text x="34" y="1014.0" font-size="7" fill="#666" font-family="Arial, Helvetica, sans-serif">PART ID</text>
  <text x="34" y="1045.0" font-size="10" fill="#000" font-weight="bold" font-family="Arial, Helvetica, sans-serif">phone_stand</text>
  <line x1="30" y1="1049.0" x2="335.40000000000003" y2="1049.0" stroke="#aaa" stroke-width="0.5"/>
  <text x="34" y="1058.0" font-size="7" fill="#666" font-family="Arial, Helvetica, sans-serif">MATERIAL</text>
  <text x="34" y="1089.0" font-size="10" fill="#000" font-weight="bold" font-family="Arial, Helvetica, sans-serif">—</text>
  <line x1="335.40000000000003" y1="1005" x2="335.40000000000003" y2="1093" stroke="black" stroke-width="0.8"/>
  <text x="339.40000000000003" y="1014.0" font-size="7" fill="#666" font-family="Arial, Helvetica, sans-serif">SCALE</text>
  <text x="339.40000000000003" y="1045.0" font-size="10" fill="#000" font-weight="bold" font-family="Arial, Helvetica, sans-serif">1:1</text>
  <line x1="335.40000000000003" y1="1049.0" x2="640.8000000000001" y2="1049.0" stroke="#aaa" stroke-width="0.5"/>
  <text x="339.40000000000003" y="1058.0" font-size="7" fill="#666" font-family="Arial, Helvetica, sans-serif">DATE</text>
  <text x="339.40000000000003" y="1089.0" font-size="10" fill="#000" font-weight="bold" font-family="Arial, Helvetica, sans-serif">2026-04-01</text>
  <line x1="640.8000000000001" y1="1005" x2="640.8000000000001" y2="1093" stroke="black" stroke-width="0.8"/>
  <text x="644.8000000000001" y="1014.0" font-size="7" fill="#666" font-family="Arial, Helvetica, sans-serif">DRAWN BY</text>
  <text x="644.8000000000001" y="1045.0" font-size="10" fill="#000" font-weight="bold" font-family="Arial, Helvetica, sans-serif">ARIA-OS v2.0</text>
  <line x1="640.8000000000001" y1="1049.0" x2="946.2" y2="1049.0" stroke="#aaa" stroke-width="0.5"/>
  <text x="644.8000000000001" y="1058.0" font-size="7" fill="#666" font-family="Arial, Helvetica, sans-serif">DWG NO.</text>
  <text x="644.8000000000001" y="1089.0" font-size="10" fill="#000" font-weight="bold" font-family="Arial, Helvetica, sans-serif">ARIA-20260401-001</text>
  <line x1="946.2" y1="1005" x2="946.2" y2="1093" stroke="black" stroke-width="0.8"/>
  <text x="950.2" y="1014.0" font-size="7" fill="#666" font-family="Arial, Helvetica, sans-serif">TOLERANCE</text>
  <text x="950.2" y="1045.0" font-size="10" fill="#000" font-weight="bold" font-family="Arial, Helvetica, sans-serif">±0.1 GENERAL / ±0.05 MACH.</text>
  <line x1="946.2" y1="1049.0" x2="1251.6000000000001" y2="1049.0" stroke="#aaa" stroke-width="0.5"/>
  <text x="950.2" y="1058.0" font-size="7" fill="#666" font-family="Arial, Helvetica, sans-serif">UNITS</text>
  <text x="950.2" y="1089.0" font-size="10" fill="#000" font-weight="bold" font-family="Arial, Helvetica, sans-serif">MILLIMETRES</text>
  <line x1="1251.6000000000001" y1="1005" x2="1251.6000000000001" y2="1093" stroke="black" stroke-width="0.8"/>
  <text x="1255.6000000000001" y="1014.0" font-size="7" fill="#666" font-family="Arial, Helvetica, sans-serif">APPROVED</text>
  <text x="1255.6000000000001" y="1045.0" font-size="10" fill="#000" font-weight="bold" font-family="Arial, Helvetica, sans-serif"></text>
  <line x1="1251.6000000000001" y1="1049.0" x2="1404.3000000000002" y2="1049.0" stroke="#aaa" stroke-width="0.5"/>
  <text x="1255.6000000000001" y="1058.0" font-size="7" fill="#666" font-family="Arial, Helvetica, sans-serif"></text>
  <text x="1255.6000000000001" y="1089.0" font-size="10" fill="#000" font-weight="bold" font-family="Arial, Helvetica, sans-serif"></text>
  <line x1="1404.3000000000002" y1="1005" x2="1404.3000000000002" y2="1093" stroke="black" stroke-width="0.8"/>
  <text x="1408.3000000000002" y="1014.0" font-size="7" fill="#666" font-family="Arial, Helvetica, sans-serif">REV</text>
  <text x="1408.3000000000002" y="1045.0" font-size="10" fill="#000" font-weight="bold" font-family="Arial, Helvetica, sans-serif">—</text>
  <line x1="1404.3000000000002" y1="1049.0" x2="1557.0000000000002" y2="1049.0" stroke="#aaa" stroke-width="0.5"/>
  <text x="1408.3000000000002" y="1058.0" font-size="7" fill="#666" font-family="Arial, Helvetica, sans-serif"></text>
  <text x="1408.3000000000002" y="1089.0" font-size="10" fill="#000" font-weight="bold" font-family="Arial, Helvetica, sans-serif"></text>
</svg>