<svg xmlns="http://www.w3.org/2000/svg" width="1587" height="1123" viewBox="0 0 1587 1123" font-family="Arial, Helvetica, sans-serif" font-size="12">
  <rect width="1587" height="1123" fill="white"/>
  <rect x="20" y="20" width="1547" height="1083" fill="none" stroke="black" stroke-width="2"/>
  <rect x="30" y="30" width="1527" height="1063" fill="none" stroke="black" stroke-width="1"/>
  <rect x="20" y="20.0" width="16" height="270.75" fill="none" stroke="#888" stroke-width="0.4"/>
  <text x="28.0" y="159.375" text-anchor="middle" font-size="9" fill="#444" font-family="Arial, Helvetica, sans-serif">A</text>
  <rect x="1551" y="20.0" width="16" height="270.75" fill="none" stroke="#888" stroke-width="0.4"/>
  <text x="1559.0" y="159.375" text-anchor="middle" font-size="9" fill="#444" font-family="Arial, Helvetica, sans-serif">A</text>
  <rect x="20" y="290.75" width="16" height="270.75" fill="none" stroke="#888" stroke-width="0.4"/>
  <text x="28.0" y="430.125" text-anchor="middle" font-size="9" fill="#444" font-family="Arial, Helvetica, sans-serif">B</text>
  <rect x="1551" y="290.75" width="16" height="270.75" fill="none" stroke="#888" stroke-width="0.4"/>
  <text x="1559.0" y="430.125" text-anchor="middle" font-size="9" fill="#444" font-family="Arial, Helvetica, sans-serif">B</text>
  <rect x="20" y="561.5" width="16" height="270.75" fill="none" stroke="#888" stroke-width="0.4"/>
  <text x="28.0" y="700.875" text-anchor="middle" font-size="9" fill="#444" font-family="Arial, Helvetica, sans-serif">C</text>
  <rect x="1551" y="561.5" width="16" height="270.75" fill="none" stroke="#888" stroke-width="0.4"/>
  <text x="1559.0" y="700.875" text-anchor="middle" font-size="9" fill="#444" font-family="Arial, Helvetica, sans-serif">C</text>
  <rect x="20" y="832.25" width="16" height="270.75" fill="none" stroke="#888" stroke-width="0.4"/>
  <text x="28.0" y="971.625" text-anchor="middle" font-size="9" fill="#444" font-family="Arial, Helvetica, sans-serif">D</text>
  <rect x="1551" y="832.25" width="16" height="270.75" fill="none" stroke="#888" stroke-width="0.4"/>
  <text x="1559.0" y="971.625" text-anchor="middle" font-size="9" fill="#444" font-family="Arial, Helvetica, sans-serif">D</text>
  <rect x="20.0" y="20" width="193.375" height="16" fill="none" stroke="#888" stroke-width="0.4"/>
  <text x="116.6875" y="32" text-anchor="middle" font-size="9" fill="#444" font-family="Arial, Helvetica, sans-serif">1</text>
  <rect x="20.0" y="1087" width="193.375" height="16" fill="none" stroke="#888" stroke-width="0.4"/>
  <text x="116.6875" y="1099" text-anchor="middle" font-size="9" fill="#444" font-family="Arial, Helvetica, sans-serif">1</text>
  <rect x="213.375" y="20" width="193.375" height="16" fill="none" stroke="#888" stroke-width="0.4"/>
  <text x="310.0625" y="32" text-anchor="middle" font-size="9" fill="#444" font-family="Arial, Helvetica, sans-serif">2</text>
  <rect x="213.375" y="1087" width="193.375" height="16" fill="none" stroke="#888" stroke-width="0.4"/>
  <text x="310.0625" y="1099" text-anchor="middle" font-size="9" fill="#444" font-family="Arial, Helvetica, sans-serif">2</text>
  <rect x="406.75" y="20" width="193.375" height="16" fill="none" stroke="#888" stroke-width="0.4"/>
  <text x="503.4375" y="32" text-anchor="middle" font-size="9" fill="#444" font-family="Arial, Helvetica, sans-serif">3</text>
  <rect x="406.75" y="1087" width="193.375" height="16" fill="none" stroke="#888" stroke-width="0.4"/>
  <text x="503.4375" y="1099" text-anchor="middle" font-size="9" fill="#444" font-family="Arial, Helvetica, sans-serif">3</text>
  <rect x="600.125" y="20" width="193.375" height="16" fill="none" stroke="#888" stroke-width="0.4"/>
  <text x="696.8125" y="32" text-anchor="middle" font-size="9" fill="#444" font-family="Arial, Helvetica, sans-serif">4</text>
  <rect x="600.125" y="1087" width="193.375" height="16" fill="none" stroke="#888" stroke-width="0.4"/>
  <text x="696.8125" y="1099" text-anchor="middle" font-size="9" fill="#444" font-family="Arial, Helvetica, sans-serif">4</text>
  <rect x="793.5" y="20" width="193.375" height="16" fill="none" stroke="#888" stroke-width="0.4"/>
  <text x="890.1875" y="32" text-anchor="middle" font-size="9" fill="#444" font-family="Arial, Helvetica, sans-serif">5</text>
  <rect x="793.5" y="1087" width="193.375" height="16" fill="none" stroke="#888" stroke-width="0.4"/>
  <text x="890.1875" y="1099" text-anchor="middle" font-size="9" fill="#444" font-family="Arial, Helvetica, sans-serif">5</text>
  <rect x="986.875" y="20" width="193.375" height="16" fill="none" stroke="#888" stroke-width="0.4"/>
  <text x="1083.5625" y="32" text-anchor="middle" font-size="9" fill="#444" font-family="Arial, Helvetica, sans-serif">6</text>
  <rect x="986.875" y="1087" width="193.375" height="16" fill="none" stroke="#888" stroke-width="0.4"/>
  <text x="1083.5625" y="1099" text-anchor="middle" font-size="9" fill="#444" font-family="Arial, Helvetica, sans-serif">6</text>
  <rect x="1180.25" y="20" width="193.375" height="16" fill="none" stroke="#888" stroke-width="0.4"/>
  <text x="1276.9375" y="32" text-anchor="middle" font-size="9" fill="#444" font-family="Arial, Helvetica, sans-serif">7</text>
  <rect x="1180.25" y="1087" width="193.375" height="16" fill="none" stroke="#888" stroke-width="0.4"/>
  <text x="1276.9375" y="1099" text-anchor="middle" font-size="9" fill="#444" font-family="Arial, Helvetica, sans-serif">7</text>
  <rect x="1373.625" y="20" width="193.375" height="16" fill="none" stroke="#888" stroke-width="0.4"/>
  <text x="1470.3125" y="32" text-anchor="middle" font-size="9" fill="#444" font-family="Arial, Helvetica, sans-serif">8</text>
  <rect x="1373.625" y="1087" width="193.375" height="16" fill="none" stroke="#888" stroke-width="0.4"/>
  <text x="1470.3125" y="1099" text-anchor="middle" font-size="9" fill="#444" font-family="Arial, Helvetica, sans-serif">8</text>
  <rect x="1475" y="32" width="80" height="20" fill="white" stroke="black" stroke-width="0.8"/>
  <text x="1515.0" y="45" text-anchor="middle" font-size="9" fill="#000" font-family="Arial, Helvetica, sans-serif">REV: &#x2014;</text>
  <line x1="30" y1="506" x2="1557" y2="506" stroke="#888" stroke-width="0.6"/>
  <line x1="793" y1="30" x2="793" y2="983" stroke="#888" stroke-width="0.6"/>
  <rect x="42" y="42" width="739" height="452" fill="#fafafa" stroke="#ccc" stroke-width="0.5"/>
  <rect x="805" y="42" width="739" height="452" fill="#fafafa" stroke="#ccc" stroke-width="0.5"/>
  <rect x="42" y="518" width="739" height="452" fill="#fafafa" stroke="#ccc" stroke-width="0.5"/>
  <rect x="805" y="518" width="739" height="452" fill="#fafafa" stroke="#ccc" stroke-width="0.5"/>
  <text x="46" y="54" font-size="9" font-weight="bold" fill="#444" font-family="Arial, Helvetica, sans-serif">FRONT VIEW</text>
  <text x="809" y="54" font-size="9" font-weight="bold" fill="#444" font-family="Arial, Helvetica, sans-serif">TOP VIEW</text>
  <text x="46" y="530" font-size="9" font-weight="bold" fill="#444" font-family="Arial, Helvetica, sans-serif">RIGHT SIDE VIEW</text>
  <text x="809" y="530" font-size="9" font-weight="bold" fill="#444" font-family="Arial, Helvetica, sans-serif">SECTION A-A</text>
  <clipPath id="clip_front"><rect x="42" y="42" width="739" height="452"/></clipPath>
  <g clip-path="url(#clip_front)" transform="translate(42,68)">
    <g transform="scale(4.5, -4.5)   translate(61.944444544444444,-24.444444444444443)" stroke-width="0.2222222222222222"  fill="none">
       <!-- hidden lines -->
       <g  stroke="rgb(160,160,160)" fill="none" stroke-dasharray="0.2222222222222222,0.2222222222222222" >
			<path d="M2.5,-10.0 L2.5,-10.050144175636353 L2.5,-10.198062264195162 L2.5,-10.436337035063941 L2.5,-10.753020396282533 L2.5,-11.132232521764884 L2.5,-11.554958132087371 L2.5,-12.0 L2.5,-12.445041867912629 L2.5,-12.867767478235116 L2.5,-13.246979603717467 L2.5,-13.563662964936059 L2.5,-13.801937735804838 L2.5,-13.949855824363647 L2.5,-13.999999999999998 " />
			<path d="M2.5,-14.0 L2.5,-13.949855824363647 L2.5,-13.801937735804838 L2.5,-13.56366296493606 L2.5,-13.246979603717469 L2.5,-12.867767478235118 L2.5,-12.44504186791263 L2.5,-12.000000000000002 L2.5,-11.554958132087371 L2.5,-11.132232521764884 L2.5,-10.753020396282533 L2.5,-10.436337035063941 L2.5,-10.198062264195162 L2.5,-10.050144175636353 L2.5,-10.000000000000002 " />
			<path d="M12.0,-10.0 L12.0,-10.050144175636353 L12.0,-10.198062264195162 L12.0,-10.436337035063941 L12.0,-10.753020396282533 L12.0,-11.132232521764884 L12.0,-11.554958132087371 L12.0,-12.0 L12.0,-12.445041867912629 L12.0,-12.867767478235116 L12.0,-13.246979603717467 L12.0,-13.563662964936059 L12.0,-13.801937735804838 L12.0,-13.949855824363647 L12.0,-13.999999999999998 " />
			<path d="M12.5,-10.5 L12.5,-10.537608131727264 L12.5,-10.64854669814637 L12.5,-10.827252776297955 L12.5,-11.064765297211899 L12.5,-11.349174391323663 L12.5,-11.666218599065528 L12.5,-12.0 L12.5,-12.333781400934472 L12.5,-12.650825608676337 L12.5,-12.935234702788101 L12.5,-13.172747223702045 L12.5,-13.351453301853628 L12.5,-13.462391868272736 L12.5,-13.5 " />
			<path d="M2.5,-20.0 L2.5,20.0 " />
			<path d="M2.5,-20.0 L-2.5,-20.0 " />
			<path d="M2.5,20.0 L-2.5,20.0 " />
			<path d="M-2.5,-20.0 L-2.5,20.0 " />
			<path d="M-2.5,-10.0 L-2.5,-10.050144175636365 L-2.5,-10.198062264195213 L-2.5,-10.436337035064051 L-2.5,-10.753020396282718 L-2.5,-11.13223252176515 L-2.5,-11.554958132087718 L-2.5,-12.000000000000414 L-2.5,-12.44504186791309 L-2.5,-12.867767478235596 L-2.5,-13.246979603717929 L-2.5,-13.563662964936466 L-2.5,-13.801937735805147 L-2.5,-13.94985582436382 L-2.5,-13.999999999999998 " />
			<path d="M-2.5,-14.0 L-2.5,-13.949855824363476 L-2.5,-13.80193773580453 L-2.5,-13.563662964935656 L-2.5,-13.246979603717007 L-2.5,-12.867767478234638 L-2.5,-12.445041867912169 L-2.5,-11.999999999999586 L-2.5,-11.554958132087025 L-2.5,-11.132232521764617 L-2.5,-10.753020396282347 L-2.5,-10.43633703506383 L-2.5,-10.198062264195109 L-2.5,-10.050144175636339 L-2.5,-10.000000000000002 " />
			<path d="M-2.5,17.0 L-2.5,7.0 " />
			<path d="M-2.5,17.0 L-2.5,7.0 " />
			<path d="M-17.0,-10.0 L-17.0,-10.050144175636353 L-17.0,-10.198062264195162 L-17.0,-10.436337035063941 L-17.0,-10.753020396282533 L-17.0,-11.132232521764884 L-17.0,-11.554958132087371 L-17.0,-12.0 L-17.0,-12.445041867912629 L-17.0,-12.867767478235116 L-17.0,-13.246979603717467 L-17.0,-13.563662964936059 L-17.0,-13.801937735804838 L-17.0,-13.949855824363647 L-17.0,-13.999999999999998 " />
			<path d="M-2.5,17.0 L-5.0,17.0 " />
			<path d="M-5.0,17.0 L-10.5,17.0 " />
			<path d="M-2.5,7.0 L-5.0,7.0 " />
			<path d="M-5.0,7.0 L-5.0,17.0 " />
			<path d="M-5.0,7.0 L-10.5,7.0 " />
			<path d="M-17.5,-10.5 L-17.5,-10.537608131727264 L-17.5,-10.64854669814637 L-17.5,-10.827252776297955 L-17.5,-11.064765297211899 L-17.5,-11.349174391323663 L-17.5,-11.666218599065528 L-17.5,-12.0 L-17.5,-12.333781400934472 L-17.5,-12.650825608676337 L-17.5,-12.935234702788101 L-17.5,-13.172747223702045 L-17.5,-13.351453301853628 L-17.5,-13.462391868272736 L-17.5,-13.5 " />
			<path d="M-10.5,17.0 L-10.5,7.0 " />
			<path d="M-5.0,7.0 L-5.0,17.0 " />

       </g>

       <!-- solid lines -->
       <g  stroke="rgb(0,0,0)" fill="none">
			<path d="M12.0,-10.0 L2.5,-10.0 " />
			<path d="M12.0,-14.0 L12.0,-13.949855824363647 L12.0,-13.801937735804838 L12.0,-13.56366296493606 L12.0,-13.246979603717467 L12.0,-12.867767478235116 L12.0,-12.445041867912629 L12.0,-12.0 L12.0,-11.554958132087371 L12.0,-11.132232521764884 L12.0,-10.753020396282533 L12.0,-10.436337035063941 L12.0,-10.198062264195162 L12.0,-10.050144175636353 L12.0,-10.000000000000002 " />
			<path d="M12.5,-13.5 L12.5,-13.462391868272736 L12.5,-13.35145330185363 L12.5,-13.172747223702045 L12.5,-12.935234702788101 L12.5,-12.650825608676337 L12.5,-12.333781400934472 L12.5,-12.0 L12.5,-11.666218599065528 L12.5,-11.349174391323663 L12.5,-11.064765297211899 L12.5,-10.827252776297955 L12.5,-10.648546698146372 L12.5,-10.537608131727264 L12.5,-10.500000000000002 " />
			<path d="M12.0,-10.0 L12.5,-10.5 " />
			<path d="M2.5,-20.0 L2.5,20.0 " />
			<path d="M2.5,-20.0 L-2.5,-20.0 " />
			<path d="M-2.5,-20.0 L-2.5,20.0 " />
			<path d="M2.5,20.0 L-2.5,20.0 " />
			<path d="M-2.5,-10.0 L-17.0,-10.0 " />
			<path d="M-17.0,-14.0 L-17.0,-13.949855824363647 L-17.0,-13.801937735804838 L-17.0,-13.56366296493606 L-17.0,-13.246979603717467 L-17.0,-12.867767478235116 L-17.0,-12.445041867912629 L-17.0,-12.0 L-17.0,-11.554958132087371 L-17.0,-11.132232521764884 L-17.0,-10.753020396282533 L-17.0,-10.436337035063941 L-17.0,-10.198062264195162 L-17.0,-10.050144175636353 L-17.0,-10.000000000000002 " />
			<path d="M-2.5,17.0 L-10.5,17.0 " />
			<path d="M-2.5,7.0 L-10.5,7.0 " />
			<path d="M-10.5,7.0 L-10.5,17.0 " />
			<path d="M-17.0,-10.0 L-17.5,-10.5 " />
			<path d="M-17.5,-13.5 L-17.5,-13.462391868272736 L-17.5,-13.35145330185363 L-17.5,-13.172747223702045 L-17.5,-12.935234702788101 L-17.5,-12.650825608676337 L-17.5,-12.333781400934472 L-17.5,-12.0 L-17.5,-11.666218599065528 L-17.5,-11.349174391323663 L-17.5,-11.064765297211899 L-17.5,-10.827252776297955 L-17.5,-10.648546698146372 L-17.5,-10.537608131727264 L-17.5,-10.500000000000002 " />
			<path d="M2.5,-14.0 L12.0,-14.0 " />
			<path d="M12.5,-13.500000000000448 L12.0,-14.0 " />
			<path d="M-17.0,-14.0 L-2.5,-14.0 " />
			<path d="M-17.500000000000224,-13.500000000000226 L-17.0,-14.0 " />

       </g>
    </g>
  </g>
  <clipPath id="clip_top"><rect x="805" y="42" width="739" height="452"/></clipPath>
  <g clip-path="url(#clip_top)" transform="translate(805,68)">
    <g transform="scale(9.0, -9.0)   translate(42.22222222222222,-12.222222222222221)" stroke-width="0.1111111111111111"  fill="none">
       <!-- hidden lines -->
       <g  stroke="rgb(160,160,160)" fill="none" stroke-dasharray="0.1111111111111111,0.1111111111111111" >
			<path d="M-10.0,4.898587196589e-16 L-10.003946543143456,0.12558103905862725 L-10.015770597371045,0.250666467128609 L-10.035425498542622,0.3747626291714497 L-10.062833677742738,0.49737977432971003 L-10.097886967409693,0.6180339887498952 L-10.140447028223498,0.7362491053693563 L-10.190345895067962,0.8515585831301455 L-10.247386639912273,0.9635073482034308 L-10.311344148995971,1.0716535899579933 L-10.381966011250105,1.1755705045849463 L-10.458973514448422,1.2748479794973795 L-10.542062745157178,1.3690942118573772 L-10.630905788142623,1.457937254842823 L-10.725152020502621,1.541026485551578 L-10.824429495415053,1.6180339887498945 L-10.928346410042007,1.68865585100403 L-11.03649265179657,1.7526133600877272 L-11.148441416869856,1.809654104932039 L-11.263750894630645,1.8595529717765027 L-11.381966011250107,1.902113032590307 L-11.502620225670292,1.937166322257262 L-11.625237370828552,1.964574501457377 L-11.749333532871393,1.9842294026289553 L-11.874418960941375,1.9960534568565425 L-12.000000000000002,1.9999999999999993 L-12.125581039058629,1.9960534568565425 L-12.25066646712861,1.9842294026289546 L-12.374762629171451,1.964574501457376 L-12.497379774329712,1.9371663222572608 L-12.618033988749898,1.9021130325903053 L-12.736249105369359,1.859552971776501 L-12.851558583130148,1.8096541049320372 L-12.963507348203434,1.7526133600877247 L-13.071653589957997,1.6886558510040275 L-13.175570504584948,1.618033988749892 L-13.274847979497382,1.5410264855515754 L-13.36909421185738,1.4579372548428196 L-13.457937254842825,1.3690942118573737 L-13.541026485551582,1.2748479794973755 L-13.618033988749897,1.175570504584942 L-13.688655851004032,1.0716535899579887 L-13.752613360087729,0.9635073482034257 L-13.809654104932042,0.8515585831301401 L-13.859552971776505,0.7362491053693504 L-13.902113032590309,0.618033988749889 L-13.937166322257264,0.49737977432970354 L-13.964574501457378,0.374762629171443 L-13.984229402628957,0.25066646712860197 L-13.996053456856544,0.12558103905862003 L-14.0,-6.906267507580381e-15 L-13.996053456856544,-0.12558103905863383 L-13.984229402628955,-0.25066646712861573 L-13.964574501457376,-0.37476262917145653 L-13.93716632225726,-0.497379774329717 L-13.902113032590306,-0.6180339887499022 L-13.8595529717765,-0.7362491053693634 L-13.809654104932036,-0.8515585831301526 L-13.752613360087723,-0.9635073482034379 L-13.688655851004025,-1.0716535899580004 L-13.61803398874989,-1.1755705045849534 L-13.541026485551573,-1.2748479794973864 L-13.457937254842818,-1.3690942118573841 L-13.369094211857371,-1.4579372548428295 L-13.274847979497373,-1.5410264855515845 L-13.17557050458494,-1.6180339887499002 L-13.071653589957988,-1.6886558510040348 L-12.963507348203425,-1.7526133600877312 L-12.85155858313014,-1.809654104932042 L-12.736249105369351,-1.8595529717765054 L-12.618033988749891,-1.9021130325903093 L-12.497379774329707,-1.9371663222572637 L-12.374762629171446,-1.9645745014573786 L-12.250666467128607,-1.9842294026289566 L-12.125581039058625,-1.9960534568565438 L-12.0,-2.000000000000001 L-11.874418960941373,-1.9960534568565438 L-11.749333532871391,-1.9842294026289564 L-11.625237370828552,-1.9645745014573783 L-11.502620225670292,-1.9371663222572635 L-11.381966011250107,-1.9021130325903086 L-11.263750894630647,-1.8595529717765047 L-11.148441416869858,-1.8096541049320416 L-11.036492651796573,-1.75261336008773 L-10.928346410042012,-1.688655851004034 L-10.824429495415059,-1.6180339887498993 L-10.725152020502627,-1.5410264855515838 L-10.630905788142629,-1.4579372548428289 L-10.542062745157182,-1.3690942118573841 L-10.458973514448427,-1.2748479794973873 L-10.38196601125011,-1.175570504584955 L-10.311344148995975,-1.071653589958003 L-10.247386639912278,-0.9635073482034412 L-10.190345895067967,-0.851558583130157 L-10.140447028223502,-0.7362491053693685 L-10.097886967409696,-0.6180339887499083 L-10.062833677742741,-0.497379774329724 L-10.035425498542626,-0.37476262917146463 L-10.015770597371047,-0.25066646712862467 L-10.003946543143458,-0.12558103905864376 L-10.0,-1.7763568394002546e-14 " />
			<path d="M-10.0,0.0 L-10.003946543143456,0.12558103905862675 L-10.015770597371045,0.2506664671286085 L-10.035425498542622,0.37476262917144926 L-10.062833677742738,0.4973797743297096 L-10.097886967409693,0.6180339887498948 L-10.140447028223496,0.7362491053693558 L-10.19034589506796,0.8515585831301452 L-10.247386639912273,0.9635073482034304 L-10.31134414899597,1.071653589957993 L-10.381966011250105,1.175570504584946 L-10.458973514448422,1.2748479794973793 L-10.542062745157176,1.369094211857377 L-10.630905788142622,1.4579372548428229 L-10.72515202050262,1.541026485551578 L-10.824429495415053,1.6180339887498945 L-10.928346410042007,1.68865585100403 L-11.03649265179657,1.7526133600877272 L-11.148441416869854,1.8096541049320392 L-11.263750894630645,1.859552971776503 L-11.381966011250105,1.9021130325903073 L-11.502620225670292,1.9371663222572624 L-11.625237370828552,1.9645745014573774 L-11.749333532871393,1.9842294026289558 L-11.874418960941375,1.9960534568565431 L-12.000000000000002,2.0 L-12.125581039058629,1.9960534568565431 L-12.25066646712861,1.9842294026289555 L-12.374762629171451,1.964574501457377 L-12.497379774329712,1.9371663222572617 L-12.618033988749897,1.9021130325903064 L-12.736249105369359,1.859552971776502 L-12.851558583130148,1.8096541049320383 L-12.963507348203432,1.752613360087726 L-13.071653589957995,1.6886558510040288 L-13.175570504584948,1.6180339887498933 L-13.274847979497382,1.5410264855515767 L-13.36909421185738,1.457937254842821 L-13.457937254842825,1.3690942118573752 L-13.54102648555158,1.274847979497377 L-13.618033988749897,1.1755705045849436 L-13.688655851004032,1.0716535899579902 L-13.752613360087729,0.9635073482034273 L-13.80965410493204,0.8515585831301418 L-13.859552971776504,0.7362491053693522 L-13.902113032590309,0.6180339887498908 L-13.937166322257264,0.4973797743297053 L-13.964574501457378,0.37476262917144476 L-13.984229402628957,0.2506664671286038 L-13.996053456856544,0.12558103905862186 L-14.0,-5.084141158371281e-15 L-13.996053456856544,-0.125581039058632 L-13.984229402628955,-0.2506664671286139 L-13.964574501457376,-0.37476262917145475 L-13.93716632225726,-0.4973797743297152 L-13.902113032590306,-0.6180339887499005 L-13.8595529717765,-0.7362491053693616 L-13.809654104932036,-0.851558583130151 L-13.752613360087723,-0.9635073482034362 L-13.688655851004027,-1.0716535899579989 L-13.618033988749891,-1.1755705045849518 L-13.541026485551575,-1.2748479794973848 L-13.457937254842818,-1.3690942118573826 L-13.369094211857371,-1.457937254842828 L-13.274847979497373,-1.5410264855515832 L-13.175570504584941,-1.618033988749899 L-13.071653589957988,-1.6886558510040335 L-12.963507348203425,-1.7526133600877298 L-12.85155858313014,-1.809654104932041 L-12.736249105369353,-1.8595529717765042 L-12.618033988749891,-1.9021130325903082 L-12.497379774329707,-1.9371663222572628 L-12.374762629171448,-1.9645745014573777 L-12.250666467128607,-1.9842294026289558 L-12.125581039058627,-1.9960534568565431 L-12.0,-2.0 L-11.874418960941375,-1.9960534568565431 L-11.749333532871393,-1.984229402628956 L-11.625237370828554,-1.9645745014573779 L-11.502620225670293,-1.937166322257263 L-11.381966011250109,-1.9021130325903084 L-11.263750894630649,-1.8595529717765045 L-11.14844141686986,-1.8096541049320414 L-11.036492651796575,-1.75261336008773 L-10.928346410042012,-1.688655851004034 L-10.82442949541506,-1.6180339887498993 L-10.725152020502627,-1.5410264855515838 L-10.630905788142629,-1.457937254842829 L-10.542062745157184,-1.3690942118573843 L-10.458973514448427,-1.2748479794973875 L-10.381966011250112,-1.1755705045849552 L-10.311344148995977,-1.0716535899580033 L-10.247386639912278,-0.9635073482034415 L-10.190345895067967,-0.8515585831301573 L-10.140447028223502,-0.7362491053693689 L-10.097886967409698,-0.6180339887499088 L-10.062833677742741,-0.49737977432972447 L-10.035425498542626,-0.3747626291714651 L-10.015770597371047,-0.25066646712862517 L-10.003946543143458,-0.12558103905864426 L-10.0,-1.8253427113661445e-14 " />
			<path d="M-10.5,0.0 L-10.503910152723076,0.10823663370092412 L-10.515620225166543,0.21590897171117868 L-10.53506916643487,0.32245566031653605 L-10.562155578753838,0.4273212144175499 L-10.596738246111599,0.5299589135716536 L-10.638636870493565,0.6298336523403969 L-10.687633011872776,0.7264247300814293 L-10.743471227055053,0.8192285656405454 L-10.805860401441535,0.9077613227906477 L-10.874475266765396,0.9915614327298002 L-10.948958096889985,1.0701920004872396 L-11.028920572827259,1.1432430826914546 L-11.113945807253174,1.2103338248251052 L-11.20359051796517,1.2711144468241296 L-11.297387338950314,1.3252680666690342 L-11.394847257015286,1.372512352461018 L-11.495462161274737,1.412600994369762 L-11.598707492206168,1.4453249887788344 L-11.704044976460398,1.47051372793377 L-11.810925433169565,1.4880358894119066 L-11.918791637121872,1.4978001207766858 L-12.02708122387584,1.499755515846962 L-12.135229621668097,1.4938918800982564 L-12.242672994829146,1.4802397838122894 L-12.348851183361464,1.458870402697685 L-12.453210623354359,1.4298951468127845 L-12.55520723300987,1.3934650797251877 L-12.65430924923335,1.3497701309362604 L-12.75,1.2990381056766584 L-12.841780598043574,1.2415334972353362 L-12.929172541823585,1.177556108014009 L-13.01172021021077,1.1074394864962482 L-13.088993237884697,1.0315491882801349 L-13.160588759059255,0.9502808702406356 L-13.226133507838338,0.864058227757859 L-13.285285764251384,0.7733307857655319 L-13.337737135823074,0.6785715551361393 L-13.3832141653889,0.5802745666212575 L-13.421479756774204,0.4789522952039684 L-13.452334410903845,0.3751329882915927 L-13.475617265898004,0.26935791167830536 L-13.49120693573154,0.16217852763591023 L-13.499022143084515,0.054153619844901954 L-13.499022143084515,-0.054153619844907575 L-13.491206935731539,-0.16217852763591584 L-13.475617265898004,-0.2693579116783109 L-13.452334410903845,-0.3751329882915982 L-13.421479756774202,-0.47895229520397375 L-13.383214165388898,-0.5802745666212628 L-13.33773713582307,-0.6785715551361444 L-13.28528576425138,-0.7733307857655367 L-13.226133507838334,-0.8640582277578637 L-13.160588759059252,-0.9502808702406398 L-13.088993237884692,-1.031549188280139 L-13.011720210210767,-1.107439486496252 L-12.92917254182358,-1.177556108014012 L-12.84178059804357,-1.2415334972353387 L-12.749999999999996,-1.2990381056766602 L-12.654309249233346,-1.3497701309362617 L-12.555207233009869,-1.3934650797251886 L-12.453210623354355,-1.4298951468127852 L-12.348851183361463,-1.4588704026976855 L-12.242672994829144,-1.4802397838122898 L-12.135229621668095,-1.4938918800982566 L-12.02708122387584,-1.499755515846962 L-11.918791637121872,-1.4978001207766858 L-11.810925433169565,-1.4880358894119063 L-11.704044976460398,-1.47051372793377 L-11.598707492206168,-1.4453249887788344 L-11.495462161274737,-1.4126009943697622 L-11.394847257015288,-1.3725123524610185 L-11.297387338950315,-1.3252680666690348 L-11.203590517965171,-1.2711144468241304 L-11.113945807253174,-1.2103338248251065 L-11.02892057282726,-1.1432430826914561 L-10.948958096889989,-1.0701920004872416 L-10.874475266765398,-0.9915614327298026 L-10.805860401441537,-0.9077613227906505 L-10.743471227055055,-0.8192285656405487 L-10.687633011872778,-0.7264247300814329 L-10.638636870493567,-0.6298336523404011 L-10.5967382461116,-0.5299589135716583 L-10.56215557875384,-0.42732121441755505 L-10.535069166434871,-0.32245566031654177 L-10.515620225166545,-0.21590897171118484 L-10.503910152723076,-0.10823663370093072 L-10.5,-7.028732187495145e-15 " />
			<path d="M-20.0,-10.0 L-20.0,10.0 " />
			<path d="M-20.0,-10.0 L20.0,-10.0 " />
			<path d="M20.0,-10.0 L20.0,10.0 " />
			<path d="M-20.0,10.0 L20.0,10.0 " />
			<path d="M-10.0,0.0 L-10.003946543143456,-0.12558103905862675 L-10.015770597371045,-0.2506664671286085 L-10.035425498542622,-0.37476262917144926 L-10.062833677742738,-0.4973797743297096 L-10.097886967409693,-0.6180339887498948 L-10.140447028223496,-0.7362491053693558 L-10.19034589506796,-0.8515585831301452 L-10.247386639912273,-0.9635073482034304 L-10.31134414899597,-1.071653589957993 L-10.381966011250105,-1.175570504584946 L-10.458973514448422,-1.2748479794973793 L-10.542062745157176,-1.369094211857377 L-10.630905788142622,-1.4579372548428229 L-10.72515202050262,-1.541026485551578 L-10.824429495415053,-1.6180339887498945 L-10.928346410042007,-1.68865585100403 L-11.03649265179657,-1.7526133600877272 L-11.148441416869854,-1.8096541049320392 L-11.263750894630645,-1.859552971776503 L-11.381966011250105,-1.9021130325903073 L-11.502620225670292,-1.9371663222572624 L-11.625237370828552,-1.9645745014573774 L-11.749333532871393,-1.9842294026289558 L-11.874418960941375,-1.9960534568565431 L-12.000000000000002,-2.0 L-12.125581039058629,-1.9960534568565431 L-12.25066646712861,-1.9842294026289555 L-12.374762629171451,-1.964574501457377 L-12.497379774329712,-1.9371663222572617 L-12.618033988749897,-1.9021130325903064 L-12.736249105369359,-1.859552971776502 L-12.851558583130148,-1.8096541049320383 L-12.963507348203432,-1.752613360087726 L-13.071653589957995,-1.6886558510040288 L-13.175570504584948,-1.6180339887498933 L-13.274847979497382,-1.5410264855515767 L-13.36909421185738,-1.457937254842821 L-13.457937254842825,-1.3690942118573752 L-13.54102648555158,-1.274847979497377 L-13.618033988749897,-1.1755705045849436 L-13.688655851004032,-1.0716535899579902 L-13.752613360087729,-0.9635073482034273 L-13.80965410493204,-0.8515585831301418 L-13.859552971776504,-0.7362491053693522 L-13.902113032590309,-0.6180339887498908 L-13.937166322257264,-0.4973797743297053 L-13.964574501457378,-0.37476262917144476 L-13.984229402628957,-0.2506664671286038 L-13.996053456856544,-0.12558103905862186 L-14.0,5.084141158371281e-15 L-13.996053456856544,0.125581039058632 L-13.984229402628955,0.2506664671286139 L-13.964574501457376,0.37476262917145475 L-13.93716632225726,0.4973797743297152 L-13.902113032590306,0.6180339887499005 L-13.8595529717765,0.7362491053693616 L-13.809654104932036,0.851558583130151 L-13.752613360087723,0.9635073482034362 L-13.688655851004027,1.0716535899579989 L-13.618033988749891,1.1755705045849518 L-13.541026485551575,1.2748479794973848 L-13.457937254842818,1.3690942118573826 L-13.369094211857371,1.457937254842828 L-13.274847979497373,1.5410264855515832 L-13.175570504584941,1.618033988749899 L-13.071653589957988,1.6886558510040335 L-12.963507348203425,1.7526133600877298 L-12.85155858313014,1.809654104932041 L-12.736249105369353,1.8595529717765042 L-12.618033988749891,1.9021130325903082 L-12.497379774329707,1.9371663222572628 L-12.374762629171448,1.9645745014573777 L-12.250666467128607,1.9842294026289558 L-12.125581039058627,1.9960534568565431 L-12.0,2.0 L-11.874418960941375,1.9960534568565431 L-11.749333532871393,1.984229402628956 L-11.625237370828554,1.9645745014573779 L-11.502620225670293,1.937166322257263 L-11.381966011250109,1.9021130325903084 L-11.263750894630649,1.8595529717765045 L-11.14844141686986,1.8096541049320414 L-11.036492651796575,1.75261336008773 L-10.928346410042012,1.688655851004034 L-10.82442949541506,1.6180339887498993 L-10.725152020502627,1.5410264855515838 L-10.630905788142629,1.457937254842829 L-10.542062745157184,1.3690942118573843 L-10.458973514448427,1.2748479794973875 L-10.381966011250112,1.1755705045849552 L-10.311344148995977,1.0716535899580033 L-10.247386639912278,0.9635073482034415 L-10.190345895067967,0.8515585831301573 L-10.140447028223502,0.7362491053693689 L-10.097886967409698,0.6180339887499088 L-10.062833677742741,0.49737977432972447 L-10.035425498542626,0.3747626291714651 L-10.015770597371047,0.25066646712862517 L-10.003946543143458,0.12558103905864426 L-10.0,1.8253427113661445e-14 " />
			<path d="M17.0,-5.0 L7.0,-5.0 " />
			<path d="M7.0,-5.0 L7.0,5.0 " />
			<path d="M17.0,5.0 L7.0,5.0 " />
			<path d="M17.0,-5.0 L17.0,5.0 " />
			<path d="M7.0,0.0 L17.0,0.0 " />

       </g>

       <!-- solid lines -->
       <g  stroke="rgb(0,0,0)" fill="none">
			<path d="M-20.0,-10.0 L-20.0,10.0 " />
			<path d="M-20.0,-10.0 L20.0,-10.0 " />
			<path d="M20.0,-10.0 L20.0,10.0 " />
			<path d="M-20.0,10.0 L20.0,10.0 " />
			<path d="M-10.0,0.0 L-10.003946543143456,0.12558103905862675 L-10.015770597371045,0.2506664671286085 L-10.035425498542622,0.37476262917144926 L-10.062833677742738,0.4973797743297096 L-10.097886967409693,0.6180339887498948 L-10.140447028223496,0.7362491053693558 L-10.19034589506796,0.8515585831301452 L-10.247386639912273,0.9635073482034304 L-10.31134414899597,1.071653589957993 L-10.381966011250105,1.175570504584946 L-10.458973514448422,1.2748479794973793 L-10.542062745157176,1.369094211857377 L-10.630905788142622,1.4579372548428229 L-10.72515202050262,1.541026485551578 L-10.824429495415053,1.6180339887498945 L-10.928346410042007,1.68865585100403 L-11.03649265179657,1.7526133600877272 L-11.148441416869854,1.8096541049320392 L-11.263750894630645,1.859552971776503 L-11.381966011250105,1.9021130325903073 L-11.502620225670292,1.9371663222572624 L-11.625237370828552,1.9645745014573774 L-11.749333532871393,1.9842294026289558 L-11.874418960941375,1.9960534568565431 L-12.000000000000002,2.0 L-12.125581039058629,1.9960534568565431 L-12.25066646712861,1.9842294026289555 L-12.374762629171451,1.964574501457377 L-12.497379774329712,1.9371663222572617 L-12.618033988749897,1.9021130325903064 L-12.736249105369359,1.859552971776502 L-12.851558583130148,1.8096541049320383 L-12.963507348203432,1.752613360087726 L-13.071653589957995,1.6886558510040288 L-13.175570504584948,1.6180339887498933 L-13.274847979497382,1.5410264855515767 L-13.36909421185738,1.457937254842821 L-13.457937254842825,1.3690942118573752 L-13.54102648555158,1.274847979497377 L-13.618033988749897,1.1755705045849436 L-13.688655851004032,1.0716535899579902 L-13.752613360087729,0.9635073482034273 L-13.80965410493204,0.8515585831301418 L-13.859552971776504,0.7362491053693522 L-13.902113032590309,0.6180339887498908 L-13.937166322257264,0.4973797743297053 L-13.964574501457378,0.37476262917144476 L-13.984229402628957,0.2506664671286038 L-13.996053456856544,0.12558103905862186 L-14.0,-5.084141158371281e-15 L-13.996053456856544,-0.125581039058632 L-13.984229402628955,-0.2506664671286139 L-13.964574501457376,-0.37476262917145475 L-13.93716632225726,-0.4973797743297152 L-13.902113032590306,-0.6180339887499005 L-13.8595529717765,-0.7362491053693616 L-13.809654104932036,-0.851558583130151 L-13.752613360087723,-0.9635073482034362 L-13.688655851004027,-1.0716535899579989 L-13.618033988749891,-1.1755705045849518 L-13.541026485551575,-1.2748479794973848 L-13.457937254842818,-1.3690942118573826 L-13.369094211857371,-1.457937254842828 L-13.274847979497373,-1.5410264855515832 L-13.175570504584941,-1.618033988749899 L-13.071653589957988,-1.6886558510040335 L-12.963507348203425,-1.7526133600877298 L-12.85155858313014,-1.809654104932041 L-12.736249105369353,-1.8595529717765042 L-12.618033988749891,-1.9021130325903082 L-12.497379774329707,-1.9371663222572628 L-12.374762629171448,-1.9645745014573777 L-12.250666467128607,-1.9842294026289558 L-12.125581039058627,-1.9960534568565431 L-12.0,-2.0 L-11.874418960941375,-1.9960534568565431 L-11.749333532871393,-1.984229402628956 L-11.625237370828554,-1.9645745014573779 L-11.502620225670293,-1.937166322257263 L-11.381966011250109,-1.9021130325903084 L-11.263750894630649,-1.8595529717765045 L-11.14844141686986,-1.8096541049320414 L-11.036492651796575,-1.75261336008773 L-10.928346410042012,-1.688655851004034 L-10.82442949541506,-1.6180339887498993 L-10.725152020502627,-1.5410264855515838 L-10.630905788142629,-1.457937254842829 L-10.542062745157184,-1.3690942118573843 L-10.458973514448427,-1.2748479794973875 L-10.381966011250112,-1.1755705045849552 L-10.311344148995977,-1.0716535899580033 L-10.247386639912278,-0.9635073482034415 L-10.190345895067967,-0.8515585831301573 L-10.140447028223502,-0.7362491053693689 L-10.097886967409698,-0.6180339887499088 L-10.062833677742741,-0.49737977432972447 L-10.035425498542626,-0.3747626291714651 L-10.015770597371047,-0.25066646712862517 L-10.003946543143458,-0.12558103905864426 L-10.0,-1.8253427113661445e-14 " />
			<path d="M7.0,-5.0 L17.0,-5.0 " />
			<path d="M17.0,-5.0 L17.0,0.0 " />
			<path d="M17.0,5.0 L17.0,0.0 " />
			<path d="M7.0,5.0 L17.0,5.0 " />
			<path d="M7.0,-5.0 L7.0,0.0 " />
			<path d="M7.0,5.0 L7.0,0.0 " />
			<path d="M-10.5,0.0 L-10.503910152723076,0.10823663370092412 L-10.515620225166543,0.21590897171117868 L-10.53506916643487,0.32245566031653605 L-10.562155578753838,0.4273212144175499 L-10.596738246111599,0.5299589135716536 L-10.638636870493565,0.6298336523403969 L-10.687633011872776,0.7264247300814293 L-10.743471227055053,0.8192285656405454 L-10.805860401441535,0.9077613227906477 L-10.874475266765396,0.9915614327298002 L-10.948958096889985,1.0701920004872396 L-11.028920572827259,1.1432430826914546 L-11.113945807253174,1.2103338248251052 L-11.20359051796517,1.2711144468241296 L-11.297387338950314,1.3252680666690342 L-11.394847257015286,1.372512352461018 L-11.495462161274737,1.412600994369762 L-11.598707492206168,1.4453249887788344 L-11.704044976460398,1.47051372793377 L-11.810925433169565,1.4880358894119066 L-11.918791637121872,1.4978001207766858 L-12.02708122387584,1.499755515846962 L-12.135229621668097,1.4938918800982564 L-12.242672994829146,1.4802397838122894 L-12.348851183361464,1.458870402697685 L-12.453210623354359,1.4298951468127845 L-12.55520723300987,1.3934650797251877 L-12.65430924923335,1.3497701309362604 L-12.75,1.2990381056766584 L-12.841780598043574,1.2415334972353362 L-12.929172541823585,1.177556108014009 L-13.01172021021077,1.1074394864962482 L-13.088993237884697,1.0315491882801349 L-13.160588759059255,0.9502808702406356 L-13.226133507838338,0.864058227757859 L-13.285285764251384,0.7733307857655319 L-13.337737135823074,0.6785715551361393 L-13.3832141653889,0.5802745666212575 L-13.421479756774204,0.4789522952039684 L-13.452334410903845,0.3751329882915927 L-13.475617265898004,0.26935791167830536 L-13.49120693573154,0.16217852763591023 L-13.499022143084515,0.054153619844901954 L-13.499022143084515,-0.054153619844907575 L-13.491206935731539,-0.16217852763591584 L-13.475617265898004,-0.2693579116783109 L-13.452334410903845,-0.3751329882915982 L-13.421479756774202,-0.47895229520397375 L-13.383214165388898,-0.5802745666212628 L-13.33773713582307,-0.6785715551361444 L-13.28528576425138,-0.7733307857655367 L-13.226133507838334,-0.8640582277578637 L-13.160588759059252,-0.9502808702406398 L-13.088993237884692,-1.031549188280139 L-13.011720210210767,-1.107439486496252 L-12.92917254182358,-1.177556108014012 L-12.84178059804357,-1.2415334972353387 L-12.749999999999996,-1.2990381056766602 L-12.654309249233346,-1.3497701309362617 L-12.555207233009869,-1.3934650797251886 L-12.453210623354355,-1.4298951468127852 L-12.348851183361463,-1.4588704026976855 L-12.242672994829144,-1.4802397838122898 L-12.135229621668095,-1.4938918800982566 L-12.02708122387584,-1.499755515846962 L-11.918791637121872,-1.4978001207766858 L-11.810925433169565,-1.4880358894119063 L-11.704044976460398,-1.47051372793377 L-11.598707492206168,-1.4453249887788344 L-11.495462161274737,-1.4126009943697622 L-11.394847257015288,-1.3725123524610185 L-11.297387338950315,-1.3252680666690348 L-11.203590517965171,-1.2711144468241304 L-11.113945807253174,-1.2103338248251065 L-11.02892057282726,-1.1432430826914561 L-10.948958096889989,-1.0701920004872416 L-10.874475266765398,-0.9915614327298026 L-10.805860401441537,-0.9077613227906505 L-10.743471227055055,-0.8192285656405487 L-10.687633011872778,-0.7264247300814329 L-10.638636870493567,-0.6298336523404011 L-10.5967382461116,-0.5299589135716583 L-10.56215557875384,-0.42732121441755505 L-10.535069166434871,-0.32245566031654177 L-10.515620225166545,-0.21590897171118484 L-10.503910152723076,-0.10823663370093072 L-10.5,-7.028732187495145e-15 " />
			<path d="M17.0,0.0 L7.0,0.0 " />

       </g>
    </g>
  </g>
  <clipPath id="clip_right"><rect x="42" y="518" width="739" height="452"/></clipPath>
  <g clip-path="url(#clip_right)" transform="translate(42,544)">
    <g transform="scale(9.0, -9.0)   translate(34.72222232222222,-12.222222222222221)" stroke-width="0.1111111111111111"  fill="none">
       <!-- hidden lines -->
       <g  stroke="rgb(160,160,160)" fill="none" stroke-dasharray="0.1111111111111111,0.1111111111111111" >
			<path d="M-2.5,-4.898587196589e-16 L-2.5,-0.2239289522066161 L-2.5,-0.44504186791262906 L-2.5,-0.6605581239103344 L-2.5,-0.8677674782351162 L-2.5,-1.064064153030673 L-2.5,-1.246979603717467 L-2.5,-1.414213562373095 L-2.5,-1.5636629649360594 L-2.5,-1.693448398456568 L-2.5,-1.8019377358048378 L-2.5,-1.8877666606167347 L-2.5,-1.9498558243636466 L-2.5,-1.9874244197864848 L-2.5,-1.9999999999999991 " />
			<path d="M-2.5,-1.9999999999999993 L-2.5,-1.9498558243636466 L-2.5,-1.801937735804838 L-2.5,-1.5636629649360594 L-2.5,-1.246979603717467 L-2.5,-0.8677674782351164 L-2.5,-0.445041867912629 L-2.5,-1.9915985002062111e-16 L-2.5,0.4450418679126286 L-2.5,0.867767478235116 L-2.5,1.246979603717467 L-2.5,1.5636629649360596 L-2.5,1.8019377358048385 L-2.5,1.9498558243636477 L-2.5,1.999999999999999 " />
			<path d="M-2.5,2.000000000000001 L-2.5,1.9874244197864859 L-2.5,1.9498558243636481 L-2.5,1.887766660616736 L-2.5,1.8019377358048394 L-2.5,1.6934483984565696 L-2.5,1.563662964936061 L-2.5,1.4142135623730965 L-2.5,1.2469796037174685 L-2.5,1.0640641530306747 L-2.5,0.8677674782351179 L-2.5,0.6605581239103359 L-2.5,0.44504186791263056 L-2.5,0.2239289522066175 L-2.5,1.7708057242771247e-14 " />
			<path d="M-12.0,-2.0 L-12.0,-1.9498558243636472 L-12.0,-1.8019377358048383 L-12.0,-1.5636629649360598 L-12.0,-1.2469796037174672 L-12.0,-0.8677674782351165 L-12.0,-0.445041867912629 L-12.0,-2.4492935982947064e-16 L-12.0,0.44504186791262856 L-12.0,0.867767478235116 L-12.0,1.2469796037174667 L-12.0,1.5636629649360594 L-12.0,1.801937735804838 L-12.0,1.9498558243636472 L-12.0,1.999999999999998 " />
			<path d="M-12.5,-1.5 L-12.5,-1.4623918682727355 L-12.5,-1.3514533018536288 L-12.5,-1.1727472237020449 L-12.5,-0.9352347027881004 L-12.5,-0.6508256086763373 L-12.5,-0.33378140093447173 L-12.5,-1.8369701987210297e-16 L-12.5,0.3337814009344714 L-12.5,0.650825608676337 L-12.5,0.9352347027881001 L-12.5,1.1727472237020446 L-12.5,1.3514533018536286 L-12.5,1.4623918682727355 L-12.5,1.4999999999999984 " />
			<path d="M-2.5,10.0 L-2.5,-10.0 " />
			<path d="M-2.5,10.0 L2.5,10.0 " />
			<path d="M-2.5,-10.0 L2.5,-10.0 " />
			<path d="M2.5,10.0 L2.5,-10.0 " />
			<path d="M2.5,0.0 L2.5,0.22392895220667447 L2.5,0.4450418679127441 L2.5,0.6605581239105016 L2.5,0.8677674782353293 L2.5,1.0640641530309234 L2.5,1.2469796037177443 L2.5,1.4142135623733876 L2.5,1.5636629649363543 L2.5,1.6934483984568514 L2.5,1.8019377358050948 L2.5,1.8877666606169499 L2.5,1.9498558243638051 L2.5,1.9874244197865711 L2.5,1.9999999999999998 " />
			<path d="M2.5,2.0 L2.5,1.949855824363463 L2.5,1.8019377358044792 L2.5,1.5636629649355436 L2.5,1.24697960371682 L2.5,0.8677674782343706 L2.5,0.445041867911822 L2.5,-8.275373578006872e-13 L2.5,-0.4450418679134356 L2.5,-0.8677674782358618 L2.5,-1.246979603718114 L2.5,-1.5636629649365754 L2.5,-1.8019377358051973 L2.5,-1.9498558243638313 L2.5,-1.999999999999998 " />
			<path d="M2.5,-2.0 L2.5,-1.987424419786399 L2.5,-1.9498558243634891 L2.5,-1.88776666061652 L2.5,-1.801937735804581 L2.5,-1.693448398456284 L2.5,-1.563662964935763 L2.5,-1.4142135623728003 L2.5,-1.246979603717187 L2.5,-1.0640641530304193 L2.5,-0.867767478234899 L2.5,-0.6605581239101619 L2.5,-0.44504186791250805 L2.5,-0.22392895220655087 L2.5,-1.8235413179468196e-14 " />
			<path d="M2.5,5.0 L2.5,-5.0 " />
			<path d="M2.5,5.0 L2.5,-5.0 " />
			<path d="M17.0,-2.0 L17.0,-1.9498558243636472 L17.0,-1.8019377358048383 L17.0,-1.5636629649360598 L17.0,-1.2469796037174672 L17.0,-0.8677674782351165 L17.0,-0.445041867912629 L17.0,-2.4492935982947064e-16 L17.0,0.44504186791262856 L17.0,0.867767478235116 L17.0,1.2469796037174667 L17.0,1.5636629649360594 L17.0,1.801937735804838 L17.0,1.9498558243636472 L17.0,1.999999999999998 " />
			<path d="M2.5,5.0 L10.5,5.0 " />
			<path d="M2.5,-5.0 L5.0,-5.0 " />
			<path d="M10.5,5.0 L10.5,0.0 " />
			<path d="M5.0,-5.0 L5.0,0.0 " />
			<path d="M5.0,0.0 L10.5,0.0 " />
			<path d="M17.5,-1.5 L17.5,-1.4623918682727355 L17.5,-1.3514533018536288 L17.5,-1.1727472237020449 L17.5,-0.9352347027881004 L17.5,-0.6508256086763373 L17.5,-0.33378140093447173 L17.5,-1.8369701987210297e-16 L17.5,0.3337814009344714 L17.5,0.650825608676337 L17.5,0.9352347027881001 L17.5,1.1727472237020446 L17.5,1.3514533018536286 L17.5,1.4623918682727355 L17.5,1.4999999999999984 " />
			<path d="M10.5,2.0 L2.5,2.0 " />
			<path d="M5.0,-2.0 L2.5,-2.0 " />

       </g>

       <!-- solid lines -->
       <g  stroke="rgb(0,0,0)" fill="none">
			<path d="M-12.0,0.0 L-12.0,-0.2239289522066157 L-12.0,-0.4450418679126288 L-12.0,-0.6605581239103342 L-12.0,-0.8677674782351162 L-12.0,-1.0640641530306731 L-12.0,-1.246979603717467 L-12.0,-1.4142135623730951 L-12.0,-1.5636629649360596 L-12.0,-1.6934483984565682 L-12.0,-1.8019377358048383 L-12.0,-1.8877666606167351 L-12.0,-1.9498558243636472 L-12.0,-1.9874244197864852 L-12.0,-1.9999999999999998 " />
			<path d="M-12.0,2.0 L-12.0,1.9874244197864852 L-12.0,1.9498558243636472 L-12.0,1.8877666606167351 L-12.0,1.8019377358048385 L-12.0,1.6934483984565685 L-12.0,1.5636629649360598 L-12.0,1.4142135623730954 L-12.0,1.2469796037174674 L-12.0,1.0640641530306736 L-12.0,0.8677674782351167 L-12.0,0.6605581239103346 L-12.0,0.4450418679126293 L-12.0,0.22392895220661618 L-12.0,1.8207657603852567e-14 " />
			<path d="M-12.5,0.0 L-12.5,-0.1679467141549618 L-12.5,-0.3337814009344716 L-12.5,-0.49541859293275065 L-12.5,-0.6508256086763372 L-12.5,-0.7980481147730049 L-12.5,-0.9352347027881003 L-12.5,-1.0606601717798214 L-12.5,-1.1727472237020446 L-12.5,-1.2700862988424262 L-12.5,-1.3514533018536288 L-12.5,-1.4158249954625513 L-12.5,-1.4623918682727355 L-12.5,-1.4905683148398639 L-12.5,-1.4999999999999998 " />
			<path d="M-12.5,1.5 L-12.5,1.4905683148398639 L-12.5,1.4623918682727355 L-12.5,1.4158249954625513 L-12.5,1.351453301853629 L-12.5,1.2700862988424264 L-12.5,1.1727472237020449 L-12.5,1.0606601717798214 L-12.5,0.9352347027881005 L-12.5,0.7980481147730052 L-12.5,0.6508256086763375 L-12.5,0.495418592932751 L-12.5,0.33378140093447195 L-12.5,0.16794671415496215 L-12.5,1.3655743202889425e-14 " />
			<path d="M-2.5,10.0 L-2.5,-10.0 " />
			<path d="M-2.5,10.0 L2.5,10.0 " />
			<path d="M-2.5,-10.0 L2.5,-10.0 " />
			<path d="M2.5,10.0 L2.5,-10.0 " />
			<path d="M17.0,0.0 L17.0,-0.2239289522066157 L17.0,-0.4450418679126288 L17.0,-0.6605581239103342 L17.0,-0.8677674782351162 L17.0,-1.0640641530306731 L17.0,-1.246979603717467 L17.0,-1.4142135623730951 L17.0,-1.5636629649360596 L17.0,-1.6934483984565682 L17.0,-1.8019377358048383 L17.0,-1.8877666606167351 L17.0,-1.9498558243636472 L17.0,-1.9874244197864852 L17.0,-1.9999999999999998 " />
			<path d="M17.0,2.0 L17.0,1.9874244197864852 L17.0,1.9498558243636472 L17.0,1.8877666606167351 L17.0,1.8019377358048385 L17.0,1.6934483984565685 L17.0,1.5636629649360598 L17.0,1.4142135623730954 L17.0,1.2469796037174674 L17.0,1.0640641530306736 L17.0,0.8677674782351167 L17.0,0.6605581239103346 L17.0,0.4450418679126293 L17.0,0.22392895220661618 L17.0,1.8207657603852567e-14 " />
			<path d="M2.5,5.0 L10.5,5.0 " />
			<path d="M10.5,5.0 L10.5,0.0 " />
			<path d="M2.5,-5.0 L5.0,-5.0 " />
			<path d="M5.0,-5.0 L5.0,0.0 " />
			<path d="M5.0,0.0 L10.5,0.0 " />
			<path d="M17.5,0.0 L17.5,-0.1679467141549618 L17.5,-0.3337814009344716 L17.5,-0.49541859293275065 L17.5,-0.6508256086763372 L17.5,-0.7980481147730049 L17.5,-0.9352347027881003 L17.5,-1.0606601717798214 L17.5,-1.1727472237020446 L17.5,-1.2700862988424262 L17.5,-1.3514533018536288 L17.5,-1.4158249954625513 L17.5,-1.4623918682727355 L17.5,-1.4905683148398639 L17.5,-1.4999999999999998 " />
			<path d="M17.5,1.5 L17.5,1.4905683148398639 L17.5,1.4623918682727355 L17.5,1.4158249954625513 L17.5,1.351453301853629 L17.5,1.2700862988424264 L17.5,1.1727472237020449 L17.5,1.0606601717798214 L17.5,0.9352347027881005 L17.5,0.7980481147730052 L17.5,0.6508256086763375 L17.5,0.495418592932751 L17.5,0.33378140093447195 L17.5,0.16794671415496215 L17.5,1.3655743202889425e-14 " />
			<path d="M-2.5,2.0 L-12.0,2.0 " />
			<path d="M-2.5,-2.0 L-12.0,-2.0 " />
			<path d="M-12.5,-1.5000000000004485 L-12.0,-1.9999999999999998 " />
			<path d="M-12.5,1.5000000000004485 L-12.0,1.9999999999999998 " />
			<path d="M17.0,2.0 L10.5,2.0 " />
			<path d="M17.0,-2.0 L5.0,-2.0 " />
			<path d="M17.500000000000224,1.5000000000002254 L17.0,2.000000000000001 " />
			<path d="M17.500000000000224,-1.5000000000002254 L17.0,-2.000000000000001 " />

       </g>
    </g>
  </g>
  <clipPath id="clip_section"><rect x="805" y="518" width="739" height="452"/></clipPath>
  <g clip-path="url(#clip_section)" transform="translate(805,544)">
    <g transform="scale(4.5, -4.5)   translate(61.944444544444444,-24.444444444444443)" stroke-width="0.2222222222222222"  fill="none">
       <!-- hidden lines -->
       <g  stroke="rgb(160,160,160)" fill="none" stroke-dasharray="0.2222222222222222,0.2222222222222222" >
			<path d="M2.5,-10.0 L2.5,-10.050144175636353 L2.5,-10.198062264195162 L2.5,-10.436337035063941 L2.5,-10.753020396282533 L2.5,-11.132232521764884 L2.5,-11.554958132087371 L2.5,-12.000000000000002 L2.5,-12.44504186791263 L2.5,-12.867767478235118 L2.5,-13.246979603717469 L2.5,-13.56366296493606 L2.5,-13.801937735804838 L2.5,-13.949855824363647 L2.5,-13.999999999999998 " />
			<path d="M12.0,-10.0 L12.0,-10.050144175636353 L12.0,-10.198062264195162 L12.0,-10.436337035063941 L12.0,-10.753020396282533 L12.0,-11.132232521764884 L12.0,-11.554958132087371 L12.0,-12.0 L12.0,-12.445041867912629 L12.0,-12.867767478235116 L12.0,-13.246979603717467 L12.0,-13.563662964936059 L12.0,-13.801937735804838 L12.0,-13.949855824363647 L12.0,-13.999999999999998 " />
			<path d="M2.5,-20.0 L2.5,20.0 " />
			<path d="M12.5,-10.5 L12.5,-10.537608131727264 L12.5,-10.64854669814637 L12.5,-10.827252776297955 L12.5,-11.064765297211899 L12.5,-11.349174391323663 L12.5,-11.666218599065528 L12.5,-12.0 L12.5,-12.333781400934472 L12.5,-12.650825608676337 L12.5,-12.935234702788101 L12.5,-13.172747223702045 L12.5,-13.351453301853628 L12.5,-13.462391868272736 L12.5,-13.5 " />
			<path d="M2.5,-20.0 L-2.5,-20.0 " />
			<path d="M-2.5,-20.0 L-2.5,20.0 " />
			<path d="M-2.5,17.0 L-2.5,7.0 " />
			<path d="M-2.5,-14.0 L-2.5,-13.949855824363647 L-2.5,-13.801937735804838 L-2.5,-13.56366296493606 L-2.5,-13.246979603717467 L-2.5,-12.867767478235116 L-2.5,-12.445041867912629 L-2.5,-12.0 L-2.5,-11.554958132087371 L-2.5,-11.132232521764884 L-2.5,-10.753020396282533 L-2.5,-10.436337035063941 L-2.5,-10.198062264195162 L-2.5,-10.050144175636353 L-2.5,-10.000000000000002 " />
			<path d="M-17.0,-10.0 L-17.0,-10.050144175636353 L-17.0,-10.198062264195162 L-17.0,-10.436337035063941 L-17.0,-10.753020396282533 L-17.0,-11.132232521764884 L-17.0,-11.554958132087371 L-17.0,-12.0 L-17.0,-12.445041867912629 L-17.0,-12.867767478235116 L-17.0,-13.246979603717467 L-17.0,-13.563662964936059 L-17.0,-13.801937735804838 L-17.0,-13.949855824363647 L-17.0,-13.999999999999998 " />
			<path d="M-17.5,-10.5 L-17.5,-10.537608131727264 L-17.5,-10.64854669814637 L-17.5,-10.827252776297955 L-17.5,-11.064765297211899 L-17.5,-11.349174391323663 L-17.5,-11.666218599065528 L-17.5,-12.0 L-17.5,-12.333781400934472 L-17.5,-12.650825608676337 L-17.5,-12.935234702788101 L-17.5,-13.172747223702045 L-17.5,-13.351453301853628 L-17.5,-13.462391868272736 L-17.5,-13.5 " />
			<path d="M-2.5,7.0 L-5.0,7.0 " />
			<path d="M-5.0,7.0 L-5.0,17.0 " />
			<path d="M-2.5,17.0 L-5.0,17.0 " />
			<path d="M2.5,20.0 L-2.5,20.0 " />

       </g>

       <!-- solid lines -->
       <g  stroke="rgb(0,0,0)" fill="none">
			<path d="M12.0,-10.0 L2.5,-10.0 " />
			<path d="M2.5,-14.0 L12.0,-14.0 " />
			<path d="M12.0,-10.0 L12.5,-10.5 " />
			<path d="M12.5,-13.5 L12.5,-10.5 " />
			<path d="M12.500000000000002,-13.500000000000448 L12.0,-14.0 " />
			<path d="M2.5,-20.0 L2.5,-14.0 " />
			<path d="M-2.5,-20.0 L2.5,-20.0 " />
			<path d="M-2.5,-20.0 L-2.5,-14.0 " />
			<path d="M-17.0,-14.0 L-2.5,-14.0 " />
			<path d="M-17.500000000000224,-13.500000000000224 L-17.0,-14.0 " />
			<path d="M-17.5,-13.5 L-17.5,-10.5 " />
			<path d="M-17.0,-10.0 L-17.5,-10.5 " />
			<path d="M-2.5,-10.0 L-17.0,-10.0 " />
			<path d="M-2.5,-10.0 L-2.5,7.0 " />
			<path d="M-5.0,7.0 L-2.5,7.0 " />
			<path d="M-5.0,7.0 L-5.0,17.0 " />
			<path d="M-5.0,17.0 L-2.5,17.0 " />
			<path d="M-2.5,17.0 L-2.5,20.0 " />
			<path d="M-2.5,20.0 L2.5,20.0 " />
			<path d="M2.5,-10.0 L2.5,20.0 " />

       </g>
    </g>
  </g>
  <text x="1174.5" y="964" text-anchor="middle" font-size="9" font-weight="bold" fill="#333" font-family="Arial, Helvetica, sans-serif">SECTION A-A  &#x2014;  CUT AT Y MIDPLANE</text>
  <rect x="1282" y="332" width="258" height="158" fill="#f4f4f4" stroke="#aaa" stroke-width="0.5"/>
  <text x="1285" y="341" font-size="7" fill="#777" font-family="Arial, Helvetica, sans-serif">ISO</text>
  <clipPath id="clip_iso"><rect x="1282" y="332" width="258" height="158"/></clipPath>
  <g clip-path="url(#clip_iso)" transform="translate(1282,358)">
    <g transform="scale(5.1871547494232, -5.1871547494232)   translate(60.47709320503702,-21.206230643539556)" stroke-width="0.19278391494126865"  fill="none">
       <!-- hidden lines -->
       <g  stroke="rgb(160,160,160)" fill="none" stroke-dasharray="0.19278391494126865,0.19278391494126865" >
			<path d="M-5.303300858899107,-5.103103630798288 L-5.305004341070225,-5.023959960043519 L-5.31011068374582,-4.946973965103874 L-5.318607585299124,-4.872331111984339 L-5.3304745759500545,-4.800211221856021 L-5.345683067078708,-4.7307880378511955 L-5.36419642009785,-4.6642288065008835 L-5.3859700347184765,-4.600693874823307 L-5.410951456395826,-4.540336304033879 L-5.439080502696962,-4.483301500807331 L-5.470289408285532,-4.429726866980297 L-5.504502988174395,-4.379741468538247 L-5.541638818852844,-4.333465724684234 L-5.58160743685206,-4.291011117738477 L-5.624312554270445,-4.252479924567693 L-5.669651290739612,-4.217964970191165 L-5.717514421272194,-4.187549404157143 " />
			<path d="M-5.717514421272202,-4.187549404157138 L-5.767786639394448,-4.161306500228277 L-5.820346834929566,-4.139299479858755 L-5.875068385762783,-4.1215813598882285 L-5.9318194628851,-4.10819482481963 L-5.990463347980922,-4.099172123988462 L-6.050858762794456,-4.0945349938713225 L-6.1128602094814015,-4.094294605720829 L-6.176318321126006,-4.098451538653089 L-6.2410802215790415,-4.106995778252568 L-6.306989893749845,-4.119906740697681 L-6.373888555465152,-4.1371533223490315 L-6.44161504198926,-4.1586939746808 L-6.510006194283991,-4.18447680437478 L-6.578897252073111,-4.214439698335931 L-6.648122250764262,-4.24851047332826 L-6.717514421272202,-4.286607049870563 L-6.786906591780143,-4.328637649973084 L-6.856131590471294,-4.37450101823873 L-6.925022648260414,-4.424086665796192 L-6.993413800555146,-4.477275136477315 L-7.061140287079253,-4.533938294597469 L-7.1280389487945595,-4.593939633645634 L-7.193948620965363,-4.6571346051405484 L-7.2587105214184,-4.723370966860655 L-7.322168633063003,-4.792489149608948 L-7.38417007974995,-4.864322641629151 L-7.4445654945634825,-4.938698389747116 L-7.503209379659305,-5.01543721627108 L-7.559960456781622,-5.09435425064642 L-7.614682007614839,-5.175259374825011 L-7.667242203149957,-5.2579576812762525 L-7.717514421272202,-5.342249942536389 L-7.765377551804793,-5.427933091164915 L-7.8107162882739605,-5.514800708951825 L-7.8534214056923455,-5.602643524197168 L-7.893390023691561,-5.691249915864895 L-7.930525854370011,-5.7804064233964745 L-7.964739434258874,-5.8698982609560755 L-7.995948339847443,-5.959509834868459 L-8.02407738614858,-6.049025263003022 L-8.049058807825928,-6.138228894852763 L-8.070832422446555,-6.22690583105524 L-8.089345775465697,-6.31484244110396 L-8.10455426659435,-6.401826878002978 L-8.11642125724528,-6.487649588624867 L-8.124918158798586,-6.572103818542558 L-8.13002450147418,-6.654986110118863 L-8.131727983645298,-6.736096792653742 L-8.13002450147418,-6.815240463408511 L-8.124918158798586,-6.892226458348157 L-8.11642125724528,-6.966869311467692 L-8.10455426659435,-7.03898920159601 L-8.089345775465697,-7.108412385600835 L-8.070832422446555,-7.174971616951148 L-8.049058807825928,-7.238506548628725 L-8.02407738614858,-7.298864119418152 L-7.995948339847443,-7.355898922644698 L-7.964739434258874,-7.409473556471733 L-7.930525854370011,-7.459458954913782 L-7.893390023691562,-7.505734698767796 L-7.8534214056923455,-7.548189305713553 L-7.8107162882739605,-7.586720498884337 L-7.765377551804793,-7.621235453260866 L-7.717514421272207,-7.65165101929489 " />
			<path d="M-7.717514421272202,-7.651651019294893 L-7.680029582919193,-7.671728015047238 L-7.641240314351226,-7.68943047319416 L-7.601199183980675,-7.704734402818731 L-7.559960456781622,-7.717619063563802 L-7.517580020748278,-7.728066993739988 L-7.474115311153861,-7.736064033990273 L-7.4296252327125405,-7.741599346479212 L-7.384170079749949,-7.744665429580708 L-7.337811454490461,-7.745258128044432 L-7.2906121835719535,-7.743376638627158 L-7.242636232901212,-7.739023511181337 L-7.193948620965363,-7.732204645199463 L-7.1446153307168165,-7.722929281818893 L-7.09470322015113,-7.711209991297979 L-7.044279931698998,-7.697062655980462 L-6.993413800555145,-7.680506448771231 L-6.942173762068358,-7.661563807152613 L-6.890629258318182,-7.640260402776405 L-6.838850144004869,-7.616625106672858 L-6.786906591780143,-7.590689950123771 L-6.682807883057802,-7.532063717391166 L-6.57889725207311,-7.464699405213301 L-6.4757377995384635,-7.388962066634486 L-6.373888555465152,-7.305262128854562 L-6.273901449731293,-7.21405316908834 L-6.176318321126005,-7.115829456591376 L-6.081667981078057,-7.011123274172052 L-5.9904633479809215,-6.900502033704914 L-5.9031986676435615,-6.78456520127657 L-5.820346834929566,-6.66394104862702 L-5.74235683109891,-6.539283248490661 L-5.669651290739611,-6.411267332287115 L-5.602624211474276,-6.28058702935792 L-5.541638818852842,-6.147950507587134 L-5.487025598001863,-6.01407653577821 L-5.439080502696961,-5.879690588583571 L-5.398063351563681,-5.745520915094613 L-5.36419642009785,-5.612294592396789 L-5.3376632361353975,-5.480733585475874 L-5.318607585299124,-5.351550834827161 L-5.307132731811941,-5.22544639296915 L-5.303300858899107,-5.103103630798303 " />
			<path d="M1.4142135623730951,-8.981462390204987 L1.4125100802019774,-8.902318719450218 L1.4074037375263826,-8.825332724510572 L1.3989068359730783,-8.750689871391037 L1.3870398453221475,-8.678569981262719 L1.371831354193494,-8.609146797257893 L1.3533180011743526,-8.542587565907581 L1.3315443865537255,-8.479052634230005 L1.3065629648763768,-8.418695063440577 L1.2784339185752414,-8.36166026021403 L1.247225012986672,-8.308085626386998 L1.2130114330978088,-8.258100227944947 L1.1758756024193588,-8.211824484090933 L1.1359069844201424,-8.169369877145176 L1.0932018670017574,-8.13083868397439 L1.0478631305325905,-8.096323729597863 L1.000000000000009,-8.065908163563842 " />
			<path d="M0.9999999999999996,-8.065908163563837 L0.949727781877754,-8.039665259634976 L0.8971675863426358,-8.017658239265453 L0.8424460355094188,-7.999940119294926 L0.7856949583871018,-7.9865535842263276 L0.7270510732912797,-7.97753088339516 L0.6666556584777461,-7.97289375327802 L0.6046542117908003,-7.972653365127527 L0.5411961001461965,-7.976810298059788 L0.47643419969316075,-7.985354537659266 L0.4105245275223569,-7.998265500104379 L0.3436258658070499,-8.01551208175573 L0.2758993792829425,-8.037052734087498 L0.20750822698821114,-8.062835563781478 L0.13861716919909106,-8.09279845774263 L0.06939217050794022,-8.126869232734958 L-3.3306690738754696e-16,-8.16496580927726 L-0.069392170507941,-8.206996409379782 L-0.13861716919909173,-8.252859777645428 L-0.20750822698821192,-8.30244542520289 L-0.2758993792829433,-8.355633895884013 L-0.3436258658070508,-8.412297054004167 L-0.4105245275223574,-8.472298393052332 L-0.4764341996931614,-8.535493364547246 L-0.5411961001461971,-8.601729726267353 L-0.604654211790801,-8.670847909015647 L-0.666655658477747,-8.74268140103585 L-0.7270510732912802,-8.817057149153815 L-0.7856949583871025,-8.893795975677778 L-0.8424460355094194,-8.972713010053118 L-0.8971675863426362,-9.053618134231709 L-0.9497277818777545,-9.13631644068295 L-1.0000000000000002,-9.220608701943087 L-1.0478631305325907,-9.306291850571613 L-1.0932018670017578,-9.393159468358524 L-1.1359069844201428,-9.481002283603866 L-1.1758756024193588,-9.569608675271592 L-1.213011433097808,-9.658765182803172 L-1.2472250129866713,-9.748257020362773 L-1.278433918575241,-9.837868594275157 L-1.3065629648763766,-9.92738402240972 L-1.3315443865537255,-10.01658765425946 L-1.3533180011743529,-10.105264590461939 L-1.371831354193494,-10.193201200510657 L-1.3870398453221475,-10.280185637409677 L-1.398906835973078,-10.366008348031565 L-1.4074037375263826,-10.450462577949256 L-1.4125100802019774,-10.53334486952556 L-1.414213562373095,-10.61445555206044 L-1.4125100802019774,-10.693599222815209 L-1.4074037375263826,-10.770585217754855 L-1.398906835973078,-10.84522807087439 L-1.3870398453221475,-10.917347961002708 L-1.371831354193494,-10.986771145007534 L-1.3533180011743529,-11.053330376357845 L-1.3315443865537255,-11.116865308035422 L-1.3065629648763766,-11.17722287882485 L-1.2784339185752407,-11.234257682051396 L-1.247225012986671,-11.28783231587843 L-1.213011433097808,-11.33781771432048 L-1.1758756024193588,-11.384093458174494 L-1.135906984420143,-11.426548065120251 L-1.0932018670017576,-11.465079258291036 L-1.0478631305325903,-11.499594212667564 L-1.0000000000000044,-11.530009778701588 " />
			<path d="M1.3693063937629155,-9.41563784655448 L1.388894362442948,-9.303700224010933 L1.4029418507378895,-9.19373426394053 L1.4113928213885627,-9.086178634870748 L1.4142135623730951,-8.981462390205001 " />
			<path d="M1.4142135623730945,-9.38971068066885 L1.4113396576884703,-9.301272108327309 L1.4027335175730862,-9.21663129155842 L1.3884417794458859,-9.136246906281757 L1.3685418914740546,-9.06055456244585 L1.3431416928746898,-8.989964443420128 L1.3123788295247416,-8.924859083175702 L1.276420008046078,-8.865591293300639 L1.2354600924078576,-8.812482251083384 L1.1897210479417992,-8.765819759025224 L1.1651358339887765,-8.744986394006395 L1.139450738492815,-8.725856685213577 L1.1127005706870303,-8.708456557817765 L1.0849215832233603,-8.692809593007937 L1.056151423041856,-8.67893699603309 L1.0264290803503875,-8.66685756746425 L0.96429020581491,-8.648141244857493 L0.8988416955619108,-8.6367620505615 L0.8304382207390807,-8.632781649416087 L0.7594504657031398,-8.636221611559929 L0.6862631192491933,-8.647063295540125 L0.6112727899488195,-8.665247949331832 L0.5348858568938547,-8.69067702872059 L0.4575162674928866,-8.723212731321945 L0.37958329425438386,-8.762678743344525 L0.30150926271264333,-8.80886119504974 L0.22371726280912746,-8.861509819730431 L0.1466288561314149,-8.920339309927838 L0.07066179143443435,-8.985030863537443 L-0.003772259176234749,-9.055233911425185 L-0.07626993113117347,-9.130568017191989 L-0.14643835326467047,-9.21062493879156 L-0.21389727681760795,-9.294970840829405 L-0.27828113603843385,-9.383148645554435 L-0.33924102921564536,-9.474680509802889 L-0.3964466094063912,-9.569070414471843 L-0.449587874615175,-9.665806852489709 L-0.4983768477215329,-9.764365600717367 L-0.5425491370529976,-9.864212560758787 L-0.5818653691464785,-9.9648066532865 L-0.6161124859337999,-10.065602750197366 L-0.6451048993218313,-10.166054628708983 L-0.6686854969104443,-10.265617931388286 L-0.6867264933982218,-10.363753116071628 L-0.6991301230620772,-10.45992837969052 L-0.7058291695581795,-10.553622540158543 L-0.7067873301731429,-10.644327860702205 L-0.7019994125515778,-10.731552801330537 L-0.6914913628339128,-10.814824682532874 L-0.6753201250520131,-10.893692246770092 L-0.653573332544537,-10.967728103878292 L-0.6263688330642821,-11.036531047133144 L-0.5938540501510009,-11.099728227423887 L-0.5562051842304652,-11.156977173754955 L-0.5136262577690953,-11.20796764912598 L-0.46634800965853507,-11.25242333173298 L-0.4410257463090116,-11.2721239212794 L-0.4146266448216068,-11.290103312380149 L-0.3871864820723636,-11.306337138810225 L-0.3587424458156363,-11.32080339998767 L-0.329333084286099,-11.333482490789436 L-0.2989982539569902,-11.34435722812086 L-0.23571782819774523,-11.3606371565443 L-0.16924409064787105,-11.369554962915329 L-0.09993726825060717,-11.371062320868559 L-0.028172940681450653,-11.365151061900642 L0.04565999495065204,-11.351853219636089 L0.12116143157043202,-11.331240856234295 L0.19792222035120433,-11.30342567187844 L0.27552638792781037,-11.268558399462531 L0.3535533905923035,-11.226827987756794 " />
			<path d="M1.4142135623730958,-8.981462390204987 L1.4142135623730958,-9.38971068066885 " />
			<path d="M-12.374368670764582,-17.350552344714178 L-12.374368670764582,-1.020620726159656 " />
			<path d="M-12.374368670764582,-1.0206207261596576 L15.909902576697323,15.309310892394867 " />
			<path d="M-12.374368670764582,-1.0206207261596576 L-15.90990257669732,1.020620726159658 " />
			<path d="M-15.90990257669732,-2.9217735124542994 L-15.90990257669732,1.0206207261596578 " />
			<path d="M-15.90990257669732,1.0206207261596576 L-15.324116139070414,1.3588246836111837 " />
			<path d="M-11.253048327205354,-5.6104095669753375 L-11.300911457737923,-5.579994000941276 L-11.34625019420707,-5.545479046564712 L-11.388955311625432,-5.506947853393895 L-11.428923929624624,-5.4644932464481055 L-11.466059760303049,-5.41821750259406 L-11.500273340191887,-5.368232104151979 L-11.531482245780431,-5.314657470324915 L-11.559611292081541,-5.257622667098341 L-11.584592713758862,-5.197265096308886 L-11.606366328379462,-5.133730164631283 L-11.624879681398577,-5.067170933280945 L-11.640088172527202,-4.997747749276097 L-11.651955163178105,-4.925627859147756 L-11.66045206473138,-4.850985006028201 L-11.665558407406946,-4.773999011088536 L-11.667261889578036,-4.694855340333749 L-11.66555840740689,-4.613744657798855 L-11.660452064731265,-4.530862366222537 L-11.651955163177933,-4.446408136304834 L-11.640088172526973,-4.360585425682933 L-11.624879681398292,-4.273600988783906 L-11.606366328379123,-4.185664378735179 L-11.584592713758468,-4.096987442532696 L-11.559611292081094,-4.007783810682952 L-11.53148224577993,-3.918268382548387 L-11.500273340191335,-3.828656808636004 L-11.466059760302446,-3.7391649710764048 L-11.428923929623974,-3.650008463544829 L-11.388955311624734,-3.5614020718771076 L-11.346250194206327,-3.4735592566317726 L-11.300911457737138,-3.386691638844871 L-11.253048327204526,-3.3010084902163563 L-11.202776109082262,-3.216716228956232 L-11.150215913547123,-3.1340179225050044 L-11.09549436271389,-3.0531127983264303 L-11.038743285591556,-2.9741957639511076 L-10.980099400495718,-2.897456937427162 L-10.91970398568217,-2.8230811893092183 L-10.857702538995213,-2.7512476972890374 L-10.794244427350597,-2.6821295145407675 L-10.72948252689755,-2.615893152820686 L-10.663572854726738,-2.5526981813257987 L-10.596674193011424,-2.4926968422776605 L-10.52894770648731,-2.436033684157536 L-10.460556554192573,-2.382845213476443 L-10.39166549640345,-2.333259565919011 L-10.322440497712297,-2.287396197653397 L-10.253048327204356,-2.245365597550909 L-10.183656156696415,-2.2072690210086394 L-10.114431158005267,-2.1731982460163444 L-10.045540100216149,-2.1432353520552287 L-9.977148947921423,-2.1174525223612837 L-9.909422461397323,-2.0959118700295516 L-9.842523799682024,-2.0786652883782373 L-9.776614127511229,-2.065754325933161 L-9.711852227058202,-2.0572100863337197 L-9.64839411541361,-2.0530531534014953 L-9.586392668726678,-2.053293541552027 L-9.525997253913157,-2.057930671669203 L-9.467353368817353,-2.0669533725004077 L-9.410602291695051,-2.0803399075690425 L-9.355880740861853,-2.098058027539606 L-9.303320545326752,-2.1200650479091645 L-9.253048327204532,-2.1463079518380574 " />
			<path d="M3.181980515339464,-0.204124145231932 L3.181980515339464,7.960841664045329 " />
			<path d="M10.25304832720494,12.04332456868396 L3.1819805153394656,7.96084166404533 " />
			<path d="M-20.506096654408612,3.674234614175501 L-20.575488824916633,3.6322040140730003 L-20.644713823607866,3.586340645807365 L-20.71360488139707,3.5367549982499025 L-20.78199603369189,3.483566527568769 L-20.849722520216083,3.4269033694485955 L-20.91662118193148,3.3669020304004005 L-20.982530854102368,3.3037070589054482 L-21.047292754555492,3.2374706971852953 L-21.110750866200178,3.168352514436947 L-21.172752312887205,3.0965190224166816 L-21.23314772770082,3.0221432742986476 L-21.291791612796718,2.945404447774607 L-21.348542689919107,2.8664874133991853 L-21.403264240752392,2.7855822892205078 L-21.455824436287575,2.7028839827691744 L-21.50609665440988,2.6185917215089423 L-21.553959784942524,2.5329085728803182 L-21.59929852141174,2.4460409550933067 L-21.642003638830165,2.358198139847861 L-21.681972256829415,2.269591748180031 L-21.71910808750789,2.180435240648347 L-21.753321667396776,2.090943403088642 L-21.784530572985357,2.001331829176156 L-21.8126596192865,1.9118164010414933 L-21.837641040963845,1.8226127691916552 L-21.859414655584462,1.7339358329890828 L-21.877928008603586,1.645999222940272 L-21.893136499732215,1.5590147860411692 L-21.90500349038311,1.4731920754191992 L-21.91350039193637,1.3887378455014343 L-21.918606734611917,1.3058555539250636 L-21.920310216782976,1.2247448713901328 " />
			<path d="M3.1819805153394634,7.960841664045329 L1.414213562373094,8.981462390204987 " />
			<path d="M1.4142135623730956,8.981462390204987 L4.949747468305834,11.022703842524303 " />
			<path d="M1.414213562373095,8.981462390204987 L1.414213562373095,4.898979485566357 " />
			<path d="M1.4142135623730945,4.8989794855663575 L-2.4748737341529177,7.144345083117605 " />
			<path d="M1.4142135623730956,4.898979485566357 L8.485281374238571,8.981462390204989 " />
			<path d="M-7.717514421272203,-7.651651019294892 L-1.6464466094067296,-11.156783654743895 " />
			<path d="M-5.717514421272202,-4.187549404157135 L1.0,-8.065908163563835 " />

       </g>

       <!-- solid lines -->
       <g  stroke="rgb(0,0,0)" fill="none">
			<path d="M-1.0,-11.53000977870159 L-0.9497277818778133,-11.556252682630424 L-0.8971675863427591,-11.578259702999928 L-0.8424460355096104,-11.595977822970447 L-0.7856949583873656,-11.609364358039048 L-0.7270510732916194,-11.618387058870228 L-0.6666556584781653,-11.623024188987388 L-0.6046542117913019,-11.623264577137915 L-0.5411961001467824,-11.619107644205696 L-0.4764341996938326,-11.610563404606271 L-0.4105245275231157,-11.59765244216122 L-0.343625865807896,-11.580405860509941 L-0.2758993792838752,-11.558865208178252 L-0.20750822698922977,-11.533082378484362 L-0.13861716920019473,-11.503119484523308 L-0.06939217050912727,-11.469048709531087 L-1.2736478538499796e-12,-11.430952132988901 " />
			<path d="M-1.2673195826096162e-12,-11.430952132988898 L0.058236579108358666,-11.395944067163924 L0.11637436166249171,-11.358225069041179 L0.17431471871093873,-11.317859127734522 L0.23195935622977049,-11.274914722815062 L0.28921048187409537,-11.229464708137689 L0.3459709708797475,-11.181586188246765 L0.4021445308324452,-11.131360387570641 L0.45763586502489334,-11.078872512626937 L0.5123508341247041,-11.024211607472305 L0.5661966158788593,-10.96747040264195 L0.6190818625837914,-10.908745157835153 L0.6709168560539405,-10.848135498613647 L0.72161365982588,-10.785744247389951 L0.7710862683398082,-10.721677248992318 L0.8660254037839386,-10.588953419869256 L0.9550902903926954,-10.450864276750812 L1.0376768011922644,-10.308346478059013 L1.1132247520208853,-10.162366721779074 L1.1812217012570656,-10.013915188348625 L1.2412064257102209,-9.863998824265481 L1.2680648538083132,-9.788808906717726 L1.292772049096792,-9.713634511971284 L1.3152860965829198,-9.638603171062078 L1.3355688018813818,-9.56384217233962 L1.3535857560098825,-9.489478345526257 L1.3693063937629124,-9.415637846554496 " />
			<path d="M0.3535533905923226,-11.226827987756783 L0.40559751847330927,-11.195305037679926 L0.4575162674917054,-11.160907511480723 L0.5091845608335805,-11.12371827581265 L0.5604779250546648,-11.083826922801828 L0.6112727899477823,-11.04132955421173 L0.6614467862343019,-10.996328549925616 L0.7108790403624448,-10.948932321304438 L0.7594504657022625,-10.89925505001436 L0.8070440494357565,-10.84741641295314 L0.8535451344510073,-10.793541293937981 L0.8988416955611991,-10.737759482849498 L0.9428246093831061,-10.680205362956512 L0.985387917224884,-10.621017587174991 L1.0264290803498368,-10.56033874404103 L1.0658492270012148,-10.498315014202575 L1.1035533905929373,-10.435095818257446 L1.139450738492417,-10.370833456786023 L1.173454790844328,-10.305682743445809 L1.205483628908151,-10.23980063201177 L1.2354600924075945,-10.173345838260941 L1.2633119654164608,-10.106478457612221 L1.2889721503331366,-10.039359579442483 L1.3123788295245895,-9.972150899008156 L1.333475614250465,-9.905014327907196 L1.3522116805084974,-9.83811160401985 L1.368541891473986,-9.771603901867953 L1.3824269062383574,-9.705651444331375 L1.3938332745848605,-9.64041311665707 L1.4027335175730689,-9.576046083690615 L1.4091061937380542,-9.512705411252309 L1.412935950744755,-9.450543692570044 L1.4142135623730945,-9.38971068066886 " />
			<path d="M-12.374368670764582,-17.350552344714178 L15.909902576697323,-1.0206207261596525 " />
			<path d="M15.90990257669732,-1.0206207261596576 L15.90990257669732,15.309310892394864 " />
			<path d="M-12.374368670764582,-17.350552344714178 L-15.90990257669732,-15.309310892394862 " />
			<path d="M-15.90990257669732,-15.309310892394864 L-15.90990257669732,-2.9217735124542994 " />
			<path d="M-15.90990257669732,-15.309310892394864 L12.374368670764586,1.0206207261596614 " />
			<path d="M15.90990257669732,-1.0206207261596576 L12.374368670764582,1.020620726159658 " />
			<path d="M15.90990257669732,15.309310892394864 L12.374368670764582,17.35055234471418 " />
			<path d="M12.374368670764582,1.0206207261596576 L12.374368670764582,17.350552344714178 " />
			<path d="M-15.324116139070414,1.3588246836111837 L12.374368670764586,17.35055234471418 " />
			<path d="M-8.838834764831844,-3.0618621784789726 L-8.84266663774468,-3.184204940649855 L-8.854141491231868,-3.3103093825078895 L-8.873197142068147,-3.4394921331566257 L-8.899730326030609,-3.571053140077566 L-8.933597257496452,-3.7042794627754154 L-8.974614408629746,-3.838449136264396 L-9.022559503934666,-3.9728350834590596 L-9.077172724785662,-4.106709055268007 L-9.138158117407116,-4.239345577038813 L-9.205185196672472,-4.370025879968027 L-9.277890737031795,-4.498041796171591 L-9.355880740862473,-4.622699596307962 L-9.438732573576493,-4.743323748957523 L-9.525997253913879,-4.859260581385875 L-9.617201887011039,-4.969881821853018 L-9.711852227059012,-5.074588004272344 L-9.809435355664325,-5.1728117167693055 L-9.909422461398208,-5.264020676535521 L-10.011271705471543,-5.347720614315436 L-10.114431158006212,-5.4234579528942355 L-10.218341788990925,-5.490822265072083 L-10.322440497713282,-5.549448497804663 L-10.374384049938017,-5.575383654353738 L-10.426163164251337,-5.59901895045727 L-10.47770766800152,-5.620322354833462 L-10.528947706488314,-5.639264996452064 L-10.579813837632171,-5.655821203661278 L-10.630237126084307,-5.669968538978776 L-10.680149236649997,-5.681687829499671 L-10.729482526898547,-5.69096319288022 L-10.778170138834398,-5.697782058862073 L-10.82614608950514,-5.702135186307871 L-10.873345360423649,-5.704016675725121 L-10.919703985683137,-5.703423977261373 L-10.965159138645728,-5.700357894159853 L-11.009649217087047,-5.694822581670887 L-11.05311392668146,-5.686825541420576 L-11.095494362714799,-5.676377611244363 L-11.136733089913848,-5.663492950499263 L-11.176774220284392,-5.648189020874664 L-11.215563488852352,-5.630486562727713 L-11.253048327205345,-5.610409566975343 " />
			<path d="M-9.253048327204526,-2.14630795183806 L-9.205185196671982,-2.176723517872105 L-9.159846460202859,-2.2112384722486462 L-9.117141342784514,-2.2497696654194383 L-9.077172724785338,-2.2922242723651984 L-9.040036894106926,-2.3385000162192107 L-9.005823314218096,-2.388485414661254 L-8.97461440862956,-2.4420600484882775 L-8.946485362328453,-2.4990948517148097 L-8.921503940651128,-2.559452422504218 L-8.899730326030523,-2.622987354181772 L-8.881216973011401,-2.6895465855320584 L-8.866008481882764,-2.758969769536854 L-8.854141491231847,-2.831089659665139 L-8.84564458967855,-2.9057325127846374 L-8.84053824700296,-2.982718507724244 L-8.838834764831844,-3.0618621784789655 " />
			<path d="M10.25304832720494,3.8783587594067015 L3.1819805153394656,-0.2041241452319298 " />
			<path d="M10.25304832720494,3.878358759406699 L10.25304832720494,12.04332456868396 " />
			<path d="M-19.091883092036785,2.8577380332470415 L-19.093586574207905,2.936881704001812 L-19.098692916883497,3.0138676989414575 L-19.1071898184368,3.088510552060992 L-19.119056809087734,3.16063044218931 L-19.134265300216388,3.2300536261941355 L-19.15277865323553,3.296612857544448 L-19.174552267856154,3.360147789222025 L-19.199533689533503,3.4205053600114512 L-19.227662735834638,3.4775401632379976 L-19.25887164142321,3.5311147970650323 L-19.293085221312072,3.581100195507082 L-19.33022105199052,3.627375939361096 L-19.37018966998974,3.669830546306854 L-19.412894787408124,3.708361739477638 L-19.45823352387729,3.742876693854166 L-19.50609665440987,3.773292259888188 " />
			<path d="M-19.50609665440988,3.7732922598881933 L-19.55636887253207,3.7995351638170263 L-19.608929068067123,3.8215421841865305 L-19.66365061890027,3.8392603041570497 L-19.720401696022513,3.85264683922565 L-19.77904558111826,3.8616695400568295 L-19.839440995931714,3.8663066701739917 L-19.901442442618578,3.8665470583245183 L-19.964900554263096,3.8623901253922996 L-20.029662454716046,3.8538458857928735 L-20.095572126886765,3.840934923347823 L-20.162470788601983,3.8236883416965433 L-20.230197275126006,3.8021476893648556 L-20.29858842742065,3.7763648596709647 L-20.367479485209685,3.746401965709912 L-20.43670448390075,3.7123311907176895 L-20.50609665440861,3.6742346141755013 " />
			<path d="M-21.920310216782976,1.2247448713901257 L-21.9186067346118,1.1456012006354823 L-21.913500391936154,1.068615205695962 L-21.905003490382807,0.9939723525765496 L-21.893136499731842,0.9218524624483513 L-21.877928008603163,0.8524292784436414 L-21.859414655584004,0.7858700470934399 L-21.837641040963366,0.7223351154159694 L-21.812659619286016,0.6619775446266432 L-21.784530572984885,0.6049427414001909 L-21.753321667396328,0.551368107573244 L-21.719108087507486,0.5013827091312746 L-21.681972256829063,0.4551069652773323 L-21.64200363882988,0.4126523583316388 L-21.599298521411537,0.3741211651609102 L-21.553959784942418,0.3396062107844282 L-21.506096654409884,0.3091906447504409 " />
			<path d="M-21.50609665440988,0.3091906447504382 L-21.46861181605687,0.28911364899809255 L-21.429822547488904,0.2714111908511707 L-21.389781417118353,0.25610726122660066 L-21.3485426899193,0.24322260048152855 L-21.306162253885955,0.23277467030534305 L-21.262697544291537,0.2247776300550588 L-21.218207465850217,0.21924231756611823 L-21.172752312887628,0.2161762344646232 L-21.126393687628138,0.2155835360008993 L-21.079194416709633,0.21746502541817336 L-21.03121846603889,0.22181815286399376 L-20.982530854103043,0.22863701884586796 L-20.933197563854495,0.2379123822264373 L-20.883285453288806,0.24963167274735176 L-20.832862164836676,0.263779008064869 L-20.781996033692824,0.2803352152741001 L-20.730755995206035,0.2992778568927177 L-20.67921149145586,0.3205812612689256 L-20.627432377142547,0.3442165573724725 L-20.575488824917823,0.3701517139215602 L-20.47139011619548,0.4287779466541646 L-20.36747948521079,0.49614225883202967 L-20.264320032676142,0.5718795974108444 L-20.16247078860283,0.6555795351907692 L-20.062483682868972,0.746788494956991 L-19.964900554263686,0.8450122074539541 L-19.870250214215737,0.9497183898732782 L-19.779045581118602,1.0603396303404147 L-19.69178090078124,1.1762764627687594 L-19.608929068067244,1.29690061541831 L-19.530939064236588,1.4215584155546668 L-19.45823352387729,1.5495743317582147 L-19.391206444611953,1.680254634687409 L-19.330221051990524,1.8128911564581935 L-19.275607831139542,1.9467651282671194 L-19.22766273583464,2.081151075461759 L-19.18664558470136,2.2153207489507145 L-19.15277865323553,2.3485470716485404 L-19.126245469273076,2.480108078569456 L-19.1071898184368,2.609290829218167 L-19.095714964949618,2.7353952710761793 L-19.091883092036785,2.857738033247027 " />
			<path d="M10.25304832720494,3.8783587594066997 L4.596194077712559,7.144345083117605 " />
			<path d="M3.1819805153394634,-0.20412414523193068 L-2.4748737341529177,3.0618621784789744 " />
			<path d="M-2.474873734152917,3.061862178478973 L4.59619407771256,7.144345083117605 " />
			<path d="M4.59619407771256,7.144345083117604 L4.59619407771256,11.226827987756234 " />
			<path d="M10.25304832720494,12.04332456868396 L8.485281374238571,13.063945294843618 " />
			<path d="M8.485281374238571,13.06394529484362 L8.485281374238571,8.981462390204989 " />
			<path d="M8.485281374238571,8.981462390204989 L4.596194077712559,11.226827987756236 " />
			<path d="M4.949747468305834,11.022703842524303 L8.485281374238571,13.063945294843618 " />
			<path d="M-2.474873734152917,3.061862178478973 L-2.474873734152917,7.144345083117603 " />
			<path d="M-19.79898987322333,2.8577380332470415 L-19.80026748485167,2.9170957863130855 L-19.80409724185836,2.9748352825177875 L-19.81046991802333,3.0308174223574103 L-19.81937016101152,3.084907339953622 L-19.830776529357998,3.136974727957216 L-19.84466154412234,3.1868941514699296 L-19.860991755087788,3.2345453502280943 L-19.87972782134578,3.2798135283201484 L-19.90082460607161,3.3225896307400458 L-19.92423128526301,3.3627706061103133 L-19.94989147017963,3.400259654941846 L-19.977743343188436,3.434966462832354 L-20.007719806687817,3.4668074180416752 L-20.039748644751572,3.49570581291977 L-20.073752697103412,3.521592028702176 L-20.109650045002816,3.5444037032277107 L-20.147354208594464,3.5640858811743747 L-20.186774355245763,3.580591146451539 L-20.227815518370637,3.593879736429461 L-20.270378826212333,3.6039196377309404 L-20.31436174003416,3.6106866633543504 L-20.359658301144268,3.614164510942244 L-20.406159386159434,3.6143448020551565 L-20.453752969892847,3.6112271023560067 L-20.50232439523258,3.604818922656448 L-20.551756649360645,3.5951357008226665 L-20.601930645647087,3.5822007645842096 L-20.65272551054013,3.5660452753354432 L-20.704018874761143,3.54670815306502 L-20.75568716810295,3.5242359825942216 L-20.807605917121275,3.498682901350043 L-20.859650045002194,3.4701104689433913 " />
			<path d="M-20.8596500450022,3.470110468943386 L-20.91169417288322,3.4385875188665107 L-20.963612921901642,3.404189992667284 L-21.015281215243547,3.3670007569991873 L-21.06657457946466,3.327109403988337 L-21.117369444357806,3.284612035398207 L-21.16754344064435,3.239611031112061 L-21.216975694772522,3.1922148024908465 L-21.265547120112362,3.142537531200732 L-21.313140703845878,3.0906988941394706 L-21.359641788861147,3.036823775124272 L-21.40493834997136,2.9810419640357457 L-21.44892126379328,2.923487844142716 L-21.491484571635073,2.8643000683611493 L-21.53252573476004,2.8036212252271415 L-21.571945881411423,2.7415974953886413 L-21.609650045003153,2.6783782994434673 L-21.645547392902635,2.614115937971999 L-21.679551445254546,2.5489652246317407 L-21.711580283318366,2.4830831131976563 L-21.741556746817803,2.4166283194467835 L-21.769408619826663,2.3497609387980205 L-21.795068804743327,2.2826420606282416 L-21.818475483934762,2.2154333801938777 L-21.839572268660618,2.1482968090928805 L-21.85830833491863,2.0813940852055017 L-21.87463854588409,2.0148863830535726 L-21.888523560648434,1.9489339255169646 L-21.899929928994904,1.8836955978426373 L-21.908830171983077,1.81932856487616 L-21.91520284814802,1.7559878924378363 L-21.91903260515468,1.6938261737555582 L-21.920310216782976,1.63299316185436 " />
			<path d="M-21.920310216782976,1.6329931618543547 L-21.91903260515459,1.5736354087883222 L-21.91520284814785,1.5158959125836353 L-21.908830171982828,1.459913772744032 L-21.89992992899459,1.4058238551478424 L-21.88852356064806,1.3537564671442732 L-21.874638545883666,1.3038370436315898 L-21.858308334918163,1.2561858448734589 L-21.839572268660117,1.2109176667814407 L-21.818475483934236,1.1681415643615836 L-21.79506880474278,1.12796058899136 L-21.769408619826105,1.0904715401598757 L-21.741556746817242,1.0557647322694177 L-21.711580283317808,1.0239237770601517 L-21.679551445254,0.9950253821821149 L-21.645547392902106,0.9691391663997688 L-21.60965004500265,0.9463274918742981 L-21.57194588141095,0.9266453139277011 L-21.532525734759602,0.9101400486506064 L-21.49148457163468,0.896851458672757 L-21.448921263792936,0.8868115573713524 L-21.404938349971065,0.8800445317480194 L-21.359641788860912,0.876566684160206 L-21.313140703845704,0.8763863930473743 L-21.265547120112252,0.8795040927466073 L-21.21697569477248,0.8859122724462511 L-21.16754344064438,0.895595494280119 L-21.11736944435791,0.908530430518663 L-21.066574579464834,0.9246859197675181 L-21.015281215243796,0.94402304203803 L-20.96361292190197,0.9664952125089175 L-20.911694172883617,0.9920482937531858 L-20.859650045002677,1.0206207261599327 L-20.807605917121737,1.0521436762368406 L-20.75568716810339,1.0865412024360899 L-20.704018874761566,1.1237304381041997 L-20.652725510540538,1.1636217911150522 L-20.601930645647478,1.2061191597051748 L-20.551756649361018,1.2511201639913043 L-20.502324395232932,1.298516392612493 L-20.453752969893177,1.3481936639025742 L-20.406159386159743,1.4000323009637943 L-20.359658301144556,1.4539074199789435 L-20.314361740034425,1.509689231067412 L-20.270378826212582,1.5672433509603783 L-20.227815518370864,1.626431126741875 L-20.18677435524597,1.6871099698758083 L-20.14735420859465,1.7491336997142293 L-20.109650045002986,1.8123528956593185 L-20.07375269710356,1.876615257130698 L-20.039748644751704,1.9417659704708663 L-20.00771980668793,2.0076480819048577 L-19.977743343188536,2.074102875655635 L-19.949891470179715,2.140970256304301 L-19.92423128526308,2.2080891344739846 L-19.900824606071666,2.2752978149082534 L-19.879727821345824,2.342434386009155 L-19.860991755087824,2.4093371098964407 L-19.844661544122363,2.4758448120482797 L-19.830776529358015,2.5417972695848006 L-19.81937016101153,2.6070355972590438 L-19.810469918023337,2.671402630225441 L-19.804097241858365,2.7347433026636905 L-19.80026748485167,2.7969050213458995 L-19.79898987322333,2.8577380332470304 " />
			<path d="M4.5961940777125605,11.226827987756234 L-2.474873734152916,7.144345083117603 " />
			<path d="M-1.6464466094067296,-11.156783654743895 L-1.0000000000000009,-11.530009778701592 " />
			<path d="M0.353553390592323,-11.22682798775715 L-1.2676526495170037e-12,-11.4309521329889 " />
			<path d="M-21.506096654409884,0.30919064475044067 L-11.253048327204942,-5.610409566975576 " />
			<path d="M-19.506096654409884,3.7732922598881977 L-9.25304832720494,-2.1463079518378185 " />
			<path d="M-21.920310216783296,1.6329931618543547 L-21.92031021678298,1.2247448713901257 " />
			<path d="M-20.859650045002358,3.4701104689436613 L-20.50609665440861,3.674234614175501 " />

       </g>
    </g>
  </g>
  <line x1="34" y1="268.0" x2="789" y2="268.0" stroke="#0000ff" stroke-width="0.4" stroke-dasharray="12,3,2,3" fill="none"/>
  <line x1="411.5" y1="34" x2="411.5" y2="502" stroke="#0000ff" stroke-width="0.4" stroke-dasharray="12,3,2,3" fill="none"/>
  <line x1="797" y1="268.0" x2="1552" y2="268.0" stroke="#0000ff" stroke-width="0.4" stroke-dasharray="12,3,2,3" fill="none"/>
  <line x1="1174.5" y1="34" x2="1174.5" y2="502" stroke="#0000ff" stroke-width="0.4" stroke-dasharray="12,3,2,3" fill="none"/>
  <line x1="34" y1="744.0" x2="789" y2="744.0" stroke="#0000ff" stroke-width="0.4" stroke-dasharray="12,3,2,3" fill="none"/>
  <line x1="411.5" y1="510" x2="411.5" y2="978" stroke="#0000ff" stroke-width="0.4" stroke-dasharray="12,3,2,3" fill="none"/>
  <line x1="0" y1="54" x2="18" y2="54" stroke="#1a1a8c" stroke-width="0.7"/>
  <line x1="0" y1="482" x2="18" y2="482" stroke="#1a1a8c" stroke-width="0.7"/>
  <line x1="4" y1="54" x2="4" y2="482" stroke="#1a1a8c" stroke-width="0.8"/>
  <polygon points="4,54 1,61 7,61" fill="#1a1a8c"/>
  <polygon points="4,482 1,475 7,475" fill="#1a1a8c"/>
  <text x="-4" y="268.0" text-anchor="middle" font-size="10" fill="#1a1a8c" font-family="Arial, Helvetica, sans-serif" transform="rotate(-90,-4,268.0)">30.0 mm</text>
  <polygon points="411.5,492 402.5,506.4 420.5,506.4" fill="#1a1a8c" stroke="#1a1a8c" stroke-width="0.5"/>
  <rect x="402.5" y="506.4" width="18" height="18" fill="white" stroke="#1a1a8c" stroke-width="1"/>
  <text x="411.5" y="520.4" text-anchor="middle" font-size="11" font-weight="bold" fill="#1a1a8c" font-family="Arial, Helvetica, sans-serif">A</text>
  <line x1="46" y1="268.0" x2="777" y2="268.0" stroke="#555" stroke-width="1" stroke-dasharray="8,4"/>
  <polygon points="46,268.0 56,264.0 56,272.0" fill="#555"/>
  <polygon points="777,268.0 767,264.0 767,272.0" fill="#555"/>
  <text x="60" y="262.0" font-size="10" font-weight="bold" fill="#555" font-family="Arial, Helvetica, sans-serif">A</text>
  <text x="757" y="262.0" font-size="10" font-weight="bold" fill="#555" font-family="Arial, Helvetica, sans-serif">A</text>
  <line x1="54" y1="508" x2="54" y2="526" stroke="#1a1a8c" stroke-width="0.7"/>
  <line x1="769" y1="508" x2="769" y2="526" stroke="#1a1a8c" stroke-width="0.7"/>
  <line x1="54" y1="522" x2="769" y2="522" stroke="#1a1a8c" stroke-width="0.8"/>
  <polygon points="54,522 61,519 61,525" fill="#1a1a8c"/>
  <polygon points="769,522 762,519 762,525" fill="#1a1a8c"/>
  <text x="411.5" y="518" text-anchor="middle" font-size="10" fill="#1a1a8c" font-family="Arial, Helvetica, sans-serif">40.0 mm</text>
  <line x1="817" y1="6" x2="817" y2="24" stroke="#1a1a8c" stroke-width="0.7"/>
  <line x1="1532" y1="6" x2="1532" y2="24" stroke="#1a1a8c" stroke-width="0.7"/>
  <line x1="817" y1="20" x2="1532" y2="20" stroke="#1a1a8c" stroke-width="0.8"/>
  <polygon points="817,20 824,17 824,23" fill="#1a1a8c"/>
  <polygon points="1532,20 1525,17 1525,23" fill="#1a1a8c"/>
  <text x="1174.5" y="16" text-anchor="middle" font-size="10" fill="#1a1a8c" font-family="Arial, Helvetica, sans-serif">40.0 mm</text>
  <line x1="1570" y1="54" x2="1588" y2="54" stroke="#1a1a8c" stroke-width="0.7"/>
  <line x1="1570" y1="482" x2="1588" y2="482" stroke="#1a1a8c" stroke-width="0.7"/>
  <line x1="1574" y1="54" x2="1574" y2="482" stroke="#1a1a8c" stroke-width="0.8"/>
  <polygon points="1574,54 1571,61 1577,61" fill="#1a1a8c"/>
  <polygon points="1574,482 1571,475 1577,475" fill="#1a1a8c"/>
  <text x="1566" y="268.0" text-anchor="middle" font-size="10" fill="#1a1a8c" font-family="Arial, Helvetica, sans-serif" transform="rotate(-90,1566,268.0)">20.0 mm</text>
  <text x="627" y="76" font-size="8" font-weight="bold" fill="#333" font-family="Arial, Helvetica, sans-serif">GD&amp;T CALLOUTS</text>
  <rect x="627" y="80" width="98" height="22" fill="#fffff8" stroke="#000000" stroke-width="1"/>
  <line x1="655" y1="80" x2="655" y2="102" stroke="#000000" stroke-width="1"/>
  <text x="641.0" y="97" text-anchor="middle" font-size="13" font-weight="bold" fill="#1a1a8c" font-family="Arial, Helvetica, sans-serif">▭</text>
  <text x="661" y="97" font-size="10" fill="#000" font-family="Arial, Helvetica, sans-serif">0.05</text>
  <line x1="627" y1="91.0" x2="603.0" y2="192.7" stroke="#999" stroke-width="0.5" stroke-dasharray="4,3"/>
  <rect x="627" y="108" width="123" height="22" fill="#fffff8" stroke="#000000" stroke-width="1"/>
  <line x1="655" y1="108" x2="655" y2="130" stroke="#000000" stroke-width="1"/>
  <line x1="725" y1="108" x2="725" y2="130" stroke="#000000" stroke-width="1"/>
  <text x="641.0" y="125" text-anchor="middle" font-size="13" font-weight="bold" fill="#1a1a8c" font-family="Arial, Helvetica, sans-serif">⊥</text>
  <text x="661" y="125" font-size="10" fill="#000" font-family="Arial, Helvetica, sans-serif">0.05</text>
  <text x="737.5" y="125" text-anchor="middle" font-size="10" font-weight="bold" fill="#000" font-family="Arial, Helvetica, sans-serif">A</text>
  <line x1="627" y1="119.0" x2="411.5" y2="72.0" stroke="#999" stroke-width="0.5" stroke-dasharray="4,3"/>
  <rect x="627" y="136" width="100" height="22" fill="#fffff8" stroke="#000000" stroke-width="0.8"/>
  <text x="633" y="151" font-size="11" fill="#1a1a8c" font-family="Arial, Helvetica, sans-serif">∇∇ Ra 3.2</text>
  <rect x="30" y="983" width="1527" height="110" fill="white" stroke="black" stroke-width="1.5"/>
  <rect x="30" y="983" width="1527" height="22" fill="#1a1a8c"/>
  <text x="793.5" y="998" text-anchor="middle" font-size="13" fill="white" font-weight="bold" font-family="Arial, Helvetica, sans-serif">ARIA-OS ENGINEERING DRAWING</text>
  <text x="34" y="1014.0" font-size="7" fill="#666" font-family="Arial, Helvetica, sans-serif">PART ID</text>
  <text x="34" y="1045.0" font-size="10" fill="#000" font-weight="bold" font-family="Arial, Helvetica, sans-serif">pin</text>
  <line x1="30" y1="1049.0" x2="335.40000000000003" y2="1049.0" stroke="#aaa" stroke-width="0.5"/>
  <text x="34" y="1058.0" font-size="7" fill="#666" font-family="Arial, Helvetica, sans-serif">MATERIAL</text>
  <text x="34" y="1089.0" font-size="10" fill="#000" font-weight="bold" font-family="Arial, Helvetica, sans-serif">steel_mild</text>
  <line x1="335.40000000000003" y1="1005" x2="335.40000000000003" y2="1093" stroke="black" stroke-width="0.8"/>
  <text x="339.40000000000003" y="1014.0" font-size="7" fill="#666" font-family="Arial, Helvetica, sans-serif">SCALE</text>
  <text x="339.40000000000003" y="1045.0" font-size="10" fill="#000" font-weight="bold" font-family="Arial, Helvetica, sans-serif">1:1</text>
  <line x1="335.40000000000003" y1="1049.0" x2="640.8000000000001" y2="1049.0" stroke="#aaa" stroke-width="0.5"/>
  <text x="339.40000000000003" y="1058.0" font-size="7" fill="#666" font-family="Arial, Helvetica, sans-serif">DATE</text>
  <text x="339.40000000000003" y="1089.0" font-size="10" fill="#000" font-weight="bold" font-family="Arial, Helvetica, sans-serif">2026-04-03</text>
  <line x1="640.8000000000001" y1="1005" x2="640.8000000000001" y2="1093" stroke="black" stroke-width="0.8"/>
  <text x="644.8000000000001" y="1014.0" font-size="7" fill="#666" font-family="Arial, Helvetica, sans-serif">DRAWN BY</text>
  <text x="644.8000000000001" y="1045.0" font-size="10" fill="#000" font-weight="bold" font-family="Arial, Helvetica, sans-serif">ARIA-OS v2.0</text>
  <line x1="640.8000000000001" y1="1049.0" x2="946.2" y2="1049.0" stroke="#aaa" stroke-width="0.5"/>
  <text x="644.8000000000001" y="1058.0" font-size="7" fill="#666" font-family="Arial, Helvetica, sans-serif">DWG NO.</text>
  <text x="644.8000000000001" y="1089.0" font-size="10" fill="#000" font-weight="bold" font-family="Arial, Helvetica, sans-serif">ARIA-20260403-001</text>
  <line x1="946.2" y1="1005" x2="946.2" y2="1093" stroke="black" stroke-width="0.8"/>
  <text x="950.2" y="1014.0" font-size="7" fill="#666" font-family="Arial, Helvetica, sans-serif">TOLERANCE</text>
  <text x="950.2" y="1045.0" font-size="10" fill="#000" font-weight="bold" font-family="Arial, Helvetica, sans-serif">±0.1 GENERAL / ±0.05 MACH.</text>
  <line x1="946.2" y1="1049.0" x2="1251.6000000000001" y2="1049.0" stroke="#aaa" stroke-width="0.5"/>
  <text x="950.2" y="1058.0" font-size="7" fill="#666" font-family="Arial, Helvetica, sans-serif">UNITS</text>
  <text x="950.2" y="1089.0" font-size="10" fill="#000" font-weight="bold" font-family="Arial, Helvetica, sans-serif">MILLIMETRES</text>
  <line x1="1251.6000000000001" y1="1005" x2="1251.6000000000001" y2="1093" stroke="black" stroke-width="0.8"/>
  <text x="1255.6000000000001" y="1014.0" font-size="7" fill="#666" font-family="Arial, Helvetica, sans-serif">APPROVED</text>
  <text x="1255.6000000000001" y="1045.0" font-size="10" fill="#000" font-weight="bold" font-family="Arial, Helvetica, sans-serif"></text>
  <line x1="1251.6000000000001" y1="1049.0" x2="1404.3000000000002" y2="1049.0" stroke="#aaa" stroke-width="0.5"/>
  <text x="1255.6000000000001" y="1058.0" font-size="7" fill="#666" font-family="Arial, Helvetica, sans-serif"></text>
  <text x="1255.6000000000001" y="1089.0" font-size="10" fill="#000" font-weight="bold" font-family="Arial, Helvetica, sans-serif"></text>
  <line x1="1404.3000000000002" y1="1005" x2="1404.3000000000002" y2="1093" stroke="black" stroke-width="0.8"/>
  <text x="1408.3000000000002" y="1014.0" font-size="7" fill="#666" font-family="Arial, Helvetica, sans-serif">REV</text>
  <text x="1408.3000000000002" y="1045.0" font-size="10" fill="#000" font-weight="bold" font-family="Arial, Helvetica, sans-serif">—</text>
  <line x1="1404.3000000000002" y1="1049.0" x2="1557.0000000000002" y2="1049.0" stroke="#aaa" stroke-width="0.5"/>
  <text x="1408.3000000000002" y="1058.0" font-size="7" fill="#666" font-family="Arial, Helvetica, sans-serif"></text>
  <text x="1408.3000000000002" y="1089.0" font-size="10" fill="#000" font-weight="bold" font-family="Arial, Helvetica, sans-serif"></text>
</svg>