<svg xmlns="http://www.w3.org/2000/svg" width="1587" height="1123" viewBox="0 0 1587 1123" font-family="Arial, Helvetica, sans-serif" font-size="12">
  <rect width="1587" height="1123" fill="white"/>
  <rect x="20" y="20" width="1547" height="1083" fill="none" stroke="black" stroke-width="2"/>
  <rect x="30" y="30" width="1527" height="1063" fill="none" stroke="black" stroke-width="1"/>
  <rect x="20" y="20.0" width="16" height="270.75" fill="none" stroke="#888" stroke-width="0.4"/>
  <text x="28.0" y="159.375" text-anchor="middle" font-size="9" fill="#444" font-family="Arial, Helvetica, sans-serif">A</text>
  <rect x="1551" y="20.0" width="16" height="270.75" fill="none" stroke="#888" stroke-width="0.4"/>
  <text x="1559.0" y="159.375" text-anchor="middle" font-size="9" fill="#444" font-family="Arial, Helvetica, sans-serif">A</text>
  <rect x="20" y="290.75" width="16" height="270.75" fill="none" stroke="#888" stroke-width="0.4"/>
  <text x="28.0" y="430.125" text-anchor="middle" font-size="9" fill="#444" font-family="Arial, Helvetica, sans-serif">B</text>
  <rect x="1551" y="290.75" width="16" height="270.75" fill="none" stroke="#888" stroke-width="0.4"/>
  <text x="1559.0" y="430.125" text-anchor="middle" font-size="9" fill="#444" font-family="Arial, Helvetica, sans-serif">B</text>
  <rect x="20" y="561.5" width="16" height="270.75" fill="none" stroke="#888" stroke-width="0.4"/>
  <text x="28.0" y="700.875" text-anchor="middle" font-size="9" fill="#444" font-family="Arial, Helvetica, sans-serif">C</text>
  <rect x="1551" y="561.5" width="16" height="270.75" fill="none" stroke="#888" stroke-width="0.4"/>
  <text x="1559.0" y="700.875" text-anchor="middle" font-size="9" fill="#444" font-family="Arial, Helvetica, sans-serif">C</text>
  <rect x="20" y="832.25" width="16" height="270.75" fill="none" stroke="#888" stroke-width="0.4"/>
  <text x="28.0" y="971.625" text-anchor="middle" font-size="9" fill="#444" font-family="Arial, Helvetica, sans-serif">D</text>
  <rect x="1551" y="832.25" width="16" height="270.75" fill="none" stroke="#888" stroke-width="0.4"/>
  <text x="1559.0" y="971.625" text-anchor="middle" font-size="9" fill="#444" font-family="Arial, Helvetica, sans-serif">D</text>
  <rect x="20.0" y="20" width="193.375" height="16" fill="none" stroke="#888" stroke-width="0.4"/>
  <text x="116.6875" y="32" text-anchor="middle" font-size="9" fill="#444" font-family="Arial, Helvetica, sans-serif">1</text>
  <rect x="20.0" y="1087" width="193.375" height="16" fill="none" stroke="#888" stroke-width="0.4"/>
  <text x="116.6875" y="1099" text-anchor="middle" font-size="9" fill="#444" font-family="Arial, Helvetica, sans-serif">1</text>
  <rect x="213.375" y="20" width="193.375" height="16" fill="none" stroke="#888" stroke-width="0.4"/>
  <text x="310.0625" y="32" text-anchor="middle" font-size="9" fill="#444" font-family="Arial, Helvetica, sans-serif">2</text>
  <rect x="213.375" y="1087" width="193.375" height="16" fill="none" stroke="#888" stroke-width="0.4"/>
  <text x="310.0625" y="1099" text-anchor="middle" font-size="9" fill="#444" font-family="Arial, Helvetica, sans-serif">2</text>
  <rect x="406.75" y="20" width="193.375" height="16" fill="none" stroke="#888" stroke-width="0.4"/>
  <text x="503.4375" y="32" text-anchor="middle" font-size="9" fill="#444" font-family="Arial, Helvetica, sans-serif">3</text>
  <rect x="406.75" y="1087" width="193.375" height="16" fill="none" stroke="#888" stroke-width="0.4"/>
  <text x="503.4375" y="1099" text-anchor="middle" font-size="9" fill="#444" font-family="Arial, Helvetica, sans-serif">3</text>
  <rect x="600.125" y="20" width="193.375" height="16" fill="none" stroke="#888" stroke-width="0.4"/>
  <text x="696.8125" y="32" text-anchor="middle" font-size="9" fill="#444" font-family="Arial, Helvetica, sans-serif">4</text>
  <rect x="600.125" y="1087" width="193.375" height="16" fill="none" stroke="#888" stroke-width="0.4"/>
  <text x="696.8125" y="1099" text-anchor="middle" font-size="9" fill="#444" font-family="Arial, Helvetica, sans-serif">4</text>
  <rect x="793.5" y="20" width="193.375" height="16" fill="none" stroke="#888" stroke-width="0.4"/>
  <text x="890.1875" y="32" text-anchor="middle" font-size="9" fill="#444" font-family="Arial, Helvetica, sans-serif">5</text>
  <rect x="793.5" y="1087" width="193.375" height="16" fill="none" stroke="#888" stroke-width="0.4"/>
  <text x="890.1875" y="1099" text-anchor="middle" font-size="9" fill="#444" font-family="Arial, Helvetica, sans-serif">5</text>
  <rect x="986.875" y="20" width="193.375" height="16" fill="none" stroke="#888" stroke-width="0.4"/>
  <text x="1083.5625" y="32" text-anchor="middle" font-size="9" fill="#444" font-family="Arial, Helvetica, sans-serif">6</text>
  <rect x="986.875" y="1087" width="193.375" height="16" fill="none" stroke="#888" stroke-width="0.4"/>
  <text x="1083.5625" y="1099" text-anchor="middle" font-size="9" fill="#444" font-family="Arial, Helvetica, sans-serif">6</text>
  <rect x="1180.25" y="20" width="193.375" height="16" fill="none" stroke="#888" stroke-width="0.4"/>
  <text x="1276.9375" y="32" text-anchor="middle" font-size="9" fill="#444" font-family="Arial, Helvetica, sans-serif">7</text>
  <rect x="1180.25" y="1087" width="193.375" height="16" fill="none" stroke="#888" stroke-width="0.4"/>
  <text x="1276.9375" y="1099" text-anchor="middle" font-size="9" fill="#444" font-family="Arial, Helvetica, sans-serif">7</text>
  <rect x="1373.625" y="20" width="193.375" height="16" fill="none" stroke="#888" stroke-width="0.4"/>
  <text x="1470.3125" y="32" text-anchor="middle" font-size="9" fill="#444" font-family="Arial, Helvetica, sans-serif">8</text>
  <rect x="1373.625" y="1087" width="193.375" height="16" fill="none" stroke="#888" stroke-width="0.4"/>
  <text x="1470.3125" y="1099" text-anchor="middle" font-size="9" fill="#444" font-family="Arial, Helvetica, sans-serif">8</text>
  <rect x="1475" y="32" width="80" height="20" fill="white" stroke="black" stroke-width="0.8"/>
  <text x="1515.0" y="45" text-anchor="middle" font-size="9" fill="#000" font-family="Arial, Helvetica, sans-serif">REV: &#x2014;</text>
  <line x1="30" y1="506" x2="1557" y2="506" stroke="#888" stroke-width="0.6"/>
  <line x1="793" y1="30" x2="793" y2="983" stroke="#888" stroke-width="0.6"/>
  <rect x="42" y="42" width="739" height="452" fill="#fafafa" stroke="#ccc" stroke-width="0.5"/>
  <rect x="805" y="42" width="739" height="452" fill="#fafafa" stroke="#ccc" stroke-width="0.5"/>
  <rect x="42" y="518" width="739" height="452" fill="#fafafa" stroke="#ccc" stroke-width="0.5"/>
  <rect x="805" y="518" width="739" height="452" fill="#fafafa" stroke="#ccc" stroke-width="0.5"/>
  <text x="46" y="54" font-size="9" font-weight="bold" fill="#444" font-family="Arial, Helvetica, sans-serif">FRONT VIEW</text>
  <text x="809" y="54" font-size="9" font-weight="bold" fill="#444" font-family="Arial, Helvetica, sans-serif">TOP VIEW</text>
  <text x="46" y="530" font-size="9" font-weight="bold" fill="#444" font-family="Arial, Helvetica, sans-serif">RIGHT SIDE VIEW</text>
  <text x="809" y="530" font-size="9" font-weight="bold" fill="#444" font-family="Arial, Helvetica, sans-serif">SECTION A-A</text>
  <clipPath id="clip_front"><rect x="42" y="42" width="739" height="452"/></clipPath>
  <g clip-path="url(#clip_front)" transform="translate(42,68)">
    <g transform="scale(6.0, -6.0)   translate(41.333333333333336,-18.333333333333336)" stroke-width="0.16666666666666666"  fill="none">
       <!-- hidden lines -->
       <g  stroke="rgb(160,160,160)" fill="none" stroke-dasharray="0.16666666666666666,0.16666666666666666" >
			<path d="M1.6,-15.0 L-1.6,-15.0 " />
			<path d="M1.6000000000000005,-15.0 L2.0000000000000004,-14.6 " />
			<path d="M-1.6000000000000005,-15.0 L-2.000000000000001,-14.6 " />
			<path d="M2.0,-14.6 L2.0,14.600000000000001 " />
			<path d="M-2.0,-14.6 L-2.0,14.600000000000001 " />
			<path d="M-2.0,14.600000000000001 L-1.5999999999999996,15.000000000000002 " />
			<path d="M1.6,15.0 L-1.6,15.0 " />
			<path d="M1.9999999999999991,14.600000000000001 L1.5999999999999988,15.000000000000002 " />
			<path d="M2.0,-8.0 L2.0,-8.050144175636353 L2.0,-8.198062264195162 L2.0,-8.436337035063941 L2.0,-8.753020396282533 L2.0,-9.132232521764884 L2.0,-9.554958132087371 L2.0,-10.000000000000002 L2.0,-10.44504186791263 L2.0,-10.867767478235118 L2.0,-11.246979603717469 L2.0,-11.56366296493606 L2.0,-11.801937735804838 L2.0,-11.949855824363647 L2.0,-11.999999999999998 " />
			<path d="M2.0,-12.0 L2.0,-11.949855824363647 L2.0,-11.801937735804838 L2.0,-11.563662964936059 L2.0,-11.246979603717467 L2.0,-10.867767478235116 L2.0,-10.445041867912629 L2.0,-10.0 L2.0,-9.554958132087371 L2.0,-9.132232521764884 L2.0,-8.753020396282533 L2.0,-8.43633703506394 L2.0,-8.198062264195162 L2.0,-8.050144175636353 L2.0,-8.000000000000002 " />
			<path d="M-2.0,15.0 L-1.6,15.0 " />
			<path d="M-2.0,15.0 L-7.6,15.0 " />
			<path d="M-2.0000000000000004,14.6 L-1.6,15.0 " />
			<path d="M-2.0,14.600000000000001 L-2.0,10.0 " />
			<path d="M-2.0,10.0 L-2.0,9.6 " />
			<path d="M-2.0,10.0 L-2.0,9.6 " />
			<path d="M-2.0,14.600000000000001 L-2.0,10.0 " />
			<path d="M-2.0,-8.0 L-2.0,-8.050144175636365 L-2.0,-8.198062264195213 L-2.0,-8.436337035064051 L-2.0,-8.753020396282718 L-2.0,-9.13223252176515 L-2.0,-9.554958132087718 L-2.0,-10.000000000000414 L-2.0,-10.44504186791309 L-2.0,-10.867767478235596 L-2.0,-11.246979603717929 L-2.0,-11.563662964936466 L-2.0,-11.801937735805147 L-2.0,-11.94985582436382 L-2.0,-11.999999999999998 " />
			<path d="M-2.0,-12.0 L-2.0,-11.949855824363476 L-2.0,-11.80193773580453 L-2.0,-11.563662964935656 L-2.0,-11.246979603717007 L-2.0,-10.867767478234638 L-2.0,-10.445041867912169 L-2.0,-9.999999999999586 L-2.0,-9.554958132087025 L-2.0,-9.132232521764617 L-2.0,-8.753020396282347 L-2.0,-8.43633703506383 L-2.0,-8.198062264195109 L-2.0,-8.050144175636339 L-2.0,-8.000000000000002 " />
			<path d="M-2.0000000000000004,14.6 L-1.6,15.0 " />
			<path d="M2.0,-8.0 L-2.0,-8.0 " />
			<path d="M-2.9499999999999997,15.0 L-3.3499999999999996,14.6 " />
			<path d="M-6.25,11.5 L-3.75,11.5 " />
			<path d="M-3.3499999999999996,11.9 L-3.75,11.5 " />
			<path d="M-3.35,11.9 L-3.35,14.6 " />
			<path d="M-7.050000000000001,15.0 L-6.65,14.6 " />
			<path d="M-6.65,14.6 L-6.65,11.9 " />
			<path d="M-6.65,11.9 L-6.25,11.5 " />
			<path d="M-7.6000000000000005,15.0 L-8.0,14.6 " />
			<path d="M-1.9999999999999996,9.6 L-2.3999999999999995,10.0 " />
			<path d="M-2.4000000000000004,10.0 L-7.6,10.0 " />
			<path d="M-7.6,10.0 L-8.0,10.4 " />
			<path d="M-8.0,10.4 L-8.0,14.6 " />
			<path d="M-2.0,-12.0 L2.0,-12.0 " />

       </g>

       <!-- solid lines -->
       <g  stroke="rgb(0,0,0)" fill="none">
			<path d="M1.6,-15.0 L-1.6,-15.0 " />
			<path d="M2.0,-14.6 L2.0,14.600000000000001 " />
			<path d="M1.6000000000000005,-15.0 L2.0000000000000004,-14.6 " />
			<path d="M-1.6000000000000005,-15.0 L-2.000000000000001,-14.6 " />
			<path d="M-2.0,-14.6 L-2.0,14.600000000000001 " />
			<path d="M-2.0,14.600000000000001 L-1.5999999999999996,15.000000000000002 " />
			<path d="M1.6,15.0 L-1.6,15.0 " />
			<path d="M1.9999999999999991,14.600000000000001 L1.5999999999999988,15.000000000000002 " />
			<path d="M-2.0,15.0 L-2.95,15.0 " />
			<path d="M-2.0,15.0 L-1.6,15.0 " />
			<path d="M-7.050000000000001,15.0 L-7.6,15.0 " />
			<path d="M-6.65,15.0 L-7.05,15.0 " />
			<path d="M-6.65,15.0 L-3.35,15.0 " />
			<path d="M-3.35,15.0 L-2.95,15.0 " />
			<path d="M-1.9999999999999996,9.6 L-2.3999999999999995,10.0 " />
			<path d="M-2.4000000000000004,10.0 L-7.6,10.0 " />
			<path d="M-7.6,10.0 L-8.0,10.4 " />
			<path d="M-8.0,10.4 L-8.0,14.6 " />
			<path d="M-7.6000000000000005,15.0 L-8.0,14.6 " />
			<path d="M-7.050000000000001,15.0 L-6.65,14.6 " />
			<path d="M-6.65,14.6 L-6.65,11.9 " />
			<path d="M-6.650000000000001,11.9 L-6.25,11.5 " />
			<path d="M-6.25,11.5 L-3.75,11.5 " />
			<path d="M-3.3499999999999996,11.9 L-3.75,11.5 " />
			<path d="M-3.35,11.9 L-3.35,14.6 " />
			<path d="M-2.9499999999999997,15.0 L-3.35,14.6 " />

       </g>
    </g>
  </g>
  <clipPath id="clip_top"><rect x="805" y="42" width="739" height="452"/></clipPath>
  <g clip-path="url(#clip_top)" transform="translate(805,68)">
    <g transform="scale(15.0, -15.0)   translate(28.333333333333336,-7.333333333333333)" stroke-width="0.06666666666666667"  fill="none">
       <!-- hidden lines -->
       <g  stroke="rgb(160,160,160)" fill="none" stroke-dasharray="0.06666666666666667,0.06666666666666667" >
			<path d="M-15.0,-6.0 L-15.0,6.0 " />
			<path d="M-14.6,-6.0 L14.600000000000001,-6.0 " />
			<path d="M-15.0,-6.0 L-14.6,-6.0 " />
			<path d="M14.600000000000001,-6.0 L15.000000000000002,-6.0 " />
			<path d="M-15.0,6.0 L-14.6,6.0 " />
			<path d="M-14.6,-6.0 L-14.6,6.0 " />
			<path d="M-14.6,6.0 L14.600000000000001,6.0 " />
			<path d="M14.600000000000001,6.0 L15.000000000000002,6.0 " />
			<path d="M14.6,6.0 L14.6,-6.0 " />
			<path d="M-8.0,4.898587196589e-16 L-8.003946543143456,0.12558103905862725 L-8.015770597371045,0.250666467128609 L-8.035425498542622,0.3747626291714497 L-8.062833677742738,0.49737977432971003 L-8.097886967409693,0.6180339887498952 L-8.140447028223498,0.7362491053693563 L-8.190345895067962,0.8515585831301455 L-8.247386639912273,0.9635073482034308 L-8.311344148995971,1.0716535899579933 L-8.381966011250105,1.1755705045849463 L-8.458973514448422,1.2748479794973795 L-8.542062745157178,1.3690942118573772 L-8.630905788142623,1.457937254842823 L-8.725152020502621,1.541026485551578 L-8.824429495415053,1.6180339887498945 L-8.928346410042007,1.68865585100403 L-9.03649265179657,1.7526133600877272 L-9.148441416869856,1.809654104932039 L-9.263750894630645,1.8595529717765027 L-9.381966011250107,1.902113032590307 L-9.502620225670292,1.937166322257262 L-9.625237370828552,1.964574501457377 L-9.749333532871393,1.9842294026289553 L-9.874418960941375,1.9960534568565425 L-10.000000000000002,1.9999999999999993 L-10.125581039058629,1.9960534568565425 L-10.25066646712861,1.9842294026289546 L-10.374762629171451,1.964574501457376 L-10.497379774329712,1.9371663222572608 L-10.618033988749898,1.9021130325903053 L-10.736249105369359,1.859552971776501 L-10.851558583130148,1.8096541049320372 L-10.963507348203434,1.7526133600877247 L-11.071653589957997,1.6886558510040275 L-11.175570504584948,1.618033988749892 L-11.274847979497382,1.5410264855515754 L-11.36909421185738,1.4579372548428196 L-11.457937254842825,1.3690942118573737 L-11.541026485551582,1.2748479794973755 L-11.618033988749897,1.175570504584942 L-11.688655851004032,1.0716535899579887 L-11.752613360087729,0.9635073482034257 L-11.809654104932042,0.8515585831301401 L-11.859552971776505,0.7362491053693504 L-11.902113032590309,0.618033988749889 L-11.937166322257264,0.49737977432970354 L-11.964574501457378,0.374762629171443 L-11.984229402628957,0.25066646712860197 L-11.996053456856544,0.12558103905862003 L-12.0,-6.906267507580381e-15 L-11.996053456856544,-0.12558103905863383 L-11.984229402628955,-0.25066646712861573 L-11.964574501457376,-0.37476262917145653 L-11.93716632225726,-0.497379774329717 L-11.902113032590306,-0.6180339887499022 L-11.8595529717765,-0.7362491053693634 L-11.809654104932036,-0.8515585831301526 L-11.752613360087723,-0.9635073482034379 L-11.688655851004025,-1.0716535899580004 L-11.61803398874989,-1.1755705045849534 L-11.541026485551573,-1.2748479794973864 L-11.457937254842818,-1.3690942118573841 L-11.369094211857371,-1.4579372548428295 L-11.274847979497373,-1.5410264855515845 L-11.17557050458494,-1.6180339887499002 L-11.071653589957988,-1.6886558510040348 L-10.963507348203425,-1.7526133600877312 L-10.85155858313014,-1.809654104932042 L-10.736249105369351,-1.8595529717765054 L-10.618033988749891,-1.9021130325903093 L-10.497379774329707,-1.9371663222572637 L-10.374762629171446,-1.9645745014573786 L-10.250666467128607,-1.9842294026289566 L-10.125581039058625,-1.9960534568565438 L-10.0,-2.000000000000001 L-9.874418960941373,-1.9960534568565438 L-9.749333532871391,-1.9842294026289564 L-9.625237370828552,-1.9645745014573783 L-9.502620225670292,-1.9371663222572635 L-9.381966011250107,-1.9021130325903086 L-9.263750894630647,-1.8595529717765047 L-9.148441416869858,-1.8096541049320416 L-9.036492651796573,-1.75261336008773 L-8.928346410042012,-1.688655851004034 L-8.824429495415059,-1.6180339887498993 L-8.725152020502627,-1.5410264855515838 L-8.630905788142629,-1.4579372548428289 L-8.542062745157182,-1.3690942118573841 L-8.458973514448427,-1.2748479794973873 L-8.38196601125011,-1.175570504584955 L-8.311344148995975,-1.071653589958003 L-8.247386639912278,-0.9635073482034412 L-8.190345895067967,-0.851558583130157 L-8.140447028223502,-0.7362491053693685 L-8.097886967409696,-0.6180339887499083 L-8.062833677742741,-0.497379774329724 L-8.035425498542626,-0.37476262917146463 L-8.015770597371047,-0.25066646712862467 L-8.003946543143458,-0.12558103905864376 L-8.0,-1.7763568394002546e-14 " />
			<path d="M15.0,6.0 L15.0,-6.0 " />
			<path d="M15.0,-2.0 L15.0,0.0 " />
			<path d="M15.0,0.0 L15.0,-2.0 " />
			<path d="M14.6,-2.0 L15.0,-2.0 " />
			<path d="M14.600000000000001,-2.0 L10.0,-2.0 " />
			<path d="M10.0,-2.0 L9.6,-2.0 " />
			<path d="M10.0,2.0 L9.6,2.0 " />
			<path d="M14.600000000000001,2.0 L10.0,2.0 " />
			<path d="M14.6,2.0 L15.0,2.0 " />
			<path d="M15.0,-2.0 L14.6,-2.0 " />
			<path d="M14.6,-2.0 L11.9,-2.0 " />
			<path d="M11.9,-2.0 L11.5,-2.0 " />
			<path d="M11.9,-2.0 L11.5,-2.0 " />
			<path d="M11.9,-2.0 L14.6,-2.0 " />
			<path d="M15.0,-2.0 L14.6,-2.0 " />
			<path d="M15.0,0.0 L14.6,0.0 " />
			<path d="M14.6,0.0 L14.6,-2.0 " />
			<path d="M11.9,0.0 L11.5,0.0 " />
			<path d="M11.9,0.0 L14.6,0.0 " />
			<path d="M15.0,2.22044604925e-16 L14.6,2.22044604925e-16 " />
			<path d="M14.6,0.0 L11.9,0.0 " />
			<path d="M11.9,0.0 L11.5,0.0 " />
			<path d="M14.6,-2.0 L14.6,0.0 " />
			<path d="M10.0,-2.0 L10.0,2.0 " />
			<path d="M11.9,0.0 L11.9,-2.0 " />
			<path d="M11.5,0.0 L11.5,-2.0 " />
			<path d="M11.5,0.0 L11.5,-2.0 " />
			<path d="M11.9,0.0 L11.9,-2.0 " />

       </g>

       <!-- solid lines -->
       <g  stroke="rgb(0,0,0)" fill="none">
			<path d="M-15.0,-6.0 L-15.0,6.0 " />
			<path d="M-15.0,-6.0 L-14.6,-6.0 " />
			<path d="M-14.6,-6.0 L14.600000000000001,-6.0 " />
			<path d="M14.600000000000001,-6.0 L15.000000000000002,-6.0 " />
			<path d="M-15.0,6.0 L-14.6,6.0 " />
			<path d="M-14.6,-6.0 L-14.6,6.0 " />
			<path d="M-14.6,6.0 L14.600000000000001,6.0 " />
			<path d="M14.600000000000001,6.0 L15.000000000000002,6.0 " />
			<path d="M15.0,-6.0 L15.0,-2.0 " />
			<path d="M15.0,2.0 L15.0,6.0 " />
			<path d="M15.0,-2.0 L15.0,2.0 " />
			<path d="M14.6,-6.0 L14.6,-2.0 " />
			<path d="M9.6,-2.0 L9.6,2.0 " />
			<path d="M14.6,2.0 L14.6,6.0 " />
			<path d="M-8.0,0.0 L-8.003946543143456,-0.12558103905862675 L-8.015770597371045,-0.2506664671286085 L-8.035425498542622,-0.37476262917144926 L-8.062833677742738,-0.4973797743297096 L-8.097886967409693,-0.6180339887498948 L-8.140447028223496,-0.7362491053693558 L-8.19034589506796,-0.8515585831301452 L-8.247386639912273,-0.9635073482034304 L-8.31134414899597,-1.071653589957993 L-8.381966011250105,-1.175570504584946 L-8.458973514448422,-1.2748479794973793 L-8.542062745157176,-1.369094211857377 L-8.630905788142622,-1.4579372548428229 L-8.72515202050262,-1.541026485551578 L-8.824429495415053,-1.6180339887498945 L-8.928346410042007,-1.68865585100403 L-9.03649265179657,-1.7526133600877272 L-9.148441416869854,-1.8096541049320392 L-9.263750894630645,-1.859552971776503 L-9.381966011250105,-1.9021130325903073 L-9.502620225670292,-1.9371663222572624 L-9.625237370828552,-1.9645745014573774 L-9.749333532871393,-1.9842294026289558 L-9.874418960941375,-1.9960534568565431 L-10.000000000000002,-2.0 L-10.125581039058629,-1.9960534568565431 L-10.25066646712861,-1.9842294026289555 L-10.374762629171451,-1.964574501457377 L-10.497379774329712,-1.9371663222572617 L-10.618033988749897,-1.9021130325903064 L-10.736249105369359,-1.859552971776502 L-10.851558583130148,-1.8096541049320383 L-10.963507348203432,-1.752613360087726 L-11.071653589957995,-1.6886558510040288 L-11.175570504584948,-1.6180339887498933 L-11.274847979497382,-1.5410264855515767 L-11.36909421185738,-1.457937254842821 L-11.457937254842825,-1.3690942118573752 L-11.54102648555158,-1.274847979497377 L-11.618033988749897,-1.1755705045849436 L-11.688655851004032,-1.0716535899579902 L-11.752613360087729,-0.9635073482034273 L-11.80965410493204,-0.8515585831301418 L-11.859552971776504,-0.7362491053693522 L-11.902113032590309,-0.6180339887498908 L-11.937166322257264,-0.4973797743297053 L-11.964574501457378,-0.37476262917144476 L-11.984229402628957,-0.2506664671286038 L-11.996053456856544,-0.12558103905862186 L-12.0,5.084141158371281e-15 L-11.996053456856544,0.125581039058632 L-11.984229402628955,0.2506664671286139 L-11.964574501457376,0.37476262917145475 L-11.93716632225726,0.4973797743297152 L-11.902113032590306,0.6180339887499005 L-11.8595529717765,0.7362491053693616 L-11.809654104932036,0.851558583130151 L-11.752613360087723,0.9635073482034362 L-11.688655851004027,1.0716535899579989 L-11.618033988749891,1.1755705045849518 L-11.541026485551575,1.2748479794973848 L-11.457937254842818,1.3690942118573826 L-11.369094211857371,1.457937254842828 L-11.274847979497373,1.5410264855515832 L-11.175570504584941,1.618033988749899 L-11.071653589957988,1.6886558510040335 L-10.963507348203425,1.7526133600877298 L-10.85155858313014,1.809654104932041 L-10.736249105369353,1.8595529717765042 L-10.618033988749891,1.9021130325903082 L-10.497379774329707,1.9371663222572628 L-10.374762629171448,1.9645745014573777 L-10.250666467128607,1.9842294026289558 L-10.125581039058627,1.9960534568565431 L-10.0,2.0 L-9.874418960941375,1.9960534568565431 L-9.749333532871393,1.984229402628956 L-9.625237370828554,1.9645745014573779 L-9.502620225670293,1.937166322257263 L-9.381966011250109,1.9021130325903084 L-9.263750894630649,1.8595529717765045 L-9.14844141686986,1.8096541049320414 L-9.036492651796575,1.75261336008773 L-8.928346410042012,1.688655851004034 L-8.82442949541506,1.6180339887498993 L-8.725152020502627,1.5410264855515838 L-8.630905788142629,1.457937254842829 L-8.542062745157184,1.3690942118573843 L-8.458973514448427,1.2748479794973875 L-8.381966011250112,1.1755705045849552 L-8.311344148995977,1.0716535899580033 L-8.247386639912278,0.9635073482034415 L-8.190345895067967,0.8515585831301573 L-8.140447028223502,0.7362491053693689 L-8.097886967409698,0.6180339887499088 L-8.062833677742741,0.49737977432972447 L-8.035425498542626,0.3747626291714651 L-8.015770597371047,0.25066646712862517 L-8.003946543143458,0.12558103905864426 L-8.0,1.8253427113661445e-14 " />
			<path d="M9.6,-2.0 L10.0,-2.0 " />
			<path d="M10.0,-2.0 L10.4,-2.0 " />
			<path d="M10.4,-2.0 L14.6,-2.0 " />
			<path d="M15.0,-2.0 L14.6,-2.0 " />
			<path d="M15.0,2.0 L14.6,2.0 " />
			<path d="M14.6,-2.0 L14.6,2.0 " />
			<path d="M9.6,2.0 L10.0,2.0 " />
			<path d="M10.0,2.0 L10.4,2.0 " />
			<path d="M10.4,2.0 L14.6,2.0 " />
			<path d="M10.0,-2.0 L10.0,2.0 " />
			<path d="M10.4,-2.0 L10.4,2.0 " />

       </g>
    </g>
  </g>
  <clipPath id="clip_right"><rect x="42" y="518" width="739" height="452"/></clipPath>
  <g clip-path="url(#clip_right)" transform="translate(42,544)">
    <g transform="scale(15.0, -15.0)   translate(15.333333433333333,-7.333333333333333)" stroke-width="0.06666666666666667"  fill="none">
       <!-- hidden lines -->
       <g  stroke="rgb(160,160,160)" fill="none" stroke-dasharray="0.06666666666666667,0.06666666666666667" >
			<path d="M-1.6,6.0 L1.6,6.0 " />
			<path d="M-1.6,6.0 L-1.6,-6.0 " />
			<path d="M-1.6,-6.0 L1.6,-6.0 " />
			<path d="M1.6,6.0 L1.6,-6.0 " />
			<path d="M-1.6000000000000005,6.0 L-2.0000000000000004,6.0 " />
			<path d="M1.6000000000000005,6.0 L2.000000000000001,6.0 " />
			<path d="M-1.6000000000000005,-6.0 L-2.0000000000000004,-6.0 " />
			<path d="M-2.0,6.0 L-2.0,-6.0 " />
			<path d="M1.6000000000000005,-6.0 L2.000000000000001,-6.0 " />
			<path d="M2.0,6.0 L2.0,-6.0 " />
			<path d="M-2.0,-4.898587196589e-16 L-2.0,-0.22392895220661618 L-2.0,-0.44504186791262923 L-2.0,-0.6605581239103346 L-2.0,-0.8677674782351166 L-2.0,-1.0640641530306734 L-2.0,-1.2469796037174672 L-2.0,-1.4142135623730954 L-2.0,-1.5636629649360596 L-2.0,-1.6934483984565682 L-2.0,-1.801937735804838 L-2.0,-1.887766660616735 L-2.0,-1.9498558243636468 L-2.0,-1.9874244197864848 L-2.0,-1.9999999999999991 " />
			<path d="M-2.0,-1.9999999999999993 L-2.0,-1.9498558243636464 L-2.0,-1.8019377358048372 L-2.0,-1.5636629649360585 L-2.0,-1.2469796037174656 L-2.0,-0.8677674782351148 L-2.0,-0.44504186791262723 L-2.0,1.5771969893796294e-15 L-2.0,0.44504186791263034 L-2.0,0.8677674782351177 L-2.0,1.2469796037174683 L-2.0,1.5636629649360607 L-2.0,1.8019377358048392 L-2.0,1.9498558243636481 L-2.0,1.999999999999999 " />
			<path d="M-2.0,2.000000000000001 L-2.0,1.9874244197864857 L-2.0,1.9498558243636477 L-2.0,1.8877666606167354 L-2.0,1.8019377358048387 L-2.0,1.6934483984565685 L-2.0,1.5636629649360598 L-2.0,1.4142135623730951 L-2.0,1.2469796037174672 L-2.0,1.0640641530306734 L-2.0,0.8677674782351164 L-2.0,0.6605581239103342 L-2.0,0.44504186791262884 L-2.0,0.2239289522066157 L-2.0,1.7708057242771247e-14 " />
			<path d="M2.0000000000000004,2.0 L1.6,2.0 " />
			<path d="M2.0,2.0 L2.0,-2.0 " />
			<path d="M2.0,0.0 L2.0,0.22392895220667447 L2.0,0.4450418679127441 L2.0,0.6605581239105016 L2.0,0.8677674782353293 L2.0,1.0640641530309234 L2.0,1.2469796037177443 L2.0,1.4142135623733876 L2.0,1.5636629649363543 L2.0,1.6934483984568514 L2.0,1.8019377358050948 L2.0,1.8877666606169499 L2.0,1.9498558243638051 L2.0,1.9874244197865711 L2.0,1.9999999999999998 " />
			<path d="M2.0,2.0 L2.0,1.949855824363463 L2.0,1.8019377358044792 L2.0,1.5636629649355436 L2.0,1.24697960371682 L2.0,0.8677674782343706 L2.0,0.445041867911822 L2.0,-8.275373578006872e-13 L2.0,-0.4450418679134356 L2.0,-0.8677674782358618 L2.0,-1.246979603718114 L2.0,-1.5636629649365754 L2.0,-1.8019377358051973 L2.0,-1.9498558243638313 L2.0,-1.999999999999998 " />
			<path d="M2.0,-2.0 L2.0,-1.987424419786399 L2.0,-1.9498558243634891 L2.0,-1.88776666061652 L2.0,-1.801937735804581 L2.0,-1.693448398456284 L2.0,-1.563662964935763 L2.0,-1.4142135623728003 L2.0,-1.246979603717187 L2.0,-1.0640641530304193 L2.0,-0.867767478234899 L2.0,-0.6605581239101619 L2.0,-0.44504186791250805 L2.0,-0.22392895220655087 L2.0,-1.8235413179468196e-14 " />
			<path d="M2.0000000000000004,-2.0 L1.6,-2.0 " />
			<path d="M1.9999999999999996,2.0 L2.3999999999999995,2.0 " />
			<path d="M2.4000000000000004,2.0 L7.6,2.0 " />
			<path d="M7.6,2.0 L8.0,2.0 " />
			<path d="M2.9499999999999997,0.0 L3.3499999999999996,0.0 " />
			<path d="M6.25,0.0 L3.75,0.0 " />
			<path d="M3.3499999999999996,0.0 L3.75,0.0 " />
			<path d="M7.050000000000001,-2.22044604925e-16 L6.65,-2.22044604925e-16 " />
			<path d="M6.65,0.0 L6.25,0.0 " />
			<path d="M1.9999999999999996,-2.0 L2.3999999999999995,-2.0 " />
			<path d="M2.4000000000000004,-2.0 L7.6,-2.0 " />
			<path d="M7.6,-2.0 L8.0,-2.0 " />
			<path d="M2.4,2.0 L2.4,-2.0 " />
			<path d="M3.35,0.0 L3.35,2.0 " />
			<path d="M6.65,0.0 L6.65,2.0 " />
			<path d="M7.6,2.0 L7.6,-2.0 " />
			<path d="M8.0,2.0 L8.0,-2.0 " />
			<path d="M2.0,2.0 L-2.0,2.0 " />
			<path d="M2.0,-2.0 L-2.0,-2.0 " />

       </g>

       <!-- solid lines -->
       <g  stroke="rgb(0,0,0)" fill="none">
			<path d="M2.0,6.0 L1.5999999999999996,6.0 " />
			<path d="M-1.6,6.0 L1.6,6.0 " />
			<path d="M-1.9999999999999991,6.0 L-1.5999999999999988,6.0 " />
			<path d="M2.0,-6.0 L1.5999999999999996,-6.0 " />
			<path d="M-1.6,-6.0 L1.6,-6.0 " />
			<path d="M-1.9999999999999991,-6.0 L-1.5999999999999988,-6.0 " />
			<path d="M-2.0,-6.0 L-2.0,6.0 " />
			<path d="M-1.6,-6.0 L-1.6,6.0 " />
			<path d="M2.0,2.0 L2.95,2.0 " />
			<path d="M2.0,2.0 L1.6,2.0 " />
			<path d="M1.6,6.0 L1.6,2.0 " />
			<path d="M1.6,-2.0 L1.6,-6.0 " />
			<path d="M2.0,-2.0 L1.6,-2.0 " />
			<path d="M2.0,-2.0 L7.6,-2.0 " />
			<path d="M7.6,2.0 L7.6,-2.0 " />
			<path d="M7.050000000000001,2.0 L7.6,2.0 " />
			<path d="M7.05,2.0 L7.05,0.0 " />
			<path d="M6.65,0.0 L7.05,0.0 " />
			<path d="M6.65,0.0 L3.35,0.0 " />
			<path d="M3.35,0.0 L2.95,0.0 " />
			<path d="M2.95,0.0 L2.95,2.0 " />
			<path d="M2.0,6.0 L2.0,2.0 " />
			<path d="M2.0,-2.0 L2.0,-6.0 " />
			<path d="M7.6000000000000005,2.0 L8.0,2.0 " />
			<path d="M7.050000000000001,2.0 L6.65,2.0 " />
			<path d="M6.650000000000001,2.0 L6.25,2.0 " />
			<path d="M6.25,2.0 L3.75,2.0 " />
			<path d="M3.3499999999999996,2.0 L3.75,2.0 " />
			<path d="M2.9499999999999997,2.0 L3.35,2.0 " />
			<path d="M3.35,0.0 L3.35,2.0 " />
			<path d="M6.65,2.0 L6.65,0.0 " />
			<path d="M7.6000000000000005,-2.0 L8.0,-2.0 " />
			<path d="M8.0,2.0 L8.0,-2.0 " />
			<path d="M3.75,0.0 L3.75,2.0 " />
			<path d="M6.25,0.0 L6.25,2.0 " />

       </g>
    </g>
  </g>
  <clipPath id="clip_section"><rect x="805" y="518" width="739" height="452"/></clipPath>
  <g clip-path="url(#clip_section)" transform="translate(805,544)">
    <g transform="scale(5.999999999999999, -5.999999999999999)   translate(41.333333333333336,-18.333333333333336)" stroke-width="0.16666666666666669"  fill="none">
       <!-- hidden lines -->
       <g  stroke="rgb(160,160,160)" fill="none" stroke-dasharray="0.16666666666666669,0.16666666666666669" >
			<path d="M1.6,-15.0 L-1.6,-15.0 " />
			<path d="M-1.6000000000000005,-15.0 L-2.000000000000001,-14.6 " />
			<path d="M2.0,-14.6 L2.0,14.600000000000001 " />
			<path d="M1.6000000000000005,-15.0 L2.0000000000000004,-14.6 " />
			<path d="M-2.0,-14.6 L-2.0,14.600000000000001 " />
			<path d="M-2.0,14.600000000000001 L-1.5999999999999996,15.000000000000002 " />
			<path d="M1.6,15.0 L-1.6,15.0 " />
			<path d="M1.9999999999999991,14.600000000000001 L1.5999999999999988,15.000000000000002 " />
			<path d="M-2.0,9.6 L-2.0,14.6 " />
			<path d="M-2.0000000000000004,14.6 L-1.6,15.0 " />
			<path d="M-1.6,15.0 L-7.6,15.0 " />
			<path d="M-1.9999999999999996,9.6 L-2.3999999999999995,10.0 " />
			<path d="M-2.4000000000000004,10.0 L-7.6,10.0 " />
			<path d="M-7.6,10.0 L-8.0,10.4 " />
			<path d="M-8.0,10.4 L-8.0,14.6 " />
			<path d="M-7.6000000000000005,15.0 L-8.0,14.6 " />

       </g>

       <!-- solid lines -->
       <g  stroke="rgb(0,0,0)" fill="none">
			<path d="M-1.6,-15.0 L1.6,-15.0 " />
			<path d="M-2.0000000000000013,-14.600000000000001 L-1.6000000000000005,-15.000000000000002 " />
			<path d="M-2.0,-14.6 L-2.0,-12.0 " />
			<path d="M-2.0,-12.0 L2.0,-12.0 " />
			<path d="M2.0,-14.6 L2.0,-12.0 " />
			<path d="M2.0000000000000013,-14.600000000000001 L1.6000000000000005,-15.000000000000002 " />
			<path d="M-2.0,-12.0 L-2.0,-11.949855824363647 L-2.0,-11.801937735804838 L-2.0,-11.56366296493606 L-2.0,-11.246979603717467 L-2.0,-10.867767478235116 L-2.0,-10.445041867912629 L-2.0,-10.0 L-2.0,-9.554958132087371 L-2.0,-9.132232521764884 L-2.0,-8.753020396282533 L-2.0,-8.436337035063941 L-2.0,-8.198062264195162 L-2.0,-8.050144175636353 L-2.0,-8.000000000000002 " />
			<path d="M-2.0,-8.0 L-2.0,9.600000000000001 " />
			<path d="M2.0,-8.0 L-2.0,-8.0 " />
			<path d="M2.0,-8.0 L2.0,-8.050144175636353 L2.0,-8.198062264195162 L2.0,-8.436337035063941 L2.0,-8.753020396282533 L2.0,-9.132232521764884 L2.0,-9.554958132087371 L2.0,-10.000000000000002 L2.0,-10.44504186791263 L2.0,-10.867767478235118 L2.0,-11.246979603717469 L2.0,-11.56366296493606 L2.0,-11.801937735804838 L2.0,-11.949855824363647 L2.0,-11.999999999999998 " />
			<path d="M2.0,-8.0 L2.0,14.600000000000001 " />
			<path d="M-7.6,15.0 L1.5999999999999996,15.0 " />
			<path d="M2.0000000000000013,14.600000000000001 L1.6000000000000005,15.000000000000002 " />
			<path d="M-1.9999999999999998,9.600000000000001 L-2.4000000000000004,10.0 " />
			<path d="M-8.000000000000002,14.6 L-7.6000000000000005,15.0 " />
			<path d="M-8.0,10.4 L-8.0,14.6 " />
			<path d="M-8.000000000000002,10.400000000000002 L-7.600000000000001,10.0 " />
			<path d="M-7.6,10.0 L-2.4000000000000004,10.0 " />

       </g>
    </g>
  </g>
  <text x="1174.5" y="964" text-anchor="middle" font-size="9" font-weight="bold" fill="#333" font-family="Arial, Helvetica, sans-serif">SECTION A-A  &#x2014;  CUT AT Y MIDPLANE</text>
  <rect x="1282" y="332" width="258" height="158" fill="#f4f4f4" stroke="#aaa" stroke-width="0.5"/>
  <text x="1285" y="341" font-size="7" fill="#777" font-family="Arial, Helvetica, sans-serif">ISO</text>
  <clipPath id="clip_iso"><rect x="1282" y="332" width="258" height="158"/></clipPath>
  <g clip-path="url(#clip_iso)" transform="translate(1282,358)">
    <g transform="scale(7.708184505261746, -7.708184505261746)   translate(37.684419472733325,-14.270545797770152)" stroke-width="0.12973223452518318"  fill="none">
       <!-- hidden lines -->
       <g  stroke="rgb(160,160,160)" fill="none" stroke-dasharray="0.12973223452518318,0.12973223452518318" >
			<path d="M-9.475230867899738,-11.675901107266483 L-9.475230867899738,-1.87794213613377 " />
			<path d="M-9.475230867899736,-1.8779421361337705 L-11.737972567696689,-0.5715476066494083 " />
			<path d="M-11.737972567696689,-10.369506577782122 L-11.737972567696689,-0.5715476066494087 " />
			<path d="M-9.475230867899736,-1.877942136133771 L-8.909545442950497,-1.877942136133771 " />
			<path d="M-8.909545442950499,-11.675901107266483 L-8.909545442950499,-1.87794213613377 " />
			<path d="M-11.73797256769669,-0.5715476066494087 L-11.73797256769669,-0.2449489742783183 " />
			<path d="M-8.909545442950499,-1.8779421361337703 L11.737972567696694,10.042907945411036 " />
			<path d="M1.697056274847716,7.511768544535083 L6.363961030678933,10.20620726159658 " />
			<path d="M11.73797256769669,10.04290794541103 L11.73797256769669,10.369506577782122 " />
			<path d="M11.73797256769669,10.04290794541103 L11.73797256769669,0.24494897427831752 " />
			<path d="M-4.242640687119286,-4.08248290463863 L-4.244344169290403,-4.003339233883861 L-4.249450511965998,-3.9263532389442157 L-4.257947413519302,-3.8517103858246813 L-4.2698144041702335,-3.779590495696362 L-4.285022895298887,-3.710167311691535 L-4.303536248318029,-3.643608080341223 L-4.3253098629386555,-3.5800731486636463 L-4.350291284616004,-3.5197155778742197 L-4.37842033091714,-3.4626807746476733 L-4.40962923650571,-3.409106140820639 L-4.443842816394573,-3.35912074237859 L-4.480978647073022,-3.312844998524576 L-4.5209472650722375,-3.270390391578819 L-4.563652382490623,-3.2318591984080354 L-4.60899111895979,-3.197344244031507 L-4.656854249492373,-3.166928677997485 " />
			<path d="M-4.6568542494923815,-3.1669286779974795 L-4.707126467614628,-3.1406857740686194 L-4.759686663149745,-3.118678753699097 L-4.814408213982962,-3.10096063372857 L-4.87115929110528,-3.087574098659972 L-4.929803176201101,-3.078551397828804 L-4.990198591014636,-3.0739142677116646 L-5.052200037701581,-3.073673879561171 L-5.115658149346185,-3.077830812493432 L-5.1804200497992205,-3.08637505209291 L-5.2463297219700245,-3.099286014538023 L-5.313228383685332,-3.1165325961893737 L-5.380954870209439,-3.1380732485211427 L-5.44934602250417,-3.1638560782151233 L-5.51823708029329,-3.193818972176274 L-5.587462078984442,-3.2278897471686028 L-5.656854249492382,-3.2659863237109064 L-5.726246420000322,-3.308016923813427 L-5.7954714186914735,-3.353880292079073 L-5.8643624764805935,-3.4034659396365354 L-5.932753628775325,-3.456654410317659 L-6.000480115299433,-3.513317568437812 L-6.067378777014739,-3.573318907485978 L-6.133288449185543,-3.6365138789808924 L-6.198050349638579,-3.702750240700998 L-6.261508461283182,-3.7718684234492916 L-6.323509907970129,-3.8437019154694947 L-6.3839053227836615,-3.9180776635874595 L-6.442549207879484,-3.9948164901114236 L-6.499300285001802,-4.073733524486764 L-6.554021835835018,-4.154638648665355 L-6.606582031370136,-4.2373369551165965 L-6.6568542494923815,-4.321629216376733 L-6.704717380024972,-4.407312365005259 L-6.7500561164941395,-4.494179982792169 L-6.7927612339125245,-4.582022798037512 L-6.83272985191174,-4.670629189705238 L-6.86986568259019,-4.759785697236818 L-6.904079262479053,-4.849277534796419 L-6.935288168067622,-4.9388891087088025 L-6.963417214368758,-5.028404536843365 L-6.988398636046107,-5.117608168693107 L-7.010172250666734,-5.206285104895584 L-7.028685603685875,-5.294221714944304 L-7.0438940948145286,-5.381206151843322 L-7.055761085465459,-5.467028862465211 L-7.064257987018763,-5.551483092382902 L-7.069364329694358,-5.6343653839592065 L-7.0710678118654755,-5.715476066494085 L-7.069364329694358,-5.794619737248854 L-7.064257987018763,-5.8716057321885 L-7.055761085465459,-5.946248585308036 L-7.043894094814528,-6.018368475436353 L-7.028685603685874,-6.087791659441178 L-7.0101722506667326,-6.154350890791491 L-6.988398636046106,-6.217885822469068 L-6.963417214368757,-6.278243393258495 L-6.935288168067621,-6.335278196485042 L-6.904079262479051,-6.388852830312076 L-6.869865682590188,-6.4388382287541255 L-6.832729851911739,-6.485113972608139 L-6.792761233912523,-6.527568579553896 L-6.750056116494138,-6.56609977272468 L-6.70471738002497,-6.600614727101209 L-6.656854249492384,-6.6310302931352325 " />
			<path d="M-6.65685424949238,-6.631030293135235 L-6.61936941113937,-6.651107288887581 L-6.580580142571403,-6.668809747034503 L-6.540539012200853,-6.684113676659073 L-6.499300285001799,-6.696998337404145 L-6.456919848968456,-6.70744626758033 L-6.413455139374038,-6.715443307830615 L-6.368965060932717,-6.7209786203195545 L-6.323509907970126,-6.72404470342105 L-6.277151282710638,-6.724637401884774 L-6.22995201179213,-6.7227559124675 L-6.181976061121389,-6.718402785021679 L-6.133288449185541,-6.711583919039805 L-6.083955158936993,-6.7023085556592354 L-6.034043048371307,-6.690589265138321 L-5.983619759919176,-6.676441929820804 L-5.932753628775322,-6.659885722611572 L-5.881513590288535,-6.640943080992955 L-5.829969086538358,-6.619639676616746 L-5.7781899722250465,-6.5960043805132 L-5.72624642000032,-6.570069223964112 L-5.622147711277979,-6.511442991231508 L-5.518237080293288,-6.444078679053642 L-5.415077627758641,-6.368341340474827 L-5.313228383685328,-6.284641402694902 L-5.21324127795147,-6.19343244292868 L-5.1156581493461815,-6.095208730431716 L-5.021007809298234,-5.990502548012392 L-4.9298031762011,-5.879881307545256 L-4.842538495863739,-5.763944475116911 L-4.759686663149743,-5.6433203224673605 L-4.681696659319088,-5.518662522331003 L-4.608991118959789,-5.390646606127455 L-4.541964039694453,-5.2599663031982615 L-4.480978647073021,-5.127329781427476 L-4.426365426222041,-4.993455809618553 L-4.378420330917139,-4.8590698624239135 L-4.337403179783859,-4.724900188934956 L-4.303536248318028,-4.591673866237131 L-4.277003064355576,-4.460112859316216 L-4.257947413519302,-4.330930108667503 L-4.246472560032119,-4.2048256668094925 L-4.242640687119286,-4.0824829046386455 " />
			<path d="M5.374011537017761,3.4292856398964493 L5.374011537017761,6.3686733312362644 " />
			<path d="M5.656854249492382,6.53197264742181 L5.374011537017762,6.3686733312362644 " />
			<path d="M8.909545442950503,8.409914783555582 L5.656854249492382,6.53197264742181 " />
			<path d="M8.909545442950499,8.409914783555578 L8.909545442950499,8.73651341592667 " />
			<path d="M8.909545442950499,8.40991478355558 L9.475230867899736,8.40991478355558 " />
			<path d="M3.7123106012293743,7.24640715573357 L4.843681451127851,6.593209890991389 " />
			<path d="M5.621498910433053,9.001874804728182 L5.621498910433053,8.67527617235709 " />
			<path d="M5.6214989104330515,8.675276172357089 L3.7123106012293743,7.573005788104659 " />
			<path d="M3.712310601229375,7.573005788104661 L3.712310601229375,7.24640715573357 " />
			<path d="M5.621498910433053,7.042283010501638 L5.621498910433053,8.67527617235709 " />
			<path d="M5.374011537017762,6.3686733312362644 L5.374011537017762,6.695271963607355 " />
			<path d="M5.374011537017761,6.695271963607355 L1.6970562748477143,8.818163074019443 " />
			<path d="M1.6970562748477147,8.818163074019441 L1.6970562748477147,9.144761706390533 " />
			<path d="M5.374011537017761,3.4292856398964493 L5.374011537017761,6.695271963607354 " />
			<path d="M3.7123106012293743,7.24640715573357 L3.7123106012293743,5.9400126262492075 " />
			<path d="M3.712310601229375,7.573005788104661 L3.712310601229375,5.940012626249208 " />
			<path d="M1.6970562748477143,5.552176750308537 L1.6970562748477143,8.818163074019441 " />
			<path d="M-9.485281374238575,-4.99803713127978 L-6.656854249492383,-6.631030293135234 " />
			<path d="M-7.485281374238575,-1.533935516142023 L-4.656854249492383,-3.1669286779974772 " />

       </g>

       <!-- solid lines -->
       <g  stroke="rgb(0,0,0)" fill="none">
			<path d="M-9.475230867899736,-11.675901107266483 L-11.737972567696689,-10.369506577782122 " />
			<path d="M-8.909545442950499,-11.675901107266483 L11.737972567696694,0.24494897427832285 " />
			<path d="M-9.475230867899736,-11.675901107266485 L-8.909545442950497,-11.675901107266485 " />
			<path d="M-11.73797256769669,-10.369506577782122 L-11.73797256769669,-10.04290794541103 " />
			<path d="M-11.73797256769669,-10.04290794541103 L8.909545442950503,1.8779421361337754 " />
			<path d="M8.9095454429505,1.877942136133771 L9.47523086789974,1.877942136133771 " />
			<path d="M11.73797256769669,0.5715476066494085 L9.475230867899738,1.8779421361337705 " />
			<path d="M11.73797256769669,0.24494897427831752 L11.73797256769669,0.5715476066494087 " />
			<path d="M-11.73797256769669,-10.04290794541103 L-11.73797256769669,-0.24494897427831752 " />
			<path d="M-11.73797256769669,-0.24494897427831783 L1.697056274847716,7.511768544535083 " />
			<path d="M6.363961030678933,10.20620726159658 L8.909545442950503,11.675901107266489 " />
			<path d="M8.9095454429505,11.675901107266483 L9.47523086789974,11.675901107266483 " />
			<path d="M11.73797256769669,10.369506577782122 L9.475230867899738,11.675901107266483 " />
			<path d="M11.737972567696689,10.369506577782122 L11.737972567696689,0.5715476066494087 " />
			<path d="M9.192388155425117,5.30722777603022 L8.520636713297899,5.69506365197089 " />
			<path d="M9.192388155425117,5.30722777603022 L9.475230867899738,5.143928459844675 " />
			<path d="M9.475230867899738,1.8779421361337705 L9.475230867899738,5.143928459844675 " />
			<path d="M9.475230867899738,8.40991478355558 L9.475230867899738,11.675901107266485 " />
			<path d="M9.192388155425117,8.573214099741126 L9.475230867899738,8.40991478355558 " />
			<path d="M9.192388155425117,8.573214099741126 L5.232590180780452,10.859404526338759 " />
			<path d="M5.232590180780452,7.593418202627853 L5.232590180780452,10.859404526338757 " />
			<path d="M5.621498910433052,7.368881642872729 L5.232590180780452,7.593418202627854 " />
			<path d="M5.621498910433053,7.3688816428727275 L5.621498910433053,9.00187480472818 " />
			<path d="M5.904341622907671,8.838575488542636 L5.621498910433052,9.001874804728182 " />
			<path d="M5.904341622907671,8.838575488542636 L8.237794000823278,7.491356130011888 " />
			<path d="M8.237794000823278,7.491356130011888 L8.520636713297899,7.328056813826342 " />
			<path d="M8.520636713297897,7.328056813826342 L8.520636713297897,5.69506365197089 " />
			<path d="M8.909545442950499,1.87794213613377 L8.909545442950499,5.143928459844675 " />
			<path d="M8.909545442950499,5.143928459844675 L9.475230867899736,5.143928459844675 " />
			<path d="M8.909545442950503,5.143928459844677 L5.656854249492382,3.2659863237109055 " />
			<path d="M5.656854249492382,3.2659863237109055 L5.374011537017762,3.10268700752536 " />
			<path d="M5.374011537017761,3.1026870075253594 L5.374011537017761,3.4292856398964493 " />
			<path d="M8.909545442950499,8.73651341592667 L8.909545442950499,11.675901107266483 " />
			<path d="M-7.071067811865476,-2.449489742783178 L-7.074899684778311,-2.5718325049540605 L-7.086374538265498,-2.697936946812095 L-7.105430189101779,-2.827119697460831 L-7.13196337306424,-2.9586807043817713 L-7.1658303045300835,-3.0919070270796207 L-7.206847455663377,-3.2260767005686013 L-7.254792550968296,-3.360462647763265 L-7.309405771819294,-3.494336619572212 L-7.370391164440746,-3.6269731413430186 L-7.437418243706103,-3.7576534442722322 L-7.510123784065425,-3.885669360475796 L-7.588113787896104,-4.010327160612167 L-7.670965620610124,-4.130951313261728 L-7.75823030094751,-4.246888145690081 L-7.84943493404467,-4.357509386157223 L-7.944085274092643,-4.462215568576549 L-8.041668402697956,-4.560439281073511 L-8.141655508431839,-4.651648240839727 L-8.243504752505174,-4.735348178619641 L-8.346664205039843,-4.811085517198441 L-8.450574836024556,-4.878449829376288 L-8.554673544746914,-4.9370760621088685 L-8.606617096971648,-4.963011218657943 L-8.658396211284968,-4.986646514761476 L-8.70994071503515,-5.007949919137667 L-8.761180753521945,-5.026892560756269 L-8.812046884665802,-5.043448767965483 L-8.862470173117938,-5.0575961032829815 L-8.912382283683629,-5.069315393803876 L-8.961715573932178,-5.0785907571844255 L-9.010403185868029,-5.085409623166278 L-9.058379136538772,-5.089762750612076 L-9.10557840745728,-5.091644240029327 L-9.151937032716768,-5.091051541565578 L-9.197392185679359,-5.0879854584640585 L-9.241882264120678,-5.082450145975092 L-9.285346973715091,-5.074453105724781 L-9.32772740974843,-5.064005175548568 L-9.36896613694748,-5.051120514803468 L-9.409007267318023,-5.035816585178869 L-9.447796535885983,-5.018114127031918 L-9.485281374238976,-4.998037131279548 " />
			<path d="M-9.485281374238985,-4.998037131279543 L-9.533144504771554,-4.967621565245481 L-9.5784832412407,-4.933106610868918 L-9.621188358659063,-4.894575417698101 L-9.661156976658255,-4.852120810752311 L-9.69829280733668,-4.805845066898265 L-9.732506387225518,-4.755859668456185 L-9.763715292814062,-4.702285034629121 L-9.791844339115173,-4.645250231402546 L-9.816825760792494,-4.584892660613091 L-9.838599375413093,-4.521357728935488 L-9.857112728432208,-4.45479849758515 L-9.872321219560833,-4.385375313580302 L-9.884188210211736,-4.313255423451961 L-9.892685111765012,-4.238612570332406 L-9.897791454440577,-4.1616265753927415 L-9.899494936611667,-4.0824829046379545 L-9.89779145444052,-4.00137222210306 L-9.892685111764896,-3.918489930526742 L-9.884188210211564,-3.834035700609039 L-9.872321219560604,-3.7482129899871386 L-9.857112728431924,-3.6612285530881117 L-9.838599375412754,-3.5732919430393846 L-9.8168257607921,-3.4846150068369015 L-9.791844339114725,-3.395411374987157 L-9.763715292813561,-3.3058959468525924 L-9.732506387224966,-3.2162843729402093 L-9.698292807336077,-3.12679253538061 L-9.661156976657605,-3.037636027849034 L-9.621188358658365,-2.949029636181313 L-9.578483241239958,-2.861186820935978 L-9.53314450477077,-2.7743192031490764 L-9.485281374238157,-2.6886360545205616 L-9.435009156115893,-2.6043437932604374 L-9.382448960580755,-2.5216454868092097 L-9.32772740974752,-2.4407403626306357 L-9.270976332625187,-2.361823328255313 L-9.212332447529349,-2.2850845017313675 L-9.151937032715802,-2.2107087536134236 L-9.089935586028844,-2.1388752615932427 L-9.026477474384228,-2.069757078844973 L-8.961715573931182,-2.0035207171248914 L-8.895805901760369,-1.940325745630004 L-8.828907240045055,-1.8803244065818658 L-8.761180753520941,-1.8236612484617414 L-8.692789601226204,-1.7704727777806482 L-8.62389854343708,-1.7208871302232165 L-8.554673544745928,-1.6750237619576023 L-8.485281374237987,-1.6329931618551141 L-8.415889203730046,-1.5948965853128447 L-8.346664205038898,-1.56082581032055 L-8.27777314724978,-1.530862916359434 L-8.209381994955054,-1.505080086665489 L-8.141655508430954,-1.483539434333757 L-8.074756846715655,-1.4662928526824426 L-8.00884717454486,-1.4533818902373663 L-7.944085274091834,-1.444837650637925 L-7.880627162447242,-1.4406807177057008 L-7.818625715760309,-1.4409211058562321 L-7.7582303009467894,-1.4455582359734085 L-7.699586415850983,-1.454580936804613 L-7.642835338728682,-1.4679674718732478 L-7.588113787895483,-1.4856855918438114 L-7.535553592360383,-1.5076926122133698 L-7.485281374238162,-1.533935516142263 " />
			<path d="M-7.485281374238157,-1.5339355161422656 L-7.437418243705613,-1.5643510821763102 L-7.392079507236489,-1.5988660365528515 L-7.349374389818146,-1.6373972297236434 L-7.3094057718189696,-1.6798518366694037 L-7.272269941140557,-1.7261275805234157 L-7.2380563612517275,-1.7761129789654593 L-7.2068474556631905,-1.8296876127924828 L-7.178718409362083,-1.886722416019015 L-7.153736987684759,-1.9470799868084234 L-7.1319633730641545,-2.0106149184859774 L-7.113450020045033,-2.0771741498362637 L-7.098241528916395,-2.146597333841059 L-7.086374538265477,-2.2187172239693442 L-7.077877636712182,-2.2933600770888427 L-7.072771294036592,-2.3703460720284495 L-7.071067811865476,-2.4494897427831708 " />
			<path d="M5.374011537017762,3.1026870075253594 L5.374011537017762,3.4292856398964497 " />
			<path d="M5.374011537017761,3.4292856398964497 L1.6970562748477143,5.552176750308538 " />
			<path d="M1.6970562748477147,5.552176750308538 L1.6970562748477147,5.878775382679629 " />
			<path d="M1.6970562748477143,5.878775382679628 L4.666904755831214,7.593418202627852 " />
			<path d="M5.232590180780451,7.593418202627854 L4.666904755831212,7.593418202627854 " />
			<path d="M5.621498910433052,7.368881642872728 L5.621498910433052,7.042283010501638 " />
			<path d="M5.621498910433052,7.042283010501637 L3.712310601229374,5.9400126262492075 " />
			<path d="M3.7123106012293743,5.940012626249208 L3.7123106012293743,5.613413993878117 " />
			<path d="M3.712310601229374,5.613413993878117 L5.480077554195743,4.592793267718459 " />
			<path d="M6.045762979144982,4.592793267718459 L5.480077554195743,4.592793267718459 " />
			<path d="M6.045762979144982,4.592793267718459 L7.95495128834866,5.695063651970889 " />
			<path d="M8.520636713297899,5.695063651970889 L7.95495128834866,5.695063651970889 " />
			<path d="M8.520636713297897,7.3280568138263416 L7.954951288348659,7.3280568138263416 " />
			<path d="M7.95495128834866,7.3280568138263416 L7.95495128834866,5.695063651970889 " />
			<path d="M4.843681451127851,6.593209890991389 L5.480077554195743,6.225786429573912 " />
			<path d="M6.045762979144983,6.225786429573912 L5.480077554195744,6.225786429573912 " />
			<path d="M6.045762979144981,6.225786429573912 L7.954951288348659,7.3280568138263416 " />
			<path d="M5.232590180780451,10.859404526338759 L4.666904755831212,10.859404526338759 " />
			<path d="M4.666904755831214,7.593418202627852 L4.666904755831214,10.859404526338757 " />
			<path d="M1.6970562748477143,9.144761706390533 L4.666904755831214,10.859404526338757 " />
			<path d="M6.045762979144982,6.225786429573912 L6.045762979144982,4.592793267718459 " />
			<path d="M5.480077554195743,6.225786429573912 L5.480077554195743,4.592793267718459 " />
			<path d="M3.7123106012293743,5.9400126262492075 L3.7123106012293743,5.613413993878117 " />
			<path d="M1.6970562748477143,5.878775382679628 L1.6970562748477143,9.144761706390533 " />

       </g>
    </g>
  </g>
  <line x1="34" y1="268.0" x2="789" y2="268.0" stroke="#0000ff" stroke-width="0.4" stroke-dasharray="12,3,2,3" fill="none"/>
  <line x1="411.5" y1="34" x2="411.5" y2="502" stroke="#0000ff" stroke-width="0.4" stroke-dasharray="12,3,2,3" fill="none"/>
  <line x1="797" y1="268.0" x2="1552" y2="268.0" stroke="#0000ff" stroke-width="0.4" stroke-dasharray="12,3,2,3" fill="none"/>
  <line x1="1174.5" y1="34" x2="1174.5" y2="502" stroke="#0000ff" stroke-width="0.4" stroke-dasharray="12,3,2,3" fill="none"/>
  <line x1="34" y1="744.0" x2="789" y2="744.0" stroke="#0000ff" stroke-width="0.4" stroke-dasharray="12,3,2,3" fill="none"/>
  <line x1="411.5" y1="510" x2="411.5" y2="978" stroke="#0000ff" stroke-width="0.4" stroke-dasharray="12,3,2,3" fill="none"/>
  <line x1="0" y1="54" x2="18" y2="54" stroke="#1a1a8c" stroke-width="0.7"/>
  <line x1="0" y1="482" x2="18" y2="482" stroke="#1a1a8c" stroke-width="0.7"/>
  <line x1="4" y1="54" x2="4" y2="482" stroke="#1a1a8c" stroke-width="0.8"/>
  <polygon points="4,54 1,61 7,61" fill="#1a1a8c"/>
  <polygon points="4,482 1,475 7,475" fill="#1a1a8c"/>
  <text x="-4" y="268.0" text-anchor="middle" font-size="10" fill="#1a1a8c" font-family="Arial, Helvetica, sans-serif" transform="rotate(-90,-4,268.0)">10.0 mm</text>
  <polygon points="411.5,492 402.5,506.4 420.5,506.4" fill="#1a1a8c" stroke="#1a1a8c" stroke-width="0.5"/>
  <rect x="402.5" y="506.4" width="18" height="18" fill="white" stroke="#1a1a8c" stroke-width="1"/>
  <text x="411.5" y="520.4" text-anchor="middle" font-size="11" font-weight="bold" fill="#1a1a8c" font-family="Arial, Helvetica, sans-serif">A</text>
  <line x1="46" y1="268.0" x2="777" y2="268.0" stroke="#555" stroke-width="1" stroke-dasharray="8,4"/>
  <polygon points="46,268.0 56,264.0 56,272.0" fill="#555"/>
  <polygon points="777,268.0 767,264.0 767,272.0" fill="#555"/>
  <text x="60" y="262.0" font-size="10" font-weight="bold" fill="#555" font-family="Arial, Helvetica, sans-serif">A</text>
  <text x="757" y="262.0" font-size="10" font-weight="bold" fill="#555" font-family="Arial, Helvetica, sans-serif">A</text>
  <line x1="54" y1="508" x2="54" y2="526" stroke="#1a1a8c" stroke-width="0.7"/>
  <line x1="769" y1="508" x2="769" y2="526" stroke="#1a1a8c" stroke-width="0.7"/>
  <line x1="54" y1="522" x2="769" y2="522" stroke="#1a1a8c" stroke-width="0.8"/>
  <polygon points="54,522 61,519 61,525" fill="#1a1a8c"/>
  <polygon points="769,522 762,519 762,525" fill="#1a1a8c"/>
  <text x="411.5" y="518" text-anchor="middle" font-size="10" fill="#1a1a8c" font-family="Arial, Helvetica, sans-serif">30.0 mm</text>
  <line x1="817" y1="6" x2="817" y2="24" stroke="#1a1a8c" stroke-width="0.7"/>
  <line x1="1532" y1="6" x2="1532" y2="24" stroke="#1a1a8c" stroke-width="0.7"/>
  <line x1="817" y1="20" x2="1532" y2="20" stroke="#1a1a8c" stroke-width="0.8"/>
  <polygon points="817,20 824,17 824,23" fill="#1a1a8c"/>
  <polygon points="1532,20 1525,17 1525,23" fill="#1a1a8c"/>
  <text x="1174.5" y="16" text-anchor="middle" font-size="10" fill="#1a1a8c" font-family="Arial, Helvetica, sans-serif">30.0 mm</text>
  <line x1="1570" y1="54" x2="1588" y2="54" stroke="#1a1a8c" stroke-width="0.7"/>
  <line x1="1570" y1="482" x2="1588" y2="482" stroke="#1a1a8c" stroke-width="0.7"/>
  <line x1="1574" y1="54" x2="1574" y2="482" stroke="#1a1a8c" stroke-width="0.8"/>
  <polygon points="1574,54 1571,61 1577,61" fill="#1a1a8c"/>
  <polygon points="1574,482 1571,475 1577,475" fill="#1a1a8c"/>
  <text x="1566" y="268.0" text-anchor="middle" font-size="10" fill="#1a1a8c" font-family="Arial, Helvetica, sans-serif" transform="rotate(-90,1566,268.0)">12.0 mm</text>
  <text x="627" y="76" font-size="8" font-weight="bold" fill="#333" font-family="Arial, Helvetica, sans-serif">GD&amp;T CALLOUTS</text>
  <rect x="627" y="80" width="98" height="22" fill="#fffff8" stroke="#000000" stroke-width="1"/>
  <line x1="655" y1="80" x2="655" y2="102" stroke="#000000" stroke-width="1"/>
  <text x="641.0" y="97" text-anchor="middle" font-size="13" font-weight="bold" fill="#1a1a8c" font-family="Arial, Helvetica, sans-serif">▭</text>
  <text x="661" y="97" font-size="10" fill="#000" font-family="Arial, Helvetica, sans-serif">0.05</text>
  <line x1="627" y1="91.0" x2="603.0" y2="192.7" stroke="#999" stroke-width="0.5" stroke-dasharray="4,3"/>
  <rect x="627" y="108" width="123" height="22" fill="#fffff8" stroke="#000000" stroke-width="1"/>
  <line x1="655" y1="108" x2="655" y2="130" stroke="#000000" stroke-width="1"/>
  <line x1="725" y1="108" x2="725" y2="130" stroke="#000000" stroke-width="1"/>
  <text x="641.0" y="125" text-anchor="middle" font-size="13" font-weight="bold" fill="#1a1a8c" font-family="Arial, Helvetica, sans-serif">⊥</text>
  <text x="661" y="125" font-size="10" fill="#000" font-family="Arial, Helvetica, sans-serif">0.05</text>
  <text x="737.5" y="125" text-anchor="middle" font-size="10" font-weight="bold" fill="#000" font-family="Arial, Helvetica, sans-serif">A</text>
  <line x1="627" y1="119.0" x2="411.5" y2="72.0" stroke="#999" stroke-width="0.5" stroke-dasharray="4,3"/>
  <rect x="627" y="136" width="100" height="22" fill="#fffff8" stroke="#000000" stroke-width="0.8"/>
  <text x="633" y="151" font-size="11" fill="#1a1a8c" font-family="Arial, Helvetica, sans-serif">∇∇ Ra 3.2</text>
  <rect x="30" y="983" width="1527" height="110" fill="white" stroke="black" stroke-width="1.5"/>
  <rect x="30" y="983" width="1527" height="22" fill="#1a1a8c"/>
  <text x="793.5" y="998" text-anchor="middle" font-size="13" fill="white" font-weight="bold" font-family="Arial, Helvetica, sans-serif">ARIA-OS ENGINEERING DRAWING</text>
  <text x="34" y="1014.0" font-size="7" fill="#666" font-family="Arial, Helvetica, sans-serif">PART ID</text>
  <text x="34" y="1045.0" font-size="10" fill="#000" font-weight="bold" font-family="Arial, Helvetica, sans-serif">pin</text>
  <line x1="30" y1="1049.0" x2="335.40000000000003" y2="1049.0" stroke="#aaa" stroke-width="0.5"/>
  <text x="34" y="1058.0" font-size="7" fill="#666" font-family="Arial, Helvetica, sans-serif">MATERIAL</text>
  <text x="34" y="1089.0" font-size="10" fill="#000" font-weight="bold" font-family="Arial, Helvetica, sans-serif">steel_mild</text>
  <line x1="335.40000000000003" y1="1005" x2="335.40000000000003" y2="1093" stroke="black" stroke-width="0.8"/>
  <text x="339.40000000000003" y="1014.0" font-size="7" fill="#666" font-family="Arial, Helvetica, sans-serif">SCALE</text>
  <text x="339.40000000000003" y="1045.0" font-size="10" fill="#000" font-weight="bold" font-family="Arial, Helvetica, sans-serif">1:1</text>
  <line x1="335.40000000000003" y1="1049.0" x2="640.8000000000001" y2="1049.0" stroke="#aaa" stroke-width="0.5"/>
  <text x="339.40000000000003" y="1058.0" font-size="7" fill="#666" font-family="Arial, Helvetica, sans-serif">DATE</text>
  <text x="339.40000000000003" y="1089.0" font-size="10" fill="#000" font-weight="bold" font-family="Arial, Helvetica, sans-serif">2026-04-01</text>
  <line x1="640.8000000000001" y1="1005" x2="640.8000000000001" y2="1093" stroke="black" stroke-width="0.8"/>
  <text x="644.8000000000001" y="1014.0" font-size="7" fill="#666" font-family="Arial, Helvetica, sans-serif">DRAWN BY</text>
  <text x="644.8000000000001" y="1045.0" font-size="10" fill="#000" font-weight="bold" font-family="Arial, Helvetica, sans-serif">ARIA-OS v2.0</text>
  <line x1="640.8000000000001" y1="1049.0" x2="946.2" y2="1049.0" stroke="#aaa" stroke-width="0.5"/>
  <text x="644.8000000000001" y="1058.0" font-size="7" fill="#666" font-family="Arial, Helvetica, sans-serif">DWG NO.</text>
  <text x="644.8000000000001" y="1089.0" font-size="10" fill="#000" font-weight="bold" font-family="Arial, Helvetica, sans-serif">ARIA-20260401-001</text>
  <line x1="946.2" y1="1005" x2="946.2" y2="1093" stroke="black" stroke-width="0.8"/>
  <text x="950.2" y="1014.0" font-size="7" fill="#666" font-family="Arial, Helvetica, sans-serif">TOLERANCE</text>
  <text x="950.2" y="1045.0" font-size="10" fill="#000" font-weight="bold" font-family="Arial, Helvetica, sans-serif">±0.1 GENERAL / ±0.05 MACH.</text>
  <line x1="946.2" y1="1049.0" x2="1251.6000000000001" y2="1049.0" stroke="#aaa" stroke-width="0.5"/>
  <text x="950.2" y="1058.0" font-size="7" fill="#666" font-family="Arial, Helvetica, sans-serif">UNITS</text>
  <text x="950.2" y="1089.0" font-size="10" fill="#000" font-weight="bold" font-family="Arial, Helvetica, sans-serif">MILLIMETRES</text>
  <line x1="1251.6000000000001" y1="1005" x2="1251.6000000000001" y2="1093" stroke="black" stroke-width="0.8"/>
  <text x="1255.6000000000001" y="1014.0" font-size="7" fill="#666" font-family="Arial, Helvetica, sans-serif">APPROVED</text>
  <text x="1255.6000000000001" y="1045.0" font-size="10" fill="#000" font-weight="bold" font-family="Arial, Helvetica, sans-serif"></text>
  <line x1="1251.6000000000001" y1="1049.0" x2="1404.3000000000002" y2="1049.0" stroke="#aaa" stroke-width="0.5"/>
  <text x="1255.6000000000001" y="1058.0" font-size="7" fill="#666" font-family="Arial, Helvetica, sans-serif"></text>
  <text x="1255.6000000000001" y="1089.0" font-size="10" fill="#000" font-weight="bold" font-family="Arial, Helvetica, sans-serif"></text>
  <line x1="1404.3000000000002" y1="1005" x2="1404.3000000000002" y2="1093" stroke="black" stroke-width="0.8"/>
  <text x="1408.3000000000002" y="1014.0" font-size="7" fill="#666" font-family="Arial, Helvetica, sans-serif">REV</text>
  <text x="1408.3000000000002" y="1045.0" font-size="10" fill="#000" font-weight="bold" font-family="Arial, Helvetica, sans-serif">—</text>
  <line x1="1404.3000000000002" y1="1049.0" x2="1557.0000000000002" y2="1049.0" stroke="#aaa" stroke-width="0.5"/>
  <text x="1408.3000000000002" y="1058.0" font-size="7" fill="#666" font-family="Arial, Helvetica, sans-serif"></text>
  <text x="1408.3000000000002" y="1089.0" font-size="10" fill="#000" font-weight="bold" font-family="Arial, Helvetica, sans-serif"></text>
</svg>