<svg xmlns="http://www.w3.org/2000/svg" width="1587" height="1123" viewBox="0 0 1587 1123" font-family="Arial, Helvetica, sans-serif" font-size="12">
  <rect width="1587" height="1123" fill="white"/>
  <rect x="20" y="20" width="1547" height="1083" fill="none" stroke="black" stroke-width="2"/>
  <rect x="30" y="30" width="1527" height="1063" fill="none" stroke="black" stroke-width="1"/>
  <rect x="20" y="20.0" width="16" height="270.75" fill="none" stroke="#888" stroke-width="0.4"/>
  <text x="28.0" y="159.375" text-anchor="middle" font-size="9" fill="#444" font-family="Arial, Helvetica, sans-serif">A</text>
  <rect x="1551" y="20.0" width="16" height="270.75" fill="none" stroke="#888" stroke-width="0.4"/>
  <text x="1559.0" y="159.375" text-anchor="middle" font-size="9" fill="#444" font-family="Arial, Helvetica, sans-serif">A</text>
  <rect x="20" y="290.75" width="16" height="270.75" fill="none" stroke="#888" stroke-width="0.4"/>
  <text x="28.0" y="430.125" text-anchor="middle" font-size="9" fill="#444" font-family="Arial, Helvetica, sans-serif">B</text>
  <rect x="1551" y="290.75" width="16" height="270.75" fill="none" stroke="#888" stroke-width="0.4"/>
  <text x="1559.0" y="430.125" text-anchor="middle" font-size="9" fill="#444" font-family="Arial, Helvetica, sans-serif">B</text>
  <rect x="20" y="561.5" width="16" height="270.75" fill="none" stroke="#888" stroke-width="0.4"/>
  <text x="28.0" y="700.875" text-anchor="middle" font-size="9" fill="#444" font-family="Arial, Helvetica, sans-serif">C</text>
  <rect x="1551" y="561.5" width="16" height="270.75" fill="none" stroke="#888" stroke-width="0.4"/>
  <text x="1559.0" y="700.875" text-anchor="middle" font-size="9" fill="#444" font-family="Arial, Helvetica, sans-serif">C</text>
  <rect x="20" y="832.25" width="16" height="270.75" fill="none" stroke="#888" stroke-width="0.4"/>
  <text x="28.0" y="971.625" text-anchor="middle" font-size="9" fill="#444" font-family="Arial, Helvetica, sans-serif">D</text>
  <rect x="1551" y="832.25" width="16" height="270.75" fill="none" stroke="#888" stroke-width="0.4"/>
  <text x="1559.0" y="971.625" text-anchor="middle" font-size="9" fill="#444" font-family="Arial, Helvetica, sans-serif">D</text>
  <rect x="20.0" y="20" width="193.375" height="16" fill="none" stroke="#888" stroke-width="0.4"/>
  <text x="116.6875" y="32" text-anchor="middle" font-size="9" fill="#444" font-family="Arial, Helvetica, sans-serif">1</text>
  <rect x="20.0" y="1087" width="193.375" height="16" fill="none" stroke="#888" stroke-width="0.4"/>
  <text x="116.6875" y="1099" text-anchor="middle" font-size="9" fill="#444" font-family="Arial, Helvetica, sans-serif">1</text>
  <rect x="213.375" y="20" width="193.375" height="16" fill="none" stroke="#888" stroke-width="0.4"/>
  <text x="310.0625" y="32" text-anchor="middle" font-size="9" fill="#444" font-family="Arial, Helvetica, sans-serif">2</text>
  <rect x="213.375" y="1087" width="193.375" height="16" fill="none" stroke="#888" stroke-width="0.4"/>
  <text x="310.0625" y="1099" text-anchor="middle" font-size="9" fill="#444" font-family="Arial, Helvetica, sans-serif">2</text>
  <rect x="406.75" y="20" width="193.375" height="16" fill="none" stroke="#888" stroke-width="0.4"/>
  <text x="503.4375" y="32" text-anchor="middle" font-size="9" fill="#444" font-family="Arial, Helvetica, sans-serif">3</text>
  <rect x="406.75" y="1087" width="193.375" height="16" fill="none" stroke="#888" stroke-width="0.4"/>
  <text x="503.4375" y="1099" text-anchor="middle" font-size="9" fill="#444" font-family="Arial, Helvetica, sans-serif">3</text>
  <rect x="600.125" y="20" width="193.375" height="16" fill="none" stroke="#888" stroke-width="0.4"/>
  <text x="696.8125" y="32" text-anchor="middle" font-size="9" fill="#444" font-family="Arial, Helvetica, sans-serif">4</text>
  <rect x="600.125" y="1087" width="193.375" height="16" fill="none" stroke="#888" stroke-width="0.4"/>
  <text x="696.8125" y="1099" text-anchor="middle" font-size="9" fill="#444" font-family="Arial, Helvetica, sans-serif">4</text>
  <rect x="793.5" y="20" width="193.375" height="16" fill="none" stroke="#888" stroke-width="0.4"/>
  <text x="890.1875" y="32" text-anchor="middle" font-size="9" fill="#444" font-family="Arial, Helvetica, sans-serif">5</text>
  <rect x="793.5" y="1087" width="193.375" height="16" fill="none" stroke="#888" stroke-width="0.4"/>
  <text x="890.1875" y="1099" text-anchor="middle" font-size="9" fill="#444" font-family="Arial, Helvetica, sans-serif">5</text>
  <rect x="986.875" y="20" width="193.375" height="16" fill="none" stroke="#888" stroke-width="0.4"/>
  <text x="1083.5625" y="32" text-anchor="middle" font-size="9" fill="#444" font-family="Arial, Helvetica, sans-serif">6</text>
  <rect x="986.875" y="1087" width="193.375" height="16" fill="none" stroke="#888" stroke-width="0.4"/>
  <text x="1083.5625" y="1099" text-anchor="middle" font-size="9" fill="#444" font-family="Arial, Helvetica, sans-serif">6</text>
  <rect x="1180.25" y="20" width="193.375" height="16" fill="none" stroke="#888" stroke-width="0.4"/>
  <text x="1276.9375" y="32" text-anchor="middle" font-size="9" fill="#444" font-family="Arial, Helvetica, sans-serif">7</text>
  <rect x="1180.25" y="1087" width="193.375" height="16" fill="none" stroke="#888" stroke-width="0.4"/>
  <text x="1276.9375" y="1099" text-anchor="middle" font-size="9" fill="#444" font-family="Arial, Helvetica, sans-serif">7</text>
  <rect x="1373.625" y="20" width="193.375" height="16" fill="none" stroke="#888" stroke-width="0.4"/>
  <text x="1470.3125" y="32" text-anchor="middle" font-size="9" fill="#444" font-family="Arial, Helvetica, sans-serif">8</text>
  <rect x="1373.625" y="1087" width="193.375" height="16" fill="none" stroke="#888" stroke-width="0.4"/>
  <text x="1470.3125" y="1099" text-anchor="middle" font-size="9" fill="#444" font-family="Arial, Helvetica, sans-serif">8</text>
  <rect x="1475" y="32" width="80" height="20" fill="white" stroke="black" stroke-width="0.8"/>
  <text x="1515.0" y="45" text-anchor="middle" font-size="9" fill="#000" font-family="Arial, Helvetica, sans-serif">REV: &#x2014;</text>
  <line x1="30" y1="506" x2="1557" y2="506" stroke="#888" stroke-width="0.6"/>
  <line x1="793" y1="30" x2="793" y2="983" stroke="#888" stroke-width="0.6"/>
  <rect x="42" y="42" width="739" height="452" fill="#fafafa" stroke="#ccc" stroke-width="0.5"/>
  <rect x="805" y="42" width="739" height="452" fill="#fafafa" stroke="#ccc" stroke-width="0.5"/>
  <rect x="42" y="518" width="739" height="452" fill="#fafafa" stroke="#ccc" stroke-width="0.5"/>
  <rect x="805" y="518" width="739" height="452" fill="#fafafa" stroke="#ccc" stroke-width="0.5"/>
  <text x="46" y="54" font-size="9" font-weight="bold" fill="#444" font-family="Arial, Helvetica, sans-serif">FRONT VIEW</text>
  <text x="809" y="54" font-size="9" font-weight="bold" fill="#444" font-family="Arial, Helvetica, sans-serif">TOP VIEW</text>
  <text x="46" y="530" font-size="9" font-weight="bold" fill="#444" font-family="Arial, Helvetica, sans-serif">RIGHT SIDE VIEW</text>
  <text x="809" y="530" font-size="9" font-weight="bold" fill="#444" font-family="Arial, Helvetica, sans-serif">SECTION A-A</text>
  <clipPath id="clip_front"><rect x="42" y="42" width="739" height="452"/></clipPath>
  <g clip-path="url(#clip_front)" transform="translate(42,68)">
    <g transform="scale(6.0, -6.0)   translate(38.833333333333336,-18.333333333333336)" stroke-width="0.16666666666666666"  fill="none">
       <!-- hidden lines -->
       <g  stroke="rgb(160,160,160)" fill="none" stroke-dasharray="0.16666666666666666,0.16666666666666666" >
			<path d="M2.5,-15.0 L-2.5,-15.0 " />
			<path d="M-2.5,-14.5 L-2.5,11.0 " />
			<path d="M-2.5,-15.0 L-2.5,-14.5 " />
			<path d="M-2.5,11.5 L-2.5,11.0 " />
			<path d="M-2.5,11.500000000000002 L-2.5,11.000000000000002 " />
			<path d="M-2.5,11.0 L-2.5,11.5 " />
			<path d="M-2.5,5.5 L-2.5,-6.767949192431 " />
			<path d="M-2.5,-6.767949192430323 L-2.5,-7.570114965579251 " />
			<path d="M-2.5,-7.570114965579922 L-2.5,-7.825841238079462 L-2.5,-8.1150606838665 L-2.5,-8.429523245683004 L-2.5,-8.760258800052558 L-2.5,-9.097833032303164 L-2.5,-9.43261655276041 L-2.5,-9.755059577503989 L-2.5,-10.055964338350137 L-2.5,-10.326747451496846 L-2.5,-10.55968476070045 L-2.5,-10.748131670770494 L-2.5,-10.886712686314736 L-2.5,-10.97147474909394 L-2.5,-11.0 " />
			<path d="M-2.5,-11.0 L-2.5,-10.97147474909368 L-2.5,-10.886712686314265 L-2.5,-10.748131670769862 L-2.5,-10.559684760699708 L-2.5,-10.32674745149605 L-2.5,-10.055964338349332 L-2.5,-9.755059577503221 L-2.5,-9.432616552759718 L-2.5,-9.097833032302576 L-2.5,-8.76025880005209 L-2.5,-8.429523245682669 L-2.5,-8.115060683866291 L-2.5,-7.825841238079371 L-2.5,-7.570114965579936 " />
			<path d="M-2.5,-6.7679491924310575 L-2.5,-7.570114965579984 " />
			<path d="M-2.5,5.5 L-2.5,-6.767949192431 " />
			<path d="M-2.5,6.0 L-2.5,5.500000000000001 " />
			<path d="M-2.5,5.500000000000001 L-2.5,6.000000000000001 " />
			<path d="M2.5,-15.0 L2.5,-14.5 " />
			<path d="M2.5,-14.5 L-2.5,-14.5 " />
			<path d="M2.5,14.5 L2.5,15.0 " />
			<path d="M2.5,-14.5 L2.5,14.5 " />
			<path d="M2.5,-7.0 L2.5,-7.050144175636353 L2.5,-7.198062264195162 L2.5,-7.436337035063941 L2.5,-7.753020396282533 L2.5,-8.132232521764884 L2.5,-8.554958132087371 L2.5,-9.0 L2.5,-9.445041867912629 L2.5,-9.867767478235116 L2.5,-10.246979603717467 L2.5,-10.56366296493606 L2.5,-10.801937735804838 L2.5,-10.949855824363647 L2.5,-10.999999999999998 " />
			<path d="M2.5,-11.0 L2.5,-10.949855824363647 L2.5,-10.801937735804838 L2.5,-10.563662964936059 L2.5,-10.246979603717467 L2.5,-9.867767478235116 L2.5,-9.445041867912629 L2.5,-9.0 L2.5,-8.554958132087371 L2.5,-8.132232521764884 L2.5,-7.753020396282533 L2.5,-7.43633703506394 L2.5,-7.198062264195162 L2.5,-7.050144175636353 L2.5,-7.000000000000002 " />
			<path d="M-2.5,11.5 L-5.5,11.5 " />
			<path d="M-5.5,11.5 L-5.5,14.5 " />
			<path d="M-5.5,14.5 L2.5,14.5 " />
			<path d="M-5.5,11.5 L-5.5,11.0 " />
			<path d="M-2.5,11.0 L-5.5,11.0 " />
			<path d="M1.0,-6.767949192431 L1.0,5.5 " />
			<path d="M-2.5,-6.767949192431 L1.0,-6.767949192431 " />
			<path d="M1.0,5.5 L-2.5,5.5 " />
			<path d="M1.0,5.5 L1.0,6.000000000000001 " />
			<path d="M1.0,6.0 L-2.5,6.0 " />
			<path d="M1.0,-6.767949192430924 L1.0,-7.570114965579852 " />
			<path d="M-2.5,-7.57011496558 L1.0,-7.57011496558 " />
			<path d="M1.0,6.0 L-2.5,6.0 " />
			<path d="M-2.5,-7.57011496558 L1.0,-7.57011496558 " />
			<path d="M1.0,-7.267949192431091 L1.0,-7.286129810865485 L1.0,-7.304859799745232 L1.0,-7.324133155288718 L1.0,-7.343943699541517 L1.0,-7.3642850823567 L1.0,-7.385150783430334 L1.0,-7.4065341143915235 L1.0,-7.428428220946326 L1.0,-7.450826085074858 L1.0,-7.4737205272808716 L1.0,-7.4971042088930995 L1.0,-7.5209696344176225 L1.0,-7.545309153940503 L1.0,-7.57011496557991 " />
			<path d="M1.0,-7.267949192431092 L1.0,-7.231769212990754 L1.0,-7.198062264195139 L1.0,-7.166875488260028 L1.0,-7.138252502711575 L1.0,-7.112233339383252 L1.0,-7.088854388427707 L1.0,-7.068148347421856 L1.0,-7.050144175636347 L1.0,-7.034867053533419 L1.0,-7.02233834754974 L1.0,-7.012575580213513 L1.0,-7.005592405637639 L1.0,-7.001398590423203 L1.0,-7.0 " />
			<path d="M2.5,-7.0 L1.0,-7.0 " />
			<path d="M1.0,-7.0 L1.0,-7.001398590423203 L1.0,-7.005592405637639 L1.0,-7.012575580213514 L1.0,-7.0223383475497405 L1.0,-7.03486705353342 L1.0,-7.050144175636347 L1.0,-7.068148347421856 L1.0,-7.088854388427708 L1.0,-7.112233339383252 L1.0,-7.138252502711575 L1.0,-7.166875488260028 L1.0,-7.198062264195139 L1.0,-7.231769212990754 L1.0,-7.267949192431091 " />
			<path d="M1.0,-7.267949192431092 L1.0,-7.286129810865486 L1.0,-7.304859799745233 L1.0,-7.324133155288719 L1.0,-7.343943699541519 L1.0,-7.364285082356703 L1.0,-7.385150783430338 L1.0,-7.406534114391528 L1.0,-7.428428220946332 L1.0,-7.450826085074864 L1.0,-7.473720527280877 L1.0,-7.497104208893106 L1.0,-7.5209696344176304 L1.0,-7.5453091539405115 L1.0,-7.570114965579916 " />
			<path d="M1.0,6.0 L1.0,5.500000000000001 " />
			<path d="M1.0,5.5 L-2.5,5.5 " />
			<path d="M-2.5,-6.767949192431 L1.0,-6.767949192431 " />
			<path d="M1.0,-6.767949192430882 L1.0,-7.570114965579809 " />
			<path d="M1.0,-6.767949192431 L1.0,5.5 " />
			<path d="M-5.5,14.5 L-5.5,15.0 " />
			<path d="M-5.5,15.0 L2.5,15.0 " />
			<path d="M-2.5,-11.0 L2.5,-11.0 " />

       </g>

       <!-- solid lines -->
       <g  stroke="rgb(0,0,0)" fill="none">
			<path d="M2.5,-15.0 L-2.5,-15.0 " />
			<path d="M-2.5,-15.0 L-2.5,-14.5 " />
			<path d="M-2.5,-14.5 L-2.5,11.0 " />
			<path d="M-2.5,11.0 L-2.5,11.5 " />
			<path d="M2.5,-15.0 L2.5,-14.5 " />
			<path d="M2.5,-14.5 L-2.5,-14.5 " />
			<path d="M2.5,-14.5 L2.5,14.5 " />
			<path d="M2.5,14.5 L2.5,15.000000000000002 " />
			<path d="M-2.5,11.0 L-5.5,11.0 " />
			<path d="M-2.5,11.5 L-5.5,11.5 " />
			<path d="M-5.5,14.5 L-5.5,11.5 " />
			<path d="M2.5,14.5 L-5.5,14.5 " />
			<path d="M-5.5,11.5 L-5.5,11.0 " />
			<path d="M-5.5,14.5 L-5.5,15.0 " />
			<path d="M2.5,15.0 L-5.5,15.0 " />

       </g>
    </g>
  </g>
  <clipPath id="clip_top"><rect x="805" y="42" width="739" height="452"/></clipPath>
  <g clip-path="url(#clip_top)" transform="translate(805,68)">
    <g transform="scale(14.999999999999995, -14.999999999999995)   translate(28.333333333333336,-7.333333333333336)" stroke-width="0.0666666666666667"  fill="none">
       <!-- hidden lines -->
       <g  stroke="rgb(160,160,160)" fill="none" stroke-dasharray="0.0666666666666667,0.0666666666666667" >
			<path d="M-15.0,-5.5 L-15.0,5.5 " />
			<path d="M11.5,-6.000000000000001 L11.0,-5.500000000000001 " />
			<path d="M11.0,-5.5 L11.0,5.5 " />
			<path d="M11.500000000000002,6.000000000000002 L11.000000000000002,5.500000000000002 " />
			<path d="M-15.0,-5.5 L-14.5,-6.0 " />
			<path d="M-15.0,5.5 L-14.5,6.000000000000001 " />
			<path d="M-14.5,-6.0 L14.5,-6.0 " />
			<path d="M14.5,-5.999999999999999 L15.000000000000002,-5.499999999999998 " />
			<path d="M15.0,-5.5 L15.0,5.5 " />
			<path d="M14.5,5.999999999999999 L15.0,5.5 " />
			<path d="M-14.5,6.0 L14.5,6.0 " />
			<path d="M-7.0,4.898587196589001e-16 L-7.003946543143456,0.12558103905862725 L-7.015770597371044,0.250666467128609 L-7.035425498542622,0.37476262917144976 L-7.062833677742738,0.49737977432971003 L-7.097886967409693,0.6180339887498952 L-7.140447028223497,0.7362491053693563 L-7.190345895067961,0.8515585831301457 L-7.247386639912273,0.9635073482034309 L-7.311344148995969,1.0716535899579935 L-7.381966011250105,1.1755705045849465 L-7.458973514448422,1.2748479794973797 L-7.542062745157177,1.3690942118573775 L-7.6309057881426225,1.4579372548428233 L-7.7251520205026205,1.5410264855515785 L-7.824429495415053,1.618033988749895 L-7.928346410042007,1.6886558510040302 L-8.03649265179657,1.7526133600877274 L-8.148441416869856,1.8096541049320394 L-8.263750894630645,1.8595529717765031 L-8.381966011250107,1.9021130325903075 L-8.502620225670292,1.9371663222572626 L-8.625237370828552,1.9645745014573777 L-8.749333532871393,1.9842294026289558 L-8.874418960941375,1.9960534568565431 L-9.000000000000002,2.0 L-9.125581039058629,1.9960534568565431 L-9.25066646712861,1.9842294026289555 L-9.374762629171451,1.9645745014573768 L-9.497379774329712,1.9371663222572615 L-9.618033988749897,1.9021130325903062 L-9.736249105369359,1.8595529717765018 L-9.851558583130148,1.809654104932038 L-9.963507348203432,1.7526133600877258 L-10.071653589957995,1.6886558510040286 L-10.175570504584948,1.618033988749893 L-10.274847979497382,1.5410264855515763 L-10.36909421185738,1.4579372548428207 L-10.457937254842825,1.3690942118573748 L-10.541026485551582,1.2748479794973766 L-10.618033988749897,1.1755705045849432 L-10.688655851004032,1.0716535899579898 L-10.752613360087729,0.9635073482034267 L-10.80965410493204,0.8515585831301411 L-10.859552971776505,0.7362491053693515 L-10.902113032590309,0.6180339887498901 L-10.937166322257264,0.49737977432970465 L-10.964574501457378,0.37476262917144404 L-10.984229402628957,0.2506664671286031 L-10.996053456856544,0.12558103905862114 L-11.0,-5.796044482955181e-15 L-10.996053456856544,-0.12558103905863272 L-10.984229402628955,-0.2506664671286146 L-10.964574501457376,-0.3747626291714555 L-10.93716632225726,-0.49737977432971586 L-10.902113032590306,-0.6180339887499011 L-10.8595529717765,-0.7362491053693623 L-10.809654104932036,-0.8515585831301516 L-10.752613360087723,-0.9635073482034369 L-10.688655851004027,-1.0716535899579993 L-10.61803398874989,-1.1755705045849523 L-10.541026485551573,-1.2748479794973853 L-10.457937254842818,-1.369094211857383 L-10.369094211857371,-1.4579372548428284 L-10.274847979497373,-1.5410264855515836 L-10.17557050458494,-1.6180339887498993 L-10.071653589957988,-1.6886558510040337 L-9.963507348203425,-1.75261336008773 L-9.85155858313014,-1.8096541049320412 L-9.736249105369351,-1.8595529717765045 L-9.618033988749891,-1.9021130325903084 L-9.497379774329707,-1.937166322257263 L-9.374762629171446,-1.9645745014573779 L-9.250666467128607,-1.9842294026289558 L-9.125581039058625,-1.9960534568565431 L-9.0,-2.0 L-8.874418960941373,-1.9960534568565431 L-8.749333532871393,-1.984229402628956 L-8.625237370828552,-1.9645745014573777 L-8.502620225670293,-1.9371663222572628 L-8.381966011250109,-1.9021130325903082 L-8.263750894630649,-1.8595529717765042 L-8.14844141686986,-1.8096541049320412 L-8.036492651796575,-1.7526133600877298 L-7.928346410042012,-1.6886558510040337 L-7.8244294954150595,-1.618033988749899 L-7.725152020502627,-1.5410264855515834 L-7.630905788142629,-1.4579372548428287 L-7.542062745157184,-1.369094211857384 L-7.458973514448427,-1.274847979497387 L-7.381966011250111,-1.1755705045849547 L-7.311344148995976,-1.0716535899580029 L-7.247386639912278,-0.9635073482034411 L-7.190345895067966,-0.8515585831301569 L-7.140447028223502,-0.7362491053693685 L-7.097886967409697,-0.6180339887499083 L-7.062833677742741,-0.497379774329724 L-7.035425498542626,-0.3747626291714646 L-7.015770597371047,-0.25066646712862467 L-7.003946543143458,-0.12558103905864376 L-7.0,-1.7763568394002546e-14 " />
			<path d="M-6.767949192431,-1.0 L5.5,-1.0 " />
			<path d="M5.5,-0.9999999999999996 L6.000000000000001,-0.4999999999999991 " />
			<path d="M-6.767949192430924,-1.0000000000001514 L-7.570114965579852,-1.3983664714022983 " />
			<path d="M6.0,-0.5 L6.0,0.5 " />
			<path d="M6.0,0.49999999999999956 L5.500000000000001,0.9999999999999991 " />
			<path d="M-6.767949192430882,1.0000000000002378 L-7.570114965579809,1.398366471402385 " />
			<path d="M-6.767949192431,1.0 L5.5,1.0 " />

       </g>

       <!-- solid lines -->
       <g  stroke="rgb(0,0,0)" fill="none">
			<path d="M-15.0,-5.5 L-15.0,5.5 " />
			<path d="M-14.5,6.0 L11.0,6.0 " />
			<path d="M-15.0,5.5 L-14.5,6.000000000000001 " />
			<path d="M-15.0,-5.5 L-14.5,-6.0 " />
			<path d="M-14.5,-6.0 L11.0,-6.0 " />
			<path d="M11.0,-6.0 L11.5,-6.0 " />
			<path d="M11.0,6.0 L11.5,6.0 " />
			<path d="M5.5,-1.0 L-6.767949192431,-1.0 " />
			<path d="M-6.767949192430323,-1.0000000000013638 L-7.570114965579251,-1.398366471403511 " />
			<path d="M-7.570114965579922,-1.3983664714020763 L-7.661182140951564,-1.4857882555374309 L-7.757583099321604,-1.5672907340084312 L-7.858933784121547,-1.642549205041002 L-7.964830419321812,-1.711263842672586 L-8.074851118055113,-1.7731608912436927 L-8.188557563392521,-1.8279937560266766 L-8.305496754576051,-1.8755439856467253 L-8.425202811750903,-1.9156221423811466 L-8.547198832007357,-1.9480685568697267 L-8.670998789337979,-1.9727539642294283 L-8.796109470940777,-1.9895800190391817 L-8.922032442154206,-1.998479687143095 L-9.048266032195771,-1.9994175127111589 L-9.174307332793191,-1.9923897594934892 L-9.29965420174566,-1.9774244257053595 L-9.423807263433112,-1.9545811324837188 L-9.546271898303562,-1.9239508863595824 L-9.666560213412529,-1.8856557166925898 L-9.784192986163974,-1.839848189512175 L-9.898701573509022,-1.7867107997021807 L-10.009629778996286,-1.7264552439504217 L-10.11653567023558,-1.6593215773597305 L-10.218993339534332,-1.5855772570805038 L-10.316594600692408,-1.5055160767748708 L-10.408950615195387,-1.419456996157523 L-10.495693441327656,-1.3277428702762564 L-10.576477500033684,-1.2307390835947098 L-10.650980951687597,-1.128832094319043 L-10.718906978286059,-1.0224278947678844 L-10.779984965956265,-0.9119503939193587 L-10.833971583067992,-0.797839728579043 L-10.880651749654579,-0.6805505098970757 L-10.919839494280687,-0.5605500122202047 L-10.95137869494315,-0.43831631149429723 L-10.975143701053174,-0.3143363806338213 L-10.991039834021963,-0.18910414944625376 L-10.99900376445546,-0.06311853684057474 L-10.99900376445546,0.06311853684056626 L-10.991039834021965,0.18910414944624532 L-10.975143701053176,0.314336380633813 L-10.951378694943152,0.43831631149428896 L-10.91983949428069,0.5605500122201966 L-10.880651749654582,0.6805505098970677 L-10.833971583067996,0.7978397285790352 L-10.779984965956269,0.9119503939193512 L-10.718906978286064,1.0224278947678773 L-10.650980951687602,1.128832094319036 L-10.57647750003369,1.2307390835947032 L-10.495693441327662,1.32774287027625 L-10.408950615195394,1.419456996157517 L-10.316594600692415,1.5055160767748652 L-10.21899333953434,1.5855772570804991 L-10.116535670235585,1.6593215773597267 L-10.009629778996292,1.7264552439504188 L-9.898701573509028,1.7867107997021785 L-9.784192986163978,1.8398481895121734 L-9.66656021341253,1.8856557166925887 L-9.546271898303564,1.9239508863595818 L-9.423807263433114,1.9545811324837186 L-9.299654201745662,1.9774244257053595 L-9.174307332793191,1.9923897594934892 L-9.04826603219577,1.9994175127111589 L-8.922032442154205,1.998479687143095 L-8.796109470940774,1.9895800190391812 L-8.670998789337974,1.9727539642294276 L-8.547198832007354,1.9480685568697256 L-8.425202811750898,1.9156221423811448 L-8.305496754576046,1.8755439856467229 L-8.188557563392514,1.8279937560266737 L-8.074851118055106,1.7731608912436887 L-7.964830419321804,1.711263842672581 L-7.858933784121539,1.6425492050409964 L-7.757583099321595,1.5672907340084246 L-7.6611821409515555,1.4857882555374233 L-7.570114965579914,1.3983664714020678 " />
			<path d="M-6.7679491924310575,0.9999999999998845 L-7.570114965579984,1.3983664714020316 " />
			<path d="M5.5,1.0 L-6.767949192431,1.0 " />
			<path d="M6.0,0.49999999999999956 L5.500000000000001,0.9999999999999991 " />
			<path d="M6.0,-0.5 L6.0,0.5 " />
			<path d="M5.500000000000001,-0.9999999999999991 L6.000000000000001,-0.4999999999999991 " />
			<path d="M11.5,6.0 L14.5,6.0 " />
			<path d="M11.5,6.000000000000001 L11.0,5.5 " />
			<path d="M11.0,-5.5 L11.0,5.5 " />
			<path d="M14.5,-6.0 L11.5,-6.0 " />
			<path d="M11.5,-6.0 L11.0,-5.5 " />
			<path d="M-7.267949192431091,0.9999999999999463 L-7.33397167169846,1.1065033254793133 L-7.406534114391526,1.2086630925952861 L-7.4853516779819635,1.3060782750692799 L-7.57011496557992,1.3983664714020734 " />
			<path d="M-7.267949192431092,0.999999999999947 L-7.212734719353151,0.8975983604008757 L-7.163567786239433,0.7921595320782697 L-7.120614758428169,0.6840402866512988 L-7.084020975369013,0.5736064654221474 L-7.053910258840346,0.46123174148485324 L-7.03038449397558,0.3472963553338398 L-7.013523284516112,0.23218582825044598 L-7.003383683457463,0.11628965782094373 L-7.0,-1.2864981197413093e-15 " />
			<path d="M-7.0,0.0 L-7.003383683457463,-0.11628965782094483 L-7.013523284516112,-0.23218582825044687 L-7.03038449397558,-0.3472963553338405 L-7.053910258840346,-0.46123174148485374 L-7.084020975369013,-0.5736064654221477 L-7.120614758428169,-0.6840402866512988 L-7.163567786239433,-0.7921595320782696 L-7.212734719353151,-0.8975983604008754 L-7.267949192431092,-0.9999999999999466 " />
			<path d="M-7.267949192431092,-0.9999999999999465 L-7.333971671698461,-1.1065033254793142 L-7.406534114391527,-1.2086630925952877 L-7.485351677981965,-1.306078275069282 L-7.570114965579922,-1.3983664714020763 " />
			<path d="M14.5,-6.0 L15.0,-5.5 " />
			<path d="M14.5,6.0 L15.0,5.5 " />
			<path d="M15.0,-5.5 L15.0,5.5 " />

       </g>
    </g>
  </g>
  <clipPath id="clip_right"><rect x="42" y="518" width="739" height="452"/></clipPath>
  <g clip-path="url(#clip_right)" transform="translate(42,544)">
    <g transform="scale(14.999999999999995, -14.999999999999995)   translate(15.833333433333337,-7.333333333333335)" stroke-width="0.0666666666666667"  fill="none">
       <!-- hidden lines -->
       <g  stroke="rgb(160,160,160)" fill="none" stroke-dasharray="0.0666666666666667,0.0666666666666667" >
			<path d="M2.5,5.5 L2.5,-5.5 " />
			<path d="M-2.5,5.5 L2.5,5.5 " />
			<path d="M-2.5,5.5 L-2.5,-5.5 " />
			<path d="M-2.5,-5.5 L2.5,-5.5 " />
			<path d="M2.5,-5.5 L2.5,-6.000000000000001 " />
			<path d="M2.5,5.5 L2.5,6.0 " />
			<path d="M2.5,6.000000000000001 L2.5,5.500000000000001 " />
			<path d="M2.5,5.5 L2.5,-5.5 " />
			<path d="M2.5,-6.000000000000002 L2.5,-5.500000000000002 " />
			<path d="M2.5,1.0000000000013638 L2.5,1.398366471403511 " />
			<path d="M2.5,1.3983664714020763 L2.5,1.4774143672901365 L2.5,1.5516809595156187 L2.5,1.6209259017428725 L2.5,1.684925099023848 L2.5,1.7434714330286194 L2.5,1.7963754323350825 L2.5,1.8434658856085913 L2.5,1.8845903956871215 L2.5,1.9196158727787946 L2.5,1.948428965175648 L2.5,1.9709364260897404 L2.5,1.987065415424423 L2.5,1.9967637355041574 L2.5,1.9999999999999998 " />
			<path d="M2.5,2.0 L2.5,1.949855824363463 L2.5,1.8019377358044792 L2.5,1.5636629649355436 L2.5,1.24697960371682 L2.5,0.8677674782343706 L2.5,0.445041867911822 L2.5,-8.275373578006872e-13 L2.5,-0.4450418679134356 L2.5,-0.8677674782358618 L2.5,-1.246979603718114 L2.5,-1.5636629649365754 L2.5,-1.8019377358051973 L2.5,-1.9498558243638313 L2.5,-1.999999999999998 " />
			<path d="M2.5,-2.0 L2.5,-1.9967637355040702 L2.5,-1.9870654154242622 L2.5,-1.97093642608952 L2.5,-1.9484289651753819 L2.5,-1.9196158727784973 L2.5,-1.8845903956868064 L2.5,-1.8434658856082726 L2.5,-1.7963754323347736 L2.5,-1.7434714330283332 L2.5,-1.6849250990235976 L2.5,-1.6209259017426698 L2.5,-1.5516809595154755 L2.5,-1.477414367290064 L2.5,-1.3983664714020891 " />
			<path d="M2.5,-0.9999999999998845 L2.5,-1.3983664714020316 " />
			<path d="M2.5,-0.49999999999999956 L2.5,-0.9999999999999991 " />
			<path d="M2.5,0.5 L2.5,-0.5 " />
			<path d="M2.5,0.9999999999999991 L2.5,0.4999999999999991 " />
			<path d="M-2.5,5.5 L-2.5,6.0 " />
			<path d="M-2.5,6.0 L2.5,6.0 " />
			<path d="M-2.5,-5.5 L-2.5,-6.000000000000001 " />
			<path d="M-2.5,-6.0 L2.5,-6.0 " />
			<path d="M-2.5,-4.898587196589001e-16 L-2.5,-0.2239289522066162 L-2.5,-0.4450418679126293 L-2.5,-0.6605581239103346 L-2.5,-0.8677674782351167 L-2.5,-1.0640641530306736 L-2.5,-1.2469796037174674 L-2.5,-1.4142135623730956 L-2.5,-1.56366296493606 L-2.5,-1.6934483984565685 L-2.5,-1.8019377358048385 L-2.5,-1.8877666606167354 L-2.5,-1.9498558243636475 L-2.5,-1.9874244197864852 L-2.5,-1.9999999999999998 " />
			<path d="M-2.5,-2.0 L-2.5,-1.949855824363647 L-2.5,-1.801937735804838 L-2.5,-1.5636629649360594 L-2.5,-1.2469796037174667 L-2.5,-0.8677674782351158 L-2.5,-0.4450418679126283 L-2.5,4.669739647544294e-16 L-2.5,0.4450418679126293 L-2.5,0.8677674782351167 L-2.5,1.2469796037174672 L-2.5,1.5636629649360598 L-2.5,1.8019377358048383 L-2.5,1.9498558243636475 L-2.5,1.999999999999998 " />
			<path d="M-2.5,2.0 L-2.5,1.9874244197864852 L-2.5,1.949855824363647 L-2.5,1.887766660616735 L-2.5,1.8019377358048383 L-2.5,1.6934483984565682 L-2.5,1.5636629649360594 L-2.5,1.414213562373095 L-2.5,1.246979603717467 L-2.5,1.0640641530306731 L-2.5,0.8677674782351162 L-2.5,0.6605581239103342 L-2.5,0.4450418679126288 L-2.5,0.22392895220661568 L-2.5,1.7708057242771247e-14 " />
			<path d="M2.5,-6.0 L5.5,-6.0 " />
			<path d="M5.5,-6.000000000000001 L5.5,-5.5 " />
			<path d="M2.5,-5.5 L5.5,-5.5 " />
			<path d="M5.5,5.5 L5.5,-5.5 " />
			<path d="M2.5,5.5 L5.5,5.5 " />
			<path d="M2.5,6.0 L5.5,6.0 " />
			<path d="M5.5,6.0 L5.5,5.5 " />
			<path d="M2.5,1.0 L-1.0,1.0 " />
			<path d="M-1.0,1.0 L2.5,1.0 " />
			<path d="M-1.0,0.9999999999999996 L-1.0,0.4999999999999991 " />
			<path d="M-1.0,0.5 L2.5,0.5 " />
			<path d="M-1.0,1.0000000000001514 L-1.0,1.3983664714022983 " />
			<path d="M2.5,1.398366471402 L-1.0,1.398366471402 " />
			<path d="M-1.0,0.5 L-1.0,-0.5 " />
			<path d="M-1.0,-0.5 L2.5,-0.5 " />
			<path d="M2.5,-1.398366471402 L-1.0,-1.398366471402 " />
			<path d="M-1.0,-0.9999999999999463 L-1.0,-1.0308486672620876 L-1.0,-1.061366902385893 L-1.0,-1.091544922940623 L-1.0,-1.1213730555492059 L-1.0,-1.1508417389889773 L-1.0,-1.1799415272564728 L-1.0,-1.2086630925952833 L-1.0,-1.2369972284860111 L-1.0,-1.2649348525973623 L-1.0,-1.292467009697431 L-1.0,-1.3195848745242433 L-1.0,-1.3462797546146414 L-1.0,-1.3725430930905975 L-1.0,-1.3983664714020632 " />
			<path d="M-1.0,-0.999999999999947 L-1.0,-0.9345372565460736 L-1.0,-0.8677674782350686 L-1.0,-0.7997840486394373 L-1.0,-0.7306820487327486 L-1.0,-0.660558123910296 L-1.0,-0.5895103488217738 L-1.0,-0.5176380902050105 L-1.0,-0.4450418679126016 L-1.0,-0.3718232143258058 L-1.0,-0.29808453235232946 L-1.0,-0.2239289522066003 L-1.0,-0.14946018717283718 L-1.0,-0.07478238855264403 L-1.0,-1.824929096727601e-14 " />
			<path d="M-1.0,0.0 L-1.0,0.07478238855264685 L-1.0,0.14946018717283974 L-1.0,0.2239289522066026 L-1.0,0.2980845323523315 L-1.0,0.37182321432580756 L-1.0,0.44504186791260314 L-1.0,0.5176380902050118 L-1.0,0.5895103488217749 L-1.0,0.6605581239102969 L-1.0,0.7306820487327492 L-1.0,0.7997840486394378 L-1.0,0.867767478235069 L-1.0,0.9345372565460737 L-1.0,0.9999999999999447 " />
			<path d="M-1.0,0.9999999999999465 L-1.0,1.0308486672620887 L-1.0,1.0613669023858947 L-1.0,1.0915449229406256 L-1.0,1.121373055549209 L-1.0,1.1508417389889811 L-1.0,1.1799415272564773 L-1.0,1.2086630925952884 L-1.0,1.236997228486017 L-1.0,1.2649348525973687 L-1.0,1.2924670096974378 L-1.0,1.3195848745242509 L-1.0,1.3462797546146494 L-1.0,1.3725430930906062 L-1.0,1.3983664714020698 " />
			<path d="M-1.0,-0.49999999999999956 L-1.0,-0.9999999999999991 " />
			<path d="M-1.0,-1.0 L2.5,-1.0 " />
			<path d="M2.5,-1.0 L-1.0,-1.0 " />
			<path d="M-1.0,-1.0000000000002378 L-1.0,-1.398366471402385 " />
			<path d="M2.5,2.0 L-2.5,2.0 " />
			<path d="M2.5,-2.0 L-2.5,-2.0 " />

       </g>

       <!-- solid lines -->
       <g  stroke="rgb(0,0,0)" fill="none">
			<path d="M-2.5,5.999999999999999 L-2.5,5.499999999999998 " />
			<path d="M-2.5,5.5 L-2.5,-5.5 " />
			<path d="M-2.5,-5.999999999999999 L-2.5,-5.5 " />
			<path d="M5.5,-6.0 L-2.5,-6.0 " />
			<path d="M-2.5,6.0 L5.5,6.0 " />
			<path d="M5.5,6.0 L5.5,5.5 " />
			<path d="M-2.5,5.5 L5.5,5.5 " />
			<path d="M5.5,-6.0 L5.5,-5.5 " />
			<path d="M5.5,-5.5 L-2.5,-5.5 " />
			<path d="M5.5,5.5 L5.5,-5.5 " />

       </g>
    </g>
  </g>
  <clipPath id="clip_section"><rect x="805" y="518" width="739" height="452"/></clipPath>
  <g clip-path="url(#clip_section)" transform="translate(805,544)">
    <g transform="scale(6.0, -6.0)   translate(38.833333333333336,-18.333333333333332)" stroke-width="0.16666666666666666"  fill="none">
       <!-- hidden lines -->
       <g  stroke="rgb(160,160,160)" fill="none" stroke-dasharray="0.16666666666666666,0.16666666666666666" >
			<path d="M2.5,-15.0 L-2.5,-15.0 " />
			<path d="M-2.5,11.5 L-2.5,-14.5 " />
			<path d="M-2.5,-15.0 L-2.5,-14.5 " />
			<path d="M-2.5,11.500000000000002 L-2.5,11.000000000000002 " />
			<path d="M2.5,-15.0 L2.5,-14.5 " />
			<path d="M2.5,-14.5 L-2.5,-14.5 " />
			<path d="M2.5,-14.5 L2.5,14.5 " />
			<path d="M2.5,14.5 L2.5,15.0 " />
			<path d="M-2.5,11.5 L-5.5,11.5 " />
			<path d="M-5.5,11.5 L-5.5,14.5 " />
			<path d="M-5.5,14.5 L2.5,14.5 " />
			<path d="M-5.5,11.5 L-5.5,11.0 " />
			<path d="M-2.5,11.0 L-5.5,11.0 " />
			<path d="M1.0,6.0 L-2.5,6.0 " />
			<path d="M1.0,6.0 L1.0,5.500000000000001 " />
			<path d="M1.0,-6.767949192431 L1.0,5.5 " />
			<path d="M1.0,-6.767949192430882 L1.0,-7.570114965579809 " />
			<path d="M-5.5,14.5 L-5.5,15.0 " />
			<path d="M-5.5,15.0 L2.5,15.0 " />

       </g>

       <!-- solid lines -->
       <g  stroke="rgb(0,0,0)" fill="none">
			<path d="M-2.5,-15.0 L2.5,-15.0 " />
			<path d="M-2.5,-15.0 L-2.5,-11.0 " />
			<path d="M-2.5,-11.0 L-2.5,-10.97147474909381 L-2.5,-10.886712686314501 L-2.5,-10.748131670770178 L-2.5,-10.55968476070008 L-2.5,-10.32674745149645 L-2.5,-10.055964338349737 L-2.5,-9.755059577503607 L-2.5,-9.432616552760065 L-2.5,-9.097833032302871 L-2.5,-8.760258800052323 L-2.5,-8.429523245682836 L-2.5,-8.115060683866393 L-2.5,-7.8258412380794145 L-2.5,-7.570114965579936 " />
			<path d="M-2.5,-6.7679491924310575 L-2.5,-7.570114965579984 " />
			<path d="M-2.5,5.5 L-2.5,-6.767949192431 " />
			<path d="M-2.5,6.0 L-2.5,5.500000000000001 " />
			<path d="M-2.5,6.0 L-2.5,11.0 " />
			<path d="M2.5,-7.0 L2.5,15.0 " />
			<path d="M2.5,-7.0 L2.5,-7.050144175636353 L2.5,-7.198062264195162 L2.5,-7.436337035063941 L2.5,-7.753020396282533 L2.5,-8.132232521764884 L2.5,-8.554958132087371 L2.5,-9.0 L2.5,-9.445041867912629 L2.5,-9.867767478235116 L2.5,-10.246979603717467 L2.5,-10.56366296493606 L2.5,-10.801937735804838 L2.5,-10.949855824363647 L2.5,-10.999999999999998 " />
			<path d="M2.5,-15.0 L2.5,-11.0 " />
			<path d="M-2.5,-11.0 L2.5,-11.0 " />
			<path d="M-5.5,11.0 L-2.5,11.0 " />
			<path d="M2.5,-7.0 L1.0,-7.0 " />
			<path d="M1.0,-7.0 L1.0,6.0 " />
			<path d="M-2.5,6.0 L1.0,6.0 " />
			<path d="M-5.5,11.0 L-5.5,15.0 " />
			<path d="M-5.5,15.0 L2.5,15.0 " />
			<path d="M1.0,5.5 L-2.5,5.5 " />
			<path d="M-2.5,-6.767949192431 L1.0,-6.767949192431 " />
			<path d="M-2.5,-7.57011496558 L1.0,-7.57011496558 " />
			<path d="M1.0,-7.0 L1.0,-7.003057740608852 L1.0,-7.012221612657776 L1.0,-7.027463595403075 L1.0,-7.0487370828151485 L1.0,-7.075977026087644 L1.0,-7.109100132539837 L1.0,-7.148005120304034 L1.0,-7.192573028019263 L1.0,-7.242667578584252 L1.0,-7.298135595857455 L1.0,-7.358807473029965 L1.0,-7.424497691239135 L1.0,-7.495005386837143 L1.0,-7.57011496557992 " />

       </g>
    </g>
  </g>
  <text x="1174.5" y="964" text-anchor="middle" font-size="9" font-weight="bold" fill="#333" font-family="Arial, Helvetica, sans-serif">SECTION A-A  &#x2014;  CUT AT Y MIDPLANE</text>
  <rect x="1282" y="332" width="258" height="158" fill="#f4f4f4" stroke="#aaa" stroke-width="0.5"/>
  <text x="1285" y="341" font-size="7" fill="#777" font-family="Arial, Helvetica, sans-serif">ISO</text>
  <clipPath id="clip_iso"><rect x="1282" y="332" width="258" height="158"/></clipPath>
  <g clip-path="url(#clip_iso)" transform="translate(1282,358)">
    <g transform="scale(7.228002519688065, -7.228002519688065)   translate(40.044530579981966,-15.830961485765359)" stroke-width="0.13835080954608694"  fill="none">
       <!-- hidden lines -->
       <g  stroke="rgb(160,160,160)" fill="none" stroke-dasharray="0.13835080954608694,0.13835080954608694" >
			<path d="M-8.838834764831844,-11.635076278220097 L-12.374368670764582,-9.593834825900782 " />
			<path d="M-8.838834764831844,-11.635076278220097 L-8.838834764831844,-2.6536138880151103 " />
			<path d="M-8.838834764831844,-2.6536138880151103 L-12.374368670764582,-0.6123724356957947 " />
			<path d="M3.8890872965260144,9.18558653543692 L6.010407640085656,10.41033140682851 " />
			<path d="M6.363961030678929,0.8164965809277254 L6.0104076400856545,1.0206207261596574 " />
			<path d="M6.0104076400856545,1.0206207261596576 L6.0104076400856545,10.002083116364645 " />
			<path d="M6.363961030678932,10.614455552060443 L6.010407640085658,10.002083116364648 " />
			<path d="M6.010407640085656,10.41033140682851 L6.363961030678929,10.614455552060441 " />
			<path d="M-8.838834764831844,-11.6350762782201 L-8.485281374238571,-11.839200423452029 " />
			<path d="M-8.838834764831843,-2.653613888015109 L-8.48528137423857,-2.0412414523193143 " />
			<path d="M-8.485281374238571,-2.0412414523193156 L-12.020815280171309,0.0 " />
			<path d="M12.02081528017131,9.797958971132712 L12.374368670764584,9.593834825900782 " />
			<path d="M-8.485281374238571,-2.0412414523193156 L12.020815280171313,9.797958971132717 " />
			<path d="M-3.1819805153394647,-3.8783587594066993 L-3.183683997510582,-3.7992150886519287 L-3.188790340186177,-3.7222290937122833 L-3.197287241739481,-3.647586240592749 L-3.209154232390412,-3.575466350464431 L-3.2243627235190653,-3.5060431664596052 L-3.2428760765382068,-3.4394839351092927 L-3.2646496911588336,-3.375949003431716 L-3.289631112836183,-3.315591432642288 L-3.317760159137319,-3.258556629415741 L-3.348969064725889,-3.2049819955887067 L-3.383182644614752,-3.1549965971466576 L-3.420318475293201,-3.1087208532926436 L-3.4602870932924166,-3.0662662463468866 L-3.502992210710802,-3.0277350531761034 L-3.548330947179969,-2.9932200987995747 L-3.596194077712551,-2.9628045327655523 " />
			<path d="M-3.59619407771256,-2.9628045327655474 L-3.6464662958348057,-2.936561628836687 L-3.699026491369924,-2.9145546084671645 L-3.753748042203141,-2.8968364884966373 L-3.810499119325458,-2.8834499534280393 L-3.86914300442128,-2.8744272525968717 L-3.929538419234814,-2.869790122479732 L-3.9915398659217596,-2.8695497343292384 L-4.054997977566363,-2.8737066672614997 L-4.119759878019399,-2.8822509068609774 L-4.185669550190203,-2.8951618693060905 L-4.25256821190551,-2.9124084509574413 L-4.320294698429617,-2.93394910328921 L-4.3886858507243485,-2.959731932983191 L-4.457576908513468,-2.9896948269443415 L-4.52680190720462,-3.0237656019366703 L-4.5961940777125605,-3.0618621784789735 L-4.665586248220501,-3.1038927785814945 L-4.734811246911652,-3.1497561468471402 L-4.803702304700772,-3.1993417944046025 L-4.872093456995503,-3.252530265085726 L-4.939819943519611,-3.3091934232058797 L-5.0067186052349175,-3.3691947622540455 L-5.072628277405721,-3.432389733748959 L-5.137390177858757,-3.4986260954690653 L-5.200848289503361,-3.5677442782173587 L-5.262849736190307,-3.639577770237562 L-5.3232451510038405,-3.7139535183555266 L-5.381889036099662,-3.790692344879491 L-5.43864011322198,-3.8696093792548316 L-5.493361664055197,-3.9505145034334217 L-5.545921859590314,-4.033212809884663 L-5.5961940777125605,-4.1175050711448 L-5.644057208245151,-4.203188219773326 L-5.689395944714318,-4.290055837560236 L-5.732101062132703,-4.3778986528055785 L-5.772069680131919,-4.466505044473306 L-5.809205510810369,-4.555661552004885 L-5.843419090699231,-4.645153389564487 L-5.874627996287801,-4.73476496347687 L-5.902757042588936,-4.824280391611433 L-5.927738464266286,-4.913484023461175 L-5.9495120788869125,-5.002160959663652 L-5.968025431906054,-5.090097569712372 L-5.983233923034708,-5.177082006611389 L-5.995100913685638,-5.262904717233278 L-6.003597815238942,-5.34735894715097 L-6.008704157914537,-5.430241238727274 L-6.0104076400856545,-5.511351921262152 L-6.008704157914537,-5.5904955920169215 L-6.003597815238942,-5.667481586956567 L-5.995100913685638,-5.742124440076103 L-5.983233923034707,-5.814244330204421 L-5.968025431906053,-5.883667514209246 L-5.9495120788869125,-5.950226745559559 L-5.927738464266286,-6.013761677237135 L-5.902757042588936,-6.0741192480265624 L-5.8746279962878,-6.131154051253109 L-5.84341909069923,-6.1847286850801435 L-5.809205510810367,-6.234714083522193 L-5.772069680131918,-6.280989827376207 L-5.732101062132703,-6.323444434321964 L-5.689395944714317,-6.361975627492748 L-5.644057208245149,-6.396490581869276 L-5.596194077712564,-6.4269061479033 " />
			<path d="M-5.59619407771256,-6.426906147903303 L-5.55870923935955,-6.446983143655649 L-5.519919970791582,-6.464685601802571 L-5.479878840421033,-6.47998953142714 L-5.438640113221979,-6.492874192172213 L-5.396259677188635,-6.503322122348398 L-5.352794967594218,-6.511319162598682 L-5.308304889152897,-6.516854475087623 L-5.262849736190305,-6.519920558189118 L-5.216491110930818,-6.520513256652841 L-5.16929184001231,-6.518631767235567 L-5.1213158893415685,-6.514278639789747 L-5.0726282774057205,-6.507459773807873 L-5.023294987157173,-6.498184410427303 L-4.9733828765914865,-6.486465119906389 L-4.922959588139355,-6.4723177845888715 L-4.872093456995502,-6.45576157737964 L-4.820853418508715,-6.436818935761022 L-4.769308914758539,-6.4155155313848145 L-4.717529800445226,-6.391880235281268 L-4.6655862482204995,-6.36594507873218 L-4.561487539498159,-6.307318845999576 L-4.4575769085134676,-6.23995453382171 L-4.354417455978821,-6.1642171952428955 L-4.252568211905509,-6.080517257462971 L-4.152581106171651,-5.989308297696748 L-4.054997977566362,-5.891084585199785 L-3.9603476375184146,-5.7863784027804614 L-3.8691430044212787,-5.675757162313324 L-3.781878324083919,-5.55982032988498 L-3.6990264913699233,-5.439196177235429 L-3.6210364875392678,-5.314538377099073 L-3.5483309471799696,-5.186522460895526 L-3.481303867914633,-5.05584215796633 L-3.4203184752932008,-4.923205636195545 L-3.3657052544422212,-4.789331664386621 L-3.3177601591373183,-4.65494571719198 L-3.276743008004039,-4.520776043703025 L-3.2428760765382068,-4.3875497210052 L-3.2163428925757556,-4.255988714084285 L-3.1972872417394815,-4.126805963435574 L-3.185812388252298,-4.000701521577561 L-3.1819805153394642,-3.878358759406714 " />
			<path d="M6.363961030678928,10.61445555206044 L4.242640687119285,11.839200423452029 " />
			<path d="M6.3639610306789285,13.063945294843618 L12.020815280171309,9.797958971132713 " />
			<path d="M6.0104076400856545,10.002083116364645 L3.8890872965260117,11.226827987756234 " />
			<path d="M6.0104076400856545,1.0206207261596576 L3.8890872965260117,2.245365597551247 " />
			<path d="M-4.07855598750743,-3.9877485591478274 L4.5961940777125605,1.0206207261596596 " />
			<path d="M-6.553429721660347,-2.5588795425243074 L-4.07855598750743,-3.9877485591478283 " />
			<path d="M4.59619407771256,1.0206207261596574 L2.121320343559643,2.4494897427831783 " />
			<path d="M4.5961940777125605,1.0206207261596583 L4.949747468305835,1.6329931618554538 " />
			<path d="M4.949747468305834,1.632993161855452 L2.474873734152917,3.061862178478973 " />
			<path d="M-4.078555987507378,-3.987748559147921 L-4.645772845336734,-4.640496226560689 " />
			<path d="M-7.1206465794897555,-3.211627209936985 L-4.645772845336839,-4.640496226560506 " />
			<path d="M4.949747468305834,1.632993161855452 L4.949747468305834,2.449489742783178 " />
			<path d="M4.949747468305834,2.4494897427831783 L2.474873734152917,3.8783587594066993 " />
			<path d="M-5.424745383790949,-1.9072333362252953 L-4.645772845336839,-2.356973340993102 " />
			<path d="M-4.43210937810077,-2.558879542524388 L-4.478794320901475,-2.4988735057061406 L-4.530103716189202,-2.445083898328902 L-4.585836149880603,-2.3977218705027585 L-4.645772845336775,-2.356973340993013 " />
			<path d="M-4.43210937810077,-2.5588795425243873 L-4.388484654694096,-2.62793497095631 L-4.350291284615992,-2.703218996946521 L-4.317692817740682,-2.784409242737917 L-4.290828845707937,-2.871158039233464 L-4.26981440417023,-2.963093914768652 L-4.254739480192423,-3.059823185810188 L-4.245668626913334,-3.1609316427693224 L-4.242640687119286,-3.265986323710897 " />
			<path d="M-4.242640687119286,-3.265986323710904 L-4.245668626913334,-3.374537368362854 L-4.254739480192423,-3.486119944486912 L-4.26981440417023,-3.600256238361647 L-4.290828845707936,-3.716457500854164 L-4.3176928177406815,-3.8342261403189277 L-4.350291284615992,-3.9530578533615808 L-4.388484654694096,-4.072443784343498 L-4.432109378100764,-4.191872704379736 " />
			<path d="M-4.432109378100769,-4.191872704379753 L-4.478794320901475,-4.305785869784179 L-4.530103716189202,-4.418822463524069 L-4.585836149880602,-4.530538762538859 L-4.645772845336775,-4.64049622656052 " />
			<path d="M4.949747468305834,2.449489742783178 L4.5961940777125605,2.6536138880151094 " />
			<path d="M4.59619407771256,2.65361388801511 L2.4748737341529172,3.878358759406699 " />
			<path d="M-5.139216159287253,-1.7423829615965807 L-4.07855598750743,-2.354755397292376 " />
			<path d="M-4.078555987507347,-2.354755397292133 L-4.645772845336703,-2.3569733409927096 " />
			<path d="M-4.07855598750743,-2.354755397292375 L4.5961940777125605,2.653613888015112 " />
			<path d="M-9.131727983645302,-4.385664695583985 L-5.596194077712564,-6.426906147903301 " />
			<path d="M-7.131727983645302,-0.92156308044623 L-3.596194077712564,-2.9628045327655457 " />

       </g>

       <!-- solid lines -->
       <g  stroke="rgb(0,0,0)" fill="none">
			<path d="M-12.374368670764582,-9.593834825900782 L-12.374368670764582,-0.6123724356957947 " />
			<path d="M-12.020815280171309,-1.942890293094024e-16 L3.8890872965260144,9.18558653543692 " />
			<path d="M-12.37436867076458,-0.6123724356957934 L-12.020815280171307,1.3322676295501878e-15 " />
			<path d="M-12.374368670764582,-9.593834825900784 L-12.020815280171309,-9.797958971132713 " />
			<path d="M-12.020815280171309,-9.797958971132713 L6.010407640085656,0.6123724356957965 " />
			<path d="M6.010407640085656,0.6123724356957965 L6.363961030678929,0.816496580927728 " />
			<path d="M2.1213203435596455,2.4494897427831805 L-6.553429721660346,-2.558879542524306 " />
			<path d="M-6.5534297216598665,-2.5588795425251436 L-7.1206465794892235,-3.2116272099379124 " />
			<path d="M-7.120646579489701,-3.2116272099370153 L-7.170743573063178,-3.2968482448258936 L-7.223188620097119,-3.3804976114954233 L-7.277853577228516,-3.4623709224626134 L-7.334604877002636,-3.542268129829683 L-7.393303854229543,-3.6199940140778004 L-7.4538070847963285,-3.6953586610632314 L-7.515966736107236,-3.7681779260504302 L-7.579630928295374,-3.838273883648247 L-7.644644105323486,-3.9054752625498943 L-7.710847415067006,-3.9696178640144355 L-7.778079097450718,-4.030544963067278 L-7.846174879690656,-4.088107691439394 L-7.914968377675516,-4.1421654013095885 L-7.9842915025068475,-4.192586008961074 L-8.053974871204701,-4.239246317512642 L-8.123848220575205,-4.282032317935888 L-8.193740823228843,-4.3208394676229975 L-8.263481904732945,-4.355572945824423 L-8.33290106087912,-4.386147885332344 L-8.401828674046087,-4.412489579843802 L-8.47009632764057,-4.434533666496851 L-8.537537217603633,-4.452226283133707 L-8.603986559976963,-4.465524199906665 L-8.669281993533271,-4.4743949249051855 L-8.733263976487047,-4.478816783546104 L-8.795776176316316,-4.47877897153294 L-8.856665851742955,-4.474281581254942 L-8.915784225938205,-4.465335601561348 L-8.972986850041526,-4.451962890911403 L-9.028133956104558,-4.434196123965773 L-9.081090798597817,-4.412078711749803 L-9.131727983645703,-4.385664695583754 " />
			<path d="M-9.131727983645712,-4.385664695583749 L-9.179591114178281,-4.355249129549687 L-9.224929850647428,-4.320734175173124 L-9.26763496806579,-4.282202982002307 L-9.307603586064982,-4.239748375056517 L-9.344739416743407,-4.1934726312024715 L-9.378952996632245,-4.143487232760391 L-9.41016190222079,-4.089912598933327 L-9.4382909485219,-4.032877795706752 L-9.46327237019922,-3.9725202249172975 L-9.48504598481982,-3.9089852932396947 L-9.503559337838935,-3.842426061889357 L-9.51876782896756,-3.773002877884508 L-9.530634819618463,-3.7008829877561675 L-9.539131721171739,-3.626240134636612 L-9.544238063847304,-3.5492541396969477 L-9.545941546018394,-3.4701104689421607 L-9.544238063847247,-3.3889997864072665 L-9.539131721171623,-3.306117494830948 L-9.53063481961829,-3.221663264913245 L-9.51876782896733,-3.135840554291345 L-9.50355933783865,-3.048856117392318 L-9.48504598481948,-2.9609195073435908 L-9.463272370198826,-2.8722425711411077 L-9.438290948521452,-2.7830389392913633 L-9.410161902220288,-2.6935235111567986 L-9.378952996631693,-2.6039119372444155 L-9.344739416742804,-2.5144200996848163 L-9.307603586064332,-2.4252635921532404 L-9.267634968065092,-2.336657200485519 L-9.224929850646685,-2.248814385240184 L-9.179591114177496,-2.1619467674532826 L-9.131727983644884,-2.076263618824768 L-9.08145576552262,-1.9919713575646436 L-9.028895569987482,-1.909273051113416 L-8.974174019154248,-1.8283679269348418 L-8.917422942031914,-1.749450892559519 L-8.858779056936076,-1.6727120660355737 L-8.798383642122529,-1.5983363179176298 L-8.73638219543557,-1.526502825897449 L-8.672924083790955,-1.457384643149179 L-8.608162183337909,-1.3911482814290976 L-8.542252511167096,-1.3279533099342102 L-8.475353849451782,-1.267951970886072 L-8.407627362927668,-1.2112888127659476 L-8.339236210632931,-1.1581003420848544 L-8.270345152843808,-1.1085146945274227 L-8.201120154152655,-1.0626513262618085 L-8.131727983644714,-1.0206207261593203 L-8.062335813136773,-0.9825241496170509 L-7.993110814445624,-0.9484533746247561 L-7.924219756656507,-0.9184904806636403 L-7.855828604361781,-0.8927076509696952 L-7.78810211783768,-0.8711669986379631 L-7.721203456122382,-0.8539204169866488 L-7.655293783951587,-0.8410094545415725 L-7.590531883498561,-0.8324652149421312 L-7.527073771853969,-0.828308282009907 L-7.465072325167036,-0.8285486701604383 L-7.404676910353516,-0.8331858002776147 L-7.34603302525771,-0.8422085011088192 L-7.289281948135409,-0.855595036177454 L-7.23456039730221,-0.8733131561480176 L-7.18200020176711,-0.895320176517576 L-7.131727983644889,-0.9215630804464692 " />
			<path d="M-7.131727983644884,-0.9215630804464718 L-7.120646579489707,-0.9281043243694849 " />
			<path d="M-6.553429721660388,-0.9258863806689721 L-7.120646579489744,-0.9281043243695489 " />
			<path d="M2.1213203435596455,4.082482904638633 L-6.553429721660346,-0.9258863806688535 " />
			<path d="M2.474873734152917,3.878358759406699 L2.1213203435596437,4.08248290463863 " />
			<path d="M2.474873734152917,3.0618621784789726 L2.474873734152917,3.878358759406699 " />
			<path d="M2.1213203435596446,2.4494897427831797 L2.4748737341529186,3.0618621784789752 " />
			<path d="M-8.485281374238571,-11.839200423452029 L-12.020815280171309,-9.797958971132713 " />
			<path d="M-8.485281374238571,-11.839200423452029 L12.020815280171313,3.552713678800501e-15 " />
			<path d="M12.02081528017131,1.7763568394002505e-15 L12.374368670764586,0.6123724356957965 " />
			<path d="M12.374368670764582,0.6123724356957949 L12.374368670764582,9.593834825900782 " />
			<path d="M4.242640687119286,11.839200423452029 L6.3639610306789285,13.063945294843618 " />
			<path d="M4.242640687119286,11.83920042345203 L3.889087296526012,11.226827987756236 " />
			<path d="M3.8890872965260117,2.2453655975512468 L3.8890872965260117,11.226827987756234 " />
			<path d="M6.363961030678928,0.816496580927726 L4.242640687119285,2.0412414523193156 " />
			<path d="M6.363961030678928,3.2659863237109046 L4.242640687119285,2.041241452319315 " />
			<path d="M12.020815280171309,2.220446049250313e-16 L6.363961030678928,3.265986323710906 " />
			<path d="M4.242640687119285,2.041241452319315 L3.8890872965260113,2.2453655975512468 " />
			<path d="M-7.1206465794897555,-0.928104324369581 L-5.424745383790949,-1.9072333362252953 " />
			<path d="M2.4748737341529172,3.878358759406699 L2.121320343559643,4.082482904638631 " />
			<path d="M-6.553429721660347,-0.9258863806688546 L-5.139216159287253,-1.7423829615965807 " />
			<path d="M6.363961030678928,3.2659863237109046 L6.717514421272202,3.8783587594066997 " />
			<path d="M12.374368670764582,0.6123724356957949 L6.717514421272201,3.8783587594067006 " />
			<path d="M6.3639610306789285,13.06394529484362 L6.717514421272202,12.859821149611687 " />
			<path d="M6.7175144212722016,12.859821149611687 L12.374368670764582,9.593834825900782 " />
			<path d="M6.7175144212722016,3.8783587594066993 L6.7175144212722016,12.859821149611687 " />

       </g>
    </g>
  </g>
  <line x1="34" y1="268.0" x2="789" y2="268.0" stroke="#0000ff" stroke-width="0.4" stroke-dasharray="12,3,2,3" fill="none"/>
  <line x1="411.5" y1="34" x2="411.5" y2="502" stroke="#0000ff" stroke-width="0.4" stroke-dasharray="12,3,2,3" fill="none"/>
  <line x1="797" y1="268.0" x2="1552" y2="268.0" stroke="#0000ff" stroke-width="0.4" stroke-dasharray="12,3,2,3" fill="none"/>
  <line x1="1174.5" y1="34" x2="1174.5" y2="502" stroke="#0000ff" stroke-width="0.4" stroke-dasharray="12,3,2,3" fill="none"/>
  <line x1="34" y1="744.0" x2="789" y2="744.0" stroke="#0000ff" stroke-width="0.4" stroke-dasharray="12,3,2,3" fill="none"/>
  <line x1="411.5" y1="510" x2="411.5" y2="978" stroke="#0000ff" stroke-width="0.4" stroke-dasharray="12,3,2,3" fill="none"/>
  <line x1="0" y1="54" x2="18" y2="54" stroke="#1a1a8c" stroke-width="0.7"/>
  <line x1="0" y1="482" x2="18" y2="482" stroke="#1a1a8c" stroke-width="0.7"/>
  <line x1="4" y1="54" x2="4" y2="482" stroke="#1a1a8c" stroke-width="0.8"/>
  <polygon points="4,54 1,61 7,61" fill="#1a1a8c"/>
  <polygon points="4,482 1,475 7,475" fill="#1a1a8c"/>
  <text x="-4" y="268.0" text-anchor="middle" font-size="10" fill="#1a1a8c" font-family="Arial, Helvetica, sans-serif" transform="rotate(-90,-4,268.0)">8.0 mm</text>
  <polygon points="411.5,492 402.5,506.4 420.5,506.4" fill="#1a1a8c" stroke="#1a1a8c" stroke-width="0.5"/>
  <rect x="402.5" y="506.4" width="18" height="18" fill="white" stroke="#1a1a8c" stroke-width="1"/>
  <text x="411.5" y="520.4" text-anchor="middle" font-size="11" font-weight="bold" fill="#1a1a8c" font-family="Arial, Helvetica, sans-serif">A</text>
  <line x1="46" y1="268.0" x2="777" y2="268.0" stroke="#555" stroke-width="1" stroke-dasharray="8,4"/>
  <polygon points="46,268.0 56,264.0 56,272.0" fill="#555"/>
  <polygon points="777,268.0 767,264.0 767,272.0" fill="#555"/>
  <text x="60" y="262.0" font-size="10" font-weight="bold" fill="#555" font-family="Arial, Helvetica, sans-serif">A</text>
  <text x="757" y="262.0" font-size="10" font-weight="bold" fill="#555" font-family="Arial, Helvetica, sans-serif">A</text>
  <line x1="54" y1="508" x2="54" y2="526" stroke="#1a1a8c" stroke-width="0.7"/>
  <line x1="769" y1="508" x2="769" y2="526" stroke="#1a1a8c" stroke-width="0.7"/>
  <line x1="54" y1="522" x2="769" y2="522" stroke="#1a1a8c" stroke-width="0.8"/>
  <polygon points="54,522 61,519 61,525" fill="#1a1a8c"/>
  <polygon points="769,522 762,519 762,525" fill="#1a1a8c"/>
  <text x="411.5" y="518" text-anchor="middle" font-size="10" fill="#1a1a8c" font-family="Arial, Helvetica, sans-serif">30.0 mm</text>
  <line x1="817" y1="6" x2="817" y2="24" stroke="#1a1a8c" stroke-width="0.7"/>
  <line x1="1532" y1="6" x2="1532" y2="24" stroke="#1a1a8c" stroke-width="0.7"/>
  <line x1="817" y1="20" x2="1532" y2="20" stroke="#1a1a8c" stroke-width="0.8"/>
  <polygon points="817,20 824,17 824,23" fill="#1a1a8c"/>
  <polygon points="1532,20 1525,17 1525,23" fill="#1a1a8c"/>
  <text x="1174.5" y="16" text-anchor="middle" font-size="10" fill="#1a1a8c" font-family="Arial, Helvetica, sans-serif">30.0 mm</text>
  <line x1="1570" y1="54" x2="1588" y2="54" stroke="#1a1a8c" stroke-width="0.7"/>
  <line x1="1570" y1="482" x2="1588" y2="482" stroke="#1a1a8c" stroke-width="0.7"/>
  <line x1="1574" y1="54" x2="1574" y2="482" stroke="#1a1a8c" stroke-width="0.8"/>
  <polygon points="1574,54 1571,61 1577,61" fill="#1a1a8c"/>
  <polygon points="1574,482 1571,475 1577,475" fill="#1a1a8c"/>
  <text x="1566" y="268.0" text-anchor="middle" font-size="10" fill="#1a1a8c" font-family="Arial, Helvetica, sans-serif" transform="rotate(-90,1566,268.0)">12.0 mm</text>
  <text x="627" y="76" font-size="8" font-weight="bold" fill="#333" font-family="Arial, Helvetica, sans-serif">GD&amp;T CALLOUTS</text>
  <rect x="627" y="80" width="98" height="22" fill="#fffff8" stroke="#000000" stroke-width="1"/>
  <line x1="655" y1="80" x2="655" y2="102" stroke="#000000" stroke-width="1"/>
  <text x="641.0" y="97" text-anchor="middle" font-size="13" font-weight="bold" fill="#1a1a8c" font-family="Arial, Helvetica, sans-serif">▭</text>
  <text x="661" y="97" font-size="10" fill="#000" font-family="Arial, Helvetica, sans-serif">0.05</text>
  <line x1="627" y1="91.0" x2="603.0" y2="192.7" stroke="#999" stroke-width="0.5" stroke-dasharray="4,3"/>
  <rect x="627" y="108" width="123" height="22" fill="#fffff8" stroke="#000000" stroke-width="1"/>
  <line x1="655" y1="108" x2="655" y2="130" stroke="#000000" stroke-width="1"/>
  <line x1="725" y1="108" x2="725" y2="130" stroke="#000000" stroke-width="1"/>
  <text x="641.0" y="125" text-anchor="middle" font-size="13" font-weight="bold" fill="#1a1a8c" font-family="Arial, Helvetica, sans-serif">⊥</text>
  <text x="661" y="125" font-size="10" fill="#000" font-family="Arial, Helvetica, sans-serif">0.05</text>
  <text x="737.5" y="125" text-anchor="middle" font-size="10" font-weight="bold" fill="#000" font-family="Arial, Helvetica, sans-serif">A</text>
  <line x1="627" y1="119.0" x2="411.5" y2="72.0" stroke="#999" stroke-width="0.5" stroke-dasharray="4,3"/>
  <rect x="627" y="136" width="100" height="22" fill="#fffff8" stroke="#000000" stroke-width="0.8"/>
  <text x="633" y="151" font-size="11" fill="#1a1a8c" font-family="Arial, Helvetica, sans-serif">∇∇ Ra 3.2</text>
  <rect x="30" y="983" width="1527" height="110" fill="white" stroke="black" stroke-width="1.5"/>
  <rect x="30" y="983" width="1527" height="22" fill="#1a1a8c"/>
  <text x="793.5" y="998" text-anchor="middle" font-size="13" fill="white" font-weight="bold" font-family="Arial, Helvetica, sans-serif">ARIA-OS ENGINEERING DRAWING</text>
  <text x="34" y="1014.0" font-size="7" fill="#666" font-family="Arial, Helvetica, sans-serif">PART ID</text>
  <text x="34" y="1045.0" font-size="10" fill="#000" font-weight="bold" font-family="Arial, Helvetica, sans-serif">pin</text>
  <line x1="30" y1="1049.0" x2="335.40000000000003" y2="1049.0" stroke="#aaa" stroke-width="0.5"/>
  <text x="34" y="1058.0" font-size="7" fill="#666" font-family="Arial, Helvetica, sans-serif">MATERIAL</text>
  <text x="34" y="1089.0" font-size="10" fill="#000" font-weight="bold" font-family="Arial, Helvetica, sans-serif">steel_mild</text>
  <line x1="335.40000000000003" y1="1005" x2="335.40000000000003" y2="1093" stroke="black" stroke-width="0.8"/>
  <text x="339.40000000000003" y="1014.0" font-size="7" fill="#666" font-family="Arial, Helvetica, sans-serif">SCALE</text>
  <text x="339.40000000000003" y="1045.0" font-size="10" fill="#000" font-weight="bold" font-family="Arial, Helvetica, sans-serif">1:1</text>
  <line x1="335.40000000000003" y1="1049.0" x2="640.8000000000001" y2="1049.0" stroke="#aaa" stroke-width="0.5"/>
  <text x="339.40000000000003" y="1058.0" font-size="7" fill="#666" font-family="Arial, Helvetica, sans-serif">DATE</text>
  <text x="339.40000000000003" y="1089.0" font-size="10" fill="#000" font-weight="bold" font-family="Arial, Helvetica, sans-serif">2026-04-01</text>
  <line x1="640.8000000000001" y1="1005" x2="640.8000000000001" y2="1093" stroke="black" stroke-width="0.8"/>
  <text x="644.8000000000001" y="1014.0" font-size="7" fill="#666" font-family="Arial, Helvetica, sans-serif">DRAWN BY</text>
  <text x="644.8000000000001" y="1045.0" font-size="10" fill="#000" font-weight="bold" font-family="Arial, Helvetica, sans-serif">ARIA-OS v2.0</text>
  <line x1="640.8000000000001" y1="1049.0" x2="946.2" y2="1049.0" stroke="#aaa" stroke-width="0.5"/>
  <text x="644.8000000000001" y="1058.0" font-size="7" fill="#666" font-family="Arial, Helvetica, sans-serif">DWG NO.</text>
  <text x="644.8000000000001" y="1089.0" font-size="10" fill="#000" font-weight="bold" font-family="Arial, Helvetica, sans-serif">ARIA-20260401-001</text>
  <line x1="946.2" y1="1005" x2="946.2" y2="1093" stroke="black" stroke-width="0.8"/>
  <text x="950.2" y="1014.0" font-size="7" fill="#666" font-family="Arial, Helvetica, sans-serif">TOLERANCE</text>
  <text x="950.2" y="1045.0" font-size="10" fill="#000" font-weight="bold" font-family="Arial, Helvetica, sans-serif">±0.1 GENERAL / ±0.05 MACH.</text>
  <line x1="946.2" y1="1049.0" x2="1251.6000000000001" y2="1049.0" stroke="#aaa" stroke-width="0.5"/>
  <text x="950.2" y="1058.0" font-size="7" fill="#666" font-family="Arial, Helvetica, sans-serif">UNITS</text>
  <text x="950.2" y="1089.0" font-size="10" fill="#000" font-weight="bold" font-family="Arial, Helvetica, sans-serif">MILLIMETRES</text>
  <line x1="1251.6000000000001" y1="1005" x2="1251.6000000000001" y2="1093" stroke="black" stroke-width="0.8"/>
  <text x="1255.6000000000001" y="1014.0" font-size="7" fill="#666" font-family="Arial, Helvetica, sans-serif">APPROVED</text>
  <text x="1255.6000000000001" y="1045.0" font-size="10" fill="#000" font-weight="bold" font-family="Arial, Helvetica, sans-serif"></text>
  <line x1="1251.6000000000001" y1="1049.0" x2="1404.3000000000002" y2="1049.0" stroke="#aaa" stroke-width="0.5"/>
  <text x="1255.6000000000001" y="1058.0" font-size="7" fill="#666" font-family="Arial, Helvetica, sans-serif"></text>
  <text x="1255.6000000000001" y="1089.0" font-size="10" fill="#000" font-weight="bold" font-family="Arial, Helvetica, sans-serif"></text>
  <line x1="1404.3000000000002" y1="1005" x2="1404.3000000000002" y2="1093" stroke="black" stroke-width="0.8"/>
  <text x="1408.3000000000002" y="1014.0" font-size="7" fill="#666" font-family="Arial, Helvetica, sans-serif">REV</text>
  <text x="1408.3000000000002" y="1045.0" font-size="10" fill="#000" font-weight="bold" font-family="Arial, Helvetica, sans-serif">—</text>
  <line x1="1404.3000000000002" y1="1049.0" x2="1557.0000000000002" y2="1049.0" stroke="#aaa" stroke-width="0.5"/>
  <text x="1408.3000000000002" y="1058.0" font-size="7" fill="#666" font-family="Arial, Helvetica, sans-serif"></text>
  <text x="1408.3000000000002" y="1089.0" font-size="10" fill="#000" font-weight="bold" font-family="Arial, Helvetica, sans-serif"></text>
</svg>