<svg xmlns="http://www.w3.org/2000/svg" width="1587" height="1123" viewBox="0 0 1587 1123" font-family="Arial, Helvetica, sans-serif" font-size="12">
  <rect width="1587" height="1123" fill="white"/>
  <rect x="20" y="20" width="1547" height="1083" fill="none" stroke="black" stroke-width="2"/>
  <rect x="30" y="30" width="1527" height="1063" fill="none" stroke="black" stroke-width="1"/>
  <rect x="20" y="20.0" width="16" height="270.75" fill="none" stroke="#888" stroke-width="0.4"/>
  <text x="28.0" y="159.375" text-anchor="middle" font-size="9" fill="#444" font-family="Arial, Helvetica, sans-serif">A</text>
  <rect x="1551" y="20.0" width="16" height="270.75" fill="none" stroke="#888" stroke-width="0.4"/>
  <text x="1559.0" y="159.375" text-anchor="middle" font-size="9" fill="#444" font-family="Arial, Helvetica, sans-serif">A</text>
  <rect x="20" y="290.75" width="16" height="270.75" fill="none" stroke="#888" stroke-width="0.4"/>
  <text x="28.0" y="430.125" text-anchor="middle" font-size="9" fill="#444" font-family="Arial, Helvetica, sans-serif">B</text>
  <rect x="1551" y="290.75" width="16" height="270.75" fill="none" stroke="#888" stroke-width="0.4"/>
  <text x="1559.0" y="430.125" text-anchor="middle" font-size="9" fill="#444" font-family="Arial, Helvetica, sans-serif">B</text>
  <rect x="20" y="561.5" width="16" height="270.75" fill="none" stroke="#888" stroke-width="0.4"/>
  <text x="28.0" y="700.875" text-anchor="middle" font-size="9" fill="#444" font-family="Arial, Helvetica, sans-serif">C</text>
  <rect x="1551" y="561.5" width="16" height="270.75" fill="none" stroke="#888" stroke-width="0.4"/>
  <text x="1559.0" y="700.875" text-anchor="middle" font-size="9" fill="#444" font-family="Arial, Helvetica, sans-serif">C</text>
  <rect x="20" y="832.25" width="16" height="270.75" fill="none" stroke="#888" stroke-width="0.4"/>
  <text x="28.0" y="971.625" text-anchor="middle" font-size="9" fill="#444" font-family="Arial, Helvetica, sans-serif">D</text>
  <rect x="1551" y="832.25" width="16" height="270.75" fill="none" stroke="#888" stroke-width="0.4"/>
  <text x="1559.0" y="971.625" text-anchor="middle" font-size="9" fill="#444" font-family="Arial, Helvetica, sans-serif">D</text>
  <rect x="20.0" y="20" width="193.375" height="16" fill="none" stroke="#888" stroke-width="0.4"/>
  <text x="116.6875" y="32" text-anchor="middle" font-size="9" fill="#444" font-family="Arial, Helvetica, sans-serif">1</text>
  <rect x="20.0" y="1087" width="193.375" height="16" fill="none" stroke="#888" stroke-width="0.4"/>
  <text x="116.6875" y="1099" text-anchor="middle" font-size="9" fill="#444" font-family="Arial, Helvetica, sans-serif">1</text>
  <rect x="213.375" y="20" width="193.375" height="16" fill="none" stroke="#888" stroke-width="0.4"/>
  <text x="310.0625" y="32" text-anchor="middle" font-size="9" fill="#444" font-family="Arial, Helvetica, sans-serif">2</text>
  <rect x="213.375" y="1087" width="193.375" height="16" fill="none" stroke="#888" stroke-width="0.4"/>
  <text x="310.0625" y="1099" text-anchor="middle" font-size="9" fill="#444" font-family="Arial, Helvetica, sans-serif">2</text>
  <rect x="406.75" y="20" width="193.375" height="16" fill="none" stroke="#888" stroke-width="0.4"/>
  <text x="503.4375" y="32" text-anchor="middle" font-size="9" fill="#444" font-family="Arial, Helvetica, sans-serif">3</text>
  <rect x="406.75" y="1087" width="193.375" height="16" fill="none" stroke="#888" stroke-width="0.4"/>
  <text x="503.4375" y="1099" text-anchor="middle" font-size="9" fill="#444" font-family="Arial, Helvetica, sans-serif">3</text>
  <rect x="600.125" y="20" width="193.375" height="16" fill="none" stroke="#888" stroke-width="0.4"/>
  <text x="696.8125" y="32" text-anchor="middle" font-size="9" fill="#444" font-family="Arial, Helvetica, sans-serif">4</text>
  <rect x="600.125" y="1087" width="193.375" height="16" fill="none" stroke="#888" stroke-width="0.4"/>
  <text x="696.8125" y="1099" text-anchor="middle" font-size="9" fill="#444" font-family="Arial, Helvetica, sans-serif">4</text>
  <rect x="793.5" y="20" width="193.375" height="16" fill="none" stroke="#888" stroke-width="0.4"/>
  <text x="890.1875" y="32" text-anchor="middle" font-size="9" fill="#444" font-family="Arial, Helvetica, sans-serif">5</text>
  <rect x="793.5" y="1087" width="193.375" height="16" fill="none" stroke="#888" stroke-width="0.4"/>
  <text x="890.1875" y="1099" text-anchor="middle" font-size="9" fill="#444" font-family="Arial, Helvetica, sans-serif">5</text>
  <rect x="986.875" y="20" width="193.375" height="16" fill="none" stroke="#888" stroke-width="0.4"/>
  <text x="1083.5625" y="32" text-anchor="middle" font-size="9" fill="#444" font-family="Arial, Helvetica, sans-serif">6</text>
  <rect x="986.875" y="1087" width="193.375" height="16" fill="none" stroke="#888" stroke-width="0.4"/>
  <text x="1083.5625" y="1099" text-anchor="middle" font-size="9" fill="#444" font-family="Arial, Helvetica, sans-serif">6</text>
  <rect x="1180.25" y="20" width="193.375" height="16" fill="none" stroke="#888" stroke-width="0.4"/>
  <text x="1276.9375" y="32" text-anchor="middle" font-size="9" fill="#444" font-family="Arial, Helvetica, sans-serif">7</text>
  <rect x="1180.25" y="1087" width="193.375" height="16" fill="none" stroke="#888" stroke-width="0.4"/>
  <text x="1276.9375" y="1099" text-anchor="middle" font-size="9" fill="#444" font-family="Arial, Helvetica, sans-serif">7</text>
  <rect x="1373.625" y="20" width="193.375" height="16" fill="none" stroke="#888" stroke-width="0.4"/>
  <text x="1470.3125" y="32" text-anchor="middle" font-size="9" fill="#444" font-family="Arial, Helvetica, sans-serif">8</text>
  <rect x="1373.625" y="1087" width="193.375" height="16" fill="none" stroke="#888" stroke-width="0.4"/>
  <text x="1470.3125" y="1099" text-anchor="middle" font-size="9" fill="#444" font-family="Arial, Helvetica, sans-serif">8</text>
  <rect x="1475" y="32" width="80" height="20" fill="white" stroke="black" stroke-width="0.8"/>
  <text x="1515.0" y="45" text-anchor="middle" font-size="9" fill="#000" font-family="Arial, Helvetica, sans-serif">REV: &#x2014;</text>
  <line x1="30" y1="506" x2="1557" y2="506" stroke="#888" stroke-width="0.6"/>
  <line x1="793" y1="30" x2="793" y2="983" stroke="#888" stroke-width="0.6"/>
  <rect x="42" y="42" width="739" height="452" fill="#fafafa" stroke="#ccc" stroke-width="0.5"/>
  <rect x="805" y="42" width="739" height="452" fill="#fafafa" stroke="#ccc" stroke-width="0.5"/>
  <rect x="42" y="518" width="739" height="452" fill="#fafafa" stroke="#ccc" stroke-width="0.5"/>
  <rect x="805" y="518" width="739" height="452" fill="#fafafa" stroke="#ccc" stroke-width="0.5"/>
  <text x="46" y="54" font-size="9" font-weight="bold" fill="#444" font-family="Arial, Helvetica, sans-serif">FRONT VIEW</text>
  <text x="809" y="54" font-size="9" font-weight="bold" fill="#444" font-family="Arial, Helvetica, sans-serif">TOP VIEW</text>
  <text x="46" y="530" font-size="9" font-weight="bold" fill="#444" font-family="Arial, Helvetica, sans-serif">RIGHT SIDE VIEW</text>
  <text x="809" y="530" font-size="9" font-weight="bold" fill="#444" font-family="Arial, Helvetica, sans-serif">SECTION A-A</text>
  <clipPath id="clip_front"><rect x="42" y="42" width="739" height="452"/></clipPath>
  <g clip-path="url(#clip_front)" transform="translate(42,68)">
    <g transform="scale(9.999999966666667, -9.999999966666667)   translate(80.00000016666667,-17.002498000976665)" stroke-width="0.10000000033333332"  fill="none">
       <!-- hidden lines -->
       <g  stroke="rgb(160,160,160)" fill="none" stroke-dasharray="0.10000000033333332,0.10000000033333332" >
			<path d="M0.0,0.0 L0.0,0.03553149248177457 " />
			<path d="M0.0,0.03553149248185 L-60.0,0.492795608987 " />
			<path d="M-60.0,0.439410440022 L-60.0,0.4927956089874614 " />
			<path d="M0.0,0.03553149248185 L0.0,0.21409215681758106 " />
			<path d="M0.0,0.214092156818 L-60.0,0.664258677989 " />
			<path d="M-60.0,0.492795608987 L-60.0,0.6642586779887685 " />
			<path d="M0.0,0.214092156818 L0.0,0.5341765079884002 " />
			<path d="M0.0,0.534176507988 L-60.0,0.954471763359 " />
			<path d="M-60.0,0.664258677989 L-60.0,0.9544717633592488 " />
			<path d="M0.0,0.534176507988 L0.0,0.9913346433978065 " />
			<path d="M0.0,0.991334643398 L-60.0,1.36240576226 " />
			<path d="M-60.0,0.954471763359 L-60.0,1.3624057622600576 " />
			<path d="M0.0,0.991334643398 L0.0,1.5779804884291715 " />
			<path d="M0.0,1.577980488429 L-60.0,1.884629526891 " />
			<path d="M-60.0,1.36240576226 L-60.0,1.8846295268907691 " />
			<path d="M0.0,1.577980488429 L0.0,2.28329814930894 " />
			<path d="M0.0,2.283298149309 L-60.0,2.514744142418 " />
			<path d="M-60.0,1.884629526891 L-60.0,2.5147441424181354 " />
			<path d="M0.0,2.283298149309 L0.0,3.0933321908311258 " />
			<path d="M0.0,3.093332190831 L-60.0,3.243077981656 " />
			<path d="M-60.0,2.514744142418 L-60.0,3.243077981656381 " />
			<path d="M0.0,3.093332190831 L0.0,3.991308998867023 " />
			<path d="M0.0,3.991308998867 L-60.0,4.056703098576 " />
			<path d="M-60.0,3.243077981656 L-60.0,4.0567030985761985 " />
			<path d="M0.0,3.991308998867 L0.0,4.958180460232014 " />
			<path d="M0.0,4.958180460232 L-60.0,4.939758304144 " />
			<path d="M-60.0,4.056703098576 L-60.0,4.9397583041438615 " />
			<path d="M0.0,4.958180460232 L0.0,5.973327001093005 " />
			<path d="M0.0,5.973327001093 L-60.0,5.856247539779 " />
			<path d="M-60.0,4.939758304144 L-60.0,5.856247539779087 " />
			<path d="M0.0,5.973327001093 L0.0,7.000249962918964 " />
			<path d="M0.0,7.000249962919 L-60.0,6.795631134871 " />
			<path d="M-60.0,5.856247539779 L-60.0,6.795631134870748 " />
			<path d="M0.0,7.000249962919 L0.0,8.034458296806068 " />
			<path d="M0.0,8.034458296806 L-60.0,7.738613737319 " />
			<path d="M-60.0,6.795631134871 L-60.0,7.738613737319089 " />
			<path d="M0.0,8.034458296806 L0.0,9.056479092249976 " />
			<path d="M0.0,9.05647909225 L-60.0,8.6654626858 " />
			<path d="M-60.0,7.738613737319 L-60.0,8.665462685800321 " />
			<path d="M0.0,9.05647909225 L0.0,10.04695417546987 " />
			<path d="M0.0,10.04695417547 L-60.0,9.556814861077 " />
			<path d="M-60.0,8.6654626858 L-60.0,9.556814861076903 " />
			<path d="M0.0,10.04695417547 L0.0,10.987412748691142 " />
			<path d="M0.0,10.987412748691 L-60.0,10.394058957979 " />
			<path d="M-60.0,9.556814861077 L-60.0,10.394058957978967 " />
			<path d="M0.0,10.987412748691 L0.0,11.860585998158898 " />
			<path d="M0.0,11.860585998159 L-60.0,11.159674676658 " />
			<path d="M-60.0,10.394058957979 L-60.0,11.159674676658074 " />
			<path d="M0.0,11.860585998159 L0.0,12.650688827491093 " />
			<path d="M0.0,12.650688827491 L-60.0,11.837553686258 " />
			<path d="M-60.0,11.159674676658 L-60.0,11.837553686257875 " />
			<path d="M0.0,12.650688827491 L0.0,13.343667645466958 " />
			<path d="M0.0,13.343667645467 L-60.0,12.413318434105 " />
			<path d="M-60.0,11.837553686258 L-60.0,12.413318434105236 " />
			<path d="M0.0,13.343667645467 L0.0,13.92740596550995 " />
			<path d="M0.0,13.92740596551 L-60.0,12.874640612841 " />
			<path d="M-60.0,12.413318434105 L-60.0,12.874640612840892 " />
			<path d="M0.0,13.92740596551 L0.0,14.391877977917085 " />
			<path d="M0.0,14.391877977917 L-60.0,13.211547366565 " />
			<path d="M-60.0,12.874640612841 L-60.0,13.211547366565114 " />
			<path d="M0.0,14.391877977917 L0.0,14.729245687340088 " />
			<path d="M0.0,14.72924568734 L-60.0,13.416694330885 " />
			<path d="M-60.0,13.211547366565 L-60.0,13.416694330884994 " />
			<path d="M0.0,14.72924568734 L0.0,14.933905251629023 " />
			<path d="M0.0,14.933905251629 L-35.61147233513746,14.074289819266273 " />
			<path d="M-60.0,13.416694330885 L-60.0,13.485581928841825 " />
			<path d="M0.0,14.933905251629 L0.0,15.002497894309982 " />

       </g>

       <!-- solid lines -->
       <g  stroke="rgb(0,0,0)" fill="none">
			<path d="M0.0,0.0 L-60.0,0.439410440022 " />
			<path d="M-35.61147233513746,14.074289819266273 L-60.0,13.485581928842 " />
			<path d="M0.0,15.00249789431 L-35.61147233513746,14.074289819266273 " />
			<path d="M-35.61147233513746,14.074289819266273 L-60.0,13.43860623663 " />
			<path d="M-60.0,13.485581928842 L-60.0,13.438606236630445 " />
			<path d="M0.0,15.00249789431 L0.0,14.92638393891605 " />
			<path d="M0.0,14.926383938916 L-60.0,13.255795907786 " />
			<path d="M-60.0,13.43860623663 L-60.0,13.255795907786013 " />
			<path d="M0.0,14.926383938916 L0.0,14.714513622877 " />
			<path d="M0.0,14.714513622877 L-60.0,12.955541353426 " />
			<path d="M-60.0,13.255795907786 L-60.0,12.95554135342587 " />
			<path d="M0.0,14.714513622877 L0.0,14.366291544665 " />
			<path d="M0.0,14.366291544665 L-60.0,12.544355858584 " />
			<path d="M-60.0,12.955541353426 L-60.0,12.544355858584229 " />
			<path d="M0.0,14.366291544665 L0.0,13.888885102688 " />
			<path d="M-60.0,12.544355858584 L-60.0,12.03109398291574 " />
			<path d="M0.0,13.888885102688 L0.0,13.292001715099 " />
			<path d="M-60.0,12.031093982916 L-60.0,11.426682961381172 " />
			<path d="M0.0,13.292001715099 L0.0,12.587608320788 " />
			<path d="M-60.0,11.426682961381 L-60.0,10.7437755037659 " />
			<path d="M0.0,12.587608320788 L0.0,11.789618833564 " />
			<path d="M-60.0,10.743775503766 L-60.0,9.996331590844902 " />
			<path d="M0.0,11.789618833564 L0.0,10.913562817276 " />
			<path d="M-60.0,9.996331590845 L-60.0,9.199148362625035 " />
			<path d="M0.0,10.913562817276 L0.0,9.976240007095015 " />
			<path d="M-60.0,9.199148362625 L-60.0,8.36737157660315 " />
			<path d="M0.0,9.976240007095 L0.0,8.99536110354 " />
			<path d="M-60.0,8.367371576603 L-60.0,7.516035177488725 " />
			<path d="M0.0,8.99536110354 L0.0,7.989177903664 " />
			<path d="M-60.0,7.516035177489 L-60.0,6.659681393779134 " />
			<path d="M0.0,7.989177903664 L0.0,6.9761138366109625 " />
			<path d="M-60.0,6.659681393779 L-60.0,5.812472283919913 " />
			<path d="M0.0,6.976113836611 L0.0,5.9748328031170335 " />
			<path d="M-60.0,5.81247228392 L-60.0,5.005329137481948 " />
			<path d="M0.0,5.974832803117 L0.0,5.018625357202981 " />
			<path d="M-60.0,5.005329137482 L-60.0,4.239099105563472 " />
			<path d="M0.0,5.018625357203 L0.0,4.1077154351649945 " />
			<path d="M0.0,4.107715435165 L-60.0,3.522169314756 " />
			<path d="M-60.0,4.239099105564 L-60.0,3.522169314755933 " />
			<path d="M0.0,4.107715435165 L0.0,3.2564629774460156 " />
			<path d="M0.0,3.256462977446 L-60.0,2.862239519617 " />
			<path d="M-60.0,3.522169314756 L-60.0,2.862239519617103 " />
			<path d="M0.0,3.256462977446 L0.0,2.47840470241099 " />
			<path d="M0.0,2.478404702411 L-60.0,2.26672778194 " />
			<path d="M-60.0,2.862239519617 L-60.0,2.266727781940044 " />
			<path d="M0.0,2.478404702411 L0.0,1.7863501510040045 " />
			<path d="M0.0,1.786350151004 L-60.0,1.742983327401 " />
			<path d="M-60.0,2.26672778194 L-60.0,1.7429833274011062 " />
			<path d="M0.0,1.786350151004 L0.0,1.1923742884050257 " />
			<path d="M0.0,1.192374288405 L-60.0,1.298250082085 " />
			<path d="M-60.0,1.742983327401 L-60.0,1.298250082084898 " />
			<path d="M0.0,1.192374288405 L0.0,0.70765396942995 " />
			<path d="M0.0,0.70765396943 L-60.0,0.939397543726 " />
			<path d="M-60.0,1.298250082085 L-60.0,0.9393975437258735 " />
			<path d="M0.0,0.70765396943 L0.0,0.3421485329651465 " />
			<path d="M0.0,0.342148532965 L-60.0,0.672502390447 " />
			<path d="M-60.0,0.939397543726 L-60.0,0.6725023904470455 " />
			<path d="M0.0,0.342148532965 L0.0,0.10417931697272528 " />
			<path d="M0.0,0.104179316973 L-60.0,0.502404735808 " />
			<path d="M-60.0,0.672502390447 L-60.0,0.5024047358081807 " />
			<path d="M0.0,0.104179316973 L0.0,6.772360450213455e-15 " />
			<path d="M-60.0,0.502404735808 L-60.0,0.43941044002105223 " />
			<path d="M0.0,13.888885102688 L-60.0,12.031093982916 " />
			<path d="M0.0,13.292001715099 L-60.0,11.426682961381 " />
			<path d="M0.0,12.587608320788 L-60.0,10.743775503766 " />
			<path d="M0.0,11.789618833564 L-60.0,9.996331590845 " />
			<path d="M0.0,10.913562817276 L-60.0,9.199148362625 " />
			<path d="M0.0,9.976240007095 L-60.0,8.367371576603 " />
			<path d="M0.0,8.99536110354 L-60.0,7.516035177489 " />
			<path d="M0.0,7.989177903664 L-60.0,6.659681393779 " />
			<path d="M0.0,6.976113836611 L-60.0,5.81247228392 " />
			<path d="M0.0,5.974832803117 L-60.0,5.005329137482 " />
			<path d="M0.0,5.018625357203 L-60.0,4.239099105564 " />

       </g>
    </g>
  </g>
  <clipPath id="clip_top"><rect x="805" y="42" width="739" height="452"/></clipPath>
  <g clip-path="url(#clip_top)" transform="translate(805,68)">
    <g transform="scale(23.672584195238382, -23.672584195238382)   translate(8.448591869724446,-6.487332523588446)" stroke-width="0.04224295884862223"  fill="none">
       <!-- hidden lines -->
       <g  stroke="rgb(160,160,160)" fill="none" stroke-dasharray="0.04224295884862223,0.04224295884862223" >
			<path d="M3.0911255391088366,1.3327407226424666 L3.0933321908311258,1.333129705988287 " />
			<path d="M3.093332190831,1.333129705989 L3.991308998867023,1.4318034830497914 " />
			<path d="M3.991308998867,1.43180348305 L4.056703098576,1.885135570892 " />
			<path d="M3.991308998867,1.43180348305 L4.958180460232014,1.4792237446817162 " />
			<path d="M4.958180460232,1.479223744682 L4.939758304144,2.385932170682 " />
			<path d="M4.958180460232,1.479223744682 L5.973327001093005,1.4713987194456308 " />
			<path d="M5.973327001093,1.471398719445 L5.856247539779,2.852372173624 " />
			<path d="M5.973327001093,1.471398719445 L7.000249962918964,1.4171029935163317 " />
			<path d="M7.000249962919,1.417102993517 L6.795631134871,3.293728726902 " />
			<path d="M7.000249962919,1.417102993517 L8.034458296806068,1.329637183236827 " />
			<path d="M8.034458296806,1.329637183236 L7.738613737319,3.704476539695 " />
			<path d="M8.034458296806,1.329637183236 L9.056479092249976,1.2138639224398022 " />
			<path d="M9.05647909225,1.21386392244 L8.6654626858,4.080077236424 " />
			<path d="M9.05647909225,1.21386392244 L10.04695417546987,1.0757191932450618 " />
			<path d="M10.04695417547,1.075719193246 L9.556814861077,4.417127127852 " />
			<path d="M10.04695417547,1.075719193246 L10.987412748691142,0.9219368739278725 " />
			<path d="M10.987412748691,0.921936873927 L10.394058957979,4.713324312616 " />
			<path d="M10.987412748691,0.921936873927 L11.860585998158898,0.7598291120104528 " />
			<path d="M11.860585998159,0.759829112011 L11.159674676658,4.967444647454 " />
			<path d="M11.860585998159,0.759829112011 L12.650688827491093,0.5970959182594501 " />
			<path d="M12.650688827491,0.597095918259 L11.837553686258,5.179281397395 " />
			<path d="M12.650688827491,0.597095918259 L13.343667645466958,0.4416124203638093 " />
			<path d="M13.343667645467,0.441612420364 L12.413318434105,5.349504241001 " />
			<path d="M13.343667645467,0.441612420364 L13.92740596550995,0.301147353306793 " />
			<path d="M13.92740596551,0.301147353307 L12.874640612841,5.479414813586 " />
			<path d="M13.92740596551,0.301147353307 L14.391877977917085,0.1829921200183328 " />
			<path d="M14.391877977917,0.182992120018 L13.211547366565,5.570610617569 " />
			<path d="M14.391877977917,0.182992120018 L14.729245687340088,0.09351662612335661 " />
			<path d="M14.72924568734,0.09351662612303 L13.416694330885,5.624604780927 " />
			<path d="M14.72924568734,0.09351662612303 L14.933905251629023,0.03770346108734416 " />
			<path d="M14.933905251629,0.03770346108726 L14.21870830924766,2.8053963859294244 " />
			<path d="M14.933905251629,0.03770346108726 L15.002497894309982,0.01873420732283302 " />
			<path d="M4.546416756647757,-0.3368086410664971 L4.1077154351649945,-0.3586169027688985 " />
			<path d="M4.107715435165,-0.358616902769 L3.7293770139400277,-0.5097095669334584 " />
			<path d="M4.107715435165,-0.358616902769 L3.2564629774460156,-0.39916982799232853 " />
			<path d="M3.256462977446,-0.399169827992 L2.862239519617,-1.005544338202 " />
			<path d="M3.256462977446,-0.399169827992 L2.47840470241099,-0.4269467013227336 " />
			<path d="M2.478404702411,-0.426946701323 L2.26672778194,-1.358196854857 " />
			<path d="M2.478404702411,-0.426946701323 L1.7863501510040045,-0.4345968706164103 " />
			<path d="M1.786350151004,-0.434596870616 L1.742983327401,-1.638996574612 " />
			<path d="M1.786350151004,-0.434596870616 L1.1923742884050257,-0.41590433403017446 " />
			<path d="M1.192374288405,-0.415904334031 L1.298250082085,-1.838136635858 " />
			<path d="M1.192374288405,-0.415904334031 L0.70765396942995,-0.36599806332248513 " />
			<path d="M0.70765396943,-0.365998063322 L0.939397543726,-1.947596679925 " />
			<path d="M0.70765396943,-0.365998063322 L0.3421485329651465,-0.2813669730033669 " />
			<path d="M0.342148532965,-0.281366973004 L0.672502390447,-1.961259146136 " />
			<path d="M0.342148532965,-0.281366973004 L0.10417931697272528,-0.15975143918253737 " />
			<path d="M0.104179316973,-0.159751439182 L0.502404735808,-1.875 " />
			<path d="M0.104179316973,-0.159751439182 L6.772360450213455e-15,4.413136522884997e-15 " />

       </g>

       <!-- solid lines -->
       <g  stroke="rgb(0,0,0)" fill="none">
			<path d="M0.0,0.0 L0.03553149248177457,0.18753094182101426 " />
			<path d="M0.03553149248185,0.187530941821 L0.492795608987,-1.430172190494 " />
			<path d="M0.439410440022,-1.694827694146 L0.4927956089874614,-1.430172190494093 " />
			<path d="M0.0,0.0 L0.439410440022,-1.694827694146 " />
			<path d="M0.03553149248185,0.187530941821 L0.21409215681758106,0.39003674675236955 " />
			<path d="M0.214092156818,0.390036746752 L0.664258677989,-1.086986235286 " />
			<path d="M0.492795608987,-1.430172190494 L0.6642586779887685,-1.0869862352858841 " />
			<path d="M0.214092156818,0.390036746752 L0.5341765079884002,0.6015129676833942 " />
			<path d="M0.534176507988,0.601512967684 L0.954471763359,-0.675333773348 " />
			<path d="M0.664258677989,-1.086986235286 L0.9544717633592488,-0.6753337733481752 " />
			<path d="M0.534176507988,0.601512967684 L0.9913346433978065,0.8129079145674185 " />
			<path d="M0.991334643398,0.812907914567 L1.36240576226,-0.208604495518 " />
			<path d="M0.954471763359,-0.675333773348 L1.3624057622600576,-0.20860449551805021 " />
			<path d="M0.991334643398,0.812907914567 L1.5779804884291715,1.013140326407498 " />
			<path d="M1.577980488429,1.013140326408 L1.884629526891,0.297512732982 " />
			<path d="M1.36240576226,-0.208604495518 L1.8846295268907691,0.2975127329822387 " />
			<path d="M1.577980488429,1.013140326408 L2.28329814930894,1.190338821266239 " />
			<path d="M2.283298149309,1.190338821266 L2.514744142418,0.826190287341 " />
			<path d="M1.884629526891,0.297512732982 L2.5147441424181354,0.8261902873408384 " />
			<path d="M2.283298149309,1.190338821266 L3.0911255391088366,1.3327407226424666 " />
			<path d="M3.093332190831,1.333129705989 L3.0955355677301117,1.3335343880641992 " />
			<path d="M3.0955355677301117,1.3335343880641992 L3.1158125317506835,1.3372585461426 " />
			<path d="M3.1158125317506835,1.3372585461426 L3.243077981656,1.360632688982 " />
			<path d="M2.514744142418,0.826190287341 L3.243077981656381,1.3606326889814813 " />
			<path d="M3.243077981656,1.360632688982 L3.3600380744810905,1.436030933799462 " />
			<path d="M3.3600380744810905,1.436030933799462 L4.0567030985761985,1.8851355708916937 " />
			<path d="M4.056703098576,1.885135570892 L4.9397583041438615,2.385932170682245 " />
			<path d="M4.939758304144,2.385932170682 L5.856247539779087,2.852372173623829 " />
			<path d="M5.856247539779,2.852372173624 L6.795631134870748,3.293728726902538 " />
			<path d="M6.795631134871,3.293728726902 L7.738613737319089,3.704476539694795 " />
			<path d="M7.738613737319,3.704476539695 L8.665462685800321,4.080077236423208 " />
			<path d="M8.6654626858,4.080077236424 L9.556814861076903,4.417127127852254 " />
			<path d="M9.556814861077,4.417127127852 L10.394058957978967,4.713324312616095 " />
			<path d="M10.394058957979,4.713324312616 L11.159674676658074,4.967444647453776 " />
			<path d="M11.159674676658,4.967444647454 L11.837553686257875,5.179281397395397 " />
			<path d="M11.837553686258,5.179281397395 L12.413318434105236,5.349504241000203 " />
			<path d="M12.413318434105,5.349504241001 L12.874640612840892,5.479414813586386 " />
			<path d="M12.874640612841,5.479414813586 L13.211547366565114,5.570610617568581 " />
			<path d="M13.211547366565,5.570610617569 L13.416694330884994,5.624604780927026 " />
			<path d="M14.21870830924766,2.8053963859294244 L13.485581928842,5.642473246616 " />
			<path d="M13.416694330885,5.624604780927 L13.485581928841825,5.642473246616682 " />
			<path d="M15.00249789431,0.0187342073229 L14.242675469029344,2.7166188361788874 " />
			<path d="M14.242675469029344,2.7166188361788874 L13.43860623663,5.57160962146 " />
			<path d="M13.485581928842,5.642473246616 L13.438606236630445,5.5716096214597055 " />
			<path d="M15.00249789431,0.0187342073229 L14.92638393891605,-0.01914764616104852 " />
			<path d="M14.926383938916,-0.01914764616095 L13.255795907786,5.46450576709 " />
			<path d="M13.43860623663,5.57160962146 L13.255795907786013,5.46450576708998 " />
			<path d="M14.926383938916,-0.01914764616095 L14.714513622877,-0.020497140466666498 " />
			<path d="M14.714513622877,-0.02049714046667 L12.955541353426,5.288117754021 " />
			<path d="M13.255795907786,5.46450576709 L12.95554135342587,5.28811775402122 " />
			<path d="M14.714513622877,-0.02049714046667 L14.366291544665,-0.0231263635273683 " />
			<path d="M14.366291544665,-0.02312636352737 L12.544355858584,5.045499038467 " />
			<path d="M12.955541353426,5.288117754021 L12.544355858584229,5.045499038466611 " />
			<path d="M14.366291544665,-0.02312636352737 L13.888885102688,-0.027647587210026303 " />
			<path d="M12.544355858584,5.045499038467 L12.03109398291574,4.740727909535437 " />
			<path d="M13.888885102688,-0.02764758721002 L13.292001715099,-0.034956189370594505 " />
			<path d="M12.031093982916,4.740727909535 L11.426682961381172,4.378811718865712 " />
			<path d="M13.292001715099,-0.03495618937059 L12.587608320788,-0.046179293763561585 " />
			<path d="M11.426682961381,4.378811718866 L10.7437755037659,3.965663157875168 " />
			<path d="M12.587608320788,-0.04617929376356 L11.789618833564,-0.06252271431142559 " />
			<path d="M10.743775503766,3.965663157875 L9.996331590844902,3.508161958286159 " />
			<path d="M11.789618833564,-0.06252271431144 L10.913562817276,-0.08500841895648478 " />
			<path d="M9.996331590845,3.508161958286 L9.199148362625035,3.014278192143941 " />
			<path d="M10.913562817276,-0.08500841895649 L9.976240007095015,-0.11413269284243455 " />
			<path d="M9.199148362625,3.014278192144 L8.36737157660315,2.4932000389777613 " />
			<path d="M9.976240007095,-0.114132692842 L8.99536110354,-0.14951121783002133 " />
			<path d="M8.367371576603,2.493200038978 L7.516035177488725,1.9553915368244361 " />
			<path d="M8.99536110354,-0.14951121783 L7.989177903664,-0.18959884350899442 " />
			<path d="M7.516035177489,1.955391536824 L6.659681393779134,1.412511665358788 " />
			<path d="M7.989177903664,-0.189598843509 L6.9761138366109625,-0.23156971154610329 " />
			<path d="M6.659681393779,1.412511665359 L5.812472283919913,0.8773588212831374 " />
			<path d="M6.976113836611,-0.231569711547 L5.9748328031170335,-0.2714211144948359 " />
			<path d="M5.81247228392,0.877358821283 L5.005329137481948,0.3629568680660813 " />
			<path d="M5.974832803117,-0.271421114494 L5.018625357202981,-0.31333470051758144 " />
			<path d="M5.005329137482,0.362956868066 L4.239099105563472,-0.1317136304411839 " />
			<path d="M5.018625357203,-0.313334700518 L4.546416756647757,-0.3368086410664971 " />
			<path d="M3.7293770139400277,-0.5097095669334584 L3.717207929168412,-0.51456939436688 " />
			<path d="M3.717207929168412,-0.51456939436688 L3.522169314756,-0.592459722743 " />
			<path d="M4.239099105564,-0.131713630442 L3.522169314755933,-0.5924597227428967 " />
			<path d="M3.522169314756,-0.592459722743 L3.34430636907288,-0.7037934540931385 " />
			<path d="M3.34430636907288,-0.7037934540931385 L2.862239519617103,-1.0055443382021647 " />
			<path d="M2.862239519617,-1.005544338202 L2.266727781940044,-1.358196854857075 " />
			<path d="M2.26672778194,-1.358196854857 L1.7429833274011062,-1.638996574612198 " />
			<path d="M1.742983327401,-1.638996574612 L1.298250082084898,-1.8381366358577722 " />
			<path d="M1.298250082085,-1.838136635858 L0.9393975437258735,-1.9475966799245852 " />
			<path d="M0.939397543726,-1.947596679925 L0.6725023904470455,-1.9612591461368905 " />
			<path d="M0.672502390447,-1.961259146136 L0.5024047358081807,-1.8749999999996436 " />
			<path d="M0.502404735808,-1.875 L0.43941044002105223,-1.6948276941463316 " />
			<path d="M13.888885102688,-0.02764758721002 L12.031093982916,4.740727909535 " />
			<path d="M13.292001715099,-0.03495618937059 L11.426682961381,4.378811718866 " />
			<path d="M12.587608320788,-0.04617929376356 L10.743775503766,3.965663157875 " />
			<path d="M11.789618833564,-0.06252271431144 L9.996331590845,3.508161958286 " />
			<path d="M10.913562817276,-0.08500841895649 L9.199148362625,3.014278192144 " />
			<path d="M9.976240007095,-0.114132692842 L8.367371576603,2.493200038978 " />
			<path d="M8.99536110354,-0.14951121783 L7.516035177489,1.955391536824 " />
			<path d="M7.989177903664,-0.189598843509 L6.659681393779,1.412511665359 " />
			<path d="M6.976113836611,-0.231569711547 L5.81247228392,0.877358821283 " />
			<path d="M5.974832803117,-0.271421114494 L5.005329137482,0.362956868066 " />
			<path d="M5.018625357203,-0.313334700518 L4.239099105564,-0.131713630442 " />
			<path d="M3.091125539108956,1.3327407226432209 L3.092624844504746,1.333006896053248 L3.0941233936085633,1.3332766949487727 L3.0955355677301117,1.3335343880641992 " />
			<path d="M3.36003807448104,1.4360309337994916 L3.3009139965120617,1.401583345564069 L3.240501703927198,1.373638739365725 L3.178801210588394,1.3521971352280648 L3.115812531750684,1.3372585461426003 " />
			<path d="M14.242675469029344,2.7166188361788874 L14.21870830924766,2.8053963859294244 " />
			<path d="M3.7293770139400277,-0.5097095669334583 L3.824906017162764,-0.4739560404259006 L3.922321217813044,-0.4422428120428429 L4.021622520094789,-0.41456987992024086 L4.122809821832983,-0.3909372285233007 L4.225883014474511,-0.371344828647424 L4.330841983089515,-0.35579263741847533 L4.437686606373319,-0.34428059829445234 L4.5464167566472184,-0.33680864106657654 " />
			<path d="M3.344306369072995,-0.7037934540930046 L3.4343112940336686,-0.6502168164666406 L3.5264632497878017,-0.6008205644290074 L3.6207621571061086,-0.5556047459872473 L3.7172079291684113,-0.5145693943668803 " />

       </g>
    </g>
  </g>
  <clipPath id="clip_right"><rect x="42" y="518" width="739" height="452"/></clipPath>
  <g clip-path="url(#clip_right)" transform="translate(42,544)">
    <g transform="scale(9.999999966666667, -9.999999966666667)   translate(20.000000166666666,-3.961259252802666)" stroke-width="0.10000000033333332"  fill="none">
       <!-- hidden lines -->
       <g  stroke="rgb(160,160,160)" fill="none" stroke-dasharray="0.10000000033333332,0.10000000033333332" >
			<path d="M0.0,0.0 L0.0,-0.18753094182101426 " />
			<path d="M0.0,-0.187530941821 L60.0,1.430172190494 " />
			<path d="M60.0,1.694827694146 L60.0,1.430172190494093 " />
			<path d="M0.0,0.0 L60.0,1.694827694146 " />
			<path d="M0.0,-0.187530941821 L0.0,-0.39003674675236955 " />
			<path d="M0.0,-0.390036746752 L60.0,1.086986235286 " />
			<path d="M60.0,1.430172190494 L60.0,1.0869862352858841 " />
			<path d="M0.0,-0.390036746752 L0.0,-0.6015129676833942 " />
			<path d="M0.0,-0.601512967684 L60.0,0.675333773348 " />
			<path d="M60.0,1.086986235286 L60.0,0.6753337733481752 " />
			<path d="M0.0,-0.601512967684 L0.0,-0.8129079145674185 " />
			<path d="M0.0,-0.812907914567 L60.0,0.208604495518 " />
			<path d="M60.0,0.675333773348 L60.0,0.20860449551805021 " />
			<path d="M0.0,-0.812907914567 L0.0,-1.013140326407498 " />
			<path d="M0.0,-1.013140326408 L60.0,-0.297512732982 " />
			<path d="M60.0,0.208604495518 L60.0,-0.2975127329822387 " />
			<path d="M0.0,-1.013140326408 L0.0,-1.190338821266239 " />
			<path d="M0.0,-1.190338821266 L60.0,-0.826190287341 " />
			<path d="M60.0,-0.297512732982 L60.0,-0.8261902873408384 " />
			<path d="M0.0,-1.190338821266 L0.0,-1.333129705988287 " />
			<path d="M0.0,-1.333129705989 L60.0,-1.360632688982 " />
			<path d="M60.0,-0.826190287341 L60.0,-1.3606326889814813 " />
			<path d="M0.0,-1.333129705989 L0.0,-1.4318034830497914 " />
			<path d="M0.0,-1.43180348305 L60.0,-1.885135570892 " />
			<path d="M60.0,-1.360632688982 L60.0,-1.8851355708916937 " />
			<path d="M0.0,-1.43180348305 L0.0,-1.4792237446817162 " />
			<path d="M0.9899560084004344,-1.4941837689184332 L60.0,-2.385932170682 " />
			<path d="M60.0,-1.885135570892 L60.0,-2.385932170682245 " />
			<path d="M6.57263911082719,-1.6226760550441837 L60.0,-2.852372173624 " />
			<path d="M60.0,-2.385932170682 L60.0,-2.852372173623829 " />
			<path d="M10.533530946986009,-1.7465612474923535 L60.0,-3.293728726902 " />
			<path d="M60.0,-2.852372173624 L60.0,-3.293728726902538 " />
			<path d="M14.136678473454886,-1.8891761900421233 L60.0,-3.704476539695 " />
			<path d="M60.0,-3.293728726902 L60.0,-3.704476539694795 " />
			<path d="M17.44271376807808,-2.0471062296746236 L60.0,-4.080077236424 " />
			<path d="M60.0,-3.704476539695 L60.0,-4.080077236423208 " />
			<path d="M20.50524318422749,-2.2176588978593887 L60.0,-4.417127127852 " />
			<path d="M60.0,-4.080077236424 L60.0,-4.417127127852254 " />
			<path d="M23.368114240275677,-2.3985631205341793 L60.0,-4.713324312616 " />
			<path d="M60.0,-4.417127127852 L60.0,-4.713324312616095 " />
			<path d="M26.067205309784907,-2.5878420791282206 L60.0,-4.967444647454 " />
			<path d="M60.0,-4.713324312616 L60.0,-4.967444647453776 " />
			<path d="M28.6423955723667,-2.784508736248466 L60.0,-5.179281397395 " />
			<path d="M60.0,-4.967444647454 L60.0,-5.179281397395397 " />
			<path d="M31.171092316524017,-2.9913515707071507 L60.0,-5.349504241001 " />
			<path d="M60.0,-5.179281397395 L60.0,-5.349504241000203 " />
			<path d="M33.863285750665675,-3.2236998649870268 L60.0,-5.479414813586 " />
			<path d="M60.0,-5.349504241001 L60.0,-5.479414813586386 " />
			<path d="M37.419268551204766,-3.5430045102063206 L60.0,-5.570610617569 " />
			<path d="M60.0,-5.479414813586 L60.0,-5.570610617568581 " />
			<path d="M45.4494542154644,-4.283265590347371 L60.0,-5.624604780927 " />
			<path d="M60.0,-5.570610617569 L60.0,-5.624604780927026 " />
			<path d="M60.0,-5.624604780927 L60.0,-5.642473246616682 " />
			<path d="M0.0,0.434596870616 L0.0,0.41590433403017446 " />
			<path d="M0.0,0.415904334031 L5.1486885170883685,0.5379481860484806 " />
			<path d="M0.0,0.415904334031 L0.0,0.36599806332248513 " />
			<path d="M0.0,0.365998063322 L18.78926702138276,0.8612827087887224 " />
			<path d="M0.0,0.365998063322 L0.0,0.2813669730033669 " />
			<path d="M0.0,0.281366973004 L51.6602064101918,1.7277599131850796 " />
			<path d="M0.0,0.281366973004 L0.0,0.15975143918253737 " />
			<path d="M0.0,0.159751439182 L60.0,1.875 " />
			<path d="M60.0,1.961259146136 L60.0,1.8749999999996436 " />
			<path d="M0.0,0.159751439182 L0.0,-4.413136522884997e-15 " />
			<path d="M60.0,1.875 L60.0,1.6948276941463316 " />

       </g>

       <!-- solid lines -->
       <g  stroke="rgb(0,0,0)" fill="none">
			<path d="M0.0,-1.479223744682 L0.9899560084004344,-1.4941837689184332 " />
			<path d="M0.0,-1.479223744682 L0.0,-1.4713987194456308 " />
			<path d="M0.0,-1.471398719445 L0.9899560084004344,-1.4941837689184334 " />
			<path d="M0.9899560084004344,-1.4941837689184334 L6.57263911082719,-1.6226760550441837 " />
			<path d="M0.0,-1.471398719445 L0.0,-1.4171029935163317 " />
			<path d="M0.0,-1.417102993517 L6.57263911082719,-1.6226760550441837 " />
			<path d="M6.57263911082719,-1.6226760550441837 L10.533530946986009,-1.7465612474923535 " />
			<path d="M0.0,-1.417102993517 L0.0,-1.329637183236827 " />
			<path d="M0.0,-1.329637183236 L10.533530946986009,-1.7465612474923535 " />
			<path d="M10.533530946986009,-1.7465612474923535 L14.136678473454886,-1.8891761900421233 " />
			<path d="M0.0,-1.329637183236 L0.0,-1.2138639224398022 " />
			<path d="M0.0,-1.21386392244 L14.136678473454886,-1.8891761900421233 " />
			<path d="M14.136678473454886,-1.8891761900421233 L17.44271376807808,-2.0471062296746236 " />
			<path d="M0.0,-1.21386392244 L0.0,-1.0757191932450618 " />
			<path d="M0.0,-1.075719193246 L17.44271376807808,-2.0471062296746236 " />
			<path d="M17.44271376807808,-2.0471062296746236 L20.50524318422749,-2.2176588978593887 " />
			<path d="M0.0,-1.075719193246 L0.0,-0.9219368739278725 " />
			<path d="M0.0,-0.921936873927 L20.50524318422749,-2.2176588978593887 " />
			<path d="M20.50524318422749,-2.2176588978593887 L23.368114240275677,-2.3985631205341793 " />
			<path d="M0.0,-0.921936873927 L0.0,-0.7598291120104528 " />
			<path d="M0.0,-0.759829112011 L23.368114240275677,-2.3985631205341793 " />
			<path d="M23.368114240275677,-2.3985631205341793 L26.067205309784907,-2.5878420791282206 " />
			<path d="M0.0,-0.759829112011 L0.0,-0.5970959182594501 " />
			<path d="M0.0,-0.597095918259 L26.067205309784907,-2.5878420791282206 " />
			<path d="M26.067205309784907,-2.5878420791282206 L28.6423955723667,-2.784508736248466 " />
			<path d="M0.0,-0.597095918259 L0.0,-0.4416124203638093 " />
			<path d="M0.0,-0.441612420364 L28.6423955723667,-2.7845087362484655 " />
			<path d="M28.6423955723667,-2.7845087362484655 L31.171092316524017,-2.9913515707071507 " />
			<path d="M0.0,-0.441612420364 L0.0,-0.301147353306793 " />
			<path d="M0.0,-0.301147353307 L31.171092316524017,-2.991351570707151 " />
			<path d="M31.171092316524017,-2.991351570707151 L33.863285750665675,-3.2236998649870268 " />
			<path d="M0.0,-0.301147353307 L0.0,-0.1829921200183328 " />
			<path d="M0.0,-0.182992120018 L33.863285750665675,-3.2236998649870268 " />
			<path d="M33.863285750665675,-3.2236998649870268 L37.419268551204766,-3.5430045102063206 " />
			<path d="M0.0,-0.182992120018 L0.0,-0.09351662612335661 " />
			<path d="M0.0,-0.09351662612303 L37.419268551204766,-3.54300451020632 " />
			<path d="M37.419268551204766,-3.54300451020632 L45.4494542154644,-4.283265590347371 " />
			<path d="M0.0,-0.09351662612303 L0.0,-0.03770346108734416 " />
			<path d="M0.0,-0.03770346108726 L45.4494542154644,-4.283265590347371 " />
			<path d="M45.4494542154644,-4.283265590347371 L60.0,-5.642473246616 " />
			<path d="M0.0,-0.03770346108726 L0.0,-0.01873420732283302 " />
			<path d="M0.0,-0.0187342073229 L60.0,-5.57160962146 " />
			<path d="M60.0,-5.642473246616 L60.0,-5.5716096214597055 " />
			<path d="M0.0,-0.0187342073229 L0.0,0.01914764616104852 " />
			<path d="M0.0,0.01914764616095 L60.0,-5.46450576709 " />
			<path d="M60.0,-5.57160962146 L60.0,-5.46450576708998 " />
			<path d="M0.0,0.01914764616095 L0.0,0.020497140466666498 " />
			<path d="M0.0,0.02049714046667 L60.0,-5.288117754021 " />
			<path d="M60.0,-5.46450576709 L60.0,-5.28811775402122 " />
			<path d="M0.0,0.02049714046667 L0.0,0.0231263635273683 " />
			<path d="M0.0,0.02312636352737 L60.0,-5.045499038467 " />
			<path d="M60.0,-5.288117754021 L60.0,-5.045499038466611 " />
			<path d="M0.0,0.02312636352737 L0.0,0.027647587210026303 " />
			<path d="M60.0,-5.045499038467 L60.0,-4.740727909535437 " />
			<path d="M0.0,0.02764758721002 L0.0,0.034956189370594505 " />
			<path d="M60.0,-4.740727909535 L60.0,-4.378811718865712 " />
			<path d="M0.0,0.03495618937059 L0.0,0.046179293763561585 " />
			<path d="M60.0,-4.378811718866 L60.0,-3.965663157875168 " />
			<path d="M0.0,0.04617929376356 L0.0,0.06252271431142559 " />
			<path d="M60.0,-3.965663157875 L60.0,-3.508161958286159 " />
			<path d="M0.0,0.06252271431144 L0.0,0.08500841895648478 " />
			<path d="M60.0,-3.508161958286 L60.0,-3.014278192143941 " />
			<path d="M0.0,0.08500841895649 L0.0,0.11413269284243455 " />
			<path d="M60.0,-3.014278192144 L60.0,-2.4932000389777613 " />
			<path d="M0.0,0.114132692842 L0.0,0.14951121783002133 " />
			<path d="M60.0,-2.493200038978 L60.0,-1.9553915368244361 " />
			<path d="M0.0,0.14951121783 L0.0,0.18959884350899442 " />
			<path d="M60.0,-1.955391536824 L60.0,-1.412511665358788 " />
			<path d="M0.0,0.189598843509 L0.0,0.23156971154610329 " />
			<path d="M60.0,-1.412511665359 L60.0,-0.8773588212831374 " />
			<path d="M0.0,0.231569711547 L0.0,0.2714211144948359 " />
			<path d="M60.0,-0.877358821283 L60.0,-0.3629568680660813 " />
			<path d="M0.0,0.271421114494 L0.0,0.31333470051758144 " />
			<path d="M60.0,-0.362956868066 L60.0,0.1317136304411839 " />
			<path d="M0.0,0.313334700518 L0.0,0.3586169027688985 " />
			<path d="M0.0,0.358616902769 L60.0,0.592459722743 " />
			<path d="M60.0,0.131713630442 L60.0,0.5924597227428967 " />
			<path d="M0.0,0.358616902769 L0.0,0.39916982799232853 " />
			<path d="M0.0,0.399169827992 L60.0,1.005544338202 " />
			<path d="M60.0,0.592459722743 L60.0,1.0055443382021647 " />
			<path d="M0.0,0.399169827992 L0.0,0.4269467013227336 " />
			<path d="M0.0,0.426946701323 L60.0,1.358196854857 " />
			<path d="M60.0,1.005544338202 L60.0,1.358196854857075 " />
			<path d="M0.0,0.426946701323 L0.0,0.4345968706164103 " />
			<path d="M0.0,0.434596870616 L5.1486885170883685,0.5379481860484806 " />
			<path d="M5.1486885170883685,0.5379481860484806 L60.0,1.638996574612 " />
			<path d="M60.0,1.358196854857 L60.0,1.638996574612198 " />
			<path d="M5.1486885170883685,0.5379481860484806 L18.78926702138276,0.8612827087887225 " />
			<path d="M18.78926702138276,0.8612827087887225 L60.0,1.838136635858 " />
			<path d="M60.0,1.638996574612 L60.0,1.8381366358577722 " />
			<path d="M18.78926702138276,0.8612827087887224 L51.6602064101918,1.7277599131850796 " />
			<path d="M51.6602064101918,1.7277599131850796 L60.0,1.947596679925 " />
			<path d="M60.0,1.838136635858 L60.0,1.9475966799245852 " />
			<path d="M51.6602064101918,1.7277599131850796 L60.0,1.961259146136 " />
			<path d="M60.0,1.947596679925 L60.0,1.9612591461368905 " />
			<path d="M0.0,0.02764758721002 L60.0,-4.740727909535 " />
			<path d="M0.0,0.03495618937059 L60.0,-4.378811718866 " />
			<path d="M0.0,0.04617929376356 L60.0,-3.965663157875 " />
			<path d="M0.0,0.06252271431144 L60.0,-3.508161958286 " />
			<path d="M0.0,0.08500841895649 L60.0,-3.014278192144 " />
			<path d="M0.0,0.114132692842 L60.0,-2.493200038978 " />
			<path d="M0.0,0.14951121783 L60.0,-1.955391536824 " />
			<path d="M0.0,0.189598843509 L60.0,-1.412511665359 " />
			<path d="M0.0,0.231569711547 L60.0,-0.877358821283 " />
			<path d="M0.0,0.271421114494 L60.0,-0.362956868066 " />
			<path d="M0.0,0.313334700518 L60.0,0.131713630442 " />

       </g>
    </g>
  </g>
  <clipPath id="clip_section"><rect x="805" y="518" width="739" height="452"/></clipPath>
  <g clip-path="url(#clip_section)" transform="translate(805,544)">
    <g transform="scale(9.99999995, -9.99999995)   translate(80.00000030000001,-17.00249800431)" stroke-width="0.1000000005"  fill="none">
       <!-- hidden lines -->
       <g  stroke="rgb(160,160,160)" fill="none" stroke-dasharray="0.1000000005,0.1000000005" >
			<path d="M0.0,0.0 L0.0,0.03553149248177457 " />
			<path d="M0.0,0.03553149248185 L-60.0,0.492795608987 " />
			<path d="M-60.0,0.439410440022 L-60.0,0.4927956089874614 " />
			<path d="M0.0,0.03553149248185 L0.0,0.21409215681758106 " />
			<path d="M0.0,0.214092156818 L0.0,0.5341765079884002 " />
			<path d="M0.0,0.534176507988 L0.0,0.9913346433978065 " />
			<path d="M0.0,0.991334643398 L0.0,1.5779804884291715 " />
			<path d="M0.0,1.577980488429 L0.0,2.28329814930894 " />
			<path d="M0.0,2.283298149309 L0.0,3.0933321908311258 " />
			<path d="M0.0,3.093332190831 L0.0,3.991308998867023 " />
			<path d="M0.0,3.991308998867 L0.0,4.958180460232014 " />
			<path d="M0.0,4.958180460232 L0.0,5.973327001093005 " />
			<path d="M0.0,5.973327001093 L0.0,7.000249962918964 " />
			<path d="M0.0,7.000249962919 L0.0,8.034458296806068 " />
			<path d="M0.0,8.034458296806 L0.0,9.056479092249976 " />
			<path d="M0.0,9.05647909225 L0.0,10.04695417546987 " />
			<path d="M0.0,10.04695417547 L0.0,10.987412748691142 " />
			<path d="M0.0,10.987412748691 L0.0,11.860585998158898 " />
			<path d="M0.0,11.860585998159 L0.0,12.650688827491093 " />
			<path d="M0.0,12.650688827491 L0.0,13.343667645466958 " />
			<path d="M0.0,13.343667645467 L0.0,13.92740596550995 " />
			<path d="M0.0,13.92740596551 L0.0,14.391877977917085 " />
			<path d="M0.0,14.391877977917 L0.0,14.729245687340088 " />
			<path d="M0.0,14.72924568734 L0.0,14.933905251629023 " />
			<path d="M0.0,14.933905251629 L0.0,15.002497894309982 " />
			<path d="M0.0,0.214092156818 L-60.0,0.664258677989 " />
			<path d="M-60.0,0.492795608987 L-60.0,0.6642586779887685 " />
			<path d="M-60.0,0.664258677989 L-60.0,0.9544717633592488 " />
			<path d="M-60.0,0.954471763359 L-60.0,1.3624057622600576 " />
			<path d="M-60.0,1.36240576226 L-60.0,1.8846295268907691 " />
			<path d="M-60.0,1.884629526891 L-60.0,2.5147441424181354 " />
			<path d="M-60.0,2.514744142418 L-60.0,3.243077981656381 " />
			<path d="M-60.0,3.243077981656 L-60.0,4.0567030985761985 " />
			<path d="M-60.0,4.056703098576 L-60.0,4.9397583041438615 " />
			<path d="M-60.0,4.939758304144 L-60.0,5.856247539779087 " />
			<path d="M-60.0,5.856247539779 L-60.0,6.795631134870748 " />
			<path d="M-60.0,6.795631134871 L-60.0,7.738613737319089 " />
			<path d="M-60.0,7.738613737319 L-60.0,8.665462685800321 " />
			<path d="M-60.0,8.6654626858 L-60.0,9.556814861076903 " />
			<path d="M-60.0,9.556814861077 L-60.0,10.394058957978967 " />
			<path d="M-60.0,10.394058957979 L-60.0,11.159674676658074 " />
			<path d="M-60.0,11.159674676658 L-60.0,11.837553686257875 " />
			<path d="M-60.0,11.837553686258 L-60.0,12.413318434105236 " />
			<path d="M-60.0,12.413318434105 L-60.0,12.874640612840892 " />
			<path d="M-60.0,12.874640612841 L-60.0,13.211547366565114 " />
			<path d="M-60.0,13.211547366565 L-60.0,13.416694330884994 " />
			<path d="M-60.0,13.416694330885 L-60.0,13.485581928841825 " />
			<path d="M0.0,0.534176507988 L-60.0,0.954471763359 " />
			<path d="M0.0,0.991334643398 L-60.0,1.36240576226 " />
			<path d="M0.0,1.577980488429 L-60.0,1.884629526891 " />
			<path d="M0.0,2.283298149309 L-60.0,2.514744142418 " />
			<path d="M0.0,3.093332190831 L-60.0,3.243077981656 " />
			<path d="M0.0,3.991308998867 L-60.0,4.056703098576 " />
			<path d="M0.0,4.958180460232 L-60.0,4.939758304144 " />
			<path d="M0.0,5.973327001093 L-60.0,5.856247539779 " />
			<path d="M0.0,7.000249962919 L-60.0,6.795631134871 " />
			<path d="M0.0,8.034458296806 L-60.0,7.738613737319 " />
			<path d="M0.0,9.05647909225 L-60.0,8.6654626858 " />
			<path d="M0.0,10.04695417547 L-60.0,9.556814861077 " />
			<path d="M0.0,10.987412748691 L-60.0,10.394058957979 " />
			<path d="M0.0,11.860585998159 L-60.0,11.159674676658 " />
			<path d="M0.0,12.650688827491 L-60.0,11.837553686258 " />
			<path d="M0.0,13.343667645467 L-60.0,12.413318434105 " />
			<path d="M0.0,13.92740596551 L-60.0,12.874640612841 " />
			<path d="M0.0,14.391877977917 L-60.0,13.211547366565 " />
			<path d="M0.0,14.72924568734 L-60.0,13.416694330885 " />
			<path d="M0.0,14.933905251629 L-35.61147233513746,14.074289819266273 " />

       </g>

       <!-- solid lines -->
       <g  stroke="rgb(0,0,0)" fill="none">
			<path d="M0.0,0.0 L-60.0,0.439410440022 " />
			<path d="M0.0,15.00249789431 L0.0,14.92638393891605 " />
			<path d="M0.0,14.926383938916 L0.0,14.714513622877 " />
			<path d="M0.0,14.714513622877 L0.0,14.366291544665 " />
			<path d="M0.0,14.366291544665 L0.0,13.888885102688 " />
			<path d="M0.0,13.888885102688 L0.0,13.292001715099 " />
			<path d="M0.0,13.292001715099 L0.0,12.587608320788 " />
			<path d="M0.0,12.587608320788 L0.0,11.789618833564 " />
			<path d="M0.0,11.789618833564 L0.0,10.913562817276 " />
			<path d="M0.0,10.913562817276 L0.0,9.976240007095015 " />
			<path d="M0.0,9.976240007095 L0.0,8.99536110354 " />
			<path d="M0.0,8.99536110354 L0.0,7.989177903664 " />
			<path d="M0.0,7.989177903664 L0.0,6.9761138366109625 " />
			<path d="M0.0,6.976113836611 L0.0,5.9748328031170335 " />
			<path d="M0.0,5.974832803117 L0.0,5.018625357202981 " />
			<path d="M0.0,5.018625357203 L0.0,4.1077154351649945 " />
			<path d="M0.0,4.107715435165 L0.0,3.2564629774460156 " />
			<path d="M0.0,3.256462977446 L0.0,2.47840470241099 " />
			<path d="M0.0,2.478404702411 L0.0,1.7863501510040045 " />
			<path d="M0.0,1.786350151004 L0.0,1.1923742884050257 " />
			<path d="M0.0,1.192374288405 L0.0,0.70765396942995 " />
			<path d="M0.0,0.70765396943 L0.0,0.3421485329651465 " />
			<path d="M0.0,0.342148532965 L0.0,0.10417931697272528 " />
			<path d="M0.0,0.104179316973 L0.0,6.772360450213455e-15 " />
			<path d="M-60.0,13.485581928842 L-60.0,13.438606236630445 " />
			<path d="M-60.0,13.43860623663 L-60.0,13.255795907786013 " />
			<path d="M-60.0,13.255795907786 L-60.0,12.95554135342587 " />
			<path d="M-60.0,12.955541353426 L-60.0,12.544355858584229 " />
			<path d="M-60.0,12.544355858584 L-60.0,12.03109398291574 " />
			<path d="M-60.0,12.031093982916 L-60.0,11.426682961381172 " />
			<path d="M-60.0,11.426682961381 L-60.0,10.7437755037659 " />
			<path d="M-60.0,10.743775503766 L-60.0,9.996331590844902 " />
			<path d="M-60.0,9.996331590845 L-60.0,9.199148362625035 " />
			<path d="M-60.0,9.199148362625 L-60.0,8.36737157660315 " />
			<path d="M-60.0,8.367371576603 L-60.0,7.516035177488725 " />
			<path d="M-60.0,7.516035177489 L-60.0,6.659681393779134 " />
			<path d="M-60.0,6.659681393779 L-60.0,5.812472283919913 " />
			<path d="M-60.0,5.81247228392 L-60.0,5.005329137481948 " />
			<path d="M-60.0,5.005329137482 L-60.0,4.239099105563472 " />
			<path d="M-60.0,4.239099105564 L-60.0,3.522169314755933 " />
			<path d="M-60.0,3.522169314756 L-60.0,2.862239519617103 " />
			<path d="M-60.0,2.862239519617 L-60.0,2.266727781940044 " />
			<path d="M-60.0,2.26672778194 L-60.0,1.7429833274011062 " />
			<path d="M-60.0,1.742983327401 L-60.0,1.298250082084898 " />
			<path d="M-60.0,1.298250082085 L-60.0,1.290151104240639 " />
			<path d="M-60.0000002,1.2901511042406408 L-60.0000002,0.49037980422981775 " />
			<path d="M-60.0,0.49037980422981803 L-60.0,0.43941044002105223 " />
			<path d="M0.0,0.104179316973 L-58.79692247949059,0.49441980164973615 " />
			<path d="M-60.0,0.49037980423002103 L-58.79692247949059,0.49441980164973615 " />
			<path d="M-35.61147233513746,14.074289819266273 L-60.0,13.485581928842 " />
			<path d="M0.0,15.00249789431 L-35.61147233513746,14.074289819266273 " />
			<path d="M-35.61147233513746,14.074289819266273 L-60.0,13.43860623663 " />
			<path d="M0.0,14.926383938916 L-60.0,13.255795907786 " />
			<path d="M0.0,14.714513622877 L-60.0,12.955541353426 " />
			<path d="M0.0,14.366291544665 L-60.0,12.544355858584 " />
			<path d="M0.0,4.107715435165 L-60.0,3.522169314756 " />
			<path d="M0.0,3.256462977446 L-60.0,2.862239519617 " />
			<path d="M0.0,2.478404702411 L-60.0,2.26672778194 " />
			<path d="M0.0,1.786350151004 L-60.0,1.742983327401 " />
			<path d="M0.0,1.192374288405 L-60.0,1.298250082085 " />
			<path d="M-55.94120928425319,0.9237208992628905 L-56.954015140880124,1.0238260329106197 L-57.96818970100496,1.1179906413316307 L-58.98356598892547,1.2066371221608443 L-59.99999999999999,1.290151104240635 " />
			<path d="M0.0,0.70765396943 L-55.9412092842532,0.9237208992628902 " />
			<path d="M-55.690719994087715,0.6487759358982803 L-55.81301750563454,0.7872425407851924 L-55.94120928425319,0.9237208992628896 " />
			<path d="M0.0,0.342148532965 L-55.690719994087715,0.6487759358982803 " />
			<path d="M-58.79692247949058,0.49441980164973615 L-55.69071999408772,0.64877593589828 " />
			<path d="M0.0,13.888885102688 L-60.0,12.031093982916 " />
			<path d="M0.0,13.292001715099 L-60.0,11.426682961381 " />
			<path d="M0.0,12.587608320788 L-60.0,10.743775503766 " />
			<path d="M0.0,11.789618833564 L-60.0,9.996331590845 " />
			<path d="M0.0,10.913562817276 L-60.0,9.199148362625 " />
			<path d="M0.0,9.976240007095 L-60.0,8.367371576603 " />
			<path d="M0.0,8.99536110354 L-60.0,7.516035177489 " />
			<path d="M0.0,7.989177903664 L-60.0,6.659681393779 " />
			<path d="M0.0,6.976113836611 L-60.0,5.81247228392 " />
			<path d="M0.0,5.974832803117 L-60.0,5.005329137482 " />
			<path d="M0.0,5.018625357203 L-60.0,4.239099105564 " />

       </g>
    </g>
  </g>
  <text x="1174.5" y="964" text-anchor="middle" font-size="9" font-weight="bold" fill="#333" font-family="Arial, Helvetica, sans-serif">SECTION A-A  &#x2014;  CUT AT Y MIDPLANE</text>
  <rect x="1282" y="332" width="258" height="158" fill="#f4f4f4" stroke="#aaa" stroke-width="0.5"/>
  <text x="1285" y="341" font-size="7" fill="#777" font-family="Arial, Helvetica, sans-serif">ISO</text>
  <clipPath id="clip_iso"><rect x="1282" y="332" width="258" height="158"/></clipPath>
  <g clip-path="url(#clip_iso)" transform="translate(1282,358)">
    <g transform="scale(5.187697057540543, -5.187697057540543)   translate(80.66844923355814,-38.46269864645293)" stroke-width="0.192763761821145"  fill="none">
       <!-- hidden lines -->
       <g  stroke="rgb(160,160,160)" fill="none" stroke-dasharray="0.192763761821145,0.192763761821145" >
			<path d="M0.0,0.0 L0.025124559279541634,0.16762404387832858 " />
			<path d="M0.02512455927959497,0.16762404387834767 L-42.07794775433919,23.528349689072556 " />
			<path d="M0.0,0.0 L-42.11569676932913,23.29046497125091 " />
			<path d="M0.02512455927959497,0.16762404387834767 L0.15138601588456532,0.40586642718198185 " />
			<path d="M0.15138601588486156,0.40586642718185123 L-41.95670505552482,23.87855935292006 " />
			<path d="M0.15138601588486156,0.40586642718185123 L0.37771983114914776,0.7092099276894017 " />
			<path d="M0.37771983114886476,0.7092099276897329 L-41.75149341487062,24.333151176595464 " />
			<path d="M0.37771983114886476,0.7092099276897329 L0.7009794487717369,1.0684472062981432 " />
			<path d="M0.7009794487718738,1.0684472062978805 L-41.46304051797118,24.880772393835944 " />
			<path d="M0.7009794487718738,1.0684472062978805 L1.1158007039483278,1.4714334492982637 " />
			<path d="M1.1158007039482065,1.4714334492986034 L-41.09377255270383,25.50721233960502 " />
			<path d="M1.1158007039482065,1.4714334492986034 L1.6145356048470458,1.904060143784101 " />
			<path d="M1.6145356048470882,1.9040601437839304 L-40.64821423513994,26.19611896973757 " />
			<path d="M1.6145356048470882,1.9040601437839304 L2.1873161685993288,2.3513434256162644 " />
			<path d="M2.18731616859924,2.351343425616795 L-40.133204438447116,26.92983040813614 " />
			<path d="M2.18731616859924,2.351343425616795 L2.822281658909762,2.798507723971059 " />
			<path d="M2.822281658909746,2.7985077239712197 L-39.557884600929285,27.690246280963446 " />
			<path d="M2.822281658909746,2.7985077239712197 L3.5059630257766945,3.2319498266607782 " />
			<path d="M3.5059630257766843,3.2319498266610043 L-38.93347027691007,28.459650770490565 " />
			<path d="M3.5059630257766843,3.2319498266610043 L4.2237800287175675,3.639992560186645 " />
			<path d="M4.223780028717564,3.639992560186128 L-38.28541452350809,29.214652601777146 " />
			<path d="M4.223780028717564,3.639992560186128 L4.949924218780878,4.014899829209918 " />
			<path d="M4.949924218780903,4.014899829210479 L-37.621170013283134,29.958520465284785 " />
			<path d="M4.949924218780903,4.014899829210479 L5.68121994483209,4.36569807846152 " />
			<path d="M5.6812199448320415,4.365698078460817 L-36.95438062055122,30.67886568544037 " />
			<path d="M5.6812199448320415,4.365698078460817 L6.403897779804147,4.6884078494163886 " />
			<path d="M6.403897779804163,4.688407849416559 L-36.29899944394468,31.36392686884927 " />
			<path d="M6.403897779804163,4.688407849416559 L7.104269427745244,4.9799729098272705 " />
			<path d="M7.104269427745336,4.979972909828089 L-35.668718276380936,32.00301995456037 " />
			<path d="M7.104269427745336,4.979972909828089 L7.769274062295031,5.238350776667318 " />
			<path d="M7.76927406229493,5.238350776666547 L-35.07669729795312,32.5866674144618 " />
			<path d="M7.76927406229493,5.238350776666547 L8.386700788144374,5.462461829693885 " />
			<path d="M8.386700788144445,5.462461829694374 L-34.53532523149219,33.106717107304206 " />
			<path d="M8.386700788144445,5.462461829694374 L8.945387856599847,5.652148862758273 " />
			<path d="M8.945387856599782,5.652148862757868 L-34.05599238698001,33.55642403615641 " />
			<path d="M8.945387856599782,5.652148862757868 L9.43539787800922,5.808104536102115 " />
			<path d="M9.43539787800925,5.808104536102287 L-33.64886522940923,33.93046537997439 " />
			<path d="M9.43539787800925,5.808104536102287 L9.848163202550062,5.931725460346075 " />
			<path d="M9.848163202550097,5.931725460346264 L-33.32266118851325,34.224870909138446 " />
			<path d="M9.848163202550097,5.931725460346264 L10.176594512194509,6.024872021380853 " />
			<path d="M10.176594512194448,6.0248720213805464 L-33.084432138327465,34.436873577539075 " />
			<path d="M10.176594512194448,6.0248720213805464 L10.415149507280885,6.089545377168435 " />
			<path d="M10.415149507280825,6.089545377168134 L-32.93937132871696,34.564710524788424 " />
			<path d="M10.415149507280825,6.089545377168134 L10.559865673024277,6.127526035993815 " />
			<path d="M10.55986567302426,6.127526035993735 L-2.868328217337149,14.929112961988494 " />
			<path d="M10.55986567302426,6.127526035993735 L10.608367995803489,6.140040534265239 " />
			<path d="M0.07366590149099109,-0.08790547583446642 L4.7878367936959876e-15,6.38378239159465e-15 " />

       </g>

       <!-- solid lines -->
       <g  stroke="rgb(0,0,0)" fill="none">
			<path d="M-42.11569676932913,23.29046497125091 L-42.077947754338865,23.52834968907267 " />
			<path d="M-42.07794775433919,23.528349689072556 L-41.956705055524985,23.878559352920057 " />
			<path d="M-41.95670505552482,23.87855935292006 L-41.751493414870446,24.333151176595422 " />
			<path d="M-41.75149341487062,24.333151176595464 L-41.46304051797114,24.88077239383593 " />
			<path d="M-41.46304051797118,24.880772393835944 L-41.093772552703996,25.50721233960512 " />
			<path d="M-41.09377255270383,25.50721233960502 L-40.64821423513984,26.19611896973749 " />
			<path d="M-40.64821423513994,26.19611896973757 L-40.133204438446846,26.929830408135874 " />
			<path d="M-40.133204438447116,26.92983040813614 L-39.55788460092915,27.690246280963276 " />
			<path d="M-39.557884600929285,27.690246280963446 L-38.93347027691017,28.459650770490708 " />
			<path d="M-38.93347027691007,28.459650770490565 L-38.285414523508024,29.214652601777043 " />
			<path d="M-38.28541452350809,29.214652601777146 L-37.62117001328332,29.958520465285122 " />
			<path d="M-37.621170013283134,29.958520465284785 L-36.95438062055115,30.67886568544024 " />
			<path d="M-36.95438062055122,30.67886568544037 L-36.29899944394446,31.363926868848754 " />
			<path d="M-36.29899944394468,31.36392686884927 L-35.668718276381,32.00301995456054 " />
			<path d="M-35.668718276380936,32.00301995456037 L-35.076697297953146,32.586667414461864 " />
			<path d="M-35.07669729795312,32.5866674144618 L-34.53532523149213,33.10671710730405 " />
			<path d="M-34.53532523149219,33.106717107304206 L-34.055992386980094,33.556424036156685 " />
			<path d="M-34.05599238698001,33.55642403615641 L-33.64886522940907,33.93046537997384 " />
			<path d="M-33.64886522940923,33.93046537997439 L-33.32266118851333,34.224870909138716 " />
			<path d="M-33.32266118851325,34.224870909138446 L-33.08443213832739,34.436873577538776 " />
			<path d="M-33.084432138327465,34.436873577539075 L-32.93937132871696,34.564710524788445 " />
			<path d="M-2.868328217337149,14.929112961988494 L-2.891531955194684,14.944321985437856 " />
			<path d="M-2.891531955194684,14.944321985437856 L-32.89066044106191,34.60742331003003 " />
			<path d="M-32.93937132871696,34.564710524788424 L-32.89066044106204,34.607423310030505 " />
			<path d="M10.608367995803501,6.140040534265302 L-2.845080839275867,14.913951761772672 " />
			<path d="M-2.845080839275867,14.913951761772672 L-32.92387727157595,34.53038565633911 " />
			<path d="M-32.89066044106191,34.60742331003003 L-32.923877271575634,34.53038565633904 " />
			<path d="M10.608367995803501,6.140040534265302 L10.554547301801508,6.07803673824643 " />
			<path d="M10.554547301801474,6.078036738246491 L-33.05314369477249,34.368303721212115 " />
			<path d="M-32.92387727157595,34.53038565633911 L-33.05314369477247,34.36830372121211 " />
			<path d="M10.554547301801474,6.078036738246491 L10.404732364598159,5.990439186436931 " />
			<path d="M10.40473236459816,5.990439186436928 L-33.265455726242585,34.101705103103185 " />
			<path d="M-33.05314369477249,34.368303721212115 L-33.26545572624268,34.101705103103306 " />
			<path d="M10.40473236459816,5.990439186436928 L10.158502171735583,5.846131366665549 " />
			<path d="M10.158502171735583,5.8461313666655474 L-33.55620777797091,33.735741976051486 " />
			<path d="M-33.265455726242585,34.101705103103185 L-33.55620777797075,33.73574197605126 " />
			<path d="M10.158502171735583,5.8461313666655474 L9.820924839231504,5.647539439193504 " />
			<path d="M-33.55620777797091,33.735741976051486 L-33.91913873078047,33.27735910801154 " />
			<path d="M9.820924839231504,5.647539439193509 L9.398864548289723,5.39789536792855 " />
			<path d="M-33.91913873078028,33.27735910801128 L-34.34652186273145,32.73510600946831 " />
			<path d="M9.398864548289723,5.3978953679285535 L8.900783202549405,5.101164342522794 " />
			<path d="M-34.346521862731564,32.73510600946848 L-34.82941035693407,32.11897581988787 " />
			<path d="M8.900783202549405,5.101164342522796 L8.33651942481774,4.762042151557467 " />
			<path d="M-34.829410356934,32.11897581988777 L-35.35793301631711,31.440284954985493 " />
			<path d="M8.336519424817741,4.762042151557455 L7.717054275001223,4.386034279594867 " />
			<path d="M-35.35793301631705,31.4402849549854 L-35.921626682839566,30.71158185844744 " />
			<path d="M7.717054275001223,4.386034279594862 L7.054266959761416,3.979593974675814 " />
			<path d="M-35.92162668283959,30.711581858447467 L-36.509781688669186,29.94655187705015 " />
			<path d="M7.0542669597614065,3.9795939746761637 L6.360680835534841,3.550265394456781 " />
			<path d="M-36.5097816886693,29.94655187705029 L-37.11176742955394,29.15987644429998 " />
			<path d="M6.36068083553484,3.5502653944567983 L5.64920187178654,3.106761413909552 " />
			<path d="M-37.111767429553744,29.159876444299734 L-37.717300997109746,28.367011917162092 " />
			<path d="M5.649201871786541,3.1067614139095476 L4.932857400196915,2.658910670153913 " />
			<path d="M-37.717300997109845,28.36701191716221 L-38.316368303774226,27.584189778935137 " />
			<path d="M4.932857400196941,2.658910670153196 L4.224844791539883,2.217600865703313 " />
			<path d="M-38.31636830377416,27.58418977893506 L-38.887104696008755,26.834667533217942 " />
			<path d="M4.224844791539859,2.2176008657039823 L3.5487040223129873,1.793008510898093 " />
			<path d="M-38.88710469600872,26.834667533217896 L-39.428911147527096,26.11795866186816 " />
			<path d="M3.5487040223130006,1.7930085108977587 L2.904593439389818,1.384158329144436 " />
			<path d="M2.9045934393898216,1.3841583291443553 L-39.93585706424171,25.44907569134815 " />
			<path d="M-39.42891114752672,26.117958661867707 L-39.93585706424176,25.449075691348206 " />
			<path d="M2.9045934393898216,1.3841583291443553 L2.302667054035013,1.0035246437359526 " />
			<path d="M2.302667054035002,1.0035246437362146 L-40.40249789749154,24.842378304500368 " />
			<path d="M-39.93585706424171,25.44907569134815 L-40.40249789749147,24.842378304500276 " />
			<path d="M2.302667054035002,1.0035246437362146 L1.7524967715994384,0.6632039609685032 " />
			<path d="M1.7524967715994455,0.6632039609682894 L-40.82358828547914,24.3113220815382 " />
			<path d="M-40.40249789749154,24.842378304500368 L-40.823588285479104,24.311322081538158 " />
			<path d="M1.7524967715994455,0.6632039609682894 L1.263140305348545,0.3744275363770601 " />
			<path d="M1.2631403053485417,0.37442753637739334 L-41.193931540892514,23.868232292227304 " />
			<path d="M-40.82358828547914,24.3113220815382 L-41.19393154089244,23.868232292227187 " />
			<path d="M1.2631403053485417,0.37442753637739334 L0.843135945043678,0.14720029810575666 " />
			<path d="M0.8431359450436596,0.147200298105072 L-41.508405434474554,23.524073525981507 " />
			<path d="M-41.193931540892514,23.868232292227304 L-41.50840543447463,23.52407352598165 " />
			<path d="M0.8431359450436596,0.147200298105072 L0.5003869205174954,-0.009937644069234614 " />
			<path d="M0.5003869205175309,-0.009937644068818086 L-41.76215249779421,23.28819883893892 " />
			<path d="M-41.508405434474554,23.524073525981507 L-41.7621524977943,23.28819883893921 " />
			<path d="M0.5003869205175309,-0.009937644068818086 L0.24193554783268412,-0.09005361777549309 " />
			<path d="M0.2419355478325805,-0.09005361777606985 L-41.95087587054362,23.168083991931358 " />
			<path d="M-41.76215249779421,23.28819883893892 L-41.950875870543584,23.168083991930647 " />
			<path d="M0.2419355478325805,-0.09005361777606985 L0.07366590149079683,-0.08790547583501732 " />
			<path d="M0.07366590149099109,-0.08790547583446642 L-42.07115307560278,23.169072213106862 " />
			<path d="M-41.95087587054362,23.168083991931358 L-42.07115307560266,23.169072213107228 " />
			<path d="M-42.07115307560278,23.169072213106862 L-42.1156967693298,23.290464971250252 " />
			<path d="M9.820924839231504,5.647539439193509 L-33.91913873078028,33.27735910801128 " />
			<path d="M9.398864548289723,5.3978953679285535 L-34.346521862731564,32.73510600946848 " />
			<path d="M8.900783202549405,5.101164342522796 L-34.829410356934,32.11897581988777 " />
			<path d="M8.336519424817741,4.762042151557455 L-35.35793301631705,31.4402849549854 " />
			<path d="M7.717054275001223,4.386034279594862 L-35.92162668283959,30.711581858447467 " />
			<path d="M7.0542669597614065,3.9795939746761637 L-36.5097816886693,29.94655187705029 " />
			<path d="M6.36068083553484,3.5502653944567983 L-37.111767429553744,29.159876444299734 " />
			<path d="M5.649201871786541,3.1067614139095476 L-37.717300997109845,28.36701191716221 " />
			<path d="M4.932857400196941,2.658910670153196 L-38.31636830377416,27.58418977893506 " />
			<path d="M4.224844791539859,2.2176008657039823 L-38.88710469600872,26.834667533217896 " />
			<path d="M3.5487040223130006,1.7930085108977587 L-39.42891114752672,26.117958661867707 " />
			<path d="M-2.8450808392758713,14.91395176177267 L-2.891531955194686,14.944321985437856 " />

       </g>
    </g>
  </g>
  <line x1="34" y1="268.0" x2="789" y2="268.0" stroke="#0000ff" stroke-width="0.4" stroke-dasharray="12,3,2,3" fill="none"/>
  <line x1="411.5" y1="34" x2="411.5" y2="502" stroke="#0000ff" stroke-width="0.4" stroke-dasharray="12,3,2,3" fill="none"/>
  <line x1="797" y1="268.0" x2="1552" y2="268.0" stroke="#0000ff" stroke-width="0.4" stroke-dasharray="12,3,2,3" fill="none"/>
  <line x1="1174.5" y1="34" x2="1174.5" y2="502" stroke="#0000ff" stroke-width="0.4" stroke-dasharray="12,3,2,3" fill="none"/>
  <line x1="34" y1="744.0" x2="789" y2="744.0" stroke="#0000ff" stroke-width="0.4" stroke-dasharray="12,3,2,3" fill="none"/>
  <line x1="411.5" y1="510" x2="411.5" y2="978" stroke="#0000ff" stroke-width="0.4" stroke-dasharray="12,3,2,3" fill="none"/>
  <line x1="0" y1="54" x2="18" y2="54" stroke="#1a1a8c" stroke-width="0.7"/>
  <line x1="0" y1="482" x2="18" y2="482" stroke="#1a1a8c" stroke-width="0.7"/>
  <line x1="4" y1="54" x2="4" y2="482" stroke="#1a1a8c" stroke-width="0.8"/>
  <polygon points="4,54 1,61 7,61" fill="#1a1a8c"/>
  <polygon points="4,482 1,475 7,475" fill="#1a1a8c"/>
  <text x="-4" y="268.0" text-anchor="middle" font-size="10" fill="#1a1a8c" font-family="Arial, Helvetica, sans-serif" transform="rotate(-90,-4,268.0)">60.0 mm</text>
  <polygon points="411.5,492 402.5,506.4 420.5,506.4" fill="#1a1a8c" stroke="#1a1a8c" stroke-width="0.5"/>
  <rect x="402.5" y="506.4" width="18" height="18" fill="white" stroke="#1a1a8c" stroke-width="1"/>
  <text x="411.5" y="520.4" text-anchor="middle" font-size="11" font-weight="bold" fill="#1a1a8c" font-family="Arial, Helvetica, sans-serif">A</text>
  <line x1="46" y1="268.0" x2="777" y2="268.0" stroke="#555" stroke-width="1" stroke-dasharray="8,4"/>
  <polygon points="46,268.0 56,264.0 56,272.0" fill="#555"/>
  <polygon points="777,268.0 767,264.0 767,272.0" fill="#555"/>
  <text x="60" y="262.0" font-size="10" font-weight="bold" fill="#555" font-family="Arial, Helvetica, sans-serif">A</text>
  <text x="757" y="262.0" font-size="10" font-weight="bold" fill="#555" font-family="Arial, Helvetica, sans-serif">A</text>
  <line x1="54" y1="508" x2="54" y2="526" stroke="#1a1a8c" stroke-width="0.7"/>
  <line x1="769" y1="508" x2="769" y2="526" stroke="#1a1a8c" stroke-width="0.7"/>
  <line x1="54" y1="522" x2="769" y2="522" stroke="#1a1a8c" stroke-width="0.8"/>
  <polygon points="54,522 61,519 61,525" fill="#1a1a8c"/>
  <polygon points="769,522 762,519 762,525" fill="#1a1a8c"/>
  <text x="411.5" y="518" text-anchor="middle" font-size="10" fill="#1a1a8c" font-family="Arial, Helvetica, sans-serif">15.0 mm</text>
  <line x1="817" y1="6" x2="817" y2="24" stroke="#1a1a8c" stroke-width="0.7"/>
  <line x1="1532" y1="6" x2="1532" y2="24" stroke="#1a1a8c" stroke-width="0.7"/>
  <line x1="817" y1="20" x2="1532" y2="20" stroke="#1a1a8c" stroke-width="0.8"/>
  <polygon points="817,20 824,17 824,23" fill="#1a1a8c"/>
  <polygon points="1532,20 1525,17 1525,23" fill="#1a1a8c"/>
  <text x="1174.5" y="16" text-anchor="middle" font-size="10" fill="#1a1a8c" font-family="Arial, Helvetica, sans-serif">15.0 mm</text>
  <line x1="1570" y1="54" x2="1588" y2="54" stroke="#1a1a8c" stroke-width="0.7"/>
  <line x1="1570" y1="482" x2="1588" y2="482" stroke="#1a1a8c" stroke-width="0.7"/>
  <line x1="1574" y1="54" x2="1574" y2="482" stroke="#1a1a8c" stroke-width="0.8"/>
  <polygon points="1574,54 1571,61 1577,61" fill="#1a1a8c"/>
  <polygon points="1574,482 1571,475 1577,475" fill="#1a1a8c"/>
  <text x="1566" y="268.0" text-anchor="middle" font-size="10" fill="#1a1a8c" font-family="Arial, Helvetica, sans-serif" transform="rotate(-90,1566,268.0)">7.6 mm</text>
  <text x="627" y="76" font-size="8" font-weight="bold" fill="#333" font-family="Arial, Helvetica, sans-serif">GD&amp;T CALLOUTS</text>
  <rect x="627" y="80" width="98" height="22" fill="#fffff8" stroke="#000000" stroke-width="1"/>
  <line x1="655" y1="80" x2="655" y2="102" stroke="#000000" stroke-width="1"/>
  <text x="641.0" y="97" text-anchor="middle" font-size="13" font-weight="bold" fill="#1a1a8c" font-family="Arial, Helvetica, sans-serif">▭</text>
  <text x="661" y="97" font-size="10" fill="#000" font-family="Arial, Helvetica, sans-serif">0.05</text>
  <line x1="627" y1="91.0" x2="603.0" y2="192.7" stroke="#999" stroke-width="0.5" stroke-dasharray="4,3"/>
  <rect x="627" y="108" width="123" height="22" fill="#fffff8" stroke="#000000" stroke-width="1"/>
  <line x1="655" y1="108" x2="655" y2="130" stroke="#000000" stroke-width="1"/>
  <line x1="725" y1="108" x2="725" y2="130" stroke="#000000" stroke-width="1"/>
  <text x="641.0" y="125" text-anchor="middle" font-size="13" font-weight="bold" fill="#1a1a8c" font-family="Arial, Helvetica, sans-serif">⊥</text>
  <text x="661" y="125" font-size="10" fill="#000" font-family="Arial, Helvetica, sans-serif">0.05</text>
  <text x="737.5" y="125" text-anchor="middle" font-size="10" font-weight="bold" fill="#000" font-family="Arial, Helvetica, sans-serif">A</text>
  <line x1="627" y1="119.0" x2="411.5" y2="72.0" stroke="#999" stroke-width="0.5" stroke-dasharray="4,3"/>
  <rect x="627" y="136" width="100" height="22" fill="#fffff8" stroke="#000000" stroke-width="0.8"/>
  <text x="633" y="151" font-size="11" fill="#1a1a8c" font-family="Arial, Helvetica, sans-serif">∇∇ Ra 3.2</text>
  <rect x="30" y="983" width="1527" height="110" fill="white" stroke="black" stroke-width="1.5"/>
  <rect x="30" y="983" width="1527" height="22" fill="#1a1a8c"/>
  <text x="793.5" y="998" text-anchor="middle" font-size="13" fill="white" font-weight="bold" font-family="Arial, Helvetica, sans-serif">ARIA-OS ENGINEERING DRAWING</text>
  <text x="34" y="1014.0" font-size="7" fill="#666" font-family="Arial, Helvetica, sans-serif">PART ID</text>
  <text x="34" y="1045.0" font-size="10" fill="#000" font-weight="bold" font-family="Arial, Helvetica, sans-serif">turbine_blade</text>
  <line x1="30" y1="1049.0" x2="335.40000000000003" y2="1049.0" stroke="#aaa" stroke-width="0.5"/>
  <text x="34" y="1058.0" font-size="7" fill="#666" font-family="Arial, Helvetica, sans-serif">MATERIAL</text>
  <text x="34" y="1089.0" font-size="10" fill="#000" font-weight="bold" font-family="Arial, Helvetica, sans-serif">turbine blade</text>
  <line x1="335.40000000000003" y1="1005" x2="335.40000000000003" y2="1093" stroke="black" stroke-width="0.8"/>
  <text x="339.40000000000003" y="1014.0" font-size="7" fill="#666" font-family="Arial, Helvetica, sans-serif">SCALE</text>
  <text x="339.40000000000003" y="1045.0" font-size="10" fill="#000" font-weight="bold" font-family="Arial, Helvetica, sans-serif">1:1</text>
  <line x1="335.40000000000003" y1="1049.0" x2="640.8000000000001" y2="1049.0" stroke="#aaa" stroke-width="0.5"/>
  <text x="339.40000000000003" y="1058.0" font-size="7" fill="#666" font-family="Arial, Helvetica, sans-serif">DATE</text>
  <text x="339.40000000000003" y="1089.0" font-size="10" fill="#000" font-weight="bold" font-family="Arial, Helvetica, sans-serif">2026-04-01</text>
  <line x1="640.8000000000001" y1="1005" x2="640.8000000000001" y2="1093" stroke="black" stroke-width="0.8"/>
  <text x="644.8000000000001" y="1014.0" font-size="7" fill="#666" font-family="Arial, Helvetica, sans-serif">DRAWN BY</text>
  <text x="644.8000000000001" y="1045.0" font-size="10" fill="#000" font-weight="bold" font-family="Arial, Helvetica, sans-serif">ARIA-OS v2.0</text>
  <line x1="640.8000000000001" y1="1049.0" x2="946.2" y2="1049.0" stroke="#aaa" stroke-width="0.5"/>
  <text x="644.8000000000001" y="1058.0" font-size="7" fill="#666" font-family="Arial, Helvetica, sans-serif">DWG NO.</text>
  <text x="644.8000000000001" y="1089.0" font-size="10" fill="#000" font-weight="bold" font-family="Arial, Helvetica, sans-serif">ARIA-20260401-001</text>
  <line x1="946.2" y1="1005" x2="946.2" y2="1093" stroke="black" stroke-width="0.8"/>
  <text x="950.2" y="1014.0" font-size="7" fill="#666" font-family="Arial, Helvetica, sans-serif">TOLERANCE</text>
  <text x="950.2" y="1045.0" font-size="10" fill="#000" font-weight="bold" font-family="Arial, Helvetica, sans-serif">±0.1 GENERAL / ±0.05 MACH.</text>
  <line x1="946.2" y1="1049.0" x2="1251.6000000000001" y2="1049.0" stroke="#aaa" stroke-width="0.5"/>
  <text x="950.2" y="1058.0" font-size="7" fill="#666" font-family="Arial, Helvetica, sans-serif">UNITS</text>
  <text x="950.2" y="1089.0" font-size="10" fill="#000" font-weight="bold" font-family="Arial, Helvetica, sans-serif">MILLIMETRES</text>
  <line x1="1251.6000000000001" y1="1005" x2="1251.6000000000001" y2="1093" stroke="black" stroke-width="0.8"/>
  <text x="1255.6000000000001" y="1014.0" font-size="7" fill="#666" font-family="Arial, Helvetica, sans-serif">APPROVED</text>
  <text x="1255.6000000000001" y="1045.0" font-size="10" fill="#000" font-weight="bold" font-family="Arial, Helvetica, sans-serif"></text>
  <line x1="1251.6000000000001" y1="1049.0" x2="1404.3000000000002" y2="1049.0" stroke="#aaa" stroke-width="0.5"/>
  <text x="1255.6000000000001" y="1058.0" font-size="7" fill="#666" font-family="Arial, Helvetica, sans-serif"></text>
  <text x="1255.6000000000001" y="1089.0" font-size="10" fill="#000" font-weight="bold" font-family="Arial, Helvetica, sans-serif"></text>
  <line x1="1404.3000000000002" y1="1005" x2="1404.3000000000002" y2="1093" stroke="black" stroke-width="0.8"/>
  <text x="1408.3000000000002" y="1014.0" font-size="7" fill="#666" font-family="Arial, Helvetica, sans-serif">REV</text>
  <text x="1408.3000000000002" y="1045.0" font-size="10" fill="#000" font-weight="bold" font-family="Arial, Helvetica, sans-serif">—</text>
  <line x1="1404.3000000000002" y1="1049.0" x2="1557.0000000000002" y2="1049.0" stroke="#aaa" stroke-width="0.5"/>
  <text x="1408.3000000000002" y="1058.0" font-size="7" fill="#666" font-family="Arial, Helvetica, sans-serif"></text>
  <text x="1408.3000000000002" y="1089.0" font-size="10" fill="#000" font-weight="bold" font-family="Arial, Helvetica, sans-serif"></text>
</svg>