  0
SECTION
  2
HEADER
  9
$ACADVER
  1
AC1032
  9
$ACADMAINTVER
 90
4
  9
$DWGCODEPAGE
  3
ANSI_1252
  9
$LASTSAVEDBY
  1
ezdxf
  9
$REQUIREDVERSIONS
160
0
  9
$INSBASE
 10
0.0
 20
0.0
 30
0.0
  9
$EXTMIN
 10
1e+20
 20
1e+20
 30
1e+20
  9
$EXTMAX
 10
-1e+20
 20
-1e+20
 30
-1e+20
  9
$LIMMIN
 10
0.0
 20
0.0
  9
$LIMMAX
 10
420.0
 20
297.0
  9
$ORTHOMODE
 70
0
  9
$REGENMODE
 70
1
  9
$FILLMODE
 70
1
  9
$QTEXTMODE
 70
0
  9
$MIRRTEXT
 70
1
  9
$LTSCALE
 40
1.0
  9
$ATTMODE
 70
1
  9
$TEXTSIZE
 40
2.5
  9
$TRACEWID
 40
1.0
  9
$TEXTSTYLE
  7
Standard
  9
$CLAYER
  8
0
  9
$CELTYPE
  6
ByLayer
  9
$CECOLOR
 62
256
  9
$CELTSCALE
 40
1.0
  9
$DISPSILH
 70
0
  9
$DIMSCALE
 40
1.0
  9
$DIMASZ
 40
2.5
  9
$DIMEXO
 40
0.625
  9
$DIMDLI
 40
3.75
  9
$DIMRND
 40
0.0
  9
$DIMDLE
 40
0.0
  9
$DIMEXE
 40
1.25
  9
$DIMTP
 40
0.0
  9
$DIMTM
 40
0.0
  9
$DIMTXT
 40
2.5
  9
$DIMCEN
 40
2.5
  9
$DIMTSZ
 40
0.0
  9
$DIMTOL
 70
0
  9
$DIMLIM
 70
0
  9
$DIMTIH
 70
0
  9
$DIMTOH
 70
0
  9
$DIMSE1
 70
0
  9
$DIMSE2
 70
0
  9
$DIMTAD
 70
1
  9
$DIMZIN
 70
8
  9
$DIMBLK
  1

  9
$DIMASO
 70
1
  9
$DIMSHO
 70
1
  9
$DIMPOST
  1

  9
$DIMAPOST
  1

  9
$DIMALT
 70
0
  9
$DIMALTD
 70
3
  9
$DIMALTF
 40
0.03937007874
  9
$DIMLFAC
 40
1.0
  9
$DIMTOFL
 70
1
  9
$DIMTVP
 40
0.0
  9
$DIMTIX
 70
0
  9
$DIMSOXD
 70
0
  9
$DIMSAH
 70
0
  9
$DIMBLK1
  1

  9
$DIMBLK2
  1

  9
$DIMSTYLE
  2
ISO-25
  9
$DIMCLRD
 70
0
  9
$DIMCLRE
 70
0
  9
$DIMCLRT
 70
0
  9
$DIMTFAC
 40
1.0
  9
$DIMGAP
 40
0.625
  9
$DIMJUST
 70
0
  9
$DIMSD1
 70
0
  9
$DIMSD2
 70
0
  9
$DIMTOLJ
 70
0
  9
$DIMTZIN
 70
8
  9
$DIMALTZ
 70
0
  9
$DIMALTTZ
 70
0
  9
$DIMUPT
 70
0
  9
$DIMDEC
 70
2
  9
$DIMTDEC
 70
2
  9
$DIMALTU
 70
2
  9
$DIMALTTD
 70
3
  9
$DIMTXSTY
  7
Standard
  9
$DIMAUNIT
 70
0
  9
$DIMADEC
 70
0
  9
$DIMALTRND
 40
0.0
  9
$DIMAZIN
 70
0
  9
$DIMDSEP
 70
44
  9
$DIMATFIT
 70
3
  9
$DIMFRAC
 70
0
  9
$DIMLDRBLK
  1

  9
$DIMLUNIT
 70
2
  9
$DIMLWD
 70
-2
  9
$DIMLWE
 70
-2
  9
$DIMTMOVE
 70
0
  9
$DIMFXL
 40
1.0
  9
$DIMFXLON
 70
0
  9
$DIMJOGANG
 40
0.785398163397
  9
$DIMTFILL
 70
0
  9
$DIMTFILLCLR
 70
0
  9
$DIMARCSYM
 70
0
  9
$DIMLTYPE
  6

  9
$DIMLTEX1
  6

  9
$DIMLTEX2
  6

  9
$DIMTXTDIRECTION
 70
0
  9
$LUNITS
 70
2
  9
$LUPREC
 70
4
  9
$SKETCHINC
 40
1.0
  9
$FILLETRAD
 40
10.0
  9
$AUNITS
 70
0
  9
$AUPREC
 70
2
  9
$MENU
  1
.
  9
$ELEVATION
 40
0.0
  9
$PELEVATION
 40
0.0
  9
$THICKNESS
 40
0.0
  9
$LIMCHECK
 70
0
  9
$CHAMFERA
 40
0.0
  9
$CHAMFERB
 40
0.0
  9
$CHAMFERC
 40
0.0
  9
$CHAMFERD
 40
0.0
  9
$SKPOLY
 70
0
  9
$TDCREATE
 40
2461129.6730555557
  9
$TDUCREATE
 40
2458532.153996898
  9
$TDUPDATE
 40
2461129.6730555557
  9
$TDUUPDATE
 40
2458532.1544311
  9
$TDINDWG
 40
0.0
  9
$TDUSRTIMER
 40
0.0
  9
$USRTIMER
 70
1
  9
$ANGBASE
 50
0.0
  9
$ANGDIR
 70
0
  9
$PDMODE
 70
0
  9
$PDSIZE
 40
0.0
  9
$PLINEWID
 40
0.0
  9
$SPLFRAME
 70
0
  9
$SPLINETYPE
 70
6
  9
$SPLINESEGS
 70
8
  9
$HANDSEED
  5
21C
  9
$SURFTAB1
 70
6
  9
$SURFTAB2
 70
6
  9
$SURFTYPE
 70
6
  9
$SURFU
 70
6
  9
$SURFV
 70
6
  9
$UCSBASE
  2

  9
$UCSNAME
  2

  9
$UCSORG
 10
0.0
 20
0.0
 30
0.0
  9
$UCSXDIR
 10
1.0
 20
0.0
 30
0.0
  9
$UCSYDIR
 10
0.0
 20
1.0
 30
0.0
  9
$UCSORTHOREF
  2

  9
$UCSORTHOVIEW
 70
0
  9
$UCSORGTOP
 10
0.0
 20
0.0
 30
0.0
  9
$UCSORGBOTTOM
 10
0.0
 20
0.0
 30
0.0
  9
$UCSORGLEFT
 10
0.0
 20
0.0
 30
0.0
  9
$UCSORGRIGHT
 10
0.0
 20
0.0
 30
0.0
  9
$UCSORGFRONT
 10
0.0
 20
0.0
 30
0.0
  9
$UCSORGBACK
 10
0.0
 20
0.0
 30
0.0
  9
$PUCSBASE
  2

  9
$PUCSNAME
  2

  9
$PUCSORG
 10
0.0
 20
0.0
 30
0.0
  9
$PUCSXDIR
 10
1.0
 20
0.0
 30
0.0
  9
$PUCSYDIR
 10
0.0
 20
1.0
 30
0.0
  9
$PUCSORTHOREF
  2

  9
$PUCSORTHOVIEW
 70
0
  9
$PUCSORGTOP
 10
0.0
 20
0.0
 30
0.0
  9
$PUCSORGBOTTOM
 10
0.0
 20
0.0
 30
0.0
  9
$PUCSORGLEFT
 10
0.0
 20
0.0
 30
0.0
  9
$PUCSORGRIGHT
 10
0.0
 20
0.0
 30
0.0
  9
$PUCSORGFRONT
 10
0.0
 20
0.0
 30
0.0
  9
$PUCSORGBACK
 10
0.0
 20
0.0
 30
0.0
  9
$USERI1
 70
0
  9
$USERI2
 70
0
  9
$USERI3
 70
0
  9
$USERI4
 70
0
  9
$USERI5
 70
0
  9
$USERR1
 40
0.0
  9
$USERR2
 40
0.0
  9
$USERR3
 40
0.0
  9
$USERR4
 40
0.0
  9
$USERR5
 40
0.0
  9
$WORLDVIEW
 70
1
  9
$SHADEDGE
 70
3
  9
$SHADEDIF
 70
70
  9
$TILEMODE
 70
1
  9
$MAXACTVP
 70
64
  9
$PINSBASE
 10
0.0
 20
0.0
 30
0.0
  9
$PLIMCHECK
 70
0
  9
$PEXTMIN
 10
1e+20
 20
1e+20
 30
1e+20
  9
$PEXTMAX
 10
-1e+20
 20
-1e+20
 30
-1e+20
  9
$PLIMMIN
 10
0.0
 20
0.0
  9
$PLIMMAX
 10
420.0
 20
297.0
  9
$UNITMODE
 70
0
  9
$VISRETAIN
 70
1
  9
$PLINEGEN
 70
0
  9
$PSLTSCALE
 70
1
  9
$TREEDEPTH
 70
3020
  9
$CMLSTYLE
  2
Standard
  9
$CMLJUST
 70
0
  9
$CMLSCALE
 40
20.0
  9
$PROXYGRAPHICS
 70
1
  9
$MEASUREMENT
 70
1
  9
$CELWEIGHT
370
-1
  9
$ENDCAPS
280
0
  9
$JOINSTYLE
280
0
  9
$LWDISPLAY
290
0
  9
$INSUNITS
 70
2
  9
$HYPERLINKBASE
  1

  9
$STYLESHEET
  1

  9
$XEDIT
290
1
  9
$CEPSNTYPE
380
0
  9
$PSTYLEMODE
290
1
  9
$FINGERPRINTGUID
  2
{D26496F1-D126-4E8E-8AB6-1A32B0C44277}
  9
$VERSIONGUID
  2
{593C4C62-40BF-426E-8AE1-42E5E9A5C5CF}
  9
$EXTNAMES
290
1
  9
$PSVPSCALE
 40
0.0
  9
$OLESTARTUP
290
0
  9
$SORTENTS
280
127
  9
$INDEXCTL
280
0
  9
$HIDETEXT
280
1
  9
$XCLIPFRAME
280
1
  9
$HALOGAP
280
0
  9
$OBSCOLOR
 70
257
  9
$OBSLTYPE
280
0
  9
$INTERSECTIONDISPLAY
280
0
  9
$INTERSECTIONCOLOR
 70
257
  9
$DIMASSOC
280
2
  9
$PROJECTNAME
  1

  9
$CAMERADISPLAY
290
0
  9
$LENSLENGTH
 40
50.0
  9
$CAMERAHEIGHT
 40
0.0
  9
$STEPSPERSEC
 40
24.0
  9
$STEPSIZE
 40
100.0
  9
$3DDWFPREC
 40
2.0
  9
$PSOLWIDTH
 40
0.005
  9
$PSOLHEIGHT
 40
0.08
  9
$LOFTANG1
 40
1.570796326795
  9
$LOFTANG2
 40
1.570796326795
  9
$LOFTMAG1
 40
0.0
  9
$LOFTMAG2
 40
0.0
  9
$LOFTPARAM
 70
7
  9
$LOFTNORMALS
280
1
  9
$LATITUDE
 40
37.795
  9
$LONGITUDE
 40
-122.394
  9
$NORTHDIRECTION
 40
0.0
  9
$TIMEZONE
 70
-8000
  9
$LIGHTGLYPHDISPLAY
280
1
  9
$TILEMODELIGHTSYNCH
280
1
  9
$CMATERIAL
347
20
  9
$SOLIDHIST
280
0
  9
$SHOWHIST
280
1
  9
$DWFFRAME
280
2
  9
$DGNFRAME
280
2
  9
$REALWORLDSCALE
290
1
  9
$INTERFERECOLOR
 62
256
  9
$CSHADOW
280
0
  9
$SHADOWPLANELOCATION
 40
0.0
  0
ENDSEC
  0
SECTION
  2
CLASSES
  0
CLASS
  1
ACDBDICTIONARYWDFLT
  2
AcDbDictionaryWithDefault
  3
ObjectDBX Classes
 90
0
 91
0
280
0
281
0
  0
CLASS
  1
SUN
  2
AcDbSun
  3
SCENEOE
 90
1153
 91
0
280
0
281
0
  0
CLASS
  1
VISUALSTYLE
  2
AcDbVisualStyle
  3
ObjectDBX Classes
 90
4095
 91
0
280
0
281
0
  0
CLASS
  1
MATERIAL
  2
AcDbMaterial
  3
ObjectDBX Classes
 90
1153
 91
0
280
0
281
0
  0
CLASS
  1
SCALE
  2
AcDbScale
  3
ObjectDBX Classes
 90
1153
 91
0
280
0
281
0
  0
CLASS
  1
TABLESTYLE
  2
AcDbTableStyle
  3
ObjectDBX Classes
 90
4095
 91
0
280
0
281
0
  0
CLASS
  1
MLEADERSTYLE
  2
AcDbMLeaderStyle
  3
ACDB_MLEADERSTYLE_CLASS
 90
4095
 91
0
280
0
281
0
  0
CLASS
  1
DICTIONARYVAR
  2
AcDbDictionaryVar
  3
ObjectDBX Classes
 90
0
 91
0
280
0
281
0
  0
CLASS
  1
CELLSTYLEMAP
  2
AcDbCellStyleMap
  3
ObjectDBX Classes
 90
1152
 91
0
280
0
281
0
  0
CLASS
  1
MENTALRAYRENDERSETTINGS
  2
AcDbMentalRayRenderSettings
  3
SCENEOE
 90
1024
 91
0
280
0
281
0
  0
CLASS
  1
ACDBDETAILVIEWSTYLE
  2
AcDbDetailViewStyle
  3
ObjectDBX Classes
 90
1025
 91
0
280
0
281
0
  0
CLASS
  1
ACDBSECTIONVIEWSTYLE
  2
AcDbSectionViewStyle
  3
ObjectDBX Classes
 90
1025
 91
0
280
0
281
0
  0
CLASS
  1
RASTERVARIABLES
  2
AcDbRasterVariables
  3
ISM
 90
0
 91
0
280
0
281
0
  0
CLASS
  1
LAYOUT
  2
AcDbLayout
  3
ObjectDBX Classes
 90
0
 91
0
280
0
281
0
  0
CLASS
  1
ACDBPLACEHOLDER
  2
AcDbPlaceHolder
  3
ObjectDBX Classes
 90
0
 91
0
280
0
281
0
  0
ENDSEC
  0
SECTION
  2
TABLES
  0
TABLE
  2
VPORT
  5
8
330
0
100
AcDbSymbolTable
 70
1
  0
VPORT
  5
8D
330
8
100
AcDbSymbolTableRecord
100
AcDbViewportTableRecord
  2
*Active
 70
0
 10
0.0
 20
0.0
 11
1.0
 21
1.0
 12
200.0
 22
100.0
 13
0.0
 23
0.0
 14
0.5
 24
0.5
 15
0.5
 25
0.5
 16
0.0
 26
0.0
 36
1.0
 17
0.0
 27
0.0
 37
0.0
 40
500.0
 41
1.34
 42
50.0
 43
0.0
 44
0.0
 50
0.0
 51
0.0
 71
0
 72
1000
 73
1
 74
3
 75
0
 76
0
 77
0
 78
0
281
0
 65
1
110
0.0
120
0.0
130
0.0
111
1.0
121
0.0
131
0.0
112
0.0
122
1.0
132
0.0
 79
0
146
0.0
  0
ENDTAB
  0
TABLE
  2
LTYPE
  5
2
330
0
100
AcDbSymbolTable
 70
21
  0
LTYPE
  5
24
330
2
100
AcDbSymbolTableRecord
100
AcDbLinetypeTableRecord
  2
ByBlock
 70
0
  3

 72
65
 73
0
 40
0.0
  0
LTYPE
  5
25
330
2
100
AcDbSymbolTableRecord
100
AcDbLinetypeTableRecord
  2
ByLayer
 70
0
  3

 72
65
 73
0
 40
0.0
  0
LTYPE
  5
26
330
2
100
AcDbSymbolTableRecord
100
AcDbLinetypeTableRecord
  2
Continuous
 70
0
  3

 72
65
 73
0
 40
0.0
  0
LTYPE
  5
2F
330
2
100
AcDbSymbolTableRecord
100
AcDbLinetypeTableRecord
  2
CENTER
 70
0
  3
Center ____ _ ____ _ ____ _ ____ _ ____ _ ____
 72
65
 73
4
 40
5.08
 49
3.175
 74
0
 49
-0.635
 74
0
 49
0.635
 74
0
 49
-0.635
 74
0
  0
LTYPE
  5
30
330
2
100
AcDbSymbolTableRecord
100
AcDbLinetypeTableRecord
  2
CENTERX2
 70
0
  3
Center (2x) ________  __  ________  __  ________
 72
65
 73
4
 40
8.89
 49
6.35
 74
0
 49
-0.635
 74
0
 49
1.27
 74
0
 49
-0.635
 74
0
  0
LTYPE
  5
31
330
2
100
AcDbSymbolTableRecord
100
AcDbLinetypeTableRecord
  2
CENTER2
 70
0
  3
Center (.5x) ____ _ ____ _ ____ _ ____ _ ____
 72
65
 73
4
 40
2.54
 49
1.587
 74
0
 49
-0.318
 74
0
 49
0.318
 74
0
 49
-0.318
 74
0
  0
LTYPE
  5
32
330
2
100
AcDbSymbolTableRecord
100
AcDbLinetypeTableRecord
  2
DASHED
 70
0
  3
Dashed __ __ __ __ __ __ __ __ __ __ __ __ __ _
 72
65
 73
2
 40
1.524
 49
1.27
 74
0
 49
-0.254
 74
0
  0
LTYPE
  5
33
330
2
100
AcDbSymbolTableRecord
100
AcDbLinetypeTableRecord
  2
DASHEDX2
 70
0
  3
Dashed (2x) ____  ____  ____  ____  ____  ____
 72
65
 73
2
 40
3.048
 49
2.54
 74
0
 49
-0.508
 74
0
  0
LTYPE
  5
34
330
2
100
AcDbSymbolTableRecord
100
AcDbLinetypeTableRecord
  2
DASHED2
 70
0
  3
Dashed (.5x) _ _ _ _ _ _ _ _ _ _ _ _ _ _
 72
65
 73
2
 40
0.762
 49
0.635
 74
0
 49
-0.127
 74
0
  0
LTYPE
  5
35
330
2
100
AcDbSymbolTableRecord
100
AcDbLinetypeTableRecord
  2
PHANTOM
 70
0
  3
Phantom ______  __  __  ______  __  __  ______
 72
65
 73
6
 40
6.35
 49
3.175
 74
0
 49
-0.635
 74
0
 49
0.635
 74
0
 49
-0.635
 74
0
 49
0.635
 74
0
 49
-0.635
 74
0
  0
LTYPE
  5
36
330
2
100
AcDbSymbolTableRecord
100
AcDbLinetypeTableRecord
  2
PHANTOMX2
 70
0
  3
Phantom (2x)____________    ____    ____    ____________
 72
65
 73
6
 40
10.795
 49
6.35
 74
0
 49
-0.635
 74
0
 49
1.27
 74
0
 49
-0.635
 74
0
 49
1.27
 74
0
 49
-0.635
 74
0
  0
LTYPE
  5
37
330
2
100
AcDbSymbolTableRecord
100
AcDbLinetypeTableRecord
  2
PHANTOM2
 70
0
  3
Phantom (.5x) ___ _ _ ___ _ _ ___ _ _ ___ _ _ ___
 72
65
 73
6
 40
3.175
 49
1.587
 74
0
 49
-0.318
 74
0
 49
0.318
 74
0
 49
-0.318
 74
0
 49
0.318
 74
0
 49
-0.318
 74
0
  0
LTYPE
  5
38
330
2
100
AcDbSymbolTableRecord
100
AcDbLinetypeTableRecord
  2
DASHDOT
 70
0
  3
Dash dot __ . __ . __ . __ . __ . __ . __ . __
 72
65
 73
4
 40
3.556
 49
2.54
 74
0
 49
-0.508
 74
0
 49
0.0
 74
0
 49
-0.508
 74
0
  0
LTYPE
  5
39
330
2
100
AcDbSymbolTableRecord
100
AcDbLinetypeTableRecord
  2
DASHDOTX2
 70
0
  3
Dash dot (2x) ____  .  ____  .  ____  .  ____
 72
65
 73
4
 40
6.096
 49
5.08
 74
0
 49
-0.508
 74
0
 49
0.0
 74
0
 49
-0.508
 74
0
  0
LTYPE
  5
3A
330
2
100
AcDbSymbolTableRecord
100
AcDbLinetypeTableRecord
  2
DASHDOT2
 70
0
  3
Dash dot (.5x) _ . _ . _ . _ . _ . _ . _ . _
 72
65
 73
4
 40
1.778
 49
1.27
 74
0
 49
-0.254
 74
0
 49
0.0
 74
0
 49
-0.254
 74
0
  0
LTYPE
  5
3B
330
2
100
AcDbSymbolTableRecord
100
AcDbLinetypeTableRecord
  2
DOT
 70
0
  3
Dot .  .  .  .  .  .  .  .  .  .  .  .  .  .  .  .
 72
65
 73
2
 40
0.508
 49
0.0
 74
0
 49
-0.508
 74
0
  0
LTYPE
  5
3C
330
2
100
AcDbSymbolTableRecord
100
AcDbLinetypeTableRecord
  2
DOTX2
 70
0
  3
Dot (2x) .    .    .    .    .    .    .    . 
 72
65
 73
2
 40
1.016
 49
0.0
 74
0
 49
-1.016
 74
0
  0
LTYPE
  5
3D
330
2
100
AcDbSymbolTableRecord
100
AcDbLinetypeTableRecord
  2
DOT2
 70
0
  3
Dot (.5) . . . . . . . . . . . . . . . . . . . 
 72
65
 73
2
 40
0.254
 49
0.0
 74
0
 49
-0.254
 74
0
  0
LTYPE
  5
3E
330
2
100
AcDbSymbolTableRecord
100
AcDbLinetypeTableRecord
  2
DIVIDE
 70
0
  3
Divide __ . . __ . . __ . . __ . . __ . . __
 72
65
 73
6
 40
4.064
 49
2.54
 74
0
 49
-0.508
 74
0
 49
0.0
 74
0
 49
-0.508
 74
0
 49
0.0
 74
0
 49
-0.508
 74
0
  0
LTYPE
  5
3F
330
2
100
AcDbSymbolTableRecord
100
AcDbLinetypeTableRecord
  2
DIVIDEX2
 70
0
  3
Divide (2x) ____  . .  ____  . .  ____  . .  ____
 72
65
 73
6
 40
6.604
 49
5.08
 74
0
 49
-0.508
 74
0
 49
0.0
 74
0
 49
-0.508
 74
0
 49
0.0
 74
0
 49
-0.508
 74
0
  0
LTYPE
  5
40
330
2
100
AcDbSymbolTableRecord
100
AcDbLinetypeTableRecord
  2
DIVIDE2
 70
0
  3
Divide(.5x) _ . _ . _ . _ . _ . _ . _ . _
 72
65
 73
6
 40
2.032
 49
1.27
 74
0
 49
-0.254
 74
0
 49
0.0
 74
0
 49
-0.254
 74
0
 49
0.0
 74
0
 49
-0.254
 74
0
  0
ENDTAB
  0
TABLE
  2
LAYER
  5
1
330
0
100
AcDbSymbolTable
 70
77
  0
LAYER
  5
27
330
1
100
AcDbSymbolTableRecord
100
AcDbLayerTableRecord
  2
0
 70
0
 62
7
  6
Continuous
370
-3
390
13
347
21
  0
LAYER
  5
28
330
1
100
AcDbSymbolTableRecord
100
AcDbLayerTableRecord
  2
Defpoints
 70
0
 62
7
  6
Continuous
290
0
370
-3
390
13
347
21
  0
LAYER
  5
41
330
1
100
AcDbSymbolTableRecord
100
AcDbLayerTableRecord
  2
ROAD-CL
 70
0
 62
1
  6
Continuous
370
-3
390
13
347
21
1001
AcAecLayerStandard
1000

1000
Road centerline
  0
LAYER
  5
43
330
1
100
AcDbSymbolTableRecord
100
AcDbLayerTableRecord
  2
ROAD-EOP
 70
0
 62
7
  6
Continuous
370
-3
390
13
347
21
1001
AcAecLayerStandard
1000

1000
Edge of pavement
  0
LAYER
  5
44
330
1
100
AcDbSymbolTableRecord
100
AcDbLayerTableRecord
  2
ROAD-SHLDR
 70
0
 62
8
  6
Continuous
370
-3
390
13
347
21
1001
AcAecLayerStandard
1000

1000
Shoulder edge
  0
LAYER
  5
45
330
1
100
AcDbSymbolTableRecord
100
AcDbLayerTableRecord
  2
ROAD-CURB
 70
0
 62
7
  6
Continuous
370
-3
390
13
347
21
1001
AcAecLayerStandard
1000

1000
Curb and gutter
  0
LAYER
  5
46
330
1
100
AcDbSymbolTableRecord
100
AcDbLayerTableRecord
  2
ROAD-SIDEWALK
 70
0
 62
8
  6
Continuous
370
-3
390
13
347
21
1001
AcAecLayerStandard
1000

1000
Sidewalk
  0
LAYER
  5
47
330
1
100
AcDbSymbolTableRecord
100
AcDbLayerTableRecord
  2
ROAD-XSEC
 70
0
 62
2
  6
Continuous
370
-3
390
13
347
21
1001
AcAecLayerStandard
1000

1000
Road cross-section
  0
LAYER
  5
48
330
1
100
AcDbSymbolTableRecord
100
AcDbLayerTableRecord
  2
ROAD-TURN-LANE
 70
0
 62
30
  6
Continuous
370
-3
390
13
347
21
1001
AcAecLayerStandard
1000

1000
Turn lane
  0
LAYER
  5
49
330
1
100
AcDbSymbolTableRecord
100
AcDbLayerTableRecord
  2
ROAD-BIKE-LANE
 70
0
 62
3
  6
Continuous
370
-3
390
13
347
21
1001
AcAecLayerStandard
1000

1000
Bike lane
  0
LAYER
  5
4A
330
1
100
AcDbSymbolTableRecord
100
AcDbLayerTableRecord
  2
ROAD-DIM
 70
0
 62
2
  6
Continuous
370
-3
390
13
347
21
1001
AcAecLayerStandard
1000

1000
Road dimensions
  0
LAYER
  5
4B
330
1
100
AcDbSymbolTableRecord
100
AcDbLayerTableRecord
  2
ROAD-STRIPING
 70
0
 62
7
  6
Continuous
370
-3
390
13
347
21
1001
AcAecLayerStandard
1000

1000
Pavement striping
  0
LAYER
  5
4C
330
1
100
AcDbSymbolTableRecord
100
AcDbLayerTableRecord
  2
ROAD-MEDIAN
 70
0
 62
92
  6
Continuous
370
-3
390
13
347
21
1001
AcAecLayerStandard
1000

1000
Median
  0
LAYER
  5
4D
330
1
100
AcDbSymbolTableRecord
100
AcDbLayerTableRecord
  2
ROAD-STATION
 70
0
 62
2
  6
Continuous
370
-3
390
13
347
21
1001
AcAecLayerStandard
1000

1000
Station labels
  0
LAYER
  5
4E
330
1
100
AcDbSymbolTableRecord
100
AcDbLayerTableRecord
  2
DRAIN-PIPE-STORM
 70
0
 62
4
  6
Continuous
370
-3
390
13
347
21
1001
AcAecLayerStandard
1000

1000
Storm sewer pipe
  0
LAYER
  5
4F
330
1
100
AcDbSymbolTableRecord
100
AcDbLayerTableRecord
  2
DRAIN-PIPE-SANITARY
 70
0
 62
34
  6
Continuous
370
-3
390
13
347
21
1001
AcAecLayerStandard
1000

1000
Sanitary sewer pipe
  0
LAYER
  5
50
330
1
100
AcDbSymbolTableRecord
100
AcDbLayerTableRecord
  2
DRAIN-INLET
 70
0
 62
4
  6
Continuous
370
-3
390
13
347
21
1001
AcAecLayerStandard
1000

1000
Storm inlet
  0
LAYER
  5
51
330
1
100
AcDbSymbolTableRecord
100
AcDbLayerTableRecord
  2
DRAIN-MH
 70
0
 62
4
  6
Continuous
370
-3
390
13
347
21
1001
AcAecLayerStandard
1000

1000
Manhole
  0
LAYER
  5
52
330
1
100
AcDbSymbolTableRecord
100
AcDbLayerTableRecord
  2
DRAIN-CULVERT
 70
0
 62
4
  6
Continuous
370
-3
390
13
347
21
1001
AcAecLayerStandard
1000

1000
Culvert
  0
LAYER
  5
53
330
1
100
AcDbSymbolTableRecord
100
AcDbLayerTableRecord
  2
DRAIN-CHANNEL
 70
0
 62
150
  6
Continuous
370
-3
390
13
347
21
1001
AcAecLayerStandard
1000

1000
Open channel/swale
  0
LAYER
  5
54
330
1
100
AcDbSymbolTableRecord
100
AcDbLayerTableRecord
  2
DRAIN-POND
 70
0
 62
5
  6
Continuous
370
-3
390
13
347
21
1001
AcAecLayerStandard
1000

1000
Detention/retention pond
  0
LAYER
  5
55
330
1
100
AcDbSymbolTableRecord
100
AcDbLayerTableRecord
  2
DRAIN-SWALE
 70
0
 62
150
  6
Continuous
370
-3
390
13
347
21
1001
AcAecLayerStandard
1000

1000
Drainage swale
  0
LAYER
  5
56
330
1
100
AcDbSymbolTableRecord
100
AcDbLayerTableRecord
  2
DRAIN-CONTOUR-EXIST
 70
0
 62
8
  6
Continuous
370
-3
390
13
347
21
1001
AcAecLayerStandard
1000

1000
Existing drainage contour
  0
LAYER
  5
57
330
1
100
AcDbSymbolTableRecord
100
AcDbLayerTableRecord
  2
DRAIN-CONTOUR-PROP
 70
0
 62
4
  6
Continuous
370
-3
390
13
347
21
1001
AcAecLayerStandard
1000

1000
Proposed drainage contour
  0
LAYER
  5
58
330
1
100
AcDbSymbolTableRecord
100
AcDbLayerTableRecord
  2
DRAIN-FLOWLINE
 70
0
 62
5
  6
Continuous
370
-3
390
13
347
21
1001
AcAecLayerStandard
1000

1000
Flow direction
  0
LAYER
  5
59
330
1
100
AcDbSymbolTableRecord
100
AcDbLayerTableRecord
  2
DRAIN-LABEL
 70
0
 62
4
  6
Continuous
370
-3
390
13
347
21
1001
AcAecLayerStandard
1000

1000
Drainage labels
  0
LAYER
  5
5A
330
1
100
AcDbSymbolTableRecord
100
AcDbLayerTableRecord
  2
GRADE-EXIST-CONTOUR
 70
0
 62
8
  6
Continuous
370
-3
390
13
347
21
1001
AcAecLayerStandard
1000

1000
Existing contour
  0
LAYER
  5
5B
330
1
100
AcDbSymbolTableRecord
100
AcDbLayerTableRecord
  2
GRADE-EXIST-INDEX
 70
0
 62
8
  6
Continuous
370
-3
390
13
347
21
1001
AcAecLayerStandard
1000

1000
Existing index contour
  0
LAYER
  5
5C
330
1
100
AcDbSymbolTableRecord
100
AcDbLayerTableRecord
  2
GRADE-PROP-CONTOUR
 70
0
 62
3
  6
Continuous
370
-3
390
13
347
21
1001
AcAecLayerStandard
1000

1000
Proposed contour
  0
LAYER
  5
5D
330
1
100
AcDbSymbolTableRecord
100
AcDbLayerTableRecord
  2
GRADE-PROP-INDEX
 70
0
 62
3
  6
Continuous
370
-3
390
13
347
21
1001
AcAecLayerStandard
1000

1000
Proposed index contour
  0
LAYER
  5
5E
330
1
100
AcDbSymbolTableRecord
100
AcDbLayerTableRecord
  2
GRADE-SLOPE
 70
0
 62
30
  6
Continuous
370
-3
390
13
347
21
1001
AcAecLayerStandard
1000

1000
Slope arrow
  0
LAYER
  5
5F
330
1
100
AcDbSymbolTableRecord
100
AcDbLayerTableRecord
  2
GRADE-RETWALL
 70
0
 62
34
  6
Continuous
370
-3
390
13
347
21
1001
AcAecLayerStandard
1000

1000
Retaining wall
  0
LAYER
  5
60
330
1
100
AcDbSymbolTableRecord
100
AcDbLayerTableRecord
  2
GRADE-BERM
 70
0
 62
3
  6
Continuous
370
-3
390
13
347
21
1001
AcAecLayerStandard
1000

1000
Berm
  0
LAYER
  5
61
330
1
100
AcDbSymbolTableRecord
100
AcDbLayerTableRecord
  2
GRADE-SWALE
 70
0
 62
92
  6
Continuous
370
-3
390
13
347
21
1001
AcAecLayerStandard
1000

1000
Grading swale
  0
LAYER
  5
62
330
1
100
AcDbSymbolTableRecord
100
AcDbLayerTableRecord
  2
GRADE-FILL
 70
0
 62
2
  6
Continuous
370
-3
390
13
347
21
1001
AcAecLayerStandard
1000

1000
Fill area
  0
LAYER
  5
63
330
1
100
AcDbSymbolTableRecord
100
AcDbLayerTableRecord
  2
GRADE-CUT
 70
0
 62
1
  6
Continuous
370
-3
390
13
347
21
1001
AcAecLayerStandard
1000

1000
Cut area
  0
LAYER
  5
64
330
1
100
AcDbSymbolTableRecord
100
AcDbLayerTableRecord
  2
GRADE-SPOT-ELEV
 70
0
 62
3
  6
Continuous
370
-3
390
13
347
21
1001
AcAecLayerStandard
1000

1000
Spot elevation
  0
LAYER
  5
65
330
1
100
AcDbSymbolTableRecord
100
AcDbLayerTableRecord
  2
UTIL-WATER-MAIN
 70
0
 62
5
  6
Continuous
370
-3
390
13
347
21
1001
AcAecLayerStandard
1000

1000
Water main
  0
LAYER
  5
66
330
1
100
AcDbSymbolTableRecord
100
AcDbLayerTableRecord
  2
UTIL-WATER-SERVICE
 70
0
 62
5
  6
Continuous
370
-3
390
13
347
21
1001
AcAecLayerStandard
1000

1000
Water service
  0
LAYER
  5
67
330
1
100
AcDbSymbolTableRecord
100
AcDbLayerTableRecord
  2
UTIL-SEWER-MAIN
 70
0
 62
34
  6
Continuous
370
-3
390
13
347
21
1001
AcAecLayerStandard
1000

1000
Sewer main
  0
LAYER
  5
68
330
1
100
AcDbSymbolTableRecord
100
AcDbLayerTableRecord
  2
UTIL-GAS-MAIN
 70
0
 62
2
  6
Continuous
370
-3
390
13
347
21
1001
AcAecLayerStandard
1000

1000
Gas main
  0
LAYER
  5
69
330
1
100
AcDbSymbolTableRecord
100
AcDbLayerTableRecord
  2
UTIL-ELEC-DUCTBANK
 70
0
 62
6
  6
Continuous
370
-3
390
13
347
21
1001
AcAecLayerStandard
1000

1000
Electrical duct bank
  0
LAYER
  5
6A
330
1
100
AcDbSymbolTableRecord
100
AcDbLayerTableRecord
  2
UTIL-FIBER
 70
0
 62
30
  6
Continuous
370
-3
390
13
347
21
1001
AcAecLayerStandard
1000

1000
Fiber optic
  0
LAYER
  5
6B
330
1
100
AcDbSymbolTableRecord
100
AcDbLayerTableRecord
  2
UTIL-STORM-MAIN
 70
0
 62
4
  6
Continuous
370
-3
390
13
347
21
1001
AcAecLayerStandard
1000

1000
Storm main (utility)
  0
LAYER
  5
6C
330
1
100
AcDbSymbolTableRecord
100
AcDbLayerTableRecord
  2
UTIL-LABEL
 70
0
 62
7
  6
Continuous
370
-3
390
13
347
21
1001
AcAecLayerStandard
1000

1000
Utility labels
  0
LAYER
  5
6D
330
1
100
AcDbSymbolTableRecord
100
AcDbLayerTableRecord
  2
UTIL-XING
 70
0
 62
1
  6
Continuous
370
-3
390
13
347
21
1001
AcAecLayerStandard
1000

1000
Utility crossing
  0
LAYER
  5
6E
330
1
100
AcDbSymbolTableRecord
100
AcDbLayerTableRecord
  2
STRUC-FOOTING
 70
0
 62
34
  6
Continuous
370
-3
390
13
347
21
1001
AcAecLayerStandard
1000

1000
Footing
  0
LAYER
  5
6F
330
1
100
AcDbSymbolTableRecord
100
AcDbLayerTableRecord
  2
STRUC-COLUMN
 70
0
 62
1
  6
Continuous
370
-3
390
13
347
21
1001
AcAecLayerStandard
1000

1000
Column
  0
LAYER
  5
70
330
1
100
AcDbSymbolTableRecord
100
AcDbLayerTableRecord
  2
STRUC-BEAM
 70
0
 62
1
  6
Continuous
370
-3
390
13
347
21
1001
AcAecLayerStandard
1000

1000
Beam
  0
LAYER
  5
71
330
1
100
AcDbSymbolTableRecord
100
AcDbLayerTableRecord
  2
STRUC-SLAB
 70
0
 62
8
  6
Continuous
370
-3
390
13
347
21
1001
AcAecLayerStandard
1000

1000
Slab
  0
LAYER
  5
72
330
1
100
AcDbSymbolTableRecord
100
AcDbLayerTableRecord
  2
STRUC-RETWALL
 70
0
 62
34
  6
Continuous
370
-3
390
13
347
21
1001
AcAecLayerStandard
1000

1000
Structural retaining wall
  0
LAYER
  5
73
330
1
100
AcDbSymbolTableRecord
100
AcDbLayerTableRecord
  2
STRUC-BRIDGE-DECK
 70
0
 62
7
  6
Continuous
370
-3
390
13
347
21
1001
AcAecLayerStandard
1000

1000
Bridge deck
  0
LAYER
  5
74
330
1
100
AcDbSymbolTableRecord
100
AcDbLayerTableRecord
  2
STRUC-PIER
 70
0
 62
1
  6
Continuous
370
-3
390
13
347
21
1001
AcAecLayerStandard
1000

1000
Bridge pier
  0
LAYER
  5
75
330
1
100
AcDbSymbolTableRecord
100
AcDbLayerTableRecord
  2
STRUC-ABUTMENT
 70
0
 62
1
  6
Continuous
370
-3
390
13
347
21
1001
AcAecLayerStandard
1000

1000
Bridge abutment
  0
LAYER
  5
76
330
1
100
AcDbSymbolTableRecord
100
AcDbLayerTableRecord
  2
SURV-BOUNDARY
 70
0
 62
2
  6
Continuous
370
-3
390
13
347
21
1001
AcAecLayerStandard
1000

1000
Property boundary
  0
LAYER
  5
77
330
1
100
AcDbSymbolTableRecord
100
AcDbLayerTableRecord
  2
SURV-EASEMENT
 70
0
 62
30
  6
Continuous
370
-3
390
13
347
21
1001
AcAecLayerStandard
1000

1000
Easement
  0
LAYER
  5
78
330
1
100
AcDbSymbolTableRecord
100
AcDbLayerTableRecord
  2
SURV-ROW
 70
0
 62
1
  6
Continuous
370
-3
390
13
347
21
1001
AcAecLayerStandard
1000

1000
Right-of-way
  0
LAYER
  5
79
330
1
100
AcDbSymbolTableRecord
100
AcDbLayerTableRecord
  2
SURV-TOPO
 70
0
 62
8
  6
Continuous
370
-3
390
13
347
21
1001
AcAecLayerStandard
1000

1000
Topographic data
  0
LAYER
  5
7A
330
1
100
AcDbSymbolTableRecord
100
AcDbLayerTableRecord
  2
SURV-CONTROL
 70
0
 62
6
  6
Continuous
370
-3
390
13
347
21
1001
AcAecLayerStandard
1000

1000
Survey control point
  0
LAYER
  5
7B
330
1
100
AcDbSymbolTableRecord
100
AcDbLayerTableRecord
  2
SURV-MONUMENT
 70
0
 62
6
  6
Continuous
370
-3
390
13
347
21
1001
AcAecLayerStandard
1000

1000
Survey monument
  0
LAYER
  5
7C
330
1
100
AcDbSymbolTableRecord
100
AcDbLayerTableRecord
  2
SURV-SETBACK
 70
0
 62
30
  6
Continuous
370
-3
390
13
347
21
1001
AcAecLayerStandard
1000

1000
Building setback
  0
LAYER
  5
7D
330
1
100
AcDbSymbolTableRecord
100
AcDbLayerTableRecord
  2
SITE-BLDG
 70
0
 62
7
  6
Continuous
370
-3
390
13
347
21
1001
AcAecLayerStandard
1000

1000
Building footprint
  0
LAYER
  5
7E
330
1
100
AcDbSymbolTableRecord
100
AcDbLayerTableRecord
  2
SITE-PARKING
 70
0
 62
7
  6
Continuous
370
-3
390
13
347
21
1001
AcAecLayerStandard
1000

1000
Parking stall
  0
LAYER
  5
7F
330
1
100
AcDbSymbolTableRecord
100
AcDbLayerTableRecord
  2
SITE-CURB
 70
0
 62
7
  6
Continuous
370
-3
390
13
347
21
1001
AcAecLayerStandard
1000

1000
Site curb
  0
LAYER
  5
80
330
1
100
AcDbSymbolTableRecord
100
AcDbLayerTableRecord
  2
SITE-SIDEWALK
 70
0
 62
8
  6
Continuous
370
-3
390
13
347
21
1001
AcAecLayerStandard
1000

1000
Site sidewalk
  0
LAYER
  5
81
330
1
100
AcDbSymbolTableRecord
100
AcDbLayerTableRecord
  2
SITE-ADA-RAMP
 70
0
 62
3
  6
Continuous
370
-3
390
13
347
21
1001
AcAecLayerStandard
1000

1000
ADA curb ramp
  0
LAYER
  5
82
330
1
100
AcDbSymbolTableRecord
100
AcDbLayerTableRecord
  2
SITE-LANDSCAPE
 70
0
 62
92
  6
Continuous
370
-3
390
13
347
21
1001
AcAecLayerStandard
1000

1000
Landscaping
  0
LAYER
  5
83
330
1
100
AcDbSymbolTableRecord
100
AcDbLayerTableRecord
  2
SITE-FENCE
 70
0
 62
34
  6
Continuous
370
-3
390
13
347
21
1001
AcAecLayerStandard
1000

1000
Fence
  0
LAYER
  5
84
330
1
100
AcDbSymbolTableRecord
100
AcDbLayerTableRecord
  2
SITE-SIGN
 70
0
 62
2
  6
Continuous
370
-3
390
13
347
21
1001
AcAecLayerStandard
1000

1000
Sign
  0
LAYER
  5
85
330
1
100
AcDbSymbolTableRecord
100
AcDbLayerTableRecord
  2
SITE-LIGHT
 70
0
 62
2
  6
Continuous
370
-3
390
13
347
21
1001
AcAecLayerStandard
1000

1000
Site lighting
  0
LAYER
  5
86
330
1
100
AcDbSymbolTableRecord
100
AcDbLayerTableRecord
  2
ANNO-DIM
 70
0
 62
2
  6
Continuous
370
-3
390
13
347
21
1001
AcAecLayerStandard
1000

1000
Dimensions
  0
LAYER
  5
87
330
1
100
AcDbSymbolTableRecord
100
AcDbLayerTableRecord
  2
ANNO-TEXT
 70
0
 62
7
  6
Continuous
370
-3
390
13
347
21
1001
AcAecLayerStandard
1000

1000
General text
  0
LAYER
  5
88
330
1
100
AcDbSymbolTableRecord
100
AcDbLayerTableRecord
  2
ANNO-LEADER
 70
0
 62
7
  6
Continuous
370
-3
390
13
347
21
1001
AcAecLayerStandard
1000

1000
Leader/callout
  0
LAYER
  5
89
330
1
100
AcDbSymbolTableRecord
100
AcDbLayerTableRecord
  2
ANNO-SECTION
 70
0
 62
1
  6
Continuous
370
-3
390
13
347
21
1001
AcAecLayerStandard
1000

1000
Section cut line
  0
LAYER
  5
8A
330
1
100
AcDbSymbolTableRecord
100
AcDbLayerTableRecord
  2
ANNO-TITLEBLOCK
 70
0
 62
7
  6
Continuous
370
-3
390
13
347
21
1001
AcAecLayerStandard
1000

1000
Title block
  0
LAYER
  5
8B
330
1
100
AcDbSymbolTableRecord
100
AcDbLayerTableRecord
  2
ANNO-NORTH
 70
0
 62
7
  6
Continuous
370
-3
390
13
347
21
1001
AcAecLayerStandard
1000

1000
North arrow
  0
LAYER
  5
8C
330
1
100
AcDbSymbolTableRecord
100
AcDbLayerTableRecord
  2
ANNO-MATCHLINE
 70
0
 62
1
  6
Continuous
370
-3
390
13
347
21
1001
AcAecLayerStandard
1000

1000
Match line
  0
ENDTAB
  0
TABLE
  2
STYLE
  5
5
330
0
100
AcDbSymbolTable
 70
1
  0
STYLE
  5
29
330
5
100
AcDbSymbolTableRecord
100
AcDbTextStyleTableRecord
  2
Standard
 70
0
 40
0.0
 41
1.0
 50
0.0
 71
0
 42
2.5
  3
txt
  4

  0
ENDTAB
  0
TABLE
  2
VIEW
  5
7
330
0
100
AcDbSymbolTable
 70
0
  0
ENDTAB
  0
TABLE
  2
UCS
  5
6
330
0
100
AcDbSymbolTable
 70
0
  0
ENDTAB
  0
TABLE
  2
APPID
  5
3
330
0
100
AcDbSymbolTable
 70
4
  0
APPID
  5
2A
330
3
100
AcDbSymbolTableRecord
100
AcDbRegAppTableRecord
  2
ACAD
 70
0
  0
APPID
  5
42
330
3
100
AcDbSymbolTableRecord
100
AcDbRegAppTableRecord
  2
AcAecLayerStandard
 70
0
  0
APPID
  5
219
330
3
100
AcDbSymbolTableRecord
100
AcDbRegAppTableRecord
  2
HATCHBACKGROUNDCOLOR
 70
0
  0
APPID
  5
21A
330
3
100
AcDbSymbolTableRecord
100
AcDbRegAppTableRecord
  2
EZDXF
 70
0
  0
ENDTAB
  0
TABLE
  2
DIMSTYLE
  5
4
330
0
100
AcDbSymbolTable
 70
1
100
AcDbDimStyleTable
  0
DIMSTYLE
105
2B
330
4
100
AcDbSymbolTableRecord
100
AcDbDimStyleTableRecord
  2
Standard
 70
0
 40
1.0
 41
2.5
 42
0.625
 43
3.75
 44
1.25
 45
0.0
 46
0.0
 47
0.0
 48
0.0
 49
2.5
140
2.5
141
2.5
142
0.0
143
0.03937007874
144
1.0
145
0.0
146
1.0
147
0.625
148
0.0
 69
0
 70
0
 71
0
 72
0
 73
0
 74
0
 75
0
 76
0
 77
1
 78
8
 79
3
170
0
171
3
172
1
173
0
174
0
175
0
176
0
177
0
178
0
179
2
271
2
272
2
273
2
274
3
275
0
276
0
277
2
278
44
279
0
280
0
281
0
282
0
283
0
284
8
285
0
286
0
288
0
289
3
290
0
371
-2
372
-2
  0
ENDTAB
  0
TABLE
  2
BLOCK_RECORD
  5
9
330
0
100
AcDbSymbolTable
 70
2
  0
BLOCK_RECORD
  5
17
330
9
100
AcDbSymbolTableRecord
100
AcDbBlockTableRecord
  2
*Model_Space
340
1A
 70
0
280
1
281
0
  0
BLOCK_RECORD
  5
1B
330
9
100
AcDbSymbolTableRecord
100
AcDbBlockTableRecord
  2
*Paper_Space
340
1E
 70
0
280
1
281
0
  0
ENDTAB
  0
ENDSEC
  0
SECTION
  2
BLOCKS
  0
BLOCK
  5
18
330
17
100
AcDbEntity
  8
0
100
AcDbBlockBegin
  2
*Model_Space
 70
0
 10
0.0
 20
0.0
 30
0.0
  3
*Model_Space
  1

  0
ENDBLK
  5
19
330
17
100
AcDbEntity
  8
0
100
AcDbBlockEnd
  0
BLOCK
  5
1C
330
1B
100
AcDbEntity
  8
0
100
AcDbBlockBegin
  2
*Paper_Space
 70
0
 10
0.0
 20
0.0
 30
0.0
  3
*Paper_Space
  1

  0
ENDBLK
  5
1D
330
1B
100
AcDbEntity
  8
0
100
AcDbBlockEnd
  0
ENDSEC
  0
SECTION
  2
ENTITIES
  0
LWPOLYLINE
  5
8E
330
17
100
AcDbEntity
  8
ANNO-DIM
100
AcDbPolyline
 90
5
 70
0
 10
0.0
 20
0.0
 10
1320.0
 20
0.0
 10
1320.0
 20
1020.0
 10
0.0
 20
1020.0
 10
0.0
 20
0.0
  0
LWPOLYLINE
  5
8F
330
17
100
AcDbEntity
  8
ANNO-DIM
100
AcDbPolyline
 90
5
 70
0
 10
15.0
 20
15.0
 10
1305.0
 20
15.0
 10
1305.0
 20
1005.0
 10
15.0
 20
1005.0
 10
15.0
 20
15.0
  0
LINE
  5
90
330
17
100
AcDbEntity
  8
ANNO-DIM
100
AcDbLine
 10
461.99999999999994
 20
15.0
 30
0.0
 11
461.99999999999994
 21
75.0
 31
0.0
  0
LINE
  5
91
330
17
100
AcDbEntity
  8
ANNO-DIM
100
AcDbLine
 10
792.0
 20
15.0
 30
0.0
 11
792.0
 21
75.0
 31
0.0
  0
LINE
  5
92
330
17
100
AcDbEntity
  8
ANNO-DIM
100
AcDbLine
 10
1029.6000000000001
 20
15.0
 30
0.0
 11
1029.6000000000001
 21
75.0
 31
0.0
  0
LINE
  5
93
330
17
100
AcDbEntity
  8
ANNO-DIM
100
AcDbLine
 10
1305.0
 20
15.0
 30
0.0
 11
1305.0
 21
75.0
 31
0.0
  0
LINE
  5
94
330
17
100
AcDbEntity
  8
ANNO-DIM
100
AcDbLine
 10
15.0
 20
75.0
 30
0.0
 11
1305.0
 21
75.0
 31
0.0
  0
LINE
  5
95
330
17
100
AcDbEntity
  8
ANNO-DIM
100
AcDbLine
 10
15.0
 20
45.0
 30
0.0
 11
461.99999999999994
 21
45.0
 31
0.0
  0
TEXT
  5
96
330
17
100
AcDbEntity
  8
ANNO-TEXT
100
AcDbText
 10
20.0
 20
60.0
 30
0.0
 40
0.3
  1
STORM DRAINAGE PLAN
100
AcDbText
  0
TEXT
  5
97
330
17
100
AcDbEntity
  8
ANNO-TEXT
100
AcDbText
 10
20.0
 20
33.0
 30
0.0
 40
0.18
  1
RESIDENTIAL STREET RECONSTRUCTION
100
AcDbText
  0
TEXT
  5
98
330
17
100
AcDbEntity
  8
ANNO-TEXT
100
AcDbText
 10
471.99999999999994
 20
60.0
 30
0.0
 40
0.2
  1
PROJECT NO: TX-2024-0831
100
AcDbText
  0
TEXT
  5
99
330
17
100
AcDbEntity
  8
ANNO-TEXT
100
AcDbText
 10
471.99999999999994
 20
35.0
 30
0.0
 40
0.18
  1
DESIGNED: R. MORALES, PE
100
AcDbText
  0
TEXT
  5
9A
330
17
100
AcDbEntity
  8
ANNO-TEXT
100
AcDbText
 10
802.0
 20
60.0
 30
0.0
 40
0.2
  1
SHEET: C-3.1
100
AcDbText
  0
TEXT
  5
9B
330
17
100
AcDbEntity
  8
ANNO-TEXT
100
AcDbText
 10
802.0
 20
35.0
 30
0.0
 40
0.18
  1
OF 7
100
AcDbText
  0
TEXT
  5
9C
330
17
100
AcDbEntity
  8
ANNO-TEXT
100
AcDbText
 10
1039.6000000000001
 20
60.0
 30
0.0
 40
0.18
  1
DATE: 03-29-2026
100
AcDbText
  0
TEXT
  5
9D
330
17
100
AcDbEntity
  8
ANNO-TEXT
100
AcDbText
 10
1039.6000000000001
 20
35.0
 30
0.0
 40
0.18
  1
SCALE: 1"=40'
100
AcDbText
  0
LINE
  5
9E
330
17
100
AcDbEntity
  8
ROAD-CENTERLINE
  6
CENTER
100
AcDbLine
 10
30.0
 20
500.0
 30
0.0
 11
1230.0
 21
500.0
 31
0.0
  0
LINE
  5
9F
330
17
100
AcDbEntity
  8
ROAD-CENTERLINE
  6
CENTER
100
AcDbLine
 10
630.0
 20
100.0
 30
0.0
 11
630.0
 21
900.0
 31
0.0
  0
LINE
  5
A0
330
17
100
AcDbEntity
  8
ROAD-ROW
  6
DASHED
100
AcDbLine
 10
30.0
 20
530.0
 30
0.0
 11
1230.0
 21
530.0
 31
0.0
  0
LINE
  5
A1
330
17
100
AcDbEntity
  8
ROAD-ROW
  6
DASHED
100
AcDbLine
 10
660.0
 20
100.0
 30
0.0
 11
660.0
 21
900.0
 31
0.0
  0
LINE
  5
A2
330
17
100
AcDbEntity
  8
ROAD-EDGE
100
AcDbLine
 10
30.0
 20
512.0
 30
0.0
 11
1230.0
 21
512.0
 31
0.0
  0
LINE
  5
A3
330
17
100
AcDbEntity
  8
ROAD-EDGE
100
AcDbLine
 10
642.0
 20
100.0
 30
0.0
 11
642.0
 21
900.0
 31
0.0
  0
LINE
  5
A4
330
17
100
AcDbEntity
  8
ROAD-ROW
  6
DASHED
100
AcDbLine
 10
30.0
 20
470.0
 30
0.0
 11
1230.0
 21
470.0
 31
0.0
  0
LINE
  5
A5
330
17
100
AcDbEntity
  8
ROAD-ROW
  6
DASHED
100
AcDbLine
 10
600.0
 20
100.0
 30
0.0
 11
600.0
 21
900.0
 31
0.0
  0
LINE
  5
A6
330
17
100
AcDbEntity
  8
ROAD-EDGE
100
AcDbLine
 10
30.0
 20
488.0
 30
0.0
 11
1230.0
 21
488.0
 31
0.0
  0
LINE
  5
A7
330
17
100
AcDbEntity
  8
ROAD-EDGE
100
AcDbLine
 10
618.0
 20
100.0
 30
0.0
 11
618.0
 21
900.0
 31
0.0
  0
LINE
  5
A8
330
17
100
AcDbEntity
  8
ANNO-DIM
100
AcDbLine
 10
30.0
 20
498.5
 30
0.0
 11
30.0
 21
501.5
 31
0.0
  0
TEXT
  5
A9
330
17
100
AcDbEntity
  8
ANNO-TEXT
100
AcDbText
 10
26.0
 20
462.0
 30
0.0
 40
2.5
  1
0+00
100
AcDbText
  0
LINE
  5
AA
330
17
100
AcDbEntity
  8
ANNO-DIM
100
AcDbLine
 10
130.0
 20
498.5
 30
0.0
 11
130.0
 21
501.5
 31
0.0
  0
TEXT
  5
AB
330
17
100
AcDbEntity
  8
ANNO-TEXT
100
AcDbText
 10
126.0
 20
462.0
 30
0.0
 40
2.5
  1
1+00
100
AcDbText
  0
LINE
  5
AC
330
17
100
AcDbEntity
  8
ANNO-DIM
100
AcDbLine
 10
230.0
 20
498.5
 30
0.0
 11
230.0
 21
501.5
 31
0.0
  0
TEXT
  5
AD
330
17
100
AcDbEntity
  8
ANNO-TEXT
100
AcDbText
 10
226.0
 20
462.0
 30
0.0
 40
2.5
  1
2+00
100
AcDbText
  0
LINE
  5
AE
330
17
100
AcDbEntity
  8
ANNO-DIM
100
AcDbLine
 10
330.0
 20
498.5
 30
0.0
 11
330.0
 21
501.5
 31
0.0
  0
TEXT
  5
AF
330
17
100
AcDbEntity
  8
ANNO-TEXT
100
AcDbText
 10
326.0
 20
462.0
 30
0.0
 40
2.5
  1
3+00
100
AcDbText
  0
LINE
  5
B0
330
17
100
AcDbEntity
  8
ANNO-DIM
100
AcDbLine
 10
430.0
 20
498.5
 30
0.0
 11
430.0
 21
501.5
 31
0.0
  0
TEXT
  5
B1
330
17
100
AcDbEntity
  8
ANNO-TEXT
100
AcDbText
 10
426.0
 20
462.0
 30
0.0
 40
2.5
  1
4+00
100
AcDbText
  0
LINE
  5
B2
330
17
100
AcDbEntity
  8
ANNO-DIM
100
AcDbLine
 10
530.0
 20
498.5
 30
0.0
 11
530.0
 21
501.5
 31
0.0
  0
TEXT
  5
B3
330
17
100
AcDbEntity
  8
ANNO-TEXT
100
AcDbText
 10
526.0
 20
462.0
 30
0.0
 40
2.5
  1
5+00
100
AcDbText
  0
LINE
  5
B4
330
17
100
AcDbEntity
  8
ANNO-DIM
100
AcDbLine
 10
630.0
 20
498.5
 30
0.0
 11
630.0
 21
501.5
 31
0.0
  0
TEXT
  5
B5
330
17
100
AcDbEntity
  8
ANNO-TEXT
100
AcDbText
 10
626.0
 20
462.0
 30
0.0
 40
2.5
  1
6+00
100
AcDbText
  0
LINE
  5
B6
330
17
100
AcDbEntity
  8
ANNO-DIM
100
AcDbLine
 10
730.0
 20
498.5
 30
0.0
 11
730.0
 21
501.5
 31
0.0
  0
TEXT
  5
B7
330
17
100
AcDbEntity
  8
ANNO-TEXT
100
AcDbText
 10
726.0
 20
462.0
 30
0.0
 40
2.5
  1
7+00
100
AcDbText
  0
LINE
  5
B8
330
17
100
AcDbEntity
  8
ANNO-DIM
100
AcDbLine
 10
830.0
 20
498.5
 30
0.0
 11
830.0
 21
501.5
 31
0.0
  0
TEXT
  5
B9
330
17
100
AcDbEntity
  8
ANNO-TEXT
100
AcDbText
 10
826.0
 20
462.0
 30
0.0
 40
2.5
  1
8+00
100
AcDbText
  0
LINE
  5
BA
330
17
100
AcDbEntity
  8
ANNO-DIM
100
AcDbLine
 10
930.0
 20
498.5
 30
0.0
 11
930.0
 21
501.5
 31
0.0
  0
TEXT
  5
BB
330
17
100
AcDbEntity
  8
ANNO-TEXT
100
AcDbText
 10
926.0
 20
462.0
 30
0.0
 40
2.5
  1
9+00
100
AcDbText
  0
LINE
  5
BC
330
17
100
AcDbEntity
  8
ANNO-DIM
100
AcDbLine
 10
1030.0
 20
498.5
 30
0.0
 11
1030.0
 21
501.5
 31
0.0
  0
TEXT
  5
BD
330
17
100
AcDbEntity
  8
ANNO-TEXT
100
AcDbText
 10
1026.0
 20
462.0
 30
0.0
 40
2.5
  1
10+00
100
AcDbText
  0
LINE
  5
BE
330
17
100
AcDbEntity
  8
ANNO-DIM
100
AcDbLine
 10
1130.0
 20
498.5
 30
0.0
 11
1130.0
 21
501.5
 31
0.0
  0
TEXT
  5
BF
330
17
100
AcDbEntity
  8
ANNO-TEXT
100
AcDbText
 10
1126.0
 20
462.0
 30
0.0
 40
2.5
  1
11+00
100
AcDbText
  0
LINE
  5
C0
330
17
100
AcDbEntity
  8
ANNO-DIM
100
AcDbLine
 10
1230.0
 20
498.5
 30
0.0
 11
1230.0
 21
501.5
 31
0.0
  0
TEXT
  5
C1
330
17
100
AcDbEntity
  8
ANNO-TEXT
100
AcDbText
 10
1226.0
 20
462.0
 30
0.0
 40
2.5
  1
12+00
100
AcDbText
  0
TEXT
  5
C2
330
17
100
AcDbEntity
  8
ANNO-TEXT
100
AcDbText
 10
90.0
 20
534.0
 30
0.0
 40
5.0
  1
MAIN ST.
100
AcDbText
  0
TEXT
  5
C3
330
17
100
AcDbEntity
  8
ANNO-TEXT
100
AcDbText
 10
664.0
 20
180.0
 30
0.0
 40
5.0
  1
OAK AVE.
100
AcDbText
  0
LINE
  5
C4
330
17
100
AcDbEntity
  8
ROAD-EDGE
100
AcDbLine
 10
30.0
 20
513.5
 30
0.0
 11
1230.0
 21
513.5
 31
0.0
  0
LINE
  5
C5
330
17
100
AcDbEntity
  8
ROAD-EDGE
100
AcDbLine
 10
643.5
 20
100.0
 30
0.0
 11
643.5
 21
900.0
 31
0.0
  0
LINE
  5
C6
330
17
100
AcDbEntity
  8
ROAD-EDGE
100
AcDbLine
 10
30.0
 20
486.5
 30
0.0
 11
1230.0
 21
486.5
 31
0.0
  0
LINE
  5
C7
330
17
100
AcDbEntity
  8
ROAD-EDGE
100
AcDbLine
 10
616.5
 20
100.0
 30
0.0
 11
616.5
 21
900.0
 31
0.0
  0
LWPOLYLINE
  5
C8
330
17
100
AcDbEntity
  8
ROAD-EDGE
100
AcDbPolyline
 90
19
 70
0
 10
586.5
 20
456.5
 10
589.1146722824298
 20
456.61415905724766
 10
591.709445330008
 20
456.9557674096338
 10
594.2645713530756
 20
457.52222521132796
 10
596.7606042997701
 20
458.3092213764227
 10
599.178547852221
 20
459.3107663889005
 10
601.5
 20
460.51923788646684
 10
603.7072930905314
 20
461.92543867133026
 10
605.7836282905962
 20
463.5186667064307
 10
607.7132034355964
 20
465.2867965644036
 10
609.4813332935694
 20
467.2163717094038
 10
611.0745613286698
 20
469.2927069094686
 10
612.4807621135332
 20
471.5
 10
613.6892336110996
 20
473.82145214777904
 10
614.6907786235772
 20
476.2393957002299
 10
615.477774788672
 20
478.7354286469244
 10
616.0442325903663
 20
481.2905546699921
 10
616.3858409427523
 20
483.88532771757025
 10
616.5
 20
486.5
  0
LWPOLYLINE
  5
C9
330
17
100
AcDbEntity
  8
ROAD-EDGE
100
AcDbPolyline
 90
19
 70
0
 10
643.5
 20
486.5
 10
643.6141590572477
 20
483.88532771757025
 10
643.9557674096337
 20
481.2905546699921
 10
644.522225211328
 20
478.7354286469244
 10
645.3092213764228
 20
476.2393957002299
 10
646.3107663889004
 20
473.82145214777904
 10
647.5192378864668
 20
471.5
 10
648.9254386713302
 20
469.2927069094686
 10
650.5186667064306
 20
467.2163717094038
 10
652.2867965644035
 20
465.2867965644036
 10
654.2163717094038
 20
463.5186667064307
 10
656.2927069094686
 20
461.92543867133026
 10
658.5
 20
460.51923788646684
 10
660.821452147779
 20
459.3107663889005
 10
663.2393957002299
 20
458.3092213764227
 10
665.7354286469243
 20
457.52222521132796
 10
668.290554669992
 20
456.9557674096338
 10
670.8853277175702
 20
456.61415905724766
 10
673.5
 20
456.5
  0
LWPOLYLINE
  5
CA
330
17
100
AcDbEntity
  8
ROAD-EDGE
100
AcDbPolyline
 90
19
 70
0
 10
616.5
 20
513.5
 10
616.3858409427523
 20
516.1146722824298
 10
616.0442325903663
 20
518.7094453300078
 10
615.477774788672
 20
521.2645713530756
 10
614.6907786235772
 20
523.7606042997701
 10
613.6892336110996
 20
526.178547852221
 10
612.4807621135332
 20
528.5
 10
611.0745613286698
 20
530.7072930905314
 10
609.4813332935694
 20
532.7836282905962
 10
607.7132034355964
 20
534.7132034355964
 10
605.7836282905962
 20
536.4813332935694
 10
603.7072930905314
 20
538.0745613286697
 10
601.5
 20
539.4807621135332
 10
599.178547852221
 20
540.6892336110996
 10
596.7606042997701
 20
541.6907786235772
 10
594.2645713530757
 20
542.477774788672
 10
591.709445330008
 20
543.0442325903662
 10
589.1146722824298
 20
543.3858409427523
 10
586.5
 20
543.5
  0
LWPOLYLINE
  5
CB
330
17
100
AcDbEntity
  8
ROAD-EDGE
100
AcDbPolyline
 90
19
 70
0
 10
673.5
 20
543.5
 10
670.8853277175702
 20
543.3858409427523
 10
668.290554669992
 20
543.0442325903662
 10
665.7354286469243
 20
542.477774788672
 10
663.2393957002299
 20
541.6907786235772
 10
660.821452147779
 20
540.6892336110996
 10
658.5
 20
539.4807621135332
 10
656.2927069094686
 20
538.0745613286697
 10
654.2163717094038
 20
536.4813332935694
 10
652.2867965644036
 20
534.7132034355964
 10
650.5186667064306
 20
532.7836282905962
 10
648.9254386713302
 20
530.7072930905314
 10
647.5192378864668
 20
528.5
 10
646.3107663889004
 20
526.178547852221
 10
645.3092213764228
 20
523.7606042997701
 10
644.522225211328
 20
521.2645713530756
 10
643.9557674096337
 20
518.7094453300078
 10
643.6141590572477
 20
516.1146722824298
 10
643.5
 20
513.5
  0
LWPOLYLINE
  5
CC
330
17
100
AcDbEntity
  8
GRAD-EXIST
  6
DASHED
100
AcDbPolyline
 90
13
 70
0
 10
30.0
 20
105.0
 10
130.0
 20
108.48528137423857
 10
230.0
 20
112.0
 10
330.0
 20
108.48528137423857
 10
430.0
 20
105.0
 10
530.0
 20
105.0
 10
630.0
 20
105.0
 10
730.0
 20
105.0
 10
830.0
 20
105.0
 10
930.0
 20
108.48528137423857
 10
1030.0
 20
112.0
 10
1130.0
 20
108.48528137423858
 10
1230.0
 20
105.0
  0
LWPOLYLINE
  5
CD
330
17
100
AcDbEntity
  8
GRAD-EXIST-INDEX
  6
Continuous
100
AcDbPolyline
 90
13
 70
0
 10
30.0
 20
182.1483548811099
 10
130.0
 20
189.86730686640516
 10
230.0
 20
191.80612431345747
 10
330.0
 20
186.82907425674912
 10
430.0
 20
177.8516451188901
 10
530.0
 20
170.13269313359484
 10
630.0
 20
168.19387568654253
 10
730.0
 20
173.17092574325088
 10
830.0
 20
182.14835488110987
 10
930.0
 20
189.86730686640516
 10
1030.0
 20
191.80612431345747
 10
1130.0
 20
186.82907425674915
 10
1230.0
 20
177.85164511889013
  0
TEXT
  5
CE
330
17
100
AcDbEntity
  8
ANNO-TEXT
100
AcDbText
 10
632.0
 20
169.19387568654253
 30
0.0
 40
2.5
  1
100
100
AcDbText
  0
LWPOLYLINE
  5
CF
330
17
100
AcDbEntity
  8
GRAD-EXIST
  6
DASHED
100
AcDbPolyline
 90
13
 70
0
 10
30.0
 20
264.22729079930104
 10
130.0
 20
270.9304938763967
 10
230.0
 20
271.2307618841352
 10
330.0
 20
264.9522018959301
 10
430.0
 20
255.77270920069893
 10
530.0
 20
249.06950612360328
 10
630.0
 20
248.7692381158648
 10
730.0
 20
255.04779810406987
 10
830.0
 20
264.22729079930104
 10
930.0
 20
270.9304938763967
 10
1030.0
 20
271.23076188413523
 10
1130.0
 20
264.95220189593016
 10
1230.0
 20
255.77270920069893
  0
LWPOLYLINE
  5
D0
330
17
100
AcDbEntity
  8
GRAD-EXIST
  6
DASHED
100
AcDbPolyline
 90
13
 70
0
 10
30.0
 20
346.1696318998373
 10
130.0
 20
351.640488052299
 10
230.0
 20
350.2925041763659
 10
330.0
 20
342.91531094469934
 10
430.0
 20
333.8303681001627
 10
530.0
 20
328.359511947701
 10
630.0
 20
329.7074958236341
 10
730.0
 20
337.08468905530066
 10
830.0
 20
346.1696318998373
 10
930.0
 20
351.640488052299
 10
1030.0
 20
350.2925041763659
 10
1130.0
 20
342.9153109446994
 10
1230.0
 20
333.8303681001627
  0
LWPOLYLINE
  5
D1
330
17
100
AcDbEntity
  8
GRAD-EXIST
  6
DASHED
100
AcDbPolyline
 90
13
 70
0
 10
30.0
 20
427.91261606365765
 10
130.0
 20
431.97434762606304
 10
230.0
 20
429.0216687496907
 10
330.0
 20
420.78421867498713
 10
430.0
 20
412.08738393634235
 10
530.0
 20
408.02565237393696
 10
630.0
 20
410.9783312503093
 10
730.0
 20
419.21578132501287
 10
830.0
 20
427.91261606365765
 10
930.0
 20
431.97434762606304
 10
1030.0
 20
429.0216687496907
 10
1130.0
 20
420.78421867498713
 10
1230.0
 20
412.08738393634235
  0
LWPOLYLINE
  5
D2
330
17
100
AcDbEntity
  8
GRAD-EXIST
  6
DASHED
100
AcDbPolyline
 90
13
 70
0
 10
30.0
 20
509.3999229155298
 10
130.0
 20
511.92128472201006
 10
230.0
 20
507.459319619248
 10
330.0
 20
498.6277862496062
 10
430.0
 20
490.6000770844702
 10
530.0
 20
488.07871527798994
 10
630.0
 20
492.540680380752
 10
730.0
 20
501.3722137503938
 10
830.0
 20
509.3999229155298
 10
930.0
 20
511.92128472201006
 10
1030.0
 20
507.459319619248
 10
1130.0
 20
498.6277862496062
 10
1230.0
 20
490.6000770844702
  0
LWPOLYLINE
  5
D3
330
17
100
AcDbEntity
  8
GRAD-EXIST-INDEX
  6
Continuous
100
AcDbPolyline
 90
13
 70
0
 10
30.0
 20
590.5834936826193
 10
130.0
 20
591.4830139412989
 10
230.0
 20
585.6559403700849
 10
330.0
 20
576.5156936380486
 10
430.0
 20
569.4165063173807
 10
530.0
 20
568.5169860587011
 10
630.0
 20
574.3440596299151
 10
730.0
 20
583.4843063619514
 10
830.0
 20
590.5834936826193
 10
930.0
 20
591.4830139412989
 10
1030.0
 20
585.6559403700849
 10
1130.0
 20
576.5156936380486
 10
1230.0
 20
569.4165063173807
  0
TEXT
  5
D4
330
17
100
AcDbEntity
  8
ANNO-TEXT
100
AcDbText
 10
632.0
 20
575.3440596299151
 30
0.0
 40
2.5
  1
110
100
AcDbText
  0
LWPOLYLINE
  5
D5
330
17
100
AcDbEntity
  8
GRAD-EXIST
  6
DASHED
100
AcDbPolyline
 90
13
 70
0
 10
30.0
 20
671.4250840990862
 10
130.0
 20
670.67369695868
 10
230.0
 20
663.6698029005395
 10
330.0
 20
654.516188074499
 10
430.0
 20
648.5749159009138
 10
530.0
 20
649.32630304132
 10
630.0
 20
656.3301970994605
 10
730.0
 20
665.483811925501
 10
830.0
 20
671.4250840990862
 10
930.0
 20
670.67369695868
 10
1030.0
 20
663.6698029005395
 10
1130.0
 20
654.516188074499
 10
1230.0
 20
648.5749159009138
  0
LWPOLYLINE
  5
D6
330
17
100
AcDbEntity
  8
GRAD-EXIST
  6
DASHED
100
AcDbPolyline
 90
13
 70
0
 10
30.0
 20
751.8975001783002
 10
130.0
 20
749.5194849217592
 10
230.0
 20
741.5650845048577
 10
330.0
 20
732.6938788112707
 10
430.0
 20
728.1024998216998
 10
530.0
 20
730.4805150782408
 10
630.0
 20
738.4349154951423
 10
730.0
 20
747.3061211887293
 10
830.0
 20
751.8975001783002
 10
930.0
 20
749.5194849217592
 10
1030.0
 20
741.5650845048577
 10
1130.0
 20
732.6938788112707
 10
1230.0
 20
728.1024998216998
  0
LWPOLYLINE
  5
D7
330
17
100
AcDbEntity
  8
GRAD-EXIST
  6
DASHED
100
AcDbPolyline
 90
13
 70
0
 10
30.0
 20
831.9854769216463
 10
130.0
 20
828.0576734390488
 10
230.0
 20
819.40979413703
 10
330.0
 20
811.1076494249469
 10
430.0
 20
808.0145230783537
 10
530.0
 20
811.9423265609512
 10
630.0
 20
820.59020586297
 10
730.0
 20
828.8923505750531
 10
830.0
 20
831.9854769216463
 10
930.0
 20
828.0576734390488
 10
1030.0
 20
819.40979413703
 10
1130.0
 20
811.1076494249469
 10
1230.0
 20
808.0145230783537
  0
LWPOLYLINE
  5
D8
330
17
100
AcDbEntity
  8
GRAD-LIMIT
  6
DASHED
100
AcDbPolyline
 90
5
 70
0
 10
80.0
 20
513.5
 10
616.5
 20
513.5
 10
616.5
 20
880.0
 10
80.0
 20
880.0
 10
80.0
 20
513.5
  0
TEXT
  5
D9
330
17
100
AcDbEntity
  8
ANNO-TEXT
100
AcDbText
 10
333.25
 20
702.75
 30
0.0
 40
4.0
  1
DA-1
100
AcDbText
  0
TEXT
  5
DA
330
17
100
AcDbEntity
  8
ANNO-TEXT
100
AcDbText
 10
333.25
 20
696.75
 30
0.0
 40
4.0
  1
2.4 AC
100
AcDbText
  0
TEXT
  5
DB
330
17
100
AcDbEntity
  8
ANNO-TEXT
100
AcDbText
 10
333.25
 20
690.75
 30
0.0
 40
4.0
  1
C=0.70
100
AcDbText
  0
LWPOLYLINE
  5
DC
330
17
100
AcDbEntity
  8
GRAD-LIMIT
  6
DASHED
100
AcDbPolyline
 90
5
 70
0
 10
643.5
 20
513.5
 10
1180.0
 20
513.5
 10
1180.0
 20
880.0
 10
643.5
 20
880.0
 10
643.5
 20
513.5
  0
TEXT
  5
DD
330
17
100
AcDbEntity
  8
ANNO-TEXT
100
AcDbText
 10
896.75
 20
702.75
 30
0.0
 40
4.0
  1
DA-2
100
AcDbText
  0
TEXT
  5
DE
330
17
100
AcDbEntity
  8
ANNO-TEXT
100
AcDbText
 10
896.75
 20
696.75
 30
0.0
 40
4.0
  1
1.8 AC
100
AcDbText
  0
TEXT
  5
DF
330
17
100
AcDbEntity
  8
ANNO-TEXT
100
AcDbText
 10
896.75
 20
690.75
 30
0.0
 40
4.0
  1
C=0.65
100
AcDbText
  0
LWPOLYLINE
  5
E0
330
17
100
AcDbEntity
  8
GRAD-LIMIT
  6
DASHED
100
AcDbPolyline
 90
5
 70
0
 10
80.0
 20
120.0
 10
1180.0
 20
120.0
 10
1180.0
 20
486.5
 10
80.0
 20
486.5
 10
80.0
 20
120.0
  0
TEXT
  5
E1
330
17
100
AcDbEntity
  8
ANNO-TEXT
100
AcDbText
 10
615.0
 20
309.25
 30
0.0
 40
4.0
  1
DA-3
100
AcDbText
  0
TEXT
  5
E2
330
17
100
AcDbEntity
  8
ANNO-TEXT
100
AcDbText
 10
615.0
 20
303.25
 30
0.0
 40
4.0
  1
3.1 AC
100
AcDbText
  0
TEXT
  5
E3
330
17
100
AcDbEntity
  8
ANNO-TEXT
100
AcDbText
 10
615.0
 20
297.25
 30
0.0
 40
4.0
  1
C=0.72
100
AcDbText
  0
LINE
  5
E4
330
17
100
AcDbEntity
  8
UTIL-WATER
  6
DASHED
100
AcDbLine
 10
30.0
 20
480.0
 30
0.0
 11
1230.0
 21
480.0
 31
0.0
  0
TEXT
  5
E5
330
17
100
AcDbEntity
  8
ANNO-TEXT
100
AcDbText
 10
60.0
 20
474.0
 30
0.0
 40
2.5
  1
8" D.I. WATER MAIN (EXIST.)
100
AcDbText
  0
LINE
  5
E6
330
17
100
AcDbEntity
  8
UTIL-SANITARY
  6
DASHED
100
AcDbLine
 10
30.0
 20
520.0
 30
0.0
 11
1230.0
 21
520.0
 31
0.0
  0
TEXT
  5
E7
330
17
100
AcDbEntity
  8
ANNO-TEXT
100
AcDbText
 10
60.0
 20
524.0
 30
0.0
 40
2.5
  1
10" PVC SAN. SEWER (EXIST.) INV=96.40
100
AcDbText
  0
LINE
  5
E8
330
17
100
AcDbEntity
  8
UTIL-GAS
  6
DASHED
100
AcDbLine
 10
610.0
 20
100.0
 30
0.0
 11
610.0
 21
900.0
 31
0.0
  0
TEXT
  5
E9
330
17
100
AcDbEntity
  8
ANNO-TEXT
100
AcDbText
 10
612.0
 20
140.0
 30
0.0
 40
2.5
  1
4" GAS (EXIST.)
100
AcDbText
  0
CIRCLE
  5
EA
330
17
100
AcDbEntity
  8
UTIL-STORM
100
AcDbCircle
 10
110.0
 20
485.0
 30
0.0
 40
4.0
  0
CIRCLE
  5
EB
330
17
100
AcDbEntity
  8
UTIL-STORM
100
AcDbCircle
 10
110.0
 20
485.0
 30
0.0
 40
2.0
  0
LINE
  5
EC
330
17
100
AcDbEntity
  8
UTIL-STORM
100
AcDbLine
 10
106.0
 20
485.0
 30
0.0
 11
114.0
 21
485.0
 31
0.0
  0
LINE
  5
ED
330
17
100
AcDbEntity
  8
UTIL-STORM
100
AcDbLine
 10
110.0
 20
481.0
 30
0.0
 11
110.0
 21
489.0
 31
0.0
  0
LINE
  5
EE
330
17
100
AcDbEntity
  8
ANNO-DIM
100
AcDbLine
 10
110.0
 20
485.0
 30
0.0
 11
116.0
 21
493.0
 31
0.0
  0
TEXT
  5
EF
330
17
100
AcDbEntity
  8
ANNO-TEXT
100
AcDbText
 10
116.0
 20
495.0
 30
0.0
 40
3.0
  1
MH-1
100
AcDbText
  0
TEXT
  5
F0
330
17
100
AcDbEntity
  8
ANNO-TEXT
100
AcDbText
 10
116.0
 20
491.0
 30
0.0
 40
2.2
  1
RIM=104.82
100
AcDbText
  0
TEXT
  5
F1
330
17
100
AcDbEntity
  8
ANNO-TEXT
100
AcDbText
 10
116.0
 20
487.0
 30
0.0
 40
2.2
  1
INV OUT=100.15
100
AcDbText
  0
CIRCLE
  5
F2
330
17
100
AcDbEntity
  8
UTIL-STORM
100
AcDbCircle
 10
310.0
 20
485.0
 30
0.0
 40
4.0
  0
CIRCLE
  5
F3
330
17
100
AcDbEntity
  8
UTIL-STORM
100
AcDbCircle
 10
310.0
 20
485.0
 30
0.0
 40
2.0
  0
LINE
  5
F4
330
17
100
AcDbEntity
  8
UTIL-STORM
100
AcDbLine
 10
306.0
 20
485.0
 30
0.0
 11
314.0
 21
485.0
 31
0.0
  0
LINE
  5
F5
330
17
100
AcDbEntity
  8
UTIL-STORM
100
AcDbLine
 10
310.0
 20
481.0
 30
0.0
 11
310.0
 21
489.0
 31
0.0
  0
LINE
  5
F6
330
17
100
AcDbEntity
  8
ANNO-DIM
100
AcDbLine
 10
310.0
 20
485.0
 30
0.0
 11
316.0
 21
493.0
 31
0.0
  0
TEXT
  5
F7
330
17
100
AcDbEntity
  8
ANNO-TEXT
100
AcDbText
 10
316.0
 20
495.0
 30
0.0
 40
3.0
  1
MH-2
100
AcDbText
  0
TEXT
  5
F8
330
17
100
AcDbEntity
  8
ANNO-TEXT
100
AcDbText
 10
316.0
 20
491.0
 30
0.0
 40
2.2
  1
RIM=104.60
100
AcDbText
  0
TEXT
  5
F9
330
17
100
AcDbEntity
  8
ANNO-TEXT
100
AcDbText
 10
316.0
 20
487.0
 30
0.0
 40
2.2
  1
INV IN=99.95
100
AcDbText
  0
CIRCLE
  5
FA
330
17
100
AcDbEntity
  8
UTIL-STORM
100
AcDbCircle
 10
510.0
 20
485.0
 30
0.0
 40
4.0
  0
CIRCLE
  5
FB
330
17
100
AcDbEntity
  8
UTIL-STORM
100
AcDbCircle
 10
510.0
 20
485.0
 30
0.0
 40
2.0
  0
LINE
  5
FC
330
17
100
AcDbEntity
  8
UTIL-STORM
100
AcDbLine
 10
506.0
 20
485.0
 30
0.0
 11
514.0
 21
485.0
 31
0.0
  0
LINE
  5
FD
330
17
100
AcDbEntity
  8
UTIL-STORM
100
AcDbLine
 10
510.0
 20
481.0
 30
0.0
 11
510.0
 21
489.0
 31
0.0
  0
LINE
  5
FE
330
17
100
AcDbEntity
  8
ANNO-DIM
100
AcDbLine
 10
510.0
 20
485.0
 30
0.0
 11
516.0
 21
493.0
 31
0.0
  0
TEXT
  5
FF
330
17
100
AcDbEntity
  8
ANNO-TEXT
100
AcDbText
 10
516.0
 20
495.0
 30
0.0
 40
3.0
  1
MH-3
100
AcDbText
  0
TEXT
  5
100
330
17
100
AcDbEntity
  8
ANNO-TEXT
100
AcDbText
 10
516.0
 20
491.0
 30
0.0
 40
2.2
  1
RIM=104.35
100
AcDbText
  0
TEXT
  5
101
330
17
100
AcDbEntity
  8
ANNO-TEXT
100
AcDbText
 10
516.0
 20
487.0
 30
0.0
 40
2.2
  1
INV IN=99.65
100
AcDbText
  0
CIRCLE
  5
102
330
17
100
AcDbEntity
  8
UTIL-STORM
100
AcDbCircle
 10
710.0
 20
485.0
 30
0.0
 40
4.0
  0
CIRCLE
  5
103
330
17
100
AcDbEntity
  8
UTIL-STORM
100
AcDbCircle
 10
710.0
 20
485.0
 30
0.0
 40
2.0
  0
LINE
  5
104
330
17
100
AcDbEntity
  8
UTIL-STORM
100
AcDbLine
 10
706.0
 20
485.0
 30
0.0
 11
714.0
 21
485.0
 31
0.0
  0
LINE
  5
105
330
17
100
AcDbEntity
  8
UTIL-STORM
100
AcDbLine
 10
710.0
 20
481.0
 30
0.0
 11
710.0
 21
489.0
 31
0.0
  0
LINE
  5
106
330
17
100
AcDbEntity
  8
ANNO-DIM
100
AcDbLine
 10
710.0
 20
485.0
 30
0.0
 11
716.0
 21
493.0
 31
0.0
  0
TEXT
  5
107
330
17
100
AcDbEntity
  8
ANNO-TEXT
100
AcDbText
 10
716.0
 20
495.0
 30
0.0
 40
3.0
  1
MH-4
100
AcDbText
  0
TEXT
  5
108
330
17
100
AcDbEntity
  8
ANNO-TEXT
100
AcDbText
 10
716.0
 20
491.0
 30
0.0
 40
2.2
  1
RIM=104.10
100
AcDbText
  0
TEXT
  5
109
330
17
100
AcDbEntity
  8
ANNO-TEXT
100
AcDbText
 10
716.0
 20
487.0
 30
0.0
 40
2.2
  1
INV IN=99.35
100
AcDbText
  0
CIRCLE
  5
10A
330
17
100
AcDbEntity
  8
UTIL-STORM
100
AcDbCircle
 10
930.0
 20
485.0
 30
0.0
 40
4.0
  0
CIRCLE
  5
10B
330
17
100
AcDbEntity
  8
UTIL-STORM
100
AcDbCircle
 10
930.0
 20
485.0
 30
0.0
 40
2.0
  0
LINE
  5
10C
330
17
100
AcDbEntity
  8
UTIL-STORM
100
AcDbLine
 10
926.0
 20
485.0
 30
0.0
 11
934.0
 21
485.0
 31
0.0
  0
LINE
  5
10D
330
17
100
AcDbEntity
  8
UTIL-STORM
100
AcDbLine
 10
930.0
 20
481.0
 30
0.0
 11
930.0
 21
489.0
 31
0.0
  0
LINE
  5
10E
330
17
100
AcDbEntity
  8
ANNO-DIM
100
AcDbLine
 10
930.0
 20
485.0
 30
0.0
 11
936.0
 21
493.0
 31
0.0
  0
TEXT
  5
10F
330
17
100
AcDbEntity
  8
ANNO-TEXT
100
AcDbText
 10
936.0
 20
495.0
 30
0.0
 40
3.0
  1
MH-5
100
AcDbText
  0
TEXT
  5
110
330
17
100
AcDbEntity
  8
ANNO-TEXT
100
AcDbText
 10
936.0
 20
491.0
 30
0.0
 40
2.2
  1
RIM=103.80
100
AcDbText
  0
TEXT
  5
111
330
17
100
AcDbEntity
  8
ANNO-TEXT
100
AcDbText
 10
936.0
 20
487.0
 30
0.0
 40
2.2
  1
INV IN=99.00
100
AcDbText
  0
CIRCLE
  5
112
330
17
100
AcDbEntity
  8
UTIL-STORM
100
AcDbCircle
 10
380.0
 20
515.0
 30
0.0
 40
4.0
  0
CIRCLE
  5
113
330
17
100
AcDbEntity
  8
UTIL-STORM
100
AcDbCircle
 10
380.0
 20
515.0
 30
0.0
 40
2.0
  0
LINE
  5
114
330
17
100
AcDbEntity
  8
UTIL-STORM
100
AcDbLine
 10
376.0
 20
515.0
 30
0.0
 11
384.0
 21
515.0
 31
0.0
  0
LINE
  5
115
330
17
100
AcDbEntity
  8
UTIL-STORM
100
AcDbLine
 10
380.0
 20
511.0
 30
0.0
 11
380.0
 21
519.0
 31
0.0
  0
LINE
  5
116
330
17
100
AcDbEntity
  8
ANNO-DIM
100
AcDbLine
 10
380.0
 20
515.0
 30
0.0
 11
386.0
 21
523.0
 31
0.0
  0
TEXT
  5
117
330
17
100
AcDbEntity
  8
ANNO-TEXT
100
AcDbText
 10
386.0
 20
525.0
 30
0.0
 40
3.0
  1
MH-6
100
AcDbText
  0
TEXT
  5
118
330
17
100
AcDbEntity
  8
ANNO-TEXT
100
AcDbText
 10
386.0
 20
521.0
 30
0.0
 40
2.2
  1
RIM=105.10
100
AcDbText
  0
TEXT
  5
119
330
17
100
AcDbEntity
  8
ANNO-TEXT
100
AcDbText
 10
386.0
 20
517.0
 30
0.0
 40
2.2
  1
INV OUT=100.40
100
AcDbText
  0
CIRCLE
  5
11A
330
17
100
AcDbEntity
  8
UTIL-STORM
100
AcDbCircle
 10
630.0
 20
515.0
 30
0.0
 40
4.0
  0
CIRCLE
  5
11B
330
17
100
AcDbEntity
  8
UTIL-STORM
100
AcDbCircle
 10
630.0
 20
515.0
 30
0.0
 40
2.0
  0
LINE
  5
11C
330
17
100
AcDbEntity
  8
UTIL-STORM
100
AcDbLine
 10
626.0
 20
515.0
 30
0.0
 11
634.0
 21
515.0
 31
0.0
  0
LINE
  5
11D
330
17
100
AcDbEntity
  8
UTIL-STORM
100
AcDbLine
 10
630.0
 20
511.0
 30
0.0
 11
630.0
 21
519.0
 31
0.0
  0
LINE
  5
11E
330
17
100
AcDbEntity
  8
ANNO-DIM
100
AcDbLine
 10
630.0
 20
515.0
 30
0.0
 11
636.0
 21
523.0
 31
0.0
  0
TEXT
  5
11F
330
17
100
AcDbEntity
  8
ANNO-TEXT
100
AcDbText
 10
636.0
 20
525.0
 30
0.0
 40
3.0
  1
MH-7
100
AcDbText
  0
TEXT
  5
120
330
17
100
AcDbEntity
  8
ANNO-TEXT
100
AcDbText
 10
636.0
 20
521.0
 30
0.0
 40
2.2
  1
RIM=104.90
100
AcDbText
  0
TEXT
  5
121
330
17
100
AcDbEntity
  8
ANNO-TEXT
100
AcDbText
 10
636.0
 20
517.0
 30
0.0
 40
2.2
  1
INV IN=100.20
100
AcDbText
  0
CIRCLE
  5
122
330
17
100
AcDbEntity
  8
UTIL-STORM
100
AcDbCircle
 10
530.0
 20
500.0
 30
0.0
 40
4.0
  0
CIRCLE
  5
123
330
17
100
AcDbEntity
  8
UTIL-STORM
100
AcDbCircle
 10
530.0
 20
500.0
 30
0.0
 40
2.0
  0
LINE
  5
124
330
17
100
AcDbEntity
  8
UTIL-STORM
100
AcDbLine
 10
526.0
 20
500.0
 30
0.0
 11
534.0
 21
500.0
 31
0.0
  0
LINE
  5
125
330
17
100
AcDbEntity
  8
UTIL-STORM
100
AcDbLine
 10
530.0
 20
496.0
 30
0.0
 11
530.0
 21
504.0
 31
0.0
  0
LINE
  5
126
330
17
100
AcDbEntity
  8
ANNO-DIM
100
AcDbLine
 10
530.0
 20
500.0
 30
0.0
 11
536.0
 21
508.0
 31
0.0
  0
TEXT
  5
127
330
17
100
AcDbEntity
  8
ANNO-TEXT
100
AcDbText
 10
536.0
 20
510.0
 30
0.0
 40
3.0
  1
MH-8
100
AcDbText
  0
TEXT
  5
128
330
17
100
AcDbEntity
  8
ANNO-TEXT
100
AcDbText
 10
536.0
 20
506.0
 30
0.0
 40
2.2
  1
RIM=104.55
100
AcDbText
  0
TEXT
  5
129
330
17
100
AcDbEntity
  8
ANNO-TEXT
100
AcDbText
 10
536.0
 20
502.0
 30
0.0
 40
2.2
  1
INV OUT=100.00
100
AcDbText
  0
LINE
  5
12A
330
17
100
AcDbEntity
  8
UTIL-STORM
100
AcDbLine
 10
110.0
 20
485.0
 30
0.0
 11
310.0
 21
485.0
 31
0.0
  0
TEXT
  5
12B
330
17
100
AcDbEntity
  8
ANNO-TEXT
100
AcDbText
 10
190.0
 20
478.0
 30
0.0
 40
2.5
  1
24" RCP @ 0.20%
100
AcDbText
  0
LINE
  5
12C
330
17
100
AcDbEntity
  8
UTIL-STORM
100
AcDbLine
 10
310.0
 20
485.0
 30
0.0
 11
510.0
 21
485.0
 31
0.0
  0
TEXT
  5
12D
330
17
100
AcDbEntity
  8
ANNO-TEXT
100
AcDbText
 10
390.0
 20
478.0
 30
0.0
 40
2.5
  1
24" RCP @ 0.22%
100
AcDbText
  0
LINE
  5
12E
330
17
100
AcDbEntity
  8
UTIL-STORM
100
AcDbLine
 10
510.0
 20
485.0
 30
0.0
 11
710.0
 21
485.0
 31
0.0
  0
TEXT
  5
12F
330
17
100
AcDbEntity
  8
ANNO-TEXT
100
AcDbText
 10
590.0
 20
478.0
 30
0.0
 40
2.5
  1
24" RCP @ 0.20%
100
AcDbText
  0
LINE
  5
130
330
17
100
AcDbEntity
  8
UTIL-STORM
100
AcDbLine
 10
710.0
 20
485.0
 30
0.0
 11
930.0
 21
485.0
 31
0.0
  0
TEXT
  5
131
330
17
100
AcDbEntity
  8
ANNO-TEXT
100
AcDbText
 10
800.0
 20
478.0
 30
0.0
 40
2.5
  1
24" RCP @ 0.25%
100
AcDbText
  0
LINE
  5
132
330
17
100
AcDbEntity
  8
UTIL-STORM
100
AcDbLine
 10
930.0
 20
485.0
 30
0.0
 11
930.0
 21
365.0
 31
0.0
  0
TEXT
  5
133
330
17
100
AcDbEntity
  8
ANNO-TEXT
100
AcDbText
 10
934.0
 20
425.0
 30
0.0
 40
2.5
  1
24" RCP OUTFALL
100
AcDbText
  0
LWPOLYLINE
  5
134
330
17
100
AcDbEntity
  8
UTIL-STORM
100
AcDbPolyline
 90
5
 70
0
 10
918.0
 20
365.0
 10
942.0
 20
365.0
 10
942.0
 20
359.0
 10
918.0
 20
359.0
 10
918.0
 20
365.0
  0
TEXT
  5
135
330
17
100
AcDbEntity
  8
ANNO-TEXT
100
AcDbText
 10
910.0
 20
353.0
 30
0.0
 40
2.5
  1
CONC. HEADWALL (TYP.)
100
AcDbText
  0
TEXT
  5
136
330
17
100
AcDbEntity
  8
ANNO-TEXT
100
AcDbText
 10
900.0
 20
348.0
 30
0.0
 40
2.5
  1
RIPRAP APRON: CLASS B, 8'W x 12'L
100
AcDbText
  0
LINE
  5
137
330
17
100
AcDbEntity
  8
UTIL-STORM
100
AcDbLine
 10
380.0
 20
515.0
 30
0.0
 11
630.0
 21
515.0
 31
0.0
  0
TEXT
  5
138
330
17
100
AcDbEntity
  8
ANNO-TEXT
100
AcDbText
 10
487.0
 20
520.0
 30
0.0
 40
2.5
  1
18" RCP @ 0.30%
100
AcDbText
  0
LINE
  5
139
330
17
100
AcDbEntity
  8
UTIL-STORM
100
AcDbLine
 10
630.0
 20
515.0
 30
0.0
 11
710.0
 21
485.0
 31
0.0
  0
TEXT
  5
13A
330
17
100
AcDbEntity
  8
ANNO-TEXT
100
AcDbText
 10
675.0
 20
500.0
 30
0.0
 40
2.5
  1
18" RCP JCT.
100
AcDbText
  0
LINE
  5
13B
330
17
100
AcDbEntity
  8
UTIL-STORM
100
AcDbLine
 10
530.0
 20
500.0
 30
0.0
 11
510.0
 21
485.0
 31
0.0
  0
TEXT
  5
13C
330
17
100
AcDbEntity
  8
ANNO-TEXT
100
AcDbText
 10
505.0
 20
495.5
 30
0.0
 40
2.5
  1
15" RCP @ 0.40%
100
AcDbText
  0
LINE
  5
13D
330
17
100
AcDbEntity
  8
UTIL-STORM
100
AcDbLine
 10
110.0
 20
478.5
 30
0.0
 11
110.0
 21
485.0
 31
0.0
  0
LWPOLYLINE
  5
13E
330
17
100
AcDbEntity
  8
UTIL-STORM
100
AcDbPolyline
 90
5
 70
0
 10
107.5
 20
477.0
 10
112.5
 20
477.0
 10
112.5
 20
480.0
 10
107.5
 20
480.0
 10
107.5
 20
477.0
  0
TEXT
  5
13F
330
17
100
AcDbEntity
  8
ANNO-TEXT
100
AcDbText
 10
107.0
 20
481.5
 30
0.0
 40
2.5
  1
CI-1
100
AcDbText
  0
TEXT
  5
140
330
17
100
AcDbEntity
  8
ANNO-TEXT
100
AcDbText
 10
113.0
 20
474.5
 30
0.0
 40
2.0
  1
RIM=104.75
100
AcDbText
  0
LINE
  5
141
330
17
100
AcDbEntity
  8
UTIL-STORM
100
AcDbLine
 10
230.0
 20
478.5
 30
0.0
 11
310.0
 21
485.0
 31
0.0
  0
LWPOLYLINE
  5
142
330
17
100
AcDbEntity
  8
UTIL-STORM
100
AcDbPolyline
 90
5
 70
0
 10
227.5
 20
477.0
 10
232.5
 20
477.0
 10
232.5
 20
480.0
 10
227.5
 20
480.0
 10
227.5
 20
477.0
  0
TEXT
  5
143
330
17
100
AcDbEntity
  8
ANNO-TEXT
100
AcDbText
 10
227.0
 20
481.5
 30
0.0
 40
2.5
  1
CI-2
100
AcDbText
  0
TEXT
  5
144
330
17
100
AcDbEntity
  8
ANNO-TEXT
100
AcDbText
 10
233.0
 20
474.5
 30
0.0
 40
2.0
  1
RIM=104.65
100
AcDbText
  0
LINE
  5
145
330
17
100
AcDbEntity
  8
UTIL-STORM
100
AcDbLine
 10
410.0
 20
478.5
 30
0.0
 11
310.0
 21
485.0
 31
0.0
  0
LWPOLYLINE
  5
146
330
17
100
AcDbEntity
  8
UTIL-STORM
100
AcDbPolyline
 90
5
 70
0
 10
407.5
 20
477.0
 10
412.5
 20
477.0
 10
412.5
 20
480.0
 10
407.5
 20
480.0
 10
407.5
 20
477.0
  0
TEXT
  5
147
330
17
100
AcDbEntity
  8
ANNO-TEXT
100
AcDbText
 10
407.0
 20
481.5
 30
0.0
 40
2.5
  1
CI-3
100
AcDbText
  0
TEXT
  5
148
330
17
100
AcDbEntity
  8
ANNO-TEXT
100
AcDbText
 10
413.0
 20
474.5
 30
0.0
 40
2.0
  1
RIM=104.50
100
AcDbText
  0
LINE
  5
149
330
17
100
AcDbEntity
  8
UTIL-STORM
100
AcDbLine
 10
560.0
 20
478.5
 30
0.0
 11
510.0
 21
485.0
 31
0.0
  0
LWPOLYLINE
  5
14A
330
17
100
AcDbEntity
  8
UTIL-STORM
100
AcDbPolyline
 90
5
 70
0
 10
557.5
 20
477.0
 10
562.5
 20
477.0
 10
562.5
 20
480.0
 10
557.5
 20
480.0
 10
557.5
 20
477.0
  0
TEXT
  5
14B
330
17
100
AcDbEntity
  8
ANNO-TEXT
100
AcDbText
 10
557.0
 20
481.5
 30
0.0
 40
2.5
  1
CI-4
100
AcDbText
  0
TEXT
  5
14C
330
17
100
AcDbEntity
  8
ANNO-TEXT
100
AcDbText
 10
563.0
 20
474.5
 30
0.0
 40
2.0
  1
RIM=104.38
100
AcDbText
  0
LINE
  5
14D
330
17
100
AcDbEntity
  8
UTIL-STORM
100
AcDbLine
 10
730.0
 20
478.5
 30
0.0
 11
710.0
 21
485.0
 31
0.0
  0
LWPOLYLINE
  5
14E
330
17
100
AcDbEntity
  8
UTIL-STORM
100
AcDbPolyline
 90
5
 70
0
 10
727.5
 20
477.0
 10
732.5
 20
477.0
 10
732.5
 20
480.0
 10
727.5
 20
480.0
 10
727.5
 20
477.0
  0
TEXT
  5
14F
330
17
100
AcDbEntity
  8
ANNO-TEXT
100
AcDbText
 10
727.0
 20
481.5
 30
0.0
 40
2.5
  1
CI-5
100
AcDbText
  0
TEXT
  5
150
330
17
100
AcDbEntity
  8
ANNO-TEXT
100
AcDbText
 10
733.0
 20
474.5
 30
0.0
 40
2.0
  1
RIM=104.18
100
AcDbText
  0
LINE
  5
151
330
17
100
AcDbEntity
  8
UTIL-STORM
100
AcDbLine
 10
850.0
 20
478.5
 30
0.0
 11
930.0
 21
485.0
 31
0.0
  0
LWPOLYLINE
  5
152
330
17
100
AcDbEntity
  8
UTIL-STORM
100
AcDbPolyline
 90
5
 70
0
 10
847.5
 20
477.0
 10
852.5
 20
477.0
 10
852.5
 20
480.0
 10
847.5
 20
480.0
 10
847.5
 20
477.0
  0
TEXT
  5
153
330
17
100
AcDbEntity
  8
ANNO-TEXT
100
AcDbText
 10
847.0
 20
481.5
 30
0.0
 40
2.5
  1
CI-6
100
AcDbText
  0
TEXT
  5
154
330
17
100
AcDbEntity
  8
ANNO-TEXT
100
AcDbText
 10
853.0
 20
474.5
 30
0.0
 40
2.0
  1
RIM=104.05
100
AcDbText
  0
LINE
  5
155
330
17
100
AcDbEntity
  8
UTIL-STORM
100
AcDbLine
 10
380.0
 20
521.5
 30
0.0
 11
380.0
 21
515.0
 31
0.0
  0
LWPOLYLINE
  5
156
330
17
100
AcDbEntity
  8
UTIL-STORM
100
AcDbPolyline
 90
5
 70
0
 10
377.5
 20
520.0
 10
382.5
 20
520.0
 10
382.5
 20
523.0
 10
377.5
 20
523.0
 10
377.5
 20
520.0
  0
TEXT
  5
157
330
17
100
AcDbEntity
  8
ANNO-TEXT
100
AcDbText
 10
377.0
 20
524.5
 30
0.0
 40
2.5
  1
CI-7
100
AcDbText
  0
TEXT
  5
158
330
17
100
AcDbEntity
  8
ANNO-TEXT
100
AcDbText
 10
383.0
 20
517.5
 30
0.0
 40
2.0
  1
RIM=105.05
100
AcDbText
  0
LINE
  5
159
330
17
100
AcDbEntity
  8
UTIL-STORM
100
AcDbLine
 10
610.0
 20
521.5
 30
0.0
 11
630.0
 21
515.0
 31
0.0
  0
LWPOLYLINE
  5
15A
330
17
100
AcDbEntity
  8
UTIL-STORM
100
AcDbPolyline
 90
5
 70
0
 10
607.5
 20
520.0
 10
612.5
 20
520.0
 10
612.5
 20
523.0
 10
607.5
 20
523.0
 10
607.5
 20
520.0
  0
TEXT
  5
15B
330
17
100
AcDbEntity
  8
ANNO-TEXT
100
AcDbText
 10
607.0
 20
524.5
 30
0.0
 40
2.5
  1
CI-8
100
AcDbText
  0
TEXT
  5
15C
330
17
100
AcDbEntity
  8
ANNO-TEXT
100
AcDbText
 10
613.0
 20
517.5
 30
0.0
 40
2.0
  1
RIM=104.88
100
AcDbText
  0
LINE
  5
15D
330
17
100
AcDbEntity
  8
ANNO-ELEV
100
AcDbLine
 10
148.5
 20
528.5
 30
0.0
 11
151.5
 21
531.5
 31
0.0
  0
LINE
  5
15E
330
17
100
AcDbEntity
  8
ANNO-ELEV
100
AcDbLine
 10
148.5
 20
531.5
 30
0.0
 11
151.5
 21
528.5
 31
0.0
  0
TEXT
  5
15F
330
17
100
AcDbEntity
  8
ANNO-ELEV
100
AcDbText
 10
152.0
 20
531.0
 30
0.0
 40
2.2
  1
105.12
100
AcDbText
  0
LINE
  5
160
330
17
100
AcDbEntity
  8
ANNO-ELEV
100
AcDbLine
 10
428.5
 20
468.5
 30
0.0
 11
431.5
 21
471.5
 31
0.0
  0
LINE
  5
161
330
17
100
AcDbEntity
  8
ANNO-ELEV
100
AcDbLine
 10
428.5
 20
471.5
 30
0.0
 11
431.5
 21
468.5
 31
0.0
  0
TEXT
  5
162
330
17
100
AcDbEntity
  8
ANNO-ELEV
100
AcDbText
 10
432.0
 20
471.0
 30
0.0
 40
2.2
  1
104.40
100
AcDbText
  0
LINE
  5
163
330
17
100
AcDbEntity
  8
ANNO-ELEV
100
AcDbLine
 10
788.5
 20
523.5
 30
0.0
 11
791.5
 21
526.5
 31
0.0
  0
LINE
  5
164
330
17
100
AcDbEntity
  8
ANNO-ELEV
100
AcDbLine
 10
788.5
 20
526.5
 30
0.0
 11
791.5
 21
523.5
 31
0.0
  0
TEXT
  5
165
330
17
100
AcDbEntity
  8
ANNO-ELEV
100
AcDbText
 10
792.0
 20
526.0
 30
0.0
 40
2.2
  1
104.22
100
AcDbText
  0
LINE
  5
166
330
17
100
AcDbEntity
  8
ANNO-ELEV
100
AcDbLine
 10
678.5
 20
698.5
 30
0.0
 11
681.5
 21
701.5
 31
0.0
  0
LINE
  5
167
330
17
100
AcDbEntity
  8
ANNO-ELEV
100
AcDbLine
 10
678.5
 20
701.5
 30
0.0
 11
681.5
 21
698.5
 31
0.0
  0
TEXT
  5
168
330
17
100
AcDbEntity
  8
ANNO-ELEV
100
AcDbText
 10
682.0
 20
701.0
 30
0.0
 40
2.2
  1
106.50
100
AcDbText
  0
LINE
  5
169
330
17
100
AcDbEntity
  8
ANNO-ELEV
100
AcDbLine
 10
548.5
 20
318.5
 30
0.0
 11
551.5
 21
321.5
 31
0.0
  0
LINE
  5
16A
330
17
100
AcDbEntity
  8
ANNO-ELEV
100
AcDbLine
 10
548.5
 20
321.5
 30
0.0
 11
551.5
 21
318.5
 31
0.0
  0
TEXT
  5
16B
330
17
100
AcDbEntity
  8
ANNO-ELEV
100
AcDbText
 10
552.0
 20
321.0
 30
0.0
 40
2.2
  1
103.95
100
AcDbText
  0
LINE
  5
16C
330
17
100
AcDbEntity
  8
ANNO-ELEV
100
AcDbLine
 10
228.5
 20
818.5
 30
0.0
 11
231.5
 21
821.5
 31
0.0
  0
LINE
  5
16D
330
17
100
AcDbEntity
  8
ANNO-ELEV
100
AcDbLine
 10
228.5
 20
821.5
 30
0.0
 11
231.5
 21
818.5
 31
0.0
  0
TEXT
  5
16E
330
17
100
AcDbEntity
  8
ANNO-ELEV
100
AcDbText
 10
232.0
 20
821.0
 30
0.0
 40
2.2
  1
108.30
100
AcDbText
  0
LINE
  5
16F
330
17
100
AcDbEntity
  8
ANNO-ELEV
100
AcDbLine
 10
928.5
 20
838.5
 30
0.0
 11
931.5
 21
841.5
 31
0.0
  0
LINE
  5
170
330
17
100
AcDbEntity
  8
ANNO-ELEV
100
AcDbLine
 10
928.5
 20
841.5
 30
0.0
 11
931.5
 21
838.5
 31
0.0
  0
TEXT
  5
171
330
17
100
AcDbEntity
  8
ANNO-ELEV
100
AcDbText
 10
932.0
 20
841.0
 30
0.0
 40
2.2
  1
107.75
100
AcDbText
  0
LWPOLYLINE
  5
172
330
17
100
AcDbEntity
  8
UTIL-STORM
100
AcDbPolyline
 90
7
 70
0
 10
930.0
 20
200.0
 10
1170.0
 20
200.0
 10
1200.0
 20
260.0
 10
1170.0
 20
380.0
 10
960.0
 20
400.0
 10
910.0
 20
320.0
 10
930.0
 20
200.0
  0
LWPOLYLINE
  5
173
330
17
100
AcDbEntity
  8
UTIL-STORM
  6
DASHED
100
AcDbPolyline
 90
7
 70
0
 10
950.0
 20
220.0
 10
1150.0
 20
220.0
 10
1175.0
 20
270.0
 10
1145.0
 20
360.0
 10
970.0
 20
375.0
 10
930.0
 20
300.0
 10
950.0
 20
220.0
  0
TEXT
  5
174
330
17
100
AcDbEntity
  8
ANNO-TEXT
100
AcDbText
 10
1010.0
 20
290.0
 30
0.0
 40
5.0
  1
DETENTION BASIN
100
AcDbText
  0
TEXT
  5
175
330
17
100
AcDbEntity
  8
ANNO-TEXT
100
AcDbText
 10
990.0
 20
270.0
 30
0.0
 40
3.0
  1
100-YR WSEL = 101.50
100
AcDbText
  0
TEXT
  5
176
330
17
100
AcDbEntity
  8
ANNO-TEXT
100
AcDbText
 10
990.0
 20
258.0
 30
0.0
 40
3.0
  1
10-YR  WSEL = 100.85
100
AcDbText
  0
TEXT
  5
177
330
17
100
AcDbEntity
  8
ANNO-TEXT
100
AcDbText
 10
990.0
 20
246.0
 30
0.0
 40
3.0
  1
EMERG. SPILLWAY = 102.20
100
AcDbText
  0
TEXT
  5
178
330
17
100
AcDbEntity
  8
ANNO-TEXT
100
AcDbText
 10
990.0
 20
234.0
 30
0.0
 40
3.0
  1
BOTTOM EL = 97.50
100
AcDbText
  0
TEXT
  5
179
330
17
100
AcDbEntity
  8
ANNO-TEXT
100
AcDbText
 10
990.0
 20
222.0
 30
0.0
 40
2.5
  1
VOL (100-YR) = 1.42 AC-FT
100
AcDbText
  0
LWPOLYLINE
  5
17A
330
17
100
AcDbEntity
  8
UTIL-STORM
100
AcDbPolyline
 90
5
 70
0
 10
1170.0
 20
285.0
 10
1190.0
 20
285.0
 10
1190.0
 20
295.0
 10
1170.0
 20
295.0
 10
1170.0
 20
285.0
  0
TEXT
  5
17B
330
17
100
AcDbEntity
  8
ANNO-TEXT
100
AcDbText
 10
1192.0
 20
290.0
 30
0.0
 40
2.5
  1
EMERG.SPILLWAY
100
AcDbText
  0
LWPOLYLINE
  5
17C
330
17
100
AcDbEntity
  8
ANNO-DIM
100
AcDbPolyline
 90
5
 70
0
 10
30.0
 20
-110.0
 10
1230.0
 20
-110.0
 10
1230.0
 20
50.0
 10
30.0
 20
50.0
 10
30.0
 20
-110.0
  0
TEXT
  5
17D
330
17
100
AcDbEntity
  8
ANNO-TEXT
100
AcDbText
 10
50.0
 20
55.0
 30
0.0
 40
4.0
  1
STORM DRAIN PROFILE — MAIN STREET TRUNK (STA 0+80 TO 9+00)
100
AcDbText
  0
LINE
  5
17E
330
17
100
AcDbEntity
  8
ANNO-DIM
  6
DASHED
100
AcDbLine
 10
30.0
 20
-100.58823529411765
 30
0.0
 11
1230.0
 21
-100.58823529411765
 31
0.0
  0
TEXT
  5
17F
330
17
100
AcDbEntity
  8
ANNO-TEXT
100
AcDbText
 10
12.0
 20
-102.08823529411765
 30
0.0
 40
2.5
  1
98
100
AcDbText
  0
LINE
  5
180
330
17
100
AcDbEntity
  8
ANNO-DIM
  6
DASHED
100
AcDbLine
 10
30.0
 20
-81.76470588235294
 30
0.0
 11
1230.0
 21
-81.76470588235294
 31
0.0
  0
TEXT
  5
181
330
17
100
AcDbEntity
  8
ANNO-TEXT
100
AcDbText
 10
12.0
 20
-83.26470588235294
 30
0.0
 40
2.5
  1
99
100
AcDbText
  0
LINE
  5
182
330
17
100
AcDbEntity
  8
ANNO-DIM
  6
DASHED
100
AcDbLine
 10
30.0
 20
-62.94117647058823
 30
0.0
 11
1230.0
 21
-62.94117647058823
 31
0.0
  0
TEXT
  5
183
330
17
100
AcDbEntity
  8
ANNO-TEXT
100
AcDbText
 10
12.0
 20
-64.44117647058823
 30
0.0
 40
2.5
  1
100
100
AcDbText
  0
LINE
  5
184
330
17
100
AcDbEntity
  8
ANNO-DIM
  6
DASHED
100
AcDbLine
 10
30.0
 20
-44.117647058823536
 30
0.0
 11
1230.0
 21
-44.117647058823536
 31
0.0
  0
TEXT
  5
185
330
17
100
AcDbEntity
  8
ANNO-TEXT
100
AcDbText
 10
12.0
 20
-45.617647058823536
 30
0.0
 40
2.5
  1
101
100
AcDbText
  0
LINE
  5
186
330
17
100
AcDbEntity
  8
ANNO-DIM
  6
DASHED
100
AcDbLine
 10
30.0
 20
-25.294117647058826
 30
0.0
 11
1230.0
 21
-25.294117647058826
 31
0.0
  0
TEXT
  5
187
330
17
100
AcDbEntity
  8
ANNO-TEXT
100
AcDbText
 10
12.0
 20
-26.794117647058826
 30
0.0
 40
2.5
  1
102
100
AcDbText
  0
LINE
  5
188
330
17
100
AcDbEntity
  8
ANNO-DIM
  6
DASHED
100
AcDbLine
 10
30.0
 20
-6.470588235294116
 30
0.0
 11
1230.0
 21
-6.470588235294116
 31
0.0
  0
TEXT
  5
189
330
17
100
AcDbEntity
  8
ANNO-TEXT
100
AcDbText
 10
12.0
 20
-7.970588235294116
 30
0.0
 40
2.5
  1
103
100
AcDbText
  0
LINE
  5
18A
330
17
100
AcDbEntity
  8
ANNO-DIM
  6
DASHED
100
AcDbLine
 10
30.0
 20
12.35294117647058
 30
0.0
 11
1230.0
 21
12.35294117647058
 31
0.0
  0
TEXT
  5
18B
330
17
100
AcDbEntity
  8
ANNO-TEXT
100
AcDbText
 10
12.0
 20
10.85294117647058
 30
0.0
 40
2.5
  1
104
100
AcDbText
  0
LINE
  5
18C
330
17
100
AcDbEntity
  8
ANNO-DIM
  6
DASHED
100
AcDbLine
 10
30.0
 20
31.176470588235304
 30
0.0
 11
1230.0
 21
31.176470588235304
 31
0.0
  0
TEXT
  5
18D
330
17
100
AcDbEntity
  8
ANNO-TEXT
100
AcDbText
 10
12.0
 20
29.676470588235304
 30
0.0
 40
2.5
  1
105
100
AcDbText
  0
LINE
  5
18E
330
17
100
AcDbEntity
  8
ANNO-DIM
  6
DASHED
100
AcDbLine
 10
30.0
 20
50.0
 30
0.0
 11
1230.0
 21
50.0
 31
0.0
  0
TEXT
  5
18F
330
17
100
AcDbEntity
  8
ANNO-TEXT
100
AcDbText
 10
12.0
 20
48.5
 30
0.0
 40
2.5
  1
106
100
AcDbText
  0
LWPOLYLINE
  5
190
330
17
100
AcDbEntity
  8
GRAD-EXIST
100
AcDbPolyline
 90
8
 70
0
 10
30.0
 20
8.588235294117595
 10
110.0
 20
14.235294117646959
 10
310.0
 20
22.70588235294113
 10
510.0
 20
17.999999999999957
 10
630.0
 20
14.235294117646959
 10
710.0
 20
11.411764705882405
 10
830.0
 20
7.64705882352942
 10
930.0
 20
8.588235294117595
  0
TEXT
  5
191
330
17
100
AcDbEntity
  8
ANNO-TEXT
100
AcDbText
 10
310.0
 20
26.70588235294113
 30
0.0
 40
2.5
  1
EXISTING GROUND
100
AcDbText
  0
LWPOLYLINE
  5
192
330
17
100
AcDbEntity
  8
UTIL-STORM
100
AcDbPolyline
 90
5
 70
0
 10
110.0
 20
-60.11764705882342
 10
310.0
 20
-65.76470588235304
 10
510.0
 20
-71.4117647058824
 10
710.0
 20
-77.62352941176474
 10
930.0
 20
-83.6470588235293
  0
LWPOLYLINE
  5
193
330
17
100
AcDbEntity
  8
UTIL-STORM
100
AcDbPolyline
 90
5
 70
0
 10
110.0
 20
-22.470588235294002
 10
310.0
 20
-28.11764705882365
 10
510.0
 20
-33.764705882353
 10
710.0
 20
-39.976470588235316
 10
930.0
 20
-45.999999999999886
  0
TEXT
  5
194
330
17
100
AcDbEntity
  8
ANNO-TEXT
100
AcDbText
 10
310.0
 20
-73.76470588235304
 30
0.0
 40
2.5
  1
24" RCP (PROPOSED)
100
AcDbText
  0
LWPOLYLINE
  5
195
330
17
100
AcDbEntity
  8
UTIL-STORM
  6
DASHED
100
AcDbPolyline
 90
5
 70
0
 10
110.0
 20
-40.35294117647054
 10
310.0
 20
-45.05882352941171
 10
510.0
 20
-50.70588235294107
 10
710.0
 20
-57.294117647058876
 10
930.0
 20
-63.88235294117642
  0
TEXT
  5
196
330
17
100
AcDbEntity
  8
ANNO-TEXT
100
AcDbText
 10
715.0
 20
-55.294117647058876
 30
0.0
 40
2.5
  1
HGL (10-YR)
100
AcDbText
  0
LINE
  5
197
330
17
100
AcDbEntity
  8
UTIL-STORM
100
AcDbLine
 10
110.0
 20
-60.11764705882342
 30
0.0
 11
110.0
 21
14.235294117646959
 31
0.0
  0
LWPOLYLINE
  5
198
330
17
100
AcDbEntity
  8
UTIL-STORM
100
AcDbPolyline
 90
5
 70
0
 10
107.0
 20
-60.11764705882342
 10
113.0
 20
-60.11764705882342
 10
113.0
 20
14.235294117646959
 10
107.0
 20
14.235294117646959
 10
107.0
 20
-60.11764705882342
  0
TEXT
  5
199
330
17
100
AcDbEntity
  8
ANNO-TEXT
100
AcDbText
 10
107.0
 20
16.23529411764696
 30
0.0
 40
2.2
  1
MH-1
100
AcDbText
  0
LINE
  5
19A
330
17
100
AcDbEntity
  8
UTIL-STORM
100
AcDbLine
 10
310.0
 20
-65.76470588235304
 30
0.0
 11
310.0
 21
22.70588235294113
 31
0.0
  0
LWPOLYLINE
  5
19B
330
17
100
AcDbEntity
  8
UTIL-STORM
100
AcDbPolyline
 90
5
 70
0
 10
307.0
 20
-65.76470588235304
 10
313.0
 20
-65.76470588235304
 10
313.0
 20
22.70588235294113
 10
307.0
 20
22.70588235294113
 10
307.0
 20
-65.76470588235304
  0
TEXT
  5
19C
330
17
100
AcDbEntity
  8
ANNO-TEXT
100
AcDbText
 10
307.0
 20
24.70588235294113
 30
0.0
 40
2.2
  1
MH-2
100
AcDbText
  0
LINE
  5
19D
330
17
100
AcDbEntity
  8
UTIL-STORM
100
AcDbLine
 10
510.0
 20
-71.4117647058824
 30
0.0
 11
510.0
 21
17.999999999999957
 31
0.0
  0
LWPOLYLINE
  5
19E
330
17
100
AcDbEntity
  8
UTIL-STORM
100
AcDbPolyline
 90
5
 70
0
 10
507.0
 20
-71.4117647058824
 10
513.0
 20
-71.4117647058824
 10
513.0
 20
17.999999999999957
 10
507.0
 20
17.999999999999957
 10
507.0
 20
-71.4117647058824
  0
TEXT
  5
19F
330
17
100
AcDbEntity
  8
ANNO-TEXT
100
AcDbText
 10
507.0
 20
19.999999999999957
 30
0.0
 40
2.2
  1
MH-3
100
AcDbText
  0
LINE
  5
1A0
330
17
100
AcDbEntity
  8
UTIL-STORM
100
AcDbLine
 10
710.0
 20
-77.62352941176474
 30
0.0
 11
710.0
 21
11.411764705882405
 31
0.0
  0
LWPOLYLINE
  5
1A1
330
17
100
AcDbEntity
  8
UTIL-STORM
100
AcDbPolyline
 90
5
 70
0
 10
707.0
 20
-77.62352941176474
 10
713.0
 20
-77.62352941176474
 10
713.0
 20
11.411764705882405
 10
707.0
 20
11.411764705882405
 10
707.0
 20
-77.62352941176474
  0
TEXT
  5
1A2
330
17
100
AcDbEntity
  8
ANNO-TEXT
100
AcDbText
 10
707.0
 20
13.411764705882405
 30
0.0
 40
2.2
  1
MH-4
100
AcDbText
  0
LINE
  5
1A3
330
17
100
AcDbEntity
  8
UTIL-STORM
100
AcDbLine
 10
930.0
 20
-83.6470588235293
 30
0.0
 11
930.0
 21
8.588235294117595
 31
0.0
  0
LWPOLYLINE
  5
1A4
330
17
100
AcDbEntity
  8
UTIL-STORM
100
AcDbPolyline
 90
5
 70
0
 10
927.0
 20
-83.6470588235293
 10
933.0
 20
-83.6470588235293
 10
933.0
 20
8.588235294117595
 10
927.0
 20
8.588235294117595
 10
927.0
 20
-83.6470588235293
  0
TEXT
  5
1A5
330
17
100
AcDbEntity
  8
ANNO-TEXT
100
AcDbText
 10
927.0
 20
10.588235294117595
 30
0.0
 40
2.2
  1
MH-5
100
AcDbText
  0
TEXT
  5
1A6
330
17
100
AcDbEntity
  8
ANNO-TEXT
100
AcDbText
 10
1260.0
 20
60.0
 30
0.0
 40
4.0
  1
PIPE SCHEDULE — HYDRAULIC SUMMARY
100
AcDbText
  0
TEXT
  5
1A7
330
17
100
AcDbEntity
  8
ANNO-TEXT
100
AcDbText
 10
1260.0
 20
43.0
 30
0.0
 40
2.5
  1
PIPE
100
AcDbText
  0
TEXT
  5
1A8
330
17
100
AcDbEntity
  8
ANNO-TEXT
100
AcDbText
 10
1290.0
 20
43.0
 30
0.0
 40
2.5
  1
FROM
100
AcDbText
  0
TEXT
  5
1A9
330
17
100
AcDbEntity
  8
ANNO-TEXT
100
AcDbText
 10
1320.0
 20
43.0
 30
0.0
 40
2.5
  1
TO
100
AcDbText
  0
TEXT
  5
1AA
330
17
100
AcDbEntity
  8
ANNO-TEXT
100
AcDbText
 10
1350.0
 20
43.0
 30
0.0
 40
2.5
  1
SIZE
100
AcDbText
  0
TEXT
  5
1AB
330
17
100
AcDbEntity
  8
ANNO-TEXT
100
AcDbText
 10
1375.0
 20
43.0
 30
0.0
 40
2.5
  1
LENGTH
100
AcDbText
  0
TEXT
  5
1AC
330
17
100
AcDbEntity
  8
ANNO-TEXT
100
AcDbText
 10
1405.0
 20
43.0
 30
0.0
 40
2.5
  1
SLOPE
100
AcDbText
  0
TEXT
  5
1AD
330
17
100
AcDbEntity
  8
ANNO-TEXT
100
AcDbText
 10
1430.0
 20
43.0
 30
0.0
 40
2.5
  1
Q10
100
AcDbText
  0
TEXT
  5
1AE
330
17
100
AcDbEntity
  8
ANNO-TEXT
100
AcDbText
 10
1455.0
 20
43.0
 30
0.0
 40
2.5
  1
V10
100
AcDbText
  0
LINE
  5
1AF
330
17
100
AcDbEntity
  8
ANNO-DIM
100
AcDbLine
 10
1260.0
 20
41.0
 30
0.0
 11
1480.0
 21
41.0
 31
0.0
  0
TEXT
  5
1B0
330
17
100
AcDbEntity
  8
ANNO-TEXT
100
AcDbText
 10
1260.0
 20
32.5
 30
0.0
 40
2.2
  1
P-1
100
AcDbText
  0
TEXT
  5
1B1
330
17
100
AcDbEntity
  8
ANNO-TEXT
100
AcDbText
 10
1290.0
 20
32.5
 30
0.0
 40
2.2
  1
MH-1
100
AcDbText
  0
TEXT
  5
1B2
330
17
100
AcDbEntity
  8
ANNO-TEXT
100
AcDbText
 10
1320.0
 20
32.5
 30
0.0
 40
2.2
  1
MH-2
100
AcDbText
  0
TEXT
  5
1B3
330
17
100
AcDbEntity
  8
ANNO-TEXT
100
AcDbText
 10
1350.0
 20
32.5
 30
0.0
 40
2.2
  1
24" RCP
100
AcDbText
  0
TEXT
  5
1B4
330
17
100
AcDbEntity
  8
ANNO-TEXT
100
AcDbText
 10
1375.0
 20
32.5
 30
0.0
 40
2.2
  1
200 LF
100
AcDbText
  0
TEXT
  5
1B5
330
17
100
AcDbEntity
  8
ANNO-TEXT
100
AcDbText
 10
1405.0
 20
32.5
 30
0.0
 40
2.2
  1
0.20%
100
AcDbText
  0
TEXT
  5
1B6
330
17
100
AcDbEntity
  8
ANNO-TEXT
100
AcDbText
 10
1430.0
 20
32.5
 30
0.0
 40
2.2
  1
12.4 cfs
100
AcDbText
  0
TEXT
  5
1B7
330
17
100
AcDbEntity
  8
ANNO-TEXT
100
AcDbText
 10
1455.0
 20
32.5
 30
0.0
 40
2.2
  1
5.0 fps
100
AcDbText
  0
TEXT
  5
1B8
330
17
100
AcDbEntity
  8
ANNO-TEXT
100
AcDbText
 10
1260.0
 20
25.5
 30
0.0
 40
2.2
  1
P-2
100
AcDbText
  0
TEXT
  5
1B9
330
17
100
AcDbEntity
  8
ANNO-TEXT
100
AcDbText
 10
1290.0
 20
25.5
 30
0.0
 40
2.2
  1
MH-2
100
AcDbText
  0
TEXT
  5
1BA
330
17
100
AcDbEntity
  8
ANNO-TEXT
100
AcDbText
 10
1320.0
 20
25.5
 30
0.0
 40
2.2
  1
MH-3
100
AcDbText
  0
TEXT
  5
1BB
330
17
100
AcDbEntity
  8
ANNO-TEXT
100
AcDbText
 10
1350.0
 20
25.5
 30
0.0
 40
2.2
  1
24" RCP
100
AcDbText
  0
TEXT
  5
1BC
330
17
100
AcDbEntity
  8
ANNO-TEXT
100
AcDbText
 10
1375.0
 20
25.5
 30
0.0
 40
2.2
  1
200 LF
100
AcDbText
  0
TEXT
  5
1BD
330
17
100
AcDbEntity
  8
ANNO-TEXT
100
AcDbText
 10
1405.0
 20
25.5
 30
0.0
 40
2.2
  1
0.22%
100
AcDbText
  0
TEXT
  5
1BE
330
17
100
AcDbEntity
  8
ANNO-TEXT
100
AcDbText
 10
1430.0
 20
25.5
 30
0.0
 40
2.2
  1
16.8 cfs
100
AcDbText
  0
TEXT
  5
1BF
330
17
100
AcDbEntity
  8
ANNO-TEXT
100
AcDbText
 10
1455.0
 20
25.5
 30
0.0
 40
2.2
  1
5.4 fps
100
AcDbText
  0
TEXT
  5
1C0
330
17
100
AcDbEntity
  8
ANNO-TEXT
100
AcDbText
 10
1260.0
 20
18.5
 30
0.0
 40
2.2
  1
P-3
100
AcDbText
  0
TEXT
  5
1C1
330
17
100
AcDbEntity
  8
ANNO-TEXT
100
AcDbText
 10
1290.0
 20
18.5
 30
0.0
 40
2.2
  1
MH-3
100
AcDbText
  0
TEXT
  5
1C2
330
17
100
AcDbEntity
  8
ANNO-TEXT
100
AcDbText
 10
1320.0
 20
18.5
 30
0.0
 40
2.2
  1
MH-4
100
AcDbText
  0
TEXT
  5
1C3
330
17
100
AcDbEntity
  8
ANNO-TEXT
100
AcDbText
 10
1350.0
 20
18.5
 30
0.0
 40
2.2
  1
24" RCP
100
AcDbText
  0
TEXT
  5
1C4
330
17
100
AcDbEntity
  8
ANNO-TEXT
100
AcDbText
 10
1375.0
 20
18.5
 30
0.0
 40
2.2
  1
200 LF
100
AcDbText
  0
TEXT
  5
1C5
330
17
100
AcDbEntity
  8
ANNO-TEXT
100
AcDbText
 10
1405.0
 20
18.5
 30
0.0
 40
2.2
  1
0.20%
100
AcDbText
  0
TEXT
  5
1C6
330
17
100
AcDbEntity
  8
ANNO-TEXT
100
AcDbText
 10
1430.0
 20
18.5
 30
0.0
 40
2.2
  1
20.1 cfs
100
AcDbText
  0
TEXT
  5
1C7
330
17
100
AcDbEntity
  8
ANNO-TEXT
100
AcDbText
 10
1455.0
 20
18.5
 30
0.0
 40
2.2
  1
5.2 fps
100
AcDbText
  0
TEXT
  5
1C8
330
17
100
AcDbEntity
  8
ANNO-TEXT
100
AcDbText
 10
1260.0
 20
11.5
 30
0.0
 40
2.2
  1
P-4
100
AcDbText
  0
TEXT
  5
1C9
330
17
100
AcDbEntity
  8
ANNO-TEXT
100
AcDbText
 10
1290.0
 20
11.5
 30
0.0
 40
2.2
  1
MH-4
100
AcDbText
  0
TEXT
  5
1CA
330
17
100
AcDbEntity
  8
ANNO-TEXT
100
AcDbText
 10
1320.0
 20
11.5
 30
0.0
 40
2.2
  1
MH-5
100
AcDbText
  0
TEXT
  5
1CB
330
17
100
AcDbEntity
  8
ANNO-TEXT
100
AcDbText
 10
1350.0
 20
11.5
 30
0.0
 40
2.2
  1
24" RCP
100
AcDbText
  0
TEXT
  5
1CC
330
17
100
AcDbEntity
  8
ANNO-TEXT
100
AcDbText
 10
1375.0
 20
11.5
 30
0.0
 40
2.2
  1
220 LF
100
AcDbText
  0
TEXT
  5
1CD
330
17
100
AcDbEntity
  8
ANNO-TEXT
100
AcDbText
 10
1405.0
 20
11.5
 30
0.0
 40
2.2
  1
0.25%
100
AcDbText
  0
TEXT
  5
1CE
330
17
100
AcDbEntity
  8
ANNO-TEXT
100
AcDbText
 10
1430.0
 20
11.5
 30
0.0
 40
2.2
  1
22.7 cfs
100
AcDbText
  0
TEXT
  5
1CF
330
17
100
AcDbEntity
  8
ANNO-TEXT
100
AcDbText
 10
1455.0
 20
11.5
 30
0.0
 40
2.2
  1
5.8 fps
100
AcDbText
  0
TEXT
  5
1D0
330
17
100
AcDbEntity
  8
ANNO-TEXT
100
AcDbText
 10
1260.0
 20
4.5
 30
0.0
 40
2.2
  1
P-5
100
AcDbText
  0
TEXT
  5
1D1
330
17
100
AcDbEntity
  8
ANNO-TEXT
100
AcDbText
 10
1290.0
 20
4.5
 30
0.0
 40
2.2
  1
MH-5
100
AcDbText
  0
TEXT
  5
1D2
330
17
100
AcDbEntity
  8
ANNO-TEXT
100
AcDbText
 10
1320.0
 20
4.5
 30
0.0
 40
2.2
  1
HW-1
100
AcDbText
  0
TEXT
  5
1D3
330
17
100
AcDbEntity
  8
ANNO-TEXT
100
AcDbText
 10
1350.0
 20
4.5
 30
0.0
 40
2.2
  1
24" RCP
100
AcDbText
  0
TEXT
  5
1D4
330
17
100
AcDbEntity
  8
ANNO-TEXT
100
AcDbText
 10
1375.0
 20
4.5
 30
0.0
 40
2.2
  1
120 LF
100
AcDbText
  0
TEXT
  5
1D5
330
17
100
AcDbEntity
  8
ANNO-TEXT
100
AcDbText
 10
1405.0
 20
4.5
 30
0.0
 40
2.2
  1
0.28%
100
AcDbText
  0
TEXT
  5
1D6
330
17
100
AcDbEntity
  8
ANNO-TEXT
100
AcDbText
 10
1430.0
 20
4.5
 30
0.0
 40
2.2
  1
22.7 cfs
100
AcDbText
  0
TEXT
  5
1D7
330
17
100
AcDbEntity
  8
ANNO-TEXT
100
AcDbText
 10
1455.0
 20
4.5
 30
0.0
 40
2.2
  1
5.8 fps
100
AcDbText
  0
TEXT
  5
1D8
330
17
100
AcDbEntity
  8
ANNO-TEXT
100
AcDbText
 10
1260.0
 20
-2.5
 30
0.0
 40
2.2
  1
P-6
100
AcDbText
  0
TEXT
  5
1D9
330
17
100
AcDbEntity
  8
ANNO-TEXT
100
AcDbText
 10
1290.0
 20
-2.5
 30
0.0
 40
2.2
  1
MH-6
100
AcDbText
  0
TEXT
  5
1DA
330
17
100
AcDbEntity
  8
ANNO-TEXT
100
AcDbText
 10
1320.0
 20
-2.5
 30
0.0
 40
2.2
  1
MH-7
100
AcDbText
  0
TEXT
  5
1DB
330
17
100
AcDbEntity
  8
ANNO-TEXT
100
AcDbText
 10
1350.0
 20
-2.5
 30
0.0
 40
2.2
  1
18" RCP
100
AcDbText
  0
TEXT
  5
1DC
330
17
100
AcDbEntity
  8
ANNO-TEXT
100
AcDbText
 10
1375.0
 20
-2.5
 30
0.0
 40
2.2
  1
250 LF
100
AcDbText
  0
TEXT
  5
1DD
330
17
100
AcDbEntity
  8
ANNO-TEXT
100
AcDbText
 10
1405.0
 20
-2.5
 30
0.0
 40
2.2
  1
0.30%
100
AcDbText
  0
TEXT
  5
1DE
330
17
100
AcDbEntity
  8
ANNO-TEXT
100
AcDbText
 10
1430.0
 20
-2.5
 30
0.0
 40
2.2
  1
7.6 cfs
100
AcDbText
  0
TEXT
  5
1DF
330
17
100
AcDbEntity
  8
ANNO-TEXT
100
AcDbText
 10
1455.0
 20
-2.5
 30
0.0
 40
2.2
  1
5.2 fps
100
AcDbText
  0
TEXT
  5
1E0
330
17
100
AcDbEntity
  8
ANNO-TEXT
100
AcDbText
 10
1260.0
 20
-9.5
 30
0.0
 40
2.2
  1
P-7
100
AcDbText
  0
TEXT
  5
1E1
330
17
100
AcDbEntity
  8
ANNO-TEXT
100
AcDbText
 10
1290.0
 20
-9.5
 30
0.0
 40
2.2
  1
MH-7
100
AcDbText
  0
TEXT
  5
1E2
330
17
100
AcDbEntity
  8
ANNO-TEXT
100
AcDbText
 10
1320.0
 20
-9.5
 30
0.0
 40
2.2
  1
MH-4
100
AcDbText
  0
TEXT
  5
1E3
330
17
100
AcDbEntity
  8
ANNO-TEXT
100
AcDbText
 10
1350.0
 20
-9.5
 30
0.0
 40
2.2
  1
18" RCP
100
AcDbText
  0
TEXT
  5
1E4
330
17
100
AcDbEntity
  8
ANNO-TEXT
100
AcDbText
 10
1375.0
 20
-9.5
 30
0.0
 40
2.2
  1
140 LF
100
AcDbText
  0
TEXT
  5
1E5
330
17
100
AcDbEntity
  8
ANNO-TEXT
100
AcDbText
 10
1405.0
 20
-9.5
 30
0.0
 40
2.2
  1
0.35%
100
AcDbText
  0
TEXT
  5
1E6
330
17
100
AcDbEntity
  8
ANNO-TEXT
100
AcDbText
 10
1430.0
 20
-9.5
 30
0.0
 40
2.2
  1
7.6 cfs
100
AcDbText
  0
TEXT
  5
1E7
330
17
100
AcDbEntity
  8
ANNO-TEXT
100
AcDbText
 10
1455.0
 20
-9.5
 30
0.0
 40
2.2
  1
5.2 fps
100
AcDbText
  0
TEXT
  5
1E8
330
17
100
AcDbEntity
  8
ANNO-TEXT
100
AcDbText
 10
1260.0
 20
-16.5
 30
0.0
 40
2.2
  1
P-8
100
AcDbText
  0
TEXT
  5
1E9
330
17
100
AcDbEntity
  8
ANNO-TEXT
100
AcDbText
 10
1290.0
 20
-16.5
 30
0.0
 40
2.2
  1
MH-8
100
AcDbText
  0
TEXT
  5
1EA
330
17
100
AcDbEntity
  8
ANNO-TEXT
100
AcDbText
 10
1320.0
 20
-16.5
 30
0.0
 40
2.2
  1
MH-3
100
AcDbText
  0
TEXT
  5
1EB
330
17
100
AcDbEntity
  8
ANNO-TEXT
100
AcDbText
 10
1350.0
 20
-16.5
 30
0.0
 40
2.2
  1
15" RCP
100
AcDbText
  0
TEXT
  5
1EC
330
17
100
AcDbEntity
  8
ANNO-TEXT
100
AcDbText
 10
1375.0
 20
-16.5
 30
0.0
 40
2.2
  1
130 LF
100
AcDbText
  0
TEXT
  5
1ED
330
17
100
AcDbEntity
  8
ANNO-TEXT
100
AcDbText
 10
1405.0
 20
-16.5
 30
0.0
 40
2.2
  1
0.40%
100
AcDbText
  0
TEXT
  5
1EE
330
17
100
AcDbEntity
  8
ANNO-TEXT
100
AcDbText
 10
1430.0
 20
-16.5
 30
0.0
 40
2.2
  1
4.2 cfs
100
AcDbText
  0
TEXT
  5
1EF
330
17
100
AcDbEntity
  8
ANNO-TEXT
100
AcDbText
 10
1455.0
 20
-16.5
 30
0.0
 40
2.2
  1
4.6 fps
100
AcDbText
  0
TEXT
  5
1F0
330
17
100
AcDbEntity
  8
ANNO-TEXT
100
AcDbText
 10
1260.0
 20
-48.0
 30
0.0
 40
4.0
  1
LEGEND
100
AcDbText
  0
LINE
  5
1F1
330
17
100
AcDbEntity
  8
UTIL-STORM
100
AcDbLine
 10
1260.0
 20
-57.0
 30
0.0
 11
1280.0
 21
-57.0
 31
0.0
  0
TEXT
  5
1F2
330
17
100
AcDbEntity
  8
ANNO-TEXT
100
AcDbText
 10
1282.0
 20
-58.0
 30
0.0
 40
2.5
  1
STORM DRAIN PIPE (PROPOSED)
100
AcDbText
  0
LINE
  5
1F3
330
17
100
AcDbEntity
  8
UTIL-WATER
100
AcDbLine
 10
1260.0
 20
-64.0
 30
0.0
 11
1280.0
 21
-64.0
 31
0.0
  0
TEXT
  5
1F4
330
17
100
AcDbEntity
  8
ANNO-TEXT
100
AcDbText
 10
1282.0
 20
-65.0
 30
0.0
 40
2.5
  1
WATER MAIN (EXISTING)
100
AcDbText
  0
LINE
  5
1F5
330
17
100
AcDbEntity
  8
UTIL-SANITARY
100
AcDbLine
 10
1260.0
 20
-71.0
 30
0.0
 11
1280.0
 21
-71.0
 31
0.0
  0
TEXT
  5
1F6
330
17
100
AcDbEntity
  8
ANNO-TEXT
100
AcDbText
 10
1282.0
 20
-72.0
 30
0.0
 40
2.5
  1
SANITARY SEWER (EXISTING)
100
AcDbText
  0
LINE
  5
1F7
330
17
100
AcDbEntity
  8
UTIL-GAS
100
AcDbLine
 10
1260.0
 20
-78.0
 30
0.0
 11
1280.0
 21
-78.0
 31
0.0
  0
TEXT
  5
1F8
330
17
100
AcDbEntity
  8
ANNO-TEXT
100
AcDbText
 10
1282.0
 20
-79.0
 30
0.0
 40
2.5
  1
GAS LINE (EXISTING)
100
AcDbText
  0
LINE
  5
1F9
330
17
100
AcDbEntity
  8
ROAD-CENTERLINE
100
AcDbLine
 10
1260.0
 20
-85.0
 30
0.0
 11
1280.0
 21
-85.0
 31
0.0
  0
TEXT
  5
1FA
330
17
100
AcDbEntity
  8
ANNO-TEXT
100
AcDbText
 10
1282.0
 20
-86.0
 30
0.0
 40
2.5
  1
ROAD CENTERLINE
100
AcDbText
  0
LINE
  5
1FB
330
17
100
AcDbEntity
  8
ROAD-ROW
100
AcDbLine
 10
1260.0
 20
-92.0
 30
0.0
 11
1280.0
 21
-92.0
 31
0.0
  0
TEXT
  5
1FC
330
17
100
AcDbEntity
  8
ANNO-TEXT
100
AcDbText
 10
1282.0
 20
-93.0
 30
0.0
 40
2.5
  1
RIGHT-OF-WAY LINE
100
AcDbText
  0
LINE
  5
1FD
330
17
100
AcDbEntity
  8
GRAD-EXIST
100
AcDbLine
 10
1260.0
 20
-99.0
 30
0.0
 11
1280.0
 21
-99.0
 31
0.0
  0
TEXT
  5
1FE
330
17
100
AcDbEntity
  8
ANNO-TEXT
100
AcDbText
 10
1282.0
 20
-100.0
 30
0.0
 40
2.5
  1
EXISTING CONTOUR (2-FT INTERVAL)
100
AcDbText
  0
LINE
  5
1FF
330
17
100
AcDbEntity
  8
GRAD-LIMIT
100
AcDbLine
 10
1260.0
 20
-106.0
 30
0.0
 11
1280.0
 21
-106.0
 31
0.0
  0
TEXT
  5
200
330
17
100
AcDbEntity
  8
ANNO-TEXT
100
AcDbText
 10
1282.0
 20
-107.0
 30
0.0
 40
2.5
  1
DRAINAGE AREA BOUNDARY
100
AcDbText
  0
LINE
  5
201
330
17
100
AcDbEntity
  8
ANNO-ELEV
100
AcDbLine
 10
1260.0
 20
-113.0
 30
0.0
 11
1280.0
 21
-113.0
 31
0.0
  0
TEXT
  5
202
330
17
100
AcDbEntity
  8
ANNO-TEXT
100
AcDbText
 10
1282.0
 20
-114.0
 30
0.0
 40
2.5
  1
SPOT ELEVATION
100
AcDbText
  0
CIRCLE
  5
203
330
17
100
AcDbEntity
  8
ANNO-DIM
100
AcDbCircle
 10
1200.0
 20
900.0
 30
0.0
 40
18.0
  0
LINE
  5
204
330
17
100
AcDbEntity
  8
ANNO-DIM
100
AcDbLine
 10
1200.0
 20
882.0
 30
0.0
 11
1200.0
 21
918.0
 31
0.0
  0
LWPOLYLINE
  5
205
330
17
100
AcDbEntity
  8
ANNO-DIM
100
AcDbPolyline
 90
4
 70
0
 10
1200.0
 20
918.0
 10
1195.0
 20
905.0
 10
1205.0
 20
905.0
 10
1200.0
 20
918.0
  0
TEXT
  5
206
330
17
100
AcDbEntity
  8
ANNO-TEXT
100
AcDbText
 10
1197.0
 20
920.0
 30
0.0
 40
6.0
  1
N
100
AcDbText
  0
LINE
  5
207
330
17
100
AcDbEntity
  8
ANNO-DIM
100
AcDbLine
 10
1020.0
 20
920.0
 30
0.0
 11
1220.0
 21
920.0
 31
0.0
  0
LINE
  5
208
330
17
100
AcDbEntity
  8
ANNO-DIM
100
AcDbLine
 10
1020.0
 20
917.0
 30
0.0
 11
1020.0
 21
923.0
 31
0.0
  0
TEXT
  5
209
330
17
100
AcDbEntity
  8
ANNO-TEXT
100
AcDbText
 10
1015.0
 20
912.0
 30
0.0
 40
2.5
  1
0
100
AcDbText
  0
LINE
  5
20A
330
17
100
AcDbEntity
  8
ANNO-DIM
100
AcDbLine
 10
1120.0
 20
917.0
 30
0.0
 11
1120.0
 21
923.0
 31
0.0
  0
TEXT
  5
20B
330
17
100
AcDbEntity
  8
ANNO-TEXT
100
AcDbText
 10
1115.0
 20
912.0
 30
0.0
 40
2.5
  1
100
100
AcDbText
  0
LINE
  5
20C
330
17
100
AcDbEntity
  8
ANNO-DIM
100
AcDbLine
 10
1220.0
 20
917.0
 30
0.0
 11
1220.0
 21
923.0
 31
0.0
  0
TEXT
  5
20D
330
17
100
AcDbEntity
  8
ANNO-TEXT
100
AcDbText
 10
1215.0
 20
912.0
 30
0.0
 40
2.5
  1
200 FT
100
AcDbText
  0
TEXT
  5
20E
330
17
100
AcDbEntity
  8
ANNO-TEXT
100
AcDbText
 10
1020.0
 20
928.0
 30
0.0
 40
3.0
  1
GRAPHIC SCALE: 1" = 40'
100
AcDbText
  0
TEXT
  5
20F
330
17
100
AcDbEntity
  8
ANNO-TEXT
100
AcDbText
 10
30.0
 20
-120.0
 30
0.0
 40
4.0
  1
DRAINAGE NOTES:
100
AcDbText
  0
TEXT
  5
210
330
17
100
AcDbEntity
  8
ANNO-TEXT
100
AcDbText
 10
30.0
 20
-127.0
 30
0.0
 40
2.5
  1
1. DESIGN STORM: 10-YR (MINOR) / 100-YR (MAJOR) PER TxDOT HYD. MANUAL.
100
AcDbText
  0
TEXT
  5
211
330
17
100
AcDbEntity
  8
ANNO-TEXT
100
AcDbText
 10
30.0
 20
-132.0
 30
0.0
 40
2.5
  1
2. MIN PIPE COVER: 1.5 FT OVER CROWN, PER STATE DOT STANDARD.
100
AcDbText
  0
TEXT
  5
212
330
17
100
AcDbEntity
  8
ANNO-TEXT
100
AcDbText
 10
30.0
 20
-137.0
 30
0.0
 40
2.5
  1
3. ALL PROPOSED PIPE: 24" RCP CL. III (ASTM C76) UNLESS NOTED. MIN SLOPE 0.20%.
100
AcDbText
  0
TEXT
  5
213
330
17
100
AcDbEntity
  8
ANNO-TEXT
100
AcDbText
 10
30.0
 20
-142.0
 30
0.0
 40
2.5
  1
4. ALL MANHOLES: 4-FT DIA. PRECAST CONC. (ASTM C478) W/ WATERTIGHT JOINTS.
100
AcDbText
  0
TEXT
  5
214
330
17
100
AcDbEntity
  8
ANNO-TEXT
100
AcDbText
 10
30.0
 20
-147.0
 30
0.0
 40
2.5
  1
5. CURB INLETS: TYPE C-MODIFIED, 5-FT OPENING. GRATE & FRAME PER TXDOT STD.
100
AcDbText
  0
TEXT
  5
215
330
17
100
AcDbEntity
  8
ANNO-TEXT
100
AcDbText
 10
30.0
 20
-152.0
 30
0.0
 40
2.5
  1
6. CONTRACTOR SHALL FIELD-VERIFY ALL EXISTING UTILITY LOCATIONS PRIOR TO WORK.
100
AcDbText
  0
TEXT
  5
216
330
17
100
AcDbEntity
  8
ANNO-TEXT
100
AcDbText
 10
30.0
 20
-157.0
 30
0.0
 40
2.5
  1
7. DETENTION BASIN: DESIGN PER TxDOT 100-YR CRITERIA. VOL. = 1.42 AC-FT.
100
AcDbText
  0
TEXT
  5
217
330
17
100
AcDbEntity
  8
ANNO-TEXT
100
AcDbText
 10
-20.0
 20
-5.0
 30
0.0
 40
0.12
  1
STANDARDS: TX DOT / AASHTO 7th Ed.
100
AcDbText
  0
TEXT
  5
218
330
17
100
AcDbEntity
  8
ANNO-TEXT
100
AcDbText
 10
-20.0
 20
-6.5
 30
0.0
 40
0.12
  1
STORM: 10-yr | PIPE COVER: 1.5'min
100
AcDbText
  0
ENDSEC
  0
SECTION
  2
OBJECTS
  0
DICTIONARY
  5
A
330
0
100
AcDbDictionary
281
1
  3
ACAD_COLOR
350
B
  3
ACAD_GROUP
350
C
  3
ACAD_LAYOUT
350
D
  3
ACAD_MATERIAL
350
E
  3
ACAD_MLEADERSTYLE
350
F
  3
ACAD_MLINESTYLE
350
10
  3
ACAD_PLOTSETTINGS
350
11
  3
ACAD_PLOTSTYLENAME
350
12
  3
ACAD_SCALELIST
350
14
  3
ACAD_TABLESTYLE
350
15
  3
ACAD_VISUALSTYLE
350
16
  3
EZDXF_META
350
2D
  0
DICTIONARY
  5
B
330
A
100
AcDbDictionary
281
1
  0
DICTIONARY
  5
C
330
A
100
AcDbDictionary
281
1
  0
DICTIONARY
  5
D
330
A
100
AcDbDictionary
281
1
  3
Model
350
1A
  3
Layout1
350
1E
  0
DICTIONARY
  5
E
330
A
100
AcDbDictionary
281
1
  3
ByBlock
350
1F
  3
ByLayer
350
20
  3
Global
350
21
  0
DICTIONARY
  5
F
330
A
100
AcDbDictionary
281
1
  3
Standard
350
2C
  0
DICTIONARY
  5
10
330
A
100
AcDbDictionary
281
1
  3
Standard
350
22
  0
DICTIONARY
  5
11
330
A
100
AcDbDictionary
281
1
  0
ACDBDICTIONARYWDFLT
  5
12
330
A
100
AcDbDictionary
281
1
  3
Normal
350
13
100
AcDbDictionaryWithDefault
340
13
  0
ACDBPLACEHOLDER
  5
13
330
12
  0
DICTIONARY
  5
14
330
A
100
AcDbDictionary
281
1
  0
DICTIONARY
  5
15
330
A
100
AcDbDictionary
281
1
  0
DICTIONARY
  5
16
330
A
100
AcDbDictionary
281
1
  0
LAYOUT
  5
1A
330
D
100
AcDbPlotSettings
  1

  4
A3
  6

 40
7.5
 41
20.0
 42
7.5
 43
20.0
 44
420.0
 45
297.0
 46
0.0
 47
0.0
 48
0.0
 49
0.0
140
0.0
141
0.0
142
1.0
143
1.0
 70
1024
 72
1
 73
0
 74
5
  7

 75
16
 76
0
 77
2
 78
300
147
1.0
148
0.0
149
0.0
100
AcDbLayout
  1
Model
 70
1
 71
0
 10
0.0
 20
0.0
 11
420.0
 21
297.0
 12
0.0
 22
0.0
 32
0.0
 14
1e+20
 24
1e+20
 34
1e+20
 15
-1e+20
 25
-1e+20
 35
-1e+20
146
0.0
 13
0.0
 23
0.0
 33
0.0
 16
1.0
 26
0.0
 36
0.0
 17
0.0
 27
1.0
 37
0.0
 76
1
330
17
  0
LAYOUT
  5
1E
330
D
100
AcDbPlotSettings
  1

  4
A3
  6

 40
7.5
 41
20.0
 42
7.5
 43
20.0
 44
420.0
 45
297.0
 46
0.0
 47
0.0
 48
0.0
 49
0.0
140
0.0
141
0.0
142
1.0
143
1.0
 70
0
 72
1
 73
0
 74
5
  7

 75
16
 76
0
 77
2
 78
300
147
1.0
148
0.0
149
0.0
100
AcDbLayout
  1
Layout1
 70
1
 71
1
 10
0.0
 20
0.0
 11
420.0
 21
297.0
 12
0.0
 22
0.0
 32
0.0
 14
1e+20
 24
1e+20
 34
1e+20
 15
-1e+20
 25
-1e+20
 35
-1e+20
146
0.0
 13
0.0
 23
0.0
 33
0.0
 16
1.0
 26
0.0
 36
0.0
 17
0.0
 27
1.0
 37
0.0
 76
1
330
1B
  0
MATERIAL
  5
1F
102
{ACAD_REACTORS
330
E
102
}
330
E
100
AcDbMaterial
  1
ByBlock
  2

 70
0
 40
1.0
 71
1
 41
1.0
 91
-1023410177
 42
1.0
 72
1
  3

 73
1
 74
1
 75
1
 44
0.5
 73
0
 45
1.0
 46
1.0
 77
1
  4

 78
1
 79
1
170
1
 48
1.0
171
1
  6

172
1
173
1
174
1
140
1.0
141
1.0
175
1
  7

176
1
177
1
178
1
143
1.0
179
1
  8

270
1
271
1
272
1
145
1.0
146
1.0
273
1
  9

274
1
275
1
276
1
 42
1.0
 72
1
  3

 73
1
 74
1
 75
1
 94
63
  0
MATERIAL
  5
20
102
{ACAD_REACTORS
330
E
102
}
330
E
100
AcDbMaterial
  1
ByLayer
  2

 70
0
 40
1.0
 71
1
 41
1.0
 91
-1023410177
 42
1.0
 72
1
  3

 73
1
 74
1
 75
1
 44
0.5
 73
0
 45
1.0
 46
1.0
 77
1
  4

 78
1
 79
1
170
1
 48
1.0
171
1
  6

172
1
173
1
174
1
140
1.0
141
1.0
175
1
  7

176
1
177
1
178
1
143
1.0
179
1
  8

270
1
271
1
272
1
145
1.0
146
1.0
273
1
  9

274
1
275
1
276
1
 42
1.0
 72
1
  3

 73
1
 74
1
 75
1
 94
63
  0
MATERIAL
  5
21
102
{ACAD_REACTORS
330
E
102
}
330
E
100
AcDbMaterial
  1
Global
  2

 70
0
 40
1.0
 71
1
 41
1.0
 91
-1023410177
 42
1.0
 72
1
  3

 73
1
 74
1
 75
1
 44
0.5
 73
0
 45
1.0
 46
1.0
 77
1
  4

 78
1
 79
1
170
1
 48
1.0
171
1
  6

172
1
173
1
174
1
140
1.0
141
1.0
175
1
  7

176
1
177
1
178
1
143
1.0
179
1
  8

270
1
271
1
272
1
145
1.0
146
1.0
273
1
  9

274
1
275
1
276
1
 42
1.0
 72
1
  3

 73
1
 74
1
 75
1
 94
63
  0
MLINESTYLE
  5
22
102
{ACAD_REACTORS
330
10
102
}
330
10
100
AcDbMlineStyle
  2
Standard
 70
0
  3

 62
256
 51
90.0
 52
90.0
 71
2
 49
0.5
 62
256
  6
BYLAYER
 49
-0.5
 62
256
  6
BYLAYER
  0
MLEADERSTYLE
  5
2C
102
{ACAD_REACTORS
330
F
102
}
330
F
100
AcDbMLeaderStyle
179
2
170
2
171
1
172
0
 90
2
 40
0.0
 41
0.0
173
1
 91
-1056964608
 92
-2
290
1
 42
2.0
291
1
 43
8.0
  3
Standard
 44
4.0
300

342
29
174
1
175
1
176
0
178
1
 93
-1056964608
 45
4.0
292
0
297
0
 46
4.0
 94
-1056964608
 47
1.0
 49
1.0
140
1.0
294
1
141
0.0
177
0
142
1.0
295
0
296
0
143
3.75
271
0
272
9
273
9
  0
DICTIONARY
  5
2D
330
A
100
AcDbDictionary
280
1
281
1
  3
CREATED_BY_EZDXF
350
2E
  3
WRITTEN_BY_EZDXF
350
21B
  0
DICTIONARYVAR
  5
2E
330
2D
100
DictionaryVariables
280
0
  1
1.4.3 @ 2026-03-29T20:09:12.063870+00:00
  0
DICTIONARYVAR
  5
21B
330
2D
100
DictionaryVariables
280
0
  1
1.4.3 @ 2026-03-29T20:09:12.081438+00:00
  0
ENDSEC
  0
EOF
